<?xml version="1.0" encoding="utf-8"?>
<!-- Generator: Adobe Illustrator 25.4.1, SVG Export Plug-In . SVG Version: 6.00 Build 0)  -->
<svg version="1.1" id="Layer_1" xmlns="http://www.w3.org/2000/svg" xmlns:xlink="http://www.w3.org/1999/xlink" x="0px" y="0px"
	 viewBox="0 0 30 30" style="enable-background:new 0 0 30 30;" xml:space="preserve">
<style type="text/css">
	.st0{enable-background:new    ;}
	.st1{fill:#FFFFFF;}
</style>
<g>
	<defs>
		<rect id="SVGID_1_" x="90.2" y="-716" width="1893" height="1812"/>
	</defs>
	<clipPath id="SVGID_00000034805831319092654520000012484555299099253922_">
		<use xlink:href="#SVGID_1_"  style="overflow:visible;"/>
	</clipPath>
</g>
<circle cx="15" cy="15" r="15"/>
<g class="st0">
	<path class="st1" d="M14.3,15.1c0,0.6-0.1,1.1-0.3,1.7c-0.2,0.5-0.6,1-1,1.4c-0.5,0.4-1,0.8-1.5,1c-0.5,0.2-1.1,0.3-1.7,0.3
		c-0.6,0-1.2-0.1-1.7-0.3c-0.5-0.2-1-0.5-1.5-1c-0.4-0.4-0.8-0.9-1-1.4c-0.2-0.5-0.3-1.1-0.3-1.7c0-0.6,0.1-1.2,0.3-1.7
		c0.2-0.5,0.5-1,1-1.4C7,11.6,7.4,11.3,8,11.1c0.5-0.2,1.1-0.3,1.7-0.3c0.6,0,1.2,0.1,1.7,0.3c0.6,0.2,1,0.5,1.5,0.9
		c0.4,0.4,0.8,0.9,1,1.4C14.2,13.9,14.3,14.5,14.3,15.1z M11.4,15.1c0-0.6-0.2-1.1-0.5-1.4c-0.3-0.3-0.7-0.5-1.2-0.5
		c-0.5,0-0.9,0.2-1.2,0.5C8.2,14,8,14.5,8,15.1c0,0.6,0.1,1.1,0.4,1.4C8.8,16.9,9.2,17,9.7,17c0.5,0,0.9-0.2,1.3-0.5
		C11.3,16.2,11.4,15.7,11.4,15.1z"/>
	<path class="st1" d="M24.8,11v8.1c0,1.2-0.4,2.1-1.1,2.7c-0.4,0.3-0.8,0.5-1.4,0.7c-0.6,0.1-1.3,0.2-2.1,0.2c-1.3,0-2.3-0.2-3-0.7
		c-0.7-0.5-1.1-1.1-1.1-2h3c0.1,0.3,0.2,0.5,0.4,0.6c0.2,0.1,0.5,0.2,0.9,0.2c0.6,0,1-0.1,1.3-0.4c0.2-0.3,0.3-0.9,0.3-1.9v-0.7
		c-0.3,0.5-0.7,0.9-1.1,1.1c-0.5,0.3-1,0.4-1.7,0.4c-1.1,0-1.9-0.4-2.6-1.2c-0.3-0.4-0.6-0.8-0.7-1.3s-0.2-1.1-0.2-1.7
		c0-1.3,0.3-2.3,1-3.1c0.3-0.4,0.7-0.7,1.2-0.9c0.5-0.2,1-0.3,1.5-0.3c0.6,0,1.1,0.1,1.6,0.4c0.4,0.2,0.8,0.6,1.1,1.2V11H24.8z
		 M22.3,15.1c0-0.6-0.2-1.1-0.5-1.5c-0.4-0.4-0.8-0.5-1.4-0.5s-1,0.2-1.4,0.5c-0.3,0.4-0.5,0.9-0.5,1.5c0,0.6,0.2,1.1,0.5,1.5
		c0.3,0.4,0.8,0.5,1.4,0.5c0.6,0,1-0.2,1.4-0.5C22.1,16.2,22.3,15.7,22.3,15.1z"/>
</g>
</svg>
