<svg xmlns="http://www.w3.org/2000/svg" viewBox="0 0 336.31 242.14"><defs><style>.cls-1{fill:#fff;}</style></defs><g id="Layer_2" data-name="Layer 2"><g id="Obj"><path class="cls-1" d="M57.58,37.9c.29-.08.56-.18.84-.27a.37.37,0,0,1,.3-.15c.85,0,2.4-1.63,3-2.08,1-.83,2-1.63,3.13-2.38,2.41-1.66,4.69-3.48,7-5.23,4.72-3.53,9.8-6.57,14.69-9.86A118.58,118.58,0,0,1,102.71,9c5.17-2.4,11-3.46,16.52-4.83a58.84,58.84,0,0,1,8.66-1.94q4-.34,8-.35h5.28c.17,0,.32,0,.48,0a22,22,0,0,0-3-.55c-1.31-.13-2.6-.5-3.93-.5h-7.94c-1,0-1.82.31-2.77.36-5.82.31-11.2,2-16.67,3.9-3,1.08-6,2.52-9,3.83-2.55,1.13-5.14,2.18-7.67,3.37-5.45,2.59-10.26,6-15.31,9.25-2.64,1.71-5.38,3.19-8.06,4.82-1.16.71-2.3,1.77-3.49,2.37S61.34,30,60.16,30.69c-5.11,3.12-9.27,7.54-14.52,10.4-2.26,1.22-4.5,2.32-6.69,3.64,2.46-.84,4.93-1.65,7.35-2.61C50,40.65,53.74,39.1,57.58,37.9Z"/><path d="M131.05,18.75a22.18,22.18,0,0,1,4.31-.06,32.94,32.94,0,0,0,4.62.57c.31,0,.62.06.92.1,1-.78,1.68-2,2.82-2.76s2.5-1.69,3.74-2.56c1.08-.75,2.22-1.56,3.35-2.23a1.34,1.34,0,0,1,.3-.13c-2.44-1.53-5-2.85-7.64-4.16-1.16-.59-2.36-1.07-3.52-1.65s-2.29-.64-3.42-1.12l-.24-.1s0,.08,0,.11a.25.25,0,0,1-.19.25l0,0a.29.29,0,0,1-.3.3c-.47,0-2,2.3-2.4,2.7-1.15,1.13-2.33,2.2-3.41,3.4-2.09,2.33-4.23,4.6-6.2,7a29.77,29.77,0,0,1,3-.09C128.19,18.42,129.64,18.75,131.05,18.75Z"/><path class="cls-1" d="M32.12,50.68l-.14.14a9.12,9.12,0,0,0-2.67,4c-.57,1.93-3.35,3.32-4.8,4.44s-3,2.44-4.5,3.72c-1.15,1-2.48,1.85-3.57,2.92-.49.49-1,.95-1.53,1.42,4.54-2.94,9.38-5.39,13.9-8.4,2.93-2,5.76-4,8.61-6,1.77-1.27,3.26-2.79,4.94-4.15a10.08,10.08,0,0,1,1.36-.91c-2.94.71-5.88,1.45-8.81,2.27A26.17,26.17,0,0,1,32.12,50.68Z"/><path class="cls-1" d="M147.41,2.92a37.64,37.64,0,0,1,4.19,1.69c1.09.49,2.17,1,3.22,1.57.05,0,.1,0,.12.07a32.61,32.61,0,0,1,4.51,2.85c2,1.53,3.36,3.7,5.29,5.27a11.1,11.1,0,0,1,1.81,1.68,10.37,10.37,0,0,0,1,1.45,14.28,14.28,0,0,1,2.16,2.37c1.56,2.08,3.15,4.12,4.67,6.22,1.8,2.46,3.46,5.05,5.36,7.43,1.76,2.22,3,4.84,4.79,7A64.91,64.91,0,0,1,189.08,47a23.5,23.5,0,0,1,1.78,3.22,5.53,5.53,0,0,1,.63,1.15,10.59,10.59,0,0,1,.83,1.23c.65,1.11,1.28,2.26,2,3.34.23.35,1.17,2.24,1.45,2.24l.12,0a1.24,1.24,0,0,1,.18-.14A24,24,0,0,0,194.56,53c-.75-1.69-.49-3.53-.82-5.31-.69-3.6-1-7.3-1.57-10.92-.73-4.25-2.57-8.16-3.95-12.21A65.9,65.9,0,0,0,183,13.83c-2.11-3.77-3.93-7.51-8.1-9.34a39.58,39.58,0,0,0-6.18-2.29c-2.35-.59-4.5-.31-6.88-.37-1.84-.05-3.66-.39-5.5-.53-2-.16-3.93-.29-5.94-.26s-4.17.1-6.19.34c-.39.05-1.13,0-1.85,0,.58.16,1.17.32,1.77.44A15.56,15.56,0,0,1,147.41,2.92Z"/><path class="cls-1" d="M196.15,58.6a.13.13,0,0,0,0-.06.5.5,0,0,0-.08.07v.15h.17A.34.34,0,0,1,196.15,58.6Z"/><path d="M133.58,2.89l2.55,1c1.15.47,2.38.6,3.53,1.07s2.34,1.12,3.54,1.6a52.11,52.11,0,0,1,7,3.68,35,35,0,0,1,6.19,4.28c2.07,1.94,4.09,3.89,6.11,5.88a68.48,68.48,0,0,1,5.69,5.74A36.49,36.49,0,0,1,172.52,32c.49,1,1.14,1.73,1.63,2.64.73.69,1.45,1.4,2.1,2.15,1,1.14,2.37,1.91,3.37,3a16.21,16.21,0,0,0,2.58,2.46c.8.54,1.25,1.43,2,2C185.2,45,186,46,187,46.83s2,1.78,3,2.72c-.21-.42-.42-.84-.66-1.23-1.14-1.86-2.65-3.46-3.76-5.34s-2.68-3.52-3.9-5.33-2.41-3.48-3.67-5.19c-1.73-2.35-3.28-4.82-5-7.14a60.72,60.72,0,0,0-5-6.38c-1-1-1.72-2.34-2.74-3.16S163.26,14,162.31,13a30.62,30.62,0,0,0-6.67-5.44c-.79-.45-1.6-.86-2.42-1.25h0a12.48,12.48,0,0,1-2.56-1.11,39.14,39.14,0,0,0-3.86-1.35,29.15,29.15,0,0,0-8.67-1.09C136.6,2.79,135.09,2.83,133.58,2.89Z"/><path d="M121.24,25.56a10.47,10.47,0,0,0-1.53,2.12,21.92,21.92,0,0,0-1.56,4c-.32.91-.85,1.75-1.24,2.63-1.23,2.81-2.2,5.73-3.38,8.56-1,2.49-2.37,4.73-3.1,7.35S108.64,55,107.9,57.5s-2.31,5-3,7.6c-1.08,4.27-2.73,8.48-4,12.67-1.57,5-2.44,10.27-3.76,15.38-.3,1.16-.57,2.33-.82,3.49a17.45,17.45,0,0,0,.81-2.54c.46-2,1-4.12,1.58-6.14a108.19,108.19,0,0,1,4.14-12.29c1.76-4.13,4.33-7.81,6.27-11.83a30.58,30.58,0,0,1,3.44-5.34,53.79,53.79,0,0,0,3.08-5.09c1.17-1.95,2.11-4.11,3.43-6,1.09-1.53,2.27-3,3.4-4.47,2.5-3.31,5.57-6.16,8.25-9.33,1.68-2,3.31-4,4.86-6.08a8,8,0,0,1,1.24-1.45,63.31,63.31,0,0,0-9-.86A50.8,50.8,0,0,0,121.24,25.56Z"/><path class="cls-1" d="M216.72,64.78c-1.59-.69-3-1.8-4.66-2.38a23.56,23.56,0,0,1-4-1.43,5.93,5.93,0,0,0-3-1,7.7,7.7,0,0,1-1.52,0,25,25,0,0,0-6.75-.59,3.66,3.66,0,0,1,.49.31.2.2,0,0,1,.11,0l3.53,0c.49,0,1.19.64,1.6.87a36,36,0,0,1,5.19,3.14,29.19,29.19,0,0,1,5.71,6.24,5.7,5.7,0,0,1,1.21,1.35c.87,1.61,1.9,3.15,2.91,4.68,2,3.06,4.06,6.19,6.35,9s4.55,5.95,6.9,8.87,4.75,5.57,6.93,8.53c3.57,4.88,8.12,9,12,13.64,2,2.32,4.08,4.47,6.12,6.72,1.82,2,3.9,3.73,5.72,5.74,2.11,2.32,4.19,4.65,6.41,6.86,2,2,3.89,4.24,6,6.2,2.32,2.17,4.74,4.2,7,6.48,2,2.1,4.06,4.22,6.22,6.21,2.33,2.15,4.86,4,7.34,6,2.21,1.78,4,3.82,6.09,5.74a126.47,126.47,0,0,1,12.21,13.64,133.87,133.87,0,0,1,10.38,14.55c1.25,2.07,2.37,4.22,3.54,6.34-.55-1.53-1.08-3.07-1.54-4.63-1.38-4.71-2.7-9.46-4.43-14.06a148.49,148.49,0,0,0-6.18-14c-2-4.13-5.09-7.74-7.74-11.48-2-2.81-3.93-6-6.36-8.4-2.13-2.12-4.19-4.3-6.31-6.44-4.28-4.33-7.85-9.32-12.13-13.64s-8.17-9.36-12.4-13.91-8.9-9.13-13.42-13.63S247.31,91,242.79,86.46,233.8,77,228.58,73c-2.62-2-5.14-4.12-7.92-5.91A30.06,30.06,0,0,0,216.72,64.78Z"/><path class="cls-1" d="M180.4,46.87a24.36,24.36,0,0,1,5.2,2.52,33.85,33.85,0,0,1,6.49,4.8c.28.28.55.58.82.87-.09-.15-.19-.3-.29-.44a27.14,27.14,0,0,0-2.91-4.07c-2.14-2.31-4.84-4.08-6.91-6.46-1.85-2.13-4.24-3.84-6.28-5.79A70.94,70.94,0,0,0,168.13,31a59.14,59.14,0,0,0-9.33-5.21,50.65,50.65,0,0,0-10.17-3.67c-3.32-.68-6.63-1.7-10-2-1.58-.13-3.22-.68-4.79-.59a32.18,32.18,0,0,1-4.91-.1,39.79,39.79,0,0,0-6,0,.3.3,0,0,1-.34,0,87.46,87.46,0,0,0-10.72,1.63c-6.08,1.21-11.84,3.52-17.77,5.29s-11.62,3.87-17.37,6c-2.75,1-5.61,1.69-8.35,2.75s-5.61,2.2-8.45,3.08c-11.51,3.58-22.36,9.29-34.41,10.93A29.48,29.48,0,0,0,21,50c-1.1.33-2.44.3-3.48.66-1.74.6-3.57.49-5.37.83-.46.09-.94.15-1.42.2a110.76,110.76,0,0,0,13.8-1c2.82-.33,5.57-.72,8.31-1.24l.06,0H33c1.32-.25,2.63-.53,3.94-.86,4-1,8-2.16,12.12-3,6.33-1.33,12.64-2.67,18.86-4.43s12.32-4,18.42-6.12c5.8-2.05,11.43-4.67,17.3-6.5a90,90,0,0,1,17.89-3.89c11.76-1.14,23.59,1.74,34.43,6.1a67.12,67.12,0,0,1,7.71,3.41c2.43,1.36,4.73,3,7,4.57s4.09,3.6,6.33,5.18c1,.73,1.82,1.74,2.84,2.5C180,46.42,180.19,46.67,180.4,46.87Z"/><path class="cls-1" d="M204.31,62.1l-3.11-1.76c-.84-.47-2.3-.29-3.38-.25a6.79,6.79,0,0,1,1.74,2.52,11.25,11.25,0,0,1,.42,4.85,39.64,39.64,0,0,0,.5,6.26,66.37,66.37,0,0,1,.77,6.91A61.71,61.71,0,0,0,202.86,90c.76,3.15,2,6.19,2.73,9.33.7,3,1.93,5.81,2.61,8.77.58,2.52,1.37,4.92,2.16,7.38,1.91,5.93,4.12,11.76,6,17.72,3.74,12.07,7.42,24.13,11.83,36,2.19,5.89,4.61,11.67,6.7,17.6,1.08,3.07,2.2,6.13,3.24,9.22a95.46,95.46,0,0,0,3.12,9.09c.49,1.08.61,2.35,1,3.45a35.75,35.75,0,0,1,1.35,3.62q1.32,4.56,2.51,9.16c.87,3.3,1.7,6.61,2.56,9.92.38,1.46.85,2.92,1.09,4.41l0,.26c-.08-2.88-.2-5.75,0-8.59.28-3.91.45-7.86.54-11.79,0-1.95,0-3.9,0-5.85s.36-4.21.26-6.31c-.2-4-.62-8-.94-12.09-.49-6-1.34-12-2-18.07a184.47,184.47,0,0,0-3-19.25A344.6,344.6,0,0,0,234,118.05c-1-3-1.9-6.08-3-9.09-.51-1.39-1.13-2.8-1.5-4.23s-1.21-2.67-1.62-4.07c-1.75-6-3.82-12-7.1-17.37s-6.16-10.77-10.13-15.59A22.78,22.78,0,0,0,204.31,62.1Z"/><path class="cls-1" d="M316.3,149.31c-1.13-1.43-2.09-3-3.12-4.46-1.37-2-2.84-3.84-4.34-5.72-.54-.67-1.11-1.35-1.62-2a11.84,11.84,0,0,0-1.48-2.21c-1.19-1-2-2.48-3-3.64-.78-.89-1.62-1.71-2.33-2.65a75.26,75.26,0,0,0-5.74-6.86c-4.41-4.51-8.48-9.38-12.84-14-2.28-2.4-4.42-4.9-6.66-7.34-1.91-2.08-4.18-3.84-5.93-6.06-2.1-2.67-4.74-4.88-7-7.37-2-2.14-4.16-4.13-6.36-6.06-2.41-2.1-4.68-4.16-7.27-6-2.13-1.55-4.13-3.36-6.22-5-4.55-3.54-10.07-7.08-15.76-8.32-5.16-1.13-10.37-1.69-15.54-2.61-1.46-.26-2.91-.55-4.37-.82-1.21-.23-2.54.06-3.71-.2a10.51,10.51,0,0,0-4.6-.17c-.28.08-.89.18-1.43.35,0,0,0,0,0,.06s0,.18,0,.27a.41.41,0,0,1-.1.27l2.94,0a8.57,8.57,0,0,1,3,.17c1,.38,2.09,0,3,.35s2.05.94,3.12,1.31a57.67,57.67,0,0,1,14.58,7.64c.58.41,1.13.84,1.69,1.27,7.7,3.1,14.68,8,21.18,13.08,4.59,3.61,9.36,7,14,10.54s8.34,7.89,12.2,12.21,8,8.59,11.94,12.95,8.72,8.18,12.85,12.56,8.09,9,11.9,13.61c3.7,4.48,7.61,8.72,10.86,13.56,1.82,2.7,3.69,5.32,5.43,8-1.81-3.29-3.76-6.51-5.44-9.87A37,37,0,0,0,316.3,149.31Z"/><path class="cls-1" d="M179.29,74.88l0,0a.13.13,0,0,1,0-.16c2.92-4.6,4.49-10,7.12-14.81.52-.94,1.5-3.71,2.91-3.71,1.05,0,1.7,1.11,2.6,1.23a.28.28,0,0,1,.28.29l.05.07c.61.32,1.11.86,1.84.88l.91,0a15.07,15.07,0,0,0-3-3.52,38.15,38.15,0,0,0-4-3.17A25.44,25.44,0,0,0,184,49.49c-1.57-.75-3.68-2.24-5.49-2-3.66.39-5.54,4.19-7.7,6.73-2.45,2.89-4.65,5.88-6.86,9-4.28,6-6.92,12.51-10,19.11-1.6,3.39-3,6.88-4.56,10.26-1.5,3.19-3.25,6.25-4.71,9.45-2.39,5.24-3.77,10.76-6.08,16-1.33,3-2.34,6.17-3.43,9.26-1,2.77-2,5.53-3,8.29A169.1,169.1,0,0,0,123,170c-1.89,12.66-4.8,25.18-6.17,37.92a164.12,164.12,0,0,0-1,17.45V235.5c0,1.69.18,3.34.24,5,.12-.31.19-.66.27-.87a.42.42,0,0,1,.61-.24,10.87,10.87,0,0,1,.73-3.13,103.09,103.09,0,0,1,3.22-13.74c1-3,2-6.09,2.78-9.19.71-2.81,1.83-5.43,2.73-8.17.46-1.42,1.32-2.62,1.69-4.07a33.94,33.94,0,0,1,1.39-3.93c1.07-2.73,2.33-5.36,3.31-8.12,2-5.54,4.1-10.9,6.44-16.29,1.13-2.6,1.95-5.46,3.43-7.89a27.84,27.84,0,0,0,1.87-4.39,37.78,37.78,0,0,0,1.59-3.59c.73-2.81,2.21-5.42,3.18-8.15s2-5.54,3-8.29a83.82,83.82,0,0,0,3.17-9.06c.3-1.19,1.07-2.29,1.37-3.52s1.4-2.73,1.91-4c2.29-5.56,5-10.95,7.19-16.54a60.81,60.81,0,0,1,3.17-7.37,15.64,15.64,0,0,0,.8-1.65C172.21,90.18,174.87,82.12,179.29,74.88Z"/><path class="cls-1" d="M196.09,59.59l-.07,0a2.9,2.9,0,0,1-.51,0,.33.33,0,0,1-.32-.24,6.64,6.64,0,0,1-2-.1c-.36-.15-1.78-1.49-2.16-.65a13.88,13.88,0,0,1-.9,1.76c-1,1.71-2.4,3.14-3.59,4.78s-2,3.16-3,4.76a85.88,85.88,0,0,0-6.07,10.41,127.31,127.31,0,0,0-4.92,12.34c-2.07,6.2-3.5,12.6-5.23,18.9a142.81,142.81,0,0,0-4,19.31c-1.71,13-3.66,26-5.32,39a185.12,185.12,0,0,0-1.92,18.79c-.07,3.22-.05,6.45-.05,9.67,0,2.68-.37,5.51-.07,8.17.33,3,.24,6,.48,9,.2,2.52-.09,5.11.35,7.6.24,1.4,0,2.88.13,4.3a21,21,0,0,1,.12,3.55,27.36,27.36,0,0,0,.42,5.06,2.58,2.58,0,0,1,1.13-1.6.47.47,0,0,1,.61.16c.65.88.85,2,1.44,2.91a11,11,0,0,0,.17-2.41c0-.8.28-1.61.29-2.44a.34.34,0,0,1,0-.18c.12-1.92.28-3.83.52-5.73.33-2.63.42-5.32.89-7.92,1-5.9,2.7-11.71,4.2-17.51,1.63-6.32,3.18-12.66,5-18.93.95-3.26,1.91-6.52,2.93-9.76.93-3,2.17-5.89,2.91-8.9,1.44-5.88,3.1-11.7,4.29-17.64.64-3.21,1.27-6.44,1.83-9.66.52-3,.61-6,1.1-9,2-12.07,5.9-23.79,9.23-35.53.83-2.92,1.26-6,2-8.91.37-1.4.73-2.82,1-4.24a40,40,0,0,0,1-4.55c.19-2.54,1.08-5,1.09-7.52S198.73,60.66,196.09,59.59Z"/><path d="M174.89,5.05a36.14,36.14,0,0,1,2.82,2.85C178.47,9,179.18,10,180,11c1.88,2.19,3.09,5.51,4,8.24s2,5.66,3.12,8.47A48.57,48.57,0,0,1,189.73,35c.61,2.6,1.59,5.08,2.07,7.71.36,2,1,3.88,1.31,5.85a18.46,18.46,0,0,0,2.22,6.11.17.17,0,0,0,.29-.17c-1-1.81-2.26-4.9-2.27-7,0-1.75-1-3.7-1.29-5.46-.45-2.44-1.46-4.72-2-7.14a46.23,46.23,0,0,0-2.84-7.9c-2-4.86-3.62-9.77-5.88-14.51A19.79,19.79,0,0,0,179,9.25c-.61-.8-1.13-1.66-1.76-2.45s-1.73-1.47-2.52-2.31c-.4-.44-1.9-1.26-1.91-1.9a.08.08,0,0,0-.16,0C172.59,3.42,174.38,4.47,174.89,5.05Z"/><path d="M148.06,6.36c1.09.7,2.22,1.31,3.32,2s2,1.67,3,2.38a59.66,59.66,0,0,1,7.13,6,59,59,0,0,1,5.59,6.71c1.92,2.42,4.17,4.55,6,7,.93,1.25,1.81,2.54,2.74,3.79a10,10,0,0,0,1.63,2.17c1.1.76,1.7,2,2.7,2.83a27.52,27.52,0,0,1,2.84,3.34c1.06,1.29,2.33,2.34,3.43,3.58.7.8,1.33,1.68,2.06,2.45a7.15,7.15,0,0,0,1.93,2.37c.2.14.37-.18.18-.32a6.66,6.66,0,0,1-1.44-1.7.17.17,0,0,0,0-.15c-.1-.11-.19-.23-.28-.35a28.76,28.76,0,0,0-1.65-2.63c-2-2.54-4-5-5.88-7.64-1.63-2.21-3.42-4.34-5.18-6.45-2-2.41-3.71-5-5.75-7.43-1.67-2-3.31-4-4.9-6s-3.76-4.73-6-6.24a75.06,75.06,0,0,1-7.19-5.2,15.21,15.21,0,0,0-3-1.81c-1.16-.61-1.76-1.44-3-1.77-.06,0-.09.08,0,.1,1.28.36,2.29,1.43,3.46,2.07s2.24,1.58,3.42,2.35a61.89,61.89,0,0,1,7.25,5.28c4.07,3.62,7.21,8.32,10.7,12.46,3.87,4.59,7.33,9.61,11,14.35,1.53,2,3,4,4.61,5.92-1-1-2-2-2.95-3-1.92-2.12-3.57-4.62-5.7-6.52s-3.4-4.47-5-6.61c-1.74-2.32-3.84-4.35-5.73-6.54s-3.38-4.78-5.61-6.68a77.52,77.52,0,0,0-6.61-5.65c-4.61-3.14-9.12-6.57-14.38-8.6-.06,0-.1.08,0,.1A48.57,48.57,0,0,1,148.06,6.36Z"/><path d="M158.45,15.46a29.2,29.2,0,0,1,2.9,2.88c1,1.11,1.91,2.47,2.94,3.5,1.65,1.65,3.1,3.5,4.74,5.16a31.24,31.24,0,0,1,5.68,7.39c1.12,2,3.31,3.78,4.83,5.52a39.55,39.55,0,0,0,4,4.43c.14.11.32-.07.19-.19-1.43-1.42-2.66-2.95-4-4.48-2-2.36-4.24-4.41-5.69-7.18-1.28-2.44-3.33-4.22-5.24-6.14s-3.4-3.84-5.05-5.81a47.73,47.73,0,0,0-5.73-5.82A37.09,37.09,0,0,1,155,11.54a13.87,13.87,0,0,0-3.32-2.3c-1.2-.69-2.48-1.25-3.65-2s-2.5-1.56-3.76-2.2a26.28,26.28,0,0,0-3-1c-1.53-.54-3-1.23-4.53-1.78-.1,0-.14.13-.05.16,1.31.5,2.53,1.12,3.85,1.59a35.14,35.14,0,0,1,4.11,1.57c1.14.58,2,1.38,3.22,2s2.44,1.31,3.63,2C154.26,11.1,156.05,13.45,158.45,15.46Z"/><path d="M134.28,7.9c1.31-1,2.55-2.09,3.91-2.95.23-.15,0-.51-.21-.37-5.67,3.45-9.23,8.82-13,14.13,0,.06.06.14.11.08,1.76-2.23,3.41-4.54,5.22-6.72A22.28,22.28,0,0,1,134.28,7.9Z"/><path d="M128,18.57a8.83,8.83,0,0,0,1.83-2c1-1.24,1.85-2.66,2.88-3.91s2-2.46,3.11-3.65c.64-.71,1.23-1.44,1.9-2.12,0,0,1.85-1.42,1.79-1.68a.1.1,0,0,0,.19,0l0-.13a.13.13,0,0,0-.21-.12c-4.69,3.74-7.85,8.92-11.67,13.43C127.74,18.48,127.85,18.64,128,18.57Z"/><path d="M130,18.92c2-2.25,3.61-4.78,5.51-7.11a13.74,13.74,0,0,1,2.82-3.07c.23-.15,2.71-2.19,2.6-2.58a.16.16,0,0,0,.3,0l0-.12a.19.19,0,0,0-.28-.22A20,20,0,0,0,136,10.5c-1.12,1.51-2.28,3-3.36,4.52a46.45,46.45,0,0,0-2.78,3.82C129.85,18.91,129.94,19,130,18.92Z"/><path d="M132.92,18.81c1.07-2.28,3.34-4.14,4.81-6.21.82-1.16,1.67-2.33,2.43-3.53a32.47,32.47,0,0,0,2-2.63.1.1,0,0,0-.18-.1c-1.35,2.08-3,4-4.45,6.12s-3.72,3.88-4.82,6.2C132.58,18.84,132.84,19,132.92,18.81Z"/><path d="M135.31,19.05c1.42-2,3.1-3.91,4.56-5.92A30.11,30.11,0,0,1,143,9.38c.29-.3,1.44-1.21,1.36-1.46a.14.14,0,0,0,.26,0s0-.08,0-.12a.18.18,0,0,0-.26-.2,18.34,18.34,0,0,0-4.44,4.77c-1.52,2.23-3.43,4.25-4.77,6.6C135.11,19.06,135.25,19.14,135.31,19.05Z"/><path d="M137.27,19.23c1.12-1.89,2.88-3.33,4-5.23A31.34,31.34,0,0,1,146,8.21a.07.07,0,0,0-.1-.11,32.43,32.43,0,0,0-4.46,5.18C140,15.21,138.23,17,137,19.07,136.89,19.24,137.17,19.4,137.27,19.23Z"/><path d="M139.12,19.58c.3-1.19,1.56-2.22,2.31-3.15.63-.77,1.24-1.54,1.82-2.35A18.68,18.68,0,0,1,147.67,10a.19.19,0,0,0-.18-.33A12.31,12.31,0,0,0,145.82,11a13.92,13.92,0,0,0-2.6,2.48,42.26,42.26,0,0,1-2.78,3.75c-.62.75-1.33,1.3-1.49,2.29C138.93,19.64,139.09,19.69,139.12,19.58Z"/><path d="M142.51,17.2c1-.89,1.88-1.92,3-2.76,1.51-1.16,2.73-3,4.46-3.87.13-.06,0-.27-.1-.23a3.47,3.47,0,0,0-1.46,1.07A32.21,32.21,0,0,1,145,14.57a18.3,18.3,0,0,0-4.82,4.91.15.15,0,0,0,.16.21l.07,0a.13.13,0,0,0,.1-.13.49.49,0,0,1,0-.12.08.08,0,0,0-.12-.07A25.74,25.74,0,0,0,142.51,17.2Z"/><path d="M111.6,53.13c1-2.61,2.35-5.06,3.58-7.55,1.16-2.33,1.85-4.88,3.06-7.21,2.4-4.58,4-9.77,7.43-13.73.08-.09,0-.23-.13-.14-3.28,3.63-5,8.46-7.1,12.76a39.7,39.7,0,0,0-2.73,6.41c-.82,2.83-2.74,5.35-3.86,8.08-2.23,5.48-4,11.18-6.61,16.48a67.62,67.62,0,0,0-3,7.27c-.26.71-.51,1.48-.75,2.26.64-2.71,1.81-5.27,2.38-8,.68-3.21,2.82-6.22,3.85-9.37,1.9-5.81,4.52-11.43,6.77-17.11,1.12-2.86,2-5.79,3.11-8.64a38.1,38.1,0,0,1,2.58-5.1c.82-1.4,1.52-3.27,2.78-4.34a.13.13,0,0,0-.16-.21c-1.84,1.26-3,4.31-4,6.23-1.63,3-2.36,6.25-3.7,9.35-1.26,2.93-2.1,6.06-3.4,9a92.1,92.1,0,0,0-3.49,8.63c-1.18,3.55-2.64,6.91-4.16,10.33a32.73,32.73,0,0,0-1,3.38c-.48,1.54-1.06,3-1.49,4.59-.8,2.9-1.28,5.89-2,8.8-.84,3.13-1.68,6.27-2.46,9.43,0,0,0,.05.06,0a109.94,109.94,0,0,0,3.3-12.18.07.07,0,0,0,.13,0,58.59,58.59,0,0,1,5.2-14.77C108.11,63.07,109.75,58,111.6,53.13Z"/><path d="M114.24,53.47c1.29-1.95,2.22-4.12,3.39-6.14s2.14-4,3.3-6,2.62-3.57,3.66-5.59a33.84,33.84,0,0,1,3.45-5.6A9.24,9.24,0,0,0,129.18,28c.3-.66,1.32-2.13,1.29-2.83a.15.15,0,0,0,.3,0,.66.66,0,0,0,0-.14.16.16,0,0,0-.27-.11c-1.22,1.16-1.66,3.08-2.45,4.54-.91,1.68-2.08,3.29-3,5a59.08,59.08,0,0,1-3.76,5.79,51.71,51.71,0,0,0-3.62,6.35c-2.19,4.1-4.64,8-6.89,12.1-.65,1.18-1.25,2.4-1.82,3.65.44-1.14.85-2.3,1.22-3.46.9-2.86,2.7-5.37,3.88-8.1A131.82,131.82,0,0,1,120.7,38.4c1.23-2.15,2.18-4.44,3.47-6.56.71-1.16,1.33-2.33,2-3.53.45-.84.89-2.67,1.68-3.26.08-.06,0-.19-.08-.14-.36.2-.43.42-.61.82-.53,1.24-1.25,2.41-1.85,3.62-1.19,2.39-2.64,4.69-3.9,7s-2.5,4.69-3.84,7A65,65,0,0,0,114,50c-1,2.29-2.2,4.47-3.29,6.71s-1.87,5-2.87,7.45c-2,4.93-4.38,9.58-6,14.66,0,.12.15.2.19.09,1.71-4,3.27-8.08,5-12.07-.71,1.75-1.38,3.5-2.07,5.22,0,0,.07.08.09,0,2.21-4.07,3.87-8.48,5.82-12.68A48.36,48.36,0,0,1,114.24,53.47Z"/><path d="M120.86,44.64c2.36-3.47,4.65-6.86,6.77-10.49A37.63,37.63,0,0,1,131,29.06c.92-1.13,1.61-3.06,2.91-3.77.06,0,0-.11-.05-.08-1.25.57-1.76,2.06-2.64,3.07a29.59,29.59,0,0,0-2.75,3.82c-2.34,3.8-4.47,7.62-7.08,11.26a89.28,89.28,0,0,0-6.5,10.16,58.82,58.82,0,0,1-3.21,5,44.08,44.08,0,0,0-2.73,5.29.13.13,0,0,0,.23.13c.78-1.32,1.39-2.74,2.11-4.1.92-1.75,2.16-3.36,3.21-5s1.86-3.41,2.84-5.09S119.7,46.34,120.86,44.64Z"/><path d="M136,25.61c-2.61,2.85-5,5.85-7.3,8.91-.55.72-.9,1.61-1.47,2.34-.81,1.06-1.58,2.15-2.45,3.17a18.75,18.75,0,0,0-3.24,4.86c-.05.14.17.22.24.1,2.16-3.61,5.35-6.52,7.24-10.28.84-1.68,2.42-3,3.62-4.42s2.37-3,3.46-4.6C136.14,25.63,136.05,25.56,136,25.61Z"/><path d="M40.48,48.35a6.92,6.92,0,0,0-2.95,1.92,27,27,0,0,1-4.48,4.53c-1.56,1.37-3.3,2.67-5,3.91a16.42,16.42,0,0,1-2,1.31c.52-.44,1.05-.87,1.6-1.27,3.54-2.57,5.32-6.61,8.59-9.38.13-.11,0-.34-.18-.24a18.29,18.29,0,0,0-1.5,1.54,9.29,9.29,0,0,0-1.86,2,19.79,19.79,0,0,1-5.71,6.1c-1.81,1.3-3.42,2.89-5.31,4.09,1-.79,2-1.93,2.86-2.63s1.4-1.41,2.18-2a20.31,20.31,0,0,0,2.67-2.11C31,54.29,31.93,52,33.6,50.33c.16-.15-.08-.39-.24-.23-1.55,1.55-2.33,3.65-3.76,5.32-1.24,1.43-3,2.43-4.37,3.77s-3.45,3.61-5.35,4.32-3.54,3-5.28,4.16c0,0,0,.12.05.09a16,16,0,0,0,2.77-2.12.09.09,0,0,0,.11,0A50.81,50.81,0,0,1,22,63.19a18.26,18.26,0,0,0,2.23-1.57c.93,0,1.89-1.06,2.66-1.51,1.84-1.11,3.32-2.67,5.05-3.91a21.53,21.53,0,0,0,4.42-3.76c.63-.78,1.26-1.57,1.9-2.34s1.8-.74,2.11-1.52c0,0,0,.06,0,.05l.16-.07A.11.11,0,1,0,40.48,48.35Z"/><path d="M42.94,43.73c1.62-1.14,3.44-1.92,5-3.12,1.34-1,3-1.6,4.24-2.75C55.33,35,59.4,33.37,63,31.19A120.08,120.08,0,0,0,73.45,24a66.93,66.93,0,0,1,11.27-7.32c4-1.89,7.78-4.14,11.94-5.69l2.18-.82c-1.75.86-3.47,1.78-5.19,2.7C91.5,14.05,89.2,15,87,16a44.42,44.42,0,0,0-5.8,3.65C77.65,22.06,74,24.24,70.68,27,68.77,28.56,67,30.25,65,31.76c-1.7,1.31-3.54,2.37-5.31,3.57-3.59,2.45-7.23,5.48-11.6,6.4a.07.07,0,1,0,0,.14A24.68,24.68,0,0,0,53.2,40a23.5,23.5,0,0,0,5-3.25c3.33-2.48,7-4.46,10-7.26A108.25,108.25,0,0,1,79.77,21,81.22,81.22,0,0,1,91.9,14.09C96,12.18,99.82,9.9,104.06,8.33a80.34,80.34,0,0,1,12.21-3.92,54.48,54.48,0,0,1,6.48-1.11c1.7-.12,3.45-.81,5.14-.81a20.57,20.57,0,0,0,4.4-.82,25.06,25.06,0,0,1,5.93-.4.17.17,0,0,0,0-.33c-1.67,0-3.25.06-4.91.17s-3,.77-4.56,1c-2,.28-4,.75-6,.87a21.32,21.32,0,0,0-5.45.87c-1.88.63-3.88.7-5.72,1.44s-4.1,1.57-6.11,2.21c.77-.35,1.55-.71,2.31-1.09,4.38-2.18,9-2.6,13.66-3.64,2.3-.51,4.68-.91,7-1.21.79-.11,1.57-.27,2.35-.42.6-.12,2.18-.89,2.75-.6.13.07.25-.14.12-.21-.75-.41-2.16.28-3,.48-1.94.5-4.06.71-6,1a123.87,123.87,0,0,0-13.76,2.83c-2.27.65-4.32,2-6.52,2.92-2,.78-3.92,1.66-5.93,2.34-4,1.37-7.74,3.47-11.57,5.31A84.26,84.26,0,0,0,75,22.44c-3.7,2.61-7.15,5.52-11.06,7.85-3.65,2.18-7.6,3.9-11,6.47s-6.85,4.29-10.19,6.64C42.54,43.54,42.74,43.88,42.94,43.73Z"/><path d="M28.52,48.92c2.42-.8,4.94-1.4,7.42-2,3.06-.72,5.84-2,8.83-3,2.44-.76,4.9-1.5,7.35-2.24,2.81-.85,5.6-1.78,8.41-2.61a48.5,48.5,0,0,0,6.78-2.63,52.89,52.89,0,0,1,8.78-3.17A83.07,83.07,0,0,0,91.3,28.08a27.49,27.49,0,0,1,7.93-2.76c3.07-.51,6.06-1.61,9.12-2.23s6.12-.92,9.22-1.28,6.22-1.39,9.39-1.5c2.35-.08,4.83.22,7.19.29a39.21,39.21,0,0,1,4.7.6c1.43.21,2.87.25,4.29.59a87.22,87.22,0,0,1,16.06,5.49,14.2,14.2,0,0,1,3.28,1.52l3.05,2.55a22.83,22.83,0,0,0,2.58,2.06,28.19,28.19,0,0,1,3,1.76c1.78,1.32,3.63,2.61,5.32,4,2,1.72,3.7,3.77,5.74,5.48,1.05.89,2.14,1.73,3.17,2.64s2.09,1.16,2.92,2.51c.73,1.2.52,1.17,1.63,2.1-.06-.06,1.54,2.08,1.54,2.06a.11.11,0,0,0,.12.12h.13a.12.12,0,1,0,0-.24s-1.63-2.19-2.06-2.56a14.89,14.89,0,0,1-1.88-2.82,2.14,2.14,0,0,0-.52-.39c-.91-.65-1.85-1.16-2.71-1.89-2.07-1.75-4-3.45-6-5.35a39.2,39.2,0,0,0-2.9-2.72A19.94,19.94,0,0,0,173,36.1a21.78,21.78,0,0,1-2.85-2c-1.06-.8-2.32-1.29-3.39-2.15-1.81-1.45-3.53-3.52-5.74-4.31-5.44-2-10.66-4.81-16.41-5.79-2.39-.41-4.69-.95-7.11-1.24-2.72-.32-5.41-.45-8.15-.5a33.7,33.7,0,0,0-3.77-.11,35.81,35.81,0,0,0-3.58.66c-3.08.59-6.18.73-9.24,1.32s-6,1.07-9,1.85c-2.67.69-5.62,1.09-8.18,2.11-5.25,2.1-10.4,4.44-15.87,6-2.69.75-5.38,1.55-8,2.37-2.94.91-5.64,2.52-8.55,3.53-2.59.89-5.15,1.85-7.76,2.69-2.91.94-5.93,1.59-8.84,2.55s-5.61,2.08-8.45,3-5.81,1.47-8.66,2.23c-2.68.72-5.34,1.27-8.07,1.75-2.95.5-6.4.71-9.19,1.8-.21.09-.12.43.1.35,2.47-.86,5.27-.94,7.83-1.44A69.1,69.1,0,0,0,28.52,48.92Z"/><path d="M113.25,24.31a29.84,29.84,0,0,1,8.91-1.25,126.44,126.44,0,0,1,17.46,1.77c5.87.86,12,2.08,17.26,4.91,2.78,1.49,5.92,2.75,8.44,4.63A42.29,42.29,0,0,0,169.76,37a21.69,21.69,0,0,1,2.29,1.64,9.91,9.91,0,0,1,2.22,1.75,9.63,9.63,0,0,0,2.63,2.3c1.41.87,2.55,2.11,4,3,1.16.73,2.07,2,3.16,2.91.33.27.92,1.07,1.41,1.06a.14.14,0,0,0,0-.27c-.38,0-1.37-1.15-1.68-1.41-.81-.67-1.39-1.53-2.12-2.25a34,34,0,0,0-3-2.24c-1-.8-2-1.64-3-2.41-1.71-1.32-3.23-2.84-5.06-4.07-1.15-.76-2.42-1.35-3.62-2.05s-2.15-1.57-3.4-2.17c-2.17-1-4.29-2.33-6.41-3.49a35.18,35.18,0,0,0-8.06-3,100.78,100.78,0,0,0-16.74-2.84c-5.16-.47-10.11-1.23-15.28-.38-2.69.44-5.25,1.3-7.94,1.69A42.64,42.64,0,0,0,101.21,27c-10.08,3.6-19.91,7.74-29.8,11.78a93.11,93.11,0,0,1-11.75,3.44C55.47,43.26,51.18,44,47,45c-2.14.51-4.29.88-6.39,1.52s-4,1.33-6,1.77c-.43.1-.86.2-1.29.32,1.2-.36,2.39-.75,3.55-1.1,3-.89,5.85-2,8.89-2.77,5.61-1.4,11.07-3.58,16.61-5.25,5.9-1.78,11.61-3.84,17.37-6,2.74-1,5.61-2,8.43-2.79s5.32-2.14,8-3.13c1.25-.45,2.64-.62,3.92-1s2.76-.86,4.15-1.25c2.81-.79,5.65-1.42,8.48-2.13a47.88,47.88,0,0,1,7.29-.71c2.86-.25,5.67-.89,8.55-1s5.42,1.08,8.21,1.18a38,38,0,0,1,9.3,1.89c2.31.72,4.78.95,7,2,1.85.89,3.74,1.61,5.63,2.4a32,32,0,0,1,5.9,3.27c2,1.35,4.08,2.57,6,4s3.63,2.46,5.35,3.85a58.87,58.87,0,0,1,4.87,4.61,34.11,34.11,0,0,0,4.45,3.68,18.33,18.33,0,0,1,2.3,2.11c.73.73,1.53,1,2.06,2,.06.12.24,0,.18-.11a3.86,3.86,0,0,0-1.22-1.53c-.74-.59-.95-1.21-1.64-1.74a52.17,52.17,0,0,1-6.64-5.58,58.3,58.3,0,0,0-5.35-4.83A21.9,21.9,0,0,0,172.45,37c-1.37-.83-2.52-2-4-2.68a58.61,58.61,0,0,1-5.8-3.94c-2.46-1.64-5.46-2.38-8.15-3.56-5-2.21-10.36-3.21-15.71-4.36-1.34-.29-2.72-.23-4.07-.43s-2.71-.64-4.08-.86c-2.59-.43-5.3.11-7.86.5-2.23.34-4.5.41-6.74.71-1.18.16-2.35.15-3.52.37-1.5.27-2.92.84-4.43,1.07a56.24,56.24,0,0,0-8.2,2.33c-1.3.4-2.62.66-3.92,1-1.51.42-2.84,1.31-4.34,1.76-1.26.38-2.41,1-3.68,1.37s-2.74.87-4.1,1.32c-3.18,1.08-6.29,2.24-9.4,3.49-5,2-10.27,3.19-15.36,4.94-5.4,1.86-10.85,3.62-16.38,5-2.51.64-5,1.62-7.42,2.47a62.57,62.57,0,0,1-7.74,1.94c-2.39.5-4.68,1.4-7,1.91s-4.69-.06-6.82.86c-.19.08-.05.4.14.33,2.26-.89,5-.4,7.38-.91,2.64-.56,5.18-1.5,7.86-2,.64-.12,1.29-.27,1.94-.43-.75.22-1.5.45-2.24.69-1.35.42-2.91.59-4,1.48-.25.19.09.53.33.34,1.1-.87,3.14-1.15,4.47-1.57a39.82,39.82,0,0,1,3.84-1.08c3-.63,5.84-1.73,8.76-2.54C48,44.93,54,44.05,59.78,42.62c10.56-2.58,20.29-7,30.34-11A140,140,0,0,1,105.69,26C108.19,25.36,110.78,25.12,113.25,24.31Z"/><path d="M163,107.52c-2.58,5.6-4.65,11.44-7.36,17a151.86,151.86,0,0,0-6.7,17.27c-1.08,3.13-2.49,6.13-3.56,9.27-1,2.92-1.87,5.88-2.72,8.86-1.66,5.78-4,11.3-6.17,16.9-1.12,2.87-2.72,5.54-3.8,8.44-1,2.66-1.43,5.48-2.39,8.16-1.11,3.09-1.91,6.27-3,9.38-.46,1.37-1.08,2.78-1.4,4.19a10.81,10.81,0,0,1-.89,3c-.08.15-.31,0-.23-.14a37,37,0,0,0,1.2-4.37c.38-1.15.84-2.31,1.16-3.48.67-2.43,1.36-4.84,2.19-7.21,1.52-4.35,2.41-8.84,4.38-13a170.33,170.33,0,0,0,6.95-17c2.08-6,3.47-12.27,5.92-18.18,2.34-5.64,4-11.56,6.32-17.2,1.1-2.64,2.46-5.17,3.62-7.78s2.14-5.51,3.35-8.22c1.3-2.94,2.59-5.9,4-8.78s2.61-6.11,3.87-9.23c.54-1.35,1.38-2.51,2-3.82s1.05-2.6,1.78-3.83a69.88,69.88,0,0,0,3.66-7.16,71.05,71.05,0,0,1,4.06-7.91,57.57,57.57,0,0,0,3.29-7.2c1.76-4,2.78-7.77,7.17-9.5h0c-1.89-1.48-6.5,4.15-7,5.22a96,96,0,0,0-4.1,9.23c-2,6-5.23,11.67-8.35,17.15-1.54,2.7-3.21,5.37-4.48,8.21s-2.33,5.64-3.59,8.42c-2.7,5.93-5.41,11.88-7.84,17.92-1.22,3.06-2.64,6.06-3.81,9.13-1,2.76-1.91,5.58-3,8.34-2.19,5.69-3.1,11.71-5.19,17.45-2.16,5.91-4.08,11.84-6.48,17.65-1.21,2.95-2.42,5.93-3.54,8.92-1,2.72-2.38,5.46-3,8.31-.33,1.59-1,3-1.42,4.58s-.6,2.85-.93,4.27c-.65,2.76-1.51,5.48-2.13,8.25-.54,2.45-1.47,4.79-2,7.21a36.38,36.38,0,0,1-1.77,7c0,.12-.25,0-.2-.08a48.11,48.11,0,0,0,1.25-5.77,43.35,43.35,0,0,1,1.35-5.12,94.9,94.9,0,0,0,2.91-10.92,56.28,56.28,0,0,1,1.52-6.31c.63-1.72.85-3.61,1.54-5.29,1.59-3.87,3.16-7.79,4.63-11.7,1-2.7,2.08-5.36,3.23-8,1.34-3.07,2.23-6.33,3.3-9.5s2.21-6.06,3.09-9.17c.79-2.8,1.16-5.75,2.11-8.5,4-11.53,8.67-22.89,13.7-34,2.58-5.71,4.75-11.73,7.82-17.18,3-5.28,6-10.56,8.68-16,1.39-2.83,2-6,3.47-8.81.7-1.27,1.35-2.56,1.93-3.9a14.18,14.18,0,0,1,1.56-3.26c.68-.83,3.8-4.19,5.83-4.27l-.05,0c-2.37.13-4.88.3-6.49,2.27s-2.69,4.4-4.11,6.55c-2.34,3.52-4.28,7.32-6.51,10.92a53,53,0,0,0-3.71,6.51c-1,2.27-1.86,4.58-2.84,6.85-2,4.61-4,9.16-6,13.81q-1.76,4.31-3.7,8.52c-1.32,2.85-2.25,5.88-3.29,8.84-2,5.68-3.49,11.66-6.06,17.12A152.41,152.41,0,0,0,139,154.64c-1.94,6-4.19,11.92-5.82,18s-2.7,12.16-4.55,18.08-3.21,11.85-4.71,17.84c-.68,2.74-1,5.6-1.78,8.3s-1.13,5.35-1.83,8a42,42,0,0,0-1.59,8.75c0,1,.39,2.73-.44,3.52a.17.17,0,0,1-.24-.25c.56-.62.1-1.85.14-2.59a22.22,22.22,0,0,1,.34-2.69,24.42,24.42,0,0,1,.55-3.82,21.51,21.51,0,0,0,.74-3.05,56,56,0,0,1,1.63-7.37c.65-2.11.74-4.27,1.28-6.39,1.25-4.92,2.42-9.87,3.7-14.79s3.07-10,4.12-15.06a151,151,0,0,1,5.22-18.27c2-5.82,3.65-11.78,6-17.48,1.15-2.78,2.47-5.47,3.75-8.2,1.39-2.95,2.29-6,3.39-9,2-5.57,3.47-11.51,6-16.88,2.7-5.78,4.87-11.78,7.55-17.57,2.57-5.55,4.4-11.76,7.8-16.88,1.62-2.43,3.3-4.94,4.7-7.51s2.81-4.77,4.17-7.2c1.12-2,2.39-4.71,4.44-6a8.72,8.72,0,0,1,4.42-1l-.65-.18a3.8,3.8,0,0,1-1.16-.63c-3.47-.26-7,2.27-8.74,5.14-1.24,2-2.6,4-3.76,6.06s-2.07,4.33-3.1,6.5c-2.23,4.69-5.41,8.91-7.14,13.83-1.63,4.64-3.62,9.14-5,13.85-1.76,5.83-5.15,10.91-7.4,16.53-2.35,5.88-5,11.63-7.3,17.53-1.18,3-2,6.1-3.25,9.08a27.57,27.57,0,0,0-1.75,4.07,28.49,28.49,0,0,1-1.06,3.85c-2.1,5.47-3.53,11.12-5.13,16.74-.85,3-1.34,6-2.18,9-.78,2.76-1.73,5.47-2.37,8.26-1.29,5.61-3,11.1-4.24,16.73-1,4.41-2.2,8.77-3.1,13.2,0,.16,0,.32-.07.48a27.87,27.87,0,0,1-.55,2.92c0,.14-.05.28-.07.42-.18,1.17-.39,2.33-.62,3.49,0,.05,0,.09,0,.14a12.48,12.48,0,0,1-.53,2.45c-.06.26-.11.53-.17.79a5.7,5.7,0,0,0-.1.83c0,1.11-.2,2.2-.26,3.31-.14,2.42-.29,4.83-.38,7.27a.19.19,0,0,1-.29.16,9.81,9.81,0,0,1-.08,1.08c-.08.7-.39,1.84-.39,2.56a.25.25,0,0,1-.5,0v-.27a.14.14,0,0,1,0-.07c.06-1.34.5-2.7.51-4.07,0-.17,0-.33,0-.5a.23.23,0,0,1-.28-.24c.07-2.45.45-4.88.54-7.33a4.4,4.4,0,0,1,.2-1.12c.07-2.12.08-4.24.08-6.37a35.25,35.25,0,0,1,.88-5.83c.38-2.17.62-4.4,1.09-6.55.86-4,2.24-7.84,2.71-12,.21-1.83.69-3.64,1-5.46.36-2.18.56-4.38,1-6.56.8-4.17,1.27-8.38,2.2-12.53s2-8.19,3-12.28,1.8-8.46,3.32-12.49c1-2.76,1.8-5.59,2.86-8.34s1.51-5.52,2.59-8.17c2.08-5.13,4.38-10.12,6.35-15.31,1.06-2.79,1.83-5.78,3.16-8.46.56-1.13.82-2.42,1.35-3.53.66-1.36,1.32-2.74,1.88-4.14,1.06-2.66,2.05-5.37,3.22-8s2.73-5.32,4.09-8c2.81-5.49,5.86-10.88,8.29-16.55a64.59,64.59,0,0,1,4.27-8.11,15.3,15.3,0,0,1,2-2.63,22.51,22.51,0,0,1,2.58-2.85c1.35-1.05,3.7-3.34,5.59-3a5.08,5.08,0,0,1,2.36,1.1c.86.69,1.33,1.56,2.47,1.87a12,12,0,0,1,2.71,1.61c.59.36,2.39.93,2.72,1.46a6.67,6.67,0,0,0,1.13,1c.79.55,1.41,1.57,2.28,2a.16.16,0,0,1,.08.14,2.44,2.44,0,0,1,0,.27.17.17,0,1,1-.33,0c0-.23-.72-.84-1.35-1.32a.11.11,0,0,1-.17.08,7.59,7.59,0,0,0-1.84-1,.16.16,0,0,1-.15-.12c0-.35-.41-.67-.87-.94l0,0c.08.1-.09.23-.17.14l-.11-.11s0,.09,0,.11a15.65,15.65,0,0,0-2.42,1.39,8.78,8.78,0,0,0-1.6,1.88c-1.25,1.44-1.62,3.41-2.43,5.11s-1.26,3.66-2.11,5.41-2.08,3.55-3.08,5.36c-1.4,2.53-2.59,5.24-3.81,7.86s-2.61,4.81-3.67,7.33c-.65,1.52-1.6,2.86-2.26,4.36s-1.16,3.26-1.83,4.86C165.51,102.36,164.18,104.9,163,107.52ZM186.4,53.81l-.05,0a5.11,5.11,0,0,0,.66.45l.11.05.39.12C187.14,54.21,186.77,54,186.4,53.81ZM118.09,224.86c.09-.57.2-1.14.33-1.74.27-1.25.15-2.88.54-4.07a26,26,0,0,0,1.11-5.25,45.6,45.6,0,0,0,.78-5.18c0-3.11,1.06-6.21,1.54-9.28,2.38-15.34,8.48-29.77,11.51-45,2.46-12.33,7.26-23.85,11.26-35.73.82-2.42,1.54-4.88,2.6-7.22,1.25-2.76,2.69-5.42,4-8.17,1.41-3,3-6,4.45-9,1.31-2.68,3.16-5.08,4.34-7.83,2.48-5.77,4.67-11.67,7-17.52,1-2.5,2.8-4.59,4.25-6.81a60.74,60.74,0,0,1,4.4-6.06c1.61-1.93,2.72-3.56,5.15-4.39a3.58,3.58,0,0,1,2.66.44,4.93,4.93,0,0,0-2.41-1.64c-1.47-.27-2.86.75-4,1.53a28.9,28.9,0,0,0-4.27,4.07c-2.48,2.5-4.25,6.07-5.64,9.28-3.06,7-6.69,13.84-10.28,20.63a117.81,117.81,0,0,0-5,11.09c-.61,1.53-1.25,3-1.92,4.54s-1,2.83-1.64,4.19c-1.45,3.06-2.42,6.29-3.64,9.43-1,2.68-2.22,5.31-3.15,8-.85,2.49-2.29,4.79-3.2,7.28-1,2.7-1.56,5.5-2.59,8.18A132.84,132.84,0,0,0,130.87,156c-1.42,6-3.17,12-4.36,18.05s-1.83,12.23-3,18.3c-.53,2.77-.91,5.56-1.48,8.32s-1.67,5.55-2.11,8.41c-.49,3.16-1,6.32-1.58,9.47A33.48,33.48,0,0,0,118.09,224.86ZM185.35,53.69l-.59-.47c-2.49-1.8-5.32-.49-6.93,1.9-1.47,2.18-3.48,4-4.89,6.24s-3.16,4.28-4.37,6.64c-1.42,2.77-2.34,5.85-3.49,8.74-1.06,2.66-2.15,5.32-3.23,8C159.68,90,156.44,94.88,153.9,100a143.74,143.74,0,0,0-7.62,17.07c-2,5.78-4,11.56-6.07,17.3a124.81,124.81,0,0,0-5.33,17.94c-1.27,6.22-2.82,12.3-4.65,18.38s-3.55,12.14-5.08,18.29c-1.41,5.69-2.38,11.44-3.53,17.18a14,14,0,0,0-.18,2.24,19.93,19.93,0,0,0,.69-2.29c2.24-10,5-19.87,7.63-29.8.8-3,1.32-6,2.17-9,.79-2.77,1.58-5.53,2.33-8.31s1.79-5.64,2.81-8.43c.46-1.27.67-2.56,1.06-3.85a32.82,32.82,0,0,1,1.5-3.44c1.37-3.17,2.26-6.5,3.53-9.7,1.05-2.64,2.16-5.24,3.28-7.84,2.47-5.72,4.74-11.47,7.54-17a122.17,122.17,0,0,0,6.61-16.93c.91-2.74,2-5.55,3.14-8.19s2.67-5,4-7.45c2.78-5.06,4.7-10.7,8.11-15.39,1.5-2.06,2.42-3.81,4.66-5.17.72-.44,1.6-1.44,2.42-1.58S184.54,53.75,185.35,53.69Z"/><path d="M159.29,229.94v2.33c0,.81.11,1.63.17,2.44a.43.43,0,0,0,0,.11.49.49,0,0,1,0,.11.25.25,0,0,0,0,.08.13.13,0,0,1,.07.12v.28a.18.18,0,0,1,0,.11c0,.51.05,1,.05,1.51a.18.18,0,0,1-.35,0c0-.48,0-.95,0-1.42l-.06,0h-.27a.23.23,0,0,1-.23-.22c.07-2-.16-4-.27-6,0-.35-.07-.69-.12-1,0,2.88.05,5.77,0,8.65a.19.19,0,0,1-.21.21.21.21,0,0,1-.22-.21c-.09-9-.29-18-.28-27,0-4.17.27-8.3.27-12.47,0-2.32.14-4.65.28-7,0-.9.27-1.8.27-2.71a11.86,11.86,0,0,1,0-2.23c.59-3,.49-6,1-9,.43-2.61.76-5.23,1.19-7.83.54-3.28.71-6.61,1-9.91.27-3,.15-6,.38-9.05.17-2.37.5-4.85.5-7.22a32.83,32.83,0,0,1,.55-6.79c.55-2.56.75-5.11,1.44-7.67s1.13-5.06,1.77-7.57a40.34,40.34,0,0,1,2.78-7.74,43.29,43.29,0,0,0,2.69-8.9c1.33-5.48,2.19-11.35,4.63-16.47,1.26-2.66,2-5.56,3.57-8.09a14.17,14.17,0,0,1,1.9-2.95,9.35,9.35,0,0,0,2.71-3.18c.68-1.55,1.93-2.84,2.7-4.36a21.09,21.09,0,0,1,1.92-3.24A35.51,35.51,0,0,0,191,62.22a13.93,13.93,0,0,0,1.68-4c0-.08.15-.06.14,0-.44,3.74-3.13,6.67-4.77,9.87-1.06,2.06-2.38,4-3.53,6-1,1.7-2.48,2.8-3.56,4.47a32.48,32.48,0,0,0-3.19,6.61c-.71,1.94-1.78,3.72-2.31,5.73-1.16,4.42-2.54,8.76-3.39,13.26a34,34,0,0,1-2.43,8.38,42,42,0,0,0-3,8.26c-.67,2.72-1.18,5.5-1.94,8.19-.67,2.34-.77,4.71-1.27,7.06-.56,2.6-.11,5.34-.59,7.91a20.74,20.74,0,0,0-.22,3.86c0,1.18-.27,2.32-.27,3.5A108.2,108.2,0,0,1,161,169c-.48,2.81-.91,5.71-1.29,8.54-.22,1.62-.22,3.21-.36,4.83-.12,1.39-.52,2.8-.52,4.19,0,2.74-.33,5.49-.47,8.23s.06,5.74-.06,8.61c-.26,5.61-.23,11.21-.16,16.82.1-4.18.47-8.32.91-12.48.23-2.18,0-4.42.42-6.58.27-1.28-.09-2.57,0-3.87.08-1.13.24-2.26.25-3.39,0-4.76,1-9.51,1.38-14.24.23-2.6.7-5.22,1.07-7.8.42-2.87.18-5.78.44-8.66.49-5.54,1.28-11,2.18-16.49.48-3,.73-5.88,1.07-8.84a57,57,0,0,0,.65-6.38,15.26,15.26,0,0,1,1-3.31c.41-1.43.76-2.87,1.14-4.3.71-2.67,1.2-5.5,2.11-8.08.47-1.33.46-2.72.88-4.05s.93-2.77,1.46-4.13c1.07-2.73,1.8-5.61,2.93-8.3,2.22-5.28,3.36-11,5.75-16.24a68.37,68.37,0,0,1,4.22-8A28.06,28.06,0,0,0,187.42,72c.47-1,1.21-1.78,1.7-2.77.59-1.19,1-3.05,1.87-4.05s.86-2.2,1.41-3.34c.41-.83.28-2.29,1.12-2.86.1-.07.24.1.13.18-.6.48-.53,1.76-.72,2.41-.22.82-.44,1.67-.74,2.47s-.89,1.34-1.22,2.08c-.49,1.11-.91,2.27-1.5,3.32-2,3.55-4.09,7.11-5.9,10.78-2.22,4.5-3.43,9.28-5.16,14s-3.2,9.1-4.94,13.61a19.82,19.82,0,0,0-1.69,5.33,10,10,0,0,1-.65,2.85A74.79,74.79,0,0,0,169,124c-.7,2.67-2.09,5.72-2.09,8.5,0,2.25-.7,4.45-.78,6.69-.2,5.19-1.4,10.41-2.18,15.55-.49,3.26-.88,6.61-1,9.9-.12,2.45,0,4.91-.35,7.34-.44,3-.73,6-1.1,8.95-.29,2.3-.43,4.65-.84,6.93a20.67,20.67,0,0,0-.22,3.6c0,.6-.26,1.21-.26,1.83,0,1.34-.22,2.66-.26,4,0,1.17.14,2.32.08,3.49s-.35,2.46-.36,3.72c0,5.45-1.09,10.82-1.09,16.26,0,1.66-.11,3.31-.12,5,0,1.27.37,2.45.38,3.7,0,.17,0,.66.12,1.29,0-4.9.68-9.8.79-14.71,0-1.71.37-3.43.27-5.14a16.63,16.63,0,0,1,.16-4.29,29.94,29.94,0,0,0,.4-5.34c0-1.31.54-2.67.54-4,0-6,1.56-11.87,2.37-17.77.4-2.91.56-5.85,1-8.76a25.86,25.86,0,0,0,.44-4.48,29.18,29.18,0,0,1-.09-4.18c.38-3.09.86-6.15,1.11-9.25a76.44,76.44,0,0,1,1-8.11c1.16-6,2.56-12,4-18s2.86-12.23,4.72-18.2c1.81-5.81,3.38-11.84,6-17.37,2.48-5.34,4.41-11.09,7.25-16.25,1.48-2.67,3.17-5.48,3.77-8.52.25-1.25.44-2.51.71-3.74s.84-2.14,1-3.29c0-.09.15-.07.14,0-.12,1.37-.73,2.62-1,4a34.27,34.27,0,0,1-1.26,5.2c-1.09,3.16-2.86,5.89-4.15,9-2.91,7-6.54,13.69-8.81,20.9-1.93,6.12-4,12.21-5.5,18.44q-2.14,8.91-4.36,17.79a113.34,113.34,0,0,0-3.15,18.93c-.23,3.06-1.11,6.19-1.09,9.23a46.23,46.23,0,0,1-.23,7.44c-.44,2.87-.6,5.77-1,8.65s-1,5.8-1.45,8.72c-.3,2-.59,4-.8,6-.15,1.47,0,3-.21,4.44a62,62,0,0,0-.81,7c0,1.29-.43,2.54-.39,3.82a31.43,31.43,0,0,1,.05,4c-.15,1.4-.23,2.8-.3,4.19.32-2.28.86-4.58,1.27-6.81a41.51,41.51,0,0,0,.62-5.45c.06-1.46.46-2.87.54-4.34.13-2.63.89-5.28,1.25-7.9.43-3.12.69-6.25,1-9.37s.89-6.32,1.06-9.52a55.86,55.86,0,0,1,1-8.15c1.22-6.16,2.53-12.34,3.49-18.54s1.95-12.6,3.26-18.83,3.29-12,4.64-18a57,57,0,0,1,2.68-9.08c1-2.5,1.86-5.16,3-7.6,1.3-2.76,2.84-5.42,4.08-8.21s2.29-5.76,3.42-8.64a86.83,86.83,0,0,0,2.67-8.67,22.15,22.15,0,0,0,.79-8.56c0-.09.14-.11.16,0a21,21,0,0,1-.77,9.38,66.48,66.48,0,0,1-2.92,9.2c-1.52,3.33-2.54,6.83-4.21,10.1-1.77,3.46-3.25,6.94-4.72,10.53a67.77,67.77,0,0,0-3.1,8.89c-.72,2.79-1.18,5.65-1.94,8.43-.87,3.16-2,6.22-2.72,9.41-.68,3-1.26,6-1.78,9-1.1,6.27-2,12.59-3.19,18.84s-3,12.68-3.35,19.07c-.34,6.08-1.12,12.19-1.91,18.23-.37,2.79-.82,5.5-1.35,8.25-.23,1.2-.22,2.42-.45,3.62a25,25,0,0,0-.59,4.15,49.76,49.76,0,0,1-1,7.67c-.36,2.36-.56,4.75-.92,7.1-.41,2.66-.33,5.35-.69,8C159.33,229.42,159.31,229.68,159.29,229.94Zm-.13,5.26a.13.13,0,0,0,0-.06s0,0,0,0Z"/><path d="M196.46,59.9c1.36,2.16.73,5.52.58,7.89a51.93,51.93,0,0,1-1.74,9.39c-1.54,6.2-2.69,12.47-4.67,18.56-.88,2.71-1.27,5.55-2,8.31a95.57,95.57,0,0,1-3.16,9.47,58.13,58.13,0,0,0-2.32,8c-.65,3.13-1.47,6.16-2.25,9.27-.7,2.83-1.05,5.7-1.82,8.52-.83,3-1.63,6.08-2.48,9.1-1.6,5.7-2.13,11.66-3.77,17.32-.84,2.88-1.82,5.7-2.53,8.61s-1.05,5.89-1.67,8.8c-.58,2.68-.85,5.42-1.45,8.1s-1.19,5.62-1.88,8.4c-1.05,4.24-1,8.75-2.07,12.95a47.34,47.34,0,0,0-.92,5c-.28,1.92-.14,4-.59,5.85.07-1,.24-1.95.24-3a25.13,25.13,0,0,1,.38-3.57c.35-2.19.54-4.5.78-6.74.61-5.7,1.65-11.38,2.31-17.09.73-6.39,2.4-12.53,3.68-18.81,1.24-6,2.12-12.26,2.93-18.37.83-6.31,2.37-12.48,3.16-18.81.83-6.64,3-12.81,5-19.17,1.84-5.89,4.12-11.65,6.2-17.46.86-2.38,1.65-4.78,2.45-7.18.75-2.25,1.89-4.37,2.53-6.65s1.11-4.36,1.85-6.51A28.59,28.59,0,0,0,194.85,74c.38-3.36.5-6.83,1.06-10.16.15-.88,1-4.06-.41-4.33-.14,0-.2.18-.06.21,1.22.26.16,4.28,0,5.06-.38,2-.27,4.11-.65,6.16-.49,2.65-.61,5.19-1.47,7.78-.92,2.81-1.68,5.61-2.48,8.45s-2.16,5.44-3.08,8.19c-1.05,3.14-2.14,6.26-3.34,9.34-2.26,5.81-4.17,11.79-6,17.75-.93,3-2,5.93-2.72,9a86.16,86.16,0,0,0-1.22,8.61c-.82,6.59-2.32,13.12-3.37,19.68-1,6.38-1.83,12.8-3.37,19.08a120.72,120.72,0,0,0-3,17.21c-.72,7.32-2.37,14.57-2.81,21.91-.37,6.24-1.59,12.38-1.62,18.62a0,0,0,0,0,0,0v.27a.17.17,0,0,0,.34,0v-.27h0a20.85,20.85,0,0,1,.47-6.27,26.73,26.73,0,0,0,.3-3,19.3,19.3,0,0,0,.32-3.12c0-.22,0-.43,0-.65,0,.08.11.12.13,0a32.5,32.5,0,0,0,.87-6.46,15.28,15.28,0,0,1,.7-3.51,21.79,21.79,0,0,0,.59-3.76c.5-2.87.82-5.77,1.36-8.63s1.34-5.59,1.92-8.4c1.16-5.59,2.06-11.21,3.12-16.82a79.32,79.32,0,0,1,2.45-8.81,73.89,73.89,0,0,0,1.94-8.55c.52-2.87,1.17-5.73,1.86-8.56.75-3.13,2-6.12,2.55-9.3.47-2.78,1.21-5.57,1.78-8.33.65-3.17,1.93-6.24,2.4-9.44.87-6,3.46-11.53,5.21-17.25.84-2.76,1.36-5.64,2-8.44.73-3.12,1.88-6.14,2.63-9.27,1.29-5.44,2.64-10.9,3.73-16.38a41.79,41.79,0,0,0,.65-6.32c.07-1.62,0-4.11-1-5.46C196.57,59.68,196.38,59.78,196.46,59.9Z"/><path d="M199.2,60.46c.1.12.2.25.32.38A1.74,1.74,0,0,0,199.2,60.46Z"/><path d="M250.46,215a33.83,33.83,0,0,1,.62,7.66v9a.25.25,0,0,1-.5,0c0-3.45.06-6.91,0-10.35-.06-2.72-.81-5.35-.81-8.06,0-6.14-2.4-12-3.52-18A169.78,169.78,0,0,0,242,176.7c-.92-3-2-5.95-2.91-9s-1.38-6-2.35-8.88c-2-5.88-4.79-11.45-6.46-17.42-.88-3.11-1.7-6.27-2.53-9.4-.75-2.88-1.75-5.7-2.71-8.52-1-3-1.93-6.13-3.07-9.13-1-2.72-2.41-5.25-3.38-8-2-5.59-2.57-11.61-4.64-17.2a85.19,85.19,0,0,1-2.7-8.85c-.65-2.6-1.79-5-2.69-7.52s-1.75-5.09-2.75-7.54c-1.14-2.81-3-5.2-6.2-5.25.63.56,1.55.93,2,1.69a48.13,48.13,0,0,1,2.2,4.51,32.93,32.93,0,0,1,1.66,5.53c.46,1.66,1.06,3.25,1.42,4.94,1.73,8.12,5.73,15.48,8,23.46,1.71,6,3.62,11.88,5.54,17.81s4.48,11.56,6.32,17.49c.93,3,1.8,6.06,2.47,9.14a41.45,41.45,0,0,0,2.34,8.17,100.76,100.76,0,0,1,5.22,16.56c.81,3.26,1.66,6.57,2.67,9.77.92,2.94,2.18,5.74,3.3,8.6a68.91,68.91,0,0,1,3.18,9.23c.69,2.93,1,5.92,1.6,8.86.55,2.67.73,5.37,1.22,8a22.43,22.43,0,0,1,.15,3.18c.06,1.41.45,2.78.51,4.18.12,2.68.31,5.35.31,8a20.7,20.7,0,0,0,.77,6.46c0,.14-.07.22-.19.21.06.4.12.79.17,1.19,0,.18-.27.21-.3,0-.09-.5-.19-1-.29-1.53a.16.16,0,0,1,0-.08c-1.28-3.23-1.74-6.94-2.52-10.33-.85-3.69-1.62-7.44-2.33-11.16-.68-3.55-1.88-6.94-2.5-10.52a72,72,0,0,0-2.86-10.06c-1.87-5.68-5.35-10.86-7-16.63s-3.05-11.84-5.34-17.55c-1.13-2.83-1.81-5.79-3-8.6-.58-1.4-1.12-2.81-1.7-4.21-.65-1.57-1.07-3.35-1.87-4.85a44,44,0,0,1-2.83-7.93c-.91-3-1.81-6-2.44-9.07-2.39-11.6-6.93-22.66-11-33.71a28.54,28.54,0,0,1-1.74-7.68c-.17-3-.7-5.8-1.11-8.75-.37-2.71-.59-5.33-1.22-8-.39-1.64-1.24-6.37-3.37-6.7a.15.15,0,0,1,0-.29c2.22.26,3,3.94,3.44,5.72a22.11,22.11,0,0,1,1.11,5,43.23,43.23,0,0,0,.86,7c.71,4,.63,8.32,1.94,12.26.67,2,1.36,4.09,2.11,6.1.63,1.71,1.59,3.26,2.15,5,1.84,5.77,4,11.47,5.59,17.32,1.7,6.2,2.76,12.55,5,18.6,1.05,2.82,2,5.64,3.13,8.44a80.45,80.45,0,0,1,3.28,8.36c1.58,5.73,4.25,11.14,5.69,16.92a61.11,61.11,0,0,0,3,9.87c1.19,2.73,2.36,5.47,3.54,8.21a73.45,73.45,0,0,1,5,15.11c.19,1,.4,1.94.62,2.9-.18-.92-.35-1.85-.55-2.77a15.44,15.44,0,0,0-.53-2.71c-.29-.79-.5-1.63-.75-2.44-.57-1.86-1.23-3.69-1.76-5.56-1.56-5.64-2.64-11.44-4.55-17-1-2.93-2.17-5.76-2.94-8.77-.71-2.78-1.63-5.53-2.48-8.27-.95-3-1.36-6.22-2.45-9.18s-1.42-5.71-2.2-8.61a78.24,78.24,0,0,0-2.92-9c-1.12-2.79-2.61-5.4-3.74-8.18-4.47-10.92-7.83-22.27-11.26-33.55-.95-3.11-1.77-6.27-2.51-9.44-.53-2.3-1.66-4.54-1.76-6.91-.07-1.41-.43-2.84-.63-4.25a10.36,10.36,0,0,0-1-4,10.89,10.89,0,0,1-1.17-2.49,7.91,7.91,0,0,0-.79-2.27,3.53,3.53,0,0,1,.84,1.25c.43,1.77,1.92,3.3,2.18,5.06s.63,3.64.88,5.47a24.79,24.79,0,0,0,.4,3.1c.21.77.6,1.49.81,2.25,1.31,4.78,2.34,9.61,3.88,14.33,1.37,4.17,2.75,8.38,3.92,12.61.8,2.9,1.88,5.6,2.93,8.41s1.86,5.54,2.92,8.27c1.26,3.25,2.92,6.29,4.28,9.5a79.17,79.17,0,0,1,2.65,7.73c.93,3,1.2,6.17,2.26,9.15s1.68,5.76,2.42,8.68,1.84,5.83,2.65,8.78,1.59,5.55,2.63,8.3c2.05,5.42,3.19,11.11,4.66,16.7.45,1.68.86,3.4,1.46,5a23.44,23.44,0,0,1,1.36,4.07c.14,1,.73,1.78.79,2.78a33.89,33.89,0,0,0,.74,4.69c.33,1.66.89,3.28,1.14,5a19.93,19.93,0,0,0,.86,3.82c.42,1.18.65,2.39,1,3.58a16,16,0,0,1,.89,3.3,65.62,65.62,0,0,0,1.32,8.35,31.86,31.86,0,0,0-.16-4,35,35,0,0,1-.27-4.59c0-1.84-.54-3.61-.54-5.44a50.18,50.18,0,0,0-1.21-10.43c-.8-3.89-1.07-7.91-2.34-11.7-2-6-4.86-11.79-6.54-17.92-1.63-6-2.91-12-4.9-17.9-1-2.93-2.49-5.76-3.34-8.73-.72-2.54-1.17-5.14-1.83-7.7a165.73,165.73,0,0,0-5.6-17.55c-1.16-3.06-2.4-6-3.35-9.18-.84-2.82-2.2-5.52-2.87-8.4a148.54,148.54,0,0,0-5.72-17.79c-1.12-3-2.67-5.85-3.43-9-.64-2.59-1.13-5.17-1.93-7.71-.88-2.81-1.54-5.62-2.68-8.35a9.55,9.55,0,0,0-2.54-3.9c-.25-.2-1-.81-1.33-1,0,0,0,0,0,0a1.49,1.49,0,0,0,.35.65.87.87,0,0,0-.47-.25.14.14,0,0,1-.09-.09l0-.24a.13.13,0,0,1,.12-.15.16.16,0,0,1,0-.31H199a.16.16,0,0,1,.14.08,2,2,0,0,0,.26.34.13.13,0,0,1,.14-.14c6-.07,7.22,7.28,8.91,11.67.74,1.89,1.33,3.78,2.24,5.61.7,1.42.74,3,1.28,4.52.66,1.81,1.24,3.65,1.72,5.52s1.28,3.55,1.8,5.37c1.66,5.82,2.15,12.33,5.08,17.72,2.79,5.15,4.25,11.19,6.07,16.74,1,3.1,2,6.23,2.86,9.36.81,2.86,1.16,5.86,2.31,8.63,2.35,5.71,4.92,11.55,6.42,17.54.77,3.09,1.29,6.52,2.53,9.47a79.67,79.67,0,0,1,2.81,8.45c1.78,6.07,2.42,12.37,4,18.48.8,3,1.42,6.05,2.11,9.08.26,1.11.24,2.24.55,3.33S250.16,213.76,250.46,215Zm-1.9,13.44c-.07-.5-.15-1-.25-1.49-.66-3.08-1.17-6.15-2-9.16.11.51.21,1,.31,1.55C247.13,222.39,247.86,225.4,248.56,228.43Z"/><path d="M250.68,209.09a30.26,30.26,0,0,0-.29-6.17,26.86,26.86,0,0,1,0-3.7,34.94,34.94,0,0,0-.53-3.91c-.07-.44-.13-.89-.2-1.33a7.28,7.28,0,0,0,.31.77c0,.09.19,0,.16-.07-.83-2.21-.84-5.22-.92-7.57a47.41,47.41,0,0,0-.72-7.53c-1-5.19-2.36-10.54-2.56-15.83a42,42,0,0,0-1.24-7c-.67-3-1.33-6-2.11-8.91a119.34,119.34,0,0,0-5.67-17.13c-.65-1.49-1.53-2.81-2-4.36-.45-1.34-.92-2.65-1.43-4-1.06-2.69-1.9-5.47-2.79-8.22s-1.86-5.49-2.72-8.26-2.16-5.08-3.07-7.7-1.48-5.3-2.52-7.85c-.44-1.08-1.15-2.06-1.7-3.1a35,35,0,0,1-1.76-4.46c-1.83-5-3.67-9.83-7.07-14a0,0,0,0,0-.05,0c3.58,4.49,5.33,10,7.25,15.31,1,2.64,2.51,5,3.42,7.61s1.53,5.27,2.47,7.86,2.21,5.08,3,7.77,1.87,5.51,2.76,8.28,1.78,5.49,2.86,8.17c.51,1.26.84,2.57,1.33,3.84s1.14,2.16,1.66,3.26a65.56,65.56,0,0,1,3.19,9.18c.84,2.87,1.84,5.69,2.6,8.59a120.74,120.74,0,0,1,3.24,16.81c.59,5,1.61,10,2.59,14.9a25.47,25.47,0,0,1,.4,3.74c-.18-1.32-.4-2.63-.71-3.94-1.33-5.74-2.44-11.51-3.49-17.32a53.3,53.3,0,0,0-2.45-8.54c-1-2.62-1.49-5.39-2.43-8-4.07-11.25-8.85-22.31-11.84-33.91-.73-2.81-1.79-5.51-2.54-8.31s-1.28-5.77-2.22-8.58-2.32-5.5-3.28-8.33-2.69-5.38-3.82-8.15a86.84,86.84,0,0,0-3.4-8.29c-.69-1.3-1.56-2.47-2.23-3.79-.43-.84-1.59-1.92-1.79-2.8a.09.09,0,0,0-.17,0c.14.76.78,1.17,1.18,1.83.63,1,1.07,2.15,1.7,3.17a46.22,46.22,0,0,1,3.89,8.67c.87,2.41,2.09,4.61,3.16,6.94,1.34,2.91,2.17,6,3.48,8.94a42.91,42.91,0,0,1,2.51,8.32c.69,3.09,1.81,6,2.66,9.06,1.63,5.79,3.29,11.61,5.41,17.24s4.47,11.18,6.36,16.88c.79,2.4,1.42,4.86,2.15,7.28.92,3,2.13,5.92,2.84,9,.65,2.79,1.06,5.67,1.55,8.49.53,3,1.49,6,2,9,.43,2.52,1.06,5,1.35,7.52a27.49,27.49,0,0,0,.32,3,4.21,4.21,0,0,1,.09.49l.06.56a29.41,29.41,0,0,0,.23,3.51,34.58,34.58,0,0,1,.68,7.65c-.06-.34-.11-.69-.17-1-.49-2.6-1.36-5.05-1.83-7.63-.27-1.47-.32-3-.66-4.4-.42-1.77-.9-3.52-1.38-5.27-.8-3-1.64-5.93-2.28-8.94s-.91-6.27-1.44-9.38a56,56,0,0,0-2.62-8.59,89.14,89.14,0,0,1-2.56-9.35c-.67-2.89-1.87-5.75-2.8-8.57-1-3.08-2.06-6.14-3-9.26a36.39,36.39,0,0,0-2.49-7.14c-.67-1.27-.86-2.6-1.41-3.88-.68-1.6-1.48-3.12-2-4.77-.4-1.2-1-2.32-1.38-3.51s-.68-2.54-1.19-3.82a58.93,58.93,0,0,1-2.45-9c-.62-2.76-1.79-5.32-2.36-8.1a72.65,72.65,0,0,0-2.92-9.19c-1.26-3.62-2.75-7-4.27-10.56A13,13,0,0,0,207.85,65a15.07,15.07,0,0,1-1.69-1.7c-.49-.64-1.56-1.41-1.9-2.13,0-.11-.23,0-.23.06a2.62,2.62,0,0,1,0,.28.12.12,0,0,0,.18.09.15.15,0,0,0,0,.1c.41.41.86.81,1.24,1.26a35.65,35.65,0,0,0,2.63,2.73,12.63,12.63,0,0,1,2.15,3.89c.54,1.23,1.06,2.46,1.61,3.68a90.64,90.64,0,0,1,5.92,18.15,34.6,34.6,0,0,0,1.4,3.88,36.5,36.5,0,0,1,1,4.29c.31,1.4.63,2.8,1,4.2.38,1.58,1.31,3,1.64,4.58a41,41,0,0,0,2.55,7.19c1,2.51,1.85,5.13,3.12,7.53,1.37,2.58,1.91,5.81,2.76,8.59,1,3.1,2,6.16,3,9.24,1.92,5.94,3.31,12,5.39,17.89s2.37,12,3.82,18c.72,3,1.59,6,2.39,9s1.09,6.37,1.88,9.51c.42,1.65.9,3.2,1.25,4.86.38,1.86.56,3.75.8,5.63.19,1.44.14,2.88.35,4.34s.54,2.94.8,4.4c0,.24.46.19.43-.06-.22-1.77-.53-3.54-.79-5.31C250.6,209.21,250.68,209.18,250.68,209.09Z"/><path d="M326.69,199.36a.17.17,0,0,1-.29.09,19.91,19.91,0,0,1-2.15-3.47c-.7-1.17-1.5-2.28-2.2-3.46-1.41-2.35-2.89-4.63-4.31-7-1.51-2.51-2.56-5.1-4.39-7.43-1.34-1.7-2.69-3.32-4.16-4.94a22.6,22.6,0,0,1-2.45-2.91c-.83-1.29-2.07-2.11-3-3.28-1.32-1.6-3.11-2.8-4.4-4.39-1.62-2-4-3.51-5.8-5.35-.75-.75-1.55-1.43-2.34-2.13s-1.59-1.86-2.52-2.69c-4-3.55-7.41-7.59-11.31-11.21-3.75-3.47-7.8-6.56-11.48-10.14A109.77,109.77,0,0,1,254.09,118c-3.82-5.12-8.62-9.53-12.76-14.39-1.46-1.7-3-3.44-4.32-5.25L234.59,95a40.78,40.78,0,0,0-3.3-3.53,92.34,92.34,0,0,1-9.94-13c-3-4.74-7.5-8.42-10.86-12.9-1-1.35-2.42-1.79-3.56-2.92a12.43,12.43,0,0,0-2.59-1.79c-1-.5-2.06-.73-3.06-1.18a9.89,9.89,0,0,0-4.59-.67.17.17,0,0,1,0-.34c1.25,0,2.29-.31,3.51.15l.28.1a21.72,21.72,0,0,1,5.63,1.56A4.89,4.89,0,0,1,207,61c-1.08-1-2.3-1.9-3.38-1.56-.17.06-.23-.2-.07-.25a1.8,1.8,0,0,1,.93-.09.11.11,0,0,1,.12-.11,7,7,0,0,1,.72.23,19.48,19.48,0,0,1,4.24.14c-.46-.11-.92-.23-1.35-.37-1.52-.48-2.4-1-4.07-.82-.81.06-1.77.24-2.59.28-1,0-1.77-.15-2.8-.06-.8.08-1.55.23-2.34.25v0a.19.19,0,0,1-.08.25,6,6,0,0,0,.35.56c.15.2-.18.39-.33.19a8.47,8.47,0,0,1-1-1.8,1.27,1.27,0,0,1-.3-.36.39.39,0,0,1-.54.09c.35.54.65,1,.63,1a.17.17,0,0,1,0,.33h-.27a.16.16,0,0,1-.16-.12c-.32-1-1.38-1.39-1.63-2.3-.36-1.28-3.08-1.9-4.16-2.46a18.84,18.84,0,0,1-3.73-2.43c-1.17-1-5.13-3.44-6.73-2.86-2.42.87-3.74,2.58-5.26,4.53-1.1,1.41-2.36,2.68-3.5,4.06a32.55,32.55,0,0,0-3.43,4.75c-.91,1.61-1.75,3.29-2.58,4.93-1.72,3.4-3.85,6.56-5.44,10s-3.42,7.16-4.67,10.8c-.65,1.9-1.9,3.63-2.71,5.47a54.54,54.54,0,0,0-2.31,5.79,75,75,0,0,1-3.85,9.7,85.56,85.56,0,0,0-3.68,9.92c-1,2.87-2.55,5.46-3.59,8.3-1.11,3.06-1.82,6.25-2.93,9.32-1,2.84-2.12,5.65-3.17,8.48A72.25,72.25,0,0,0,127,161.53c-.69,6.13-2.39,12-3.42,18.08-.93,5.46-2.6,10.95-3,16.45a42.4,42.4,0,0,1-1,6.92,37.28,37.28,0,0,0-1.6,8.55,38.3,38.3,0,0,1-.73,6.75c-.19,1-.08,2.08-.34,3.06-.43,1.53,0,3-.15,4.57a71,71,0,0,0-.54,7.73,19.09,19.09,0,0,1-.06,3.21c-.2,1.13-.52,2.77,0,3.86.14.28-.28.53-.42.25a6,6,0,0,1-.16-3.72c.39-2.18,0-4.47.3-6.68.46-3.77.32-7.57.68-11.34a22.27,22.27,0,0,1,.59-4.5,13.57,13.57,0,0,0,.36-3.87A27.49,27.49,0,0,1,118,208c.66-3.92,2.09-7.94,2.09-11.95s1.51-8.08,2.22-12c.8-4.53,1.83-9,2.75-13.49.55-2.74,1.07-5.49,1.38-8.27.23-2,.84-3.86,1-5.83a20.43,20.43,0,0,1,.72-2.56c.23-1.13.5-2.21.83-3.32.67-2.23,1.43-4.38,2.24-6.56,1.15-3.06,2.37-6.11,3.42-9.21,1-2.83,1.55-5.82,2.7-8.58,1.27-3,2.75-5.91,3.79-9a70,70,0,0,1,3-7.94,82.63,82.63,0,0,0,3.69-8.93c.89-2.67,2.07-5.19,3-7.82.53-1.47,1.53-2.7,2.15-4.14.55-1.27.91-2.61,1.55-3.85,1.3-2.49,2.21-5.15,3.43-7.68.66-1.38,1.43-2.69,2.08-4.08a14.08,14.08,0,0,1,1.57-2.85c1.9-2.37,2.65-5.55,4.33-8a28.3,28.3,0,0,1,2.17-3.36c.9-1,1.78-2,2.68-3,1.71-1.91,3.08-4.16,5-5.84a4.66,4.66,0,0,1,5.41-.85c2,.9,4.32,1.83,5.94,3.44a14.65,14.65,0,0,0,4.39,2.48c.58.27,1.64.65,2,1.25l.94,1.43a.41.41,0,0,1,.08-.37,13.56,13.56,0,0,1-1.45-2.9c-.45-1-.87-2-1.31-3-1.2-1.65-2.16-3.55-3.22-5.22-1.68-2.66-3.77-5-5.58-7.55-3.06-4.32-5.67-9-9-13.13-3.78-4.8-6.45-10.83-11.39-14.65-2.61-2-5.51-3.75-8.23-5.63A47.88,47.88,0,0,0,147,.75c-.06,0,0-.13,0-.11a31.82,31.82,0,0,1,7.47,4.06c2.56,1.73,5.32,3.32,7.78,5.19,4.56,3.48,7.64,8.63,10.79,13.33,1.73,2.59,3.61,5.13,5.4,7.68.78,1.12,1.41,2.52,2.28,3.56a18.65,18.65,0,0,1,2.14,3,26.49,26.49,0,0,0,3.07,4c.27.32.52.67.76,1-1.52-2.35-3.35-4.55-4.68-7a69.89,69.89,0,0,0-4.69-7.74,58.62,58.62,0,0,1-4.83-7.81c-1.26-2.51-3.26-4.56-4.91-6.81a35.29,35.29,0,0,0-6.58-6.57c-2.47-2-4.82-4.1-7.39-5.93,0,0,0-.11.05-.08,2.45,1.63,4.6,3.58,6.91,5.42a37.92,37.92,0,0,1,6.42,6c1.74,2.23,3.66,4.39,5.19,6.78s3,5.15,4.63,7.64c1.79,2.73,3.66,5.42,5.22,8.31,1.4,2.6,3.31,4.89,4.88,7.39a82.75,82.75,0,0,1,4.41,7.33c.22.46.43.94.64,1.42l.18.27a44.22,44.22,0,0,0-3.11-6.33c-1.62-2.66-2.88-5.49-4.37-8.23s-3-5.23-4.23-8a81.83,81.83,0,0,0-9.15-14.67,49.79,49.79,0,0,0-6.72-7.56c-1.26-1.11-2.54-2.18-3.82-3.25-.51-.43-2.23-1.55-2.23-2.07a.13.13,0,0,1-.25,0V.83a.13.13,0,0,1,.22-.09c2.19,2,4.66,3.76,6.85,5.82a51.63,51.63,0,0,1,5.81,6.55,82,82,0,0,1,9.33,14.55c1.28,2.75,2.76,5.31,4.21,8s2.73,5.63,4.36,8.29c.23.39.45.79.66,1.18-2.37-5.81-5.4-11.28-7.85-17-1.27-3-2.13-6.12-3.48-9.08a34.93,34.93,0,0,0-4.5-6.81,42.68,42.68,0,0,0-5.26-5.82c-1.91-1.66-3.65-3.66-5.79-5a.09.09,0,1,1,.09-.15,46.08,46.08,0,0,1,5.28,4.51,29.82,29.82,0,0,1,5.25,5.4c1.5,2.19,3.16,4.21,4.56,6.49,1.54,2.5,2.28,5.49,3.3,8.22,2.22,6,5.51,11.45,8,17.32,1.27,3,2.85,6,4.11,9,.16.4.34.79.53,1.18-.11-.33-.22-.66-.32-1-.86-2.67-1.73-5.34-2.55-8-.92-3-2-6-3-9-1-2.82-1.85-6.26-3.47-8.78s-2.73-5.24-4.06-7.81c-1.26-2.41-2.17-5.18-3.81-7.36s-3.26-4.8-5.36-6.57c-1.48-1.26-3.09-2.37-4.58-3.58-.07-.06,0-.19.09-.19H167a.11.11,0,1,1,0,.22c1.23,0,3.49,2.34,4.59,3.32a37,37,0,0,1,4.65,5.57c1.8,2.4,2.88,5.08,4.25,7.72,1.23,2.35,2.94,4.81,3.84,7.31,1.05,2.92,2.54,5.72,3.6,8.66s2.13,6,3.11,9c1.68,5.21,3.17,10.49,5.3,15.54,1.22,0,2.63-.76,3.8-.4s1.95-.24,3-.38a9.46,9.46,0,0,1,2.18.13c1.93.31,3.61.93,5.5,1.41,1.67.43,3.44.59,5.09,1.12,3.36,1.08,7.06.68,10.2,2.51a106.09,106.09,0,0,0,11.27,5.68,21.39,21.39,0,0,1,6.42,3.89c1.87,1.79,4,3.36,5.8,5.17,2.11,2.11,4.51,3.91,6.62,6s4.46,3.4,6.5,5.34a44.47,44.47,0,0,1,5.62,5.78A19.85,19.85,0,0,0,271.63,98a24.23,24.23,0,0,1,2.64,2.82c1.83,2.06,3.88,3.9,5.6,6a69,69,0,0,0,4.88,5.39c3.79,3.8,7.7,7.49,11.38,11.42,2.05,2.19,4.12,4.36,6.1,6.62,1.64,1.88,3,3.84,4.49,5.83,3.28,4.42,6.85,8.77,9.57,13.61,1.51,2.7,3.11,5.28,4.7,7.92a19.58,19.58,0,0,1,1.7,3c.13.32.25.66.38,1l2.39,3.14c.12.15-.15.36-.27.21l-.14-.18c.05.16-.13.33-.27.18l-.53-.61a.23.23,0,0,1-.34,0,9.24,9.24,0,0,1-.71-1.22,32.35,32.35,0,0,1-3.23-4.68,49.38,49.38,0,0,0-4.79-7.19c-1.43-1.72-2.81-3.49-4.16-5.28-2.87-3.5-5.63-7.07-8.74-10.42-3.63-3.92-7.44-7.55-10.69-11.85-1.86-2.46-3.83-4.86-5.83-7.22-1.86-2.2-4-4-6-6-3.64-3.81-7.4-7.5-11.14-11.23-1.94-2-4.1-3.62-6-5.54s-3.92-3-5.77-4.73c-2.1-1.92-4.25-3.81-6.28-5.81a11.45,11.45,0,0,0-3.29-2.33c-1.07-.52-1.77-1.33-2.78-1.92a66,66,0,0,0-7.9-4.47,18.88,18.88,0,0,1-2.88-1.44c-1-.64-2.27-.88-3.24-1.61A27.41,27.41,0,0,0,223,67.31a17,17,0,0,1-2.77-1.45,13.15,13.15,0,0,1-2.17-1s0-.09.05-.07a14.72,14.72,0,0,0,1.65.61,17.39,17.39,0,0,0,2.84,1.55c.65.21,1.32.38,2,.53,0,0,2.07,1.28,1.51,1,3.07,1.53,5.82,3.48,8.89,5,2.54,1.27,5.1,2,7.4,3.77a44.89,44.89,0,0,0,6,3.86,14,14,0,0,1,2.86,2.4c1,.9,2,1.72,3,2.69a45.08,45.08,0,0,0,6.19,5.18c1.05.78,1.89,1.76,2.88,2.61s1.89,1.43,2.73,2.25c1.85,1.82,3.67,3.66,5.5,5.5,3.84,3.83,7.75,7.58,11.59,11.41,4.1,4.1,7.51,8.89,11.13,13.41,3.29,4.09,7.32,7.61,10.83,11.53.44.49.87,1,1.3,1.5-.32-.46-.64-.91-.95-1.37A108.42,108.42,0,0,0,294,124.38c-3.74-3.92-6.44-8.61-10.69-12.07s-7.7-7.72-11.52-11.64c-1.91-2-4.42-3.26-6.33-5.25s-3.8-4.17-5.76-6.2a120.22,120.22,0,0,0-12.86-11,46.79,46.79,0,0,0-7.76-5.43c-2.22-1.08-4.74-1.71-6.89-2.93a147.15,147.15,0,0,0-16.15-7.66c-2.33-1-5-2.39-7.48-2.57l-2.51-.13a7.75,7.75,0,0,1,2.26,1l.8.63c.71-.16,1.23.33,1.71.84,1,1.09,2.56,1.68,3.66,2.73,2.46,2.35,5.57,3.79,8.31,5.74,1.52,1.08,2.66,2.54,4.29,3.5a26.15,26.15,0,0,1,3.67,2.77c1.42,1.23,3,2.35,4.28,3.71s2.56,2.95,4,4.31c4.5,4.28,8.4,9.24,12.64,13.77,3.84,4.1,7.59,8.4,11.91,12a102.5,102.5,0,0,1,12.84,13.42c3.83,4.59,8,9,12,13.4a78.36,78.36,0,0,1,5.41,6c1.76,2.41,3.7,4.71,5.44,7.13,3.52,4.91,7.86,9.14,11.57,13.9a68.25,68.25,0,0,1,8.3,13.62c1.22,2.68,1.9,5.65,2.89,8.42.7,1.95,1.62,3.87,2.29,5.84.05.12.12.23.17.35a13.66,13.66,0,0,1,1.22,2.71.19.19,0,0,1-.35.12c0,.1.06.19.08.29a13.55,13.55,0,0,1,1.55,3.44A.25.25,0,0,1,326.69,199.36ZM193.49,53.13c.27.61.55,1.22.84,1.82A13.06,13.06,0,0,0,193.49,53.13Zm1.16,3.49c-.12-.26-.24-.51-.37-.74A25.42,25.42,0,0,1,193,53l-.24-.62-.09-.09A34.54,34.54,0,0,0,194.65,56.62ZM322.37,161.34v0l-.79-1.14C321.83,160.56,322.1,161,322.37,161.34Zm-2.52-4.52a17.44,17.44,0,0,0,.87,1.58c.31.46.62.91.94,1.36-.11-.21-.22-.42-.34-.62C320.85,158.36,320.35,157.59,319.85,156.82Zm-32.4-41.3c.19.2.37.4.55.61,1.74,2.07,3.27,4.33,5,6.43s4,4.1,5.86,6.25,3.36,4.7,5.2,6.92c2,2.38,3.49,5.06,5.43,7.46,1.35,1.66,2.58,3.41,3.86,5.11.86,1,1.71,1.93,2.48,3,1,1.37,2,2.75,3.07,4.1-.36-.57-.73-1.14-1.07-1.73a99.2,99.2,0,0,0-6.65-10.81c-1.36-1.78-2.39-3.79-3.89-5.48-1.29-1.47-2.17-3.3-3.47-4.78-2.73-3.12-5.49-6.2-8.43-9.12C292.73,120.82,290.11,118.15,287.45,115.52Zm-76.92-56a9.68,9.68,0,0,1,1.66.8c1,.57,2.22.8,3.31,1.27a164.84,164.84,0,0,1,16.3,7.55c1.23.7,2.61,1.11,3.87,1.77s2.53.82,3.64,1.51a50.62,50.62,0,0,1,6.12,4.1c4.37,3.64,8.94,6.84,13,10.8,2.24,2.17,4.3,4.52,6.42,6.8a43.48,43.48,0,0,0,6.42,5.47,29,29,0,0,1,5.15,5.35A38.84,38.84,0,0,0,282,110.7c1.14.92,2.35,1.89,3.49,2.91l-1.55-1.5a59.94,59.94,0,0,1-5.19-5.85c-1.63-2-3.62-3.72-5.3-5.69-1.84-2.16-4-4-5.87-6.15a68.06,68.06,0,0,0-5.75-5.77c-2.27-2-4.71-3.8-7-5.83s-4.26-4.13-6.58-5.82-3.88-4.07-6.22-5.48c-2.18-1.32-4.35-2.43-6.62-3.59-1.32-.67-2.75-1.05-4.05-1.73-1.15-.6-2.26-1.27-3.4-1.89s-2.09-1.3-3.21-1.79a18.31,18.31,0,0,0-3.66-.83c-2.26-.48-4.61-.65-6.83-1.23a19,19,0,0,0-3-.81C211.05,59.62,210.79,59.59,210.53,59.54ZM317.82,180.63c.8,1.77,1.51,3.58,2.38,5.33.68,1.38,1.32,2.78,2,4.14.6,1.13,1.33,2.19,1.95,3.31,0-.15-.09-.3-.13-.45-1.14-2.51-2.71-4.87-3.81-7.38C319.5,183.89,318.7,182.23,317.82,180.63Zm3.29,5.79c.14.32.29.62.45.93-.26-.63-.53-1.24-.82-1.84C320.86,185.82,321,186.12,321.11,186.42Zm3.32,7.43,0,0,0,0ZM221,69.55l-.54-.31c.87.57,1.34,1.46,2.15,2.16a61.22,61.22,0,0,1,7.6,7.92c2.51,3.07,5.48,5.75,8.09,8.75,4.09,4.71,8.13,9.39,12.31,14s9,8.92,13.29,13.53c2.16,2.29,3.91,4.78,6.39,6.76,2.13,1.7,4,3.73,5.93,5.62,4.23,4.07,7.89,8.77,11.67,13.25a48.24,48.24,0,0,0,6.79,7.2,52.12,52.12,0,0,1,6.07,5.53c4,4.31,6.59,9.65,10.25,14.22,3.22,4,5.21,8.91,8,13.18a41.13,41.13,0,0,1,2.93,6.09c-.33-.83-.65-1.65-.93-2.48-1.14-3.4-2.08-6.89-3.95-10-1.68-2.77-3-5.64-5-8.21-1.83-2.36-3.6-4.74-5.65-6.93-4.09-4.38-7.56-9.32-11.27-14a73.8,73.8,0,0,0-5.74-6.85,78.08,78.08,0,0,1-5.57-6.07c-2-2.51-4.36-4.73-6.45-7.17-1.93-2.26-3.73-4.61-5.77-6.78a82.77,82.77,0,0,0-6.53-6.71,57.29,57.29,0,0,1-6.46-5.79c-3.89-4.4-8.07-8.55-11.93-13-2.11-2.42-4.36-4.74-6.51-7.11-1.9-2.08-3.82-4.38-5.89-6.28A48.93,48.93,0,0,0,227,74.12C224.81,72.82,223.29,70.71,221,69.55Zm-3.44-2.27a6.51,6.51,0,0,0,2.18,1.6,2,2,0,0,1,.36.16C219.26,68.49,218.48,67.88,217.6,67.28Zm-8.33-6.09c.63.51,1.26,1,1.93,1.47,1.5,1,2.75,2.66,4.44,3.34a3.75,3.75,0,0,1-.53-.44A24.38,24.38,0,0,0,212,63C211.42,62.63,210,61.25,209.27,61.19Zm-3-1.1c.91.72,1.8,1.52,2.72,2.22.59.44.94,1.09,1.57,1.48,4.11,2.49,7.22,6.26,11.25,8.82,3.83,2.44,6,6.52,8.73,10a105.45,105.45,0,0,0,8.73,9.6c8.2,8.21,15.62,17.12,23,26.07a135.69,135.69,0,0,0,12.16,13.43c2.31,2.14,4.72,4.18,7,6.36,2.05,2,4.32,3.78,6.27,5.83s4.43,3.81,6.51,5.89a73.42,73.42,0,0,1,5.19,5.67c3.56,4.35,7.07,8.74,10.31,13.32,1.67,2.35,3.68,4.43,5.37,6.76.16.21.3.43.45.65l0-.06a100.9,100.9,0,0,0-6.09-9.33c-2.18-3.09-4-6.44-6.27-9.44-3.78-4.92-9-8.29-13-12.94s-7.7-9.34-11.78-13.78c-1.93-2.1-4-4.13-6.09-6.09s-4.38-3.59-6.21-5.88a89.61,89.61,0,0,0-6.76-7.29c-2.12-2.14-4.61-4.1-6.56-6.38-4-4.71-8.35-9.15-12.3-14-3.64-4.41-7.72-8.35-11.39-12.72a41.56,41.56,0,0,0-2.85-3.08,22.73,22.73,0,0,0-2.82-2.9,24.48,24.48,0,0,1-2-2c-.86-.76-1.89-1.05-2.73-1.78a12.77,12.77,0,0,0-2.39-2c-1.4-.65-.75-.18-1.52-.73s-1.36-1.16-2.1-1.8c-1.05-.93-2.26-1.67-3.35-2.56a20.47,20.47,0,0,0-3.69-2h-.21C205.71,59.65,206,59.87,206.27,60.09ZM306.43,165c-2.67-3.2-5.11-6.57-7.79-9.78a59.86,59.86,0,0,0-5.44-5.82c-1.06-1-2.32-1.7-3.36-2.69s-1.89-2.11-2.95-3c-4.55-3.89-8.89-8.09-13.28-12.15a121.09,121.09,0,0,1-12.09-13.51c-3.8-4.75-7.92-9.18-11.81-13.87-3.53-4.27-7.38-8.14-11.19-12.17-3.59-3.78-7.57-7.48-10.43-11.87a24.23,24.23,0,0,0-6.45-7.25,64.14,64.14,0,0,1-6.42-5.19,27,27,0,0,0-3.87-3c1,1,1.92,2.07,2.93,3a55.67,55.67,0,0,1,4.36,4.6c1.57,1.91,3.68,3.27,5.16,5.27s2.53,3.89,3.88,5.79A115.06,115.06,0,0,0,237,95a53.24,53.24,0,0,0,6.61,6.48,41.36,41.36,0,0,1,5.64,5.18c3.84,4.28,7.62,8.64,11.13,13.19a185.33,185.33,0,0,0,12.26,14.41c4,4.25,9.27,7.18,13.81,10.86a90.91,90.91,0,0,1,7.09,6.2c2.17,2.18,4.07,4.61,6.09,6.93,2.79,3.21,5.83,6.19,8.7,9.32C307.7,166.68,307.1,165.83,306.43,165Zm17.89,30.1c.71,1.18,1.23,2.47,2,3.6a34.54,34.54,0,0,0-2.19-4.18c-.95-1.79-2.08-3.47-3-5.3-1.79-3.61-3.05-7.63-5.12-11.08-4.6-7.66-11.54-13.5-17.3-20.22a91.65,91.65,0,0,0-13.22-13c-4.63-3.63-9.59-6.68-13.71-10.91-8.41-8.65-15.07-18.86-23.38-27.62-2.08-2.19-4.47-3.87-6.73-5.86-2-1.77-3.63-3.89-5.52-5.78a71.61,71.61,0,0,1-10.41-13.41,23.47,23.47,0,0,0-3.18-4.63c-1.09-1.06-2.24-2.07-3.33-3.14-.93-.91-1.66-2-2.54-3S214.75,69,214,68c-3-3.77-7.37-7.67-12.29-8.58l2.38.89c1.78.64,3.62,2.26,5.1,3.36a10.25,10.25,0,0,1,2,2.18c1,1.34,2.23,2.56,3.31,3.85,2,2.33,4,4.56,6,6.92s3.33,5.14,5.34,7.46,3.6,4.93,5.73,7.13a32.32,32.32,0,0,1,2.95,3c1.08,1.46,2.13,3,3.26,4.4a20.65,20.65,0,0,0,2.42,2.91,28.7,28.7,0,0,1,2.36,2.86c2.18,2.29,4.18,4.75,6.4,7a61.81,61.81,0,0,1,5.52,6.36c3.78,5.12,8.33,9.53,12.82,14,3.59,3.59,7.67,6.57,11.39,10,2.06,1.9,3.7,4.19,5.81,6,1.89,1.65,3.73,3.46,5.51,5.23,6.88,6.85,14.31,13,20.33,20.68.77,1,1.69,1.69,2.48,2.61.65.75,1.06,1.63,1.68,2.4,1.46,1.79,2.16,4,3.34,6,1.43,2.37,2.94,4.65,4.36,7C322.85,192.91,323.64,194,324.32,195.12Z"/><path d="M335.77,187.72a109.22,109.22,0,0,0-5.29-11.15c-1.72-3.15-3.19-6.59-5.32-9.46-.91-1.23-1.49-2.66-2.5-3.81a27.52,27.52,0,0,1-2.11-3c-1.73-2.59-3.52-5.11-5.44-7.55-3.68-4.71-8-8.91-11.71-13.59A103.22,103.22,0,0,0,291,125.84a146.77,146.77,0,0,1-12.33-12.61c-3.89-4.37-7.82-8.78-11.81-13A87.2,87.2,0,0,0,253.32,88.9c-5-3.54-9.76-7.49-14.68-11.16a72.39,72.39,0,0,0-11.73-7,188.18,188.18,0,0,1,21.26,20c8.72,9.28,18.2,17.83,26.48,27.52,4.05,4.74,8.41,9.19,12.45,13.94s8,9,12.35,13.34c4.46,4.45,7.62,9.9,11.45,14.86a64.86,64.86,0,0,1,8.2,15,173.31,173.31,0,0,1,6.1,17.17c1,3.24,2,6.46,3.15,9.64.51,1.4,1.08,2.76,1.63,4.14.14.35.29.67.44,1a24,24,0,0,1,.9,2.22.18.18,0,0,1-.33.14l-.18-.31a.39.39,0,0,1-.58-.22,15.91,15.91,0,0,0-1.17-2.56c-.13-.32-.27-.64-.4-1-1.19-2-2.4-3.95-3.5-6-1.9-3.5-4-6.81-6.2-10.11a166.09,166.09,0,0,0-14.79-18.65,103.26,103.26,0,0,0-13.76-12.77c-4.72-3.6-8.34-8.28-12.77-12.17a59.39,59.39,0,0,1-6.79-6.57c-1.85-2.23-4.16-4.06-6.13-6.19-3.92-4.24-8-8.25-11.92-12.5-2.05-2.24-3.93-4.61-5.88-6.94s-3.93-4.19-5.85-6.32-3.75-4.64-5.63-7-3.81-4.47-5.62-6.79c-3.32-4.26-6.67-8.48-9.67-13-.3-.45-.59-.9-.88-1.35.2.34.4.68.62,1a56.73,56.73,0,0,1,3.68,6.49,58.29,58.29,0,0,1,3,6.75c.8,2.45,1.25,5.06,2.34,7.41,2.5,5.39,3.86,11.25,5.92,16.8,2.15,5.79,3.71,11.72,5.65,17.56a177.93,177.93,0,0,1,7.85,36.27c.7,6.07,1.7,12.14,2.14,18.24.4,5.63,1.33,11.23.93,16.89-.2,2.9,0,5.8-.14,8.7S251,221.14,251,224s-.25,5.62-.19,8.46.07,5.84-.06,8.76a.5.5,0,0,1-.23.92h-.28a.5.5,0,0,1-.49-.49c0-.55.05-1.1.06-1.66a.28.28,0,0,1-.14-.16c-.54-1.5-.56-3.05-1-4.57-.5-1.77-.95-3.55-1.41-5.34-.91-3.56-1.8-7.13-2.75-10.68-1.63-6.11-3.78-12-5.66-18-3.74-12-8.71-23.53-12.8-35.38-2-5.83-4.26-11.54-6-17.46-1.85-6.2-3.57-12.56-5.72-18.67-2-5.71-3.78-11.51-5.83-17.2-.94-2.61-1.51-5.43-2.31-8.1-.85-2.83-1.64-5.66-2.49-8.49a77.14,77.14,0,0,1-3.21-16.63c-.25-3.45-.62-6.8-.76-10.2-.12.7-.26,1.38-.4,2-.66,3.09-1.05,6.21-1.78,9.3-.82,3.46-1.78,6.87-2.42,10.38-1.07,5.84-3.55,11.42-5,17.19-1.48,6-3.28,12-4.35,18.18-.56,3.24-.65,6.53-1.21,9.76-.51,3-1.11,5.92-1.65,8.89-1.09,6-2.87,11.81-4.22,17.75-.74,3.26-2,6.38-3,9.57-.94,3-1.83,6-2.71,9-1.84,6.27-3.4,12.61-5,18.94-1.5,5.88-3.24,11.76-4.34,17.74-.55,3-.68,6-1.09,9.07-.25,1.9-.46,3.8-.65,5.7,0,0,0,.06,0,.09,0,1.29-.26,2.51-.26,3.8a3,3,0,0,1-.67,2.17.47.47,0,0,1-.64,0c-.89-.86-1.1-2.08-1.68-3.11-.47.63-.72,2-1.12,2.53a.47.47,0,0,1-.88-.23c-.31-3.9-.82-7.75-.82-11.67,0-4.19-.45-8.39-.52-12.6,0-2.36-.22-4.68-.36-7s.07-4.5.07-6.75c0-4.69-.09-9.4.18-14.09.36-6.3,1.36-12.6,2.19-18.85s1.7-12.5,2.56-18.74c.93-6.79,1.88-13.58,2.77-20.37a132,132,0,0,1,4-17.88c.8-2.9,1.57-5.84,2.36-8.77-.79,1.74-1.46,3.55-2.22,5.31-.6,1.39-1,2.81-1.62,4.2s-1.22,2.44-1.8,3.69c-1.28,2.74-2.33,5.62-3.51,8.41-.69,1.63-1.39,3.2-2.18,4.78-.58,1.16-.83,2.47-1.41,3.64-.71,1.44-1,3.18-1.61,4.68s-1,2.78-1.51,4.17c-1.1,3-2.16,6-3.21,9-.48,1.36-1,2.73-1.46,4.09-.44,1.2-1.22,2.26-1.55,3.52a42.43,42.43,0,0,1-1.71,4.14c-.43,1.17-.82,2.36-1.35,3.49-1.18,2.52-2.32,5-3.38,7.6-1.16,2.82-2.48,5.57-3.62,8.39S135,185.78,134,188.6c-1.06,3-2.42,5.84-3.54,8.81-.49,1.3-1,2.6-1.39,3.93s-1.08,2.21-1.47,3.39c-1,3-2.19,5.82-2.94,8.85-.71,2.87-1.62,5.72-2.55,8.53-1.92,5.82-2.78,11.94-4.31,17.87,0,.37,0,.74,0,1.12a.43.43,0,0,1-.79.22c0-.09-.09-.18-.13-.27a1.53,1.53,0,0,1-1,1,.44.44,0,0,1-.55-.42c0-1.23-.27-2.4-.27-3.65v-6.4c0-4.42-.14-8.87,0-13.29.12-3.67.71-7.38,1-11.05.34-4,1-8,1.74-12,1.55-8.72,3.19-17.47,4.5-26.23a141,141,0,0,1,5.56-23.38c1.92-5.81,4.08-11.51,6-17.3.54-1.61,1.25-3.16,1.78-4.78a32.32,32.32,0,0,1,1.13-3.66c1.13-2.37,1.64-5,2.9-7.32a41.68,41.68,0,0,0,1.7-4.82c.53-1.35,1-2.7,1.6-4,1.09-2.58,2.37-5.07,3.64-7.56,1.51-2.93,2.74-5.93,4.07-8.93,1.2-2.7,2.56-5.33,3.71-8a82.94,82.94,0,0,1,8.83-16.45,91.77,91.77,0,0,1,5.49-7.39c1.74-2,3.18-4.19,5-6.09,1.68-1.71,3-2.75,5.45-2.59l.31,0-.43-.3c-.8-.65-1.5-1.44-2.34-2A32.56,32.56,0,0,1,173.93,42a57.72,57.72,0,0,0-8.87-6.23,64.43,64.43,0,0,0-10-4.59,93.06,93.06,0,0,0-9.88-3.3c-2.49-.66-5-1.22-7.51-1.66-1.16.41-2.12,2.44-2.8,3.32-.45.59-.91,1.18-1.37,1.76-1.36,1.7-2.74,3.39-4.21,5s-2.8,3-4.11,4.61c-1.19,1.43-2.25,3-3.52,4.38-2.93,3.06-4.51,7.27-6.62,10.88A39.6,39.6,0,0,1,112,60.52a49.33,49.33,0,0,0-3.13,5.36A87.6,87.6,0,0,0,99,90.33c-.46,2-.92,4-1.58,6a39.79,39.79,0,0,0-1.88,6,48.65,48.65,0,0,1-1.19,5.08c-.06.37-.13.75-.2,1.12-1,5.57-2.25,11.07-3.24,16.63-.9,5.1-1.51,10.27-2.66,15.34,0,.2-.39.16-.37-.05.91-9.38,3.08-18.51,4.76-27.75-.12,0-.23-.12-.17-.26.34-.91.13-1.85.39-2.76s.46-1.65.71-2.48c.82-5,1.79-10,3-15s1.85-10,3.6-14.64c1.62-4.35,2.74-8.93,4.29-13.33,1.76-5,3.94-9.8,5.51-14.85.81-2.61,2.21-4.85,3.22-7.37s1.81-4.9,2.87-7.29,1.85-4.74,2.92-7a12.14,12.14,0,0,1,1.3-1.91.84.84,0,0,1,.13-.12,83.89,83.89,0,0,0-12.33,2.58C96,31.57,84.69,37.11,72.7,40.7c-8.91,2.67-18,4.51-27.06,6.64a27.72,27.72,0,0,0-3.77,2.72,29.8,29.8,0,0,1-4.06,3.46c-1.54,1.07-3.09,2.23-4.58,3.36-1.32,1-2.63,1.8-4,2.75a115.27,115.27,0,0,1-10,6,45.23,45.23,0,0,0-4.69,2.91,46.55,46.55,0,0,1-4,2.83l-.07,0h0c-.23.13-.46.28-.7.39s-.66-.24-.37-.48c.6-.52,1.23-1,1.86-1.47a38.82,38.82,0,0,1,5.69-5.36c2.59-2.11,5.13-4.29,7.8-6.31,1.81-1.36,3.53-2.36,4.23-4.62a6.16,6.16,0,0,1,1.57-2.33l.29-.32c-1.61.23-3.25.39-4.85.58-2.7.31-5.43.93-8.16,1C12.9,52.55,8,53,3.18,52c-.62.09-1.2-.3-1.79,0a.4.4,0,0,1-.5-.59l-.62-.19a.39.39,0,0,1,.21-.75c.93.22,1.85.4,2.78.56a1.15,1.15,0,0,1,.84,0,4.72,4.72,0,0,0,2.36,0,34.65,34.65,0,0,1,4-.3c1.36-.05,2.69-.42,4-.52,3.27-.24,6.35-1.41,9.6-1.85s7.21-.74,10.38-2l.12,0a.39.39,0,0,1,.28-.13l.16,0,.83-.3a31.18,31.18,0,0,0,2.79-2c2.45-1.65,5.21-2.65,7.72-4.2a77.45,77.45,0,0,0,7.12-5.4,50.12,50.12,0,0,1,7.48-5c2.48-1.32,4.72-3,7.19-4.32,2.77-1.47,5.43-3.16,8-4.9,2.3-1.53,4.77-3,7-4.62C87.64,12.05,93.49,10,98.64,7.87,104,5.66,109.35,3.05,115,1.67A59.21,59.21,0,0,1,129,0c2.94,0,5.8.1,8.71.32a17.48,17.48,0,0,1,3.44.69,10.49,10.49,0,0,1,1.8-.11c2.24-.27,4.54-.48,6.79-.54A32.41,32.41,0,0,1,156,.47c.91.16,1.82.05,2.73.18A20.47,20.47,0,0,0,162.6,1a19.21,19.21,0,0,1,6.37.39,48.32,48.32,0,0,1,5.73,2.07c3.69,1.6,5.86,4.07,7.79,7.54,4.21,7.61,8.31,15.62,10.28,24.16.94,4.06,1.15,8.16,1.84,12.27.16.92.16,1.84.26,2.76a19.07,19.07,0,0,0,.93,3.66,33.05,33.05,0,0,1,1,3.8,12.28,12.28,0,0,1,1.41-.33c2.12-.46,4.23,0,6.36,0a34.23,34.23,0,0,1,5.95.83,34.62,34.62,0,0,1,3.82.45,11.6,11.6,0,0,0,3.36.56c2.37,0,4.86.87,7.2,1.26A34.56,34.56,0,0,1,232,62.58c4.33,1.73,8.42,4.73,12.11,7.55,2.37,1.82,4.63,3.73,7.05,5.48,2.1,1.52,3.9,3.49,5.88,5.19a141.78,141.78,0,0,1,13.28,13.46c2.06,2.33,4.45,4.32,6.51,6.67s4.06,4.54,6.17,6.76c4.35,4.55,8.58,9.22,12.78,13.91,3.78,4.21,7.32,8.69,10.92,13,.87,1.05,1.54,2.29,2.41,3.36s1.78,2.27,2.68,3.4c1.61,2,2.84,4.3,4.41,6.34a48.1,48.1,0,0,1,4.73,7.94c1.41,2.78,3.21,5.36,4.61,8.14,2.81,5.57,5.55,11.17,8.47,16.68a.21.21,0,0,1-.36.21l-.22-.33a43.71,43.71,0,0,1,2.83,7.21C336.39,187.92,335.89,188,335.77,187.72Zm-139.54-129a.34.34,0,0,1-.08-.16.13.13,0,0,0,0-.06.5.5,0,0,0-.08.07v.15h.17ZM142.39,1.37c.58.16,1.17.32,1.77.44a15.56,15.56,0,0,1,3.25,1.11,37.64,37.64,0,0,1,4.19,1.69c1.09.49,2.17,1,3.22,1.57.05,0,.1,0,.12.07a32.61,32.61,0,0,1,4.51,2.85c2,1.53,3.36,3.7,5.29,5.27a11.1,11.1,0,0,1,1.81,1.68,10.37,10.37,0,0,0,1,1.45,14.28,14.28,0,0,1,2.16,2.37c1.56,2.08,3.15,4.12,4.67,6.22,1.8,2.46,3.46,5.05,5.36,7.43,1.76,2.22,3,4.84,4.79,7A64.91,64.91,0,0,1,189.08,47a23.5,23.5,0,0,1,1.78,3.22,5.53,5.53,0,0,1,.63,1.15,10.59,10.59,0,0,1,.83,1.23c.65,1.11,1.28,2.26,2,3.34.23.35,1.17,2.24,1.45,2.24l.12,0a1.24,1.24,0,0,1,.18-.14A24,24,0,0,0,194.56,53c-.75-1.69-.49-3.53-.82-5.31-.69-3.6-1-7.3-1.57-10.92-.73-4.25-2.57-8.16-3.95-12.21A65.9,65.9,0,0,0,183,13.83c-2.11-3.77-3.93-7.51-8.1-9.34a39.58,39.58,0,0,0-6.18-2.29c-2.35-.59-4.5-.31-6.88-.37-1.84-.05-3.66-.39-5.5-.53-2-.16-3.93-.29-5.94-.26s-4.17.1-6.19.34C143.85,1.43,143.11,1.37,142.39,1.37ZM122.76,18.55a91,91,0,0,1,7.7-8.71c1.24-1.24,2.5-2.44,3.73-3.68.29-.3,1.37-1.51,1.35-1.44a.28.28,0,0,1,.22-.19s0,0,0,0a.08.08,0,0,1,0-.08c-1.19-.52-2.38-1.08-3.61-1.48l-2.89.11c-3.05.09-6.1,1.06-9,1.8-5.9,1.47-12.22,2.58-17.74,5.23A117.6,117.6,0,0,0,86.4,19.14C81.35,22.65,76,25.72,71.13,29.47c-2.53,1.94-5.2,3.69-7.72,5.63-.44.34-1,.85-1.53,1.35,2.3-.81,4.59-1.67,6.89-2.49,3.49-1.25,7-2.3,10.54-3.53,11.51-4,23.08-8.4,35-10.8a19.87,19.87,0,0,1,3.79-.69c1.47,0,2.88-.23,4.33-.36Zm1-.08a29.77,29.77,0,0,1,3-.09c1.43,0,2.88.37,4.29.37a22.18,22.18,0,0,1,4.31-.06,32.94,32.94,0,0,0,4.62.57c.31,0,.62.06.92.1,1-.78,1.68-2,2.82-2.76s2.5-1.69,3.74-2.56c1.08-.75,2.22-1.56,3.35-2.23a1.34,1.34,0,0,1,.3-.13c-2.44-1.53-5-2.85-7.64-4.16-1.16-.59-2.36-1.07-3.52-1.65s-2.29-.64-3.42-1.12l-.24-.1s0,.08,0,.11a.25.25,0,0,1-.19.25l0,0a.29.29,0,0,1-.3.3c-.47,0-2,2.3-2.4,2.7-1.15,1.13-2.33,2.2-3.41,3.4C127.88,13.77,125.74,16,123.77,18.47Zm18.06,1.06c1.74.37,3.49,1,5.2,1.34a61.33,61.33,0,0,1,15.4,5.67,51.83,51.83,0,0,1,9.4,6,37.79,37.79,0,0,0-4.25-5.73c-3.22-3.9-7.17-7.23-10.78-10.75a33.36,33.36,0,0,0-5-3.94,25.74,25.74,0,0,0-5.54,3.67c-1.13.86-2.57,1.47-3.47,2.59A10.91,10.91,0,0,1,141.83,19.53Zm34.42,17.21c1,1.14,2.37,1.91,3.37,3a16.21,16.21,0,0,0,2.58,2.46c.8.54,1.25,1.43,2,2C185.2,45,186,46,187,46.83s2,1.78,3,2.72c-.21-.42-.42-.84-.66-1.23-1.14-1.86-2.65-3.46-3.76-5.34s-2.68-3.52-3.9-5.33-2.41-3.48-3.67-5.19c-1.73-2.35-3.28-4.82-5-7.14a60.72,60.72,0,0,0-5-6.38c-1-1-1.72-2.34-2.74-3.16S163.26,14,162.31,13a30.62,30.62,0,0,0-6.67-5.44c-.79-.45-1.6-.86-2.42-1.25h0a12.48,12.48,0,0,1-2.56-1.11,39.14,39.14,0,0,0-3.86-1.35,29.15,29.15,0,0,0-8.67-1.09c-1.52,0-3,0-4.54.1l2.55,1c1.15.47,2.38.6,3.53,1.07s2.34,1.12,3.54,1.6a52.11,52.11,0,0,1,7,3.68,35,35,0,0,1,6.19,4.28c2.07,1.94,4.09,3.89,6.11,5.88a68.48,68.48,0,0,1,5.69,5.74A36.49,36.49,0,0,1,172.52,32c.49,1,1.14,1.73,1.63,2.64C174.88,35.28,175.6,36,176.25,36.74ZM39,44.73c2.46-.84,4.93-1.65,7.35-2.61,3.73-1.47,7.44-3,11.28-4.22.29-.08.56-.18.84-.27a.37.37,0,0,1,.3-.15c.85,0,2.4-1.63,3-2.08,1-.83,2-1.63,3.13-2.38,2.41-1.66,4.69-3.48,7-5.23,4.72-3.53,9.8-6.57,14.69-9.86A118.58,118.58,0,0,1,102.71,9c5.17-2.4,11-3.46,16.52-4.83a58.84,58.84,0,0,1,8.66-1.94q4-.34,8-.35h5.28c.17,0,.32,0,.48,0a22,22,0,0,0-3-.55c-1.31-.13-2.6-.5-3.93-.5h-7.94c-1,0-1.82.31-2.77.36-5.82.31-11.2,2-16.67,3.9-3,1.08-6,2.52-9,3.83-2.55,1.13-5.14,2.18-7.67,3.37-5.45,2.59-10.26,6-15.31,9.25-2.64,1.71-5.38,3.19-8.06,4.82-1.16.71-2.3,1.77-3.49,2.37S61.34,30,60.16,30.69c-5.11,3.12-9.27,7.54-14.52,10.4C43.38,42.31,41.14,43.41,39,44.73Zm4.77,3.06c-2.94.71-5.88,1.45-8.81,2.27a26.17,26.17,0,0,1-2.79.62l-.14.14a9.12,9.12,0,0,0-2.67,4c-.57,1.93-3.35,3.32-4.8,4.44s-3,2.44-4.5,3.72c-1.15,1-2.48,1.85-3.57,2.92-.49.49-1,.95-1.53,1.42,4.54-2.94,9.38-5.39,13.9-8.4,2.93-2,5.76-4,8.61-6,1.77-1.27,3.26-2.79,4.94-4.15A10.08,10.08,0,0,1,43.72,47.79Zm93.09-21.68a63.31,63.31,0,0,0-9-.86,50.8,50.8,0,0,0-6.54.31,10.47,10.47,0,0,0-1.53,2.12,21.92,21.92,0,0,0-1.56,4c-.32.91-.85,1.75-1.24,2.63-1.23,2.81-2.2,5.73-3.38,8.56-1,2.49-2.37,4.73-3.1,7.35S108.64,55,107.9,57.5s-2.31,5-3,7.6c-1.08,4.27-2.73,8.48-4,12.67-1.57,5-2.44,10.27-3.76,15.38-.3,1.16-.57,2.33-.82,3.49a17.45,17.45,0,0,0,.81-2.54c.46-2,1-4.12,1.58-6.14a108.19,108.19,0,0,1,4.14-12.29c1.76-4.13,4.33-7.81,6.27-11.83a30.58,30.58,0,0,1,3.44-5.34,53.79,53.79,0,0,0,3.08-5.09c1.17-1.95,2.11-4.11,3.43-6,1.09-1.53,2.27-3,3.4-4.47,2.5-3.31,5.57-6.16,8.25-9.33,1.68-2,3.31-4,4.86-6.08A8,8,0,0,1,136.81,26.11ZM180.4,46.87a24.36,24.36,0,0,1,5.2,2.52,33.85,33.85,0,0,1,6.49,4.8c.28.28.55.58.82.87-.09-.15-.19-.3-.29-.44a27.14,27.14,0,0,0-2.91-4.07c-2.14-2.31-4.84-4.08-6.91-6.46-1.85-2.13-4.24-3.84-6.28-5.79A70.94,70.94,0,0,0,168.13,31a59.14,59.14,0,0,0-9.33-5.21,50.65,50.65,0,0,0-10.17-3.67c-3.32-.68-6.63-1.7-10-2-1.58-.13-3.22-.68-4.79-.59a32.18,32.18,0,0,1-4.91-.1,39.79,39.79,0,0,0-6,0,.3.3,0,0,1-.34,0,87.46,87.46,0,0,0-10.72,1.63c-6.08,1.21-11.84,3.52-17.77,5.29s-11.62,3.87-17.37,6c-2.75,1-5.61,1.69-8.35,2.75s-5.61,2.2-8.45,3.08c-11.51,3.58-22.36,9.29-34.41,10.93A29.48,29.48,0,0,0,21,50c-1.1.33-2.44.3-3.48.66-1.74.6-3.57.49-5.37.83-.46.09-.94.15-1.42.2a110.76,110.76,0,0,0,13.8-1c2.82-.33,5.57-.72,8.31-1.24l.06,0H33c1.32-.25,2.63-.53,3.94-.86,4-1,8-2.16,12.12-3,6.33-1.33,12.64-2.67,18.86-4.43s12.32-4,18.42-6.12c5.8-2.05,11.43-4.67,17.3-6.5a90,90,0,0,1,17.89-3.89c11.76-1.14,23.59,1.74,34.43,6.1a67.12,67.12,0,0,1,7.71,3.41c2.43,1.36,4.73,3,7,4.57s4.09,3.6,6.33,5.18c1,.73,1.82,1.74,2.84,2.5C180,46.42,180.19,46.67,180.4,46.87ZM169.94,98.32c2.27-8.14,4.93-16.2,9.35-23.44l0,0a.13.13,0,0,1,0-.16c2.92-4.6,4.49-10,7.12-14.81.52-.94,1.5-3.71,2.91-3.71,1.05,0,1.7,1.11,2.6,1.23a.28.28,0,0,1,.28.29l.05.07c.61.32,1.11.86,1.84.88l.91,0a15.07,15.07,0,0,0-3-3.52,38.15,38.15,0,0,0-4-3.17A25.44,25.44,0,0,0,184,49.49c-1.57-.75-3.68-2.24-5.49-2-3.66.39-5.54,4.19-7.7,6.73-2.45,2.89-4.65,5.88-6.86,9-4.28,6-6.92,12.51-10,19.11-1.6,3.39-3,6.88-4.56,10.26-1.5,3.19-3.25,6.25-4.71,9.45-2.39,5.24-3.77,10.76-6.08,16-1.33,3-2.34,6.17-3.43,9.26-1,2.77-2,5.53-3,8.29A169.1,169.1,0,0,0,123,170c-1.89,12.66-4.8,25.18-6.17,37.92a164.12,164.12,0,0,0-1,17.45V235.5c0,1.69.18,3.34.24,5,.12-.31.19-.66.27-.87a.42.42,0,0,1,.61-.24,10.87,10.87,0,0,1,.73-3.13,103.09,103.09,0,0,1,3.22-13.74c1-3,2-6.09,2.78-9.19.71-2.81,1.83-5.43,2.73-8.17.46-1.42,1.32-2.62,1.69-4.07a33.94,33.94,0,0,1,1.39-3.93c1.07-2.73,2.33-5.36,3.31-8.12,2-5.54,4.1-10.9,6.44-16.29,1.13-2.6,1.95-5.46,3.43-7.89a27.84,27.84,0,0,0,1.87-4.39,37.78,37.78,0,0,0,1.59-3.59c.73-2.81,2.21-5.42,3.18-8.15s2-5.54,3-8.29a83.82,83.82,0,0,0,3.17-9.06c.3-1.19,1.07-2.29,1.37-3.52s1.4-2.73,1.91-4c2.29-5.56,5-10.95,7.19-16.54a60.81,60.81,0,0,1,3.17-7.37A15.64,15.64,0,0,0,169.94,98.32Zm18.83-40.91a44.83,44.83,0,0,0-3.24,5.93c-.84,1.84-1.64,3.72-2.49,5.56.4-.63.8-1.27,1.21-1.89,1.47-2.3,3.45-4.27,4.86-6.58.51-.83,1-2.61,2-2.88C190.42,57.2,189.09,56.92,188.77,57.41Zm10.37,9.3c0-2.42-.41-6-3-7.12l-.07,0a2.9,2.9,0,0,1-.51,0,.33.33,0,0,1-.32-.24,6.64,6.64,0,0,1-2-.1c-.36-.15-1.78-1.49-2.16-.65a13.88,13.88,0,0,1-.9,1.76c-1,1.71-2.4,3.14-3.59,4.78s-2,3.16-3,4.76a85.88,85.88,0,0,0-6.07,10.41,127.31,127.31,0,0,0-4.92,12.34c-2.07,6.2-3.5,12.6-5.23,18.9a142.81,142.81,0,0,0-4,19.31c-1.71,13-3.66,26-5.32,39a185.12,185.12,0,0,0-1.92,18.79c-.07,3.22-.05,6.45-.05,9.67,0,2.68-.37,5.51-.07,8.17.33,3,.24,6,.48,9,.2,2.52-.09,5.11.35,7.6.24,1.4,0,2.88.13,4.3a21,21,0,0,1,.12,3.55,27.36,27.36,0,0,0,.42,5.06,2.58,2.58,0,0,1,1.13-1.6.47.47,0,0,1,.61.16c.65.88.85,2,1.44,2.91a11,11,0,0,0,.17-2.41c0-.8.28-1.61.29-2.44a.34.34,0,0,1,0-.18c.12-1.92.28-3.83.52-5.73.33-2.63.42-5.32.89-7.92,1-5.9,2.7-11.71,4.2-17.51,1.63-6.32,3.18-12.66,5-18.93.95-3.26,1.91-6.52,2.93-9.76.93-3,2.17-5.89,2.91-8.9,1.44-5.88,3.1-11.7,4.29-17.64.64-3.21,1.27-6.44,1.83-9.66.52-3,.61-6,1.1-9,2-12.07,5.9-23.79,9.23-35.53.83-2.92,1.26-6,2-8.91.37-1.4.73-2.82,1-4.24a40,40,0,0,0,1-4.55C198.24,71.69,199.13,69.26,199.14,66.71Zm11.54,1a22.78,22.78,0,0,0-6.37-5.6l-3.11-1.76c-.84-.47-2.3-.29-3.38-.25a6.79,6.79,0,0,1,1.74,2.52,11.25,11.25,0,0,1,.42,4.85,39.64,39.64,0,0,0,.5,6.26,66.37,66.37,0,0,1,.77,6.91A61.71,61.71,0,0,0,202.86,90c.76,3.15,2,6.19,2.73,9.33.7,3,1.93,5.81,2.61,8.77.58,2.52,1.37,4.92,2.16,7.38,1.91,5.93,4.12,11.76,6,17.72,3.74,12.07,7.42,24.13,11.83,36,2.19,5.89,4.61,11.67,6.7,17.6,1.08,3.07,2.2,6.13,3.24,9.22a95.46,95.46,0,0,0,3.12,9.09c.49,1.08.61,2.35,1,3.45a35.75,35.75,0,0,1,1.35,3.62q1.32,4.56,2.51,9.16c.87,3.3,1.7,6.61,2.56,9.92.38,1.46.85,2.92,1.09,4.41l0,.26c-.08-2.88-.2-5.75,0-8.59.28-3.91.45-7.86.54-11.79,0-1.95,0-3.9,0-5.85s.36-4.21.26-6.31c-.2-4-.62-8-.94-12.09-.49-6-1.34-12-2-18.07a184.47,184.47,0,0,0-3-19.25A344.6,344.6,0,0,0,234,118.05c-1-3-1.9-6.08-3-9.09-.51-1.39-1.13-2.8-1.5-4.23s-1.21-2.67-1.62-4.07c-1.75-6-3.82-12-7.1-17.37S214.65,72.52,210.68,67.7ZM228.58,73c-2.62-2-5.14-4.12-7.92-5.91a30.06,30.06,0,0,0-3.94-2.34c-1.59-.69-3-1.8-4.66-2.38a23.56,23.56,0,0,1-4-1.43,5.93,5.93,0,0,0-3-1,7.7,7.7,0,0,1-1.52,0,25,25,0,0,0-6.75-.59,3.66,3.66,0,0,1,.49.31.2.2,0,0,1,.11,0l3.53,0c.49,0,1.19.64,1.6.87a36,36,0,0,1,5.19,3.14,29.19,29.19,0,0,1,5.71,6.24,5.7,5.7,0,0,1,1.21,1.35c.87,1.61,1.9,3.15,2.91,4.68,2,3.06,4.06,6.19,6.35,9s4.55,5.95,6.9,8.87,4.75,5.57,6.93,8.53c3.57,4.88,8.12,9,12,13.64,2,2.32,4.08,4.47,6.12,6.72,1.82,2,3.9,3.73,5.72,5.74,2.11,2.32,4.19,4.65,6.41,6.86,2,2,3.89,4.24,6,6.2,2.32,2.17,4.74,4.2,7,6.48,2,2.1,4.06,4.22,6.22,6.21,2.33,2.15,4.86,4,7.34,6,2.21,1.78,4,3.82,6.09,5.74a126.47,126.47,0,0,1,12.21,13.64,133.87,133.87,0,0,1,10.38,14.55c1.25,2.07,2.37,4.22,3.54,6.34-.55-1.53-1.08-3.07-1.54-4.63-1.38-4.71-2.7-9.46-4.43-14.06a148.49,148.49,0,0,0-6.18-14c-2-4.13-5.09-7.74-7.74-11.48-2-2.81-3.93-6-6.36-8.4-2.13-2.12-4.19-4.3-6.31-6.44-4.28-4.33-7.85-9.32-12.13-13.64s-8.17-9.36-12.4-13.91-8.9-9.13-13.42-13.63S247.31,91,242.79,86.46,233.8,77,228.58,73Zm97,93c-1.81-3.29-3.76-6.51-5.44-9.87a37,37,0,0,0-3.86-6.82c-1.13-1.43-2.09-3-3.12-4.46-1.37-2-2.84-3.84-4.34-5.72-.54-.67-1.11-1.35-1.62-2a11.84,11.84,0,0,0-1.48-2.21c-1.19-1-2-2.48-3-3.64-.78-.89-1.62-1.71-2.33-2.65a75.26,75.26,0,0,0-5.74-6.86c-4.41-4.51-8.48-9.38-12.84-14-2.28-2.4-4.42-4.9-6.66-7.34-1.91-2.08-4.18-3.84-5.93-6.06-2.1-2.67-4.74-4.88-7-7.37-2-2.14-4.16-4.13-6.36-6.06-2.41-2.1-4.68-4.16-7.27-6-2.13-1.55-4.13-3.36-6.22-5-4.55-3.54-10.07-7.08-15.76-8.32-5.16-1.13-10.37-1.69-15.54-2.61-1.46-.26-2.91-.55-4.37-.82-1.21-.23-2.54.06-3.71-.2a10.51,10.51,0,0,0-4.6-.17c-.28.08-.89.18-1.43.35,0,0,0,0,0,.06s0,.18,0,.27a.41.41,0,0,1-.1.27l2.94,0a8.57,8.57,0,0,1,3,.17c1,.38,2.09,0,3,.35s2.05.94,3.12,1.31a57.67,57.67,0,0,1,14.58,7.64c.58.41,1.13.84,1.69,1.27,7.7,3.1,14.68,8,21.18,13.08,4.59,3.61,9.36,7,14,10.54s8.34,7.89,12.2,12.21,8,8.59,11.94,12.95,8.72,8.18,12.85,12.56,8.09,9,11.9,13.61c3.7,4.48,7.61,8.72,10.86,13.56C322,160.67,323.86,163.29,325.6,166Z"/></g></g></svg>