<?xml version="1.0" encoding="utf-8"?>
<!-- Generator: Adobe Illustrator 25.1.0, SVG Export Plug-In . SVG Version: 6.00 Build 0)  -->
<svg version="1.1" id="Layer_1" xmlns="http://www.w3.org/2000/svg" xmlns:xlink="http://www.w3.org/1999/xlink" x="0px" y="0px"
	 viewBox="0 0 438.5 495.7" style="enable-background:new 0 0 438.5 495.7;" xml:space="preserve">
<style type="text/css">
	.st0{fill:#FFF3F6;}
</style>
<g>
	<path d="M188.7,493.7c-3.9,0.6-7.9,1.1-11.8,1.6c-11.8,1.5-23.8-0.2-34.8-4.9c-3.9-1.6-7.7-3.4-11.4-5.4c-3.9-2.2-7.4-5.2-10.2-8.8
		c-0.3-0.4-0.6-0.9-0.9-1.3c-0.2-0.5-0.4-1-0.5-1.5c0.4-1.5,1.4-2.8,2.6-3.7c1.6-1.3,3.4-2.4,5.3-3.1c6.9-2.9,13.8-5.8,20.7-8.6
		c7.6-3.2,15.2-6.4,22.6-10.1c7.9-3.9,15.3-8.6,22.2-14.1c5-4,9.6-8.5,13.6-13.6c1.8-2.2,3.3-4.6,4.3-7.3c0.5-1.3,0.8-2.6,0.9-4
		c0.2-2.5-1.1-4-3.6-4.5c-1.7-0.3-3.4-0.2-5,0.3c-3.1,0.8-6.1,2.1-8.8,3.8c-6.6,4.1-12.9,8.7-18.8,13.9c-5.8,4.9-11.6,10-17.5,14.8
		c-9.4,7.9-20,14.4-31.4,19.2c-2.5,1.1-5.1,2-7.8,2.7c-8.1,2.3-16.7,2.5-24.9,0.5c-10.4-2.4-20-7.5-27.9-14.7
		c-1.3-1.2-2.5-2.4-3.7-3.7c-5.1-6-9.8-12.4-14-19c-3.1-4.8-6.9-9.2-11.3-12.9c-4.6-4-10.1-6.7-16-8c-0.2-0.1-0.4-0.1-0.6-0.2
		c-0.1-0.1-0.3-0.2-0.4-0.4c-0.2-1.1,0.5-1.8,1.2-2.5c1.3-1.3,2.8-2.4,4.5-3.1c2.1-0.9,4.4-1.5,6.6-1.7c6.6-0.9,13.3-0.7,19.8,0.6
		c5.5,1.2,11,2.5,16.5,3.8c4.1,1,8.2,2,12.3,2.9c14.5,3.4,29.6,3.4,44.1,0.1c10-2.1,19.8-5.4,29-9.8c7.9-3.9,15.4-8.8,22.3-14.4
		c1.2-1,2.5-2,3.7-3.1c0.6-0.5,1.4-1,1.5-2c-0.6-0.6-1.4-0.6-2.1-0.7c-3.9-0.5-7.8-0.6-11.7-0.2c-5.5,0.5-10.9,1.1-16.4,2
		c-14.7,2.2-29.4,4.8-44,7.6c-8.6,1.7-17.3,3.1-25.9,4.6c-7.2,1.2-14.5,1.9-21.8,2c-8.5,0.2-17-1.2-25-4.1c-4.6-1.7-9-3.8-13.2-6.4
		c-2-1.2-3.8-2.6-5.4-4.1c-2.1-1.8-3.4-4.4-3.9-7.1c-0.3-2.2-0.4-4.4-0.6-6.6s-0.3-4.7-0.6-7.1c-0.9-5.7-2.8-11.1-5.7-16.1
		c-0.6-1.1-1.1-2.3-1.5-3.6c-0.8-2.1,0-4.5,1.9-5.7c1.2-0.9,2.5-1.5,3.9-2c3.3-1.1,6.8-1.4,10.2-0.9c2.6,0.3,5.1,0.8,7.6,1.5
		c4.3,1.2,8.6,2.5,12.9,3.9c12.4,4,24.9,7.9,37.6,10.8c13.7,3.3,27.7,5.5,41.8,6.5c9.8,0.7,19.6,0.5,29.3-0.4
		c7.5-0.7,14.8-2.3,21.9-4.6c1.8-0.6,3.6-1.3,5.3-2.1c1-0.5,2-1.2,2.9-1.9c0.7-0.5,1-1.2,1-2.1c-0.5-0.2-1-0.3-1.5-0.4
		c-2.4-0.2-4.7-0.4-7.1-0.5c-11.7-0.7-23.4-0.6-35.1-0.8c-12.7-0.2-25.5-0.6-38.2-1c-4.5-0.1-9-0.5-13.5-0.9
		c-12.9-1-25.6-3.2-38.1-6.4c-8.5-2.1-16.8-5.3-24.5-9.6c-2.6-1.3-5.1-2.8-7.5-4.4c-4.7-3.5-8.5-8-11.2-13.2
		c-2.4-4.5-3.3-9.6-2.7-14.6c0.2-1.7,0.5-3.5,0.9-5.2c0.6-2.7,0.7-5.5,0.3-8.2c-0.3-2.4-0.8-4.8-1-7.3S0,257-0.1,254.4
		c0-2.5,0.4-4.9,1.3-7.2c0.6-1.5,1.5-2.8,2.7-3.9c1.4-1.2,3.2-1.8,5.1-1.6c1.1,0.1,2.1,0.3,3.2,0.6c4.6,1.2,9,3,13.2,5.2
		c8.6,4.7,17,9.6,25.3,14.9c5.5,3.5,11.1,6.8,16.8,9.8c13.9,7.2,28.7,12.3,44,15.2c7,1.4,14,2.5,21.1,3.2c3.8,0.4,7.6,0.7,11.4,1.1
		c4.3,0.4,8.7,0.6,13.1,0.5c2.9-0.1,5.8-0.5,8.6-1.1c2.4-0.5,4.7-1.4,6.8-2.8c2.6-1.6,3.7-4.9,2.8-7.8c-0.6-1.8-1.8-3.4-3.3-4.6
		c-4.5-3.7-9.7-6.7-15.3-8.7c-5-1.7-10.1-3.1-15.2-4.2c-12.2-2.5-24.6-4.1-37-4.9c-6.2-0.4-12.5-0.9-18.7-1.4
		c-7-0.6-13.9-2.2-20.5-4.7c-6.8-2.5-13.2-6-19.1-10.4c-7.2-5.6-12.8-13-16.4-21.4c-2.1-5.3-2.9-11-2.4-16.6
		c0.2-1.8,0.5-3.6,1.1-5.4c1.9-6.2,4.8-12.1,8.7-17.3c1.5-2,2.3-4.5,2.2-7c-0.1-1.5-0.2-3-0.2-4.6c0-1.1,0-2.1,0.2-3.2
		c0.3-2,1.6-3.7,3.4-4.6c1.4-0.7,3-1.1,4.6-1.2c3.6-0.1,7.2,0.5,10.5,2c5.7,2.5,11,5.7,15.8,9.7c6.8,5.6,13.2,11.7,19,18.2
		l11.4,12.9c4.3,4.8,8.8,9.4,13.4,13.8s9.4,9.2,14.1,13.8c2.1,2,4.3,3.9,6.6,5.7c3.6,2.7,7.9,4.2,12.4,4.3c3.5,0.2,7-0.7,10-2.6
		c1.9-1.2,3.3-3,4.1-5.1c1.4-3.5,1.9-7.3,1.3-11c-1.8-11.9-8.7-22.4-18.9-28.8c-7.6-5-15.8-9-24.5-11.7c-3.5-1-7.1-2-10.6-3
		c-2.5-0.8-5-1.5-7.4-2.4s-4.7-2.3-6.6-4.1c-2.2-2.1-3.8-4.7-4.5-7.6c-0.7-2.7-1.3-5.5-1.8-8.3c-1-5.6-2.7-11-5.1-16.1
		c-1.8-3.6-3.7-7.2-5.6-10.8c-1-1.8-1.9-3.6-2.8-5.5c-2.6-5.3-3.1-11.3-1.4-17c1.4-5,3.7-9.7,6.9-13.9c3.2-4.3,6.8-8.4,10.5-12.4
		c7.7-8.5,15.2-17.1,22.1-26.3c4.8-6.4,8.5-13.6,11-21.3c0.9-2.7,1.6-5.4,2.5-8.1c0.3-1.2,0.7-2.3,1.4-3.3c1.1,0.2,1.5,1.1,2.1,1.8
		c2.5,2.9,5,5.8,7.5,8.6c4.8,5.3,10.4,9.7,16.7,13c2.7,1.5,5.6,2.9,8.4,4.3c3.7,1.7,7.2,3.7,10.6,6c5.2,3.5,9.7,8,13.2,13.2
		c1.1,1.6,2.2,3.1,3.3,4.7c1,1.5,2.4,2.6,3.9,3.4c8.1,3.9,12.7,10.5,14.9,19c1.2,4.6,1.2,9.4,0,14.1c-0.6,2.5-1.4,5-2.2,7.5
		c-1.4,4.4-2.9,8.7-4.3,13.1c-1.5,4.4-2.4,9-2.7,13.7c-0.5,6.9,0.8,13.9,3.9,20.2c0.5,0.9,1,1.7,1.5,2.6c2,3.1,6.2,4.1,9.9,1.7
		c1.7-1.1,3.1-2.7,4.1-4.5c1.2-2.3,2.2-4.7,2.7-7.3c1-4.5,1.7-9.2,1.9-13.8c0.4-8.5,0.1-17-0.8-25.4c-0.6-5.6-1.8-11-3.7-16.3
		c-0.4-1.2-0.8-2.3-1.1-3.5c-0.4-0.8-0.4-1.7,0-2.4c0.5-0.6,1.4-0.7,2.1-0.4c0.6,0.2,1.3,0.5,1.9,0.8c5.6,2.6,11.7,3.8,17.8,3.6
		c3.8-0.3,7.5,1.1,10.2,3.8c3.5,3.2,6.5,6.9,9,10.9c1.9,3.1,2.8,6.6,2.8,10.2c0,2.8-0.3,5.6-0.9,8.4c-1.4,7.3-3.7,14.4-6.9,21.1
		c-2.8,6-5.9,11.8-9.3,17.4c-3.4,5.6-6.5,11.4-9.2,17.4c-2.2,4.5-3.7,9.2-4.4,14.2c-0.7,6.1-0.2,12.1,2.3,17.7
		c0.5,1.1,1.1,2.2,1.7,3.2c1.7,3,5.4,4.1,8.4,2.5c1.8-0.9,3.3-2.2,4.4-3.9c3.4-4.8,6.2-10,8.5-15.4c3.6-8.6,6.9-17.3,9.6-26.2
		c3.7-12.2,5.2-24.9,4.2-37.6c-0.6-10.4-2.4-20.7-5.2-30.7c-0.8-2.7-1.5-5.5-2.1-8.2c-0.7-3.4-0.7-6.9,0.1-10.2
		c1.6-6.5,5.7-10.5,12.1-12.1c3.3-0.8,6.7-1,10-0.6s6.3,2,8.5,4.5s3.9,5.5,5,8.7c1,3.2,1.8,6.5,2.4,9.8c0.5,2.6,0.9,5.1,1.5,7.6
		c0.4,2,1.3,3.9,2.6,5.5c0.4,0.5,0.9,1,1.5,1.4c2,1.3,4.1,2.3,6.3,3.2c0.3-0.3,0.6-0.5,0.8-0.7c6.5-6.4,14.5-9.4,23.6-9.6
		c2.1,0,4.1,0.5,6,1.5c3.3,1.6,6.2,3.9,8.6,6.7c2.2,2.6,4,5.4,5.5,8.4c2.5,5.2,5,10.3,7.7,15.4c2.2,4.2,5.4,7.9,9.3,10.6
		c2,1.3,3.4,3.4,4,5.7c1.4,4.9,1.9,10,1.5,15c-0.3,4.6-1.1,9.1-2.2,13.6c-2.2,8-5.2,15.8-9,23.2c-3.7,7.1-8,14-12.8,20.4
		c-5.5,7.8-11.8,15-18.1,22.1c-3.9,4.5-8,8.8-11.4,13.7c-1.8,2.5-3.4,5.1-4.9,7.7c-0.6,1.1-1.1,2.3-1.3,3.6c-0.4,2.2,0.7,3.5,3,3.7
		c1.8,0.1,3.5-0.4,5-1.3c0.3-0.2,0.6-0.4,0.9-0.6c5.7-4.3,10.9-9.1,15.6-14.4c5.2-6,9.6-12.7,13-19.9c3.1-6.4,6-12.9,9-19.3
		c3.3-7.5,7.1-14.7,11.3-21.7c1.5-2.6,3.2-5,5.2-7.3c2.9-3.6,7.6-5.2,12.2-4.2c4.2,0.8,8.1,2.9,11,6c4.4,4.5,8,9.7,10.5,15.5
		c1.5,3.4,2.3,7.2,2.2,10.9c-0.1,2.5-0.2,5-0.5,7.5c-0.6,4.6-0.8,9.3-0.8,13.9c0,0.5,0,1.1,0,1.6c-0.1,10.4-3.9,20.5-10.8,28.3
		c-2.8,3.3-5.9,6.4-9.3,9.1c-3.5,2.9-7.2,5.6-10.9,8.4c-4.3,3-8.8,5.8-13.5,8.1c-6.3,3.4-12.7,6.7-19,10.1
		c-4.6,2.5-8.8,5.5-12.8,8.9c-2.1,1.7-3.9,3.7-5.5,5.8c-0.7,1.1-1.4,2.2-0.8,3.8c1.2,1.1,2.9,1.6,4.5,1.5c1.7-0.1,3.4-0.4,5-0.8
		c4.8-1.4,9.5-3.3,13.9-5.8c4.3-2.4,8.4-5,12.4-7.8c8.8-6,17.1-12.5,25.1-19.6c2.7-2.7,5.7-5,9-7c1.7-1,3.5-1.6,5.4-1.9
		c2.9-0.5,5.8,0.7,7.4,3.1c0.9,1.2,1.6,2.6,2,4.1c0.6,2.1,0.9,4.2,0.8,6.3c0,3.1-0.4,6.1-1.1,9.1c-0.6,2.8-1.4,5.5-2.1,8.2
		c-0.4,1.6-0.8,3.1-1.2,4.7c-0.7,2.7-0.9,5.6-0.6,8.4c0.2,2.7,0.4,5.5,0.4,8.2c0,4.9-1.9,9.7-5.3,13.3c-2.9,3.2-6.6,5.5-10.8,6.5
		c-2.4,0.6-5,0.9-7.5,0.9c-4.3-0.1-8.5-0.3-12.8-0.5c-6-0.2-11.9-0.5-17.9-0.7c-3.8-0.1-7.6,0.1-11.4,0.6c-3.4,0.4-6.8,1.3-9.9,2.8
		c-1.8,0.8-3.4,2.1-4.5,3.7c-0.8,1.1-1.4,2.4-1.6,3.8c-0.5,2.5,0.7,5,2.9,6.2c1.1,0.7,2.4,1.1,3.7,1.2c2.7,0.4,5.3,0.4,8,0.2
		c10.2-0.5,20.3-2.8,29.8-6.7c2.3-1,4.7-1.9,7-2.8c1-0.4,2-0.7,3.1-0.9c2.9-0.5,4.5,0.4,5.5,3.1c0.5,1.4,0.8,2.9,1,4.4
		c0.5,4.1,0,8.2-1.4,12c-1.5,4.4-3.6,8.6-6.2,12.5c-1.2,1.7-2.2,3.5-3.4,5.2c-0.2,0.3-0.3,0.5-0.4,0.8c-1.3,3.5-3.4,6.7-6.2,9.2
		c-5.9,5.9-13.1,8.5-21.3,8.4c-4.2,0-8.4-0.6-12.5-1.7c-9.7-2.5-18.9-6.7-27.2-12.3c-5.1-3.5-9.5-7.9-13.1-13
		c-3.4-5.1-6.3-10.5-8.7-16.1c-1.5-3.4-3.1-6.8-4.8-10.1c-0.8-1.5-1.8-2.9-2.8-4.2c-0.5-0.8-1.2-1.3-2-1.6c-0.4,0.5-0.1,1,0,1.4
		c1.1,3.7,2.2,7.3,3.3,11c6.3,22.3,10.6,45.1,12.8,68.1c0.6,6.1,1.2,12.3,1.8,18.5c0.2,1.9-0.1,3.8-0.8,5.6
		c-0.2,0.4-0.4,0.8-0.7,1.2c-1.4,2.3-3.3,2-4.6,0.2c-1-1.2-1.6-2.8-1.7-4.4c0-9.8-1.2-19.5-2.3-29.2c-2.6-21.9-7.1-43.4-13.4-64.5
		c-0.1-0.8-0.4-1.6-0.9-2.3c-0.8,0.5-0.8,1.2-1,1.8c-1.4,4.7-2.2,9.5-2.4,14.4c-0.2,5-0.3,9.9-0.4,14.9c-0.1,3.6,0,7.2,0,10.8
		c0.1,8.2-0.4,16.4-1.5,24.6c-1.8,12-7.2,23.1-15.4,31.9c-8.9,9.5-19.5,16-32.4,18.8c-3.1,0.7-6.3,1.1-9.5,1.2
		c-1.6,0.1-3.2,0.1-4.8,0.1"/>
	<path d="M28.8,365.6c2.3-0.4,4.7-0.4,7,0c-0.3,0.1-0.6,0.2-0.8,0.2C32.9,365.7,30.9,366.1,28.8,365.6z"/>
	<path d="M22.6,365.7c1.3-0.4,2.7-0.4,4-0.1C25.3,366,23.9,366,22.6,365.7z"/>
	<path d="M26.5,365.6c0.8-0.4,1.6-0.4,2.4,0C28.2,366,27.3,366,26.5,365.6z"/>
	<path d="M20.3,365.7c0.8-0.3,1.6-0.3,2.4,0C22,366,21.1,366,20.3,365.7z"/>
	<path d="M14.7,365.9h2.4C16.4,366.2,15.5,366.2,14.7,365.9z"/>
	<path d="M9,331.5l11.2,1.5c0.2,0,0.4,0.2,0.6,0.4c-0.4,0-0.9,0-1.3,0c-3-0.4-6-0.9-9-1.4C10,331.9,9.5,331.7,9,331.5z"/>
	<path d="M18.7,352.7c-1.3,0.4-2.7,0.4-4,0.1C16,352.3,17.4,352.3,18.7,352.7z"/>
	<path d="M162.8,239.4c1.2-0.6,2.5-0.7,3.8-0.5C165.4,239.4,164.1,239.6,162.8,239.4z"/>
	<path d="M202.2,217.9c-0.2-1,0.1-2.1,0.8-2.9C203.1,216,202.9,217,202.2,217.9z"/>
	<path d="M171.4,227.2c1.2-0.4,2.5-0.3,3.7,0.2C173.9,227.7,172.6,227.7,171.4,227.2z"/>
	<path d="M168.1,227.4c1.1-0.5,2.3-0.5,3.4-0.2C170.4,227.5,169.2,227.6,168.1,227.4z"/>
	<path class="st0" d="M437.8,276c-0.4-1.5-1.1-2.9-2-4.1c-1.6-2.4-4.5-3.6-7.4-3.1c-1.9,0.3-3.7,0.9-5.4,1.9c-3.2,2-6.3,4.3-9,7
		c-7.9,7.1-16.3,13.6-25,19.6c-4,2.8-8.1,5.4-12.4,7.8c-4.4,2.5-9,4.4-13.9,5.8c-1.6,0.4-3.3,0.7-5,0.8c-1.6,0.1-3.3-0.4-4.5-1.5
		c-0.6-1.6,0.1-2.7,0.8-3.8c1.6-2.1,3.4-4.1,5.5-5.8c4-3.4,8.2-6.4,12.8-8.9c6.3-3.4,12.7-6.7,19-10.1c4.7-2.4,9.2-5.1,13.5-8.1
		c3.7-2.8,7.4-5.5,10.9-8.4c3.4-2.7,6.5-5.8,9.3-9.1c6.9-7.8,10.7-17.9,10.8-28.3v-1.6c0-4.6,0.2-9.3,0.8-13.9
		c0.3-2.5,0.4-5,0.5-7.5c0.1-3.7-0.7-7.5-2.2-10.9c-2.5-5.7-6-10.9-10.4-15.4c-3-3.2-6.9-5.3-11.1-6.1c-4.6-1-9.3,0.6-12.2,4.2
		c-2,2.3-3.7,4.7-5.2,7.3c-4.2,7-8,14.2-11.3,21.7c-3,6.4-5.9,12.9-9,19.3c-3.4,7.2-7.8,13.9-13,19.9c-4.7,5.3-9.9,10.1-15.6,14.4
		l-0.9,0.6c-1.5,0.9-3.2,1.4-5,1.3c-2.3-0.2-3.4-1.5-3-3.7c0.2-1.2,0.7-2.5,1.3-3.6c1.5-2.6,3.1-5.2,4.9-7.7
		c3.4-4.9,7.5-9.2,11.4-13.7c6.3-7.1,12.6-14.3,18.1-22.1c4.8-6.5,9-13.3,12.7-20.4c3.8-7.4,6.8-15.2,9-23.2c1.1-4.5,1.9-9,2.2-13.6
		c0.4-5-0.1-10.1-1.5-15c-0.6-2.3-2-4.4-4-5.7c-3.9-2.7-7.1-6.4-9.3-10.6c-2.7-5.1-5.2-10.2-7.7-15.4c-1.5-3-3.3-5.8-5.5-8.4
		c-2.4-2.8-5.3-5.1-8.6-6.7c-1.9-1-3.9-1.5-6-1.5c-9.1,0.2-17.1,3.1-23.6,9.6c-0.2,0.2-0.5,0.4-0.8,0.7c-2.2-0.9-4.3-1.9-6.3-3.2
		c-0.6-0.4-1.1-0.9-1.5-1.4c-1.3-1.6-2.2-3.5-2.6-5.5c-0.6-2.5-1-5-1.5-7.6c-0.5-3.3-1.3-6.6-2.3-9.8c-1.1-3.2-2.8-6.2-5-8.7
		c-2.2-2.5-5.2-4.1-8.5-4.5c-3.3-0.4-6.7-0.2-10,0.6c-6.4,1.6-10.5,5.6-12.1,12.1c-0.8,3.3-0.8,6.8-0.1,10.2
		c0.6,2.7,1.3,5.5,2.1,8.2c2.9,10.1,4.6,20.3,5.2,30.7c1,12.7-0.5,25.4-4.2,37.6c-2.7,8.9-6,17.6-9.6,26.2
		c-2.3,5.4-5.1,10.6-8.5,15.4c-1.1,1.7-2.6,3-4.4,3.9c-3,1.6-6.7,0.5-8.4-2.5c-0.6-1-1.2-2.1-1.7-3.2c-2.5-5.6-3-11.6-2.3-17.7
		c0.7-4.9,2.2-9.7,4.4-14.1c2.7-6,5.8-11.8,9.2-17.4c3.4-5.6,6.5-11.4,9.3-17.4c3.1-6.8,5.4-13.9,6.7-21.2c0.6-2.7,0.9-5.6,0.9-8.4
		c0-3.6-0.9-7.1-2.8-10.2c-2.5-4-5.5-7.7-9-10.9c-2.7-2.7-6.4-4.1-10.2-3.8c-6.1,0.2-12.2-1-17.8-3.6c-0.6-0.3-1.3-0.6-1.9-0.8
		c-0.7-0.3-1.6-0.2-2.1,0.4c-0.4,0.7-0.4,1.6,0,2.4c0.3,1.2,0.7,2.3,1.1,3.5c1.9,5.3,3.1,10.8,3.7,16.3c0.9,8.4,1.2,16.9,0.8,25.4
		c-0.2,4.6-0.9,9.3-1.9,13.8c-0.5,2.6-1.5,5-2.7,7.3c-1,1.8-2.4,3.3-4.1,4.5c-3.7,2.4-7.9,1.3-9.9-1.7c-0.5-0.9-1-1.7-1.5-2.6
		c-3-6.2-4.3-13.2-3.8-20.2c0.3-4.7,1.2-9.3,2.7-13.7c1.4-4.4,2.9-8.7,4.3-13.1c0.8-2.5,1.6-5,2.2-7.5c1.2-4.6,1.2-9.5,0-14.1
		c-2.2-8.5-6.8-15-14.9-18.9c-1.5-0.7-2.9-1.9-3.9-3.3c-1.1-1.6-2.2-3.1-3.3-4.7c-3.5-5.2-8-9.7-13.2-13.2c-3.4-2.3-6.9-4.3-10.6-6
		c-2.8-1.4-5.7-2.8-8.4-4.3c-6.2-3.4-11.9-7.8-16.6-13.1c-2.5-2.8-5-5.7-7.5-8.6c-0.6-0.7-1-1.6-2.1-1.8c-0.6,1-1.1,2.1-1.4,3.3
		c-0.9,2.7-1.6,5.4-2.5,8.1c-2.5,7.7-6.2,14.9-11,21.3c-6.9,9.2-14.4,17.8-22.1,26.3c-3.6,4-7.2,8.1-10.4,12.4
		c-3.2,4.1-5.5,8.8-6.9,13.8c-1.7,5.7-1.2,11.7,1.4,17c0.9,1.9,1.8,3.7,2.8,5.5c1.9,3.6,3.8,7.2,5.6,10.8c2.4,5.1,4.1,10.5,5.1,16.1
		c0.5,2.8,1.1,5.6,1.8,8.3c0.7,2.9,2.3,5.6,4.5,7.6c1.9,1.8,4.2,3.2,6.6,4.1c2.4,0.9,4.9,1.7,7.4,2.4c3.5,1,7.1,2,10.6,3
		c8.7,2.7,16.9,6.6,24.5,11.7c4.2,2.7,7.9,6,10.9,9.9c4.2,5.6,7,12.1,8.1,19c0.6,3.7,0.1,7.5-1.3,11c-0.8,2.1-2.2,3.9-4.1,5.1
		c-3,1.9-6.5,2.8-10,2.6c-4.5-0.1-8.8-1.6-12.4-4.3c-2.3-1.8-4.5-3.7-6.6-5.7c-4.7-4.5-9.5-9.3-14.1-13.7c-4.6-4.4-9.1-9-13.4-13.8
		l-11.4-12.9c-5.8-6.5-12.2-12.6-19-18.2c-4.8-4-10.1-7.2-15.8-9.7c-3.3-1.5-6.9-2.1-10.5-2c-1.6,0.1-3.2,0.5-4.6,1.2
		c-1.8,0.9-3.1,2.6-3.4,4.6c-0.2,1.1-0.2,2.1-0.2,3.2c0,1.5,0.1,3.1,0.2,4.6c0.1,2.5-0.7,5-2.2,7c-3.9,5.2-6.8,11.1-8.7,17.3
		c-0.6,1.8-0.9,3.6-1.1,5.4c-0.5,5.6,0.3,11.3,2.4,16.6c3.6,8.4,9.2,15.8,16.4,21.4c5.8,4.4,12.3,7.9,19.1,10.4
		c6.6,2.5,13.5,4.1,20.5,4.7c6.2,0.5,12.5,1,18.7,1.4c12.4,0.8,24.8,2.4,37,4.9c5.1,1.1,10.2,2.5,15.2,4.2c5.6,2,10.8,5,15.3,8.7
		c1.5,1.2,2.7,2.8,3.3,4.6c0.9,2.9-0.2,6.2-2.8,7.8c-2.1,1.4-4.4,2.3-6.8,2.8c-2.8,0.6-5.7,1-8.6,1.1c-4.4,0.1-8.8-0.1-13.1-0.5
		c-3.8-0.3-7.6-0.7-11.4-1.1c-7.1-0.7-14.1-1.7-21.1-3.1c-15.3-2.9-30.1-8-44-15.2c-5.7-3-11.3-6.3-16.8-9.8
		c-8.3-5.3-16.7-10.2-25.3-14.9c-4.2-2.2-8.6-4-13.2-5.2c-1-0.3-2-0.5-3.1-0.6c-1.9-0.2-3.7,0.4-5.1,1.6c-1.2,1.1-2.1,2.4-2.7,3.9
		c-0.9,2.3-1.3,4.7-1.3,7.2c0.1,2.6,0.2,5.2,0.5,7.8c0.2,2.5,0.7,4.9,1,7.3c0.4,2.7,0.3,5.5-0.3,8.2c-0.4,1.7-0.7,3.5-0.9,5.2
		c-0.7,5,0.2,10.1,2.6,14.6c2.7,5.1,6.5,9.6,11.2,13.1c2.4,1.6,4.9,3.1,7.5,4.4c7.7,4.3,16,7.5,24.5,9.6c12.6,3.2,25.3,5.4,38.2,6.4
		c4.5,0.3,9,0.7,13.5,0.8c12.8,0.4,25.5,0.8,38.3,1c11.7,0.2,23.4,0.1,35.1,0.8c2.4,0.1,4.7,0.3,7.1,0.5c0.5,0.1,1,0.2,1.5,0.4
		c0,0.8-0.3,1.6-1,2.1c-0.9,0.7-1.9,1.4-2.9,1.9c-1.7,0.8-3.5,1.5-5.3,2.1c-7.1,2.4-14.4,3.9-21.9,4.6c-9.7,0.9-19.5,1.1-29.3,0.4
		c-14.1-1-28.1-3.2-41.8-6.5c-12.7-2.9-25.2-6.8-37.6-10.8c-4.2-1.4-8.6-2.7-12.9-3.9c-2.5-0.7-5.1-1.2-7.7-1.6
		c-3.4-0.5-6.9-0.2-10.2,0.9c-1.4,0.4-2.7,1.1-3.9,2c-1.9,1.2-2.6,3.5-1.9,5.6c0.4,1.3,0.9,2.5,1.5,3.6c2.9,5,4.8,10.4,5.7,16.1
		c0.3,2.4,0.4,4.7,0.6,7.1c0.2,2.2,0.3,4.4,0.6,6.6c0.5,2.7,1.8,5.2,3.9,7.1c1.7,1.6,3.6,3,5.5,4.2c4.2,2.6,8.6,4.7,13.2,6.4
		c8,2.9,16.5,4.3,25,4.1c7.4-0.2,14.7-0.9,21.9-2.1c8.6-1.5,17.3-2.9,25.9-4.6c14.6-2.8,29.3-5.4,44-7.6c5.5-0.8,10.9-1.4,16.4-1.9
		c3.9-0.4,7.8-0.3,11.7,0.2c0.7,0.1,1.5,0.1,2.1,0.7c-0.1,0.9-0.9,1.4-1.5,1.9c-1.2,1.1-2.5,2.1-3.7,3.1
		c-6.9,5.6-14.3,10.5-22.3,14.4c-9.2,4.4-19,7.7-29,9.8c-14.5,3.3-29.6,3.3-44.1-0.1c-4.1-0.9-8.2-1.9-12.3-2.9
		c-5.5-1.3-11-2.6-16.5-3.8c-6.5-1.3-13.2-1.5-19.8-0.6c-2.2,0.2-4.5,0.8-6.6,1.7c-1.7,0.7-3.2,1.8-4.5,3.1
		c-0.7,0.7-1.4,1.4-1.2,2.5l0.4,0.4c0.2,0.1,0.4,0.2,0.6,0.2c5.9,1.3,11.4,4,16,8c4.4,3.7,8.2,8.1,11.3,12.9c4.2,6.6,8.9,13,14,19
		c1.1,1.4,2.3,2.6,3.6,3.8c7.9,7.2,17.5,12.3,27.9,14.7c8.2,2,16.8,1.9,24.9-0.5c2.7-0.7,5.3-1.6,7.8-2.7
		c11.4-4.8,22-11.3,31.4-19.2c5.9-4.8,11.7-9.9,17.5-14.8c5.9-5.2,12.2-9.8,18.8-13.9c2.7-1.7,5.7-3,8.8-3.8c1.6-0.5,3.3-0.6,5-0.3
		c2.5,0.5,3.8,2,3.6,4.5c-0.1,1.4-0.4,2.7-0.9,4c-1,2.7-2.5,5.1-4.3,7.3c-4,5-8.6,9.6-13.6,13.6c-6.9,5.5-14.3,10.2-22.2,14.1
		c-7.4,3.7-15,7-22.6,10.1c-6.9,2.8-13.8,5.7-20.7,8.6c-1.9,0.7-3.7,1.8-5.3,3.1c-1.2,0.9-2.2,2.2-2.6,3.7c0.1,0.5,0.3,1,0.5,1.5
		c0.3,0.4,0.6,0.9,0.9,1.3c2.8,3.5,6.3,6.5,10.2,8.7c3.7,2,7.5,3.8,11.4,5.4c10.9,4.8,22.9,6.5,34.7,5c3.9-0.4,7.9-0.9,11.8-1.5
		l25.2-2.7c1.6,0,3.2,0,4.8-0.1c3.2-0.1,6.4-0.5,9.5-1.2c12.9-2.8,23.5-9.3,32.4-18.8c8.2-8.8,13.6-19.9,15.4-31.9
		c1.2-8.2,1.7-16.4,1.7-24.7c0-3.6-0.1-7.2,0-10.8c0.1-5,0.2-9.9,0.4-14.9c0.2-4.9,1-9.7,2.4-14.4c0.2-0.6,0.2-1.3,1-1.8
		c0.5,0.7,0.8,1.5,0.9,2.3c6.3,21.1,10.8,42.6,13.4,64.5c1.1,9.7,2.3,19.4,2.3,29.2c0.1,1.6,0.7,3.2,1.7,4.4
		c1.3,1.8,3.2,2.1,4.6-0.2c0.3-0.4,0.5-0.8,0.7-1.2c0.7-1.8,1-3.7,0.8-5.6c-0.6-6.2-1.2-12.3-1.8-18.5c-2.2-23-6.5-45.8-12.8-68.1
		c-1.1-3.7-2.2-7.4-3.3-11c-0.1-0.4-0.4-0.9,0-1.4c0.8,0.3,1.5,0.8,2,1.6c1,1.3,2,2.7,2.8,4.2c1.7,3.3,3.3,6.7,4.8,10.1
		c2.4,5.6,5.3,11,8.7,16.1c3.5,5.1,8,9.5,13.1,13c8.3,5.6,17.5,9.8,27.2,12.3c4.1,1.1,8.3,1.7,12.5,1.7c8.2,0.1,15.4-2.5,21.3-8.4
		c2.8-2.5,4.9-5.7,6.2-9.2c0.1-0.3,0.2-0.5,0.4-0.8c1.2-1.7,2.2-3.5,3.4-5.2c2.6-3.9,4.7-8.1,6.2-12.5c1.4-3.8,1.9-7.9,1.4-12
		c-0.2-1.6-0.5-3.1-1-4.5c-1-2.7-2.6-3.6-5.5-3.1c-1.1,0.2-2.1,0.5-3.1,0.9c-2.3,0.9-4.7,1.8-7,2.8c-9.5,3.9-19.6,6.2-29.8,6.7
		c-2.7,0.2-5.3,0.2-8-0.2c-1.3-0.1-2.6-0.5-3.7-1.2c-2.2-1.2-3.4-3.7-2.9-6.2c0.2-1.4,0.8-2.7,1.6-3.8c1.1-1.6,2.7-2.9,4.5-3.7
		c3.1-1.5,6.5-2.4,9.9-2.8c3.8-0.6,7.6-0.8,11.4-0.7c6,0.2,11.9,0.5,17.9,0.7c4.3,0.2,8.5,0.4,12.8,0.5c2.5,0,5.1-0.3,7.5-0.9
		c4.2-1,7.9-3.3,10.8-6.5c3.4-3.6,5.3-8.3,5.3-13.3c0-2.7-0.2-5.5-0.4-8.2c-0.3-2.8-0.1-5.7,0.6-8.4c0.4-1.5,0.8-3.1,1.2-4.6
		c0.7-2.7,1.5-5.4,2.1-8.2c0.7-3,1.1-6,1.1-9.1C438.7,280.2,438.4,278.1,437.8,276z M341.8,145.8c0.2,9.7-0.7,19.4-2.9,28.9
		c-1.8,7.7-3.4,15.5-5.8,23.1c-1,3.2-2.1,6.4-3.3,9.5c-2.9,7.4-7.3,14.2-12.8,19.9c-1.1,1.2-2.3,2.4-3.5,3.6
		c-1.6,1.5-3.3,2.7-5.3,3.6c-1.2,0.6-2.6,0.9-4,0.8c-2.2-0.1-4-1.5-4.6-3.6c-0.3-1.2-0.5-2.5-0.6-3.8c-0.1-2.3,0.2-4.6,0.8-6.8
		c1.1-4.7,2.6-9.2,4.4-13.6c3.6-8.7,7.7-17.3,12.4-25.5c3.8-6.7,7.6-13.5,11.1-20.3c2.6-5,4.9-10.1,7.2-15.3
		c2.2-5.1,3.9-10.4,5-15.9c0.1-0.4,0.3-0.9,0.4-1.4l0.4,0.1c0,0.8,0.2,1.6,0.5,2.3C341.4,136.2,341.7,141,341.8,145.8z"/>
	<path d="M184.5,216.8c-1,0.1-1.8,0.3-2.8,0.5c0,0-0.1,0-0.1,0c0.1,0,0.2,0,0.3,0c0.6,0,1.3,0.1,1.9,0.1c6.1-0.3,12.2-0.3,18.4,0.1
		c0-0.2,0-0.5,0-0.7C196.3,216.5,190.4,216.5,184.5,216.8z M437.8,276c-0.4-1.5-1.1-2.9-2-4.1c-1.6-2.4-4.5-3.6-7.4-3.1
		c-1.9,0.3-3.7,0.9-5.4,1.9c-3.2,2-6.3,4.3-9,7c-7.9,7.1-16.3,13.6-25,19.6c-4,2.8-8.1,5.4-12.4,7.8c-4.4,2.5-9,4.4-13.9,5.8
		c-1.6,0.4-3.3,0.7-5,0.8c-1.6,0.1-3.3-0.4-4.5-1.5c-0.6-1.6,0.1-2.7,0.8-3.8c1.6-2.1,3.4-4.1,5.5-5.8c4-3.4,8.2-6.4,12.8-8.9
		c6.3-3.4,12.7-6.7,19-10.1c4.7-2.4,9.2-5.1,13.5-8.1c3.7-2.8,7.4-5.5,10.9-8.4c3.4-2.7,6.5-5.8,9.3-9.1
		c6.9-7.8,10.7-17.9,10.8-28.3v-1.6c0-4.6,0.2-9.3,0.8-13.9c0.3-2.5,0.4-5,0.5-7.5c0.1-3.7-0.7-7.5-2.2-10.9
		c-2.5-5.7-6-10.9-10.4-15.4c-3-3.2-6.9-5.3-11.1-6.1c-4.6-1-9.3,0.6-12.2,4.2c-2,2.3-3.7,4.7-5.2,7.3c-4.2,7-8,14.2-11.3,21.7
		c-3,6.4-5.9,12.9-9,19.3c-3.4,7.2-7.8,13.9-13,19.9c-4.7,5.3-9.9,10.1-15.6,14.4l-0.9,0.6c-1.5,0.9-3.2,1.4-5,1.3
		c-2.3-0.2-3.4-1.5-3-3.7c0.2-1.2,0.7-2.5,1.3-3.6c1.5-2.6,3.1-5.2,4.9-7.7c3.4-4.9,7.5-9.2,11.4-13.7c6.3-7.1,12.6-14.3,18.1-22.1
		c4.8-6.5,9-13.3,12.7-20.4c3.8-7.4,6.8-15.2,9-23.2c1.1-4.5,1.9-9,2.2-13.6c0.4-5-0.1-10.1-1.5-15c-0.6-2.3-2-4.4-4-5.7
		c-3.9-2.7-7.1-6.4-9.3-10.6c-2.7-5.1-5.2-10.2-7.7-15.4c-1.5-3-3.3-5.8-5.5-8.4c-2.4-2.8-5.3-5.1-8.6-6.7c-1.9-1-3.9-1.5-6-1.5
		c-9.1,0.2-17.1,3.1-23.6,9.6c-0.2,0.2-0.5,0.4-0.8,0.7c-2.2-0.9-4.3-1.9-6.3-3.2c-0.6-0.4-1.1-0.9-1.5-1.4
		c-1.3-1.6-2.2-3.5-2.6-5.5c-0.6-2.5-1-5-1.5-7.6c-0.5-3.3-1.3-6.6-2.3-9.8c-1.1-3.2-2.8-6.2-5-8.7c-2.2-2.5-5.2-4.1-8.5-4.5
		c-3.3-0.4-6.7-0.2-10,0.6c-6.4,1.6-10.5,5.6-12.1,12.1c-0.8,3.3-0.8,6.8-0.1,10.2c0.6,2.7,1.3,5.5,2.1,8.2
		c2.9,10.1,4.6,20.3,5.2,30.7c1,12.7-0.5,25.4-4.2,37.6c-2.7,8.9-6,17.6-9.6,26.2c-2.3,5.4-5.1,10.6-8.5,15.4
		c-1.1,1.7-2.6,3-4.4,3.9c-3,1.6-6.7,0.5-8.4-2.5c-0.6-1-1.2-2.1-1.7-3.2c-2.5-5.6-3-11.6-2.3-17.7c0.7-4.9,2.2-9.7,4.4-14.1
		c2.7-6,5.8-11.8,9.2-17.4c3.4-5.6,6.5-11.4,9.3-17.4c3.1-6.8,5.4-13.9,6.7-21.2c0.6-2.7,0.9-5.6,0.9-8.4c0-3.6-0.9-7.1-2.8-10.2
		c-2.5-4-5.5-7.7-9-10.9c-2.7-2.7-6.4-4.1-10.2-3.8c-6.1,0.2-12.2-1-17.8-3.6c-0.6-0.3-1.3-0.6-1.9-0.8c-0.7-0.3-1.6-0.2-2.1,0.4
		c-0.4,0.7-0.4,1.6,0,2.4c0.3,1.2,0.7,2.3,1.1,3.5c1.9,5.3,3.1,10.8,3.7,16.3c0.9,8.4,1.2,16.9,0.8,25.4c-0.2,4.6-0.9,9.3-1.9,13.8
		c-0.5,2.6-1.5,5-2.7,7.3c-1,1.8-2.4,3.3-4.1,4.5c-3.7,2.4-7.9,1.3-9.9-1.7c-0.5-0.9-1-1.7-1.5-2.6c-3-6.2-4.3-13.2-3.8-20.2
		c0.3-4.7,1.2-9.3,2.7-13.7c1.4-4.4,2.9-8.7,4.3-13.1c0.8-2.5,1.6-5,2.2-7.5c1.2-4.6,1.2-9.5,0-14.1c-2.2-8.5-6.8-15-14.9-18.9
		c-1.5-0.7-2.9-1.9-3.9-3.3c-1.1-1.6-2.2-3.1-3.3-4.7c-3.5-5.2-8-9.7-13.2-13.2c-3.4-2.3-6.9-4.3-10.6-6c-2.8-1.4-5.7-2.8-8.4-4.3
		c-6.2-3.4-11.9-7.8-16.6-13.1c-2.5-2.8-5-5.7-7.5-8.6c-0.6-0.7-1-1.6-2.1-1.8c-0.6,1-1.1,2.1-1.4,3.3c-0.9,2.7-1.6,5.4-2.5,8.1
		c-2.5,7.7-6.2,14.9-11,21.3c-6.9,9.2-14.4,17.8-22.1,26.3c-3.6,4-7.2,8.1-10.4,12.4c-3.2,4.1-5.5,8.8-6.9,13.8
		c-1.7,5.7-1.2,11.7,1.4,17c0.9,1.9,1.8,3.7,2.8,5.5c1.9,3.6,3.8,7.2,5.6,10.8c2.4,5.1,4.1,10.5,5.1,16.1c0.5,2.8,1.1,5.6,1.8,8.3
		c0.7,2.9,2.3,5.6,4.5,7.6c1.9,1.8,4.2,3.2,6.6,4.1c2.4,0.9,4.9,1.7,7.4,2.4c3.5,1,7.1,2,10.6,3c8.7,2.7,16.9,6.6,24.5,11.7
		c4.2,2.7,7.9,6,10.9,9.9c4.2,5.6,7,12.1,8.1,19c0.6,3.7,0.1,7.5-1.3,11c-0.8,2.1-2.2,3.9-4.1,5.1c-3,1.9-6.5,2.8-10,2.6
		c-4.5-0.1-8.8-1.6-12.4-4.3c-2.3-1.8-4.5-3.7-6.6-5.7c-4.7-4.5-9.5-9.3-14.1-13.7c-4.6-4.4-9.1-9-13.4-13.8l-11.4-12.9
		c-5.8-6.5-12.2-12.6-19-18.2c-4.8-4-10.1-7.2-15.8-9.7c-3.3-1.5-6.9-2.1-10.5-2c-1.6,0.1-3.2,0.5-4.6,1.2c-1.8,0.9-3.1,2.6-3.4,4.6
		c-0.2,1.1-0.2,2.1-0.2,3.2c0,1.5,0.1,3.1,0.2,4.6c0.1,2.5-0.7,5-2.2,7c-3.9,5.2-6.8,11.1-8.7,17.3c-0.6,1.8-0.9,3.6-1.1,5.4
		c-0.5,5.6,0.3,11.3,2.4,16.6c3.6,8.4,9.2,15.8,16.4,21.4c5.8,4.4,12.3,7.9,19.1,10.4c6.6,2.5,13.5,4.1,20.5,4.7
		c6.2,0.5,12.5,1,18.7,1.4c12.4,0.8,24.8,2.4,37,4.9c5.1,1.1,10.2,2.5,15.2,4.2c5.6,2,10.8,5,15.3,8.7c1.5,1.2,2.7,2.8,3.3,4.6
		c0.9,2.9-0.2,6.2-2.8,7.8c-2.1,1.4-4.4,2.3-6.8,2.8c-2.8,0.6-5.7,1-8.6,1.1c-4.4,0.1-8.8-0.1-13.1-0.5c-3.8-0.3-7.6-0.7-11.4-1.1
		c-7.1-0.7-14.1-1.7-21.1-3.1c-15.3-2.9-30.1-8-44-15.2c-5.7-3-11.3-6.3-16.8-9.8c-8.3-5.3-16.7-10.2-25.3-14.9
		c-4.2-2.2-8.6-4-13.2-5.2c-1-0.3-2-0.5-3.1-0.6c-1.9-0.2-3.7,0.4-5.1,1.6c-1.2,1.1-2.1,2.4-2.7,3.9c-0.9,2.3-1.3,4.7-1.3,7.2
		c0.1,2.6,0.2,5.2,0.5,7.8c0.2,2.5,0.7,4.9,1,7.3c0.4,2.7,0.3,5.5-0.3,8.2c-0.4,1.7-0.7,3.5-0.9,5.2c-0.7,5,0.2,10.1,2.6,14.6
		c2.7,5.1,6.5,9.6,11.2,13.1c2.4,1.6,4.9,3.1,7.5,4.4c7.7,4.3,16,7.5,24.5,9.6c12.6,3.2,25.3,5.4,38.2,6.4c4.5,0.3,9,0.7,13.5,0.8
		c12.8,0.4,25.5,0.8,38.3,1c11.7,0.2,23.4,0.1,35.1,0.8c2.4,0.1,4.7,0.3,7.1,0.5c0.5,0.1,1,0.2,1.5,0.4c0,0.8-0.3,1.6-1,2.1
		c-0.9,0.7-1.9,1.4-2.9,1.9c-1.7,0.8-3.5,1.5-5.3,2.1c-7.1,2.4-14.4,3.9-21.9,4.6c-9.7,0.9-19.5,1.1-29.3,0.4
		c-14.1-1-28.1-3.2-41.8-6.5c-12.7-2.9-25.2-6.8-37.6-10.8c-4.2-1.4-8.6-2.7-12.9-3.9c-2.5-0.7-5.1-1.2-7.7-1.6
		c-3.4-0.5-6.9-0.2-10.2,0.9c-1.4,0.4-2.7,1.1-3.9,2c-1.9,1.2-2.6,3.5-1.9,5.6c0.4,1.3,0.9,2.5,1.5,3.6c2.9,5,4.8,10.4,5.7,16.1
		c0.3,2.4,0.4,4.7,0.6,7.1c0.2,2.2,0.3,4.4,0.6,6.6c0.5,2.7,1.8,5.2,3.9,7.1c1.7,1.6,3.6,3,5.5,4.2c4.2,2.6,8.6,4.7,13.2,6.4
		c8,2.9,16.5,4.3,25,4.1c7.4-0.2,14.7-0.9,21.9-2.1c8.6-1.5,17.3-2.9,25.9-4.6c14.6-2.8,29.3-5.4,44-7.6c5.5-0.8,10.9-1.4,16.4-1.9
		c3.9-0.4,7.8-0.3,11.7,0.2c0.7,0.1,1.5,0.1,2.1,0.7c-0.1,0.9-0.9,1.4-1.5,1.9c-1.2,1.1-2.5,2.1-3.7,3.1
		c-6.9,5.6-14.3,10.5-22.3,14.4c-9.2,4.4-19,7.7-29,9.8c-14.5,3.3-29.6,3.3-44.1-0.1c-4.1-0.9-8.2-1.9-12.3-2.9
		c-5.5-1.3-11-2.6-16.5-3.8c-6.5-1.3-13.2-1.5-19.8-0.6c-2.2,0.2-4.5,0.8-6.6,1.7c-1.7,0.7-3.2,1.8-4.5,3.1
		c-0.7,0.7-1.4,1.4-1.2,2.5l0.4,0.4c0.2,0.1,0.4,0.2,0.6,0.2c5.9,1.3,11.4,4,16,8c4.4,3.7,8.2,8.1,11.3,12.9c4.2,6.6,8.9,13,14,19
		c1.1,1.4,2.3,2.6,3.6,3.8c7.9,7.2,17.5,12.3,27.9,14.7c8.2,2,16.8,1.9,24.9-0.5c2.7-0.7,5.3-1.6,7.8-2.7
		c11.4-4.8,22-11.3,31.4-19.2c5.9-4.8,11.7-9.9,17.5-14.8c5.9-5.2,12.2-9.8,18.8-13.9c2.7-1.7,5.7-3,8.8-3.8c1.6-0.5,3.3-0.6,5-0.3
		c2.5,0.5,3.8,2,3.6,4.5c-0.1,1.4-0.4,2.7-0.9,4c-1,2.7-2.5,5.1-4.3,7.3c-4,5-8.6,9.6-13.6,13.6c-6.9,5.5-14.3,10.2-22.2,14.1
		c-7.4,3.7-15,7-22.6,10.1c-6.9,2.8-13.8,5.7-20.7,8.6c-1.9,0.7-3.7,1.8-5.3,3.1c-1.2,0.9-2.2,2.2-2.6,3.7c0.1,0.5,0.3,1,0.5,1.5
		c0.3,0.4,0.6,0.9,0.9,1.3c2.8,3.5,6.3,6.5,10.2,8.7c3.7,2,7.5,3.8,11.4,5.4c10.9,4.8,22.9,6.5,34.7,5c3.9-0.4,7.9-0.9,11.8-1.5
		l25.2-2.7c1.6,0,3.2,0,4.8-0.1c3.2-0.1,6.4-0.5,9.5-1.2c12.9-2.8,23.5-9.3,32.4-18.8c8.2-8.8,13.6-19.9,15.4-31.9
		c1.2-8.2,1.7-16.4,1.7-24.7c0-3.6-0.1-7.2,0-10.8c0.1-5,0.2-9.9,0.4-14.9c0.2-4.9,1-9.7,2.4-14.4c0.2-0.6,0.2-1.3,1-1.8
		c0.5,0.7,0.8,1.5,0.9,2.3c6.3,21.1,10.8,42.6,13.4,64.5c1.1,9.7,2.3,19.4,2.3,29.2c0.1,1.6,0.7,3.2,1.7,4.4
		c1.3,1.8,3.2,2.1,4.6-0.2c0.3-0.4,0.5-0.8,0.7-1.2c0.7-1.8,1-3.7,0.8-5.6c-0.6-6.2-1.2-12.3-1.8-18.5c-2.2-23-6.5-45.8-12.8-68.1
		c-1.1-3.7-2.2-7.4-3.3-11c-0.1-0.4-0.4-0.9,0-1.4c0.8,0.3,1.5,0.8,2,1.6c1,1.3,2,2.7,2.8,4.2c1.7,3.3,3.3,6.7,4.8,10.1
		c2.4,5.6,5.3,11,8.7,16.1c3.5,5.1,8,9.5,13.1,13c8.3,5.6,17.5,9.8,27.2,12.3c4.1,1.1,8.3,1.7,12.5,1.7c8.2,0.1,15.4-2.5,21.3-8.4
		c2.8-2.5,4.9-5.7,6.2-9.2c0.1-0.3,0.2-0.5,0.4-0.8c1.2-1.7,2.2-3.5,3.4-5.2c2.6-3.9,4.7-8.1,6.2-12.5c1.4-3.8,1.9-7.9,1.4-12
		c-0.2-1.6-0.5-3.1-1-4.5c-1-2.7-2.6-3.6-5.5-3.1c-1.1,0.2-2.1,0.5-3.1,0.9c-2.3,0.9-4.7,1.8-7,2.8c-9.5,3.9-19.6,6.2-29.8,6.7
		c-2.7,0.2-5.3,0.2-8-0.2c-1.3-0.1-2.6-0.5-3.7-1.2c-2.2-1.2-3.4-3.7-2.9-6.2c0.2-1.4,0.8-2.7,1.6-3.8c1.1-1.6,2.7-2.9,4.5-3.7
		c3.1-1.5,6.5-2.4,9.9-2.8c3.8-0.6,7.6-0.8,11.4-0.7c6,0.2,11.9,0.5,17.9,0.7c4.3,0.2,8.5,0.4,12.8,0.5c2.5,0,5.1-0.3,7.5-0.9
		c4.2-1,7.9-3.3,10.8-6.5c3.4-3.6,5.3-8.3,5.3-13.3c0-2.7-0.2-5.5-0.4-8.2c-0.3-2.8-0.1-5.7,0.6-8.4c0.4-1.5,0.8-3.1,1.2-4.6
		c0.7-2.7,1.5-5.4,2.1-8.2c0.7-3,1.1-6,1.1-9.1C438.7,280.2,438.4,278.1,437.8,276z M361.2,313.1c3.9-0.9,7.6-2.2,11.2-3.9
		c4.7-2.2,9.2-4.8,13.5-7.7c8-5.2,15.5-10.9,22.9-16.8c3.4-2.7,6.6-5.7,9.9-8.5c1.6-1.3,3.3-2.5,5-3.7c1.3-0.9,2.8-1.5,4.4-1.8
		c3.5-0.8,6,0.3,7.8,3.3c0.3,0.6,0.6,1.1,0.8,1.7c0.1,0.6,0.3,1.1,0.4,1.7c-1.1,1.3-2.2,2.5-3.4,3.7c-4,4-8.2,7.8-12.6,11.3
		c-7.3,5.7-15.4,10.3-24,13.7c-14.4,5.9-29.3,10.7-44.4,14.3c-7.7,1.9-15.5,3.7-23.2,6.1c-7.2,2.1-14.2,5-20.8,8.6
		c-1.9,1.1-3.7,2.3-5.5,3.4l-1.8,1.1c-0.4-1-0.7-1.7-0.9-2.3c1.3-1.8,8-6.8,12.7-9.8c11.9-7.6,25.1-13,38.9-15.9
		c0.2,0.1,0.3,0.1,0.5,0.2C355.3,313.6,358.2,313.7,361.2,313.1z M435,218.9c-0.1,2.9-0.2,5.7-0.2,8.5c-0.1,11.7-4.5,21.7-12.4,30.2
		c-2.7,2.9-5.6,5.6-8.7,8.1c-6.4,5.4-13.3,10-20.7,13.9c-1.9,0.9-3.8,1.6-5.7,2.4c-12,4.7-23.7,10-35.3,15.7
		c-5.9,2.9-11.8,5.8-17.6,8.9c-4.2,2.3-8.3,4.7-12.4,7.3c-3.1,2-6.1,4.1-9,6.3c-4.2,3.2-8.2,6.7-11.8,10.5c-0.2,0.3-0.4,0.5-0.4,0.7
		c1.6-1.4,3.3-2.9,5.2-4.3c2.8-2.4,5.5-4.7,8.3-6.9c5.3-4,10.9-7.6,16.7-10.8c15.4-8.4,31.3-15.9,47.4-22.8c1.2-0.5,2.4-0.9,3.7-1.1
		c-1.1,0.6-2.2,1.2-3.3,1.8c-4.5,2.3-8.9,4.9-13.2,7.7c-4,2.7-7.7,5.8-10.9,9.4l-0.1,0.2c-1.7,1.6-2.6,3.9-2.5,6.3
		c-3.2,0.8-6.2,1.5-9.3,2.5c-3.1,1-6,1.9-9.1,3.1c-3.1,1.2-6.1,2.6-9,4c-2.9,1.4-5.6,3-8.4,4.6c-2.8,1.6-5.5,3.4-8.1,5.2
		c-2.6,1.8-5.1,3.8-7.7,5.8c-0.7-0.7-1-1.6-1.1-2.5l1.4-2.2l-1.1,1c-0.1,0-0.3,0.1-0.4,0.1c-0.3-0.3-0.5-0.6-0.7-1
		c-0.4-1-0.7-2-1.1-3.1c0.2-0.4,0.5-0.9,0.8-1.3c3.3-3.9,6.9-7.6,10.7-11c2.3-2.1,4.6-4.1,6.9-6.1c4.2-3.5,8.7-6.7,13.5-9.4
		c7.6-4.5,15.3-8.8,23-13.2c8-4.6,16.1-9,24.1-13.6c7.7-4.2,15.2-8.9,22.3-14c10.3-7.8,19.4-17.1,27-27.6c3.2-4.1,5.9-8.5,8.2-13.2
		c0.1-0.4,0.3-0.7,0.5-1C435.2,218.1,435,218.6,435,218.9z M432.9,192.5c2.1,4,3.2,8.5,3.1,13c-0.1,2.4-0.3,4.9-0.6,7.3
		c-0.2,1.2-0.5,2.3-1,3.3c-2.5,5.7-5.7,11.1-9.5,16.1c-4.5,6.2-9.6,12-15.1,17.4c-5,4.9-10.4,9.2-16.2,13.1
		c-7.2,4.8-14.8,9.1-22.4,13.3c-5.6,3.1-11.1,6.4-16.7,9.5c-5.7,3.3-11.4,6.5-17.1,9.7c-8.6,4.8-16.9,10-24.3,16.4
		c-5.3,4.5-10.3,9.4-14.8,14.7c-0.3,0.4-0.7,0.7-1.2,1.2c-0.6-0.9-1-1.9-1.2-2.9c0.1-0.4,0.4-0.7,0.6-1.1c3.4-4.2,7-8.1,10.9-11.8
		c2.8-2.7,5.6-5.2,8.4-7.8c2.1-1.9,4.2-3.7,6.4-5.5c8.4-7,17.2-13.5,26.3-19.5c9.8-6.5,19.5-13,28.7-20.2
		c5.7-4.5,11.2-9.2,16.6-14.1c5.8-5.3,11.4-11,16.5-17.1c7.9-9,14.3-19.3,18.9-30.4c0.6-1.5,1.2-3.1,1.8-4.7c0.3-0.5,0.5-1,0.8-1.5
		C432.2,191.4,432.6,191.9,432.9,192.5z M414.9,174.3c0.5,0.1,1,0.2,1.5,0.3c3.1,1.2,5.9,3.1,8.2,5.6c2.3,2.6,4.5,5.4,6.3,8.4
		c0.1,0.3,0.2,0.5,0.3,0.8c-0.3,0.8-0.5,1.6-0.8,2.5c-3.9,10.9-9.5,21.1-16.7,30.1c-5,6.5-10.6,12.7-16.6,18.3
		c-3.6,3.4-7.3,6.7-11,10c-7.4,6.4-15.1,12.4-23.2,17.9c-4,2.8-8.2,5.5-12.2,8.2c-6.9,4.7-13.8,9.4-20.4,14.5
		c-5.7,4.4-11.2,9-16.5,13.8c-6.1,5.5-12.2,11.1-17.2,17.7c-0.3,0.4-0.7,0.8-1.1,1.1l-1-2.4c0.3-0.5,0.5-1,0.8-1.4
		c3.6-5.1,7.6-10,12-14.4c7.6-7.6,15.7-14.8,24.1-21.5c7.7-6.2,15.4-12.3,23.1-18.5c5.8-4.7,11.5-9.4,16.9-14.5
		c8.9-8.6,16.6-18.4,23-29c8.2-13.3,14.6-27.7,18.9-42.8c0.4-1.4,0.9-2.8,1.3-4.2C414.7,174.6,414.8,174.5,414.9,174.3z
		 M341.8,262.6c2.3-0.1,4.5-1,6.3-2.4c11.7-8.3,21.2-19.3,27.8-32c3.3-6.4,6.3-12.9,9.2-19.5c3.6-8.3,7.7-16.4,12.4-24.2
		c1.6-2.8,3.5-5.4,5.7-7.7c2.9-2.9,6.4-3.6,10.6-2.8c-0.1,0.7-0.2,1.2-0.3,1.6c-5.6,21.1-15.3,41-28.3,58.6
		c-4.5,6-9.6,11.7-15.1,16.8c-5.3,4.9-10.8,9.5-16.4,14c-8,6.4-16.1,12.7-24,19.2c-6.1,5-12,10.1-17.7,15.6
		c-6.2,5.9-12,12-16.7,19.1c-0.3,0.4-0.6,0.7-0.9,1c-0.9-1-0.9-1-1.7-3.2c0.4-0.8,0.9-1.7,1.5-2.6c4.7-7.3,9.8-14.2,15.4-20.8
		c4.8-5.9,10.1-11.4,15.6-16.7c5-4.8,10.2-9.5,15.6-13.8C341.2,262.7,341.5,262.6,341.8,262.6z M338.7,253.6
		c-0.5,1.1-0.9,2.4-1.3,3.6c-0.4,1.9-0.1,3.7,1.8,4.8c0.2,0.2,0.5,0.4,0.7,0.7c-1.9,1.6-3.6,3.2-5.4,4.7
		c-15.2,12.8-28.4,27.7-39.4,44.3c-0.6,0.9-1.2,1.9-1.8,2.9c-0.3,0.3-0.6,0.7-0.9,1c-1-1.8-1.9-3.7-2.6-5.6c0.3-0.7,0.6-1.4,0.9-2.2
		c3.6-8,8.3-15.4,13.8-22.1c4.9-6.2,10.2-12.1,16-17.6c4.3-4.1,8.8-7.9,13.3-11.9c1-0.9,2.1-1.8,3.1-2.7c0.7-0.6,1.4-1,2.4-1.8
		C338.9,252.6,338.7,253.1,338.7,253.6z M333.6,100c1.5-1.6,3.2-2.9,5.1-3.9c2.8-1.7,5.9-3,9.1-3.8c0.4,0.4,0.7,0.8,1,1.2
		c4.2,7.2,7,15,8.2,23.2c1.2,7.8,1.4,15.8,0.5,23.7c-1.4,13.5-4.3,26.7-8.5,39.6c-5,15.7-11.3,30.8-19.1,45.3
		c-5.4,9.8-11.7,19.1-18.7,27.9c-4.4,5.7-8.9,11.2-13.3,16.9c-5.4,6.9-9.6,14.6-12.5,22.8c-0.2,0.8-0.4,1.6-0.5,2.4
		c0.2-0.3,0.5-0.7,0.5-1c3.5-10.1,9-19,15.6-27.3c5-6.3,10-12.5,14.9-18.9c9.7-12.8,17.6-26.7,23.8-41.4c6.4-14.6,11.4-29.7,15-45.2
		c1.9-8.2,3.2-16.6,3.8-25.1c0.8-10.6-0.5-21.3-3.8-31.4c-1.3-4-3-7.8-5.2-11.4c-0.2-0.5-0.4-0.9-0.5-1.4c0.5-0.2,0.9-0.3,1.4-0.4
		c2.1-0.4,4.1-0.4,6.2-0.2c1.8,0.1,3.6,0.7,5.2,1.6c4.4,2.5,8.1,6.1,10.6,10.5c1.6,2.7,2.9,5.4,4.2,8.2c0.3,0.9,0.6,1.9,0.6,2.9
		c0.7,7.7,0.5,15.6-0.5,23.3c-1.2,9.2-3.4,18.3-6.5,27.1c-9.2,26.2-22.3,50.9-38.8,73.2c-4.8,6.5-10.2,12.7-15.6,18.8
		c-5.7,6.3-10.9,13-15.8,19.9c-4.4,6.7-8.3,13.8-11.6,21.2c-0.3,0.8-0.5,1.5-0.7,2.3l0.1-0.1l0,0.1c0.3-0.4,0.5-0.7,0.7-1.2
		c5.9-13.2,13.7-25.4,23.2-36.3c5.2-6.1,10.5-12.1,15.6-18.3c9.1-11.3,17.1-23.4,24-36.2c7.9-14.1,14.5-28.8,19.8-44
		c3.3-9.6,5.6-19.6,6.6-29.7c0.5-5.5,0.7-11,0.4-16.5c-0.2-0.8-0.1-1.7,0.2-2.5c0.4,0.7,0.8,1.2,1,1.7c1.6,3.5,3.6,6.9,6,10
		c1.8,2.3,3.9,4.4,6.3,6c1.9,1.2,3.2,3.1,3.7,5.3c1.2,4.6,1.7,9.4,1.4,14.1c-0.3,4.4-0.9,8.7-2,12.9c-1.4,5.4-3.2,10.7-5.4,15.8
		c-4.4,10-9.9,19.4-16.4,28.2c-5.3,7.2-11,13.9-16.8,20.6c-4,4.5-8.1,8.9-11.7,13.8c0,0.1-0.1,0.1-0.1,0.2c-2,3.5-5,6.1-8,8.7
		c-2.4,2.1-4.9,4.1-7.3,6.2c-11.9,10.1-22.5,21.7-31.4,34.6c-2.7,4.1-5.1,8.3-7.1,12.8c-0.2,0.6-0.3,1.3-1.1,1.6
		c-0.1-0.2-0.3-0.3-0.4-0.5c-0.7-1.4-1.3-2.9-1.9-4.2l0.7-3.1c0,0,0,0.1-0.1,0.1c0,0,0-0.1,0-0.1l-1.1,1.7c-1.2-1.2-1.5-2.7-2.2-4
		c0.2-1.1,0.4-2.1,0.5-3l-1.3,1.4c-0.9-1.5-1.7-3.1-2.4-4.7c1.2-11.9,14.5-43,23.5-55.3c4.3-0.6,7.6-3.2,10.6-6.2
		c2.6-2.5,5.1-5.3,7.3-8.2c3.6-4.7,6.4-9.9,8.5-15.4c2-5.2,3.6-10.6,5-16c0.9-3.4,1.7-6.8,2.5-10.2c0.5-2,1.1-4.1,1.5-6.2
		c0.6-3.5,1.2-7,1.7-10.6c1.1-9.5,1.3-19.2,0.5-28.8c-0.4-6.2-1-12.5-1.6-18.7c-0.4-4.6-2.2-9-5.3-12.4c-0.8-0.9-1.7-1.7-2.7-2.7
		C333,100.9,333.3,100.4,333.6,100z M300.4,235.2c1,0.7,2.1,1.3,3.2,1.7c0.1,0.9-0.6,1.5-1,2.2c-4.9,8-9.3,16.5-13,25.2
		c-3.3,7.8-6,15.8-8,23.9c-0.2,0.6-0.4,1.3-0.6,1.9l-0.5,0.1c-2-3.6-3.8-7.3-5.8-11.1c3-11.5,7.5-22.5,13.5-32.8
		c4-6.9,7.9-12.7,9.7-14C298.6,233.3,299.5,234.3,300.4,235.2z M299.8,221c1.1-4.7,2.6-9.2,4.4-13.6c3.6-8.7,7.7-17.3,12.4-25.5
		c3.8-6.7,7.6-13.5,11.1-20.3c2.6-5,4.9-10.1,7.2-15.3c2.2-5.1,3.9-10.4,5-15.9c0.1-0.4,0.3-0.9,0.4-1.4l0.4,0.1
		c0,0.8,0.2,1.6,0.5,2.3c0.2,4.8,0.5,9.6,0.6,14.4c0.2,9.7-0.7,19.4-2.9,28.9c-1.8,7.7-3.4,15.5-5.8,23.1c-1,3.2-2.1,6.4-3.3,9.5
		c-2.9,7.4-7.3,14.2-12.8,19.9c-1.1,1.2-2.3,2.4-3.5,3.6c-1.6,1.5-3.3,2.7-5.3,3.6c-1.2,0.6-2.6,0.9-4,0.8c-2.2-0.1-4-1.5-4.6-3.6
		c-0.3-1.2-0.5-2.5-0.6-3.8C298.9,225.5,299.2,223.2,299.8,221z M294.9,61.5c3-0.6,6.2-0.8,9.3-0.3c2.4,0.4,4.7,1.5,6.4,3.3
		c0.7,0.7,1.3,1.5,1.7,2.4c1.8,3.6,2.6,7.6,2.3,11.6c-0.1,1.8-0.4,3.6-0.6,5.4c-0.4,2.5-0.9,5-1.1,7.5c-0.2,2.3-0.3,4.6-0.2,6.9
		c0,2.8,0.8,5.5,2.1,7.9c0.4,0.6,0.7,1.2,1,1.9c-0.1,1.2-0.3,2.5-0.5,3.8c-2.4,14.4-6.3,28.6-11.5,42.2
		c-3.9,10.1-8.1,19.9-12.5,29.8c-7.6,17-15.7,33.8-23.9,50.5c-2.8,5.3-5.1,10.7-7.2,16.3c-0.2,0.8-0.4,1.7-0.6,2.6
		c0.2-0.3,0.4-0.5,0.5-0.8c2.6-7.1,5.7-14,9.2-20.7c10.4-20.9,20.2-42,29.3-63.4c4.3-9.9,8-20,11.1-30.3c2.6-8.9,4.7-18,6.2-27.2
		c0-0.6,0.2-1.2,0.4-1.9c0.3,0.1,0.6,0.3,0.9,0.5c2.3,1.9,5.1,3.2,8,3.8c1.9,0.4,3.7,0.8,5.6,1.2c0.6,0.2,1.2,0.4,1.8,0.6
		c0.2,0.9,0.2,1.8-0.1,2.7c-1.3,7.2-3.3,14.4-6,21.3c-3.9,9.9-8.5,19.6-13.8,28.9c-6.5,11.8-13.7,23.3-20.9,34.7
		c-8.1,12.6-15.2,25.8-21.3,39.5c-2.1,4.7-3.9,9.5-5.2,14.4c-0.2,0.7-0.3,1.5-0.3,2.2c0.2-0.4,0.4-0.9,0.5-1.3c1.3-4.7,3-9.3,5-13.8
		c6.2-14,13.4-27.4,21.6-40.3c6.7-10.8,13.6-21.6,19.8-32.7c4.9-8.6,9.4-17.5,13.3-26.6c3.7-8.6,6.4-17.7,8.1-26.9
		c0.1-0.5,0.3-1,0.4-1.7c1.8,0.1,3.4,1.3,4.1,2.9c1.3,2.5,1.8,5.3,1.4,8c-0.5,3.2-1.2,6.3-2,9.4c-1.5,5.3-3.4,10.4-5.8,15.4
		c-3.8,8.5-8.3,16.5-12.8,24.6c-4.8,8.2-9.1,16.6-13,25.2c-1.7,3.7-3.1,7.4-4.6,11.2c-0.5,1.2-1.1,2.4-1.9,3.4
		c-6.8,9.2-13.2,18.7-19.1,28.5c-4.1,6.8-7.4,13.9-9.9,21.4c-0.2,0.8-0.4,1.6-0.5,2.4c0.2-0.3,0.4-0.7,0.5-1
		c3.2-9.4,7.5-18.4,12.9-26.7c4.5-7.4,9.4-14.4,14.5-21.4c0.4-0.4,0.8-0.9,1.2-1.3c0,0,0.1,0,0.3,0c-0.5,2.2-1.1,4.3-1.3,6.5
		s-0.2,4.4-0.3,7c-2.2,3.3-4.7,6.8-7.1,10.6c-2.4,3.8-4.6,7.7-6.5,11.6c-1.9,3.9-3.7,7.8-5.2,11.9c-1.5,4.1-2.8,8.3-4.3,12.7
		c-1.3-1-1.7-2.5-2.5-3.8s-1.5-2.6-2.3-4l0.1-2.1v-0.1l-0.7,1.1l-4.1-6.5c0.2-1.3,0.3-2.4,0.5-3.5l-1,2c-1.1-0.7-1.1-0.7-2.4-2.8
		c-0.6-1-1.3-2-2-3.1v-1.7l-0.6,0.3c-2.3-2.4-4.3-5.1-5.8-8c0.7-1.6,1.3-3.4,2.1-5.1c4.3-9.8,9.2-19.2,14.7-28.3
		c4.4-7.3,8.6-14.6,12.4-22.2c9-18.1,14.5-37.8,16.3-57.9c1.5-14.8,1.6-29.6,0.2-44.4c-0.6-7-1.9-13.8-3.8-20.5
		c-0.5-1.6-1.1-3.3-1.7-5.1C294.1,61.8,294.5,61.7,294.9,61.5z M261.8,207.3c0.5-0.8,1.2-1.6,2-2.1c1.1-0.8,2-1.8,2.8-2.9
		c5.4-7.5,9.7-15.8,12.7-24.5c1.5-4.2,3.1-8.5,4.6-12.7c5.7-15.8,7.6-32.6,5.7-49.2c-0.9-8.6-2.5-17.1-4.8-25.4
		c-0.8-2.7-1.5-5.4-2.1-8.2c-0.9-3.7-0.7-7.5,0.5-11.1c1.2-4.2,4.4-7.5,8.5-9c0.2-0.1,0.4-0.1,0.6-0.1c0.6,0.5,0.9,1.2,1.1,2
		c1.6,4.7,2.8,9.6,3.6,14.5c1,6.3,1.6,12.7,1.9,19.1c0.5,13.2,0,26.5-1.6,39.6c-2.5,20.3-8.8,40-18.6,57.9c-3.3,6.1-6.8,12-10.4,18
		c-5,8.5-9.5,17.2-13.4,26.2l-2.1,5.1c-0.2-0.1-0.5-0.1-0.6-0.2c-1.7-2.3-3.4-4.7-5.2-7c0.2-0.7,0.4-1.2,0.6-1.8
		c2.7-7.2,6-14.2,9.9-20.9C258.9,212.1,260.4,209.7,261.8,207.3z M251.5,201.3c0.4,0.8,0.9,1.6,1.5,2.3c1.5,2,3.8,3,6.2,2.9
		c0.6,0,1.1,0,1.8-0.1c-0.1,0.4-0.3,0.9-0.5,1.3c-2.1,3.7-4.2,7.3-6.2,11c-2.8,5.2-5.2,10.6-7.2,16.1c-0.2,0.5-0.4,0.9-0.7,1.5
		c-0.3-0.2-0.6-0.4-0.8-0.6c-2.7-3.4-5.3-6.8-7.8-10.2c0.7-5.2,8.7-23.2,12.1-27.3C250.5,199.4,251,200.4,251.5,201.3z M262.8,79.9
		c0.4,0.1,0.8,0.2,1.2,0.4c2.3,1.3,4.3,3,5.9,5c2,2.3,3.8,4.7,5.6,7.2c2.1,2.9,3.1,6.4,3.1,9.9c0,2.8-0.3,5.6-0.8,8.4
		c-1.3,7-3.5,13.7-6.5,20.2c-2.7,5.8-5.7,11.5-9,17c-3.4,5.5-6.4,11.2-9.2,17.1c-1.6,3.2-2.9,6.7-3.9,10.2c-0.3,1.1-0.8,2.1-1.5,3
		c-3.2,4.3-6.1,8.8-8.7,13.4c-3.4,6.2-6.1,12.8-7.9,19.7c-0.1,0.8-0.2,1.6-0.3,2.4c0.2-0.3,0.3-0.6,0.6-1c3-11.4,8.2-22.2,15.3-31.7
		c0.3-0.4,0.6-0.9,0.9-1.3c0.2-0.2,0.3-0.3,0.5-0.4c0.1,0.2,0.2,0.5,0.2,0.8c-0.7,5.5-0.3,11,1.2,16.3v0.4c-1,2.1-2.3,4.3-3.4,6.5
		c-1.1,2.2-2.2,4.6-3.3,6.8c-1.1,2.2-2,4.4-2.9,6.7c-0.9,2.3-1.7,4.7-2.6,7.2c-1-0.7-1.8-1.6-2.4-2.6c-0.7-0.8-1.4-1.8-2.1-2.7
		l-2.1-2.7c0-0.8,0.1-1.5,0.1-2.3l-0.9,1c-1.2-1-4.8-5.6-6.1-8.1c0.1-0.7,0.3-1.5,0.5-2.3c1.3-4.4,3.1-8.6,5.4-12.6
		c2.7-4.6,5.5-9.2,8.3-13.7c6.2-9.9,12-20,17.1-30.5c3-6,5.6-12.2,7.8-18.6c2.8-8.2,4.4-16.8,4.6-25.4c0.2-7.6-1-15-4.3-22
		c-0.2-0.4-0.3-0.7-0.4-1.1V79.9z M221.7,146.3c1,0.9,2.1,1.7,3.3,2.4c1.2,0.5,2.4,0.9,3.7,1.2c0,0.9-0.8,1.6-1.3,2.3
		c-3.2,4.5-6.2,9.2-8.9,14.1s-5.1,10.1-6.9,15.4c-0.2,0.7-0.4,1.5-0.5,2.2c0.4-0.7,0.7-1.4,1.1-2.2c4.1-11.6,10.4-21.9,17.6-31.7
		l0.3-0.3c1.1-0.4,2.2-0.9,3.2-1.4c2.2-1.3,4-3.2,5.2-5.4c1.2-2.3,2.1-4.8,2.7-7.3c1.1-4.8,1.8-9.6,2-14.5c0.4-8.5,0.1-17-0.8-25.4
		c-0.6-5.7-1.9-11.3-3.8-16.7c-0.5-1.4-0.9-2.8-1.1-4.2c0.6-0.7,1.1-0.3,1.5-0.1c2.7,1.3,5.5,2.3,8.4,3l2.3,0.6
		c0.3,1.1,0.6,2.1,0.9,3.1c1.3,4.9,2.1,9.9,2.4,14.9c1.4,19.9-2.8,39.8-12.1,57.5c-3.2,5.8-6.7,11.4-10.6,16.8
		c-2.2,3.3-4.5,6.7-6.6,10.1c-1.9,3.2-3.6,6.6-4.8,10.1c-0.3,0.8-0.8,1.5-0.5,2.4c0.2-0.3,0.4-0.6,0.6-1c2.3-6.2,5.4-12,9.2-17.4
		c3.3-5,6.9-9.9,10-15c12.5-20.4,17.3-42.6,15.3-66.4c-0.4-4.4-1.2-8.8-2.4-13c-0.1-0.6-0.3-1.1-0.4-1.8c1.3-0.3,2.5,0.2,3.7,0.2
		l3.4,0.1h3.6c0.2,0.5,0.4,0.8,0.6,1.1c3.3,6.7,5,14.1,4.9,21.5c-0.1,9.1-1.6,18.2-4.5,26.8c-2.6,7.5-5.7,14.8-9.4,21.8
		c-5.6,11.1-12,21.8-18.6,32.3c-1.8,2.9-3.6,5.8-5.3,8.8c-2.3,4-4,8.3-5.2,12.7c-0.1,0.5-0.3,0.9-0.5,1.3c0,0-0.1,0.1-0.2,0.1
		c-1.4-1-2.7-2.7-5.6-7.4c0-0.5,0-1.1-0.1-1.6c0-0.1,0-0.1,0-0.2l0,0l-0.6,0.4c-1.4-1-3.7-4.2-6.5-9c0.2-1.2,0.5-2.4,0.7-3.6
		l-1.3,2.6c-1.6-1.3-2.2-3-3.2-4.5c-1.1-1.4-2.1-3.1-2.8-4.8C207.6,165.8,213.7,155.3,221.7,146.3z M221.1,145.3
		c-0.3,0.4-0.6,0.9-0.9,1.3c-3,3.7-5.8,7.6-8.4,11.7c-3.1,5-5.6,10.3-7.6,15.8c-0.2,0.7-0.5,1.4-0.9,2.3c-1.4-1.2-1.8-2.7-2.6-3.9
		s-1.5-2.3-2.2-3.7s-1.4-2.7-2.2-4.1c0.5-0.9,0.8-1.8,1.3-2.7c2.6-4.7,5.6-9.1,9.1-13.1c3.1-3.8,6.5-7.4,10.1-10.8
		c0.3-0.2,0.6-0.4,1.1-0.8L221.1,145.3z M217.6,136.1c-0.5,0.5-1,1.1-1.5,1.6c-5.5,5.2-10.4,10.9-14.8,17.1
		c-1.6,2.3-2.9,4.8-4.4,7.2c-0.3,0.5-0.5,0.9-1,1.8c-1.5-2.5-2.9-5-4.3-7.6c0.3-1.3,0.8-2.6,1.5-3.7c1.7-3,3.8-5.7,6.3-8.1
		c3.3-3.2,6.7-6.2,10.1-9.3c1.8-1.6,3.5-3.3,5.2-4.9c0.5-0.4,1.1-0.8,1.6-1.2C216.7,131.5,217.2,133.7,217.6,136.1z M191.4,154.7
		c-2-3.1-3.6-6.4-4.8-9.8c0.6-1.5,1.5-2.9,2.6-4.1c2.2-2.7,4.7-5.2,7.5-7.3c3-2.3,6.2-4.6,9-6.8c2.9-2.2,5.6-4.5,8.4-6.8l2.3-1.9
		l0.4,0.3c-0.2,1.5-0.1,3.2-0.2,4.8c-0.1,1.6-0.1,3.1-0.1,4.8c-1.6,1.6-3.1,3.3-4.8,4.8c-2.9,2.6-6,5.2-8.9,7.9
		c-2.5,2.2-4.9,4.6-7,7.2c-1.5,1.8-2.7,3.7-3.7,5.8C191.9,154,191.7,154.4,191.4,154.7z M220.6,103.7c-1,3.9-2.2,7.7-3.2,11.5
		c-0.3,0.8-0.8,1.6-1.5,2.2c-4.2,3.9-8.7,7.3-13.3,10.8c-3.2,2.4-6.4,4.9-9.5,7.5c-2,1.7-3.9,3.8-5.4,6.1c-0.4,0.6-0.9,1.2-1.4,1.9
		c-0.4-0.4-0.6-0.6-0.8-0.6c-1-2.2-1.9-4.5-2.7-6.8c1.4-2.3,3.1-4.4,4.9-6.4c3.6-4.2,7.7-7.9,12.2-11.1c3.4-2.5,6.8-5,10.2-7.5
		c3.4-2.5,6.6-5.1,9.7-8c0.2-0.2,0.4-0.4,0.9-0.7C220.7,103,220.7,103.3,220.6,103.7z M225.5,74.7c0.6,2.3,0.8,4.6,0.8,7
		c0.1,0.9-0.3,1.8-0.9,2.5c-2,2.1-3.9,4.3-6,6.3c-5.5,5.2-11.6,9.7-17.5,14.4c-5.9,4.5-11.2,9.6-15.9,15.4c-1.5,1.9-2.8,4-4.2,6
		c-0.3,0.5-0.5,1-0.7,1.6c0.6-0.7,1.1-1.4,1.7-2.3c3.5-5.3,7.8-10.2,12.6-14.4c5.7-5.1,11.9-9.6,17.8-14.4c4.3-3.3,8.3-7,11.9-11
		c0.1-0.1,0.3-0.3,0.5-0.4c0.5,0.1,0.4,0.6,0.3,0.9c-0.3,1.4-0.6,2.8-1,4.2c-0.7,2.3-1.6,4.6-2.2,7c-0.5,1.9-1.6,3.5-3,4.8
		c-2,1.9-4,3.7-6.2,5.4c-5.2,4-10.6,7.8-15.8,11.8c-5.2,3.9-9.7,8.6-13.6,13.8l-1.4,1.8c-1-1.6-1.7-3.4-2.2-5.2l0.6-2l-0.9,0.4
		c-1-1.2-1.4-2.5-2.1-5.5c0.6-1.1,1.3-2.4,2-3.6c2.8-4.5,6.2-8.6,10.1-12.1c4.8-4.4,9.9-8.6,14.8-12.9c6.7-5.8,13-12.3,18.6-19.2
		c0.4-0.5,0.8-0.9,1.4-1.5C225.2,73.9,225.4,74.3,225.5,74.7z M212.4,57.4c2.3,0.5,5.3,2.9,7.4,6c-0.2,0.4-0.4,0.8-0.6,1.1
		c-2.7,3.6-5.8,7-9.1,10.2c-5.2,4.9-10.5,9.8-15.7,14.7c-4.7,4.5-9.3,9.1-12.9,14.7c-1.5,2.3-2.8,4.8-4.2,7.3
		c-0.3,0.7-0.5,1.4-0.7,2.1c0.4-0.6,0.9-1.2,1.2-1.8c3.1-6.2,7.2-11.9,12.1-16.8c3.7-3.7,7.6-7.3,11.4-10.9
		c6.3-6,12.7-11.8,18.1-18.8c0.4-0.4,0.7-0.7,1.1-1c0.4,0.4,0.8,0.8,1.1,1.2c1.5,2.1,2.6,4.4,3.2,6.9c-0.4,0.6-0.8,1.2-1.3,1.8
		c-3.7,4.6-7.7,9.1-12,13.2c-4,3.8-8.1,7.4-12.3,11c-3.8,3.3-7.6,6.6-11.2,10.1s-6.6,7.4-9,11.8c-0.2,0.5-0.6,1-1,1.6
		c-0.6-0.8-1-1.8-1.2-2.8c-0.3-1-0.5-1.9-0.8-2.8c0.1-0.9,0.3-1.8,0.5-2.7l-0.9,1c-0.2-0.2-0.4-0.5-0.6-0.8
		c-0.5-1.5-0.9-3.1-1.4-4.6c-0.3-0.9-0.2-2,0.1-2.9c1.2-3.5,2.8-6.8,4.9-9.8c2.9-4.1,6.2-8.1,9.7-11.8c5.7-6.2,11.5-12.4,17.2-18.7
		c2.1-2.3,3.9-4.7,5.8-7.1C211.7,58.3,212,57.9,212.4,57.4z M208.7,54.5c0.9,0.8,2,1.5,3,2.2c-0.2,0.9-0.6,1.6-1.2,2.2
		c-2.6,3.1-5.1,6.3-7.8,9.3c-5.3,5.8-10.6,11.4-15.9,17.1c-2.9,3.1-5.6,6.4-8.1,9.9c-2,2.8-3.7,5.9-4.9,9.2
		c-0.1,0.4-0.3,0.8-0.6,1.5c-0.3-0.4-0.5-0.7-0.7-1.2c-0.4-1.3-0.8-2.6-1.2-3.9c-0.3-1-0.3-2.1,0-3.1c0.8-2.5,1.8-4.9,3-7.2
		c2.8-5.3,6.2-10.2,10.2-14.6c4.2-4.9,8.7-9.6,13-14.4c2.5-2.7,4.7-5.6,7.1-8.4c0.4-0.4,0.8-0.9,1.3-1.4
		C206.9,52.7,207.8,53.7,208.7,54.5z M205.3,51.1c-0.8,1-1.6,2.1-2.4,3.2c-3.2,4.1-6.8,8-10.4,11.8c-4.4,4.6-8.7,9.5-12.6,14.5
		c-3.8,4.8-6.8,10.2-8.9,15.9c-0.2,0.3-0.4,0.6-0.6,0.9c-0.2-0.7-0.5-1.2-0.6-1.7c-0.3-1.2-0.6-2.4-1-3.5c-0.6-1.8-0.6-3.7,0.1-5.4
		c1.6-4.9,4.1-9.5,7.2-13.7c2.9-3.9,5.9-7.7,8.9-11.6c4.6-5.9,8.9-12.2,12.7-18.7c0.2-0.3,0.4-0.7,0.7-1
		C200.6,43.2,204.6,48.5,205.3,51.1z M197.9,40.9c-0.5,0.8-0.9,1.6-1.3,2.4c-3.7,6.3-7.9,12.3-12.4,18.1c-3,3.8-6,7.5-8.8,11.4
		c-3.1,4.2-5.5,8.8-7,13.8c-0.2,0.3-0.3,0.5-0.4,0.8c-0.6,0-0.6-0.5-0.7-0.8c-0.8-2.9-1.6-5.9-2.4-8.8c-0.3-0.9-0.2-2,0.1-2.9
		c0.7-2,1.7-4,2.9-5.9c2.9-4.5,6.1-8.8,9.5-12.9c4.1-5,8.2-10,12-15.4c1-1.4,1.9-2.8,3-4.5C194.4,37.6,196.2,39.1,197.9,40.9z
		 M178.9,28.7c2.9,0.7,10.2,4.8,12.6,7.1c-0.2,0.8-0.5,1.6-1.1,2.2c-2.9,4.4-6.1,8.7-9.5,12.8c-3.6,4.5-7.4,8.9-10.7,13.7
		c-2.1,2.9-4,6-5.4,9.3c-0.1,0.2-0.3,0.5-0.5,0.7c-0.2-0.3-0.4-0.7-0.5-1c-0.3-1.2-0.7-2.4-0.9-3.6c-0.2-1.1-0.3-2.1-0.2-3.2
		c0.2-3.7,1.1-7.4,2.7-10.8c1.5-3.2,3.1-6.3,4.8-9.4c3.1-5.5,5.9-11.1,8.2-16.9C178.5,29.3,178.7,29,178.9,28.7z M170.6,24.4
		c2.7,0.9,5.2,2.2,7.5,3.8c-0.2,0.7-0.4,1.4-0.7,2.1c-1.6,4-3.5,8-5.6,11.8c-1.6,3-3.3,6-4.9,9c-2.2,4.1-3.8,8.5-4.5,13.1
		c0,0.3-0.1,0.5-0.2,0.7c-0.1,0.1-0.2,0.2-0.3,0.3c-0.2-0.4-0.4-0.8-0.4-1.4c-0.5-2-1-4.1-1.4-6.2c-0.2-1.1-0.2-2.1-0.1-3.2
		c0.3-2.7,1-5.4,2.1-7.9c1.1-2.7,2.3-5.5,3.5-8.2c1.8-4.2,3.4-8.5,4.6-12.9C170.3,25.1,170.5,24.7,170.6,24.4z M163.2,19.5
		c1,0.1,1.5,0.9,2.3,1.3c0.7,0.4,1.4,0.9,2.1,1.4c0.7,0.5,1.6,0.8,2.2,1.8c-0.2,0.8-0.3,1.7-0.6,2.7c-1,3.6-2.3,7.1-3.8,10.5
		c-1,2.5-2.2,5-3.1,7.4c-0.9,2.4-1.6,4.9-2.4,7.4c-0.1,0.4-0.2,0.8-0.3,1.1h-0.5c-0.6-2.6-1.4-5.1-1.2-7.8c0.3-3.9,0.9-7.7,1.8-11.5
		c1.2-4.6,2.5-9.1,3.2-13.8C163,19.9,163.1,19.7,163.2,19.5z M144.3,9.5c0.7-2.7,1.4-5.3,2.1-8.2c0.4,0.2,0.7,0.5,1,0.8
		c3.3,4.6,7,8.9,11.1,12.8c1.2,1.2,2.5,2.4,3.9,3.6c-0.2,1.1-0.2,2.2-0.4,3.1c-0.7,2.9-1.3,5.7-2,8.5c-1.1,3.8-1.8,7.6-2.3,11.5
		c0,0.5-0.2,0.9-0.4,1.7c-0.5-1.2-0.8-2.5-1-3.8c-0.3-1.2-0.5-2.3-0.7-3.6c-0.2-1.3-0.5-2.6-0.8-3.8c-0.3-1.2-0.5-2.4-0.8-3.6
		s-0.5-2.4-0.7-3.6c-0.1-1.2-0.5-2.4-1.1-3.5c-0.4,0.8-0.4,1.6-0.2,2.4c0.5,3.9,1,7.9,1.5,11.8c0.2,1.6,0.4,3.2,0.6,4.8v1.5
		c-0.3-0.4-0.6-0.7-0.9-1.1c-2-4.9-4.8-9.4-7.2-14.1c-1.4-2.7-2.6-5.4-3.8-8.1c-0.2-0.4-0.3-0.8-0.4-1.2
		C142.7,14.7,143.6,12.2,144.3,9.5z M138.6,24.2c0.9-1.7,1.7-3.4,2.6-5.3c0.3,0.2,0.6,0.6,0.8,0.9c2.3,5.5,5.4,10.6,8.1,15.9
		c1.1,2.1,2.1,4.4,3.1,6.6c1.5,4,2.4,8.2,2.5,12.5c0,0-0.1,0.1-0.2,0.3c-0.6-0.1-0.9-0.7-1.1-1.2c-1.2-2.2-2.7-4.3-4.3-6.2
		c-1.8-2.1-3.6-4.1-5.4-6.2c-3.1-3.5-6-7.1-8.6-11c-0.2-0.3-0.4-0.7-0.5-1C136.6,27.6,137.7,25.9,138.6,24.2z M135.1,30.6
		c0.3,0.3,0.6,0.6,0.9,1c3.5,4.8,7.2,9.4,11.3,13.8c2.8,3,5.3,6.4,7.2,10c1.2,2.2,2,4.6,2.4,7.1c0.1,1.6,0.5,3.1,0.6,4.7l-0.5,0.2
		c-0.4-0.5-0.8-1.1-1.2-1.6c-2.5-3.6-5.6-6.7-9.1-9.3c-3.1-2.3-6.2-4.7-9.2-7.1c-3-2.4-5.7-5.1-8.1-8.1c-0.4-0.5-0.7-1.1-1.1-1.6
		C130.3,36.5,132.6,33.5,135.1,30.6z M127.6,40.6c0.4,0.3,0.7,0.6,1,0.9c3.9,4.6,8.5,8.7,13.4,12.3c2.9,2.1,5.6,4.2,8.3,6.5
		c3,2.6,5.5,5.8,7.3,9.3c0.2,0.2,0.3,0.5,0.4,0.8c0.6,2.3,1,4.6,1.2,6.9c-0.3-0.2-0.6-0.5-0.9-0.5c-2.3-2.6-4.9-4.9-7.9-6.6
		c-4.5-2.8-9.1-5.6-13.6-8.5c-4.7-3-9.2-6.4-13.3-10.1c-0.9-0.9-1.8-1.8-2.7-2.7C122.8,45.9,125.1,43.1,127.6,40.6z M120.1,49.2
		c0.4,0.2,0.7,0.4,1,0.6c5.8,5.9,12.6,10.4,19.5,14.7c3.2,2,6.3,3.9,9.4,5.8c2.5,1.5,4.9,3.3,7,5.4c1.8,1.7,3,3.9,3.4,6.3
		c0.2,1.8,0.7,3.5,1,5.2c0.1,0.5,0.1,1,0.2,1.5c-0.6,0.4-0.8-0.1-1-0.3c-2.9-3.3-6.6-5.5-10.4-7.7c-4.3-2.4-8.7-4.8-12.9-7.4
		c-7.4-4.6-14.2-10-20.4-16.1c-0.5-0.4-1-1-1.4-1.5c-0.2-0.3-0.2-0.5-0.3-0.8L120.1,49.2z M112.4,57.9c0.6-0.7,1.3-1.3,2-2
		c0.5,0.4,0.9,0.7,1.3,1c5.4,5.4,11.3,10.3,17.6,14.6c4.2,2.9,8.6,5.4,13.1,7.9c2.7,1.5,5.4,3.1,8.1,4.7c2.7,1.6,5.1,3.9,6.9,6.5
		c0.5,0.7,0.8,1.5,1,2.3c0.8,2.7,1.4,5.5,2,8.2c0.1,0.3,0.1,0.7,0.1,1.1c-0.4-0.1-0.7-0.3-1.1-0.6c-6.9-4.4-13.9-8.8-20.8-13.3
		c-7.1-4.5-13.9-9.7-20.1-15.4c-3-2.9-5.9-6-8.8-9c-1.1-1.1-2.1-2.3-3.1-3.5C111,59.4,111.6,58.6,112.4,57.9z M100.6,72
		c1.3,1.1,2.5,2.3,3.5,3.6c4.9,5.7,10.4,10.9,16.4,15.5c5.9,4.5,12.4,8.2,19.3,10.9c3.8,1.5,7.7,2.8,11.6,4.1
		c4.8,1.4,9.4,3.1,14,5.1c0.4,0.1,0.7,0.2,1.1,0.2c-0.6-0.5-1.4-0.9-2.1-1.3c-3.1-1.3-6.2-2.5-9.4-3.6c-4.3-1.6-8.7-2.9-13-4.5
		c-10.9-4.1-20.8-10.4-29.2-18.5c-3.5-3.4-6.9-6.9-10.1-10.6c-0.5-0.6-0.9-1.2-1.4-1.9c1.1-1.9,2.5-3.6,4-5.2
		c1.4-1.8,2.9-3.4,4.6-4.9c0.5,0.4,1,0.9,1.5,1.4c8.4,9.9,18.1,18.4,29,25.4c5.5,3.6,11.1,7,16.6,10.5c2.7,1.7,5.3,3.4,8,5.2
		c0.6,2.2,1.2,4.5,1.8,6.8c0.1,0.4-0.2,0.8-0.3,1.1c0.2,0.3,0.4,0.5,0.6,0.8c0.2,0.4,0.4,0.9,0.6,1.4c0.6,1.8,1.1,3.7,1.4,5.6
		c-0.9-0.1-1.7-0.2-2.4-0.3c-13-2.2-25.5-6.4-37.2-12.4c-11.9-6-23-13.4-33.1-22c-0.6-0.6-1.2-1.2-1.8-1.7
		C95.1,79.9,98.2,74.3,100.6,72z M94.2,83.6c0.4,0.2,0.8,0.4,1.1,0.6c4.3,3.7,8.8,7.2,13.4,10.4c10.2,7.2,21.3,13.2,32.9,17.9
		c8.3,3.2,16.8,5.6,25.6,7c0.7,0.2,1.5,0.3,2.4,0.5c0.6,1.9,1.2,3.7,1.7,5.4c-0.6,0.7-1.4,0.4-2,0.4c-7-0.3-14-1.3-20.8-3
		c-16.5-4-32.1-11.1-45.9-21c-2.8-2-5.5-4.1-8.3-6.2c-0.6-0.4-1.1-0.8-1.5-1.2C92.3,90.7,92.7,87,94.2,83.6z M99.2,109.8
		c0.6-0.5,1.1,0,1.5,0.2c4.3,2.2,8.7,4.3,13,6.6c5.2,2.7,10.3,5.6,15.5,8.3c3.6,1.8,7.3,3.4,11.1,4.9c9.7,3.7,20.2,4.7,30.4,2.7
		c0.7-0.1,1.4-0.3,2-0.5c0,0,0,0,0-0.1c-0.8,0-1.6,0-2.4,0.4c-4.5,0.7-9.1,0.9-13.7,0.7c-6.3-0.4-12.6-1.9-18.4-4.4
		c-5.6-2.3-10.9-5.2-16.2-8c-6-3.3-12-6.4-18-9.6c-2-1-4-1.9-6.1-2.9c-2-3.1-3.5-6.4-4.7-9.9c-0.4-0.6-0.4-1.4-0.2-2.1
		c0.8,0.2,1.5,0.7,2.1,1.3c5,3.8,10.1,7.3,15.5,10.6c14.9,9.2,31.5,15.2,48.8,17.7c3.3,0.4,6.7,0.6,10,0.9c0.7,0.1,1.4,0.2,2.1,0.2
		c0.6,1.2,1.1,2.5,1.4,3.9c0.1,0.4-0.1,0.8-0.2,1.2h0.2c-0.1,0-0.1,0.1-0.2,0.1c0,0,0,0,0,0l0.9,0.4c0.9,2.5,1.9,4.9,2.8,7.6
		c-0.8,0.3-1.4,0.6-2,0.8c-2.3,0.6-4.6,1-7,1.1c-8.1,0.5-16.2-0.8-23.8-3.6c-3.7-1.4-7.3-3.1-10.9-4.7c-2.9-1.3-5.8-2.8-8.7-4.1
		c-5.3-2.5-10.8-4.6-16.4-6.3c-0.7-0.3-1.5-0.5-2.3-0.8L99.2,109.8z M105.8,124.1c-0.1,0,0-0.1,0.1-0.3c0.7-0.3,1.3,0.1,1.9,0.3
		c6.1,1.9,12.1,4.3,17.9,7c3.9,1.8,7.7,3.6,11.6,5.4c5.9,2.8,12.2,4.7,18.6,5.6c3.8,0.5,7.7,0.6,11.6,0.4c3.1-0.2,6.2-0.9,9.1-1.9
		c0.8,1.5,1.5,3,2.1,4.6c0.7,1.5,1.3,3,2,4.7l-1.3,0.6c-0.1,0-0.2,0.1-0.4,0.1c-11.5,2.2-23,2.7-34.4-1c-4.5-1.5-8.9-3.1-13.3-4.9
		c-7.2-2.9-14.3-6-21.8-8.3c-0.2-0.1-0.4-0.2-0.6-0.3C107.8,131.9,106.8,127.9,105.8,124.1z M142.9,160.3c-4.6-1.4-9.3-2.8-14-4.2
		c-2.1-0.6-4.2-1.2-6.3-1.9c-1.6-0.5-3.3-1.3-4.8-2.1c-3.6-2-6.3-5.3-7.5-9.2c-0.6-1.8-1-3.6-1.3-5.5c0.9-0.2,1.8,0,2.6,0.3
		c4.5,1.7,8.9,3.3,13.3,5c4.7,1.8,9.3,3.8,14,5.6c5.5,2.2,11.2,3.6,17,4.3c7.8,0.8,15.5,0,23.2-1.5l2.1-0.4l4.4,9
		c-0.4,0.1-0.8,0.2-1.2,0.2c-3.7-0.2-7.4,0-11,0.4c-2.8,0.3-5.6,0.6-8.4,0.8c-6.3,0.6-12.7,0.5-19-0.2
		C145,160.8,143.9,160.6,142.9,160.3z M148,162.4c0.1-0.6,0.6-0.4,0.9-0.4c8.3,0.7,16.5-0.1,24.7-0.9c2.7-0.3,5.5-0.4,8.2-0.5
		c1.3,0,2.6,0.1,3.8,0.1c2,2.6,3.5,5.5,4.7,8.5c-0.3,0.1-0.6,0.1-1,0.2h-2.5c-8-0.5-16-0.2-24,0.8L148,162.4z M171.2,177l-7.4-6.2
		c0.7-0.2,1.3-0.3,2-0.4c3.9-0.2,7.8-0.5,11.7-0.6c2.6-0.1,5.2,0.1,7.8,0.1h5.9l6.1,10.2c-0.5,0.1-0.8,0.3-1,0.2
		c-7.9-1.9-16-3-24.1-3.2C171.8,177.1,171.6,177,171.2,177z M172.5,178.1c0.3-0.1,0.7-0.2,1.1-0.2c6.9,0.2,13.8,1.1,20.6,2.5
		c0.8,0.2,1.6,0.5,2.4,0.7c0.5,0.2,1,0.4,1.6,0.6c1.9,2.5,3.6,5.1,5,7.8c-8.3-1.8-16.7-3-25-3.4L172.5,178.1z M178.5,187
		c0.3-0.1,0.6-0.2,0.9-0.2c8,0.4,15.9,1.5,23.6,3.3c0.3,0.1,0.6,0.2,1.1,0.4l7.6,11c-2.6-0.4-4.4-1.2-6.3-1.6
		c-1.9-0.4-3.8-0.9-5.8-1.3c-2-0.4-3.9-0.7-5.9-1s-4-0.6-5.9-0.8c-1.9-0.2-3.9-0.4-5.8-0.6L178.5,187z M61.1,140.5
		c2.1-0.3,4.3-0.3,6.4,0.1c2.1,0.3,4.2,1,6.1,1.9c6.1,2.8,11.7,6.4,16.7,10.8c6.4,5.4,12.3,11.3,17.8,17.5
		c3.7,4.2,7.3,8.4,11.1,12.5c3.5,3.8,7.1,7.5,10.8,11.2c5.4,5.4,10.9,10.8,16.5,16.1c1.9,1.9,4,3.7,6.2,5.4
		c3.3,2.5,7.2,4.1,11.3,4.5c3.7,0.5,7.5-0.1,10.9-1.7c1-0.4,2-0.7,3-1c-0.1-0.6,0.1-1.1,0.5-1.5c2.4-2.4,3.4-5.4,4-8.6
		c0.2-0.7,0.1-1.6,0.9-2c-0.3-0.3-0.4-0.8-0.5-1.2c0-2.2-0.2-4.4-0.7-6.6c0-0.3,0-0.5,0.1-0.8c0.3,0,0.6-0.1,0.9-0.1
		c9,0.5,17.9,2.1,26.6,4.6c3.4,1.1,2.6,0.7,4.5,3.2c1.2,1.5,2.3,3,3.4,4.6c0.2,0.3,0.3,0.5,0.4,0.8c-0.3,0.7-0.8,0.4-1.2,0.3
		c-3.2-0.8-6.5-1.7-9.8-2.3c-4.7-0.9-9.3-1.7-14-2.5c-0.9-0.1-1.8-0.1-2.7,0c0.7,0.3,1.4,0.4,2,0.4c9,1.3,17.9,3.2,26.6,5.7
		c2.1,2.3,4,4.9,5.4,7.7c-0.7-0.1-1.4-0.1-2-0.2c-4.5-0.6-8.9-1.4-13.4-1.9c-2-0.2-4.1-0.4-6.1-0.5c-0.2,0-0.4,0-0.6,0
		c-5.9-0.4-11.8-0.4-17.7,0c-1,0.1-1.8,0.3-2.8,0.5c0,0-0.1,0-0.1,0c0.1,0,0.2,0,0.3,0c0.6,0,1.3,0.1,1.9,0.1
		c6.1-0.3,12.2-0.3,18.4,0.1c0.1,0,0.2,0,0.3,0c7.3,0.5,14.6,1.5,21.8,3c0.4,0.1,0.8,0.2,1.1,0.3c2.5,2.7,4.6,5.5,6.4,8.6
		c-0.4,0-0.9,0-1.3-0.1c-2.9-0.6-5.9-1.2-8.8-1.7c-6.9-1.1-13.9-1.4-20.8-1c-5.1,0.2-10.2,0.7-15.3,1.1c-3.4,0.3-6.7,0.6-10.1,0.7
		c-4.4,0.2-8.7-0.2-13-1.1c-5.9-1.4-11.4-3.9-16.4-7.4c-5.1-3.5-10-7.5-14.5-11.8c-6.3-5.9-12.2-12.1-18-18.5
		c-6.1-6.6-12.1-13.2-18.2-19.7c-5.7-6.3-12-12.2-18.6-17.6c-4.7-3.8-9.8-7.1-15.1-10c-0.4-0.2-0.8-0.5-1.2-0.7l-0.3-0.3
		C60.2,140.6,60.7,140.6,61.1,140.5z M54.3,159.8c1.4-1.8,2.1-4,2-6.2c0-1.6-0.2-3.2-0.2-4.8c-0.1-1.3,0-2.5,0.1-3.7
		c0.2-1.7,1.3-3,2.8-3.6c0.7,0.3,1.5,0.6,2.2,1c8,4.4,15.4,9.7,22,15.9c5.3,4.8,10.3,10,15.1,15.3c5.7,6.1,11.3,12.2,17,18.3
		c4.4,4.7,8.9,9.4,13.5,14c5.7,5.8,12.1,11,18.9,15.5c7.7,5.1,16.8,7.7,26,7.5c3.9-0.1,7.8-0.4,11.7-0.7c5.4-0.4,10.7-0.9,16-1.2
		c9.9-0.5,19.9,0.4,29.5,2.8c1.7,0.3,3.2,1.3,4.2,2.8c1.5,2,3.1,4,4.6,6c0.4,0.5,0.7,1,1,1.5l-0.3,0.4c-0.5-0.1-1-0.2-1.4-0.3
		c-12.3-4.7-25.4-7-38.6-6.7c-6.8,0-13.6,0.5-20.4,0.8c-3.5,0.1-7,0.4-10.5,0.5c-7.8,0.2-15.5-1.3-22.6-4.3
		c-6.6-2.8-12.8-6.3-18.7-10.5c-7.2-5-14.1-10.5-20.7-16.3c-8.9-7.8-18-15.2-27.1-22.6c-4.7-3.8-9.3-7.6-14-11.4
		c-3.6-2.8-7.3-5.3-11.3-7.4l-1.5-0.9C53.5,160.9,53.8,160.2,54.3,159.8z M183.5,249.7c-4.3-2.7-9-4.8-13.9-6.3
		c-7.3-2.4-14.9-3.6-22.4-5c-9.5-1.6-19-2.6-28.5-3.1c-5.7-0.4-11.4-0.8-17.1-1.3c-10.7-1-21-4.1-30.4-9.3
		c-5.3-2.8-10.1-6.4-14.2-10.7c-2.8-3-5.3-6.4-7.3-10c-0.3-0.4-0.4-0.8-0.6-1.2c0.8-0.6,1.6-0.2,2.3-0.1c1.2,0.1,2.3,0.3,3.5,0.4
		c0,0,0,0,0,0c-0.7-0.2-1.3-0.4-2-0.6c-1.5-0.3-2.9-0.5-4.4-0.7c-0.3-0.6-0.7-1.2-1-1.8c-2.5-5.7-3.5-12-2.9-18.2
		c0.2-1.7,0.6-3.3,1.1-4.9c1.6-4.9,3.8-9.7,6.6-14c0.2-0.3,0.5-0.5,0.7-0.8c0.8,0,1.6,0.3,2.2,0.8c4.6,2.5,9,5.5,13,8.9
		c12,9.8,23.9,19.7,35.8,29.6c5.7,4.8,11.3,9.8,17.3,14.3c5.5,4.2,11.2,8,17.2,11.4c3.8,2.1,7.8,3.9,11.9,5.4c5.8,2.1,12,3.1,18.2,3
		c3.7-0.1,7.5-0.2,11.2-0.5c7.5-0.5,15-0.9,22.6-0.9c7.2,0.1,14.5,0.8,21.6,2.3c5.8,1.3,11.5,3.1,17,5.4c1,0.4,1.9,1,2.5,1.9
		c1.1,1.6,2.3,3.2,3.5,4.8c0.2,0.4,0.4,0.7,0.6,1.1c-0.4,0.6-0.9,0.3-1.3,0.2c-10.8-3.7-22.1-5.9-33.4-7.8c-5.7-1-11.4-1.5-17.1-1.5
		h-11.9c-6.2,0-12.3-0.4-18.4-1.2c-0.6-0.1-1.1-0.2-1.7-0.2c-4.3-0.6-8.6-1.5-12.9-2.5c-4.2-1-8.2-2.4-12.2-4
		c-5.9-2.4-11.9-4.8-17.8-7.3c-10-4.2-20.1-8.1-30.4-11.5c-6.3-2-12.5-4.2-18.7-6.3c-4.8-1.7-9.7-3-14.6-4.1
		c-0.8-0.3-1.6-0.4-2.4-0.2c0,0,0,0,0.1,0c0,0-0.1,0-0.1,0c0,0,0,0-0.1,0c0.5,0.2,1.1,0.5,2.3,0.7c4.9,1.1,9.7,2.5,14.5,4.1
		l25.4,8.6c9.7,3.4,19.1,7.4,28.5,11.3c5.5,2.3,11.2,4.6,16.8,6.7c9.7,3.6,19.8,5.2,30,6.2c5.8,0.5,11.6,0.6,17.4,0.5
		c2.7-0.1,5.4,0,8.2,0c7.4,0.2,14.8,1.1,22.1,2.6c8.9,1.6,17.8,3.8,26.4,6.6c0.6,0.2,1.3,0.4,1.9,0.7c0.4,0.1,0.8,0.4,1.1,0.7
		c1.2,1.6,2.3,3.2,3.3,5c-0.8,0.1-1.7,0-2.4-0.3c-6.7-1.7-13.4-3.1-20.2-4.2c-11.8-2-23.8-2.8-35.8-2.5c-2.6,0.1-5.1,0.3-7.6,0.4
		c-0.7,0.1-1.5,0.1-2.2,0.1C184.2,250.1,183.8,249.9,183.5,249.7z M190.8,265.8c2.1-3.1,2.3-6.2,0.2-9.4c-0.9-1.3-1.9-2.5-3.2-3.5
		c-0.9-0.5-1.6-1.2-2.1-2c0.5-0.1,0.9-0.2,1.4-0.3c5.8-0.3,11.5-0.5,17.2-0.3c15.8,0.6,31.5,3,46.8,7.1c0.8,0.3,1.6,0.5,2.6,0.8
		c0.8,1.1,1.5,2.1,1.9,3.1c0.3,0.5,0.5,1,0.8,1.6c-0.8,0.3-1.7,0.3-2.5,0.1c-6.5-0.4-12.9-0.9-19.4-1.2c-13.9-0.5-27.7,0.9-41.1,4.4
		c-0.9,0.2-1.8,0.3-2.7,0.5c0,0-0.1-0.1-0.3-0.2C190.6,266.3,190.7,266,190.8,265.8z M17.9,258.7l4.4,0.1l-4.1-0.9v-1.2
		c0.7-3.6,0.8-7.2,0.1-10.7c-0.5-3.2-0.8-6.5-1.2-9.7c-0.2-0.9-0.2-1.8,0.1-2.6h1.9c-0.1,0-0.1-0.1-0.2-0.1c0.1,0,0.3,0,0.4,0
		l-2.5-1.2c-0.1-0.4-0.1-0.9-0.1-1.4c0.1-2.1,0.6-4.2,1.5-6.2c0.9-2.2,3.2-3.6,5.6-3.4c1.1,0,2.2,0.2,3.2,0.5
		c4.4,1.1,8.7,2.7,12.8,4.9c8.7,4.8,17.3,9.8,25.6,15.1c4.6,2.9,9.3,5.6,14,8.3c14.8,8.2,30.7,13.5,47.3,16.8
		c7.1,1.4,14.3,2.5,21.5,3.2c3.8,0.4,7.6,0.8,11.4,1.1c4.7,0.5,9.3,0.6,14,0.4c3-0.2,5.9-0.6,8.8-1.4c1.2-0.3,2.4-0.8,3.6-1.3
		c1.4-0.6,2.9-1.1,4.3-1.6c14.1-3.9,28.7-5.6,43.3-5.1c7.2,0.3,14.3,0.9,21.5,1.4c0.7,0.1,1.4,0.1,2,0.1c1.7,2.2,2.8,4.4,4.1,6.4
		c0.1,0.3,0.2,0.7,0.2,1c-0.7-0.1-1.2,0-1.7-0.1c-12.9-1.4-25.9-1.1-38.6,1.1c-7.5,1.2-14.9,2.8-22.3,4c-18.4,3.2-37.2,4-55.9,2.5
		c-9.3-0.8-18.4-2.7-27.3-5.6c-8.4-2.7-16.7-5.9-24.8-9.5c-10.2-4.5-20.3-9.2-30.5-13.7c-9-4-18-8-27.2-11.7
		c-3.8-1.6-7.8-2.8-11.8-4.2c-0.7-0.2-1.3-0.3-2-0.4l0.1,0.1h-0.3c0.3,0.2,0.6,0.3,0.8,0.4c5.9,1.8,11.7,3.9,17.4,6.4
		c11.7,4.9,23.1,10.2,34.5,15.5c9.9,4.6,19.8,8.9,29.9,12.9c6.3,2.5,12.6,4.7,19.1,6.5c12,3.3,24.4,4.9,36.9,4.8
		c16.1,0.2,32.2-1.3,48-4.4c5.3-1,10.6-2.1,16-2.9c12.3-2,24.9-2.4,37.4-1.1c1,0.1,2.1,0.3,3,0.4c2.3,3.3,4.3,6.9,6,10.6
		c-0.4,0.1-0.9,0.1-1.3,0.1c-2.3-0.3-4.5-0.6-6.8-0.8c-9.5-1-19.1-0.9-28.6,0.3c-10.2,1.2-20.4,2.6-30.6,4c-13.9,2.1-28,2.8-42,2.2
		c-11.8-0.7-23.5-2-35.1-3.9c-14.4-2.5-28.6-6.2-42.5-11c-7.9-2.7-15.8-5.4-23.7-8c-10.3-3.5-20.9-5.8-31.7-7
		c-0.9-0.1-1.8-0.1-2.7-0.2c0.8,0.3,1.6,0.5,2.4,0.7c12.5,1.6,24.7,4.5,36.5,8.7c7.8,2.7,15.6,5.4,23.4,8
		c25.4,8.4,51.5,12.6,78.1,13.6c12,0.3,24-0.4,35.9-2.1c10.6-1.4,21.1-2.9,31.6-4.2c11.8-1.4,23.8-1.3,35.6,0.4
		c0.7,0.1,1.3,0.1,2,0.1c1.5,1.8,5.9,10.2,6.9,13.1c-0.4,0.6-1.1,0.3-1.6,0.2c-3.9-0.6-7.9-1.2-11.8-1.7c-5.6-0.7-11.3-0.7-16.9-0.1
		c-8,0.8-16.1,1.7-24.1,2.6c-15.6,1.9-31.2,2.6-46.9,2.1c-13.7-0.6-27.4-2-41-3.8c-13.2-1.7-26.4-4.3-39.4-7.2
		c-9.2-2-18.4-3.9-27.6-5.8c-11.6-2.4-23.5-3.5-35.4-3.3h-8.1C17.8,273.9,16.1,266.1,17.9,258.7z M194.7,311.6
		c-1.2-0.2-2.4-0.4-3.6-0.4c-7.6-0.4-15.1-0.8-22.7-0.9c-17.3-0.2-34.7-0.3-52-1c-7.4-0.3-14.8-0.8-22.2-1.5
		c-11.7-1.3-23.3-3.5-34.7-6.5c-9.1-2.4-17.8-6.1-25.9-10.9c-3.5-2.2-6.7-4.9-9.3-8.1c-0.4-0.6-0.8-1.2-1.2-1.8
		c1-0.1,1.6-0.2,2.1-0.1h6c11.8-0.1,23.6,1.1,35.1,3.5c10.4,2.1,20.8,4.3,31.2,6.6c25,5.6,50.4,9,76,10.2
		c16.1,0.6,32.2-0.1,48.2-2.1c7.6-0.9,15.2-1.7,22.8-2.5c10.4-1.1,20.6,0,30.8,2c0.4,0.1,0.8,0.2,1.3,0.4l1.5,3.1
		c-0.6,0.1-1.2,0.2-1.8,0.2c-22.3-0.1-44.6,2.8-66.1,8.8c-3.9,1-7.7,2.5-11.5,3.8l-2.1,0.7c0.1-0.8,0.1-1.5,0.1-2
		C196.4,312.2,195.6,311.6,194.7,311.6z M78.1,390.6c-5.7-5.4-12.9-9-20.6-10.3c-6.3-1.3-12.7-1.9-19.1-1.8c-0.4,0-0.9,0-1.3-0.1
		c0.2-0.5,0.4-0.9,0.7-1.3c1.3-1.4,2.9-2.3,4.7-2.8c2.1-0.6,4.2-1.1,6.3-1.4c6.5-0.8,13.2-0.5,19.6,0.9c4.9,1.1,9.8,2.3,14.7,3.4
		c3.4,0.8,6.8,1.6,10.2,2.5c17.7,4.5,35.4,4,53-0.7c8.8-2.2,17.3-5.3,25.3-9.4c3.1-1.6,6.1-3.5,9.1-5.3c3.7-2.3,7.4-4.9,10.8-7.7
		c1.8-1.4,3.5-2.9,5.3-4.4c0.8-0.5,1.3-1.3,1.5-2.3c-0.1-0.7-0.5-1.3-1.2-1.4c-1-0.3-2.1-0.6-3.1-0.7c-3.4-0.4-6.7-0.5-10.1-0.3
		c-5.8,0.3-11.4,1-17.1,1.9c-17.7,2.6-35.2,5.9-52.8,9.2c-9.5,1.9-19,3.5-28.7,4.5c-4.6,0.5-9.2,0.8-13.8,0.7
		c-12.1-0.2-23.9-3.7-34.1-10.1c-2.2-1.3-4.3-3-6.1-4.8c-1.1-1.1-1.8-2.4-2.2-3.9l1-0.7l-1.4-0.4c-1-4-0.6-8.1-1-12.2l2.3-0.5
		l-1.6-0.2c-0.5-2.3-1-4.7-1.6-7c-0.7-2.3-1.5-4.6-2.6-6.8c-1-2.2-2.4-4.2-3.1-6.7l2.2-0.4l-2.3-0.4c-0.6-0.8-0.6-1.8,0-2.6
		c0.5-0.9,1.3-1.7,2.3-2.1c2.4-1.2,5.1-1.9,7.9-2c2.6-0.2,5.2,0.1,7.7,0.7c3.5,0.8,7,1.8,10.4,2.8c6.3,1.9,12.5,3.9,18.8,5.9
		c14.5,4.6,29.3,8.2,44.3,10.8c12.2,2.1,24.5,3.1,36.9,3.1c9.9,0,19.8-1,29.5-3.2c4.5-1,8.9-2.4,13.1-4.2c0.4-0.2,0.8-0.4,1.2-0.6
		c3.2-2.4,7-3.6,10.8-4.9c8.6-2.9,17.3-5.1,26.2-6.7c11.3-2.1,22.8-3.4,34.3-4c4-0.3,8.1-0.2,12.1-0.2c0.8,0,1.6,0.1,2.4,0.1
		c1.1,1.8,2,3.7,2.8,5.7c1,1.9,1.8,3.9,2.5,6c-0.8,0.3-1.6,0.3-2.3,0c-6.7-1.1-13.5-1.8-20.3-2.1c-9.8-0.2-19.6,0.5-29.2,2.4
		c-9.1,1.6-18.2,3.9-27.2,6.1c-9.4,2.3-18.7,4.6-28.1,6.7c-21.3,4.7-43.3,5.4-64.9,2.1c-7.1-1-14-2.4-20.9-4.2
		c-11.2-2.9-22.4-5.8-33.5-8.8c-6.3-1.6-12.6-3.3-19-4.4c-0.9-0.1-1.7-0.2-2.5-0.2c0.4,0.2,0.8,0.4,1.2,0.5
		c9.4,1.7,18.5,4.3,27.6,6.8c11.4,3.1,22.7,6.1,34.2,8.6c18.5,4.2,37.5,5.4,56.4,3.6c9.6-1,19.1-2.7,28.4-5
		c11.3-2.7,22.5-5.5,33.8-8.2c6.9-1.7,13.9-3,20.9-4.1c11.7-1.7,23.7-1.8,35.4-0.2c3.1,0.3,6.1,0.8,9.1,1.3c0.4,0,0.7,0.2,1.2,0.3
		c1.1,2.2,2.1,4.5,2.9,6.9c-0.8,0.3-1.6,0.3-2.4,0c-7.3-1.2-14.7-1.9-22.1-2.1c-11.5-0.3-23.1,0.6-34.4,2.8c-14.6,2.7-29,5.9-43.5,9
		c-10.3,2.2-20.7,4.1-31.1,5.6c-18.6,2.7-37.4,2.5-55.9-0.6c-6-1-11.9-2-17.9-2.9c-11.4-2-22.9-3.1-34.4-3.4h-9.4
		c-0.7,0-1.5,0.1-2.2,0.3c0.5,0.1,1,0.2,1.5,0.2c16.9-0.4,33.6,1.6,50.2,4.4c3.4,0.6,6.7,1.1,10,1.7c21.6,3.8,43.8,3.8,65.4-0.1
		c12.9-2.1,25.6-4.9,38.4-7.6c9.8-2,19.6-4,29.4-5.9c18-3.5,36.6-3.8,54.7-0.9c1.1,0.2,2.3,0.4,3.4,0.6c0.2,0,0.5,0.1,0.7,0.2
		c0.6,0.8,0.9,1.7,1,2.7c-0.8,0.3-1.7,0.3-2.5,0.1c-12.3-0.8-24.7-0.1-36.8,1.9c-8.5,1.4-17.1,3.2-25.6,4.9
		c-14.8,3-29.5,6.4-44.4,9.2c-25.9,5-52.4,6.4-78.7,4.3c-9.9-0.8-19.9-1.6-29.9-2.3c-5.7-0.4-11.5-0.5-17.2-0.7
		c-0.9,0-1.7,0.1-2.5,0.2c0.4,0.2,0.9,0.2,1.3,0.3c14.7,0.3,29.4,1.6,44.1,2.9c26.3,2.4,52.8,1.4,78.8-3.1c7.5-1.3,14.9-3,22.4-4.5
		c14.8-3,29.6-6.1,44.4-9.1c10.6-2.2,21.5-3.3,32.3-3.4c4.5,0,9,0.3,13.5,0.4h1.2c0.1,0.4,0.2,0.7,0.3,0.9c-0.8,0.5-1.6,0.3-2.3,0.3
		c-6.3,0.3-12.6,0.5-18.8,0.9c-14.5,1.1-28.8,4.5-42.2,10c-6.9,2.7-13.5,6.1-19.7,10.1c-7.4,4.7-14.6,9.8-21.4,15.3
		c-5.8,4.6-11.8,8.8-18,12.7c-5.1,3.3-10.4,6.3-15.9,9c-7.6,3.6-15.6,6.2-23.9,7.6c-14.1,2.4-28.4,2.7-42.5,0.9
		c-0.8-0.1-1.7-0.1-2.3-0.1C80.9,393.4,79.5,392,78.1,390.6z M83,395.9c0.6-0.1,1.1-0.1,1.6-0.1c2.2,0.2,4.3,0.5,6.4,0.7
		c13.8,1.1,27.7,0.3,41.2-2.5c7.7-1.7,15-4.4,21.9-8c10.4-5.5,20.4-12,29.7-19.3c3.7-2.9,7.5-5.8,11.3-8.6
		c6.5-4.8,13.4-9.2,20.6-13.1c5.3-2.7,10.8-5,16.4-7c14.4-5.4,29.4-7.8,44.8-8.4c3.4-0.1,6.9-0.2,10.3-0.3c0.8-0.1,1.6,0,2.4,0
		c0.6,0.6,1,1.4,1.2,2.3c0.3,0.8,0.6,1.6,0.8,2.3c-0.6,0.7-1.4,0.5-2,0.6c-12.2,1.1-24.2,3.3-36,6.6c-9.4,2.6-18.4,6-27.2,10.2
		c-5,2.4-9.9,4.8-14.8,7.3c-2.8,1.4-5.6,3.1-8.3,4.8c-8.5,5.3-16.5,11.3-24.5,17.3c-16.8,12.4-35.5,21.9-55.5,28
		c-8.9,2.9-17.9,5.2-27.1,6.8c-0.9,0.2-1.8,0.3-2.9,0.4C90.6,408.7,87.6,402,83,395.9z M109.3,436.6c-1.9-0.4-3.6-1.2-5.2-2.3
		c-3.1-2.1-5.5-5.1-7.1-8.5c-1.1-2.6-2.1-5.4-3.1-8.1c-0.1-0.3-0.2-0.7-0.2-1c0.5-0.1,1-0.3,1.5-0.4c18.3-3.1,36.1-8.7,52.9-16.5
		c7-3.2,13.7-6.9,20.1-11c3.7-2.4,7.3-4.9,10.8-7.4c4.1-2.9,8-6,12-8.9c5.8-4.3,11.9-8.3,18.2-11.9c5.7-3.2,11.5-5.9,17.4-8.7
		c14.2-6.6,29.1-11.4,44.4-14.2c6.1-1.2,12.2-2,18.4-2.5c0.8,0,1.6-0.1,2.5-0.1c0.3,0.6,0.5,1.2,0.5,1.4c0.2,0.5,0.3,1,0.4,1.5
		c-0.7,0.2-1.2,0.4-1.8,0.5c-3.2,0.6-6.5,1.2-9.7,1.7c-10.5,1.8-20.8,4.7-30.8,8.6c-7.2,2.7-14.2,5.7-21,9.2
		c-3.8,2-7.5,4.1-11.2,6.3c-4.2,2.5-8.3,5.2-12.4,7.8c-0.7,0.4-1.4,0.9-2.1,1.4c-7.2,5.2-14,10.8-20.9,16.4
		c-5.5,4.6-11.1,9.1-16.6,13.7c-5.5,4.6-11.1,8.9-16.9,13c-9.9,7.1-20.6,13-31.9,17.8c-1.7,0.7-3.4,1.3-5.1,2
		C111.4,436.8,110.3,436.9,109.3,436.6z M217.8,381.7c-2.9,0.7-5.8,1.9-8.4,3.5c-4,2.3-7.8,4.9-11.5,7.8
		c-5.5,4.2-10.7,8.6-15.9,13.1c-7.1,6.2-14.2,12.3-22.1,17.4c-7.7,5.1-15.9,9.1-24.6,12.1c-6.4,2.1-13.1,2.8-19.7,2.1
		c-0.7-0.1-1.5,0.1-2.1-0.6c0.3-0.9,1.2-0.9,1.9-1.1c7.8-3.1,15.3-6.7,22.4-11c9-5.3,17.5-11.3,25.5-17.9
		c8.3-6.6,16.5-13.4,24.7-20.1c6.2-5.2,12.6-10,19.2-14.5c5.1-3.3,10.4-6.5,15.6-9.6c13.7-8.1,28.4-13.7,43.6-18.3
		c5.9-1.6,11.9-2.9,17.9-3.9c2.4-0.4,4.8-0.8,7.2-1.2c0.6-0.1,1.2-0.1,2-0.2c0.3,1,0.6,1.9,0.8,3c-0.4,0.3-0.9,0.6-1.4,0.8
		c-11,3.8-21.7,8.2-32.2,13.1c-6.8,3-13.3,6.4-19.7,10.2c-6.7,4-13.1,8.5-19.2,13.3C220.7,380.7,219.3,381.4,217.8,381.7z
		 M197.1,421.7c5.7-3.6,11.1-7.6,16.1-12.1c3.5-3.1,6.8-6.6,9.7-10.3c1.7-2.1,3.1-4.5,4.1-7.1c0.5-1.4,0.8-2.9,1-4.4
		c0.3-3.2-1.3-5.2-4.4-6l-1.6-0.4c0,0,0-0.1-0.1-0.2c-0.1-0.7,0.5-0.9,0.9-1.2c2.6-1.9,5-3.8,7.6-5.6c4.6-3.2,9.3-6.3,14.1-9
		c4.8-2.7,9.6-5.2,14.6-7.6c10.5-5,21.3-9.5,32.3-13.4c1-0.4,2-0.7,3-1c0.9,0.5,0.9,1.3,1,2.2c-0.7,0.4-1.4,1-2.2,1.4
		c-3.2,1.8-6.2,3.7-9.2,5.9c-6,4.4-11.4,9.6-16.2,15.4c-4.1,5-8.1,10.1-12.1,15.2c-4.8,6.1-10.1,11.8-15.8,16.9
		c-3.1,2.7-6.2,5.5-9.5,7.9c-6.8,5.2-14.4,9.2-22.5,12c-3.5,1.1-7,2-10.5,2.5c-0.5,0-0.9,0.1-1.4,0.1c-0.2,0-0.3-0.2-0.6-0.3
		C195.9,422.1,196.4,421.7,197.1,421.7z M237.2,465.3c-3.7-0.1-7.3-0.5-10.9-1.3c-4.4-1-8.7-2.3-13.1-3.4c-0.4-0.2-0.7-0.3-1.1-0.5
		c0.4-0.8,1.1-0.7,1.6-0.8c4.5-0.9,9-2.2,13.4-3.8c6.3-2.3,12.1-5.5,17.5-9.4c9.9-7.3,17.5-17.1,22.2-28.4c1.7-4.2,3.2-8.4,4.6-12.7
		c1.4-4.3,2.6-8.6,4-12.9c1.5-4.5,3.1-8.9,4.9-13.3c2.4-5.6,5.5-10.8,9.4-15.4c0.3-0.3,0.6-0.5,0.8-0.8l0.3,0.3
		c-0.1,0.3-0.2,0.7-0.5,1c-4.5,8.9-7.8,18.5-9.8,28.3c-1,4.6-1.7,9.2-2.5,13.8c-0.8,4.3-1.5,8.6-2.5,12.8c-1.6,7.5-4.7,14.7-9,21.1
		c-3.3,4.7-7,8.9-11.2,12.7c-2.3,2.1-4.6,4.2-7.1,6.1c-2.6,2.1-5.5,3.9-8.2,5.9C239.2,465.2,238.2,465.4,237.2,465.3z M292.1,383.5
		c-0.1,5.8-0.1,11.5-0.3,17.2c-0.1,5.5-0.6,11.1-1.5,16.6c-1.6,11.1-6.4,21.5-13.8,30c-4.2,4.9-9.2,9.1-14.8,12.5
		c-1.7,0.9-3.5,1.8-5.4,2.4c-4.3,1.7-8.9,2.7-13.6,2.9h-1.3l-0.2-0.4c0.3-0.2,0.6-0.4,1-0.7c4.7-3.2,9.3-6.7,13.5-10.6
		c7.7-7.1,14.1-15.2,17.9-25.1c1.5-3.7,2.6-7.6,3.4-11.6c0.9-4.6,1.6-9.2,2.4-13.8c0.9-6,2.1-12,3.7-17.9c1.9-7.2,4.6-14.2,8-20.9
		c0.3-0.9,0.9-1.7,1.6-2.4c0,0.3,0.1,0.6,0.1,1C292.1,369.6,292.2,376.6,292.1,383.5z M296.6,348.5c-0.2,1.2-0.8,2.3-1.8,3.1
		c-7.4,5.2-12.8,12.2-17.3,19.9c-3.2,5.4-6.1,10.9-9.1,16.4c-3.1,5.7-6.1,11.5-9.7,16.9c-4.1,6.2-8.9,11.7-14.5,16.5
		c-16.3,14-36.7,22.2-58.1,23.1c-8.5,0.5-17-0.1-25.3-1.9c-0.6-0.1-1.1-0.1-1.6-0.1c0.7,0.3,1.4,0.6,2.1,0.8
		c3.7,0.8,7.5,1.4,11.3,1.6c15,1.1,29.5-0.6,43.6-6.1c10.7-4.1,20.5-10,29.1-17.5c6.5-5.7,12-12.4,16.4-19.9
		c2.5-4.2,4.8-8.5,7.1-12.8c3.3-6.2,6.6-12.5,10.4-18.5c2.8-4.7,6.2-8.9,10-12.8c1.3-1.3,2.8-2.5,4.2-3.8c0.4-0.3,0.9-0.5,1.4-0.5
		c-0.6,2.6-0.7,5-2.6,7c-6.2,6.6-11,14.4-14,22.9c-1.7,4.6-3.2,9.3-4.7,13.9c-1.6,4.8-3,9.6-4.6,14.4c-2.6,7.9-6.6,15.4-11.7,22.1
		c-5.1,6.5-11.3,11.9-18.4,16.1c-8.6,4.9-18,8.3-27.7,9.8c-1.1,0.1-2.2,0.1-3.2-0.2c-3.1-0.7-6.1-1.5-9.2-2
		c-7.4-1.3-14.9-0.6-21.9,2c-2,0.8-4.2,0.9-6.3,0.5c-9.4-1.6-18.6-4.4-27.3-8.4c-0.7-0.3-1.5-0.6-2.3-0.8c0.7,0.5,1.4,0.9,2.1,1.3
		c8.3,3.9,17.1,6.7,26.1,8.3c0.7,0.2,1.5,0.3,2.2,0.5c0.1,0.1,0.1,0.1,0.2,0.2c0.1,0.5-0.4,0.6-0.7,0.7c-2.8,1.3-5.6,2.7-8.5,3.9
		c-1.5,0.6-3,1.1-4.6,1.4c-1,0.2-2.1,0.1-3.1-0.3c-5-2.2-9.9-4.5-14-8.2c-1.3-1.3-2.6-2.6-3.8-4c-0.4-0.6-0.8-1.2-1.2-1.8
		c0.2-1.6,1.3-2.2,2.3-2.9l3.1,0.9l-1.9-1.4c0.3-0.3,0.6-0.6,1-0.9c4.4-2.6,9.1-4.7,14-6.4l2.2,0.1c-0.1-0.3-0.1-0.5,0-0.9
		c0.7-0.3,1.4-0.7,2.2-1c6.9-3,13.9-5.8,20.8-8.9c4.2-1.8,8.2-4,12.3-6.1c1.2-0.6,2.4-1,3.7-1.1c5.9-0.6,11.6-2,17.1-4.2
		c5.4-2.2,10.5-5,15.3-8.3c11.3-7.7,20.9-17.3,29.4-28c3.6-4.6,7.2-9.2,10.9-13.8c6-7.3,13-13.7,20.9-18.8c2.2-1.6,4.5-2.9,7-4
		C296.5,347,296.8,347.7,296.6,348.5z M319.5,440.3c0.3,2.3,0.6,4.5,0.8,6.8c0.1,1.5-0.4,2.9-1.4,4c-0.3,0.3-0.6,0.5-1,0.7
		c-0.9-0.2-1.6-0.8-1.9-1.7c-0.3-0.8-0.5-1.6-0.6-2.4c0-3.2,1-6.4,3-8.9C319.1,439,319.5,439.6,319.5,440.3z M317.3,416.6
		c0.8,6,1.3,12,1.9,18c0,0.8,0.1,1.6,0.1,2.4c-0.9,0.3-2,0.4-2.5,1.4c-0.3,0.8-0.8,1.5-1.4,2.5c-0.3-0.8-0.5-1.7-0.5-2.6
		c-0.8-7.7-1.4-15.4-2.4-23c-4-32.5-12.3-64.4-24.6-94.8c-5-12.4-10.7-24.5-17-36.3c-3.9-7.2-8-14.2-12.4-21.1
		c-5-7.8-10.5-15.4-16.1-22.8c-7.9-10.6-15.9-21.1-23.8-31.7c-4.8-6.4-9.4-13-13.9-19.6c-8.3-12.3-15.7-25.1-22.1-38.5
		c-4.7-10.2-8.6-20.6-11.8-31.3c-5.6-18.6-9.8-37.5-12.7-56.7c-0.6-3.7-1.1-7.5-1.6-11.3c-0.1-0.7-0.1-1.5,0.2-2.2
		c0.1,0.6,0.3,1.1,0.4,1.7c4.1,20,9.7,39.6,15.7,59.1c1.8,5.9,3.5,11.8,5.4,17.7c3.8,11.5,8.6,22.6,14.3,33.2
		c3.9,7.2,8,14.4,12.5,21.3c3.4,5.3,6.9,10.5,10.5,15.6c7.9,11.3,16.2,22.2,24.5,33.2c5.6,7.3,11.2,14.7,16.6,22.2
		c4.5,6.3,8.7,12.9,12.6,19.6c10.3,17.7,19.2,36.3,26.4,55.5C306.4,356.6,313.7,386.3,317.3,416.6z M388.8,399.8
		c-2.1,1.2-4.4,2.1-6.8,2.6c-2.6,0.7-5.3,0.9-8,0.8c-2.6-0.1-5.1-0.3-7.7-0.8c-12-2.4-23.2-7.4-33-14.7c-5.3-4.1-9.8-9.2-13.1-15.1
		c-3.1-5.3-5.4-11.1-8-16.7c-0.6-1.4-1.3-2.8-2-4.3l0.4-0.3c0.3,0.2,0.6,0.4,0.8,0.4c2.6,2.5,5.3,5,7.9,7.6
		c8.8,9.1,18.8,17,29.7,23.5c11.7,7,24.6,12,38,14.7c1.1,0.3,2.2,0.5,3.5,0.7C390.2,399,389.6,399.5,388.8,399.8z M363.1,341
		c-2.6,0.7-5.1,1.8-7.3,3.3c-2.2,1.6-3.8,3.9-4.4,6.5c-0.1,0.3-0.2,0.7-0.3,1.1c-0.8,0.2-1.7,0.3-2.5,0.1c-4.9-0.4-9.7-1.4-14.4-2.8
		c-3.3-1-6.6-2-9.9-3c-4.7-1.4-9.5-2.3-14.4-2.6c-0.7,0-1.5,0-2.2,0.1c0.6,0.2,1.2,0.3,1.8,0.4c5.2,0.4,10.4,1.4,15.4,3
		c3,0.9,6,1.8,9,2.7c5.3,1.6,10.7,2.6,16.2,3h1c0.2,0.5,0.4,0.9,0.5,1.4c0.6,2.7,2.6,4.8,5.2,5.6c1.3,0.5,2.6,0.7,4,0.8
		c2.1,0.1,4.3,0.1,6.4,0c11.2-0.5,22.2-3.1,32.4-7.6c1.8-0.8,3.8-1.6,5.7-2.3c0.8-0.3,1.6-0.5,2.4-0.7c1.5-0.3,3.1,0.6,3.6,2.1
		c0.2,0.7,0.4,1.3,0.6,2c1.1,4.4,0.5,8.7-0.6,13.2c-0.8,0.3-1.6,0.6-2.4,0.8c-9.2,2.7-18.9,3.9-28.5,3.5c-14.4-0.4-28.7-4-41.6-10.5
		c-3.1-1.5-6.1-3.2-9.1-4.8c-5.7-3.1-11.5-6-17.5-8.5c-0.9-0.3-1.7-0.6-2.6-0.8c0.4,0.3,1,0.6,1.5,0.9c6.2,2.7,12.2,5.7,18.1,8.9
		c4,2.2,8,4.4,12.2,6.3c17.8,8.3,37.6,11.1,57,8.1c3.4-0.5,6.7-1.4,10-2.2c0.6-0.1,1.3-0.3,2.1-0.5c0,0.5-0.1,0.9-0.2,1.3
		c-1,2.8-2.3,5.4-3.8,8c-1.5,2.5-3.1,4.9-4.6,7.4c-0.2,0.3-0.4,0.6-0.5,1c-1.8,4.9-5.2,8.4-9.1,11.6c-0.9-0.1-1.7-0.2-2.5-0.3
		c-5-0.8-9.9-2-14.7-3.6c-17.3-5.5-33.2-14.7-46.7-26.9c-4.1-3.6-8-7.5-12-11.3c-2.3-2.1-4.6-4.1-6.9-6.1c-0.8-0.6-1.4-1.3-1.8-2.2
		l0.7-0.7c-0.5-0.3-1.1-0.5-1.6-0.8c-0.4-0.2-0.7-0.4-1-0.6c-0.4-0.3-0.7-0.6-1-1l3-0.3c-0.8-0.1-1.6-0.3-2.5-0.6
		c-0.9,0-1.8-0.2-2.7-0.5c0.4-0.3,0.9-0.5,1.3-0.7c4.4-1.3,9-2.1,13.7-2.3c8.9-0.3,17.9-0.4,26.8-0.4c6.6,0,13.3,0.3,19.9,0.4
		c0.4,0,0.9,0.1,1.3,0.4L363.1,341z M432.9,322.4c-0.6,8.3-6.3,15.2-14.3,17.5c-2.5,0.7-5.1,1.1-7.7,1c-3.9-0.1-7.8-0.1-11.7-0.4
		c-8.4-0.6-16.8-0.8-25.2-0.7c-7.2,0.1-14.5-0.2-21.7-0.4c-10.2-0.3-20.5-0.3-30.7,0c-6.1,0-12.2,0.9-18,2.7c-0.3,0-0.6,0.1-0.9,0.1
		c-0.1,0-0.1-0.1-0.2-0.1c0.5-0.8,0.5-0.8,0.9-1c4.5-2.1,9.1-3.8,13.8-5.1c10.3-3.1,21-5,31.7-5.8c9.1-0.6,18.2-1.3,27.2-2.1
		c9.8-0.8,19.5-2.6,29-5.2c6.9-1.9,13.6-4.6,19.9-8c1.7-0.9,3.4-2,5.1-3c0.7-0.6,1.5-0.9,2.3-1C432.9,314.7,433.1,318.5,432.9,322.4
		z M437.5,285.1c-0.3,2.6-0.7,5.2-1.3,7.7c-0.5,2.7-1.4,5.2-2,7.8c-0.7,3-1.4,6-2.1,9.2c-1.9,1.3-3.8,2.5-5.8,3.6
		c-9.7,5.5-20.2,9-31.1,11.2c-6.3,1.3-12.6,2.3-19,2.8c-7.9,0.7-15.8,1.4-23.7,1.9c-12.2,0.6-24.2,2.7-35.8,6.2
		c-4.6,1.3-9.1,3-13.4,5.1c-0.6,0.3-0.6,0.3-1.5,0.1c0.1-0.9,0.8-1.3,1.5-1.6c3-2,6.2-3.8,9.5-5.4c8.3-3.9,17-6.9,25.9-9
		c7.3-1.9,14.6-3.6,21.8-5.5c13.3-3.5,26.4-8,39.1-13.4c6.8-2.9,13.3-6.6,19.3-10.9c4.4-3.2,8.5-6.7,12.4-10.5
		c1.7-1.7,3.4-3.5,5.1-5.2c0.2-0.2,0.4-0.4,0.7-0.5c0.2,0.4,0.3,0.8,0.4,1.2C437.6,281.6,437.6,283.4,437.5,285.1z"/>
	<path d="M44.1,344c2.3-0.4,4.7-0.4,7,0c-0.3,0.1-0.6,0.2-0.8,0.2C48.2,344.1,46.1,344.5,44.1,344z"/>
	<path d="M37.9,344.1c1.3-0.4,2.7-0.4,4-0.1C40.6,344.4,39.2,344.4,37.9,344.1z"/>
	<path d="M41.8,344c0.8-0.4,1.6-0.4,2.4,0C43.5,344.4,42.6,344.4,41.8,344z"/>
	<path d="M35.6,344.1c0.8-0.3,1.6-0.3,2.4,0C37.2,344.4,36.4,344.4,35.6,344.1z"/>
	<path d="M30,344.2h2.4C31.7,344.6,30.8,344.6,30,344.2z"/>
	<path d="M24.3,309.9c3.7,0.5,7.5,1,11.2,1.5c0.2,0,0.4,0.2,0.6,0.3c-0.4,0-0.9,0-1.3,0c-3-0.4-6-0.9-9-1.4
		C25.2,310.3,24.8,310.1,24.3,309.9z"/>
	<path d="M34,331.1c-1.3,0.4-2.7,0.4-4,0.1C31.2,330.8,32.6,330.7,34,331.1z"/>
	<path d="M178.1,217.8c1.2-0.6,2.5-0.7,3.8-0.5C180.6,217.8,179.3,218,178.1,217.8z"/>
	<path d="M217.5,196.3c-0.2-1,0.1-2.1,0.8-2.9C218.4,194.4,218.1,195.4,217.5,196.3z"/>
	<path d="M186.7,205.6c1.2-0.4,2.5-0.3,3.7,0.2C189.1,206.1,187.9,206,186.7,205.6z"/>
	<path d="M183.4,205.8c1.1-0.5,2.3-0.6,3.4-0.2C185.7,205.9,184.5,206,183.4,205.8z"/>
</g>
</svg>
