<svg xmlns="http://www.w3.org/2000/svg" viewBox="0 0 177.14 189.38"><defs><style>.cls-1{fill:#fff;}.cls-2{fill:#f37d7f;}</style></defs><g id="Layer_2" data-name="Layer 2"><g id="Obj"><g id="color"><path d="M172.2,105.43a4.84,4.84,0,0,1-1.66-.5,15.73,15.73,0,0,1-2.71-2.25l-.29-.27c-2.63-2.57-4.77-5.58-7.14-8.36a27.4,27.4,0,0,0-4.51-4.68,36.09,36.09,0,0,0-4.78-2.68,36.47,36.47,0,0,0-5.55-2.43l-.29-.1a7.42,7.42,0,0,1,.95,1s0,0,0,0l.34.25c7.91,6.26,13.09,18.47,10.07,28.43-1.6,5.32-3.56,10.1-7.28,14.3-3.29,3.73-7.84,7.76-12.79,9-2.86.71-9,2.55-10.23-1.42-.53-1.64.67-3.27,1.89-4.24,2.14-1.7,4.66-2.9,6.85-4.54,5-3.73,9.89-7.89,13.48-13a55.11,55.11,0,0,0,6.83-13.74s0,0,0-.06a30.44,30.44,0,0,0-2.29-5.54,28.13,28.13,0,0,0-5.33-7.24,70.74,70.74,0,0,0-5.94-4.55,3.12,3.12,0,0,0-.39-.15c-.44-.14-.19-.8.24-.67,1.4.42,2.71,1.08,4.09,1.53a38.47,38.47,0,0,1,4.85,2.08,28,28,0,0,1,6.84,4.15c-.18-2,.74-4.4,1.05-6.2.41-2.41,1.65-4.6,2.64-6.8,1.12-2.52,3.12-5.85,3.18-8.64.06-3.37-2.43-8.56-6.09-9.11-1.66-.25-3.2-.81-4.89-.91A37.52,37.52,0,0,1,149,57.6a22.46,22.46,0,0,1-6.7-2.11c-2.54-1.39-4.77-3.14-7.24-4.63a19.39,19.39,0,0,0-4.11-2c-.38-.12-.77-.21-1.15-.31,6.61,6.38,7.25,16.36,4.95,24.94a74.43,74.43,0,0,1-3.17,9,61.57,61.57,0,0,1-4,7c-2.86,5-5.08,10.81-9.25,15-2.88,2.87-7,7-11.4,5s-.92-8.68,1-11.07c3.85-4.66,9.52-7.76,13.84-11.94,4.71-4.56,8.44-10.3,9.5-16.86a30.24,30.24,0,0,0,0-10.09,72.1,72.1,0,0,0-2.59-8.35c-1.43-4.48-3.11-10-1.77-14.69a10.16,10.16,0,0,1-5.56-3.54c-1.35-1.51-2.4-3.63-4.11-4.77a9.75,9.75,0,0,0-5.79-1.77c-3.24.13-7.1.36-10.16-1a14.4,14.4,0,0,1-4-2.4A28.78,28.78,0,0,0,100,29.83c1.92,3.34,4.53,6.16,6.67,9.35,1.4,2.1,2.86,4.53,3.19,7.09a31.78,31.78,0,0,1-.3,8.26c-.78,5.42-1.18,10.55-5,14.86-2,2.28-4.47,4-6.45,6.34-1.53,1.8-2.47,4-4,5.75-2.58,2.88-5.78,2.36-7.85-.85A17.32,17.32,0,0,1,84,73.16a33.28,33.28,0,0,1,.24-7.53c.5-5.64,2.4-10.95,4.22-16.28,2-5.93,3.49-11.69,3.25-18-.13-3.59-.53-7.28-3.26-10a13.7,13.7,0,0,0-6.49-3.29,31.3,31.3,0,0,1-10.63-3.21c-3.59-1.91-7-4.13-10.77-5.46a11.62,11.62,0,0,1,1.4,1.83,24.26,24.26,0,0,1,2.72,5.84A34.67,34.67,0,0,1,66.5,29.86,58.19,58.19,0,0,0,66.4,38a43.8,43.8,0,0,0,1.47,7.36c.54,2.07,1.19,4.28.87,6.43-.17,1.21-.41,3-1.3,3.93-2.2,2.28-4.84-.61-5.68-2.67a13.53,13.53,0,0,1-.58-5.34,60.24,60.24,0,0,1,.78-6.8,60.35,60.35,0,0,0,.89-7.33c.08-2.58.7-5.07.53-7.66-.15-2.42-.65-4.7-1-7.07a9.44,9.44,0,0,0-1.08-3.4A9,9,0,0,0,59,12.81c-5.62-3.28-13-2.47-19.26-2.52a42.77,42.77,0,0,1-9.91-.81,14.3,14.3,0,0,1-6.41-3.62,24.81,24.81,0,0,1,.7,3.35,46.37,46.37,0,0,1,.4,5.26,35.75,35.75,0,0,1-2,12,122.82,122.82,0,0,1-4.74,12.35,39.58,39.58,0,0,0-2.28,6.07,4.17,4.17,0,0,1-.56,1.45c3.93,3.92,7.29,8.47,12,11.46a35,35,0,0,0,7.53,3.91,62.43,62.43,0,0,0,7.12,1.82c3.82.8,8.46,1.7,11.42,4.4,2.16,2,4.76,5.29,2.31,8C52.49,79,47.62,78.32,44,77.44a22.58,22.58,0,0,1-11.48-6.23c-6.85-7.13-15.22-12.92-20.62-21.35.77,3.72-.52,7.68-2.18,11C7.6,65,5,68.93,2.81,73c-2.7,4.92-4.64,10.94-.05,15.52a26.32,26.32,0,0,0,6.53,5.09c1.43.69,3.18,2,4.88,2.25.82-.07,2.17-.16,2.49-.15,1.46.07,2.91.17,4.35.21,3,.09,6,.11,8.94.16a84.33,84.33,0,0,0,9.67-.23c3-.3,5.88-.79,8.84-1.1a42.62,42.62,0,0,1,15.6,1.43,19,19,0,0,1,6.83,3.2c1.13.89,2.7,2.9,2.4,4.48-.94,4.83-8,5.83-11.9,6.36-4.75.66-10.18-.69-14.65-2.26-5.61-2-10.87-5.21-16.74-6.36a19.78,19.78,0,0,0-8.49-.21c-2.77.69-6.35,2.36-7.46,5.17a.44.44,0,0,1-.19.23c-.06.53-.19,1.08-.23,1.41a23.46,23.46,0,0,0,0,5.74c.55,4,.9,8,1.18,12,.48,7.16,0,13.8-5.27,19.07A13.31,13.31,0,0,0,14,143.32a18.19,18.19,0,0,0,4.15-2.68,72.47,72.47,0,0,0,6.24-5.49c1.69-1.86,3.59-3.67,6.13-4.17,2.94-.59,5.75-1.73,8.63-2.57,3.41-1,6.85-1.9,10.16-3.15,2.74-1.06,5.49-2.15,8.29-3.06,5-1.63,10.47-.76,15.26,1.24,3.78,1.55,8.11,4.77,7.31,9.38-.85,4.84-8.46,5.69-12.24,5.86a36.48,36.48,0,0,1-8.85-.67,67.67,67.67,0,0,1-7.56-2.52c-3-1-6-1.91-9-2.81C40.18,132,37,130.47,34.6,131a.38.38,0,0,1-.24,0c-.5.15-1,.29-1.48.45-1.31.42-2.83.35-4,1.07a13.6,13.6,0,0,0-2.91,2.29,28.72,28.72,0,0,1-3.05,3.09c-.9.7-1.89,1.32-2.72,2.11-.68.63-1.37,1.25-2.09,1.82,1.53,3.83-4.16,7.27-1.92,11.17.84,1.45,2.17,3,1.95,4.79a8.9,8.9,0,0,1-.94,3.06c3.36-2,6.4-3.53,10.51-3.26A54.39,54.39,0,0,1,42,160.47c4.71,1.64,8.89,4.34,14,4.69,4.76.33,8.65-1.12,12.54-3.31a.29.29,0,0,1,.1-.08l.15-.06c.76-.42,1.51-.88,2.28-1.36,2.1-1.3,18.09-13.26,19.17-7,.25,1.48-1.86,2.89-2.75,3.71a12.6,12.6,0,0,1-5,3.06,46.92,46.92,0,0,1-7.4,1.51c-1.3.13-2.77,0-4.15.16a31,31,0,0,1-6.55,3.36,21.61,21.61,0,0,1-11.77.61,29.17,29.17,0,0,1-6-2.18c-.47,0-1,0-1.29,0a16.3,16.3,0,0,0-4.24.2,29.52,29.52,0,0,0-6.85,2c-2.26,1.06-4.84,2.56-6.12,4.82-.53.91-.93,1.93-1.46,2.86,1.12,1.61,1.79,3.36,3.19,4.85a31.09,31.09,0,0,0,4.57,3.84,34.25,34.25,0,0,0,10.18,5.14c8,2.24,17.78,3.58,25.38-.48a60.8,60.8,0,0,0,11.07-7.55,72.16,72.16,0,0,0,8.33-9.38c2.71-3.36,5.32-6.83,8-10.24,1.88-2.39,4.23-5.06,7-6.43a.51.51,0,0,1,.25-.23,86,86,0,0,0-.92-9.32,123.55,123.55,0,0,0-5.17-19.35A152.87,152.87,0,0,0,81.13,89.39a163.65,163.65,0,0,0-11.9-15.24C65,69.22,60.91,64.1,56.45,59.35c-2.21-2.37-4.45-4.75-6.82-7C47.57,50.45,45.06,49,43.06,47s-4.18-4.23-6.17-6.4a19.63,19.63,0,0,1-1.74-2.36,18,18,0,0,1-2.73-3.67l0,0-.09-.18c-.12-.25.25-.42.39-.18l.09.14a.27.27,0,0,1,.31.12c.51.85,1.17,1.38,1.74,2.16s1.2,1.54,1.8,2.28c1.15,1,2.35,2,3.52,3C42.51,44,44.77,46,47.32,47.79a97.41,97.41,0,0,1,13.45,11.8C65,64,69.52,68.66,73,73.7c7.39,10.63,16.07,20.58,21.85,32.24,5.56,11.22,10.29,23,12.88,35.26a69.93,69.93,0,0,1,1.46,10.74,4.24,4.24,0,0,1,1.94-.21,16.66,16.66,0,0,1,3.27.82c2.47,1,4.72,2.38,7.11,3.52a57.57,57.57,0,0,0,8,2.82,45.3,45.3,0,0,0,8.28,2c11.25,1.36,24.34-3.55,28.94-14.61,2.17-5.25,4-10.33,4.31-16.07.14-2.52-.54-5-.64-7.51a31.48,31.48,0,0,1,.9-7.85c.52-2.42,1.11-4.78,1.52-7.22a8.25,8.25,0,0,1,.33-1.07C173.51,105.13,172.83,105.54,172.2,105.43ZM94.6,132.35c1.11.61.69,2.22.14,3.46a24,24,0,0,1-3.34,6,21.6,21.6,0,0,1-7.28,6.52c-2.56,1.47-5.94,3-9,2.32-1.69-.37-3.53-1.82-2.7-3.76,1.19-2.81,3.92-4.57,6.37-6.21C82,138.53,85,136,88.22,133.83,89.94,132.71,92.55,131.23,94.6,132.35ZM82.08,109.67c1.9-.37,4.18-.55,5.92.49,1.46.86,3,2.66,2.57,4.5-.92,3.78-5.8,5.53-9.73,5.27a3.93,3.93,0,0,1-.9,0,25.37,25.37,0,0,0-2.62-.47,9.51,9.51,0,0,1-3.62-.69c-1.84-.68-5.8-1.28-6.26-3.65-.33-1.66,4-2.39,4.92-2.67,2.1-.59,4.2-1,6.26-1.77A22.2,22.2,0,0,1,82.08,109.67ZM68.22,81.28C70,82,71.82,82.73,73,84.37a3,3,0,0,1,.36.67c1.14.71-.56,2.53-1.07,3-1.74,1.71-4.7,1.9-7,1.83s-5.12-.15-7.15-1.61c-1.31-1-3-2.8-2.2-4.59C57.93,79.17,64.35,79.66,68.22,81.28Zm32,21.58A5.75,5.75,0,0,1,98,104.27c-.71.36-1.49.63-1.94-.33-.64-1.37-.28-3.55.22-4.92.93-2.63,3.37-7.29,6.77-7.11,1,0,2.48.55,2.4,1.81-.1,1.49-1.59,2.44-2.25,3.72C102.24,99.22,101.7,101.46,100.17,102.86Z"/><path d="M102.06,126.64c4.63,12,8,24.49,7,37.49-.15,1.82-1.6,1.5-1.8.17-.08-.54-.13-1.08-.23-1.61a41.61,41.61,0,0,1-.33-4.86c-.11-3-.45-5.93-.85-8.88a107.33,107.33,0,0,0-4.47-18.08A155.49,155.49,0,0,0,84.94,96.08C78.23,85.34,69.53,75.81,61.29,66.23A114.66,114.66,0,0,0,48.53,53.29c-2-1.64-3.89-3.14-5.74-4.87.53.44,1.07.89,1.6,1.3,5.06,4,10.13,7.65,14.69,12.21,4.38,4.38,8.4,9.12,12.41,13.85,2.05,2.42,3.65,5.15,5.61,7.63,2.13,2.68,4.12,5.47,6.16,8.22a124.59,124.59,0,0,1,11.11,17.29A187.7,187.7,0,0,1,102.06,126.64Z"/><path d="M103.25,72.69a41.62,41.62,0,0,0,2-15,69.72,69.72,0,0,0-2.41-15c-.73-2.91-1-5.95-1.8-8.84l-.09-.36c1.12,2.47,5.23,4.2,6.94,6.47A44.34,44.34,0,0,1,113,47.74c1.54,3.27-1.24,8.21-1.54,11.7-.25,2.83-1.87,5.39-2.59,8.13A17.38,17.38,0,0,1,103.55,76c-1,1-2.06,1.91-3,2.87A57.25,57.25,0,0,0,103.25,72.69Z"/></g><g id="_1" data-name="1"><g id="color-2" data-name="color"><path class="cls-1" d="M14.51,140.16c5.17-5.21,5.68-11.76,5.19-18.84-.27-4-.61-7.91-1.16-11.88a22.89,22.89,0,0,1,0-5.67c0-.33.15-.86.22-1.38a.6.6,0,0,0,.18-.23c1.1-2.78,4.64-4.44,7.37-5.11a19.63,19.63,0,0,1,8.39.2c5.81,1.14,11,4.34,16.53,6.28,4.42,1.55,9.79,2.9,14.48,2.25,3.84-.54,10.83-1.53,11.75-6.29.3-1.56-1.25-3.54-2.37-4.42a18.75,18.75,0,0,0-6.75-3.16,41.82,41.82,0,0,0-15.41-1.42c-2.92.31-5.81.79-8.73,1.08a77.88,77.88,0,0,1-9.54.23c-3,0-5.9-.06-8.84-.15-1.43-.05-2.86-.15-4.29-.21-.33,0-1.66.08-2.46.15-1.69-.26-3.42-1.54-4.83-2.22a25.92,25.92,0,0,1-6.44-5C3.26,79.82,5.19,73.87,7.85,69c2.2-4,4.73-7.89,6.78-12,1.64-3.29,2.93-7.2,2.16-10.87,5.34,8.32,13.6,14.05,20.37,21.08A22.15,22.15,0,0,0,48.5,73.38c3.61.87,8.42,1.57,11.21-1.48,2.41-2.65-.16-5.93-2.29-7.87-2.93-2.68-7.51-3.57-11.28-4.35a61.36,61.36,0,0,1-7-1.79A35,35,0,0,1,31.66,54c-4.69-2.95-8-7.44-11.89-11.31a3.75,3.75,0,0,0,.55-1.44,40.16,40.16,0,0,1,2.26-6,120.57,120.57,0,0,0,4.68-12.19,35.36,35.36,0,0,0,2-11.88A43.17,43.17,0,0,0,28.85,6a24.88,24.88,0,0,0-.68-3.3A14.06,14.06,0,0,0,34.5,6.25a42.25,42.25,0,0,0,9.78.81c6.18,0,13.47-.76,19,2.49h0a8.3,8.3,0,0,1,3.42,6c.32,2.34.81,4.59,1,7,.16,2.56-.45,5-.53,7.57a59.28,59.28,0,0,1-.88,7.25A60.34,60.34,0,0,0,65.51,44a13.37,13.37,0,0,0,.57,5.27c.83,2,3.45,4.88,5.61,2.64.88-.9,1.13-2.69,1.3-3.88.3-2.13-.34-4.31-.87-6.35a45.13,45.13,0,0,1-1.46-7.28,58.3,58.3,0,0,1,.1-8,34.3,34.3,0,0,0-1.83-12.63A25.09,25.09,0,0,0,66.23,8a12.27,12.27,0,0,0-1.38-1.81c3.77,1.33,7.09,3.51,10.63,5.4A30.87,30.87,0,0,0,86,14.75,13.62,13.62,0,0,1,92.41,18c2.68,2.64,3.08,6.29,3.21,9.83.23,6.25-1.2,11.94-3.21,17.81-1.8,5.25-3.68,10.51-4.17,16.07A33.7,33.7,0,0,0,88,69.16a17.3,17.3,0,0,0,2.31,7.39c2,3.17,5.22,3.68,7.77.83,1.54-1.72,2.47-3.91,4-5.67,2-2.28,4.4-4,6.38-6.28,3.73-4.24,4.13-9.31,4.89-14.68a31.81,31.81,0,0,0,.3-8.15,17.29,17.29,0,0,0-3.16-7c-2.11-3.15-4.69-5.94-6.59-9.25a28.63,28.63,0,0,1-2.57-6.73,14.68,14.68,0,0,0,4,2.37c3,1.32,6.83,1.1,10,1A9.55,9.55,0,0,1,121,24.71c1.7,1.12,2.73,3.21,4.06,4.71a10,10,0,0,0,5.51,3.5c-1.34,4.64.32,10.09,1.73,14.5a70.25,70.25,0,0,1,2.56,8.25,29.53,29.53,0,0,1,0,10c-1,6.49-4.73,12.16-9.37,16.65-4.28,4.14-9.88,7.21-13.67,11.81-2,2.35-5.46,9-1,10.92s8.42-2.13,11.26-5c4.13-4.12,6.32-9.81,9.14-14.8a62.44,62.44,0,0,0,3.9-6.89,72.61,72.61,0,0,0,3.13-8.85c2.27-8.47,1.64-18.33-4.89-24.64.38.1.77.18,1.14.3a20.23,20.23,0,0,1,4.06,2c2.44,1.47,4.64,3.19,7.15,4.56a21.66,21.66,0,0,0,6.62,2.09,36.49,36.49,0,0,0,4.3.48c1.68.11,3.21.66,4.84.9,3.61.54,6.08,5.67,6,9-.06,2.76-2,6-3.14,8.53-1,2.18-2.2,4.34-2.61,6.73-.3,1.78-1.2,4.16-1,6.12a26.81,26.81,0,0,0-6.75-4.09,34.91,34.91,0,0,0-4.79-2.06c-1.37-.45-2.66-1.1-4-1.51-.43-.13-.67.51-.24.65l.4.15a68.83,68.83,0,0,1,5.85,4.5,27.68,27.68,0,0,1,5.27,7.16,28.26,28.26,0,0,1,2.26,5.46s0,0,0,.06a54.71,54.71,0,0,1-6.76,13.58c-3.54,5.09-8.36,9.19-13.3,12.87-2.18,1.63-4.66,2.81-6.78,4.5-1.19,1-2.39,2.56-1.87,4.17,1.26,3.94,7.28,2.11,10.12,1.41,4.88-1.2,9.38-5.18,12.62-8.85,3.68-4.15,5.61-8.87,7.2-14.13,3-9.85-2.13-21.9-9.95-28.09l-.34-.25a0,0,0,0,0,0,0,6.85,6.85,0,0,0-1-1l.29.11a34.22,34.22,0,0,1,5.48,2.4,34,34,0,0,1,4.72,2.65,26,26,0,0,1,4.46,4.61c2.34,2.76,4.46,5.73,7,8.26a3.85,3.85,0,0,0,.3.27,15.8,15.8,0,0,0,2.67,2.23,4.7,4.7,0,0,0,1.64.48c.62.12,1.29-.29.93,1.08a9.93,9.93,0,0,0-.32,1.06c-.41,2.41-1,4.74-1.5,7.12a30.36,30.36,0,0,0-.88,7.76c.1,2.49.76,4.92.63,7.41-.31,5.67-2.12,10.7-4.27,15.89-4.53,10.92-17.47,15.77-28.58,14.42a45.86,45.86,0,0,1-8.18-1.92,57.6,57.6,0,0,1-7.88-2.79c-2.35-1.12-4.58-2.52-7-3.47a16.53,16.53,0,0,0-3.24-.81,4.27,4.27,0,0,0-1.91.2,70.74,70.74,0,0,0-1.44-10.61c-2.57-12.1-7.24-23.75-12.73-34.82C93.09,90,84.51,80.19,77.21,69.7c-3.46-5-7.93-9.56-12.11-13.94A93.69,93.69,0,0,0,51.82,44.11c-2.52-1.81-4.75-3.79-7.09-5.81-1.14-1-2.34-2-3.47-3-.6-.73-1.2-1.47-1.78-2.26s-1.22-1.29-1.72-2.12a.25.25,0,0,0-.3-.12l-.1-.15c-.13-.23-.5-.06-.38.18l.09.19,0,0a17.44,17.44,0,0,0,2.7,3.61A17.49,17.49,0,0,0,41.52,37c2,2.15,4,4.28,6.09,6.34s4.45,3.43,6.49,5.33c2.34,2.19,4.55,4.55,6.74,6.89,4.4,4.69,8.43,9.74,12.62,14.62a161,161,0,0,1,11.76,15,150.4,150.4,0,0,1,17.19,34.46,121.43,121.43,0,0,1,5.11,19.12,83.72,83.72,0,0,1,.91,9.21.44.44,0,0,0-.25.21c-2.74,1.37-5.07,4-6.92,6.36-2.63,3.36-5.2,6.79-7.89,10.12-2.56,3.17-5.13,6.58-8.22,9.26a59.8,59.8,0,0,1-10.93,7.46c-7.52,4-17.22,2.68-25.07.48a34,34,0,0,1-10.07-5.09A29.7,29.7,0,0,1,34.57,173c-1.37-1.46-2-3.2-3.15-4.79.52-.92.93-1.92,1.44-2.82,1.26-2.23,3.82-3.72,6-4.76a29,29,0,0,1,6.77-2,16.26,16.26,0,0,1,4.18-.19c.34,0,.81,0,1.27,0a27.78,27.78,0,0,0,5.92,2.15,21.34,21.34,0,0,0,11.64-.6,30.6,30.6,0,0,0,6.46-3.31c1.37-.15,2.81,0,4.11-.16a46.58,46.58,0,0,0,7.3-1.5,12.4,12.4,0,0,0,4.91-3c.88-.8,3-2.2,2.71-3.67-1.06-6.13-16.85,5.69-18.93,7-.75.47-1.5.91-2.25,1.34l-.15.06a.27.27,0,0,0-.1.08c-3.84,2.15-7.69,3.59-12.38,3.27-5-.35-9.17-3-13.82-4.65a53.41,53.41,0,0,0-14.13-2.89c-4.06-.27-7.07,1.28-10.39,3.22a9,9,0,0,0,.94-3c.21-1.79-1.1-3.31-1.92-4.74-2.23-3.86,3.4-7.25,1.88-11,.71-.57,1.4-1.17,2.07-1.81s1.79-1.38,2.68-2.07a28.14,28.14,0,0,0,3-3.06,14.06,14.06,0,0,1,2.88-2.27c1.18-.7,2.69-.63,4-1l1.46-.45a.33.33,0,0,0,.24,0c2.37-.5,5.51,1,7.77,1.68,3,.89,6,1.78,8.94,2.78a65.76,65.76,0,0,0,7.45,2.49,35.74,35.74,0,0,0,8.76.66c3.72-.16,11.24-1,12.08-5.79.79-4.54-3.49-7.73-7.22-9.27-4.74-2-10.12-2.83-15.08-1.22-2.76.9-5.48,2-8.19,3-3.27,1.25-6.67,2.13-10,3.11-2.85.83-5.63,2-8.54,2.55-2.51.5-4.38,2.27-6,4.12A74.18,74.18,0,0,1,23,135.82a17.88,17.88,0,0,1-4.1,2.65A13.56,13.56,0,0,1,14.51,140.16ZM115,122.64c-1.35,1.31-3,2.81-2.08,4.85.58,1.2,3.19,1,4.41.58a19.69,19.69,0,0,0,3-.75c2.85-.92,5.34-3.12,7.3-5.31s3.39-3.88,3.68-6.75c.21-2-.86-4.36-3.14-4.57-2-.18-4.51,2.83-5.71,4.15C120.08,117.52,117.61,120.13,115,122.64ZM99.92,99.57c.45.94,1.22.68,1.92.33A5.71,5.71,0,0,0,104,98.51c1.51-1.39,2-3.6,3-5.37.65-1.26,2.13-2.19,2.22-3.67.08-1.24-1.42-1.73-2.37-1.78-3.36-.18-5.76,4.42-6.69,7C99.66,96.06,99.29,98.22,99.92,99.57ZM80.47,71.17a15.79,15.79,0,0,0,1.59,1.68c.4.39.7.15,1.14.38a.37.37,0,0,0,.54-.19,1.39,1.39,0,0,0,1.07-1c.77-1.93.08-4-.54-5.85-.84-2.56-1.79-7.08-4.18-8.75a1.21,1.21,0,0,0-1.76.66,9.19,9.19,0,0,0,0,6.27C79,66.52,79.13,69.35,80.47,71.17Zm18.06,56.46c-2-1.11-4.61.35-6.31,1.46-3.22,2.09-6.12,4.65-9.31,6.78-2.41,1.61-5.11,3.36-6.29,6.13-.82,1.92,1,3.36,2.67,3.71,3,.64,6.35-.83,8.88-2.29A21.44,21.44,0,0,0,95.36,137a23.35,23.35,0,0,0,3.3-6C99.21,129.82,99.62,128.24,98.53,127.63ZM76.47,83.9c.51-.5,2.19-2.3,1.06-3a2.93,2.93,0,0,0-.36-.65c-1.15-1.63-3-2.32-4.71-3-3.82-1.6-10.15-2.09-12.17,2.41-.79,1.77.88,3.58,2.19,4.52,2,1.44,4.7,1.52,7.06,1.6S74.75,85.59,76.47,83.9Zm1.41,30.34a9.3,9.3,0,0,0,3.57.69c.81,0,1.76.38,2.59.46a4.45,4.45,0,0,0,.89,0c3.88.25,8.7-1.47,9.61-5.21.44-1.83-1.1-3.59-2.54-4.45-1.72-1-4-.85-5.84-.49a22.46,22.46,0,0,0-3.42,1c-2,.74-4.1,1.17-6.18,1.75-1,.27-5.19,1-4.86,2.65C72.15,113,76.06,113.58,77.88,114.24Z"/><path class="cls-2" d="M111.85,155.07c-.14,1.79-1.58,1.49-1.78.16-.08-.53-.13-1.06-.22-1.59a40.45,40.45,0,0,1-.33-4.8c-.11-2.94-.45-5.85-.84-8.77a104.87,104.87,0,0,0-4.42-17.85A153.06,153.06,0,0,0,88,87.85c-6.62-10.61-15.22-20-23.36-29.48a111.91,111.91,0,0,0-12.6-12.79c-1.93-1.62-3.84-3.1-5.67-4.81.53.44,1.05.87,1.59,1.29C53,46,58,49.61,62.5,54.12c4.34,4.33,8.31,9,12.26,13.67,2,2.39,3.6,5.1,5.54,7.55,2.1,2.64,4.07,5.4,6.08,8.12a121.68,121.68,0,0,1,11,17.08A188.13,188.13,0,0,1,105,118C109.53,129.92,112.91,142.22,111.85,155.07Z"/><path d="M30.55,163.28a18.18,18.18,0,0,0-.11-4.28,12.61,12.61,0,0,0,3.8.91,25.11,25.11,0,0,0,3.24.35,14.55,14.55,0,0,0-6.94,7.42C30.61,166.22,30.51,164.75,30.55,163.28Z"/><path d="M16,135.13c.85-2.87,1.36-5.76,2-8.66a32.75,32.75,0,0,0,.67-5.73,51,51,0,0,1,0,8.74,20.09,20.09,0,0,1-1.76,5.82,9.73,9.73,0,0,1-1.52,2.31C15.67,136.69,15.85,135.75,16,135.13Z"/><path d="M105.56,63.48a40.61,40.61,0,0,0,2-14.84,68.76,68.76,0,0,0-2.38-14.84c-.72-2.87-1.83-5.63-2.62-8.48,0-.12-.06-.24-.09-.36a36.49,36.49,0,0,0,4.22,7,44,44,0,0,1,5.08,7.74c1.52,3.22,1,6.8.74,10.24a53,53,0,0,1-1.33,8.52,17.28,17.28,0,0,1-5.3,8.28c-1,1-2,1.87-3,2.83A54.84,54.84,0,0,0,105.56,63.48Z"/></g><g id="line"><path d="M97.1,118.16a19.24,19.24,0,0,1-7.71,2.5c-5,.46-9.63-.69-14.28-2.27-.15,0-.28.17-.13.26,3.71,2.23,8.76,3,13,2.87a19.16,19.16,0,0,0,7-1.5c2.53-1.07,4.64-2.68,7.33-3.19-.09-.25-.19-.49-.28-.74C100.28,116.12,98.7,117.26,97.1,118.16Z"/><path d="M84.39,96.65c2.55-.67,5.07-1.44,7.62-2.09l-.38-.67a8.52,8.52,0,0,1-.84.2,34.29,34.29,0,0,0-4.4,1.24A64.36,64.36,0,0,1,76.79,98a.1.1,0,0,0,0,.19C79.21,98.89,82.07,97.25,84.39,96.65Z"/><path d="M114.1,127.6c-.53.45-1.28.7-1.77,1.16s-1,1-1.46,1.43a10.45,10.45,0,0,0-1.45,1.37c0,.17.09.34.13.51h0c1.58-.2,2.55-2.27,3.84-3.1.24-.16,1.45-1,.83-1.38A.11.11,0,0,0,114.1,127.6Z"/><path d="M86.48,125.21a21.38,21.38,0,0,0,5.58-1.3c1.84-.68,3.62-1.53,5.46-2.21,1.67-.62,4.17-1.66,6.06-1.48-.07-.22-.15-.43-.22-.64-1.1-.22-2.27.35-3.34.61a42.17,42.17,0,0,0-5.53,1.94,44.28,44.28,0,0,1-6.94,2.35,6.47,6.47,0,0,1-3.15.11c-.57-.17-.7-.33-1.26-.17-.19,0-.21.37,0,.37C84.28,124.77,85.28,125.3,86.48,125.21Z"/><path d="M78.52,95.34c-1.3.28-2.71-.17-3.93.24a.07.07,0,0,0,0,.13,17.17,17.17,0,0,0,3.3.29,41.28,41.28,0,0,0,4.9-1c1.67-.36,3.35-.64,5-1a25.38,25.38,0,0,1,3.6-.47L91,92.71c-2.27-.06-4.71.89-6.84,1.33C82.25,94.43,80.4,95,78.52,95.34Z"/><path d="M118.65,127.3a45.38,45.38,0,0,0-5.55,3.7,13,13,0,0,0-3.09,2.92c.08.33.15.66.22,1a22.64,22.64,0,0,1,3.35-3.36,49.46,49.46,0,0,0,5.29-3.91C119,127.48,118.86,127.19,118.65,127.3Z"/><path d="M102,126.42c-1,.4-1.87.84-2.84,1.23-.32.14-.92.21-1.16.48a.13.13,0,0,0,0,.22v0a.23.23,0,0,0,.25.13,10.43,10.43,0,0,0,3.23-1c1.35-.71,2.74-.46,4.17-.62-.07-.22-.13-.44-.2-.66A5.56,5.56,0,0,0,102,126.42Z"/><path d="M93.79,111a8.39,8.39,0,0,0,2.78-.63,14.37,14.37,0,0,0,2.93-.83c-.13-.29-.24-.58-.37-.87l-.2.06a24.14,24.14,0,0,1-2.51.75c-.75.17-2.51.48-2.75,1.32A.16.16,0,0,0,93.79,111Z"/><path d="M93.61,93.63l-.2,0c.11.16.21.33.31.49A.26.26,0,0,0,93.61,93.63Z"/><path d="M97.16,107.17c.35-.1.67,0,1-.24a.17.17,0,0,0,0-.24c-.41-.5-1.18-.16-1.69,0s-.78.32-1.18.46a4.67,4.67,0,0,1-2,.2.17.17,0,0,0,0,.34,4,4,0,0,0,2.52,0C96.24,107.5,96.68,107.3,97.16,107.17Z"/><path d="M108.65,111.19c1.85-1.41,4-2.3,5.89-3.6A38,38,0,0,0,124.5,97a.11.11,0,0,0-.18-.13,40.71,40.71,0,0,1-10.74,10.64c-1.77,1.13-3.69,1.91-5.42,3.15s-3.11,2.45-4.69,3.61c.11.26.21.52.31.78l0,0C105.45,113.81,107,112.44,108.65,111.19Z"/><path d="M88.84,73a17.61,17.61,0,0,1-.28,6.43c-.19.86-.35,1.73-.49,2.61s.07,1.85-.09,2.74c0,.14.17.16.22,0a6.87,6.87,0,0,0,.35-2.08c.18-1.32.54-2.61.79-3.92.37-1.93.91-4.19-.27-5.94C89,72.76,88.83,72.87,88.84,73Z"/><path d="M90.8,88.66a.18.18,0,0,0,.35.08,2.77,2.77,0,0,0,.14-1.4,16.63,16.63,0,0,1,.43-4.09c.25-1.81,1-3.89,0-5.6,0-.11-.24-.1-.24,0a37.52,37.52,0,0,1-.43,5.5A34.73,34.73,0,0,0,90.8,88.66Z"/><path d="M97.1,99.23a17.76,17.76,0,0,0,.53-3.43,29.94,29.94,0,0,1,1.65-5.72c1.39-3.74,3.47-7.13,5.22-10.7,1.55-3.18,2.94-6.47,4.37-9.7a30.46,30.46,0,0,0,2.72-10c0-.11-.16-.16-.19,0a58.38,58.38,0,0,1-3.14,9.84c-1.47,3.42-3,7-4.71,10.24a88.06,88.06,0,0,0-4.72,9.48,32.65,32.65,0,0,0-1.56,4.59c-.36,1.7-.34,3.52-.74,5.19l.24.46A.29.29,0,0,0,97.1,99.23Z"/><path d="M80,70.39a3.24,3.24,0,0,1-.21,2A2,2,0,0,0,79.86,74a.15.15,0,0,0,.2,0c.24-.18.25-.26.29-.55a5.31,5.31,0,0,0,0-.69,4.33,4.33,0,0,1,.19-.77,2.54,2.54,0,0,0-.08-1.8C80.35,69.94,79.87,70.06,80,70.39Z"/><path d="M71,92.93a37.27,37.27,0,0,0,6.25.15,24.29,24.29,0,0,0,5.3-1.3c2.07-.67,4-1.92,6.29-1.91a.38.38,0,0,0,.33-.21l-.3-.49c-.88-.41-1.88.06-2.77.35-1.72.54-3.33,1.35-5,1.91a21.1,21.1,0,0,1-7.27,1c-1.14,0-2.28-.13-3.42-.21a10.57,10.57,0,0,1-3.72-.46c-.15-.07-.26.16-.13.25C67.7,92.9,69.56,92.81,71,92.93Z"/><path d="M84.55,71.13a21.29,21.29,0,0,0-1.28,3.78,10.78,10.78,0,0,0-.27,3.8.14.14,0,0,0,.28,0,19.94,19.94,0,0,1,.72-4,9.5,9.5,0,0,0,.88-3.45C84.88,71.09,84.65,71,84.55,71.13Z"/><path d="M87.79,66.26c-.2,1.43.06,2.85-.08,4.29a30.7,30.7,0,0,1-1.22,4.8c-.52,1.91-1.2,5-.32,6.89a.11.11,0,0,0,.21-.07c-.52-5.51,3.15-10.44,1.65-15.92A.12.12,0,0,0,87.79,66.26Z"/><path d="M94.36,105a20.16,20.16,0,0,1-3.44.61.19.19,0,0,0,0,.37,11.74,11.74,0,0,0,4-.43c.76-.19,1.81-.7,2.58-.4-.13-.26-.24-.53-.37-.79a3.14,3.14,0,0,0-.86.08C95.63,104.59,95,104.81,94.36,105Z"/><path d="M112.64,105c-2.18.74-4.26,2.37-6.18,3.63-1.22.79-3.06,1.65-4.09,2.89.12.28.23.56.35.85,2.86-2.91,7-4.47,10-7.18C112.87,105.13,112.76,105,112.64,105Z"/><path d="M74.82,102.75a25.38,25.38,0,0,1,3.82-.8,45.75,45.75,0,0,0,5.2-1.7c3.18-1,6.79-2.9,10.16-2.06l-.54-1A3.46,3.46,0,0,0,92,97.09a26,26,0,0,0-5.31,1.29c-2.48.89-4.92,1.9-7.44,2.7-1.44.46-3.38.51-4.61,1.43C74.52,102.62,74.68,102.81,74.82,102.75Z"/><path d="M90.24,113.92c-.14.1,0,.29.16.24a12,12,0,0,1,1.83-.23,14.2,14.2,0,0,0,2.53-.85c1.7-.68,3.72-1.23,5.2-2.39l-.25-.61c-1.78.65-3.56,1.56-5.27,2.34C93.12,113,91.41,113.08,90.24,113.92Z"/><path d="M96,78.4c0,2.46-1.13,5-1.83,7.34a19.65,19.65,0,0,0-1,7c0,.18.29.15.31,0a48,48,0,0,1,1.9-8.77c.37-1.16.69-2.32,1.07-3.47a2.47,2.47,0,0,0-.06-2.11C96.28,78.17,96,78.17,96,78.4Z"/><path d="M103.79,98.47c0-.11-.1-.19-.18-.12a29.37,29.37,0,0,0-2.54,2.69,19.42,19.42,0,0,1-2.22,2.55h0l.33.67a11,11,0,0,0,2.09-2.46A24,24,0,0,0,103.79,98.47Z"/><path d="M105.77,128.73a16.67,16.67,0,0,0-4.31.93,25.81,25.81,0,0,0-2.46.91c-.23.12-.56.61-.82.68a.07.07,0,0,0,0,.14l.2.1a.18.18,0,0,0,.16,0,15.46,15.46,0,0,1,5.17-1.81c.74-.15,1.53-.13,2.19-.24A.35.35,0,0,0,105.77,128.73Z"/><path d="M101,76.35c-1,2.24-1.87,4.49-2.63,6.81-1.24,3.77-3.49,8.41-2.81,12.49a.1.1,0,0,0,.19,0A68.33,68.33,0,0,1,99.41,82c.8-2.28,1.79-4.49,2.76-6.71.79-1.79,1.92-3.81,1.94-5.81a.31.31,0,0,0-.61,0C103.2,71.82,101.91,74.14,101,76.35Z"/><path d="M109.48,103.56a49.77,49.77,0,0,1-6.29,4.83c-.56.35-1.23.56-1.77.88l.33.79c1.17-.83,2.55-1.4,3.66-2.34,1.48-1.25,3.22-2.31,4.4-3.87C110,103.65,109.67,103.39,109.48,103.56Z"/><path d="M133.68,132.64a8.93,8.93,0,0,1-1.8.16,17.93,17.93,0,0,0-2.78.61,30.08,30.08,0,0,0-6.1,2.15c-4,1.87-7.63,4.5-11.49,6.63,0,.33.1.66.13,1a41.2,41.2,0,0,0,5.56-3.06c1.66-1,3.46-1.94,5.09-3a24.41,24.41,0,0,1,7-2.89,14,14,0,0,1,2.76-.7,3.78,3.78,0,0,0,1.82-.42h0C134,133,134,132.57,133.68,132.64Z"/><path d="M59,66.3a.17.17,0,0,0-.12.31c1.89.91,3.65.76,5.7.6s3.94-1.62,6-2.1l-.61-.7a16.81,16.81,0,0,0-2.38,1A13.41,13.41,0,0,1,59,66.3Z"/><path d="M75,68.06l.06.07s0,0,0,0Z"/><path d="M70.09,52.08c.52,1.88,0,4.11-.11,6a12.4,12.4,0,0,0,.65,4.31c.05.17.3.07.29-.09a52.13,52.13,0,0,1-.37-5.45c0-1.66.63-3.25.15-4.9C70.59,51.6,70,51.7,70.09,52.08Z"/><path d="M79.69,77.36a.15.15,0,0,0-.09-.27,13.4,13.4,0,0,0-3.18.49c-.68.1-1.83-.07-2.33.48,0,.06-.06.18,0,.2a7.22,7.22,0,0,0,2.41,0C77.5,78.14,79,78.11,79.69,77.36Z"/><path d="M73.65,54.74c.06-2.77.07-6.15-1-8.75-.06-.17-.34-.11-.35.06-.17,3.09.6,6.22.6,9.33,0,3.64-.11,6.74.93,10.28,0,.11.2.09.18,0a50.93,50.93,0,0,1-.66-5.36C73.33,58.43,73.6,56.57,73.65,54.74Z"/><path d="M30.15,163.67a4.31,4.31,0,0,1,2.71-1.84,10.66,10.66,0,0,0,1.6-.25c.23-.09.57.11.73.26l0,.06.39,0h-.18a.19.19,0,0,1-.06-.38,11.66,11.66,0,0,1,1.17-.14s0,0,0,0a10.41,10.41,0,0,1,4.25-.76c2,0,4-.26,6,0,3.85.43,7.73.82,11.6,1.08a74.14,74.14,0,0,0,13.73-.3,48.37,48.37,0,0,0,12.27-3c6.26-2.55,11.36-7.12,16.59-11.3,1.87-1.49,3.75-3,5.74-4.35.41-.27,1.37-1.11,2.07-1.12,0,.26.06.51.1.77l-.12-.06c-.35-.25-3.91,2.67-4.39,3-1.44,1.1-2.86,2.23-4.26,3.37.54-.44,1.08-.88,1.65-1.29,2.17-1.6,4.59-3.66,7.17-4.57,0,.21,0,.42.07.63l0,0a.3.3,0,0,1-.12.27c-3,2.4-5.86,4.87-8.9,7.2s-5.73,4.94-8.78,7.19c-5.48,4-11.48,7.77-18.05,9.69-6.25,1.82-13.23,2.61-19.53.45-3.34-1.13-6.52-2.61-9.83-3.81-3-1.06-6.82-2.59-10-1.87a.14.14,0,0,1-.08-.26l.08,0a3,3,0,0,0-1.08.19,12.31,12.31,0,0,0-2.21,1.47C30.37,164.07,30,163.92,30.15,163.67Zm8.45-2.29a36.71,36.71,0,0,1,4.59.87,98.2,98.2,0,0,0,11,1.86c7.31.81,14.35,1.25,21.45-1.16,3.19-1.09,6.55-1.88,9.6-3.31,3.34-1.56,6.11-3.93,9-6.12,1.9-1.42,3.65-3,5.47-4.53l-.19.16c-5.16,4.2-10.45,8.6-16.92,10.58a65.06,65.06,0,0,1-23.55,2.58c-3.9-.28-7.83-.66-11.71-1.12A45.63,45.63,0,0,0,38.6,161.38Zm-2.48.47a19.94,19.94,0,0,1,5.15,1c3.24,1,6.27,2.43,9.46,3.53a34.92,34.92,0,0,0,10.48,2.37,32.7,32.7,0,0,0,10.41-1.24A59.71,59.71,0,0,0,92,156.61c4.54-3.61,9-7.32,13.47-11l-.29.19a41.09,41.09,0,0,0-4.69,3.39c-2.52,2.1-5,4.09-7.62,6.1a34.49,34.49,0,0,1-8,5.2c-3.12,1.27-6.4,2.17-9.6,3.23-6.47,2.14-12.94,1.85-19.59,1.16a105.15,105.15,0,0,1-10.44-1.57C42.21,162.69,39.23,161.78,36.12,161.85Z"/><path d="M33.11,160.45c1.31-.2,2.65,0,4-.25a.19.19,0,0,0,0-.37c-1.76-.18-6.42-.81-7.18,1.49a.16.16,0,0,0,.22.2A13.8,13.8,0,0,1,33.11,160.45Z"/><path d="M67.7,51.18a.19.19,0,0,0-.18.25,5.42,5.42,0,0,1,.52,2,16.91,16.91,0,0,1-.23,2.13,6.85,6.85,0,0,0,.55,3.93.12.12,0,0,0,.22-.07,33.06,33.06,0,0,1,.13-5.54C68.79,53,68.85,51.21,67.7,51.18Z"/><path d="M109.39,146.53l-.06-.67c-.49.25-1,.51-1.46.79a28,28,0,0,0-6.09,4.19c-3.09,2.52-6,5.27-8.94,8s-6,5.49-9.25,8c-3.4,2.67-6.87,5.38-10.94,6.92A29.06,29.06,0,0,1,61,176c-4-.24-7.78-1.75-11.49-3.24A29.22,29.22,0,0,1,44,170.12c-1.57-1.05-2.79-2.53-4.48-3.4-1.49-.77-3.09-1.38-4.64-2-1-.38-1.44-1-2.42-.43a.14.14,0,0,0,0,.22c-.91.22-2.47.56-2.45,1.59a.18.18,0,0,0,.26.17,1.23,1.23,0,0,0,.47-.39,2.75,2.75,0,0,1,.84-.54,10.25,10.25,0,0,0,1.29-.63c.08-.05.06-.14,0-.21,1.21,0,3.57,1.53,4.43,1.89a19.72,19.72,0,0,1,5.22,3.47c2.74,2.33,6.25,3.39,9.52,4.68a29.48,29.48,0,0,0,10.13,2.22c3.42.08,6.87-1.06,10.07-2.11,3.75-1.22,6.86-3.51,10-5.85a117.73,117.73,0,0,0,9.41-7.87c2.34-2.17,4.7-4.34,7.07-6.47-1.83,2-3.57,4-5.31,6-3,3.44-6.3,6.61-9.62,9.78s-6.53,6.33-10.64,8.52c-3.58,1.9-8.78,2.17-12.74,1.87a31.21,31.21,0,0,1-5.7-.91,26.35,26.35,0,0,1-6.23-3.07c-3.64-2.12-7-4.58-10.37-7-1.46-1.05-3-1.94-4.52-2.85-.79-.47-1.2-.85-2.15-.63a.12.12,0,0,0,0,.24c1.38-.07,3.39,1.77,4.5,2.5,1.83,1.19,3.55,2.54,5.3,3.84A82.74,82.74,0,0,0,52,179.39c2.9,1.52,6.55,1.86,9.76,2a26.85,26.85,0,0,0,11-1.66c3.75-1.58,7-4.54,9.84-7.35,3.1-3.05,6.33-6,9.3-9.16,5.13-5.52,9.77-12,16.27-16C108.56,147,109,146.79,109.39,146.53Z"/><path d="M107,131.44c-1.85-.34-4,.81-5.65,1.53a58.69,58.69,0,0,0-6.42,3.74c-.06,0,0,.15,0,.13,1.72-.45,3.27-1.71,4.85-2.49A22.71,22.71,0,0,1,107,132a.35.35,0,0,0,.11,0l-.12-.48Z"/><path d="M79.55,80.05c-.76.23-1.49.64-2.3.3-.12,0-.2.1-.14.2.67.92,1.65.52,2.57.25s2-.5,3.07-.7l-.61-.8a4.72,4.72,0,0,0-1,.3C80.63,79.81,80.1,79.89,79.55,80.05Z"/><path d="M62.69,63.3c-1.86.17-5.27,1.3-6.88-.24-.11-.1-.33,0-.25.17.87,1.59,3.9,1.35,5.41,1.19,2.76-.29,5.16-.33,7.42-1.76-.19-.23-.39-.46-.59-.68-.46.21-.92.45-1.4.69A9.76,9.76,0,0,1,62.69,63.3Z"/><path d="M60.19,69.68c2.24,1,4.78-.17,7.11-.5,2-.27,4-.68,6-.77l-.78-.91c-.67.09-1.34.27-1.92.39-1.64.33-3.35.35-5,.67a32,32,0,0,1-5.42.91A.11.11,0,0,0,60.19,69.68Z"/><path d="M116.1,133.58a53.59,53.59,0,0,0-5.16,4.82c0,.22.08.44.11.66a.27.27,0,0,0,.31-.07c1.8-1.9,3.9-3.59,5.81-5.39,2.28-2.15,4.52-4.35,6.93-6.36a94.28,94.28,0,0,0,12.72-12.47c3.92-4.76,7-10.14,10.34-15.27,1.54-2.32,3.19-4.57,4.66-6.93a30.18,30.18,0,0,0,1.57-3.11,10.87,10.87,0,0,0,1.3-2.65c.05-.27-.41-.37-.48-.1a9.5,9.5,0,0,1-1,2A46.7,46.7,0,0,1,151,92.8c-1.52,2.36-3.19,4.62-4.75,7-3.28,4.91-6.24,10-10,14.61A92.94,92.94,0,0,1,123,127.17C120.61,129.18,118.39,131.43,116.1,133.58Z"/><path d="M100.31,99.12v0A17.74,17.74,0,0,0,99,100.56c-.36.41-.88.93-.88,1.49.05.11.11.22.16.34a.25.25,0,0,0,.17,0c.61-.16.89-.89,1.23-1.38a10.88,10.88,0,0,0,1.11-1.6c.14-.28-.25-.48-.45-.31h0Z"/><path d="M147.93,80.27c-1.41,5.56-4.64,10.63-7.38,15.61a91.37,91.37,0,0,1-5.11,7.73c-.83,1.19-1.88,2.23-2.75,3.39a17.37,17.37,0,0,1-3.52,4c-.36.24.05.87.42.64,2.29-1.46,3.85-4.39,5.59-6.45A59.38,59.38,0,0,0,140.87,97c1.64-2.84,3.12-5.77,4.62-8.69,1.19-2.32,2.9-5.22,2.79-7.91C148.27,80.17,148,80.06,147.93,80.27Z"/><path d="M147.49,89.89c-1.49,3.2-2.63,6.5-4.58,9.47-1.78,2.73-3.66,5.46-5.67,8a50.24,50.24,0,0,1-3.64,3.94c-.93,1-2.23,1.67-2.91,2.83a.36.36,0,0,0,.6.41,33.75,33.75,0,0,1,3.29-3.14c1-1,1.95-2,2.86-3,2.26-2.67,4.12-5.7,6.12-8.56s3-6,4.33-9c1.19-2.77,3-4.88,3.46-7.89,0-.1-.12-.14-.18-.06-.71,1-1,2.39-1.67,3.51S148.07,88.64,147.49,89.89Z"/><path d="M156.87,90.65a53.86,53.86,0,0,0-2.79,6.2,48.56,48.56,0,0,1-4.17,7.19c-3.25,4.75-7.62,8.43-11.43,12.69a142.62,142.62,0,0,1-13.09,13.5,45.71,45.71,0,0,1-6.7,5.33c-2.44,1.4-5,2.66-7.57,3.88,0,.3.09.59.14.89,2.62-1.28,5.19-2.68,7.79-4,2.4-1.22,4.29-3.28,6.32-5,4.8-4,9-8.82,13.18-13.48,3.87-4.3,8.22-8.11,11.62-12.81,3.17-4.38,5.19-9.19,7.15-14.19A.26.26,0,0,0,156.87,90.65Z"/><path d="M159.38,110c-.68,2.39-2.17,4.58-2.65,7,0,.12.15.17.21.08a29.45,29.45,0,0,0,4.32-17.34,28.21,28.21,0,0,0-2.14-9.4A29,29,0,0,0,154.49,82a.08.08,0,0,0-.13.08c3.18,5.63,5.9,11.82,6.13,18.37A31.43,31.43,0,0,1,159.38,110Z"/><path d="M69.35,61.49s.09.1.13.16A.23.23,0,0,0,69.35,61.49Z"/><path d="M56.44,73.37a.09.09,0,0,0,0,.15l0,.06a.18.18,0,0,0,.2.1c1.56-.13,3.15,0,4.72-.14a29.09,29.09,0,0,0,5.07-1c3-.83,5.79-1.88,8.88-1.77-.28-.33-.56-.65-.83-1A6.82,6.82,0,0,0,72,70c-1.91.43-3.82,1.06-5.68,1.63a36.35,36.35,0,0,1-6.44,1.28C58.88,73.05,57.31,72.65,56.44,73.37Z"/><path d="M73.05,75.93c-1.12.38-2.33.37-3.49.65-.13,0-.14.26,0,.26a12.92,12.92,0,0,0,4.29-.37,16.76,16.76,0,0,1,5.44-.84l-.62-.78a9.19,9.19,0,0,0-3.09.35A17.27,17.27,0,0,0,73.05,75.93Z"/><path d="M102.82,68.94c1-.55,1.33-1.6,2-2.45a68.82,68.82,0,0,0,4.09-5.8c.9-1.47,1.87-3.09,2.64-4.63a9.74,9.74,0,0,0,1.15-5,.16.16,0,0,0-.3,0c-.57,1.37-.64,2.89-1.2,4.28a53.41,53.41,0,0,1-2.8,5.06A53,53,0,0,1,105.18,65c-.8,1.16-1.41,2.87-2.46,3.82C102.65,68.85,102.73,69,102.82,68.94Z"/><path d="M103.32,67.65c3.14-4.66,4.54-10.14,6.3-15.4A37.48,37.48,0,0,0,111.06,44c.22-2.3,1.31-5.18.19-7.38a.23.23,0,0,0-.43.14c.56,2.63-.18,5.25-.4,7.89a35.1,35.1,0,0,1-1.52,8c-1.65,5-2.94,10.29-5.74,14.84C103.09,67.64,103.25,67.75,103.32,67.65Z"/><path d="M75.1,84.58c2.6-1.49,5.81-1.41,8.49-2.67a.41.41,0,0,0,.21-.36l-.28-.39-.06,0a.2.2,0,0,0-.11,0h0l-.08,0-.07,0,0,0a.22.22,0,0,0-.07.09h0c-2.57.91-6.2.92-8.1,3.1C74.9,84.5,75,84.62,75.1,84.58Z"/><path d="M84.94,85.42a26.92,26.92,0,0,1-3.24,1.9c-1.53.73-3.34.71-5,1.14a21.62,21.62,0,0,1-5.2.47c-6.3.1-12.55-.25-18.86-.16-7,.1-13.86.53-20.82.82A68.44,68.44,0,0,1,11,87.23a.22.22,0,0,0-.15.42,35.12,35.12,0,0,0,8.38,2,61.24,61.24,0,0,0,11.06.85c7.2-.1,14.37-.71,21.56-.81a86.65,86.65,0,0,1,9.67,0,73.57,73.57,0,0,0,10,.15,51,51,0,0,0,8.7-1.09,11.59,11.59,0,0,0,3.72-1.54c.54-.33,1.78-1.46,2.35-1.42a.43.43,0,0,0,.4-.19c-.16-.25-.34-.5-.51-.76A2.66,2.66,0,0,0,84.94,85.42Z"/><path d="M59,27.85c.09,4-.05,8.06.12,12.11.17,3.83-.37,8.52,1.73,11.94,0,.07.18.05.15,0-1.3-4.69-1.11-9.39-1.28-14.23s.25-9.46-.21-14.19A70.1,70.1,0,0,0,56.63,11c-.3-1.07-1-4.36-2.4-4.51a.37.37,0,0,0-.06.73c1.18.14,2.29,6.08,2.48,6.93C57.67,18.78,58.84,23.07,59,27.85Z"/><path d="M40.53,40a31.07,31.07,0,0,0,3.29,1.27,9.33,9.33,0,0,0,2.82.92.09.09,0,0,0,0-.18,52.55,52.55,0,0,1-11.44-5.91c-3.6-2.58-7.66-6.87-8.78-11.23-.11-.46-.84-.33-.72.13,1.14,4.42,4.69,7.82,8,10.75A33.66,33.66,0,0,0,40.53,40Z"/><path d="M36.46,52.08a47.41,47.41,0,0,0,13.43,4.67,46,46,0,0,0,7.5.81c2.55.06,4.78.25,7,1.68a.3.3,0,0,0,.43-.37,3.42,3.42,0,0,0-1.7-1.5.12.12,0,0,0,0-.13,7.58,7.58,0,0,0-3-2,46.71,46.71,0,0,0-6-2.27c-4.31-1.47-8.61-3-12.84-4.72A39.16,39.16,0,0,1,31,42.31a26.54,26.54,0,0,1-4.6-4.87c-1.16-1.59-1.62-3.6-2.73-5.14a.3.3,0,0,0-.53.25c1.84,7.06,8.41,11.88,14.7,14.76,4.14,1.89,8.33,3.5,12.62,5.06,2.08.76,4.23,1.3,6.29,2.09,1.82.71,4.52,1.27,6,2.74-2-.72-4.84-.5-6.56-.54a42.87,42.87,0,0,1-14-2.91A37.17,37.17,0,0,1,30,46.36a29.47,29.47,0,0,1-5.33-6c-1.14-1.85-2.94-4.58-1.77-6.83.09-.18-.16-.37-.28-.19-1.91,2.91,1,6.94,2.71,9.19A36.23,36.23,0,0,0,36.46,52.08Z"/><path d="M28.38,63.72C32.73,67.64,36.71,72.3,42,75a27,27,0,0,0,7.6,2.14,29.64,29.64,0,0,0,8.62.08c3.14-.43,6.29-1.25,9.39-1.94,1.73-.38,3.45-.81,5.16-1.27,1.23-.33,3.16-1,4.39-.54a.33.33,0,0,0,.31,0l-.77-.94c-1.3-.3-2.88.35-4.08.64-3.24.79-6.46,1.55-9.72,2.23A42.85,42.85,0,0,1,54,76.6a36.79,36.79,0,0,1-9.06-1.52c-6.23-1.6-10.79-7.25-15.36-11.41s-8.86-8.74-13-13.32c-.14-.16-.46,0-.33.22,1.4,2.24,3.64,4.23,5.43,6.18C23.86,59.14,26,61.54,28.38,63.72Z"/><path d="M31.93,52.69a31.37,31.37,0,0,0,6.46,3.53c4.92,2.2,10.1,3,15.42,3.44,2.5.21,4.85,1.2,7.33,1.57,2,.29,4.13-.15,6.11.11l-.87-1a8.91,8.91,0,0,0-1.23.11,16.55,16.55,0,0,1-7.41-.91,25.61,25.61,0,0,0-5.91-.9,37.74,37.74,0,0,1-8-1.41c-4.82-1.48-9.93-3.49-13.56-7.09a66.52,66.52,0,0,1-5.33-5.56c-2.11-2.63-4-4.74-3.22-8.31,0-.18-.22-.28-.28-.1a6.38,6.38,0,0,0,.06,4.89c.85,2.18,3,4.44,4.69,6A78.32,78.32,0,0,0,31.93,52.69Z"/><path d="M22,65.36a48.84,48.84,0,0,0,5.56,4.58,40.47,40.47,0,0,0,7.25,3.6c4.72,2.07,9.21,4.63,14.4,5.28a60.28,60.28,0,0,0,8.17.55c1.38,0,4.09-.58,5.14-1.54a.33.33,0,0,0-.43-.5,7.57,7.57,0,0,1-2.05.66,12.52,12.52,0,0,1-3.94.6,44.48,44.48,0,0,1-6.82-.54c-4.57-.73-8.59-2.63-12.77-4.58-2.25-1-4.63-1.86-6.8-3.06a33,33,0,0,1-5.58-4.11,67.9,67.9,0,0,1-5.72-5.66,22.9,22.9,0,0,1-2.47-3c-.67-1.07-.44-2.32-.55-3.5a.13.13,0,0,0-.25,0c-.2,2-.2,3.12,1,4.79A47,47,0,0,0,22,65.36Z"/><path d="M36.9,35a9.13,9.13,0,0,0,2.51.88,8.32,8.32,0,0,0,2,.59c.15,0,.21-.21.06-.25A16,16,0,0,1,33,30.52c-2.44-3.1-3.74-6.92-4.89-10.62a.42.42,0,1,0-.8.26A36.32,36.32,0,0,0,32.48,31,17.45,17.45,0,0,0,36.9,35Z"/><path d="M23.24,72.65c2.58,1.1,5,2.57,7.62,3.45s5.43,1.37,8.1,2.19a54,54,0,0,0,7.17,2.1c2.62.44,5.27.39,7.91.63a19.15,19.15,0,0,0,3.62.23A19.38,19.38,0,0,1,60.29,81a.3.3,0,0,0,.47,0l.08-.08a.39.39,0,0,0-.21-.67c-1.7-.16-3.41.29-5.14.15-2.21-.17-4.43-.29-6.64-.49-5-.43-9.52-2.47-14.33-3.66A53.43,53.43,0,0,1,21.19,70.7a20.94,20.94,0,0,1-5.63-4.58,16.77,16.77,0,0,1-2.15-3.35c-.79-1.53-.27-2.79,0-4.33,0-.2-.26-.24-.33-.07-.71,1.74-1,2.92-.4,4.74A14.85,14.85,0,0,0,17,68.75,23.48,23.48,0,0,0,23.24,72.65Z"/><path d="M40.05,34.21l0,0a.08.08,0,0,0,.1-.11c-.53-1.12-1.23-2.15-1.72-3.29s-.78-2.39-1.18-3.57c-1.18-3.5-1.92-7.13-3-10.66-.87-2.88-1.76-5.77-2.85-8.58a24.64,24.64,0,0,0-3.58-6.88.3.3,0,0,0-.5.33c1.08,2.32,2.44,4.47,3.43,6.86A98.3,98.3,0,0,1,34,18.18c.84,2.83,1.5,5.72,2.42,8.53.41,1.25.83,2.49,1.3,3.71a24.17,24.17,0,0,0,2.12,3.52,58,58,0,0,1-6.19-10.79c-1-2-1.86-4.13-2.66-6.26-.89-2.37-1.32-4.85-2.12-7.23-.07-.19-.35-.11-.37.06a15.6,15.6,0,0,0,1.28,6.11c.84,2.4,1.8,4.74,2.87,7A44.56,44.56,0,0,0,39.9,34.34.1.1,0,0,0,40.05,34.21Z"/><path d="M55.9,28.05c.08,3.88,0,7.77,0,11.65.05,2.75-.79,6.31.44,8.89a.22.22,0,0,0,.4-.19c-.76-1.69-.39-3.75-.29-5.54.11-2.07,0-4.15,0-6.23,0-3.63.24-7.28.06-10.92A53.19,53.19,0,0,0,54.6,15.17c-.73-2.89-1.57-6.25-3.49-8.59-.27-.33-.75.09-.49.42,2,2.61,2.42,6,3.47,9.07A39.2,39.2,0,0,1,55.9,28.05Z"/><path d="M46.43,14.84a59.88,59.88,0,0,1,2,10.35c.37,3.44.68,6.87.94,10.32.13,1.73.14,3.46.33,5.18a6.33,6.33,0,0,0,.49,2.87.15.15,0,0,0,.27-.13c-.41-1.12-.19-3.1-.25-4.29C50.1,37.08,50,35,49.86,33c-.29-3.87-.62-7.74-1.23-11.57a59.34,59.34,0,0,0-1.33-5.94c-.49-1.83-1.38-3.48-1.87-5.27C45.09,9,44,6.61,42.58,6.35a.31.31,0,0,0-.13.6c1.09.29,1.7,2,2.13,2.91A35.46,35.46,0,0,1,46.43,14.84Z"/><path d="M52.67,39.72c-.1.85-.17,1.68-.33,2.52a18.55,18.55,0,0,1-.18,2.12c-.1.34.42.53.53.19a25.88,25.88,0,0,0,.3-2.82c.34-1.81.33-3.69.57-5.51a49.34,49.34,0,0,0-.08-10.52,67.83,67.83,0,0,0-1.64-10.81,26,26,0,0,0-1.78-4.73,30.38,30.38,0,0,1-2-3.69c0-.08-.17-.1-.16,0a3.42,3.42,0,0,0,.54,1.43c.72,1.4,1.41,2.85,2,4.32,1.43,3.64,1.83,7.55,2.28,11.4a61.36,61.36,0,0,1,.43,11.17C53.06,36.44,52.88,38.09,52.67,39.72Z"/><path d="M43.42,23.44c.38,3.14,1,6.24,1.36,9.37.18,1.45.38,2.9.64,4.34a8.84,8.84,0,0,0,.72,3.07.22.22,0,0,0,.39-.19,19.83,19.83,0,0,1-.74-4.42c-.25-1.7-.39-3.42-.65-5.12-.51-3.35-.87-6.72-1.4-10.06a76.54,76.54,0,0,0-2.54-9.62c-.54-1.8-1.69-4-3.59-4.57a.26.26,0,0,0-.24.46c2.6,1.83,3.24,4.76,4.13,7.63A52.53,52.53,0,0,1,43.42,23.44Z"/><path d="M38.61,20.54c1.14,5.59,1.49,11.32,4.06,16.52a.11.11,0,0,0,.19-.09c-2.45-6-2.71-12.47-4.06-18.71A37.88,37.88,0,0,0,36.28,11c-1-2.16-1.19-4.78-3.54-5.94a.14.14,0,0,0-.17.19,32.79,32.79,0,0,1,2.24,3.52c.52,1.18.8,2.45,1.35,3.63A37,37,0,0,1,38.61,20.54Z"/><path d="M24.55,29.25c3,6.39,8.35,11,14.34,14.6a61.11,61.11,0,0,0,9.53,4.25c3.59,1.38,6.91,3.3,10.44,4.82.14.06.26-.16.12-.23a91.45,91.45,0,0,0-8.42-4.46c-3.33-1.5-6.78-2.65-10-4.35a48.13,48.13,0,0,1-8.7-6.24,25.77,25.77,0,0,1-6.58-8.8.38.38,0,0,0-.54-.19.39.39,0,0,0-.2.54l0,.06Z"/><path d="M17.29,135.43a5.2,5.2,0,0,1-.41-1.64,1.56,1.56,0,0,0-.41-1,.1.1,0,0,0-.16.1,7.08,7.08,0,0,1,.22,1.58,2.22,2.22,0,0,0,.36,1.24C17.05,135.91,17.41,135.66,17.29,135.43Z"/><path d="M18.33,133a2.48,2.48,0,0,1,0-.27.12.12,0,0,0,.18-.12,1.63,1.63,0,0,0-.08-.37c.61-2.11,3.39-4.26,4.72-5.49a29.21,29.21,0,0,1,8-5c2.19-1,4.43-1.76,6.66-2.6a42.09,42.09,0,0,1,8.72-1.93c2.47-.39,4.92-.94,7.4-1.31,2.81-.42,5.48-1.57,8.3-2,4.44-.75,9.31.77,13.64-.62.36-.12.16-.74-.2-.64-2.5.67-5.1.34-7.64.33a34.1,34.1,0,0,0-7.94.68c-3.06.69-6,1.62-9.07,2.08-2.9.43-5.72,1.12-8.66,1.35-2.69.22-5.57,1.64-8.06,2.6a76.12,76.12,0,0,0-7.85,3.73,22,22,0,0,0-6.5,5.47,8.6,8.6,0,0,0-1.71,2.92,7.6,7.6,0,0,1-.53-1.07,6.15,6.15,0,0,0-.44-1.59c0-.06-.14,0-.12,0,.22,1.06.29,2.47,1,3.37a1.69,1.69,0,0,0,.09.49S18.33,133.05,18.33,133Z"/><path d="M19.43,128.15c0-.53-.5-1-.77-1.44s-.3-1.25-.64-1.83c-.05-.1-.24-.06-.2.06a14.51,14.51,0,0,0,.36,1.74,4.35,4.35,0,0,0,1.06,1.6C19.33,128.35,19.44,128.25,19.43,128.15Z"/><path d="M20.9,148.07c-.2-5.88,10.13-4.9,13.74-4.7,5,.28,10,1,15,1.33a102.58,102.58,0,0,0,14,.33c2.47-.18,4.92-.37,7.37-.74a32.79,32.79,0,0,0,3.55-.71c.5-.13,1.86-1,2.32-.78s.48-.36.18-.51a.78.78,0,0,0-.73,0,22.92,22.92,0,0,1-4,1.11c-2.94.46-5.85.74-8.82,1-5.79.45-11.84-.14-17.63-.62-5.36-.44-10.82-1.46-16.2-1.15-2.28.12-4.87.15-6.86,1.46-1.33.88-2.73,2.32-2.23,4C20.62,148.25,20.91,148.27,20.9,148.07Z"/><path d="M22.56,153.38A5.18,5.18,0,0,1,25,149.47a14.87,14.87,0,0,1,4.57-1.28,47.09,47.09,0,0,1,8.54-.77,48.82,48.82,0,0,1,7.83.51c2.51.42,4.94,1.2,7.43,1.71a42.09,42.09,0,0,0,22.34-1.46,37.26,37.26,0,0,0,7.06-2.85c.22-.13.14-.55-.15-.47-2.27.66-4.43,1.62-6.63,2.48a39.35,39.35,0,0,1-8.83,2.12c-6.58,1-12.7-.26-19.08-1.76a45.83,45.83,0,0,0-15.8-.51c-3.85.46-10,1-9.83,6.18A.07.07,0,0,0,22.56,153.38Z"/><path d="M21.83,155.58s0-.07.05-.11h.05c1-.09,2.08-1.12,3-1.57a23.38,23.38,0,0,1,5.74-1.46c.92-.17,1.78.06,2.67-.06s2-.3,3-.41c2.07-.23,4.32.4,6.38.66,4,.51,7.84,2.37,11.66,3.53a22.66,22.66,0,0,0,10.71.88,55.39,55.39,0,0,0,10.37-3.46c4-1.6,7.75-3.72,11.6-5.54,3.52-1.67,6.91-3.47,10.33-5.33a48.82,48.82,0,0,0,4.61-3c.87-.6,1.78-1.15,2.67-1.73.31-.19,2.62-1.3,2.62-1.29,0,.44.62.49.68.06a.86.86,0,0,0,0-.39.35.35,0,0,0-.31-.29c-2.45.06-4.82,2.22-6.75,3.56a78,78,0,0,1-11.44,6.46c-7.76,3.66-15.43,7.91-23.8,10.05s-16-3.57-24.11-4.39a29.14,29.14,0,0,0-4.55-.55c-2.16.12-4.36.27-6.51.52a35.12,35.12,0,0,0-5.21,1.3,7.78,7.78,0,0,0-1.82.92c-.44.27-.9.87-1.42,1.08,1.64-2.92,6.44-3.92,9.34-4.5a38.76,38.76,0,0,1,11.73-.26c3.83.4,7.52,1.47,11.33,1.94a64.84,64.84,0,0,0,11.81.63,37.28,37.28,0,0,0,10.91-2.73c1.82-.68,3.67-1.16,5.42-2a42.87,42.87,0,0,0,5-3.08c3.12-2.09,6.16-4.29,9.31-6.33a45.89,45.89,0,0,1,5-2.75c.82-.4,4.08-2,5.11-1.63a.34.34,0,0,0,.23-.65,2.72,2.72,0,0,0-2.14.35c-1.59.71-3.23,1.14-4.81,1.94a63.61,63.61,0,0,0-9.87,6.28,38.61,38.61,0,0,1-11.48,6.53c-2.27.73-4.44,1.76-6.72,2.46a28.82,28.82,0,0,1-6.79,1c-9,.55-17.58-2.61-26.49-2.9a32.56,32.56,0,0,0-11,1.44c-2.48.8-5.5,1.94-6.32,4.68A.12.12,0,0,0,21.83,155.58Z"/><path d="M15.18,80.11c5.14,2.1,11.1,2.1,16.54,2.72,6.09.69,12.18.43,18.29.8a54.85,54.85,0,0,1,8.68.92,19.15,19.15,0,0,0,3.22.2c-.29,0,2,.49,1.72.1a.34.34,0,0,0,.41.09l.11,0c.33-.12.19-.63-.12-.65a.29.29,0,0,0-.27-.07c-.72.21-1.79-.3-2.54-.26a16.51,16.51,0,0,1-3.65-.38c-2.2-.35-4.56-.51-6.78-.64-5.37-.32-10.79,0-16.14-.5s-10.68-.85-15.84-2A20,20,0,0,1,12,77.56a20.13,20.13,0,0,1-3.07-2.51A9.2,9.2,0,0,1,6.8,70.38a.19.19,0,0,0-.37.06,8.76,8.76,0,0,0,2.94,5.93A19.93,19.93,0,0,0,15.18,80.11Z"/><path d="M6.88,81.17a8.22,8.22,0,0,0,3.06,2c1.66.68,3.2,1.49,4.91,2a41.66,41.66,0,0,0,4.94,1,91.38,91.38,0,0,0,22.58,1.5c3.83-.28,7.83-.82,11.68-.48,1.74.16,3.5-.25,5.24-.23s3.65,0,5.47.15c6.85.48,14-.14,20.09-3.48a.38.38,0,0,0,.21-.29l-.36-.52a.41.41,0,0,0-.21.05C81.3,84.6,78.11,85.13,74.63,86a42,42,0,0,1-4.51.44,27.57,27.57,0,0,1-6-.24c-3.37-.24-6.7.23-10.05.13a85,85,0,0,0-9.7.29,85.93,85.93,0,0,1-21.73-.75c-3.68-.63-7.37-1.09-10.79-2.65-1.59-.73-3.33-1.16-4.58-2.46a15.67,15.67,0,0,1-2.21-2.32c-.37-.58-.05-.33-.59-.7-.13-.09-.3.09-.19.21.29.28.49,1,.75,1.29C5.65,79.94,6.27,80.54,6.88,81.17Z"/><path d="M19.15,125.8a.15.15,0,0,1,.13-.1.2.2,0,0,0,.17-.23c-.1-.65,1.65-2.31,2-2.73a21.12,21.12,0,0,1,2.41-2.32,23.93,23.93,0,0,1,6.61-3.3A53.88,53.88,0,0,1,46.29,114c2.46-.16,4.92-.28,7.37-.6,2.65-.34,5.19-1.07,7.86-1.3a47,47,0,0,1,7.67-.47,11.59,11.59,0,0,0,3-.19.38.38,0,0,0-.13-.74,40.83,40.83,0,0,1-4.78.07,66.62,66.62,0,0,0-7.43.69c-2.59.27-5.1,1-7.7,1.33-2.76.32-5.55.39-8.32.57a52.93,52.93,0,0,0-15,3.52c-4.15,1.54-8.08,4.25-9.85,8.43a.23.23,0,0,0,.05.24c-.08-.08-.05,0-.06.19A.11.11,0,0,0,19.15,125.8Z"/><path d="M21,76.07c2.88,1,5.75,2,8.65,3a46.66,46.66,0,0,0,7.9,1.75c2.73.41,5.37,1.15,8.12,1.37s5.55.35,8.31.53a50.4,50.4,0,0,1,7.28.48c.22,0,.38-.24.29-.42l-.06-.13a.29.29,0,0,0-.45-.09,38.87,38.87,0,0,0-5.7-.45c-2.5-.09-5-.32-7.48-.45A42.75,42.75,0,0,1,41,80.71c-2.7-.58-5.47-.87-8.15-1.54a151.38,151.38,0,0,1-15-5.08,15.61,15.61,0,0,1-6.05-3.61,6.89,6.89,0,0,1-1.64-3.65c-.23-1.25.22-2.4.07-3.64,0-.09-.15-.08-.16,0-.3,2-1,3.62-.15,5.67a9.58,9.58,0,0,0,4.21,4.44A37.79,37.79,0,0,0,21,76.07Z"/><path d="M18,107.53c2.33-2.53,4-5.08,7.52-6.11s8.22.21,11.64,1.08a41.1,41.1,0,0,1,4.75,1.28,25.3,25.3,0,0,0,3.86,1.28c3.68.74,7.36,1.52,11,2.45a30.32,30.32,0,0,0,17.68-1.19,103.48,103.48,0,0,1,10.7-3.16c1.74-.5,3.44-.82,5.21-1.15s3.41-1.05,5.11-1c-.15-.28-.28-.57-.43-.86a20.73,20.73,0,0,0-2.84.45c-1.88.33-3.86.71-5.7,1.23-3.46,1-7,1.73-10.42,2.9-1.75.6-3.38,1.42-5.18,1.87a34.48,34.48,0,0,1-5.36.69c-3.91.36-7.78-.48-11.57-1.27-3.49-.73-7.13-1.47-10.53-2.52a71,71,0,0,0-10.58-2.68c-3-.46-5.81-.86-8.75.21a10.2,10.2,0,0,0-3.83,2.65,28,28,0,0,0-2.57,3.56C17.62,107.45,17.88,107.7,18,107.53Z"/><path d="M18.71,113.89c3.17-7.21,12.74-7.34,19.38-6.49,1.56.2,3.13.09,4.7.32a36.38,36.38,0,0,0,4.9.22,44.88,44.88,0,0,1,4.64.19c1.67.19,3.38.14,5,.4a43.66,43.66,0,0,0,9.27.94,37.72,37.72,0,0,0,10.12-1.55c3.51-1.13,7-2.34,10.55-3.25a31.67,31.67,0,0,1,4.64-.89c1.45-.13,2.87,0,4.31,0a.4.4,0,0,0,.39-.43l-.11-.22a.34.34,0,0,0-.21-.09c-6.48-.48-12.45,1.61-18.56,3.62a43.3,43.3,0,0,1-12.58,2A22.9,22.9,0,0,1,58.9,108a24.44,24.44,0,0,0-4.68-.48c-3.32-.2-6.63-.34-10-.5-3.73-.19-7.46-.85-11.2-.83-5.48,0-12.93,1.48-14.68,7.56A.18.18,0,0,0,18.71,113.89Z"/><path d="M19.68,123.35c-.81-2.34,1.61-5.71,3.18-7.15,1.83-1.67,5-2.67,7.31-3.31a36.56,36.56,0,0,1,7-1.48c2.5-.18,5,0,7.51-.16,4.84-.36,9.71-.26,14.57-.33,2.12,0,4.14-.31,6.24-.42a17.41,17.41,0,0,1,3.68,0c.67.1,2.62-.57,3-.21s.8-.14.49-.43a.81.81,0,0,0-.84-.3,19.62,19.62,0,0,1-4.53.07A21.85,21.85,0,0,0,64,110a38.77,38.77,0,0,1-4.7.31c-2.88,0-5.72.24-8.6.1s-5.89.31-8.88.31A38.43,38.43,0,0,0,25.48,114a10.33,10.33,0,0,0-5.14,4.57c-.72,1.24-1.57,3.52-.82,4.89A.09.09,0,0,0,19.68,123.35Z"/><path d="M112,37.49a29.13,29.13,0,0,0,.89,5.44c0,.14.25.08.27,0,.36-2.29-.29-4.83-.63-7.09a71,71,0,0,0-1.47-8.09c-.41-1.56-2.5-6.61-4.93-5.91-.14,0-.21.27,0,.31,3.49.78,4.47,6.3,4.93,9.14C111.38,33.33,111.71,35.4,112,37.49Z"/><path d="M157.56,68.92c-1,2.42-2,4.86-3,7.26-.5,1.16-1.12,2.26-1.7,3.38a4,4,0,0,0-.76,1.69.34.34,0,0,0,.68.06c.13-1.15,1.3-2.54,1.84-3.58a41.87,41.87,0,0,0,1.72-4A75.3,75.3,0,0,0,160,63.52c.52-2.22,1.05-5.2,0-7.39-.33-.71-1-2.51-2.05-2a.11.11,0,0,0,0,.21c1.88.25,1.94,5.14,1.86,6.24A27.33,27.33,0,0,1,157.56,68.92Z"/><path d="M159.55,85.31a4.67,4.67,0,0,0,.66-1.72,17.15,17.15,0,0,1,1.1-2.75c.65-1.23,1.54-2.58,1.32-4a.13.13,0,0,0-.25,0c-.56,1.25-.94,2.54-1.57,3.78a17.9,17.9,0,0,0-.79,2,18.08,18.08,0,0,1-.78,2.53A.19.19,0,0,0,159.55,85.31Z"/><path d="M152.32,67.76A71.64,71.64,0,0,1,150,75.31,18.62,18.62,0,0,1,148.19,79a.86.86,0,0,0-.05,1,.24.24,0,0,0,.43,0c1-2.39,2.32-4.59,3.16-7.1,1-2.89,1.53-5.93,2.37-8.86,1-3.45,2.12-9-1.95-10.89-.1,0-.16.1-.08.16C156.42,56.89,153.45,63.32,152.32,67.76Z"/><path d="M161.69,70c-1.9,4.43-4.06,8.73-5.41,13.38-.05.17.17.38.31.22,1.39-1.5,1.72-4.11,2.42-6,1-2.74,2.42-5.33,3.56-8A48.85,48.85,0,0,0,165,61.64,7.17,7.17,0,0,0,164.4,56c-.08-.16-.35-.09-.3.09a11.35,11.35,0,0,1,.69,3,14.34,14.34,0,0,1-.69,3.67A48.42,48.42,0,0,1,161.69,70Z"/><path d="M150.26,64a55.14,55.14,0,0,1-3.41,10.51c-.84,1.84-1.93,3.55-2.86,5.33-.76,1.44-1.25,3-1.88,4.52a101.58,101.58,0,0,1-5.35,10.82A72,72,0,0,1,122.6,112.9a96.58,96.58,0,0,0-7.3,8.08c-2.22,2.53-4.09,5.69-6.6,8,.1.33.19.66.28,1,2.56-2.22,4.43-5.34,6.6-7.88a117.58,117.58,0,0,1,9.17-9.89,67.77,67.77,0,0,0,13.83-18.46c1.83-3.63,3.71-7.26,5.17-11.06s3.84-7.21,5.24-11.1a39,39,0,0,0,2.54-10.77c.14-2.76.14-6.48-2.2-8.37-.27-.21-.62.19-.4.44C151.4,55.59,151,60.66,150.26,64Z"/><path d="M146.22,55.59A38,38,0,0,1,146,61a41,41,0,0,1-3,11.23c-2.88,7.15-5,14.69-9.19,21.24s-8.65,13-14.4,18.09c-3,2.61-6,5.15-8.82,7.92a20,20,0,0,0-3.56,4c.14.39.27.77.4,1.16a12,12,0,0,1,2.71-3.51c1.61-1.56,3.21-3.13,4.89-4.62,3.07-2.72,6.35-5.23,9.1-8.3a114.59,114.59,0,0,0,7-9.33,65.7,65.7,0,0,0,6.06-9.74,98.33,98.33,0,0,0,4.7-11.85c1.29-3.82,3.1-7.43,4.07-11.35a36.8,36.8,0,0,0,1-10.4c-.08-1.77-1-5.66-3.46-5.42-.14,0-.11.2,0,.22C145.52,50.8,146.17,53.93,146.22,55.59Z"/><path d="M58.05,7.8a.33.33,0,0,0,.42.25c1.56,1.34,2,3.32,2.63,5.22A46.79,46.79,0,0,1,63,20.55c.69,4.24.34,8.66,0,12.93-.13,1.77-.13,3.54-.42,5.3a21.71,21.71,0,0,0-.44,5.45c.29,3.75-.15,7.51,1.56,11a.1.1,0,0,0,.18-.09,19.08,19.08,0,0,1-1.12-7.45,57.33,57.33,0,0,1-.12-6.15c.19-2,.72-4,.83-6s.26-4.18.36-6.27a43.22,43.22,0,0,0-1-12.48c-.49-2-1.2-4-1.85-5.94a6.53,6.53,0,0,0-2.36-3.5.33.33,0,0,0-.29,0,1.73,1.73,0,0,0-1.74-.42.21.21,0,0,0,0,.36C57,7.48,57.57,7.55,58.05,7.8Z"/><path d="M141.07,68.78a62.67,62.67,0,0,1-3,10.06,89.91,89.91,0,0,1-5.38,10.47c-1.59,2.88-3,5.8-4.89,8.52a58.57,58.57,0,0,1-7.13,8.13c-2.36,2.36-5.11,4-7.78,6-1.35,1-2.8,1.77-4.19,2.68s-2.46,2.21-3.81,3.14c0,.09.07.17.11.26l.18.5c1.1-.72,1.92-1.75,3-2.54,1.49-1.1,3.16-1.94,4.69-3a62.35,62.35,0,0,0,8.91-7,60,60,0,0,0,7.12-8.31c2.15-3.13,3.73-6.62,5.57-9.94a68,68,0,0,0,7.67-20.33,38.42,38.42,0,0,0,.78-10.53c-.28-3.29-.58-7-3.06-9.49a.15.15,0,0,0-.23.2C143.69,53.57,142.44,62.14,141.07,68.78Z"/><path d="M90.23,131.59c.18-.25-.18-.57-.42-.37-8.11,7.1-21.08,6.49-30.67,3.23a56.72,56.72,0,0,0-6.9-1.76c-2.74-.54-5.3-1.44-8-2.11a45,45,0,0,0-7-1.38,22.21,22.21,0,0,0-6.51-.08.11.11,0,0,0,0,.21,41.67,41.67,0,0,1,16.75,2.87c2.33.91,4.93,1.15,7.34,1.79,2.61.69,5.18,1.49,7.79,2.18a38.74,38.74,0,0,0,14.77,1,29,29,0,0,0,7.37-2.08C86.63,134.28,89,133.26,90.23,131.59Z"/><path d="M21.1,143c.62-.59,1.07-1.34,1.69-1.94,1.05-1,2.81-1.34,4.19-1.57a41.09,41.09,0,0,1,7.84-.27A106.17,106.17,0,0,1,50,141.12a93.3,93.3,0,0,0,14.45,1.31q3.34.07,6.68-.18a27.41,27.41,0,0,0,3.49-.5,14.82,14.82,0,0,0,3.06-.51c.43-.18.12-.8-.3-.64a25.71,25.71,0,0,1-3.58.57,28.09,28.09,0,0,1-3.53.42,78.35,78.35,0,0,1-8.67,0,118.51,118.51,0,0,1-15.14-1.84A85.26,85.26,0,0,0,31,138.53a18.84,18.84,0,0,0-6.16.79c-2.13.81-2.67,1.81-3.88,3.59A.1.1,0,0,0,21.1,143Z"/><path d="M80.22,138.06c-5.11,2-10.62,1.23-15.93.78a45.59,45.59,0,0,1-7.52-1.17c-2.2-.55-4.26-1.53-6.48-2-2.59-.55-5.19-.71-7.74-1.42a60,60,0,0,0-6.67-1.17,18.35,18.35,0,0,0-6.69-.05c-1.55.34-3.43.28-4.49,1.64-.08.11.08.23.18.15,1.2-.94,2.48-.66,3.81-1a11.32,11.32,0,0,1,3.8-.34c2.23.15,4.37.5,6.58.8s4.42,1.1,6.69,1.43a39,39,0,0,1,8.2,1.89c4.25,1.59,8.65,1.8,13.1,2.27s9.32.58,13.46-1.15C80.93,138.52,80.64,137.91,80.22,138.06Z"/><path d="M98.87,125.37a48.79,48.79,0,0,1,5.9-1.55c-.06-.16-.11-.33-.16-.49-1.88-.25-4.08.84-5.86,1.34-2.65.75-5.34,1.37-8,2.16-3,.9-7.44,1.83-9.44,4.43,0,.05,0,.12.08.1,1.12-.55,2.18-1.27,3.32-1.81a43.64,43.64,0,0,1,6.9-2.3C94,126.57,96.45,126,98.87,125.37Z"/><path d="M108.37,140a17,17,0,0,0-6.59,2.71c-1.4.93-2.83,1.82-4.22,2.78-1,.67-2.52,2.47-3.81,2.48,0,0-.08.06,0,.09.47.31.7.16,1.2-.1,1.45-.74,2.75-1.83,4.14-2.68,2.91-1.78,5.68-3.85,9.09-4.51h0a.18.18,0,0,0,.27.06,1.79,1.79,0,0,0,.25-.23.31.31,0,0,0,.06-.13c0-.12,0-.24,0-.35A.3.3,0,0,0,108.37,140Z"/><path d="M175.27,100.56a13.17,13.17,0,0,0-1.66,4.55,33.29,33.29,0,0,0-1,5.69c-.19,2-.5,4-.83,6s-.2,4-.46,6-.57,4.06-.92,6.08-.38,4-1.27,6a33.82,33.82,0,0,1-8,11.89,23.48,23.48,0,0,1-12.52,5.73,41.2,41.2,0,0,1-14.51-.79,60.12,60.12,0,0,1-12-4.06,20.58,20.58,0,0,0-3.78-1.33,20.92,20.92,0,0,1,4.09,1A35.24,35.24,0,0,0,135,149.2c8.63-.28,17.21-1.44,24.49-6.53a24.46,24.46,0,0,0,7.84-8.59c1.85-3.63,2.6-8,3.29-12,.75-4.37,1.47-8.78,2-13.18.26-2,.93-4,.91-6,0-1.82-1.08-2.85-1.82-4.35a.2.2,0,0,0-.36.17c.6,1.88,1.53,3.19,1.33,5.31-.17,1.83-.76,3.65-1,5.48-.54,3.92-1.21,7.88-1.89,11.79a61,61,0,0,1-3.1,11.87c-1.6,4.13-5.87,7.77-9.65,9.84a38.79,38.79,0,0,1-11.56,4.39,66.79,66.79,0,0,1-12.55.87,42.77,42.77,0,0,1-12.15-2.46,13.42,13.42,0,0,0-3.18-.55,66.85,66.85,0,0,1,6.77.36,61.69,61.69,0,0,0,11.37,0c4-.39,8.07-2.52,11.45-4.47,3.71-2.14,7-5.36,10.15-8.25,5.52-5.07,9.34-12.25,12.05-19.15a30.52,30.52,0,0,0,2-11c0-3.56-1.59-6.24-3.79-8.9-.08-.1-.26,0-.19.12,2.05,3.46,3.36,6.49,3.07,10.6a32.94,32.94,0,0,1-2.67,10.7,52.67,52.67,0,0,1-13.28,19c-6.23,5.52-13.08,10-21.53,10.86-1.73.17-3.42-.4-5.1-.26a41.25,41.25,0,0,1-6.38-.29c-1.23-.09-2.55-.15-3.89-.12a27,27,0,0,1,4.24-.41,61.15,61.15,0,0,0,11.21-1.22,39.77,39.77,0,0,0,10.76-4.24,48.39,48.39,0,0,0,9.19-6.39A38.36,38.36,0,0,0,164.67,114,65.78,65.78,0,0,0,167,103.59c.37-3.84-.6-7.7-.68-11.54,0-.15-.23-.17-.24,0-.12,3.42.49,6.77.45,10.18,0,3.74-1.29,7.37-2.36,10.92a38.14,38.14,0,0,1-4.53,10.29,46.62,46.62,0,0,1-7.61,8.69,47.36,47.36,0,0,1-9.72,6.43,36.57,36.57,0,0,1-11.48,3.87c-4.72.69-9.79.49-14.54,1.37,1.64-.83,3.24-1.64,5-2.32,3.79-1.52,7.89-2,11.82-3a59.37,59.37,0,0,0,10.31-4.1A30.9,30.9,0,0,0,152,128.1a62.76,62.76,0,0,0,6.62-8.85c2-3.08,3-6.39,4-9.86a32.19,32.19,0,0,0,1.52-10.94c-.14-4-.41-7.87-2.29-11.43a.14.14,0,0,0-.26.12,38,38,0,0,1,1.82,12,34.81,34.81,0,0,1-1.94,11.3,34.39,34.39,0,0,1-4.31,9.5c-2.11,3.15-4.43,6.59-7.33,9.06-5.51,4.7-12.78,7.66-19.77,9.29a67.53,67.53,0,0,0-9.91,2.61,37.49,37.49,0,0,0-4.29,2c-1.32.73-2.79.75-4.18,1.2.08.83.14,1.66.19,2.5,4.33-.38,8.44,1.32,12.4,2.91a54.41,54.41,0,0,0,12.28,3.51c8.38,1.24,17.08.56,24-4.74a28.05,28.05,0,0,0,7.54-9.38,47.2,47.2,0,0,0,2.42-5.56c.64-1.82.51-3.89.75-5.79s.44-4,.74-6c.34-2.25.18-4.48.62-6.73s.4-4.59.68-6.88.8-5.44,2.12-7.31C175.55,100.57,175.36,100.44,175.27,100.56Z"/><path d="M89.82,43.94c-.59,2.29-1.45,4.48-2,6.79s-.94,4.55-1.57,6.81a47.09,47.09,0,0,0-1.42,6c-.28,2,.15,4-.16,6,0,.12.17.16.21,0,.53-2,.32-4,.47-6,.2-2.62,1.3-5.35,2-7.86s1-5,1.8-7.49,1.55-5,2.12-7.58a53,53,0,0,0,1.42-15c-.26-3.83-1.94-9.75-5.84-11.34a.27.27,0,0,0-.25.48C95.15,21,92,35.33,89.82,43.94Z"/><path d="M130,51.94a42.35,42.35,0,0,1-.17,11.3c-.51,3.79-2.39,7.16-4.25,10.44a64.66,64.66,0,0,1-6,8.77c-2.28,2.83-5,5.24-7.28,8.09-4.18,5.27-6.44,12-12.14,16l.36.8c5.63-3.83,8.27-10.38,12.06-15.75,2.09-3,4.85-5.4,7.24-8.11a57.6,57.6,0,0,0,6.45-9.33,35,35,0,0,0,4-8.78c.87-3.4.78-7,.74-10.52a55.83,55.83,0,0,0-1.62-10.57c-.8-3.84-1.94-8.58-.95-12.48a.16.16,0,0,0-.31-.11,9.87,9.87,0,0,0-.45,3.95,29.19,29.19,0,0,0,.33,5C128.61,44.45,129.51,48.16,130,51.94Z"/><path d="M83.62,15.18a20,20,0,0,1,1.16,3.59,20.06,20.06,0,0,1,.92,6.52c-.17,4.7-.27,9.32-.79,14-.44,4-1,8-1.42,12.05-.23,2.07-.37,4.13-.52,6.21-.15,1.92.12,3.86,0,5.74,0,.13.19.19.23.05a3.44,3.44,0,0,0,.1-1.28,23,23,0,0,1,.24-4.46c.2-2.28.4-4.54.68-6.81.58-4.83,1.24-9.68,1.73-14.52.26-2.59.39-5.18.42-7.78A36.5,36.5,0,0,0,86.21,22a53.5,53.5,0,0,0-1.73-6.46c-.48-1.6-1.35-1.72-2.67-2.35-.26-.12-.46.29-.23.44C82.35,14.08,83.09,14.25,83.62,15.18Z"/><path d="M81.12,37c.08,3.7.68,7.18.21,10.89-.22,1.76-.68,3.49-.92,5.26s0,3.45-.22,5.17a.38.38,0,0,0,.76.06c.16-1.72.07-3.44.21-5.17.17-2,.75-4,1-5.95.49-4-.3-7.8-.35-11.75,0-4.12.51-8.17-.16-12.26-.35-2.18-.56-4.37-.9-6.55-.21-1.37-.18-2.9-1-4.07-.13-.19-.41.05-.27.24l.07.11c.09.12.32,0,.28-.13a17.1,17.1,0,0,1,.1,2.51c.06.95.28,1.92.4,2.86.26,2,.47,3.95.78,5.92C81.77,28.31,81,32.74,81.12,37Z"/><path d="M75.39,45.67c-.07,2.7-.25,5.4-.31,8.1-.1,4.88-.15,10.29,1,15a.1.1,0,0,0,.19,0,125.36,125.36,0,0,1-.42-18c.11-2.65.35-5.31.21-8C75.94,40,75,37.2,74.54,34.42c-.52-2.93-.1-5.89-.33-8.85a52.33,52.33,0,0,0-1.46-8.52A41.42,41.42,0,0,0,71,10.64c-.45-1.05-.81-2.85-2.1-3.17a.37.37,0,0,0-.34.09c-.45-.4-.89-.81-1.38-1.17a.12.12,0,0,0-.19.13c.09.71.92,1.25,1.4,1.72A4.21,4.21,0,0,0,69.8,9.41a24.42,24.42,0,0,1,1.39,4.68c.67,2.42,1.27,4.84,1.72,7.3a40.24,40.24,0,0,1,.62,8.7,32.61,32.61,0,0,0,.78,7.23A39.23,39.23,0,0,1,75.39,45.67Z"/><path d="M64.32,14.1a51.15,51.15,0,0,1,1.07,6.63c.49,4.56-.34,9.2-.65,13.76-.15,2.15-.26,4.31-.33,6.45s.24,4.22.15,6.35a34.07,34.07,0,0,0,.34,5.88,27.29,27.29,0,0,0,1.22,4.3c0,.09.17.1.17,0,.08-1.35-.75-3-.93-4.37a44.14,44.14,0,0,1-.1-7.88c.07-2.12-.2-4.2,0-6.33.18-2.42.27-4.84.48-7.26a62.08,62.08,0,0,0,.2-13.21c-.44-3.75-1.24-8.46-4.72-10.63-.25-.16-.56.16-.35.39A13.12,13.12,0,0,1,64.32,14.1Z"/><path d="M78.9,41.55c.4,5.4-1.07,10.73-1.41,16.08-.17,2.7.32,5.44.34,8.14,0,2.09-.22,4.48.74,6.4.06.12.25.07.22-.06-.53-2.82-.25-5.62-.35-8.47a52,52,0,0,1,0-8C79,50.7,80,45.77,79.63,40.76s-1-10.33-1.8-15.41c-.39-2.58-1.08-5.09-1.47-7.67a28.54,28.54,0,0,0-1.75-7.54c-.2-.45-.87-.12-.68.32a33.91,33.91,0,0,1,1.77,8c.39,2.59,1.08,5.12,1.48,7.71C78,31.26,78.53,36.45,78.9,41.55Z"/><path d="M121.87,38.26a51.87,51.87,0,0,1-.32,9.32c-.23,3.17-.17,6.32-.55,9.49a47.9,47.9,0,0,1-6,18c-1.53,2.66-3.37,5.11-4.87,7.78-.66,1.17-1.38,2.31-2,3.49,0,0-.94,1.53-.88,1.49a.32.32,0,0,0,.27.58c.55-.22.71-.94,1.07-1.38a25.25,25.25,0,0,0,2.18-3.73c1.6-2.89,3.59-5.54,5.23-8.4a48.77,48.77,0,0,0,5.86-18.5c.4-3.4.34-6.82.55-10.23a45.75,45.75,0,0,0-.07-10.13,45.3,45.3,0,0,0-2.39-8.46c-.78-2.15-2.13-4.52-4.43-5.25-.21-.07-.38.23-.18.35,2.45,1.57,3.63,4,4.45,6.68A47.56,47.56,0,0,1,121.87,38.26Z"/><path d="M111.29,22.7c1-.17,2.45,2.8,2.79,3.47a11.86,11.86,0,0,1,1.15,4.68c.28,3.46.83,6.93,1.31,10.37,1,7.48,1,14.94-1.48,22.15a122.54,122.54,0,0,1-9.22,19.77c-1.63,2.9-3.5,5.68-5.11,8.61-1.54,2.78-2.32,5.72-3.44,8.64a1.09,1.09,0,0,0,.08.15l.36.76s0,0,.06-.09c.7-1.75,1.12-3.59,1.79-5.35a42.16,42.16,0,0,1,2.84-5.61c1.85-3.29,3.78-6.53,5.66-9.79,3.74-6.48,7.29-13.63,8.87-21a43,43,0,0,0,1-10.9c-.17-4-.86-8-1.36-12.07-.25-1.92-.59-3.83-.74-5.77a12.13,12.13,0,0,0-1-4.4,11.77,11.77,0,0,0-2.06-3.14c-.33-.35-1.34-.64-1.52-.85a.15.15,0,0,0-.25.16l0,.11A.15.15,0,0,0,111.29,22.7Z"/><path d="M125.43,50.46a42.1,42.1,0,0,1-.79,9.7,43.53,43.53,0,0,1-7.27,15.6c-3.36,4.62-5.82,9.76-9,14.47-.2.29.22.7.48.43,1.93-2,3.15-4.62,4.47-7a71.41,71.41,0,0,1,5.14-8,42.31,42.31,0,0,0,7.12-16,42.21,42.21,0,0,0,.63-9.12c0-3.35.67-6.66.66-10a26.21,26.21,0,0,0-1.58-7.71,35,35,0,0,0-3.61-8.58c-.1-.15-.29,0-.24.16,1,2.91,2.29,5.68,3.22,8.62a24.54,24.54,0,0,1,1.47,8.84C125.92,44.72,125.42,47.57,125.43,50.46Z"/><path d="M106.92,30.94a45.29,45.29,0,0,0-1.45-5.46,40.81,40.81,0,0,0-1.23-4.18c0-.36-.74-.29-.61.12,1,3.14,1.67,6.58,3.08,9.58A.11.11,0,0,0,106.92,30.94Z"/><path d="M70.84,115.54c-1.83,0-3.63-.22-5.46-.16A25.39,25.39,0,0,0,60,116.45c-3.74,1-7.54,1.43-11.28,2.37s-7.28,2.26-10.83,3.5A35.65,35.65,0,0,0,28,127.54c-1.61,1.21-3.17,2.49-4.81,3.68-1.83,1.34-4,2.11-5.83,3.41a.15.15,0,0,0,.12.26c3.2-.87,6-3,8.59-5a41.36,41.36,0,0,1,10.79-6.45c3.67-1.39,7.5-2.69,11.28-3.74s7.58-1.36,11.32-2.36a35.38,35.38,0,0,1,5.26-1.19,45.27,45.27,0,0,1,6,.13c3.8.1,7.41,1.06,11.18,1.46a33.48,33.48,0,0,0,10.52-.54,22.65,22.65,0,0,0,4.4-1.44c.95-.42,2.89-2,4-1.88a.34.34,0,0,0,.35-.17c-.07-.19-.14-.38-.22-.57a.11.11,0,0,0-.06,0,3.67,3.67,0,0,0-2,.71,29.26,29.26,0,0,1-5.38,2.28A32.13,32.13,0,0,1,82,117C78.25,116.67,74.65,115.62,70.84,115.54Z"/><path d="M105.71,61.83c1-4.91,2.4-9.85,2.54-14.88a69.16,69.16,0,0,0-.27-7.34c-.12-1.5-.1-3-.33-4.45-.21-1.33-.66-2.51-1-3.81,0-.13-.26-.14-.26,0,0,2.27.73,4.54.84,6.83.14,2.92.45,5.79.43,8.71,0,5-1.38,10-2.18,14.91C105.5,61.93,105.69,61.94,105.71,61.83Z"/><path d="M21.9,151.63c-.56-1.87-2-3.16-2.19-5.17-.39-3.35,3.16-5.84,2.77-9.18a16.75,16.75,0,0,1-3.24,1.94c-1.58.71-3.57,1.83-5.37,1.58a.33.33,0,0,1-.23-.15.41.41,0,0,1-.16-.58,9,9,0,0,1,.66-.92,40,40,0,0,0,1.62-5.65,60.2,60.2,0,0,0,1.75-7.88,70.84,70.84,0,0,0,.66-11.81c-.27-2.1-.58-4.19-.64-6.29a29.6,29.6,0,0,1,.42-5,1.55,1.55,0,0,1,.09-.29.44.44,0,0,1-.06-.45c1.46-3.67,6.41-5.8,10.12-6,4.71-.32,9.23.93,13.55,2.71,5.22,2.15,10.2,4.57,15.77,5.71,5,1,11.19,1.34,15.75-1.38,1.48-.88,4.11-2.5,3-4.63a7.8,7.8,0,0,0-3.26-3.3,23.94,23.94,0,0,0-8.08-2.57c-2.51-.39-4.95-1.07-7.51-1a80.6,80.6,0,0,0-8.49.88,106.34,106.34,0,0,1-15.75.69c-4.9-.07-10.09.11-14.91-.66a.36.36,0,0,1-.22-.13s0,0-.05,0a.33.33,0,0,1-.27-.35A18.45,18.45,0,0,1,15.1,90.6a33.11,33.11,0,0,1-6.43-4.27c-3.67-3.09-5.39-7-4.35-11.84s4.31-9,6.62-13.12c2.66-4.73,6.71-10.82,4.68-16.55-.16-.44.5-.77.68-.32l.06.17c2.81,3.35,5.41,6.79,8.51,9.9,3.48,3.49,7.09,6.8,10.81,10,1.58,1.38,2.89,3.08,4.6,4.3a19.66,19.66,0,0,0,5.78,2.87,27,27,0,0,0,6.87,1.34,9.34,9.34,0,0,0,4.42-.57c.88-.45,2.79-1.8,2.46-3-1.28-4.72-5.38-6.61-9.71-7.84-4-1.14-8.05-1.72-12-3.11-7.68-2.73-14.17-9-19-15.48a.39.39,0,0,1-.11-.72c.55-.34.95-3,1.12-3.52a48.48,48.48,0,0,1,2.09-5.19,98,98,0,0,0,4.09-10.91A34.16,34.16,0,0,0,28.25,11.1,54.14,54.14,0,0,0,26.61.83h0l-.2-.24A.35.35,0,0,1,26.7,0c.51,0,.74.55,1.07.85a6.55,6.55,0,0,1,.89,1.08,15.27,15.27,0,0,0,3.86,2.68,20.09,20.09,0,0,0,5.19,1.2,74.31,74.31,0,0,0,11,.42c5-.2,10.25.16,14.48,2.77a.44.44,0,0,1,.68-.22c2.94,2.05,3.44,4.55,4.18,7.88a34,34,0,0,1,.28,11.39C68,30.19,68,32.3,67.7,34.44c-.3,1.89-.62,3.79-.86,5.69-.41,3.23-1.25,8.37,1.41,10.87,3.22,3,4.11-3.46,3.76-5.46s-.91-3.89-1.38-5.83a44.16,44.16,0,0,1-.77-12,38.42,38.42,0,0,0-1.22-12.36,28.84,28.84,0,0,0-2.28-5.89A12.48,12.48,0,0,0,63.7,5.82c-.28-.08-.55-.18-.83-.25s-.22-.66.13-.6c4.25.67,7.65,2.79,11.3,4.89A40,40,0,0,0,84,13.61l.13,0A14.54,14.54,0,0,1,91.66,16c4.33,3.25,5,8.22,5,13.3A50.36,50.36,0,0,1,93.35,46c-1,2.91-2.14,5.84-2.89,8.82a72.71,72.71,0,0,0-1.41,8.26,21,21,0,0,0,.68,10c.71,1.91,2.13,5.25,4.61,5.34s3.72-2.49,4.94-4.58c.81-1.61,2-3,2.74-4.67a40.34,40.34,0,0,0,2.89-6.56,46.06,46.06,0,0,0,1.69-8c.2-2.22.06-4.43,0-6.65A59.22,59.22,0,0,0,104,32.53c-.75-2.62-1.65-5.17-2.27-7.83-.5-2.14-.87-4.31-1.43-6.44a.08.08,0,0,1,0-.07L100.2,18c-.12-.41.54-.72.79-.37,1.71,2.51,5.3,4.13,8.24,4.35,1.63.12,3.28.21,4.91.19a10.85,10.85,0,0,1,3.73.21,12,12,0,0,1,6.4,4.93,16.09,16.09,0,0,0,3.63,3.78,10,10,0,0,0,3.7,1.54c.24.06.16.37,0,.41a.65.65,0,0,1,0,.19,18.14,18.14,0,0,0,0,7.83c.2.9.44,1.79.71,2.68a.25.25,0,0,1,.16,0c1.26.69,2.93.85,4.26,1.47a20.57,20.57,0,0,1,2.83,1.57c2.71,1.8,5.18,3.87,8.29,5s6.28,1.36,9.57,1.73c2.32.27,5.16.59,7,2.17a12.42,12.42,0,0,1,3.7,6.46c.48,2.61-.46,4.81-1.48,7.18-1.11,2.58-2.43,5.13-3.41,7.76a34.82,34.82,0,0,0-1.29,5.14c-.25,1.17-.85,2.75-.53,4,2.3,2.41,4.35,5,6.41,7.64.44.57,1,1.27,1.55,2l.76.83a15.08,15.08,0,0,0,3.46,3c1,.57,2,.27,2.94.63,1.41.5.25,2.62.16,3.52-.28,2.72-1.16,5.27-1.64,8a27.45,27.45,0,0,0-.32,9,27.72,27.72,0,0,1,.1,7.72,27,27,0,0,1-1.84,7.52c-1,2.3-1.58,4.86-2.85,7a25.23,25.23,0,0,1-4.53,6.38,25.64,25.64,0,0,1-6.64,4.3c-4.74,2.15-9.71,3.68-15,3.3a56.43,56.43,0,0,1-16.26-3.92,71,71,0,0,1-7.38-3.62,18.15,18.15,0,0,0-4.87-1.83,8.83,8.83,0,0,0-2.4-.05,63,63,0,0,1,0,6.44c-.07,1.33-.19,3.4-1.8,3.86-1.25.36-1.83-.82-2-1.9-.35-2.29-.52-4.59-.67-6.9-3.76,2.48-6.44,6.12-9.22,9.6s-5.43,7.2-8.39,10.6a55.05,55.05,0,0,1-4,4.47,60.36,60.36,0,0,1-5,4c-3.26,2.4-6.91,5.06-10.89,6.08A39.87,39.87,0,0,1,47,182.14a43.37,43.37,0,0,1-10-5.79,22.66,22.66,0,0,1-4-4,24.1,24.1,0,0,1-2-3.58,6.43,6.43,0,0,1-.87,1.08c-.15.14-.34,0-.3-.2s0-.09,0-.14a7.1,7.1,0,0,1-.09-2.16c0-.92-.07-1.85-.09-2.77,0-2.26-.21-4.5-.3-6.74a0,0,0,0,1,0,0,.16.16,0,0,1,0-.07,1.48,1.48,0,0,0,0-.21.19.19,0,0,1,.33-.1,4,4,0,0,1,.22.34,2.34,2.34,0,0,1,.68.32c1,.83,3.14.85,4.37,1a37,37,0,0,0,3.79.22c1.49,0,2.59-.84,4-1a.13.13,0,0,1,.13.05,19.86,19.86,0,0,1,4.11-.64c.58,0,1.43-.08,2.29-.07a31.74,31.74,0,0,0-3.15-1.25,53.78,53.78,0,0,0-13.14-2.82,12.84,12.84,0,0,0-7.21,1.08,38.39,38.39,0,0,1-4.53,2.28.34.34,0,0,1-.22,0,.27.27,0,0,1-.31-.29C20.9,154.91,22.45,153.47,21.9,151.63Zm8.64,16.05a14.55,14.55,0,0,1,6.94-7.42,25.11,25.11,0,0,1-3.24-.35,12.61,12.61,0,0,1-3.8-.91,18.18,18.18,0,0,1,.11,4.28C30.51,164.75,30.61,166.22,30.54,167.68ZM105,118a188.13,188.13,0,0,0-7.6-17.49,121.68,121.68,0,0,0-11-17.08c-2-2.72-4-5.48-6.08-8.12-1.94-2.45-3.51-5.16-5.54-7.55-4-4.66-7.92-9.34-12.26-13.67C58,49.61,53,46,48,42.06c-.54-.42-1.06-.85-1.59-1.29,1.83,1.71,3.74,3.19,5.67,4.81a111.91,111.91,0,0,1,12.6,12.79C72.82,67.83,81.42,77.24,88,87.85a153.06,153.06,0,0,1,16.22,34.37,104.87,104.87,0,0,1,4.42,17.85c.39,2.92.73,5.83.84,8.77a40.45,40.45,0,0,0,.33,4.8c.09.53.14,1.06.22,1.59.2,1.33,1.64,1.63,1.78-.16C112.91,142.22,109.53,129.92,105,118Zm31.14-60.34a30.36,30.36,0,0,1-3,16.08c-2.6,5.15-6.56,9.12-11,12.74-2.52,2.06-5.11,4-7.56,6.2-2.21,2-5.15,5.07-5.08,8.3a3.81,3.81,0,0,0,5.57,3.41,21.44,21.44,0,0,0,4-2.52,29.46,29.46,0,0,0,5.59-6.4c1.68-2.63,3.1-5.38,4.55-8.14.66-1.27,1.33-2.54,2.1-3.74a24,24,0,0,0,2.56-4.18c2.12-5.59,5-11.35,4.89-17.48,0-3.43-.36-7.39-1.73-10.59a23.4,23.4,0,0,0-4.43-6.56C134,49.06,135.81,53.23,136.11,57.69ZM102.85,69.54c1-1,2-1.88,3-2.83a17.28,17.28,0,0,0,5.3-8.28,53,53,0,0,0,1.33-8.52c.3-3.44.78-7-.74-10.24a44,44,0,0,0-5.08-7.74,36.49,36.49,0,0,1-4.22-7c0,.12,0,.24.09.36.79,2.85,1.9,5.61,2.62,8.48a68.76,68.76,0,0,1,2.38,14.84,40.61,40.61,0,0,1-2,14.84A54.84,54.84,0,0,1,102.85,69.54ZM15.42,137.61a9.73,9.73,0,0,0,1.52-2.31,20.09,20.09,0,0,0,1.76-5.82,51,51,0,0,0,0-8.74,32.75,32.75,0,0,1-.67,5.73c-.68,2.9-1.19,5.79-2,8.66C15.85,135.75,15.67,136.69,15.42,137.61ZM22,155.73c3.32-1.94,6.33-3.49,10.39-3.22a53.41,53.41,0,0,1,14.13,2.89c4.65,1.63,8.78,4.3,13.82,4.65,4.69.32,8.54-1.12,12.38-3.27a.27.27,0,0,1,.1-.08l.15-.06c.75-.43,1.5-.87,2.25-1.34,2.08-1.29,17.87-13.11,18.93-7,.26,1.47-1.83,2.87-2.71,3.67a12.4,12.4,0,0,1-4.91,3,46.58,46.58,0,0,1-7.3,1.5c-1.3.13-2.74,0-4.11.16A30.6,30.6,0,0,1,68.69,160a21.34,21.34,0,0,1-11.64.6,27.78,27.78,0,0,1-5.92-2.15c-.46,0-.93,0-1.27,0a16.26,16.26,0,0,0-4.18.19,29,29,0,0,0-6.77,2c-2.23,1-4.79,2.53-6,4.76-.51.9-.92,1.9-1.44,2.82,1.1,1.59,1.78,3.33,3.15,4.79a29.7,29.7,0,0,0,4.51,3.79,34,34,0,0,0,10.07,5.09c7.85,2.2,17.55,3.53,25.07-.48a59.8,59.8,0,0,0,10.93-7.46c3.09-2.68,5.66-6.09,8.22-9.26,2.69-3.33,5.26-6.76,7.89-10.12,1.85-2.37,4.18-5,6.92-6.36a.44.44,0,0,1,.25-.21,83.72,83.72,0,0,0-.91-9.21,121.43,121.43,0,0,0-5.11-19.12A150.4,150.4,0,0,0,85.22,85.19a161,161,0,0,0-11.76-15c-4.19-4.88-8.22-9.93-12.62-14.62-2.19-2.34-4.4-4.7-6.74-6.89-2-1.9-4.52-3.38-6.49-5.33S43.48,39.11,41.52,37a17.49,17.49,0,0,1-1.72-2.33A17.44,17.44,0,0,1,37.1,31l0,0L37,30.81c-.12-.24.25-.41.38-.18l.1.15a.25.25,0,0,1,.3.12c.5.83,1.16,1.36,1.72,2.12s1.18,1.53,1.78,2.26c1.13,1,2.33,2,3.47,3,2.34,2,4.57,4,7.09,5.81A93.69,93.69,0,0,1,65.1,55.76c4.18,4.38,8.65,9,12.11,13.94C84.51,80.19,93.09,90,98.8,101.55c5.49,11.07,10.16,22.72,12.73,34.82A70.74,70.74,0,0,1,113,147a4.27,4.27,0,0,1,1.91-.2,16.53,16.53,0,0,1,3.24.81c2.43.95,4.66,2.35,7,3.47a57.6,57.6,0,0,0,7.88,2.79,45.86,45.86,0,0,0,8.18,1.92c11.11,1.35,24.05-3.5,28.58-14.42,2.15-5.19,4-10.22,4.27-15.89.13-2.49-.53-4.92-.63-7.41a30.36,30.36,0,0,1,.88-7.76c.51-2.38,1.09-4.71,1.5-7.12a9.93,9.93,0,0,1,.32-1.06c.36-1.37-.31-1-.93-1.08a4.7,4.7,0,0,1-1.64-.48,15.8,15.8,0,0,1-2.67-2.23,3.85,3.85,0,0,1-.3-.27c-2.59-2.53-4.71-5.5-7-8.26a26,26,0,0,0-4.46-4.61,34,34,0,0,0-4.72-2.65,34.22,34.22,0,0,0-5.48-2.4l-.29-.11a6.85,6.85,0,0,1,1,1,0,0,0,0,1,0,0l.34.25c7.82,6.19,12.93,18.24,9.95,28.09-1.59,5.26-3.52,10-7.2,14.13-3.24,3.67-7.74,7.65-12.62,8.85-2.84.7-8.86,2.53-10.12-1.41-.52-1.61.68-3.22,1.87-4.17,2.12-1.69,4.6-2.87,6.78-4.5,4.94-3.68,9.76-7.78,13.3-12.87a54.71,54.71,0,0,0,6.76-13.58s0,0,0-.06a28.26,28.26,0,0,0-2.26-5.46,27.68,27.68,0,0,0-5.27-7.16,68.83,68.83,0,0,0-5.85-4.5l-.4-.15c-.43-.14-.19-.78.24-.65,1.38.41,2.67,1.06,4,1.51a34.91,34.91,0,0,1,4.79,2.06,26.81,26.81,0,0,1,6.75,4.09c-.16-2,.74-4.34,1-6.12.41-2.39,1.63-4.55,2.61-6.73,1.11-2.48,3.08-5.77,3.14-8.53.07-3.33-2.4-8.46-6-9-1.63-.24-3.16-.79-4.84-.9a36.49,36.49,0,0,1-4.3-.48,21.66,21.66,0,0,1-6.62-2.09c-2.51-1.37-4.71-3.09-7.15-4.56a20.23,20.23,0,0,0-4.06-2c-.37-.12-.76-.2-1.14-.3,6.53,6.31,7.16,16.17,4.89,24.64a72.61,72.61,0,0,1-3.13,8.85,62.44,62.44,0,0,1-3.9,6.89c-2.82,5-5,10.68-9.14,14.8-2.84,2.82-6.9,6.9-11.26,5s-.91-8.57,1-10.92c3.79-4.6,9.39-7.67,13.67-11.81,4.64-4.49,8.33-10.16,9.37-16.65a29.53,29.53,0,0,0,0-10,70.25,70.25,0,0,0-2.56-8.25c-1.41-4.41-3.07-9.86-1.73-14.5a10,10,0,0,1-5.51-3.5c-1.33-1.5-2.36-3.59-4.06-4.71A9.55,9.55,0,0,0,115.3,23c-3.2.12-7,.34-10-1a14.68,14.68,0,0,1-4-2.37,28.63,28.63,0,0,0,2.57,6.73c1.9,3.31,4.48,6.1,6.59,9.25a17.29,17.29,0,0,1,3.16,7,31.81,31.81,0,0,1-.3,8.15c-.76,5.37-1.16,10.44-4.89,14.68-2,2.25-4.43,4-6.38,6.28-1.51,1.76-2.44,4-4,5.67-2.55,2.85-5.72,2.34-7.77-.83A17.3,17.3,0,0,1,88,69.16a33.7,33.7,0,0,1,.24-7.44c.49-5.56,2.37-10.82,4.17-16.07,2-5.87,3.44-11.56,3.21-17.81-.13-3.54-.53-7.19-3.21-9.83A13.62,13.62,0,0,0,86,14.75a30.87,30.87,0,0,1-10.52-3.17c-3.54-1.89-6.86-4.07-10.63-5.4A12.27,12.27,0,0,1,66.23,8a25.09,25.09,0,0,1,2.7,5.77,34.3,34.3,0,0,1,1.83,12.63,58.3,58.3,0,0,0-.1,8,45.13,45.13,0,0,0,1.46,7.28c.53,2,1.17,4.22.87,6.35-.17,1.19-.42,3-1.3,3.88-2.16,2.24-4.78-.6-5.61-2.64A13.37,13.37,0,0,1,65.51,44a60.34,60.34,0,0,1,.77-6.72,59.28,59.28,0,0,0,.88-7.25c.08-2.55.69-5,.53-7.57-.16-2.38-.65-4.63-1-7a8.3,8.3,0,0,0-3.42-6h0c-5.55-3.25-12.84-2.45-19-2.49a42.25,42.25,0,0,1-9.78-.81,14.06,14.06,0,0,1-6.33-3.56A24.88,24.88,0,0,1,28.85,6a43.17,43.17,0,0,1,.39,5.2,35.36,35.36,0,0,1-2,11.88,120.57,120.57,0,0,1-4.68,12.19,40.16,40.16,0,0,0-2.26,6,3.75,3.75,0,0,1-.55,1.44C23.65,46.57,27,51.06,31.66,54a35,35,0,0,0,7.45,3.88,61.36,61.36,0,0,0,7,1.79c3.77.78,8.35,1.67,11.28,4.35,2.13,1.94,4.7,5.22,2.29,7.87-2.79,3-7.6,2.35-11.21,1.48a22.15,22.15,0,0,1-11.34-6.15c-6.77-7-15-12.76-20.37-21.08.77,3.67-.52,7.58-2.16,10.87-2.05,4.09-4.58,8-6.78,12-2.66,4.87-4.59,10.82,0,15.33a25.92,25.92,0,0,0,6.44,5c1.41.68,3.14,2,4.83,2.22.8-.07,2.13-.17,2.46-.15,1.43.06,2.86.16,4.29.21,2.94.09,5.89.1,8.84.15a77.88,77.88,0,0,0,9.54-.23c2.92-.29,5.81-.77,8.73-1.08a41.82,41.82,0,0,1,15.41,1.42,18.75,18.75,0,0,1,6.75,3.16c1.12.88,2.67,2.86,2.37,4.42-.92,4.76-7.91,5.75-11.75,6.29-4.69.65-10.06-.7-14.48-2.25-5.54-1.94-10.72-5.14-16.53-6.28a19.63,19.63,0,0,0-8.39-.2c-2.73.67-6.27,2.33-7.37,5.11a.6.6,0,0,1-.18.23c-.07.52-.19,1-.22,1.38a22.89,22.89,0,0,0,0,5.67c.55,4,.89,7.88,1.16,11.88.49,7.08,0,13.63-5.19,18.84a13.56,13.56,0,0,0,4.37-1.69,17.88,17.88,0,0,0,4.1-2.65,74.18,74.18,0,0,0,6.18-5.42c1.66-1.85,3.53-3.62,6-4.12,2.91-.59,5.69-1.72,8.54-2.55,3.35-1,6.75-1.86,10-3.11,2.71-1,5.43-2.12,8.19-3,5-1.61,10.34-.74,15.08,1.22,3.73,1.54,8,4.73,7.22,9.27-.84,4.79-8.36,5.63-12.08,5.79a35.74,35.74,0,0,1-8.76-.66A65.76,65.76,0,0,1,56,130.73c-3-1-6-1.89-8.94-2.78-2.26-.66-5.4-2.18-7.77-1.68a.33.33,0,0,1-.24,0l-1.46.45c-1.28.42-2.79.35-4,1A14.06,14.06,0,0,0,30.7,130a28.14,28.14,0,0,1-3,3.06c-.89.69-1.86,1.3-2.68,2.07s-1.36,1.24-2.07,1.81c1.52,3.78-4.11,7.17-1.88,11,.82,1.43,2.13,2.95,1.92,4.74A9,9,0,0,1,22,155.73ZM44,126.08c2.6.7,5.23,1.4,7.79,2.25,5.25,1.73,10.43,4.13,16,4.51a29.91,29.91,0,0,0,8.76-.38c2.79-.65,7.47-2.21,6.86-6-.89-5.54-8.59-8-13.39-8.59-5.92-.74-11,2-16.5,3.85-3.9,1.36-7.88,2.48-11.84,3.66C42.39,125.59,43.15,125.86,44,126.08Zm110.64-18.87a48.89,48.89,0,0,1-9.54,11.19,76.3,76.3,0,0,1-6.45,5.16c-2,1.39-4.39,2.44-6.2,4-1.26,1.09-3,4.09-.17,4.76a11,11,0,0,0,3,0,18,18,0,0,0,6.86-1.59,32.13,32.13,0,0,0,12.39-10.83,31,31,0,0,0,3.34-7,28.35,28.35,0,0,0,1.94-7.37,27.85,27.85,0,0,0-.9-8.77A40.89,40.89,0,0,1,154.59,107.21ZM77.23,155.66a39.52,39.52,0,0,0,6.48-1,12.45,12.45,0,0,0,6.62-2.92c.79-.72,1.54-1.44,2.28-2.21q.9-1.83-.6-1.77a6,6,0,0,0-1.12,0,14.73,14.73,0,0,0-5.69,2.38c-1.92,1.21-3.92,2.28-5.77,3.59-.92.64-1.86,1.31-2.83,2Zm37.77-33c2.61-2.51,5.08-5.12,7.51-7.8,1.2-1.32,3.66-4.33,5.71-4.15,2.28.21,3.35,2.54,3.14,4.57-.29,2.87-1.8,4.65-3.68,6.75s-4.45,4.39-7.3,5.31a19.69,19.69,0,0,1-3,.75c-1.22.45-3.83.62-4.41-.58C112,125.45,113.65,124,115,122.64Zm4.28-3c-1.55,1.55-3.13,3.09-4.67,4.65a3.85,3.85,0,0,0-1,1.36c.14,1.47.77,2.07,1.92,1.79.42,0,.84,0,1.25,0s.94-.17,1.4-.28a14.49,14.49,0,0,0,6.42-3.26,28.8,28.8,0,0,0,4.64-5c1.2-1.72,2.57-6.52-.61-7.24-2-.45-4.82,3-5.91,4.27S120.48,118.41,119.28,119.62ZM99.92,99.57c-.63-1.35-.26-3.51.22-4.86.93-2.6,3.33-7.2,6.69-7,1,0,2.45.54,2.37,1.78-.09,1.48-1.57,2.41-2.22,3.67-.91,1.77-1.45,4-3,5.37a5.71,5.71,0,0,1-2.18,1.39C101.14,100.25,100.37,100.51,99.92,99.57Zm2.43-.78a.38.38,0,0,1,.26,0c1.48-1.12,2.36-3.37,3-4.85a11.33,11.33,0,0,1,1.61-2.75,10.54,10.54,0,0,0,.81-1q.18-2.15-1.65-1.74c-2.54.58-4.38,3.67-5.18,5.95C100.68,96.07,99.89,99.08,102.35,98.79ZM80.47,71.17c-1.34-1.82-1.48-4.65-2.11-6.76a9.19,9.19,0,0,1,0-6.27,1.21,1.21,0,0,1,1.76-.66c2.39,1.67,3.34,6.19,4.18,8.75.62,1.89,1.31,3.92.54,5.85a1.39,1.39,0,0,1-1.07,1,.37.37,0,0,1-.54.19c-.44-.23-.74,0-1.14-.38A15.79,15.79,0,0,1,80.47,71.17Zm.93,0c.33.33.86.71,1.18,1.08a.48.48,0,0,0,.22.16c3.39.2-.07-8.33-.57-9.68S81.11,59.41,80,58.37s-1.39,1.9-1.42,2.29a8,8,0,0,0,.37,3c.45,1.48.79,3,1.18,4.47A6.73,6.73,0,0,0,81.4,71.12ZM69.54,85.72c-2.36-.08-5.06-.16-7.06-1.6-1.31-.94-3-2.75-2.19-4.52,2-4.5,8.35-4,12.17-2.41,1.75.73,3.56,1.42,4.71,3a2.93,2.93,0,0,1,.36.65c1.13.71-.55,2.51-1.06,3C74.75,85.59,71.83,85.79,69.54,85.72Zm5-1.62a14.14,14.14,0,0,0,2.13-1.89l-.06-.08a.17.17,0,0,1,.19-.27,1.44,1.44,0,0,0-.46-1.52,11.81,11.81,0,0,0-.91-.82c-.29-.23-.58-.5-.89-.7a13.61,13.61,0,0,0-4.5-1.71c-2.75-.38-8.09-.81-9,2.77-1,4,5.32,4.84,7.85,4.92A12.85,12.85,0,0,0,74.58,84.1Zm6.87,30.83a9.3,9.3,0,0,1-3.57-.69c-1.82-.66-5.73-1.25-6.18-3.59-.33-1.65,3.91-2.38,4.86-2.65,2.08-.58,4.14-1,6.18-1.75a22.46,22.46,0,0,1,3.42-1c1.88-.36,4.12-.53,5.84.49,1.44.86,3,2.62,2.54,4.45-.91,3.74-5.73,5.46-9.61,5.21a4.45,4.45,0,0,1-.89,0C83.21,115.31,82.26,114.92,81.45,114.93Zm-.5-1c1.08,0,2.11.49,3.17.46a14.56,14.56,0,0,1,2.64,0,.4.4,0,0,1,.23.13,15.86,15.86,0,0,0,2.41-.67c2.06-.76,5.68-2.88,4-5.63-2.22-3.71-7-2.55-10.36-1.28-1.88.72-3.77,1.11-5.69,1.66a20.75,20.75,0,0,0-3.88,1.28c-1.75.89.36,1.9,1.36,2.26C76.76,112.84,78.93,114,81,114Zm-4.33,28c1.18-2.77,3.88-4.52,6.29-6.13,3.19-2.13,6.09-4.69,9.31-6.78,1.7-1.11,4.28-2.57,6.31-1.46,1.09.61.68,2.19.13,3.41a23.35,23.35,0,0,1-3.3,6,21.44,21.44,0,0,1-7.19,6.43c-2.53,1.46-5.86,2.93-8.88,2.29C77.62,145.36,75.8,143.92,76.62,142Zm8.06,2.2a23.85,23.85,0,0,0,6.54-3.78,24.91,24.91,0,0,0,6.59-9.09l.24-1c.53-2.17-1.18-2.24-2.68-1.72-2.47.86-4.57,2.7-6.65,4.25C86.83,134.25,85,135.65,83,137c-1.81,1.22-4,2.58-5.14,4.53C75.32,145.9,82.81,144.94,84.68,144.2Z"/></g></g></g></g></svg>