<svg xmlns="http://www.w3.org/2000/svg" viewBox="0 0 518.56 33.58"><defs><style>.cls-1{stroke:#000;fill-rule:evenodd;}</style></defs><g id="Layer_2" data-name="Layer 2"><g id="Layer_1-2" data-name="Layer 1"><path class="cls-1" d="M8.62,7.44c3.07-.29,6.42,1.06,5.64,4.75-.3,1.44-1.41,2.6-2,3.79C10.36,19.39,7.39,28.06,1.89,27.31a8.12,8.12,0,0,1-1-7.06,47.67,47.67,0,0,1,3.79-7.56c.6-1.11.93-2.22,1.59-3.26C6.84,8.54,7.84,8.15,8.62,7.44Zm27.3,1.24c3-.25,3.35,1.09,4.82,2.48.41,3.05-.37,3.47-1.27,5.56-.41,1.35-.81,2.71-1.21,4.06-.6,2.41-.36,4.73-1.89,6.26a4.52,4.52,0,0,1-2.92.87c-1.31-.89-2.65-1.13-3.35-2.75-1.56-3.63,1-10.32,2.26-12.75A8.29,8.29,0,0,1,34,9.64C34.53,9.2,35.36,9.12,35.92,8.68ZM28.71,10a2.37,2.37,0,0,1,.67.12l0,.33c-.92.87-1.15,2.3-1.75,3.44-1.26,2.39-2.69,4.88-3.8,7.39-.78,1.77-1.05,4.42-3.48,4.72-.33.22-.69.09-1.32.09-.59-.65-1.15-.66-1.3-1.89-1-1.54,1.35-3.51,2-4.29l2.28-3,2.16-2.3A12.09,12.09,0,0,1,26,12.19,24.61,24.61,0,0,0,28.71,10Zm38.41-1.2c3.21-.29,3.57.84,5.13,2.3.43,3.23-.81,4.94-1.46,7.56-.51,2.06.08,4.69-.88,6.36l-1.39,1.42c-9,1.46-6.43-11.4-3.92-15.64C65,10.1,65.92,9.64,66.47,9,66.85,9,66.93,9,67.12,8.81Zm33.34-2.33c2.5.06,3,1.08,4.31,2.35A7.38,7.38,0,0,1,105,12c-.37,1.32-1.28,2.7-1.7,4.1-1.1,3.66-.54,8.89-5.49,9.17-1.11-.73-2.35-1-3-2.28-1.89-3.74.9-11.93,2.47-14.43.47-.76,1.42-1.15,2-1.8A2.1,2.1,0,0,0,100.46,6.48Zm33.05-1.82c2.78-.19,3.25,1,4.65,2.32a7.28,7.28,0,0,1,.06,3.31c-.57,1.71-1.74,3.51-2.46,5.15-1.63,3.76-2.55,10.43-8.29,9.53-3.57-4.92-.54-9.89,1.33-14.18.67-1.54,1.12-3.73,2.32-4.8C131.8,5.37,132.74,5.24,133.51,4.66Zm-80.28,9.6,2.15-.15a1.94,1.94,0,0,1,.41,1.13c.75.92.47,3.36.14,4.47a18.85,18.85,0,0,1-2,4.28c-.29.49-1,1-1.21,1.58,0,.55,0,1.11-.05,1.66-.59,1.93-3.51,4-6.13,2.58-6.2-3.25.76-11.8,3.67-14C51.05,15.14,52.35,15,53.23,14.26ZM87,13.39l2,0a1.94,1.94,0,0,1,.42,1.13C88.16,16.11,87.91,18.13,87,20c-1.1,2.23-2.55,4.26-3.7,6.39-.71,1.65-1.43,3.3-2.14,5a4.76,4.76,0,0,1-5.72,1.23c-1.84-1.07-2.23-4-1.43-6.2,1.37-3.85,4.48-8.86,7.68-11.15a14.41,14.41,0,0,1,3.21-1.55C85.58,13.46,86.52,13.73,87,13.39ZM161.2,9.18c6.39-.64,5.88,4.19,4.93,8.77-.71,3.43-.68,6.45-3.24,8.18a3.94,3.94,0,0,1-2.46.34c-.88-.94-2-1.41-2.52-2.8-1.17-3.07,0-7.19.48-9.65.25-1.2.09-2.12.62-3S160.49,9.82,161.2,9.18Zm-45,4c1.08-.11,2.54-.31,3.16.11.15.16.07.05.19.32,1,1.36-.4,4.31-.8,5.2-1.17,2.64-3.25,4.16-4.69,6.46-.62,1-.92,2.17-2,2.79a6.63,6.63,0,0,1-3,.53c-.47-.36-1.19-.38-1.7-.7S106.54,26.5,106,26a7.17,7.17,0,0,1-.19-2.64c.63-2.9,5.07-7.67,7.49-9.14C114.11,13.69,115.42,13.75,116.19,13.16Zm29.24-1.88c2.19-.22,4.22.54,4.64,2.33,1.49,1.75-.44,4.39-.94,5.53-1.63,3.72-2.65,12.87-7.71,13.14-1.13-.75-2.23-1.08-2.82-2.45a8.87,8.87,0,0,1-.2-5.13c.86-3.75,2.44-8.59,4.33-11.57C143.35,12.15,144.5,12,145.43,11.28Zm32-2.24c3.83-.38,6.08,2.41,5.09,6.27-.92,3.55-3.33,10-6.5,11.39-1.27.58-2.67.13-3.66-.07-.28-.53-.87-.89-1.09-1.42-1.51-3.49,1.77-7.91,2.59-10.29l.75-3.53c.45-.89,1.37-1.4,2-2.13A1.35,1.35,0,0,0,177.45,9Zm15.6.06c2.14-.24,5.59-.43,5.91,1.41-1.24,1.78-1.94,3.78-3.09,5.69-.6,1-1.56,1.91-2.11,3-.88,1.66-.76,4.07-1.95,5.44a4.94,4.94,0,0,1-5.55,1.22A4.48,4.48,0,0,1,184.1,21c.79-2.95,3.27-8.41,5.42-10.16C190.55,10,192,9.87,193.05,9.1Zm17.67-1.23c2.95-.25,3.36,1.1,4.81,2.48.36,3.18-1.7,10.09-3.3,12-.68.82-2.25,2.47-3.88,1.44-4.79-1.24-1.94-11.47-.33-14.07C208.66,8.7,209.75,8.62,210.72,7.87Zm19-1c4.43-.43,6.49,3,5.13,6.93-1.22,3.54-4,9.18-8.07,10.18l-2-.19c-3-3.8-.32-7.74,1.38-11,.51-1,.29-2.37.76-3.37s1.44-1.48,2.16-2.3C229.46,7,229.54,7,229.72,6.87Zm20.37-.6c3.16-.31,6.14,1.74,5,5.45-.6,2-2.28,3.88-3.25,5.69-1.06,2-1.59,4.51-3.05,6.18-.65.75-2.6,1.93-3.9,1.11-2-.51-3-3.65-2.42-6.13,1-4.7,3.95-8.85,6.78-12.08A1.41,1.41,0,0,0,250.09,6.27Z"/><path class="cls-1" d="M271.33,3.31C274.4,3,277.75,4.36,277,8.05c-.31,1.45-1.42,2.61-2.06,3.79-1.84,3.41-4.82,12.08-10.32,11.33a8.09,8.09,0,0,1-1-7.06,47.63,47.63,0,0,1,3.78-7.56c.6-1.11.93-2.22,1.6-3.26C269.55,4.41,270.54,4,271.33,3.31Zm27.29,1.23c3-.25,3.36,1.09,4.82,2.48.42,3.05-.37,3.47-1.27,5.56L301,16.64c-.6,2.41-.36,4.73-1.88,6.27a4.63,4.63,0,0,1-2.93.86c-1.31-.89-2.65-1.13-3.34-2.74-1.56-3.64,1-10.33,2.26-12.76A8.22,8.22,0,0,1,296.7,5.5C297.23,5.07,298.07,5,298.62,4.54Zm-7.21,1.34a2.23,2.23,0,0,1,.68.11l0,.33c-.91.87-1.15,2.3-1.75,3.44-1.26,2.39-2.69,4.88-3.8,7.39-.78,1.77-1.05,4.42-3.48,4.72-.33.22-.69.09-1.32.1-.59-.66-1.14-.66-1.3-1.9-1-1.54,1.35-3.51,2-4.29l2.28-3,2.16-2.3a11.39,11.39,0,0,1,1.82-2.45A25.64,25.64,0,0,0,291.41,5.88Zm38.41-1.2c3.22-.3,3.57.83,5.14,2.29.43,3.23-.81,5-1.46,7.56-.52,2.06.07,4.69-.89,6.36l-1.39,1.42c-9.05,1.46-6.43-11.4-3.92-15.64.43-.71,1.32-1.16,1.87-1.78A1.15,1.15,0,0,0,329.82,4.68Zm33.35-2.34c2.49.06,2.95,1.09,4.31,2.35a7.72,7.72,0,0,1,.22,3.13c-.37,1.32-1.29,2.7-1.71,4.1-1.1,3.66-.53,8.89-5.49,9.17-1.11-.73-2.35-1-3-2.28-1.88-3.74.91-11.93,2.47-14.43.48-.76,1.42-1.14,2-1.8A2.14,2.14,0,0,0,363.17,2.34ZM396.22.52c2.77-.19,3.25,1,4.64,2.33a7.42,7.42,0,0,1,.07,3.31c-.57,1.7-1.75,3.5-2.46,5.14-1.64,3.76-2.56,10.43-8.29,9.53-3.57-4.92-.54-9.89,1.32-14.18.67-1.54,1.13-3.73,2.32-4.8C394.51,1.24,395.45,1.1,396.22.52Zm-80.29,9.6,2.15-.15a1.94,1.94,0,0,1,.41,1.13c.75.92.47,3.36.15,4.47a19.74,19.74,0,0,1-2,4.28c-.3.49-1,1-1.22,1.58,0,.55,0,1.11,0,1.66-.59,1.93-3.51,4-6.12,2.59-6.2-3.26.76-11.8,3.66-14C313.75,11,315.05,10.82,315.93,10.12Zm33.78-.87,2,0a1.94,1.94,0,0,1,.41,1.13c-1.26,1.57-1.5,3.59-2.44,5.48-1.1,2.23-2.55,4.26-3.7,6.39l-2.14,5a4.76,4.76,0,0,1-5.72,1.23c-1.84-1.07-2.22-4-1.43-6.2,1.38-3.84,4.48-8.86,7.68-11.15a14.41,14.41,0,0,1,3.21-1.55C348.29,9.32,349.22,9.59,349.71,9.25ZM423.91,5c6.38-.64,5.87,4.19,4.93,8.77-.71,3.43-.69,6.45-3.25,8.19a3.88,3.88,0,0,1-2.46.33c-.87-.94-2-1.41-2.52-2.8-1.17-3.07,0-7.19.48-9.65.25-1.2.09-2.12.62-3S423.2,5.68,423.91,5Zm-45,4c1.07-.12,2.53-.32,3.16.11.14.15.06,0,.19.31,1,1.36-.41,4.31-.8,5.2-1.18,2.64-3.25,4.16-4.69,6.46-.63,1-.93,2.17-2,2.79a6.82,6.82,0,0,1-2.95.54c-.47-.37-1.19-.39-1.71-.71s-.9-1.37-1.46-1.89a7.16,7.16,0,0,1-.18-2.64c.62-2.9,5.07-7.67,7.48-9.14C376.81,9.55,378.13,9.61,378.9,9Zm29.23-1.89c2.19-.21,4.22.54,4.64,2.33,1.5,1.75-.44,4.39-.94,5.53-1.63,3.72-2.65,12.87-7.7,13.14-1.14-.75-2.24-1.08-2.83-2.45a8.87,8.87,0,0,1-.19-5.13A41.11,41.11,0,0,1,405.44,9C406.06,8,407.2,7.87,408.13,7.14Zm32-2.24c3.82-.38,6.08,2.41,5.08,6.27-.92,3.55-3.33,10-6.5,11.4-1.27.57-2.67.12-3.66-.08-.28-.53-.86-.89-1.09-1.41-1.51-3.5,1.78-7.92,2.6-10.3.25-1.17.49-2.35.74-3.53.45-.89,1.37-1.4,2-2.13A1.41,1.41,0,0,0,440.16,4.9ZM455.75,5c2.14-.25,5.6-.44,5.91,1.4-1.24,1.78-1.94,3.79-3.09,5.69-.6,1-1.55,1.91-2.11,3-.87,1.65-.76,4.06-1.94,5.44A5,5,0,0,1,449,21.68a4.5,4.5,0,0,1-2.16-4.82c.8-2.95,3.27-8.41,5.43-10.16C453.25,5.88,454.69,5.73,455.75,5Zm17.67-1.24c2.95-.25,3.36,1.1,4.82,2.48.35,3.18-1.71,10.09-3.31,12-.68.81-2.25,2.46-3.88,1.43-4.79-1.24-1.94-11.47-.32-14.07C471.36,4.56,472.46,4.48,473.42,3.73Zm19-1c4.43-.43,6.48,3,5.13,6.93-1.23,3.54-4,9.19-8.08,10.18l-2-.19c-3-3.8-.32-7.74,1.39-11,.51-1,.29-2.36.76-3.37s1.43-1.48,2.16-2.3A1.15,1.15,0,0,0,492.43,2.73Zm20.36-.6c3.16-.3,6.15,1.74,5,5.45-.61,2-2.29,3.88-3.25,5.69-1.07,2-1.6,4.52-3.05,6.18-.66.75-2.6,1.93-3.91,1.11-2-.51-3-3.65-2.42-6.13,1-4.7,3.95-8.84,6.79-12.08A1.38,1.38,0,0,0,512.79,2.13Z"/></g></g></svg>