<svg id="Layer_1" data-name="Layer 1" xmlns="http://www.w3.org/2000/svg" viewBox="0 0 429.34 341.93"><defs><style>.cls-1{fill:#fff3f6;}.cls-2{fill:#f37d7f;}</style></defs><path d="M427.35,55.29a76.13,76.13,0,0,0-2.75-8.39,61.37,61.37,0,0,0-5.06-10.25,54.79,54.79,0,0,0-5.76-7.33A67.35,67.35,0,0,0,397,15.55,61.59,61.59,0,0,0,368,7a41.23,41.23,0,0,0-24.33,6.56,62.47,62.47,0,0,0-11.44,9.9c-4.42,4.69-8.44,9.71-12.44,14.74a202,202,0,0,1-16.3,18.29,65,65,0,0,1-21.1,14.39,11,11,0,0,1-3.6,1,5.38,5.38,0,0,1,.16-.56c1.91-4,3.28-8.21,4.82-12.35a10.61,10.61,0,0,0,.78-3.91c0-1.87-.09-3.75-.26-5.61a8.56,8.56,0,0,0-.7-2.6c-.62-1.37-1.83-1.42-2.58-.1a9.26,9.26,0,0,0-.77,2.35c-.55,2.27-.91,4.61-1.59,6.84a100.81,100.81,0,0,1-6.47,16.22c-.12.23-.26.45-.42.72a8.65,8.65,0,0,1-1,0c-1.73-.15-3.47-.22-5.19-.51a56.49,56.49,0,0,1-15-4.89c-5.24-2.47-10.38-5.17-15.58-7.69-4.35-2.11-8.67-4.27-13.11-6.13a76.12,76.12,0,0,0-47.73-3.94,95.16,95.16,0,0,0-10.33,3,88.59,88.59,0,0,0-14.37,6.63c-1.49.84-2.88,1.82-4.41,2.78l-1.55-1a62.82,62.82,0,0,0-27.26-9.83,41.57,41.57,0,0,0-30.51,8,61.84,61.84,0,0,0-9.89,9.38c-7,8.07-13,16.92-19.13,25.7A6.65,6.65,0,0,0,56,95.66a1.7,1.7,0,0,0,1.46,2.48A4,4,0,0,0,59,98a24.38,24.38,0,0,0,3.66-1.38,65.2,65.2,0,0,1,12.18-4.91,97.43,97.43,0,0,1,21.27-3.43,135.3,135.3,0,0,1,27.93,1.58c15,2.35,29.26,7,43.2,12.86,2.22.93,4.39,2,6.6,3a41.74,41.74,0,0,1,10.5,7,21.84,21.84,0,0,1,2.94,3.41,10.17,10.17,0,0,1,1.87,4.51,10.59,10.59,0,0,1-6,11.49,19.82,19.82,0,0,1-8.18,1.81,51.24,51.24,0,0,1-15.07-2.06,120,120,0,0,1-17.55-6.67c-5.76-2.6-11.5-5.27-17.32-7.75a119.94,119.94,0,0,0-30.57-8.59,112.17,112.17,0,0,0-32.11.42,76.93,76.93,0,0,0-12.06,3.06A63.7,63.7,0,0,0,39.82,117a55.29,55.29,0,0,0-12.29,8.62c-5.53,5.3-9,11.62-9.56,19.35a12.18,12.18,0,0,1-.86,3.75A27.72,27.72,0,0,0,16.82,169a8.22,8.22,0,0,0,.57,1.06,5.85,5.85,0,0,0,1.08-.61,10.25,10.25,0,0,0,1.1-1.18L23,164.05a112.84,112.84,0,0,1,38.63-30.66,73.26,73.26,0,0,1,21-6.41,67.94,67.94,0,0,1,19.21-.26A41.09,41.09,0,0,1,121,134.44,40.36,40.36,0,0,1,125,138a9.9,9.9,0,0,1,2.27,3.4c1.12,2.77.93,6.71-3.34,8.35a16.86,16.86,0,0,1-4.1.95,41.46,41.46,0,0,1-9.51-.25c-4.79-.52-9.57-1.13-14.37-1.61a50.13,50.13,0,0,0-11.93.16,82,82,0,0,0-15.33,4,97,97,0,0,0-17.36,8.07,83,83,0,0,0-19.25,15.18,44.69,44.69,0,0,0-7.47,10.66,21.93,21.93,0,0,0-2.34,7.85c-.13,1.52,0,3.07,0,4.81a19.7,19.7,0,0,0-3.5,7.58,39.7,39.7,0,0,0-1.29,8.32,7.62,7.62,0,0,1-.7,3.2,2.15,2.15,0,0,0-.09.44l.68-.82c.07.55.11.94.18,1.33.23,1.28.45,2.57.74,3.84a5.41,5.41,0,0,0,.49,1.05,1.85,1.85,0,0,0,1.89-.52,20.81,20.81,0,0,0,1.57-1.69c2.11-2.56,4.24-5.11,6.29-7.72a157,157,0,0,1,20.68-22c8.15-7,16.8-13.3,26.56-17.92a60.86,60.86,0,0,1,21.81-6.14,27,27,0,0,1,8.78.66,12,12,0,0,1,4.34,2,6.22,6.22,0,0,1,1.82,8,11.57,11.57,0,0,1-2.45,3.16,28.29,28.29,0,0,1-5.13,3.69,110.41,110.41,0,0,1-15,6.94c-6.55,2.63-13.16,5.14-19.67,7.88C62,204.4,53.8,208.23,45.88,212.52a99.37,99.37,0,0,0-15.65,10.16,36.55,36.55,0,0,0-8.47,9.45,21.75,21.75,0,0,0-3.37,13.11,46.88,46.88,0,0,0,2.86,12.91c1.5,4,3.19,7.88,4.92,11.76A56.91,56.91,0,0,0,29,275.08a1.41,1.41,0,0,0,1.42.92c.7-.07.86-.66,1.09-1.18.79-1.73,1.53-3.5,2.39-5.2A120.71,120.71,0,0,1,43,254.69,145.61,145.61,0,0,1,62.28,232,57.15,57.15,0,0,1,73,223.83a24.78,24.78,0,0,1,10.28-3.51,12.45,12.45,0,0,1,5.92.78,6.65,6.65,0,0,1,4.31,6.3,12.9,12.9,0,0,1-1.74,6.53,26.33,26.33,0,0,1-5.15,6.63,73.1,73.1,0,0,1-10.77,8.7c-4,2.62-8,5.06-12.08,7.59a76.11,76.11,0,0,0-15.47,12.4,38.76,38.76,0,0,0-6.47,9c-3.77,7.54-4.68,15.33-1.7,23.34a40.1,40.1,0,0,0,8.55,14.07c2.21,2.31,4.53,4.55,6.87,6.75a57.43,57.43,0,0,1,9.33,11.13c1.28,2,2.41,4.17,3.63,6.25.4.68.85,1.33,1.35,2.1a11.21,11.21,0,0,0,1-.88c.51-.57,1-1.2,1.46-1.79a27.17,27.17,0,0,1,5.73-5.6,56.8,56.8,0,0,1,16.09-7.6c1.9-.52,3.84-1,5.69-1.66C107.47,321.61,111.7,316,113,308a21.77,21.77,0,0,0-.76-9.45c-1.1-3.79-2.29-7.55-3.4-11.35a52.33,52.33,0,0,1-2.34-13.12,46.37,46.37,0,0,1,3-18.5,17.72,17.72,0,0,1,3-5.22,7.76,7.76,0,0,1,5.18-3,4.19,4.19,0,0,1,4,1.58,11,11,0,0,1,1.39,2.3,26.22,26.22,0,0,1,2,9.89,42.23,42.23,0,0,1-1.43,11.73c-1.46,5.91-3,11.8-4.49,17.72-.93,3.83-1.76,7.7-2.48,11.58a76,76,0,0,0-1.37,11.25,3,3,0,0,0,1.9,3.11,6.51,6.51,0,0,0,1.22.42,14.43,14.43,0,0,0,5.89.1,24.07,24.07,0,0,0,9.26-4.18,3.07,3.07,0,0,1,1.38-.5,16.78,16.78,0,0,0,3.5-.81,16,16,0,0,0,6.91-5.49A28,28,0,0,0,150.77,293c.43-3.18.61-6.39.83-9.59a75,75,0,0,0-.6-16.33,100.79,100.79,0,0,0-5.62-20.49c-1.92-5.08-3.91-10.13-5.74-15.23A57,57,0,0,1,136.39,217a21.29,21.29,0,0,1,2-11.44,14,14,0,0,1,2.89-4.08,9.17,9.17,0,0,1,11.45-1.29,17.2,17.2,0,0,1,5.06,4.81,36.91,36.91,0,0,1,5.34,11.63,79.61,79.61,0,0,1,2.84,17.82,122.1,122.1,0,0,1-2,28.88,112.84,112.84,0,0,1-5.07,19.11,3.16,3.16,0,0,0-.18.67,1.46,1.46,0,0,0,1.34,1.85,4.67,4.67,0,0,0,1.79-.06,33.37,33.37,0,0,0,3.83-1.2,31.75,31.75,0,0,0,10.58-7.14,6.34,6.34,0,0,1,2.93-1.63,34.36,34.36,0,0,0,6.41-2.32,20.89,20.89,0,0,0,10.41-10,23.13,23.13,0,0,0,1.79-6,56,56,0,0,0,.09-20.48c-.67-3.58-1.54-7.13-2.41-10.67a95.61,95.61,0,0,0-6.7-18.48c-3.21-6.73-6.41-13.48-9.21-20.4a18.6,18.6,0,0,1-1.59-5.26c-.12-1.41-.34-2.79-.52-4.19a13.42,13.42,0,0,1,.89-7.09,8.17,8.17,0,0,1,9.37-5,19.35,19.35,0,0,1,3.06.95,16.88,16.88,0,0,1,4.27,2.61,37.41,37.41,0,0,1,9.7,12.29c1.1,2.17,2,4.45,2.95,6.69a72.57,72.57,0,0,1,3.21,8.42,101.23,101.23,0,0,1,3.67,24.27c.2,6.24-.21,12.45-.62,18.66-.34,5.07-.62,10.16-.79,15.24a22.83,22.83,0,0,0,1.55,9.15,8,8,0,0,0,5.08,5.05,12.33,12.33,0,0,0,3.52.72,23,23,0,0,0,4.68-.44,48.44,48.44,0,0,0,10.6-3.69,55.53,55.53,0,0,0,12.64-7.36,5.16,5.16,0,0,1,1.78-.86,23,23,0,0,1,2.86-.58c1.75-.26,3.53-.4,5.27-.75a30.18,30.18,0,0,0,14.17-7.17,12.72,12.72,0,0,0,3.33-4.56,21.8,21.8,0,0,0,1.53-12.68,48.83,48.83,0,0,0-2.22-7.82,100.24,100.24,0,0,0-9.06-18.56,196.1,196.1,0,0,0-14.19-19.6c-4.39-5.48-8.8-10.95-13.1-16.52a63.27,63.27,0,0,1-8.8-14.8,27.57,27.57,0,0,1-2.05-13.67,17,17,0,0,1,3.08-8.39,11.45,11.45,0,0,1,8.52-4.88,16,16,0,0,1,6.7,1,32.19,32.19,0,0,1,11,7,65.34,65.34,0,0,1,9.15,10.78,168.44,168.44,0,0,1,17.7,33.16c3.35,8.17,6.33,16.5,9.46,24.76,1.85,4.85,3.75,9.68,6,14.34A49.33,49.33,0,0,0,308.84,228a21.2,21.2,0,0,0,10,6.6,10.1,10.1,0,0,0,5.84.14,14.59,14.59,0,0,0,6.06-3.61,69.56,69.56,0,0,0,6.76-7.29c1.32-1.64,2.63-3.3,3.95-4.94a33.65,33.65,0,0,1,10.05-8.37c3.37-1.86,6.74-3.72,10.07-5.66a57.46,57.46,0,0,0,12.06-9.1,29,29,0,0,0,7.47-11.88c1.71-5.62,1.66-11.36,1.05-17.12a45.67,45.67,0,0,0-1.81-8,54.27,54.27,0,0,0-4.76-11.91A71.53,71.53,0,0,0,347,118.76a109.09,109.09,0,0,0-19.55-7.85c-5.72-1.77-11.47-3.45-17.2-5.23a54.07,54.07,0,0,1-13.33-6,28.13,28.13,0,0,1-5.71-4.73,6.29,6.29,0,0,1-1.2-7.24c.05-.13.09-.26.14-.37a23.45,23.45,0,0,1,4.46-6.89,86.18,86.18,0,0,1,11.23-9.86,27.57,27.57,0,0,1,8.5-4.25A30.47,30.47,0,0,1,330.65,66a41,41,0,0,1,17.4,9.45,58.55,58.55,0,0,1,12.2,15.85,122.6,122.6,0,0,1,8.34,20.19c1.92,5.65,3.79,11.31,5.78,16.93a99.64,99.64,0,0,0,7.9,17.11,49.39,49.39,0,0,0,8.59,11.32,32.63,32.63,0,0,0,2.9,2.31,1.2,1.2,0,0,0,1.44.23,10.3,10.3,0,0,0,.42-1.6c.19-1.36.33-2.73.46-4.1a41.7,41.7,0,0,1,5.1-16.79c1.53-2.75,3.14-5.46,4.85-8.1,2.82-4.36,5.8-8.61,8.62-13a96.63,96.63,0,0,0,11.66-24.72A66,66,0,0,0,427.35,55.29ZM214,92.51C207.32,106.58,185.6,97,167.47,81c0,0,14.37-1.92,27-.62C206.8,81.62,217.21,85.89,214,92.51Z"/><path class="cls-1" d="M390.23,45.7a72.18,72.18,0,0,0-2.6-7.94,58.27,58.27,0,0,0-4.79-9.7,52,52,0,0,0-5.45-6.94,63.62,63.62,0,0,0-15.88-13A58.27,58.27,0,0,0,334.06,0a39.09,39.09,0,0,0-23,6.21A59.39,59.39,0,0,0,300.2,15.6c-4.18,4.44-8,9.19-11.77,14A190.5,190.5,0,0,1,273,46.86a61.4,61.4,0,0,1-20,13.62,10.46,10.46,0,0,1-3.4,1,3.31,3.31,0,0,1,.15-.53c1.81-3.78,3.1-7.77,4.56-11.69a10.09,10.09,0,0,0,.74-3.7c0-1.77-.09-3.55-.25-5.31a8,8,0,0,0-.66-2.46c-.59-1.3-1.73-1.35-2.44-.1a8.84,8.84,0,0,0-.73,2.23c-.52,2.15-.86,4.36-1.51,6.47a94.45,94.45,0,0,1-6.12,15.35c-.11.22-.25.43-.4.68a7.66,7.66,0,0,1-.95,0c-1.64-.14-3.29-.21-4.91-.48a53.61,53.61,0,0,1-14.24-4.63c-5-2.34-9.82-4.89-14.75-7.28-4.11-2-8.2-4-12.4-5.8a72.06,72.06,0,0,0-45.18-3.73,92.33,92.33,0,0,0-9.77,2.82,83.77,83.77,0,0,0-13.6,6.28c-1.41.79-2.73,1.72-4.18,2.63l-1.46-1A59.51,59.51,0,0,0,95.73,42a39.35,39.35,0,0,0-28.88,7.55,58.71,58.71,0,0,0-9.36,8.88c-6.66,7.64-12.34,16-18.11,24.32a6.56,6.56,0,0,0-.64,1.16,1.61,1.61,0,0,0,1.38,2.34,3.76,3.76,0,0,0,1.5-.1,23.24,23.24,0,0,0,3.46-1.31A61.5,61.5,0,0,1,56.61,80.2,92,92,0,0,1,76.74,77a127.76,127.76,0,0,1,26.43,1.5c14.17,2.22,27.7,6.63,40.89,12.17,2.1.88,4.16,1.88,6.25,2.79a39.15,39.15,0,0,1,9.93,6.6,20,20,0,0,1,2.79,3.22,9.77,9.77,0,0,1,1.77,4.27,10.05,10.05,0,0,1-5.72,10.88,18.85,18.85,0,0,1-7.74,1.71,48.42,48.42,0,0,1-14.26-2,113.27,113.27,0,0,1-16.61-6.31c-5.46-2.46-10.89-5-16.4-7.34a113.58,113.58,0,0,0-28.93-8.13,106,106,0,0,0-30.39.4,72,72,0,0,0-11.41,2.9,59,59,0,0,0-9.88,4.41,52.31,52.31,0,0,0-11.64,8.15c-5.23,5-8.5,11-9,18.32A11.54,11.54,0,0,1,2,134.09a26.25,26.25,0,0,0-.27,19.22,6.81,6.81,0,0,0,.54,1,5.87,5.87,0,0,0,1-.58,9.11,9.11,0,0,0,1-1.11l3.24-4a106.69,106.69,0,0,1,36.56-29,69.23,69.23,0,0,1,19.84-6.07,64.38,64.38,0,0,1,18.18-.25,38.83,38.83,0,0,1,18.15,7.31,38.38,38.38,0,0,1,3.85,3.37,9.25,9.25,0,0,1,2.15,3.22c1.06,2.62.88,6.35-3.16,7.9a16.1,16.1,0,0,1-3.88.9,39.29,39.29,0,0,1-9-.24c-4.54-.49-9.06-1.07-13.6-1.52a47.38,47.38,0,0,0-11.29.15,78.06,78.06,0,0,0-14.51,3.8,92.18,92.18,0,0,0-16.43,7.64A78.51,78.51,0,0,0,16.17,160.2,42.44,42.44,0,0,0,9.1,170.29a20.68,20.68,0,0,0-2.22,7.43c-.12,1.44,0,2.9,0,4.55a18.76,18.76,0,0,0-3.32,7.17,38.24,38.24,0,0,0-1.22,7.88,7.16,7.16,0,0,1-.66,3,1.53,1.53,0,0,0-.08.41L2.2,200c.07.52.1.89.17,1.26.22,1.21.43,2.43.7,3.63a4.81,4.81,0,0,0,.46,1,1.73,1.73,0,0,0,1.79-.49,20.45,20.45,0,0,0,1.49-1.6c2-2.42,4-4.83,6-7.3a148.86,148.86,0,0,1,19.57-20.82c7.72-6.64,15.9-12.58,25.14-17a57.66,57.66,0,0,1,20.64-5.81,25.54,25.54,0,0,1,8.31.63,11.18,11.18,0,0,1,4.11,1.9A5.89,5.89,0,0,1,92.25,163a10.7,10.7,0,0,1-2.32,3,26.54,26.54,0,0,1-4.85,3.49A104.61,104.61,0,0,1,70.86,176c-6.2,2.49-12.45,4.87-18.61,7.46-7.85,3.32-15.56,6.95-23.06,11a94.08,94.08,0,0,0-14.81,9.61,34.6,34.6,0,0,0-8,8.95,20.57,20.57,0,0,0-3.19,12.4,44.43,44.43,0,0,0,2.71,12.22c1.42,3.76,3,7.46,4.66,11.13a53.3,53.3,0,0,0,2.71,4.9,1.36,1.36,0,0,0,1.35.87c.66-.07.81-.63,1-1.12.75-1.64,1.45-3.31,2.26-4.92a113,113,0,0,1,8.59-14.13,137.54,137.54,0,0,1,18.23-21.5,54.11,54.11,0,0,1,10.1-7.71,23.45,23.45,0,0,1,9.73-3.32,11.74,11.74,0,0,1,5.6.74,6.27,6.27,0,0,1,4.08,6,12.19,12.19,0,0,1-1.64,6.18,25,25,0,0,1-4.88,6.28,69.38,69.38,0,0,1-10.19,8.23c-3.76,2.48-7.62,4.79-11.43,7.18A72.09,72.09,0,0,0,31.43,248.2a36.67,36.67,0,0,0-6.12,8.55c-3.57,7.14-4.43,14.51-1.61,22.09a37.93,37.93,0,0,0,8.09,13.32c2.1,2.19,4.29,4.31,6.51,6.39a54.25,54.25,0,0,1,8.83,10.53C48.34,311,49.41,313,50.56,315c.38.64.81,1.26,1.28,2a9.92,9.92,0,0,0,.95-.84c.48-.54.91-1.13,1.38-1.69a25.7,25.7,0,0,1,5.42-5.3A53.71,53.71,0,0,1,74.82,302c1.8-.5,3.63-.94,5.38-1.58,7.28-2.64,11.29-8,12.48-15.51a20.67,20.67,0,0,0-.72-8.94c-1-3.59-2.17-7.15-3.22-10.74a49.54,49.54,0,0,1-2.21-12.42,44,44,0,0,1,2.87-17.51,17.2,17.2,0,0,1,2.82-4.94,7.38,7.38,0,0,1,4.91-2.8,4,4,0,0,1,3.8,1.49,10.56,10.56,0,0,1,1.32,2.18,24.82,24.82,0,0,1,1.88,9.36,40,40,0,0,1-1.35,11.1c-1.38,5.6-2.89,11.17-4.25,16.77q-1.32,5.44-2.35,11A73.23,73.23,0,0,0,94.88,290a2.82,2.82,0,0,0,1.8,2.94,5.89,5.89,0,0,0,1.16.4,13.58,13.58,0,0,0,5.57.1,22.94,22.94,0,0,0,8.77-4,2.84,2.84,0,0,1,1.3-.47,15.61,15.61,0,0,0,3.31-.77,15,15,0,0,0,6.54-5.2,26.32,26.32,0,0,0,5.13-12.43c.41-3,.58-6,.79-9.08a70.68,70.68,0,0,0-.57-15.45,95,95,0,0,0-5.32-19.4c-1.82-4.8-3.7-9.58-5.43-14.41a54.13,54.13,0,0,1-3.08-13.59,20.13,20.13,0,0,1,1.86-10.83,13.27,13.27,0,0,1,2.73-3.86,8.69,8.69,0,0,1,10.84-1.22,16.24,16.24,0,0,1,4.79,4.55,34.84,34.84,0,0,1,5.05,11,75.24,75.24,0,0,1,2.69,16.86A116,116,0,0,1,141,242.57a107.54,107.54,0,0,1-4.8,18.08,2.88,2.88,0,0,0-.17.64,1.38,1.38,0,0,0,1.27,1.75A4.56,4.56,0,0,0,139,263a31.67,31.67,0,0,0,3.62-1.13,30.12,30.12,0,0,0,10-6.76,5.88,5.88,0,0,1,2.77-1.54,33.13,33.13,0,0,0,6.07-2.2,19.8,19.8,0,0,0,9.85-9.5,21.56,21.56,0,0,0,1.69-5.71,52.83,52.83,0,0,0,.09-19.38c-.63-3.39-1.46-6.75-2.28-10.1a90.5,90.5,0,0,0-6.34-17.49c-3-6.37-6.07-12.76-8.72-19.31a17.69,17.69,0,0,1-1.5-5c-.12-1.33-.33-2.64-.5-4a12.72,12.72,0,0,1,.85-6.71,7.71,7.71,0,0,1,8.86-4.74,17.38,17.38,0,0,1,2.9.9,15.55,15.55,0,0,1,4,2.47,35.23,35.23,0,0,1,9.18,11.63c1,2.05,1.89,4.21,2.79,6.33a66.7,66.7,0,0,1,3,8,96,96,0,0,1,3.48,23c.18,5.9-.2,11.78-.59,17.66-.32,4.8-.59,9.61-.75,14.42a21.66,21.66,0,0,0,1.47,8.66,7.58,7.58,0,0,0,4.81,4.78,11.61,11.61,0,0,0,3.33.68,22,22,0,0,0,4.43-.41,46.25,46.25,0,0,0,10-3.5,52.42,52.42,0,0,0,12-7,5,5,0,0,1,1.69-.82,22.24,22.24,0,0,1,2.7-.54c1.66-.25,3.34-.38,5-.71a28.62,28.62,0,0,0,13.41-6.79,11.91,11.91,0,0,0,3.15-4.32,20.58,20.58,0,0,0,1.45-12,46.25,46.25,0,0,0-2.1-7.4,94.79,94.79,0,0,0-8.57-17.56,186.53,186.53,0,0,0-13.43-18.55c-4.16-5.19-8.33-10.37-12.4-15.64a59.57,59.57,0,0,1-8.33-14,26,26,0,0,1-1.94-12.93,16.08,16.08,0,0,1,2.91-7.94,10.83,10.83,0,0,1,8.07-4.62,15.08,15.08,0,0,1,6.34,1,30.56,30.56,0,0,1,10.43,6.65,62,62,0,0,1,8.66,10.2,160,160,0,0,1,16.75,31.38c3.17,7.74,6,15.62,8.95,23.44,1.75,4.59,3.55,9.16,5.71,13.57a47,47,0,0,0,6.08,9.73,20,20,0,0,0,9.47,6.24,9.55,9.55,0,0,0,5.53.14,13.86,13.86,0,0,0,5.73-3.42,66.29,66.29,0,0,0,6.4-6.9c1.25-1.55,2.49-3.12,3.74-4.67a31.88,31.88,0,0,1,9.51-7.93c3.19-1.76,6.38-3.52,9.53-5.35a54.48,54.48,0,0,0,11.42-8.62,27.43,27.43,0,0,0,7.07-11.24c1.61-5.32,1.57-10.75,1-16.2a43.46,43.46,0,0,0-1.71-7.6,51.34,51.34,0,0,0-4.51-11.27,67.66,67.66,0,0,0-27-26.57,103.49,103.49,0,0,0-18.5-7.43c-5.42-1.68-10.86-3.27-16.28-5a51,51,0,0,1-12.62-5.7,26.6,26.6,0,0,1-5.4-4.47,6,6,0,0,1-1.14-6.86c.05-.12.09-.24.14-.35a22.14,22.14,0,0,1,4.22-6.52,81.26,81.26,0,0,1,10.63-9.33,26,26,0,0,1,8-4,28.76,28.76,0,0,1,15.4-.32,38.82,38.82,0,0,1,16.47,8.94,55.32,55.32,0,0,1,11.54,15,116.69,116.69,0,0,1,7.9,19.11c1.81,5.35,3.58,10.7,5.47,16a93.51,93.51,0,0,0,7.47,16.2,46.67,46.67,0,0,0,8.13,10.71,32.6,32.6,0,0,0,2.75,2.19,1.13,1.13,0,0,0,1.36.21,10.28,10.28,0,0,0,.4-1.51c.18-1.29.31-2.58.43-3.88a39.67,39.67,0,0,1,4.83-15.89c1.45-2.6,3-5.17,4.59-7.67,2.67-4.12,5.49-8.15,8.16-12.27a91.3,91.3,0,0,0,11-23.4A62.42,62.42,0,0,0,390.23,45.7ZM188.34,80.93C182,94.24,161.43,85.13,144.27,70c0,0,13.6-1.81,25.57-.58C181.49,70.62,191.34,74.66,188.34,80.93Z"/><path class="cls-2" d="M60.58,274.73l.22.07c.05-.14.12-.29.16-.43,1-3.54,2-7.07,3-10.62,1.46-5.41,2.83-10.85,4.76-16.13a167.81,167.81,0,0,1,13.7-28.18A295.43,295.43,0,0,1,102,191a214.91,214.91,0,0,1,51.83-49.46c7.84-5.26,16-10,24.14-14.81,7.94-4.67,16-9.17,23.7-14.23a187.41,187.41,0,0,0,19.86-14.68,99.62,99.62,0,0,0,11.5-12.27,111.21,111.21,0,0,0,19.15-34l1.16-3.33c-.36-.77-.71-1.45-1-2.15s-.54-1.45-.87-2.34c-.15.39-.25.61-.32.84-.36,1.28-.66,2.58-1.07,3.85a112.2,112.2,0,0,1-17.05,32.53A107.37,107.37,0,0,1,209.85,104c-8.08,5.83-16.44,11.21-25,16.24-8.94,5.23-17.87,10.48-26.72,15.85A188,188,0,0,0,136,151.73c-6.13,5-12.09,10.25-17.71,15.84a204,204,0,0,0-26.1,32.35,235,235,0,0,0-21.37,40.36A169.69,169.69,0,0,0,62,267.65C61.48,270,61.05,272.37,60.58,274.73Z"/><path class="cls-2" d="M252.9,37.94a3.14,3.14,0,0,0-.7,2.38,13.59,13.59,0,0,0,.87,4.26c.2.58.46,1.15.74,1.84C254.45,44.26,253.88,39,252.9,37.94Z"/><path d="M123,52.26c1.45-.92,2.77-1.84,4.17-2.63a84.31,84.31,0,0,1,13.61-6.29,94.76,94.76,0,0,1,9.77-2.82,72.13,72.13,0,0,1,45.18,3.73c4.2,1.77,8.29,3.81,12.4,5.8,4.93,2.39,9.79,4.94,14.75,7.28A53.64,53.64,0,0,0,237.11,62c1.62.26,3.27.33,4.91.47a6.09,6.09,0,0,0,.95,0c.15-.25.29-.46.4-.68a94.19,94.19,0,0,0,6.12-15.36c.65-2.1,1-4.31,1.51-6.46a8.41,8.41,0,0,1,.73-2.24c.71-1.24,1.85-1.2,2.44.1a7.86,7.86,0,0,1,.65,2.46c.17,1.76.23,3.54.26,5.31a10.1,10.1,0,0,1-.74,3.71c-1.46,3.92-2.75,7.9-4.57,11.68-.06.14-.07.29-.14.53a10,10,0,0,0,3.4-1,61.51,61.51,0,0,0,20-13.62,191.73,191.73,0,0,0,15.43-17.3C292.21,24.79,296,20,300.2,15.61A59,59,0,0,1,311,6.24a39.1,39.1,0,0,1,23-6.22A58.28,58.28,0,0,1,361.51,8.1a63.62,63.62,0,0,1,15.88,13,51.38,51.38,0,0,1,5.45,6.94,57.52,57.52,0,0,1,4.79,9.7,71.49,71.49,0,0,1,2.6,7.94,62.29,62.29,0,0,1-1,33.87,91.49,91.49,0,0,1-11,23.41c-2.67,4.12-5.49,8.15-8.16,12.27-1.62,2.5-3.14,5.06-4.6,7.66a39.86,39.86,0,0,0-4.82,15.9c-.12,1.29-.25,2.59-.43,3.87a10.78,10.78,0,0,1-.4,1.52,1.15,1.15,0,0,1-1.37-.22,34,34,0,0,1-2.74-2.18,46.94,46.94,0,0,1-8.13-10.72,94,94,0,0,1-7.48-16.2c-1.88-5.31-3.65-10.67-5.46-16a116,116,0,0,0-7.91-19.12,54.89,54.89,0,0,0-11.53-15,38.71,38.71,0,0,0-16.47-8.94,28.67,28.67,0,0,0-15.4.32,26,26,0,0,0-8.05,4,82.66,82.66,0,0,0-10.62,9.34A22,22,0,0,0,260.42,76c-.05.12-.09.23-.15.35a6,6,0,0,0,1.14,6.87,26.29,26.29,0,0,0,5.41,4.46,50.88,50.88,0,0,0,12.62,5.7c5.41,1.69,10.86,3.27,16.28,5a103.83,103.83,0,0,1,18.5,7.44,67.53,67.53,0,0,1,27,26.57,51.34,51.34,0,0,1,4.51,11.27,42.36,42.36,0,0,1,1.7,7.6c.59,5.45.63,10.87-1,16.19a27.18,27.18,0,0,1-7.06,11.24A54,54,0,0,1,328,187.27c-3.14,1.84-6.33,3.6-9.52,5.36a31.7,31.7,0,0,0-9.51,7.92l-3.74,4.68a65.19,65.19,0,0,1-6.4,6.89,13.62,13.62,0,0,1-5.74,3.42,9.44,9.44,0,0,1-5.52-.13,20,20,0,0,1-9.47-6.25,46.88,46.88,0,0,1-6.08-9.72c-2.17-4.42-4-9-5.71-13.58-3-7.82-5.79-15.7-8.95-23.43a160.29,160.29,0,0,0-16.75-31.38,61.18,61.18,0,0,0-8.66-10.2,30.56,30.56,0,0,0-10.43-6.65,14.94,14.94,0,0,0-6.35-1,10.84,10.84,0,0,0-8.07,4.62,16.1,16.1,0,0,0-2.9,7.94,26,26,0,0,0,1.94,12.93,59.57,59.57,0,0,0,8.33,14c4.07,5.26,8.24,10.44,12.4,15.64a184.71,184.71,0,0,1,13.42,18.54,95.45,95.45,0,0,1,8.58,17.56,46.85,46.85,0,0,1,2.1,7.4,20.48,20.48,0,0,1-1.46,12,11.83,11.83,0,0,1-3.15,4.33,28.43,28.43,0,0,1-13.4,6.78c-1.65.33-3.33.46-5,.71a20.5,20.5,0,0,0-2.7.55,4.83,4.83,0,0,0-1.69.82,53.16,53.16,0,0,1-12,7,45.88,45.88,0,0,1-10,3.49,21.37,21.37,0,0,1-4.43.41,11.61,11.61,0,0,1-3.33-.68,7.53,7.53,0,0,1-4.81-4.78,21.58,21.58,0,0,1-1.47-8.65c.16-4.81.43-9.62.75-14.43.39-5.88.77-11.75.59-17.66a96,96,0,0,0-3.48-23,65.91,65.91,0,0,0-3-8c-.9-2.13-1.75-4.28-2.79-6.34a35.57,35.57,0,0,0-9.18-11.63,15.55,15.55,0,0,0-4-2.47,16.72,16.72,0,0,0-2.9-.89,7.7,7.7,0,0,0-8.86,4.74,12.71,12.71,0,0,0-.85,6.71c.17,1.31.38,2.63.5,3.95a17.66,17.66,0,0,0,1.5,5c2.65,6.55,5.68,12.93,8.72,19.31a90.65,90.65,0,0,1,6.34,17.48c.82,3.36,1.65,6.72,2.28,10.11a53,53,0,0,1-.09,19.37,21.52,21.52,0,0,1-1.69,5.72,19.82,19.82,0,0,1-9.86,9.5,33.48,33.48,0,0,1-6.06,2.19,5.87,5.87,0,0,0-2.77,1.54,30,30,0,0,1-10,6.76A32.35,32.35,0,0,1,139,263a4.36,4.36,0,0,1-1.69.05A1.37,1.37,0,0,1,136,261.3a3,3,0,0,1,.17-.65,107.43,107.43,0,0,0,4.8-18.07,116,116,0,0,0,1.85-27.34,75.24,75.24,0,0,0-2.69-16.87,35.24,35.24,0,0,0-5.05-11,16.28,16.28,0,0,0-4.79-4.56A8.67,8.67,0,0,0,119.44,184a13.08,13.08,0,0,0-2.73,3.86,20,20,0,0,0-1.86,10.82,54.2,54.2,0,0,0,3.08,13.6c1.73,4.83,3.6,9.6,5.43,14.4a95.32,95.32,0,0,1,5.32,19.4,70.06,70.06,0,0,1,.56,15.45c-.2,3-.37,6.08-.78,9.08a26.36,26.36,0,0,1-5.13,12.44,15,15,0,0,1-6.54,5.19,16.2,16.2,0,0,1-3.32.78,2.82,2.82,0,0,0-1.29.46,22.79,22.79,0,0,1-8.77,4,13.41,13.41,0,0,1-5.57-.1,5.89,5.89,0,0,1-1.16-.4,2.83,2.83,0,0,1-1.81-2.93,73.08,73.08,0,0,1,1.31-10.65q1-5.52,2.35-11c1.36-5.6,2.87-11.17,4.25-16.76a40.41,40.41,0,0,0,1.35-11.11,24.81,24.81,0,0,0-1.88-9.35,10.63,10.63,0,0,0-1.32-2.19,4,4,0,0,0-3.8-1.48,7.34,7.34,0,0,0-4.91,2.8,17.15,17.15,0,0,0-2.82,4.93,44,44,0,0,0-2.87,17.52,49.38,49.38,0,0,0,2.21,12.41c1.05,3.59,2.18,7.16,3.21,10.75a20.51,20.51,0,0,1,.73,8.94c-1.19,7.53-5.2,12.87-12.48,15.51-1.76.63-3.58,1.07-5.38,1.57a53.77,53.77,0,0,0-15.24,7.19,25.89,25.89,0,0,0-5.41,5.3c-.47.56-.9,1.15-1.38,1.7a11.53,11.53,0,0,1-.95.84c-.47-.74-.9-1.35-1.28-2-1.15-2-2.22-4-3.43-5.91a54.66,54.66,0,0,0-8.83-10.54c-2.22-2.08-4.41-4.2-6.51-6.39a37.89,37.89,0,0,1-8.09-13.31c-2.82-7.58-2-15,1.61-22.09a36.73,36.73,0,0,1,6.12-8.56,72.09,72.09,0,0,1,14.65-11.74c3.81-2.38,7.67-4.7,11.43-7.17a69.38,69.38,0,0,0,10.19-8.23,25.2,25.2,0,0,0,4.88-6.28,12.19,12.19,0,0,0,1.64-6.18,6.28,6.28,0,0,0-4.08-6,11.75,11.75,0,0,0-5.6-.73,23.26,23.26,0,0,0-9.73,3.32,53.27,53.27,0,0,0-10.1,7.71,137.23,137.23,0,0,0-18.24,21.5,112.92,112.92,0,0,0-8.58,14.13c-.81,1.61-1.51,3.28-2.26,4.92-.23.48-.37,1-1,1.12a1.39,1.39,0,0,1-1.36-.88,51.92,51.92,0,0,1-2.7-4.9c-1.64-3.67-3.24-7.37-4.66-11.13a44.29,44.29,0,0,1-2.71-12.21,20.59,20.59,0,0,1,3.19-12.41,34.56,34.56,0,0,1,8-8.94,94.05,94.05,0,0,1,14.8-9.62c7.51-4.06,15.22-7.69,23.07-11,6.16-2.6,12.41-5,18.61-7.47a105.78,105.78,0,0,0,14.22-6.56,26.59,26.59,0,0,0,4.85-3.5,10.42,10.42,0,0,0,2.32-3,5.87,5.87,0,0,0-1.72-7.56,11.21,11.21,0,0,0-4.11-1.91,25.54,25.54,0,0,0-8.31-.63,57.58,57.58,0,0,0-20.65,5.82,112.66,112.66,0,0,0-25.13,17,147.18,147.18,0,0,0-19.57,20.82c-1.94,2.46-3.95,4.87-5.95,7.29a20.45,20.45,0,0,1-1.49,1.6,1.71,1.71,0,0,1-1.79.49,4.34,4.34,0,0,1-.46-1c-.27-1.2-.48-2.42-.7-3.63-.07-.36-.11-.74-.18-1.25l-.63.76a2.79,2.79,0,0,1,.07-.41,7,7,0,0,0,.67-3,38.15,38.15,0,0,1,1.22-7.87,18.69,18.69,0,0,1,3.32-7.17c0-1.65-.08-3.11,0-4.56A20.63,20.63,0,0,1,9.1,170.3a42.44,42.44,0,0,1,7.07-10.09,78,78,0,0,1,18.22-14.37,92.22,92.22,0,0,1,16.43-7.65,77.26,77.26,0,0,1,14.51-3.79,47.38,47.38,0,0,1,11.29-.15c4.54.44,9.06,1,13.6,1.52a39.28,39.28,0,0,0,9,.23,16.08,16.08,0,0,0,3.88-.89c4-1.56,4.22-5.29,3.16-7.9a9.16,9.16,0,0,0-2.15-3.22,36.87,36.87,0,0,0-22-10.68,64,64,0,0,0-18.18.25,69.21,69.21,0,0,0-19.84,6.06,106.6,106.6,0,0,0-36.56,29l-3.24,4a10,10,0,0,1-1,1.11,5.62,5.62,0,0,1-1,.59,7.16,7.16,0,0,1-.53-1A26.28,26.28,0,0,1,2,134.09a11.4,11.4,0,0,0,.82-3.55c.53-7.32,3.81-13.3,9-18.31a52,52,0,0,1,11.64-8.16,59,59,0,0,1,9.88-4.41,73.09,73.09,0,0,1,11.41-2.9,106,106,0,0,1,30.39-.4,114,114,0,0,1,28.93,8.13c5.51,2.35,10.94,4.88,16.4,7.35a115.92,115.92,0,0,0,16.6,6.31,48.52,48.52,0,0,0,14.27,1.94,19,19,0,0,0,7.74-1.7,10.05,10.05,0,0,0,5.72-10.88,9.72,9.72,0,0,0-1.77-4.27,20,20,0,0,0-2.79-3.22,39,39,0,0,0-9.94-6.6c-2.08-.92-4.14-1.91-6.24-2.8-13.19-5.53-26.72-10-40.89-12.17A127.11,127.11,0,0,0,76.74,77,91,91,0,0,0,56.6,80.21a62,62,0,0,0-11.53,4.63,22.71,22.71,0,0,1-3.45,1.31,4,4,0,0,1-1.5.11,1.62,1.62,0,0,1-1.39-2.34,7.42,7.42,0,0,1,.65-1.17c5.76-8.3,11.45-16.67,18.11-24.31a58.71,58.71,0,0,1,9.35-8.89A39.38,39.38,0,0,1,95.73,42a59.67,59.67,0,0,1,25.8,9.29ZM319.26,190.8v-.3c-.31-.15-.63-.29-.93-.47a56.54,56.54,0,0,1-13.58-10.76,64.64,64.64,0,0,1-10.55-16.5c-2.94-6.45-5.65-13-8.44-19.52a121.32,121.32,0,0,0-6.85-13.86,144.36,144.36,0,0,0-14-19.17C261,105.57,257,101,253.13,96.31a118.59,118.59,0,0,1-12.51-17.65,5.9,5.9,0,0,0-.45-.58,146.28,146.28,0,0,1-13.41,16.49c.52,1.14,1,2.28,1.54,3.38a112.93,112.93,0,0,0,9.13,15c3.32,4.59,6.77,9.09,10.18,13.62A107.8,107.8,0,0,1,260,147.31c2.48,5.56,4.5,11.29,6.57,17,1.67,4.62,3.35,9.22,5.13,13.79a107,107,0,0,0,6.83,14.19,52.47,52.47,0,0,0,17.87,19l1,.57a74.91,74.91,0,0,0,9.51-10.73,3.54,3.54,0,0,0-.38-.24,33.88,33.88,0,0,1-9.9-7.13A80.24,80.24,0,0,1,285.22,179a119.13,119.13,0,0,1-11-24.12q-2.35-6.74-4.83-13.4a91.36,91.36,0,0,0-6.79-14.31c-3.14-5.4-6.75-10.48-10.41-15.54-5.1-7.06-10.14-14.15-14.69-21.59-.86-1.39-1.66-2.83-2.51-4.27l.45-.45c.15.22.26.37.36.53,1.32,2.19,2.59,4.42,4,6.59,4.59,7.22,9.6,14.15,14.6,21.08a152.43,152.43,0,0,1,10.16,15.7,129.93,129.93,0,0,1,8.09,19c1.49,4.14,2.93,8.3,4.43,12.44a97.55,97.55,0,0,0,7,15.13,84.58,84.58,0,0,0,12.29,16.83,35.6,35.6,0,0,0,9.59,7.4c.41.21.85.37,1.35.59A33.65,33.65,0,0,1,319.26,190.8ZM265,67.43c.24-.23.49-.48.75-.7,2.64-2.32,5.22-4.72,8-6.92a27.28,27.28,0,0,1,11.69-5.45,30.47,30.47,0,0,1,16,1,41.5,41.5,0,0,1,16,9.9,57.26,57.26,0,0,1,9.85,13.1,110.34,110.34,0,0,1,8.25,19.58c1.63,4.87,3.25,9.74,4.91,14.59a108.94,108.94,0,0,0,5.71,13.67,65.23,65.23,0,0,0,9,13.83,16.07,16.07,0,0,0,3.41,3,7,7,0,0,0,.67.33c.05-.64.12-1.16.13-1.69a41.88,41.88,0,0,1,5.55-20.23,5.7,5.7,0,0,0,.73-2.52,112.47,112.47,0,0,0-1.15-25.46,49.42,49.42,0,0,0-2.78-9.76,84.49,84.49,0,0,0-7.31-14.14,68.22,68.22,0,0,0-16.9-18.61,39.24,39.24,0,0,0-14.19-7.09,59.07,59.07,0,0,0-25.62-.59,58,58,0,0,0-13.93,4.66c-6.3,3-12.56,6.14-18.84,9.23a34.44,34.44,0,0,1-8.66,3.31,3.42,3.42,0,0,0-.54.18l-6.3,2.13a6.1,6.1,0,0,0-.59.28C251.08,64.73,259.79,67.31,265,67.43ZM244.59,71l.7,1.25a85.91,85.91,0,0,0,20.51,25c3.53,2.94,7,6,10.45,9a106,106,0,0,1,15.19,15.93c3.05,4.08,5.91,8.3,8.83,12.48a142.29,142.29,0,0,0,16.33,19.75,61.45,61.45,0,0,0,14.72,11,28.16,28.16,0,0,0,8.73,3.13,13.15,13.15,0,0,0,4.76-.08,7.1,7.1,0,0,0,.36-1A48.09,48.09,0,0,0,346.3,162a44,44,0,0,0-1.73-18.59,56.59,56.59,0,0,0-3.61-9.09,66.49,66.49,0,0,0-22.68-24.74,75.41,75.41,0,0,0-17.86-8.37c-6-2-12.1-3.77-18.16-5.63A86.18,86.18,0,0,1,272.16,92a40.08,40.08,0,0,1-9.39-5.72A14.69,14.69,0,0,1,259,81.77a5,5,0,0,1-.58-3.11c.07-.4.09-.81.13-1.22a69.29,69.29,0,0,1-12.24-9.51Zm-3.84,6.48c.09.18.19.45.33.69,1.15,1.9,2.25,3.82,3.47,5.67a170.58,170.58,0,0,0,12.27,15.95c4,4.73,8.05,9.38,12,14.16a117.56,117.56,0,0,1,12.08,17.58,195.77,195.77,0,0,1,8.7,19.19c2.12,5.07,4.29,10.13,6.78,15.05a56.1,56.1,0,0,0,22,23.72l1.65.95c.36-.19.67-.34,1-.51,1.74-1,3.49-1.94,5.22-2.93a60.52,60.52,0,0,0,10.92-7.72,29.88,29.88,0,0,0,6.93-8.86c.19-.38.35-.78.59-1.35-.72.06-1.24.12-1.76.14a17.93,17.93,0,0,1-6.53-1,44.72,44.72,0,0,1-10.85-5.62,81.77,81.77,0,0,1-15.19-14A173.75,173.75,0,0,1,296.38,130a112.58,112.58,0,0,0-19.8-22.71C273,104.2,269.4,101.1,265.79,98a90.55,90.55,0,0,1-14-14.54,106.29,106.29,0,0,1-6.89-10.69c-.2-.34-.42-.66-.61-1C243.08,73.73,241.94,75.55,240.75,77.43Zm125.6,41.28c.28-.37.43-.55.56-.75l4.71-7.26q3.87-5.94,7.74-11.87a3.32,3.32,0,0,0,.54-1.78A87.33,87.33,0,0,0,378.62,79a64.79,64.79,0,0,0-5.84-17.92,56.33,56.33,0,0,0-18.63-21.42A55.42,55.42,0,0,0,336,32a56.65,56.65,0,0,0-23.93-.8,60.48,60.48,0,0,0-13.45,4.32c-4.19,1.81-8.2,4-12.21,6.13a73.9,73.9,0,0,1-10.76,5,5.16,5.16,0,0,0-2,1.26A63.93,63.93,0,0,1,260,58.45l-.38.26a4.78,4.78,0,0,0,1.6-.47c4.63-2.25,9.29-4.48,13.9-6.79,5.32-2.66,10.58-5.45,16.29-7.22a61.15,61.15,0,0,1,10.86-2.36,65.71,65.71,0,0,1,14,0,41.78,41.78,0,0,1,22.26,9A67.94,67.94,0,0,1,346,57.53a81.36,81.36,0,0,1,12.77,18.12,65.39,65.39,0,0,1,4.95,11.59,60.28,60.28,0,0,1,2.25,11.36,126.5,126.5,0,0,1,.59,15.93C366.48,115.85,366.41,117.17,366.35,118.71ZM276,45.67a6.76,6.76,0,0,0,.91-.22c2.3-1.06,4.62-2.07,6.87-3.22,5-2.54,9.79-5.32,14.92-7.51A64.9,64.9,0,0,1,310,30.93a53.69,53.69,0,0,1,14.63-1.28,57.71,57.71,0,0,1,28.93,8.87c12,7.73,19.66,18.79,23.78,32.38a72.91,72.91,0,0,1,2.61,12.84,94.88,94.88,0,0,1,.61,11.55c0,.35,0,.7,0,1l.2,0c.18-.33.38-.65.54-1,1.25-2.6,2.59-5.16,3.72-7.81,4.65-10.89,6.89-22.18,5.42-34a12.52,12.52,0,0,0-1-4.31,60.72,60.72,0,0,0-15.56-19.34c-13.66-11.24-29.09-15.65-46.59-12a90.55,90.55,0,0,0-15.74,5,113.36,113.36,0,0,0-17.25,9,128.1,128.1,0,0,1-11.54,6.78,4,4,0,0,0-1.08.9c-1.65,1.75-3.29,3.52-4.92,5.29C276.55,45.06,276.36,45.29,276,45.67Zm-69.91,65.41c-.38.21-.58.31-.76.43-1.43.93-2.85,1.89-4.31,2.79a2.09,2.09,0,0,0-1,1.48,58.8,58.8,0,0,0-1.38,12.82,35,35,0,0,0,1.42,10.32c1.05,3.31,2.2,6.6,3.41,9.86a123.34,123.34,0,0,1,4.55,15c1.63,7,3.11,14.05,4.68,21.07a139.91,139.91,0,0,0,4.92,18,63.18,63.18,0,0,0,8.18,15.58,55.07,55.07,0,0,0,11.55,12c.56.41,1.15.78,1.69,1.15.26-.09.45-.14.62-.22a23.92,23.92,0,0,0,7-5.29,9.23,9.23,0,0,0,1.27-1.77A19.2,19.2,0,0,0,249.9,213a40.61,40.61,0,0,0-3.12-10.74A107.09,107.09,0,0,0,235,181.07c-4.15-5.92-8.73-11.51-13.28-17.13-3.72-4.6-7.48-9.19-10.81-14.09A49.72,49.72,0,0,1,204,136.34a25.55,25.55,0,0,1-.47-13.79c.19-.8.36-1.61.5-2.42a55.45,55.45,0,0,1,1.92-8.42A5.51,5.51,0,0,0,206.13,111.08ZM46,75.6a6.37,6.37,0,0,0,.73-.18,60.35,60.35,0,0,1,8.79-2.72c5.06-1.21,10.14-2.3,15.22-3.38a94.93,94.93,0,0,1,16.29-2A86.16,86.16,0,0,1,108.6,69.1a105.5,105.5,0,0,1,21.68,7.54c7.5,3.44,14.73,7.38,21.88,11.49a162.14,162.14,0,0,0,30.17,13.65,109.24,109.24,0,0,0,20.47,4.93,2.26,2.26,0,0,0,1.78-.41c1.75-1.31,3.53-2.58,5.29-3.87.19-.14.34-.32.61-.56-.36,0-.58-.08-.79-.08a66.22,66.22,0,0,1-17.14-2.59,182.74,182.74,0,0,1-48.16-21.8c-4.61-3-9.12-6.08-13.69-9.11a113.52,113.52,0,0,0-22.59-11.88,69.84,69.84,0,0,0-22.48-4.73,65.58,65.58,0,0,0-12.12.74c-3.12.48-6.24,1.06-9.36,1.58a2.78,2.78,0,0,0-1.63.89c-1.19,1.27-2.43,2.5-3.6,3.8A181.22,181.22,0,0,0,46.3,75C46.22,75.12,46.15,75.26,46,75.6Zm-43.27,77c.17-.1.24-.12.28-.17.59-.74,1.18-1.49,1.76-2.24a106.41,106.41,0,0,1,39-31.63,70.18,70.18,0,0,1,31.55-7c7.43.11,14.63,1.3,21.16,5.2a38.59,38.59,0,0,1,7.9,5.57,14.13,14.13,0,0,1,2.86,3.88c.27.57.46,1.18.71,1.82.47.15.94.32,1.43.45,3.06.81,6.12,1.62,9.19,2.41a135.33,135.33,0,0,0,37.43,4.27,3.48,3.48,0,0,0,1.91-.45c1.49-.95,3-1.86,4.52-2.8.19-.12.36-.29.66-.53l-.92-.11c-3.84-.36-7.7-.64-11.53-1.11a80.63,80.63,0,0,1-22.39-5.72c-5-2.17-10-4.52-15-6.86a141,141,0,0,0-26-9.55c-10.24-2.55-20.56-3.64-31.06-2a87,87,0,0,0-12.74,3.09c-3.13,1-6.23,2.12-9.32,3.24a59.57,59.57,0,0,0-10.2,4.61A97.1,97.1,0,0,0,4.07,132.63,4.33,4.33,0,0,0,3.14,134a26.29,26.29,0,0,0-.73,18A6.29,6.29,0,0,0,2.69,152.64ZM196,117.57l-.22,1.38a73.47,73.47,0,0,0,.66,24.75c.49,2.75,1,5.48,1.45,8.24.73,4.85,1.48,9.7,2,14.58.41,3.51.69,7.06.76,10.59.1,5.25,0,10.51-.06,15.76a98,98,0,0,0,1.85,20.86A94.24,94.24,0,0,0,208.23,233a47.87,47.87,0,0,0,4.21,8.06c.21.31.45.59.69.89.3-.12.54-.21.76-.32a43.3,43.3,0,0,0,7.51-4.45,13.66,13.66,0,0,1,7.17-2.74,34.55,34.55,0,0,0,7-1.35,11,11,0,0,0,2.83-1.19c0-.11,0-.15-.06-.16l-1.31-.95a53.51,53.51,0,0,1-10.88-11,68.06,68.06,0,0,1-11.29-23.57c-1.53-5.5-2.78-11.06-3.95-16.65-1.54-7.38-3.08-14.77-5.2-22-.88-3-1.94-6-2.95-8.93-1-2.78-2.05-5.52-2.93-8.33A40.15,40.15,0,0,1,198,127.12a63.24,63.24,0,0,1,1.2-10.55c.06-.31.09-.63.15-1.15Zm-192,14.37a6.59,6.59,0,0,0,.52-.43,81.16,81.16,0,0,1,7.55-6.8,72.22,72.22,0,0,1,23.52-13.44c3.84-1.3,7.7-2.52,11.57-3.73a63.7,63.7,0,0,1,12.1-2.4,69.11,69.11,0,0,1,16.76.17,111.59,111.59,0,0,1,28.69,7.89c5.49,2.3,10.86,4.9,16.26,7.4a110.11,110.11,0,0,0,14.73,5.9c9.1,2.72,18.47,3.77,27.91,4.31a2.79,2.79,0,0,0,1.42-.39c3-1.7,5.91-3.45,8.86-5.18.27-.16.52-.34,1-.62l-.66,0c-1.38.09-2.77.21-4.16.27a80.45,80.45,0,0,1-15.42-1.1A125,125,0,0,1,124,114.72c-5.38-2.33-10.69-4.83-16-7.23a127.41,127.41,0,0,0-23.4-8.14,97.75,97.75,0,0,0-45.85-.2,63.09,63.09,0,0,0-6.53,2,62.44,62.44,0,0,0-9.57,4.62,46.08,46.08,0,0,0-11.49,8.81A26.23,26.23,0,0,0,3.94,131C3.92,131.26,3.93,131.53,3.93,131.94ZM135.69,62.3a18.1,18.1,0,0,1,4.82-1.3c1.72-.26,3.44-.55,5.16-.8a66.86,66.86,0,0,1,9.27-.65,64.88,64.88,0,0,1,17.23,2.6,171.59,171.59,0,0,1,21.77,7.93c5.66,2.42,11.29,4.88,17,7.15A93.64,93.64,0,0,0,229,82.44c.4.07.8.12,1.22.18,1.41-1.76,2.76-3.49,4.07-5.42l-1-.18c-1.34-.25-2.69-.46-4-.75a71.81,71.81,0,0,1-18.93-7.51A178,178,0,0,1,195,58.93a168.54,168.54,0,0,0-14.54-9.18,69.92,69.92,0,0,0-26.1-8.27,9.33,9.33,0,0,0-3.49.22c-2.23.6-4.47,1.17-6.69,1.83a79.13,79.13,0,0,0-18.37,8.36c-.53.32-1,.69-1.58,1.06Zm253.43-15,.22-.08c-.07-.32-.14-.64-.22-1a58.15,58.15,0,0,0-5.95-15A59,59,0,0,0,360.11,8.7,56.37,56.37,0,0,0,332.9,1.23a38.49,38.49,0,0,0-14.77,2.7,41.55,41.55,0,0,0-12.27,7.84,91.3,91.3,0,0,0-9.29,9.78c-4.17,5-8.28,10.1-12.42,15.15a2.44,2.44,0,0,1-.42.35l.25.22c.55-.29,1.11-.56,1.64-.88,3.79-2.3,7.55-4.64,11.36-6.91a102.29,102.29,0,0,1,29-11.93A58.41,58.41,0,0,1,337.49,16a50.68,50.68,0,0,1,23,4.68A61.54,61.54,0,0,1,388.37,46ZM39.5,85.05a6.38,6.38,0,0,0,1.4.1A9.81,9.81,0,0,0,43,84.56c3.79-1.68,7.41-3.74,11.47-4.77,1.57-.39,3.09-1,4.65-1.36a92.87,92.87,0,0,1,21.82-2.78,135.16,135.16,0,0,1,31.31,3.29,204.56,204.56,0,0,1,20.88,6.12A128.77,128.77,0,0,1,151.4,92.8a52.55,52.55,0,0,1,9,5.72,17.16,17.16,0,0,1,3.91,4.37,2.88,2.88,0,0,0,1.25,1.12,65.72,65.72,0,0,0,30.89,7.1,3.11,3.11,0,0,0,1.79-.54c1.28-.87,2.59-1.71,3.88-2.57.23-.15.43-.33.74-.58l-.88-.16c-1.71-.29-3.44-.52-5.15-.88A140.9,140.9,0,0,1,163,94.64c-5.91-2.91-11.62-6.23-17.4-9.41a200.08,200.08,0,0,0-22.73-11,86.47,86.47,0,0,0-21.54-5.68,93.12,93.12,0,0,0-28,.9c-2,.36-3.93.73-5.88,1.11a166.49,166.49,0,0,0-20.26,5.14A5.37,5.37,0,0,0,44.15,78c-.85,1.37-1.9,2.61-2.85,3.93-.48.66-.91,1.36-1.34,2.07A7.85,7.85,0,0,0,39.5,85.05ZM212.66,242.19c-.39-.59-.73-1.07-1-1.57a70.51,70.51,0,0,1-7.7-18.2,106.45,106.45,0,0,1-2.76-12.63,75.58,75.58,0,0,1-1.09-11.23c-.05-5.25,0-10.51.05-15.76a127.44,127.44,0,0,0-.65-14.88c-.41-3.68-.93-7.35-1.5-11-.77-5-1.7-9.93-2.46-14.91q-.69-4.5-1-9.05a63.19,63.19,0,0,1,.63-14c0-.23,0-.46,0-.83l-6.33,3.73c-.05.4-.1.75-.13,1.09-.21,2-.39,4-.62,6a77.84,77.84,0,0,0,.49,21.77c.65,3.84,1.5,7.65,2.2,11.48.65,3.55,1.33,7.1,1.83,10.67a138.18,138.18,0,0,1,1.15,16c.23,11,.25,22,1,33,.24,3.75.59,7.51,1.16,11.23.51,3.41,1.35,6.77,2.1,10.14.26,1.13.67,2.23,1,3.43C203.87,246.17,208.2,244.22,212.66,242.19Zm-53.32,8.68a3.65,3.65,0,0,0,.59-.13,19.39,19.39,0,0,0,10.24-9.19,20.78,20.78,0,0,0,1.88-6.15,54.88,54.88,0,0,0-.12-18.44c-.57-3.12-1.34-6.2-2.08-9.28A94.6,94.6,0,0,0,163.06,189c-3.14-6.54-6.23-13.1-8.88-19.86a23.58,23.58,0,0,1-1.67-11.36,9.64,9.64,0,0,0,0-2.08,48.46,48.46,0,0,1,.11-10.7c0-.33.06-.66.09-1.11a6.91,6.91,0,0,0-.61.33c-2.26,1.63-4.51,3.28-6.78,4.9a1.55,1.55,0,0,0-.63,1.29,58.29,58.29,0,0,0,.81,14.57,80.63,80.63,0,0,0,3.24,12.6c1.55,4.38,3.16,8.75,4.68,13.15,1.09,3.14,2.14,6.29,3.08,9.48a107.69,107.69,0,0,1,2.9,12.3,77.9,77.9,0,0,1,1.22,10.08c.21,5.12.29,10.24.33,15.37a42.5,42.5,0,0,1-1.54,12.39C159.38,250.46,159.38,250.62,159.34,250.87ZM8,181c.29-.23.38-.27.43-.35a115.81,115.81,0,0,1,8.16-9.27A88.67,88.67,0,0,1,29.1,160.2a114,114,0,0,1,20-11.53,71.69,71.69,0,0,1,11.59-4.21,71.77,71.77,0,0,1,18.18-2,183.49,183.49,0,0,1,19,1.26,286.14,286.14,0,0,0,29.55,2,76.7,76.7,0,0,0,15.12-1.21,4.22,4.22,0,0,0,1.56-.62c2.13-1.43,4.23-2.91,6.33-4.37a5.83,5.83,0,0,0,.51-.46h-.41a79.61,79.61,0,0,1-10.09,1.1,190.18,190.18,0,0,1-28.54-.7c-7.36-.77-14.72-1.66-22.07-2.5-4.5-.52-9-1.08-13.51-1.53a49,49,0,0,0-10.9.06,66,66,0,0,0-12.63,3.1,91.15,91.15,0,0,0-17.93,8.23,77.66,77.66,0,0,0-17.7,14,39.39,39.39,0,0,0-7.49,11A19.63,19.63,0,0,0,8,178.6C8,179.35,8,180.1,8,181ZM216.65,97c-.12-.11-.16-.18-.21-.19l-.75-.08a58.14,58.14,0,0,1-11.91-2.35,82.07,82.07,0,0,1-17.61-8c-.32-.19-.65-.36-.95-.52-.19.1-.3.15-.41.22a13.79,13.79,0,0,1-7.63,1.92,31.12,31.12,0,0,1-10.89-2.42,61.68,61.68,0,0,1-15.44-8.9c-4.49-3.51-8.83-7.21-13.19-10.88s-8.81-7.65-13.5-11.13a59.65,59.65,0,0,0-24.69-10.8,42.65,42.65,0,0,0-16.16-.23,38.43,38.43,0,0,0-18.42,9.13,7.85,7.85,0,0,0-.57.62,5,5,0,0,0,.5,0c3.15-.53,6.29-1.14,9.46-1.58,2.47-.34,5-.55,7.46-.65a64.54,64.54,0,0,1,21.9,3.1,92.34,92.34,0,0,1,21.22,9.7c5.34,3.28,10.55,6.79,15.76,10.29a187.75,187.75,0,0,0,49.3,23.59,70.57,70.57,0,0,0,20.64,3.39,2.53,2.53,0,0,0,1.75-.57c1.22-1,2.46-2,3.69-3C216.23,97.4,216.43,97.17,216.65,97Zm3.21,4c.11.75.24,1.55.34,2.37a29.4,29.4,0,0,0,3.16,9.7,2.5,2.5,0,0,0,1.18,1.18,32,32,0,0,1,7,4.7,61,61,0,0,1,10,11.33,164.07,164.07,0,0,1,15.13,27.41c3.59,8,6.52,16.23,9.54,24.43,1.86,5.06,3.77,10.09,6,15a55.21,55.21,0,0,0,5.76,10,20.22,20.22,0,0,0,9.25,7,7.78,7.78,0,0,0,3.81.5,12.11,12.11,0,0,0,1.6-.25,9.45,9.45,0,0,0,4.17-2.08c-.06-.13-.07-.21-.11-.24-.29-.2-.57-.41-.86-.59a48.81,48.81,0,0,1-11.4-9.7,72.22,72.22,0,0,1-9.82-15.53A198.1,198.1,0,0,1,266.42,166c-1.56-4.31-3.12-8.63-4.75-12.92a100.75,100.75,0,0,0-7-14.72A138.39,138.39,0,0,0,244.09,123c-3.58-4.67-7.18-9.34-10.33-14.33a91.16,91.16,0,0,1-7.3-13.19c-.05-.1-.17-.17-.27-.27Zm-85.4,50.42c-.24,0-.36,0-.47,0-1.79.22-3.57.45-5.37.65a71.84,71.84,0,0,1-13.36.21c-5.75-.45-11.43-1.43-17.1-2.45a116.73,116.73,0,0,0-18.46-2.2c-7.14-.13-14.16.45-21,2.78-3.54,1.21-7,2.56-10.43,4.08a109,109,0,0,0-15.44,8.71,63.3,63.3,0,0,0-14,12.29c-2.7,3.24-5.34,6.52-7.91,9.87a71.92,71.92,0,0,0-6.66,10.39,6.85,6.85,0,0,0-.86,3.82c.07.85.07,1.72.21,2.56s.42,1.88.69,3c.51-.57.9-1,1.25-1.4,2.12-2.64,4.27-5.26,6.35-7.94A144.4,144.4,0,0,1,33.33,173.3,110.43,110.43,0,0,1,57,157.69a59.17,59.17,0,0,1,21-5.92,26,26,0,0,1,9.87,1,39.16,39.16,0,0,0,4.21,1.15c11.46,2.24,23,3.57,34.61,1.61,2.32-.39,4.55-.81,6.2-2.69a12.11,12.11,0,0,1,1.15-1A4.92,4.92,0,0,0,134.46,151.33Zm-125,92c.14-.14.23-.19.26-.27a101.7,101.7,0,0,1,6.52-11.38,96.59,96.59,0,0,1,5.52-8.07A72,72,0,0,1,45.43,204.2a54.77,54.77,0,0,1,15.93-5.78c3.33-.59,6.7-1,10.07-1.33,4.47-.46,8.95-.83,13.39-1.54A45.56,45.56,0,0,0,95,192.73a3.82,3.82,0,0,0,1.83-1.42c.88-1.28,1.84-2.5,2.77-3.75.18-.24.34-.5.63-.94L99,186.9c-3,.62-6.06,1.43-9.13,1.83-4.64.59-9.31,1-14,1.3a154.07,154.07,0,0,0-19,2.24,78,78,0,0,0-14.76,4.31A70.27,70.27,0,0,0,20,211a112.11,112.11,0,0,0-14.67,18,1.9,1.9,0,0,0-.22,1.62,61.9,61.9,0,0,0,3.57,11C8.93,242.24,9.18,242.77,9.44,243.36ZM188.13,122.29a5.4,5.4,0,0,0-.59.25c-2.9,1.69-5.79,3.4-8.7,5.08a1.46,1.46,0,0,0-.7,1.16c-.41,2.66-.9,5.31-1.23,8a56.28,56.28,0,0,0,.06,14.67c.36,2.67,1,5.29,1.59,7.92a9.63,9.63,0,0,0,1,2.54,76.46,76.46,0,0,1,7.73,19.36,95.47,95.47,0,0,1,2.8,20.87,174.88,174.88,0,0,1-.69,18.32c-.34,4.58-.75,9.16-.68,13.76a21.91,21.91,0,0,0,1.67,8.72,5.31,5.31,0,0,0,2.31,2.55,9.92,9.92,0,0,0,5.1,1.31,4.42,4.42,0,0,0,.65-.11c-.22-.8-.41-1.53-.64-2.24a74.65,74.65,0,0,1-2.74-12.33c-.51-3.63-.87-7.3-1.05-11-.35-6.92-.57-13.84-.76-20.77-.21-8.16-.11-16.33-1.06-24.46-.39-3.39-.84-6.79-1.43-10.15-.9-5.12-2-10.2-2.9-15.32a86.87,86.87,0,0,1-.93-8.68,79.26,79.26,0,0,1,.6-14.11C187.73,125.92,187.92,124.19,188.13,122.29Zm-44.12,28c-.17.05-.27.05-.33.1l-3.8,3a1.12,1.12,0,0,0-.37,1,96.52,96.52,0,0,0,.89,11.26,114.16,114.16,0,0,0,2.4,12.3c1.24,4.92,2.55,9.82,3.77,14.74a149.72,149.72,0,0,1,3.73,22.85,162.81,162.81,0,0,1,.55,19.25c-.23,7.49-.85,14.92-3,22.14a4,4,0,0,0-.06.66c.39-.28.66-.44.89-.63a34.63,34.63,0,0,0,2.68-2.28,9.66,9.66,0,0,1,4.51-2.48c1-.25,1.91-.63,2.79-.94.11-.39.19-.63.26-.87a36,36,0,0,0,1.36-9c0-5.44.07-10.88-.1-16.32A90.21,90.21,0,0,0,157.61,207c-.93-3.92-2-7.8-3.27-11.61-1-3.06-2.11-6.11-3.18-9.15-1.21-3.43-2.52-6.83-3.63-10.3a79.75,79.75,0,0,1-2.76-11.54,61.62,61.62,0,0,1-.76-13.15C144,150.94,144,150.64,144,150.29Zm-5.23,4.16a2,2,0,0,0-.39.2L133.24,159a1.23,1.23,0,0,0-.41,1.1c.18,4.55.55,9.09,1.16,13.61a72.81,72.81,0,0,0,2,10.06c.61,2.16,1.43,4.26,2.23,6.36.87,2.31,2,4.54,2.72,6.88a68.42,68.42,0,0,1,2.94,16.24,110.54,110.54,0,0,1-.74,23.14A100,100,0,0,1,137,260.94a4.93,4.93,0,0,0-.19.82,2.52,2.52,0,0,0,2.34.16,26.66,26.66,0,0,0,7.25-3.29,1.74,1.74,0,0,0,.8-1.11c.67-3.1,1.48-6.17,2-9.29a112.81,112.81,0,0,0,1.13-17.13A150.59,150.59,0,0,0,148.9,209c-.51-3.64-1-7.29-1.8-10.87-1-4.86-2.31-9.68-3.57-14.49-1.38-5.28-2.61-10.58-3.46-16a99.76,99.76,0,0,1-1.19-12.56C138.87,154.93,138.82,154.72,138.78,154.45ZM155.26,40.83V41c.24.05.48.11.72.14a71.64,71.64,0,0,1,27.61,9.69c5,3,9.82,6.29,14.63,9.58a143,143,0,0,0,14.07,8.69A68.26,68.26,0,0,0,230.85,76c1.26.25,2.54.42,3.88.64,1.31-2,2.61-3.91,3.73-6a2.12,2.12,0,0,0-.38-.14,31.8,31.8,0,0,1-9.74-2.78,63.29,63.29,0,0,1-14.15-8.85c-3.75-3-7.46-6.09-11.16-9.18a23,23,0,0,0-5.66-3.43A71.89,71.89,0,0,0,158,40.4C157.1,40.52,156.18,40.69,155.26,40.83ZM60.58,274.73l.22.07c.05-.14.12-.29.16-.43,1-3.54,2-7.07,3-10.62,1.46-5.41,2.83-10.85,4.76-16.13a167.81,167.81,0,0,1,13.7-28.18A295.43,295.43,0,0,1,102,191a214.91,214.91,0,0,1,51.83-49.46c7.84-5.26,16-10,24.14-14.81,7.94-4.67,16-9.17,23.7-14.23a187.41,187.41,0,0,0,19.86-14.68,99.62,99.62,0,0,0,11.5-12.27,111.21,111.21,0,0,0,19.15-34l1.16-3.33c-.36-.77-.71-1.45-1-2.15s-.54-1.45-.87-2.34c-.15.39-.25.61-.32.84-.36,1.28-.66,2.58-1.07,3.85a112.2,112.2,0,0,1-17.05,32.53A107.37,107.37,0,0,1,209.85,104c-8.08,5.83-16.44,11.21-25,16.24-8.94,5.23-17.87,10.48-26.72,15.85A188,188,0,0,0,136,151.73c-6.13,5-12.09,10.25-17.71,15.84a204,204,0,0,0-26.1,32.35,235,235,0,0,0-21.37,40.36A169.69,169.69,0,0,0,62,267.65C61.48,270,61.05,272.37,60.58,274.73ZM4.86,228.82c.29-.38.45-.57.59-.77,2.15-2.94,4.23-5.93,6.45-8.82a73.23,73.23,0,0,1,15-14.77,70,70,0,0,1,22.73-11.13,86.7,86.7,0,0,1,14.72-2.89c4.88-.47,9.77-.84,14.66-1.27,3.44-.31,6.88-.58,10.3-1a65.19,65.19,0,0,0,10.87-2.26,2.72,2.72,0,0,0,1.47-1c.5-.69,1-1.36,1.55-2,.12-.16.21-.35.39-.66-.46.07-.76.13-1.07.16-2,.23-4,.6-5.94.64-4.11.08-8.22.05-12.33-.06a114.05,114.05,0,0,0-21.3,1.18,143,143,0,0,0-16.25,3.54,16.76,16.76,0,0,0-2.69.93c-3.78,1.78-7.58,3.54-11.3,5.43a102.91,102.91,0,0,0-16.38,10.13,34.68,34.68,0,0,0-8.84,9.47,19.85,19.85,0,0,0-3.06,9.29A22.25,22.25,0,0,0,4.86,228.82ZM229.74,83.24,228.59,83c-1.58-.33-3.17-.64-4.74-1A133.13,133.13,0,0,1,203,74.74c-5.54-2.37-11-4.81-16.62-7.07a113,113,0,0,0-20.58-6.38,55.48,55.48,0,0,0-16.16-.88c-2.49.25-5,.53-7.44.91-1.79.27-3.54.7-5.31,1.09a3.24,3.24,0,0,0-.74.38l7.76,6.67c1.62-.23,3.12-.43,4.62-.66A88.12,88.12,0,0,1,159,68.06a70.81,70.81,0,0,1,15.52,1.07,35.15,35.15,0,0,1,10,3.35A9.56,9.56,0,0,1,189,76.75c11.13,7.5,23.39,10.9,36.67,11.28ZM95.11,193.58l-.09-.16c-.38.13-.76.28-1.15.4-2,.61-4,1.38-6,1.79-3.1.62-6.24,1.07-9.39,1.44-4.77.58-9.57,1-14.34,1.55a46.13,46.13,0,0,0-10,2.42,67.83,67.83,0,0,0-11.25,5.28A70.85,70.85,0,0,0,20.1,226.87c-3.19,4.55-6,9.33-8.77,14.14-.47.82-.85,1.7-1.27,2.55a1.21,1.21,0,0,0-.05,1.17c1.29,2.58,2.54,5.17,3.82,7.76.13.26.34.5.57.85.15-.28.25-.43.32-.59.94-2,1.78-4.14,2.84-6.11a144.35,144.35,0,0,1,22.5-30.77,69.77,69.77,0,0,1,11.13-9.75A29.78,29.78,0,0,1,62.64,201a14.44,14.44,0,0,1,7.15.28,7.72,7.72,0,0,1,4.89,4.08,7,7,0,0,0,.39.63c1.37-.48,2.75-.86,4-1.43,4-1.76,7.9-3.58,11.83-5.4a2.17,2.17,0,0,0,.81-.62C92.89,196.89,94,195.23,95.11,193.58Zm46.76-48-.07-.14c-.5.05-1,.11-1.5.15-3,.26-5.92.6-8.89.73a150.94,150.94,0,0,1-18.78-.54c-7-.57-14-1.31-21-1.94-8.43-.76-16.87-1.09-25.29.18A56.07,56.07,0,0,0,55,147a103.58,103.58,0,0,0-10.66,4.75A97.17,97.17,0,0,0,24,165.12,140.5,140.5,0,0,0,9.45,180.27a28,28,0,0,0-2.65,3.82c-2,3.44-2.71,7.27-3.17,11.17a4,4,0,0,0,.18.42,8.42,8.42,0,0,1,.37-.9c1.21-2.05,2.34-4.15,3.65-6.12a138.08,138.08,0,0,1,11.82-15.12,66.6,66.6,0,0,1,5-4.94c5.1-4.62,11-8.17,16.92-11.52a102.23,102.23,0,0,1,14.81-6.61,55.54,55.54,0,0,1,13.55-3.23,82.68,82.68,0,0,1,18,.22c4,.46,7.94,1.26,11.91,1.93,5.25.88,10.49,1.79,15.8,2.19a86.4,86.4,0,0,0,18.46-.86,5.48,5.48,0,0,0,2.89-1.29c1.35-1.15,2.79-2.2,4.18-3.29C141.41,146,141.64,145.75,141.87,145.55ZM102.53,192.5a2.23,2.23,0,0,0-.39.29c-1.68,2.23-3.36,4.46-5,6.71a1.81,1.81,0,0,0-.27,1.06,32.14,32.14,0,0,0,1,6.75c1.16,4.82,3.15,9.35,4.91,14,1.08,2.81,2.22,5.59,3.18,8.44s1.7,5.51,2.43,8.29a52.18,52.18,0,0,1,1.73,11.72,103.12,103.12,0,0,1-.54,13.27,114.23,114.23,0,0,1-4.3,23.12c-.53,1.69-1,3.39-1.56,5.09-.09.31-.14.63-.25,1.12.8-.23,1.41-.37,2-.58A28.43,28.43,0,0,0,111,289a5,5,0,0,1,2.8-1.05,2.36,2.36,0,0,0,.63-.19c.05-.18.1-.32.13-.48a90.59,90.59,0,0,0,1.81-19.71,164.94,164.94,0,0,0-1.72-21.18,80.27,80.27,0,0,0-2.3-11.07c-1.54-5.12-3.19-10.21-4.87-15.29a87.47,87.47,0,0,1-3.49-13.5c-.64-4-1-8-1.27-12.08C102.63,193.82,102.58,193.23,102.53,192.5ZM114,178.26c-.24.22-.39.33-.5.46-2,2.36-3.94,4.72-5.93,7.07a2.07,2.07,0,0,0-.47,1.4,91,91,0,0,0,1,14.66,79.76,79.76,0,0,0,3.72,14.34c1.69,4.8,3.49,9.57,5.27,14.35a96.47,96.47,0,0,1,3.53,11.53,93.79,93.79,0,0,1,2.18,14.07,94.4,94.4,0,0,1,.2,13.56,53.74,53.74,0,0,1-2.56,13.4c-.16.48-.26,1-.4,1.47a13.07,13.07,0,0,0,3.28-3.62,28.64,28.64,0,0,0,4.4-13.6c.11-1.39.16-2.78.28-4.17a73.92,73.92,0,0,0-3.87-30.52c-1.59-4.7-3.46-9.32-5.22-14a93.65,93.65,0,0,1-4-12.19,35.69,35.69,0,0,1-1.26-7c-.14-4.61-.23-9.23-.21-13.85C113.56,183.24,113.85,180.85,114,178.26Zm-16.45,48c2.74,0,4.35,1.52,5.44,3.71a16.69,16.69,0,0,1,1.11,2.82,31.23,31.23,0,0,1,1.19,10.62,61.26,61.26,0,0,1-2.15,11.86q-1.83,7.08-3.7,14.16a197.42,197.42,0,0,0-3.9,20.44,1.67,1.67,0,0,0,1,1.94,5.81,5.81,0,0,0,1.89.61c1.22.12,2.46.09,3.69.11a2.17,2.17,0,0,0,.56-.16c.33-1.1.63-2.2,1-3.28a115.55,115.55,0,0,0,5.23-26.22c.61-6.75,1-13.51-.19-20.26a85.76,85.76,0,0,0-3.19-12.12c-.86-2.58-1.88-5.11-2.84-7.65-1.41-3.73-2.87-7.45-4.23-11.19a31.1,31.1,0,0,1-1.74-6.71c-.16-1.3-.35-2.6-.53-3.92-.11,0-.19.06-.22.11-1.06,1.46-2.12,2.92-3.14,4.41a1.59,1.59,0,0,0-.2,1c.11,1.26.27,2.51.43,3.77a57.27,57.27,0,0,0,3.35,13.33C96.74,224.51,97.17,225.35,97.58,226.26Zm47.8-155.62c.15.15.26.3.39.41a93.78,93.78,0,0,0,13.16,9.5A49.58,49.58,0,0,0,171.65,86a21,21,0,0,0,8.38.56,10.58,10.58,0,0,0,7-4.27,6,6,0,0,0,.5-.8,4.74,4.74,0,0,0-.83-5.85,12.37,12.37,0,0,0-3.51-2.4,34.29,34.29,0,0,0-9.3-3A84,84,0,0,0,148.11,70C147.22,70.15,146.34,70.42,145.38,70.64Zm-39,116.78c-.27.3-.47.5-.64.71-.69.87-1.35,1.77-2,2.62a2.15,2.15,0,0,0-.49,1.67c.17,2.17.22,4.36.45,6.53.33,3,.69,6,1.2,8.94a98.68,98.68,0,0,0,4.4,15.52c1.59,4.58,3.08,9.19,4.22,13.9A90.91,90.91,0,0,1,115.63,249c.47,4.3.82,8.63,1.11,12.95a88.22,88.22,0,0,1-1.58,24.64c-.07.3-.11.61-.16.92.19,0,.29.07.38,0a10.8,10.8,0,0,0,3.6-1.85,1.11,1.11,0,0,0,.35-.55c.47-1.51.94-3,1.35-4.55a54.59,54.59,0,0,0,1.81-11.71,100,100,0,0,0-1.32-21.09,92.19,92.19,0,0,0-4.07-15.51c-1.08-3.08-2.3-6.1-3.4-9.17-1.32-3.73-2.62-7.47-3.84-11.23a66.47,66.47,0,0,1-2.59-11.67,86.16,86.16,0,0,1-.78-12.12A5.32,5.32,0,0,0,106.38,187.42ZM23.54,266.34l.18.08.46-.46c1.67-1.51,3.26-3.1,5-4.5a90.32,90.32,0,0,1,14.21-8.95c4.84-2.55,9.75-5,14.6-7.5a73.23,73.23,0,0,0,12.5-7.91,4.17,4.17,0,0,0,1.2-1.56c1.27-2.83,2.57-5.65,3.87-8.48.12-.27.23-.55.44-1-.42.25-.66.38-.89.54A81.24,81.24,0,0,1,62,233.73c-4.92,2.19-9.83,4.37-14.67,6.71a91.66,91.66,0,0,0-14.81,8.86,10.2,10.2,0,0,0-1.7,1.51,30.61,30.61,0,0,0-7.11,14.52C23.62,265.66,23.58,266,23.54,266.34ZM80,299.09a2.89,2.89,0,0,0,.46-.06,16.43,16.43,0,0,0,6.9-4.89,2.62,2.62,0,0,0,.47-1.3,28.24,28.24,0,0,0-.25-8.51A54.89,54.89,0,0,0,83.88,272c-1.74-4.11-3.65-8.15-5.36-12.26-1.33-3.18-2.58-6.4-3.66-9.67-.85-2.55-1.38-5.2-2.06-7.81-.08-.28-.17-.56-.3-1-.21.41-.34.62-.43.85-.52,1.26-1.07,2.51-1.52,3.79a6.4,6.4,0,0,0-.38,2,68.9,68.9,0,0,0,.9,11.82A96.56,96.56,0,0,0,75.12,275c1.17,3.51,2.43,7,3.57,10.51A31.4,31.4,0,0,1,80.07,298C80,298.35,80,298.69,80,299.09ZM69.5,249.2l-.17,0c-.13.34-.29.68-.4,1q-2.18,7.42-4.32,14.87a3.42,3.42,0,0,0,0,1.59c.61,3,1.19,6,2,9a117.79,117.79,0,0,1,3,15,42.35,42.35,0,0,1,.1,10.79c0,.29-.05.59-.07.88l9.83-3c.05-.39.09-.73.13-1.08.53-5.48-.61-10.71-2.39-15.84-.78-2.24-1.66-4.44-2.4-6.7q-1.47-4.51-2.79-9.08a65,65,0,0,1-2.3-14.13C69.57,251.45,69.54,250.33,69.5,249.2Zm41.27-75.3-.09-.18-1.29.18a90.3,90.3,0,0,1-12.41.46c-5.25-.11-10.5-.18-15.75-.24a10.74,10.74,0,0,0-5.06,1c-1.41.71-2.91,1.24-4.38,1.83q-9.35,3.74-18.69,7.47c-1.32.53-2.6,1.13-3.89,1.7l.06.19,1.45-.34a143.09,143.09,0,0,1,14.55-2.8,93.2,93.2,0,0,1,13.14-.91c4.4,0,8.79.15,13.19.22a59.16,59.16,0,0,0,11.81-.89,2.55,2.55,0,0,0,1.59-.92c1.73-2.06,3.5-4.09,5.26-6.13C110.44,174.35,110.6,174.12,110.77,173.9ZM24.24,276.28l.68-.69c1-1,1.92-2.11,2.94-3.1a88.35,88.35,0,0,1,15.47-11.77c4.34-2.67,8.79-5.16,13.18-7.76a64.61,64.61,0,0,0,10.74-7.64,4.12,4.12,0,0,0,1.11-1.62c.63-1.66,1.3-3.3,2-4.95.09-.22.14-.45.26-.85l-.76.52c-2,1.35-3.94,2.77-6,4-4.82,3-10,5.39-15,7.94a139.71,139.71,0,0,0-16.54,9.51A48.24,48.24,0,0,0,24,267a2.15,2.15,0,0,0-.68,1.61c.05,1.39,0,2.79.16,4.17C23.59,273.89,24,275,24.24,276.28Zm43.07-29.95-.13-.09c-.59.5-1.19,1-1.79,1.48a86.11,86.11,0,0,1-12.26,7.93,161.71,161.71,0,0,0-17.65,11.14,69.78,69.78,0,0,0-9.93,8.8c-.4.44-.77.91-1.14,1.36a31,31,0,0,0,3.72,8.33c.22-.24.41-.41.56-.61A111.12,111.12,0,0,1,47.2,266.46,166.08,166.08,0,0,1,63.75,255a2.36,2.36,0,0,0,1.09-1.35c.72-2.2,1.49-4.38,2.24-6.57C67.16,246.86,67.23,246.59,67.31,246.33Zm-8,30.82c-5.33,9.54-8.73,19.65-12.15,29.5l4.92,8.71.24-.26a31.42,31.42,0,0,1,7-7.05,1.76,1.76,0,0,0,.6-.9c.26-.85.42-1.73.62-2.59A57.21,57.21,0,0,0,62.2,289c-.15-3.38-.43-6.75-.68-10.12-.05-.73-.19-1.45-.28-2.17H61c-.23.79-.43,1.57-.68,2.35a8.09,8.09,0,0,1-.84,2.3c-.13-.13-.25-.19-.25-.25C59.26,279.87,59.28,278.61,59.31,277.15Zm17.86-45.61c-.19.16-.26.2-.28.25-1.24,2.57-2.48,5.13-3.69,7.72a1.7,1.7,0,0,0-.07,1c.62,2.72,1.16,5.46,1.94,8.13a106.21,106.21,0,0,0,5.44,14.07,117.53,117.53,0,0,1,6.5,16.4,36.72,36.72,0,0,1,1.5,12.28c0,.31,0,.61,0,.92a2.38,2.38,0,0,0,.7-.8,18.53,18.53,0,0,0,2.43-10,32.94,32.94,0,0,0-2-9.25,113.49,113.49,0,0,1-3.83-14.51,8.76,8.76,0,0,0-.57-1.8c-.9-2.2-1.88-4.36-2.73-6.57-1-2.75-2.08-5.51-3-8.32-.8-2.53-1.4-5.13-2.07-7.7C77.29,232.78,77.27,232.21,77.17,231.54ZM185.78,85.39c.33.22.53.38.74.5a95.55,95.55,0,0,0,11.73,5.83,60.75,60.75,0,0,0,18.38,4.45,1.69,1.69,0,0,0,1.49-.41c2.15-2.18,4.32-4.36,6.48-6.54a3.37,3.37,0,0,0,.35-.63c-12.84-.48-24.72-3.71-35.6-10.92C189.81,81.09,188.16,83.36,185.78,85.39Zm-30,50.69-.09-.23h-.45A128.93,128.93,0,0,1,129.77,134,187.8,187.8,0,0,1,109,129c-.31-.09-.63-.16-.93-.23a1.72,1.72,0,0,0-.07.22c0,.16,0,.32,0,.48a6.39,6.39,0,0,1-4,6.58,24.92,24.92,0,0,1-3.55,1c-.33.09-.69.12-1,.18a2,2,0,0,0,.93.34,227.3,227.3,0,0,0,38.14,2.07,94.39,94.39,0,0,0,13.11-1.33C153.23,138,154.38,136.88,155.74,136.08ZM64.14,255.57c-.4.22-.68.35-.93.51-4.72,3-9.36,6-13.78,9.44A117.55,117.55,0,0,0,29.08,285l-.6.77a25.05,25.05,0,0,0,5.08,6.36c.16-.22.33-.44.48-.67a87.9,87.9,0,0,1,16.4-19c3.6-3.1,7.31-6.07,11-9.07a2.63,2.63,0,0,0,1-1.45c.49-1.83,1-3.65,1.55-5.48C64,256.2,64.06,256,64.14,255.57Zm-2.32,8.55C51,272.15,41.07,281,33.93,292.75l7.28,6.93c.15-.33.24-.5.31-.67A101,101,0,0,1,49,284.48,159,159,0,0,1,60.24,268.6a4.06,4.06,0,0,0,.8-1.27C61.36,266.28,61.57,265.19,61.82,264.12Zm104.72-115a20.22,20.22,0,0,1,5.35,3.4,34.4,34.4,0,0,1,5.2,5.65c.2.27.42.52.62.78l.17-.08c-2.8-10-2.41-20.15-.33-30.26l-.21-.11-10.12,5.94A54.45,54.45,0,0,0,166.54,149.13Zm-2.12-33.73c.48.12.81.23,1.14.28,2.16.32,4.31.69,6.48.94a70.64,70.64,0,0,0,14.39.29,7.08,7.08,0,0,0,3.49-1.08c1.79-1.2,3.64-2.3,5.46-3.45.22-.14.4-.32.78-.63a66.44,66.44,0,0,1-31-7.26A12,12,0,0,1,164.42,115.4ZM64,267.78l-.25-.11a1.67,1.67,0,0,1,0,.39c-.65,2.09-1.31,4.17-1.95,6.26a3,3,0,0,0-.11,1c.21,2.11.51,4.21.66,6.32.21,3.09.42,6.19.46,9.28a59.13,59.13,0,0,1-2.14,15.19c-.08.31-.14.63-.23,1l8.45-4.49c0-.16.09-.35.11-.53.09-.85.21-1.7.27-2.55A52.42,52.42,0,0,0,68,285.07c-1.16-5.65-2.55-11.25-3.84-16.87A3.52,3.52,0,0,0,64,267.78ZM186.71,117.64a87.35,87.35,0,0,1-11.33-.1,76.36,76.36,0,0,1-11.26-1.62c-.17.17-.31.3-.43.44a13,13,0,0,1-6.52,4,28.55,28.55,0,0,1-10.65.76l-1.86-.17a3.6,3.6,0,0,0,1.15.44c3.11.61,6.2,1.3,9.32,1.81a70.52,70.52,0,0,0,19.3.71,6.93,6.93,0,0,0,2.91-.77c2.89-1.72,5.8-3.4,8.7-5.09C186.27,118,186.49,117.79,186.71,117.64ZM60.59,269.57l-.23-.08c-7.48,9.46-14.13,19.43-18.68,30.56l5,6.09c.12-.32.23-.54.31-.77.43-1.26.85-2.53,1.28-3.78,2.67-7.8,5.47-15.55,9.43-22.8a19.21,19.21,0,0,0,2.58-7.56C60.36,270.67,60.49,270.12,60.59,269.57ZM204.13,49.44l-.13.17a6.09,6.09,0,0,0,.44.44c2.81,2.32,5.62,4.65,8.44,7a79.41,79.41,0,0,0,11.28,7.88A41.69,41.69,0,0,0,235,69.33c1.26.29,2.54.45,3.9.68l3.47-6.28a5.18,5.18,0,0,0-.73-.11,38.28,38.28,0,0,1-10.18-1.71A76,76,0,0,1,219.15,57c-4.63-2.29-9.23-4.65-13.84-7C204.92,49.81,204.52,49.63,204.13,49.44ZM34.43,246.94l.13.14.7-.45A122.78,122.78,0,0,1,46.77,240c5.32-2.74,10.84-5,16.31-7.46a72.11,72.11,0,0,0,12.86-7.28,3.57,3.57,0,0,0,1-1.09c.81-1.47,1.55-3,2.31-4.48a4.23,4.23,0,0,0,.17-.55,8.56,8.56,0,0,0-.8.31,71.49,71.49,0,0,1-11.54,4.32,4.2,4.2,0,0,0-1.31.72c-.88.67-1.71,1.41-2.57,2.11A118.86,118.86,0,0,1,49,236.14,79.41,79.41,0,0,0,35.44,246C35.09,246.27,34.76,246.61,34.43,246.94Zm55.22-79.1.08.22c.4,0,.8.05,1.2.05,3.32,0,6.64,0,10,0a80.62,80.62,0,0,0,16.66-2,2.87,2.87,0,0,0,1.47-.79c1.24-1.22,2.51-2.41,3.77-3.62.16-.16.29-.35.44-.53a110.85,110.85,0,0,1-29.17.27C93.45,164.19,91.69,166.11,89.65,167.84Zm39.72-12.13c-12.83,2.71-25.42,1.07-38.06-1.32,2.46,3,2.46,3,2.93,6.37a3.88,3.88,0,0,0,.61.14,122.21,122.21,0,0,0,16.12.64c4-.11,8-.54,11.91-1a3.82,3.82,0,0,0,2.35-1.08c1.11-1.08,2.31-2.07,3.47-3.11C128.93,156.14,129.15,155.92,129.37,155.71ZM117.49,166.6l-.81.19a65.7,65.7,0,0,1-14.57,1.84c-4.15.05-8.29,0-12.43,0a2.6,2.6,0,0,0-1.62.36,46.88,46.88,0,0,1-6.93,3.94c-.27.13-.52.29-.94.53a4.09,4.09,0,0,0,.62.1c2,0,4-.11,6.07-.09,4.93.07,9.86.23,14.8.27a60.11,60.11,0,0,0,9.08-.66,2.11,2.11,0,0,0,1.36-.58c1.7-1.83,3.43-3.64,5.15-5.46A3.48,3.48,0,0,0,117.49,166.6Zm8.18,13.63a12.14,12.14,0,0,1,6.49,2.43,17.26,17.26,0,0,1,3.42,3.41c.17.22.36.42.54.64l.16-.11c-2.85-8.56-3.64-17.45-4.12-26.45a2.15,2.15,0,0,0-.4.19c-1.51,1.36-3,2.7-4.49,4.09a2.09,2.09,0,0,0-.51,1.08,62.42,62.42,0,0,0-1.13,11.41C125.63,178,125.66,179.11,125.67,180.23ZM258.76,76.72c.27-.64.53-1.28.83-1.9s.64-1.24,1-1.84.68-1.15,1.06-1.69.84-1.11,1.29-1.64.88-1,1.43-1.62a45.94,45.94,0,0,1-15.92-4.31l-1.81,3.55C248.33,69.49,256.62,75.92,258.76,76.72ZM85.11,254.31l.2-.06a1.83,1.83,0,0,0,0-.46,45.6,45.6,0,0,1,.26-8.34,4.41,4.41,0,0,0-.09-1.4,125.16,125.16,0,0,0-4.07-15.81,10.31,10.31,0,0,0-1.19-2.87c-.86,1.61-1.66,3.08-2.41,4.57a1.68,1.68,0,0,0-.11.92,40.52,40.52,0,0,0,1.8,8.24c1,3.23,2.15,6.41,3.31,9.59C83.53,250.59,84.35,252.44,85.11,254.31Zm-10.8-40c.7-.3,1.37-.56,2-.85a53.09,53.09,0,0,0,8.38-4.4,4,4,0,0,0,1.12-1.12c1.53-2.4,3-4.83,4.52-7.25a5.5,5.5,0,0,0,.35-.77c-5.19,2.5-10.13,5.06-15.37,6.61a31.31,31.31,0,0,1-.07,3.91A35.06,35.06,0,0,1,74.31,214.31ZM92,207.07l-.26-.07c-1,1.45-1.92,2.88-2.86,4.34a1.36,1.36,0,0,0-.08.73,89.93,89.93,0,0,0,2.47,14c.22.81.53,1.59.8,2.42a25.31,25.31,0,0,1,2.25-1.4,26.47,26.47,0,0,1,2.58-.94A58.7,58.7,0,0,1,92,207.07Zm-3.79,5.51c-.19.14-.29.18-.33.25-.81,1.25-1.64,2.49-2.4,3.77a2.3,2.3,0,0,0-.23,1.17c0,.95.13,1.89.19,2.84a57.55,57.55,0,0,0,2.42,13.52,5.5,5.5,0,0,0,.29.63c.56-1.08,1-2,1.55-2.95S91,230,91.62,229A81.07,81.07,0,0,1,88.23,212.58Zm-2.35,30c.17-.23.23-.28.24-.33.53-2,1.06-4,1.56-6a1.94,1.94,0,0,0,0-.83,15.15,15.15,0,0,0-.42-1.46,53.24,53.24,0,0,1-2.38-12.75l-.21-2.9-.2-.06c-1.31,2.07-2.54,4.19-3.73,6.31A106.16,106.16,0,0,1,85.88,242.57Zm40.2-76.72-.2-.09a6.55,6.55,0,0,0-.56.49c-1.51,1.49-3,3-4.52,4.48a2.23,2.23,0,0,0-.72,1.59c-.13,3-.27,6.07-.4,9.1a6.58,6.58,0,0,0,.12.93,11.16,11.16,0,0,1,5.29-2A62.7,62.7,0,0,1,126.08,165.85Zm-58.24,56.8.12.17c.21,0,.43-.09.64-.15a62.89,62.89,0,0,0,11-4.38,2.51,2.51,0,0,0,.94-1c1.21-2.11,2.39-4.25,3.58-6.38.13-.23.22-.48.33-.72-1.15.51-2.15,1.17-3.22,1.68-2.14,1-4.32,2-6.48,2.93a2.42,2.42,0,0,0-1.35,1,26.64,26.64,0,0,1-4.86,6.17C68.3,222.16,68.07,222.41,67.84,222.65Zm85.09-68.31.27.07a9.87,9.87,0,0,1,6.63-6.17c.08-3.14.15-6.18.23-9.23a1.16,1.16,0,0,0-.3.1c-1.91,1.25-3.81,2.51-5.73,3.75a1.38,1.38,0,0,0-.63,1.1c-.15,1.67-.38,3.33-.46,5S152.93,152.55,152.93,154.34Zm66.35-53-5.89,4.54a19.14,19.14,0,0,0,1,6.12c1,0,2,0,2.89,0a19,19,0,0,1,2.72.43c.9.2,1.77.5,2.87.82A33.46,33.46,0,0,1,219.28,101.35Zm-53.51,47.31c0-2.21-.09-4.48,0-6.74s.36-4.49.57-6.94l-5.43,3.38a50.13,50.13,0,0,0-.37,9.59Zm-46.71,34.27c.1-3.56.19-7,.29-10.55a1.76,1.76,0,0,0-.34.25c-1.26,1.37-2.54,2.74-3.76,4.15a2.18,2.18,0,0,0-.47,1.2c-.26,3.25-.51,6.49-.71,9.74-.07,1.15,0,2.32,0,3.47l.19.06C115.21,188.05,116.57,185.09,119.06,182.93Zm94.64-70.74c-.36-2-.7-3.8-1-5.69a2.35,2.35,0,0,0-.42.21c-1.5,1.06-3,2.1-4.47,3.2A2.37,2.37,0,0,0,207,111c-.66,2.28-1.25,4.57-1.86,6.86a2.33,2.33,0,0,0,0,.53l.15.1A12.79,12.79,0,0,1,213.7,112.19Zm39.2-74.25a3.14,3.14,0,0,0-.7,2.38,13.59,13.59,0,0,0,.87,4.26c.2.58.46,1.15.74,1.84C254.45,44.26,253.88,39,252.9,37.94Z"/></svg>