<svg xmlns="http://www.w3.org/2000/svg" viewBox="0 0 653.1 289.23"><defs><style>.cls-1{fill:#231f20;}.cls-2{fill:#fff;}.cls-3{fill:#f69799;}</style></defs><g id="Layer_2" data-name="Layer 2"><g id="Layer_1-2" data-name="Layer 1"><path class="cls-1" d="M653.07,262.33a35.39,35.39,0,0,0-.19-5,2.34,2.34,0,0,0-.11-.78c-2-8.27-6.9-14.91-14.69-19.62,6.15-1.75,9.77-5,10.73-9.79.83-3.78,1.24-6.26,1.43-7.73a17.21,17.21,0,0,0-1.68-10.3,5.4,5.4,0,0,0-3.48-2.83,5.27,5.27,0,0,0-1.23-.25,5.64,5.64,0,0,0-3.26.71,10.83,10.83,0,0,1-6.29,1.5l-.47,0a21.73,21.73,0,0,1-3.62-.81l-17.37-5.64a5.79,5.79,0,0,0-1.15-.26c-1.1-.08-2.1-.23-3.19-.31-14.33-1-22.68,2.9-27.62,8.32a21.25,21.25,0,0,1-2.3-.54c-1.47-.35-3-.77-4.46-1.13-5.72-6.43-13.55-10.75-23.33-13-.23,0-.47-.12-.7-.14l-26.67-2.55-13-1.49-.31,0h-.16a5.24,5.24,0,0,0-1.15-.24l-26.33-3.17-.22,0a5.9,5.9,0,0,0-6.27,5.26l-.06.86c-1.15-.09-2.25-.09-3.34-.09l.09-1.41a5.74,5.74,0,0,0-5.19-6.24L435.39,182l-.24,0a5.86,5.86,0,0,0-5.9,3.8c-4.28-2.65-10.14-4.89-17.38-6.51a1.86,1.86,0,0,0-.69-.12l-1.33-.18c-3.18-.39-16.84-1.93-40.85-4.61l-.23,0a6.17,6.17,0,0,0-1.65.11c-.31,0-.53-.11-.85-.14L334,170.37l-.32,0a6.48,6.48,0,0,0-3.67.91c7.49-10.41,11.49-23.51,12.1-36.07.44-9.44-.5-20.08-5.3-28.5l21,2.47.23,0a5,5,0,0,0,2-.26q17.36,2.1,34.85,4.18h.07a2.74,2.74,0,0,0,1.39.43l32.3,3.75h.22a7.38,7.38,0,0,0,1.35-.05,4,4,0,0,0,1.3.32l32.29,3.77.24,0a5.9,5.9,0,0,0,6.24-5.18l.49-4.67c2.09,5.71,7.73,10.12,16.68,13a3.3,3.3,0,0,0,.94.15c.92.14,1.77.29,2.54.42l1.86.13c17.21,1.26,22.68-9.22,24.47-15.59a2.53,2.53,0,0,0,.14-.85l.18-1.33a14.75,14.75,0,0,0-9.17-16,5.38,5.38,0,0,0-1.92-.51,6.08,6.08,0,0,0-3.17.62,18.51,18.51,0,0,0-2.41-6.82c10.78-5.1,14-13.1,14.63-19.15l.09-1.33a4.08,4.08,0,0,0,.08-.93l-.19-3.92a6.2,6.2,0,0,0-.23-1.28c-2.51-9.58-11.19-16-25.9-19.26l-.49,0L468.79,36,441,32.69c-.08-.09-.16-.1-.31-.09a3.75,3.75,0,0,0-1.65.19,3.35,3.35,0,0,0-.86-.24l-32.36-3.9-.32,0a5.8,5.8,0,0,0-4.08,1.27,2.27,2.27,0,0,0-.43.45c-2.56-.19-5.13-.38-7.7-.65l-.07-.08-.16,0c-.07.07-.07.07-.07,0a59.89,59.89,0,0,0-16.53-4.18c-1.23-.18-3.19-.32-6-.52-1.95-.14-4.28-.32-7.1-.44L335,20.9l-.22,0a5.94,5.94,0,0,0-4.16,1.28c-.1.06-.1.06-.11.14-2.86-.36-5.64-.79-8.51-1.25-.46,0-.94-.13-1.32-.16a5.49,5.49,0,0,0-3.76-2l-36-4.43-.31,0a5.89,5.89,0,0,0-6.27,5.5l-.07.86-.17-2.9a5.82,5.82,0,0,0-2.05-4,6.31,6.31,0,0,0-3.35-1.34,3.7,3.7,0,0,0-.94,0,64.76,64.76,0,0,1-10,.2,7.48,7.48,0,0,1-1.24-.17,15.17,15.17,0,0,1-1.94-.22l-30-3.67c-1.53-.26-3.17-.46-4.57-.64-1.08-.17-2-.23-2.88-.29l-.92-.06C203.1,7,194,12.09,189.81,22.2l-16.75-1.07a14,14,0,0,0-6.12,1,13.86,13.86,0,0,0-7-2.49h-.12L102.16,16A14,14,0,0,0,87.5,27.66L84.94,43.43a9.59,9.59,0,0,0-.15,1.3L71.17,43.56l-.18,0a14,14,0,0,0-13.64,8L35.09,98.88a13.9,13.9,0,0,0-1.18,7.84,13.44,13.44,0,0,0-2.86,4.06L7.71,161a14,14,0,0,0,9.81,19.55l12.25,2.54A13.69,13.69,0,0,0,29,187l-.89,13.61A14,14,0,0,0,41,215.38l62.33,4.54a13.52,13.52,0,0,0,4.33-.37,13.75,13.75,0,0,0,4.25,1l62.31,4.53c.35,0,.7,0,1,0a5.57,5.57,0,0,0-.25,1.16l-.74,5.82a5.89,5.89,0,0,0,1.17,4.32,6.12,6.12,0,0,0,4,2.25l34.85,4h.24a5.6,5.6,0,0,0,4.08-1.28,30.79,30.79,0,0,0,7.11,1.39l16.36,2.13a6.67,6.67,0,0,0,3.11,1.32l32.23,3.67.31,0a5.7,5.7,0,0,0,6.17-5.1l.57-4.66c2.09,5.72,7.65,10.12,16.68,12.95a3.55,3.55,0,0,0,.92.23c.93.15,1.78.28,2.56.34a11.93,11.93,0,0,0,1.77.21,27.37,27.37,0,0,0,13.39-2,5.66,5.66,0,0,0,4.68,3.47L356.66,259l.3,0a4.51,4.51,0,0,0,1,0h.06a4.77,4.77,0,0,0,1.17.24l1.62.2,50.84,6.2.23,0a5.17,5.17,0,0,0,2.21-.31,33.37,33.37,0,0,0,6.38-2.67,5.83,5.83,0,0,0,.95,2,6.33,6.33,0,0,0,4,2.17l26.7,3.12.32,0a5.82,5.82,0,0,0,6.16-5l.58-3.72a6,6,0,0,0-2.63-5.82,8.56,8.56,0,0,1-2.84-2.8c4.46,0,8.92.11,13.38.12a21.2,21.2,0,0,1,1.06,3.6,12.78,12.78,0,0,1-1.31,3.11,4.83,4.83,0,0,0-.57,2.4l-.23,4.2a5.87,5.87,0,0,0,5.19,6.09L496.11,275l.32,0a5,5,0,0,0,2.44-.38,6,6,0,0,0,2.51,1l15.22,1.81.78.06,23.68,2.66a8.43,8.43,0,0,0,1.33.18,47.47,47.47,0,0,0,12.19-.92,7.75,7.75,0,0,0,1.45-.52,56.29,56.29,0,0,0,14.75-10.28c.35-.37.77-.73,1.12-1.17a6.81,6.81,0,0,0,.58,1.61c4.47,10.66,15,17.05,31.12,18.94l9.46,1.08.86.06a60.47,60.47,0,0,0,9.58-.32C645.83,285.44,651.85,272.57,653.07,262.33ZM399.16,75.14l.14-.79a1.85,1.85,0,0,0,.7.13A3,3,0,0,1,399.16,75.14ZM274.23,24.48a5.06,5.06,0,0,1-.21.6l0-.62ZM248.75,80.9h0l-.09.21s-.05,0-.08,0a3.81,3.81,0,0,1-.54-.28,1.19,1.19,0,0,1,.49,0l.29,0h.1Zm34.53,154.67a4.84,4.84,0,0,1-.47-.89c.09-.22.26-.37.34-.61a13.7,13.7,0,0,0,.28,1.66C283.35,235.73,283.36,235.67,283.28,235.57Zm43.36-60a6.08,6.08,0,0,0,1-1.1,6,6,0,0,0-.24,1.16v.08C327.19,175.67,326.88,175.56,326.64,175.54Zm1-1.16a5.64,5.64,0,0,1,1.93-2.77c.08-.07.24-.13.33-.29A19.15,19.15,0,0,1,327.66,174.38Zm168.25,94.75.38,0v.08C496.13,269.24,496,269.23,495.91,269.13Z"/><path class="cls-2" d="M222.82,122a7.3,7.3,0,0,0-1.61-2.08,6.77,6.77,0,0,0,1.81-.45,73,73,0,0,1-.78-10.25v0a87,87,0,0,1,.57-10.08c.11-.88.23-1.94.39-3.19l-22-2.68-.51,8.07a42.38,42.38,0,0,1-1.16,4.44,12.82,12.82,0,0,0-3.77-1.15q-8-.8-9.32,6.87a4,4,0,0,0,1,2.65,4.5,4.5,0,0,0,1,.87l.2.13a8.51,8.51,0,0,0,1.45.71c1-1.67,1.91-2.45,2.83-2.35a4,4,0,0,1,1.82.83l.05,0c.09-.25.19-.49.3-.73l2.44.43a4.82,4.82,0,0,0,.75.1,6.77,6.77,0,0,0,1.68-.08,5,5,0,0,1,.71-.07l.1,0a1.76,1.76,0,0,1,.34.38l.31.42-.29-.06a5.11,5.11,0,0,0-.93-.14,7.23,7.23,0,0,0-2.27.2,13.92,13.92,0,0,1-2,.37l.1.06c-.19.48-.37,1-.56,1.45s-.33.81-.5,1.2c-.39.94-.79,1.87-1.23,2.76-.24.53-.5,1-.78,1.57a50.46,50.46,0,0,1-4.76,7.74c-1.56,2-3,3.08-4.34,3.32l-.23,3.15,13.67,1.58.32-3.15a1.78,1.78,0,0,1-.61-1.82l.06-.37a37.79,37.79,0,0,1,1.64-7.61c.44-1.25.87-2.42,1.26-3.51.15-.44.3-.85.46-1.26s.3-.86.43-1.26l.41-1.17a17.68,17.68,0,0,0,1.7.6,22,22,0,0,0,5,1.16,13.46,13.46,0,0,0,1.89.13c0,.55,0,1.11,0,1.65,0,.23,0,.46,0,.69q0,.78-.06,1.56c-.08,2.13-.25,4.23-.48,6.31,0,.43-.07.84-.11,1.23q-.48,4.08-1.7,4.92l-.35,3,2.86.32,7.19.84L222.93,128A6.93,6.93,0,0,0,222.82,122Zm-18.56-12.48c.14-.41.28-.82.41-1.22q.95-2.88,1.66-5.22c.75-2.59,1.25-3.89,1.48-3.87s.35.64.66,1.85c.59,3.56,1,6.88,1.26,10,.07.88.14,1.74.18,2.58A21.31,21.31,0,0,1,204.26,109.56Zm-.53,43.77q-9.37-1-23.81-2.68l-.63,5.48A3.25,3.25,0,0,1,181,158a104.14,104.14,0,0,1,1.22,13.19c.06,2.33,0,4.68,0,7l10.95,2.13c.26.05.54.08.82.11a6.91,6.91,0,0,0,6.76-4l10.22-22.29C208.86,153.92,206.45,153.64,203.73,153.33ZM234.64,97l-.35,2.73,0,0,1.25-2.67Zm4.93-24.67-.29,0a1.1,1.1,0,0,0-.47,0,3.23,3.23,0,0,0,.53.27s0,0,.08,0l.08-.2h0l.15-.11ZM185.21,21.53c-.12.55-.21,1.12-.29,1.7l-.07.66,0,1a7.71,7.71,0,0,0,.86.14c2.94.35,6-.63,9.28-2.88ZM235.67,80.6v0l.45-3.82q-3.33-4.33-3.22-17c0-2.22.13-4.63.31-7.23l-.5-.19a6.4,6.4,0,0,0-1.87-.41,6.91,6.91,0,0,0-2.58.31,39.88,39.88,0,0,1-4.55,1.12c.33-.42.64-.8,1-1.17a6.8,6.8,0,0,0,1.69-4l1.34-17a6.89,6.89,0,0,0-6.36-7.42l-10-.62c.64.25,1.3.53,2,.83,0,1.83,0,3.88-.1,6.19-.15,2.77-.42,5.86-.82,9.32-.15,1.26-.31,2.56-.49,3.9l-.37,3.19Q209,69.37,204.22,73.09L203.66,78l31.56,3.63.34,0Zm6.94-3.31-.36,5.09.19,0,3-6.34A7.47,7.47,0,0,1,242.61,77.29Z"/><path class="cls-3" d="M195.41,114.81l-.57-.42c-.13.33-.26.65-.41,1,.57,0,1.08-.07,1.59-.14C195.84,115.12,195.64,115,195.41,114.81Zm-14.82,87.33,1-13.43a11.76,11.76,0,0,0,0-2.14A127,127,0,0,1,176,211.43,13.73,13.73,0,0,0,180.59,202.14ZM235.67,80.6l-.45,1,.34,0Zm-11.11,46.49a61.67,61.67,0,0,1-1.54-7.58,73,73,0,0,1-.78-10.25l-1.78,3.84-10.73-2c.07.88.14,1.74.18,2.58a21.31,21.31,0,0,1-5.65-4.07c.14-.41.28-.82.41-1.22a6.81,6.81,0,0,0-3.45-1.17,10.57,10.57,0,0,0-2.39.14q-4.8-.89-8-1.32l-.66,1.55-2.68,6.62a4.5,4.5,0,0,0,1,.87l.2.13a8.51,8.51,0,0,0,1.45.71c1-1.67,1.91-2.45,2.83-2.35a4,4,0,0,1,1.82.83l.05,0c-.13.33-.26.65-.41,1,.57,0,1.08-.07,1.59-.14l.1.06c-.19.48-.37,1-.56,1.45s-.33.81-.5,1.2c-.39.94-.79,1.87-1.23,2.76-.24.53-.5,1-.78,1.57a24.42,24.42,0,0,0,6.69-.73l.32.06c.15-.44.3-.85.46-1.26s.3-.86.43-1.26l.41-1.17a17.68,17.68,0,0,0,1.7.6,22,22,0,0,0,5,1.16,13.46,13.46,0,0,0,1.89.13c0,.55,0,1.11,0,1.65,0,.23,0,.46,0,.69q0,.78-.06,1.56l6.8,1.45-6.58,14.36,7.19.84,7.21.82,2.48-5.4A68.26,68.26,0,0,1,224.56,127.09Zm-13.63,27c-2.07-.22-4.48-.5-7.2-.81l-9.29,20.22-12.23-2.38c.06,2.33,0,4.68,0,7s-.26,4.61-.49,6.92l10.12,2a15.71,15.71,0,0,0,1.64.22,13.81,13.81,0,0,0,13-6.94c.19-.34.39-.71.55-1.07l8.18-17.8,3-6.54Zm24.64-57.07-.93-.11-.35,2.73,0,0h0q2.43,3.7,2.55,10.82l5.94-12.69Zm4-24.78-.06.11.15-.11ZM257,60.2a83.71,83.71,0,0,1-7.31,11.7,19.55,19.55,0,0,1-4.22,4.17,7.47,7.47,0,0,1-2.81,1.22l-.36,5.09.19,0,7.23.82,6.41-13.7A13.81,13.81,0,0,0,257,60.2Zm-23.74-7.65q.22-3.31.63-7c-.11,0-.23-.06-.34-.09l1.08-13.63a13.81,13.81,0,0,0-12.74-14.84.33.33,0,0,0-.14,0l-34.21-2.17a22.59,22.59,0,0,0-2.28,6.76c-.12.55-.21,1.12-.29,1.7l-.07.66,0,1a7.71,7.71,0,0,0,.86.14c2.94.35,6-.63,9.28-2.88h0a12,12,0,0,1,7.79-1.33,34,34,0,0,1,8.61,2.39h0c.64.25,1.3.53,2,.83,0,1.83,0,3.88-.1,6.19l7.57.48-1.35,17c-2.67,3-5.56,7.67-8.68,13.85q12-.33,19.53-2.69l2.56,1C232.92,57.56,233,55.15,233.21,52.55Zm-37.8,62.26-.57-.42c-.13.33-.26.65-.41,1,.57,0,1.08-.07,1.59-.14C195.84,115.12,195.64,115,195.41,114.81Zm0,0-.57-.42c-.13.33-.26.65-.41,1,.57,0,1.08-.07,1.59-.14C195.84,115.12,195.64,115,195.41,114.81Z"/><path class="cls-3" d="M639.12,251.71a34.55,34.55,0,0,0-.19-4.9,2.55,2.55,0,0,0-.1-.77c-2-8.18-6.83-14.74-14.52-19.4,6.07-1.73,9.64-4.94,10.6-9.67.82-3.73,1.22-6.19,1.41-7.64a17,17,0,0,0-1.66-10.19,5.38,5.38,0,0,0-3.44-2.79,6.35,6.35,0,0,0-1.21-.25,5.54,5.54,0,0,0-3.22.7,10.62,10.62,0,0,1-6.22,1.49l-.47,0a21.14,21.14,0,0,1-3.57-.8l-17.16-5.58a5.92,5.92,0,0,0-1.15-.25c-1.08-.07-2.07-.23-3.15-.31-14.16-1-22.42,2.87-27.3,8.23-.76-.13-1.51-.33-2.28-.54-1.44-.35-3-.76-4.4-1.11-5.65-6.36-13.39-10.63-23.05-12.81-.24,0-.47-.12-.7-.13L511,182.41l-12.88-1.47-.3,0h-.17a4.57,4.57,0,0,0-1.13-.24l-26-3.13-.23,0a5.79,5.79,0,0,0-6.18,5.2l-.06.84c-1.15-.08-2.23-.08-3.31-.09l.1-1.39a5.68,5.68,0,0,0-5.13-6.16L424,172.29l-.24,0A5.83,5.83,0,0,0,417.9,176c-4.22-2.63-10-4.84-17.17-6.44a2.08,2.08,0,0,0-.68-.12l-1.31-.17c-3.15-.39-16.65-1.92-40.37-4.57h-.23a6.09,6.09,0,0,0-1.64.1c-.3,0-.53-.11-.84-.13l-31.9-3.87-.31,0a6.32,6.32,0,0,0-3.62.89c7.39-10.29,11.35-23.24,11.95-35.65.44-9.33-.48-19.84-5.23-28.17l20.72,2.45.23,0a5.07,5.07,0,0,0,1.95-.26q17.16,2.08,34.45,4.14H384a2.82,2.82,0,0,0,1.37.41l31.92,3.71.22,0a8,8,0,0,0,1.33-.06,3.76,3.76,0,0,0,1.29.32L452,112.36h.23a5.83,5.83,0,0,0,6.17-5.12l.49-4.61c2.07,5.65,7.63,10,16.48,12.88a3.6,3.6,0,0,0,.92.14l2.52.42,1.84.13c17,1.24,22.41-9.11,24.18-15.41A2.81,2.81,0,0,0,505,100l.17-1.31a14.58,14.58,0,0,0-9.07-15.83,5.66,5.66,0,0,0-1.89-.51,6.17,6.17,0,0,0-3.14.62,18.36,18.36,0,0,0-2.38-6.75c10.66-5,13.79-12.94,14.46-18.91l.09-1.32a3.51,3.51,0,0,0,.08-.92l-.19-3.88a5.62,5.62,0,0,0-.22-1.26c-2.48-9.46-11.07-15.82-25.61-19l-.47,0L457,28.06l-27.45-3.31a.41.41,0,0,0-.31-.1,4,4,0,0,0-1.63.19,3.76,3.76,0,0,0-.84-.23l-32-3.86-.32,0a5.74,5.74,0,0,0-4,1.25,3,3,0,0,0-.43.44c-2.53-.19-5.07-.37-7.6-.64l-.07-.08-.16,0c-.07.08-.07.08-.07,0a59.06,59.06,0,0,0-16.34-4.13c-1.22-.17-3.14-.31-5.92-.51-1.92-.14-4.23-.31-7-.43L324.75,13.1l-.22,0a5.94,5.94,0,0,0-4.12,1.26c-.08.06-.08.06-.09.14-2.83-.36-5.59-.79-8.42-1.23-.46,0-.93-.14-1.3-.17a5.52,5.52,0,0,0-3.73-2L271.28,6.73l-.3,0A6.06,6.06,0,0,0,266.85,8a6,6,0,0,0-2.07,4.1l-.07.85-.17-2.88a5.75,5.75,0,0,0-2-3.94,6.25,6.25,0,0,0-3.31-1.33,4.13,4.13,0,0,0-.93,0,63.21,63.21,0,0,1-9.92.2,8.48,8.48,0,0,1-1.23-.16,14.93,14.93,0,0,1-1.91-.22L215.52,1C214,.79,212.39.59,211,.42c-1.08-.16-2-.23-2.85-.28l-.92-.08c-12.85-.68-21.85,4.33-26,14.32l-16.56-1.06a13.71,13.71,0,0,0-6,1,13.84,13.84,0,0,0-6.92-2.46h-.12l-57-3.62A13.79,13.79,0,0,0,80.15,19.77L77.61,35.36a11.33,11.33,0,0,0-.15,1.29L64,35.49l-.18,0a13.81,13.81,0,0,0-13.49,7.9l-22,46.8a13.82,13.82,0,0,0-1.16,7.75,13.38,13.38,0,0,0-2.83,4L1.28,151.56A13.8,13.8,0,0,0,11,170.88l12.11,2.51a13.76,13.76,0,0,0-.8,3.83l-.88,13.45a13.79,13.79,0,0,0,12.76,14.64l61.6,4.48a13.24,13.24,0,0,0,4.28-.36,13.64,13.64,0,0,0,4.2,1l61.58,4.48c.35,0,.69.05,1,0a4.91,4.91,0,0,0-.25,1.15l-.73,5.76A5.87,5.87,0,0,0,167,226.1a6.07,6.07,0,0,0,3.94,2.23l34.45,3.9h.24a5.54,5.54,0,0,0,4-1.26,30.52,30.52,0,0,0,7,1.37l16.16,2.1a6.5,6.5,0,0,0,3.08,1.31l31.85,3.63.31,0a5.64,5.64,0,0,0,6.09-5l.57-4.6c2.07,5.65,7.55,10,16.48,12.81a4,4,0,0,0,.91.22c.92.15,1.77.28,2.54.33a12.6,12.6,0,0,0,1.75.21,26.9,26.9,0,0,0,13.23-2,5.57,5.57,0,0,0,4.62,3.43l31.84,3.63.31,0a3.83,3.83,0,0,0,1,0h.06a6,6,0,0,0,1.15.24l1.61.2L400.55,255l.23,0a5.09,5.09,0,0,0,2.19-.3,34.13,34.13,0,0,0,6.3-2.64,5.93,5.93,0,0,0,.94,2,6.27,6.27,0,0,0,3.94,2.14l26.4,3.09.31,0a5.75,5.75,0,0,0,6.09-5l.57-3.68a5.9,5.9,0,0,0-2.59-5.75,8.32,8.32,0,0,1-2.82-2.76c4.41,0,8.82.1,13.22.11a21.45,21.45,0,0,1,1.06,3.56,12.64,12.64,0,0,1-1.3,3.07,5,5,0,0,0-.57,2.37l-.23,4.15a5.84,5.84,0,0,0,5.14,6L484,264.25l.31,0a5,5,0,0,0,2.42-.37,6,6,0,0,0,2.48,1l15,1.78.77.06,23.41,2.63a8.24,8.24,0,0,0,1.3.18,46.78,46.78,0,0,0,12.06-.9,8.63,8.63,0,0,0,1.43-.53,55.77,55.77,0,0,0,14.59-10.15c.33-.36.75-.72,1.1-1.16a6.42,6.42,0,0,0,.57,1.58c4.42,10.55,14.79,16.87,30.75,18.73l9.36,1.07.85.06a59,59,0,0,0,9.46-.32C632,274.55,637.92,261.83,639.12,251.71ZM319.41,162.05c.08-.07.24-.13.33-.29a19.26,19.26,0,0,1-2.23,3A5.45,5.45,0,0,1,319.41,162.05Zm-1.91,2.8a6.58,6.58,0,0,0-.23,1.14v.08c-.22,0-.53-.12-.76-.13A6.6,6.6,0,0,0,317.5,164.85ZM322.06,129l-.06.47q-1.53,13.35-14.84,19.9a23.87,23.87,0,0,1-7.17.45l-14.91-1.72v0l-9.29-1.09.39-3.4a2.39,2.39,0,0,0,1.66-1.49l1.33-2.95a69.51,69.51,0,0,0,2.23-9.25,101.77,101.77,0,0,0,.79-16.12c-.22-2.35-.38-4.29-.51-5.82a3.89,3.89,0,0,0-1.64-2.39l.39-3.35,8,.92,16.31,1.56c7,1.56,11.93,5,14.88,10.49A25.75,25.75,0,0,1,322.06,129Zm-63.36,9.88q-1.26-8.28-10.16-15.09c-3.07-3.18-4.9-5.67-5.53-7.51l-.15.66-1.36,11.86q-.84,9,4.55,12.48l-.35,2.29-16.36-1.88.42-3.38q4.37.18,6.36-17.36l.32-2.77a57.45,57.45,0,0,0,.43-7.64h0q-.12-7.12-2.55-10.82h0l0,0,.35-2.73.93.11,7.24.81,11.43,1.3-.21,2.88a3.12,3.12,0,0,0-1.88,2.33,3.69,3.69,0,0,0,0,.74l0,.2Q251.62,109.8,259,116a38.54,38.54,0,0,1,6.34,9.29l.42-3.72q1.71-15-2.69-18.45l.31-2.93,16.07,1.91-.2,3.16q-5.7-.66-8.41,22.92c-1,8.55-.29,13.74,2.08,15.57l-.34,2.94L257.34,145l.13-2.59A11.12,11.12,0,0,0,258.7,138.92Zm-49.44-7.68c0-.39.07-.8.11-1.23.23-2.08.4-4.18.48-6.31q0-.78.06-1.56c0-.23,0-.46,0-.69,0-.54,0-1.1,0-1.65a13.46,13.46,0,0,1-1.89-.13,22,22,0,0,1-5-1.16,17.68,17.68,0,0,1-1.7-.6l-.41,1.17c-.13.4-.29.82-.43,1.26s-.31.82-.46,1.26c-.39,1.09-.82,2.26-1.26,3.51a37.79,37.79,0,0,0-1.64,7.61l-.06.37a1.78,1.78,0,0,0,.61,1.82l-.32,3.15-13.67-1.58.23-3.15c1.34-.24,2.78-1.35,4.34-3.32a50.46,50.46,0,0,0,4.76-7.74c.28-.52.54-1,.78-1.57.44-.89.84-1.82,1.23-2.76.17-.39.34-.79.5-1.2s.37-1,.56-1.45l-.1-.06c-.51.07-1,.11-1.59.14.15-.33.28-.65.41-1l-.05,0a4,4,0,0,0-1.82-.83c-.92-.1-1.86.68-2.83,2.35a8.51,8.51,0,0,1-1.45-.71l-.2-.13a4.5,4.5,0,0,1-1-.87,4,4,0,0,1-1-2.65q1.36-7.67,9.32-6.87a12.82,12.82,0,0,1,3.77,1.15,42.38,42.38,0,0,0,1.16-4.44l.51-8.07,22,2.68c-.16,1.25-.28,2.31-.39,3.19a87,87,0,0,0-.57,10.08v0a73,73,0,0,0,.78,10.25,61.67,61.67,0,0,0,1.54,7.58,68.26,68.26,0,0,0,2.39,8.68q.75,1.89,1.32,1.95l-.29,3.86-3.51-.41-7.21-.82-7.19-.84-2.86-.32.35-3Q208.78,135.32,209.26,131.24Zm-24.63-9.94,1.45-3.61a11.77,11.77,0,0,0,2.82,1.52,4.29,4.29,0,0,0,1,.22,1.85,1.85,0,0,0,.62,0c-.45.9-.9,1.77-1.37,2.62C187.71,121.86,186.21,121.62,184.63,121.3Zm54.18-49a1.1,1.1,0,0,1,.47,0l.29,0h.09l-.15.11h0l-.08.2s-.06,0-.08,0A3.23,3.23,0,0,1,238.81,72.31ZM388.17,66.7l.14-.78a1.77,1.77,0,0,0,.69.13A3.1,3.1,0,0,1,388.17,66.7Zm68.05-32.91L476,36.52q18.47,4,21.31,14.89l.19,3.93-.15,1.3q-1.17,10.23-12.59,15c-2.17.92-5.88,1.09-11.12.48L472.54,72q13.08,3.47,12.93,14.14c.68,4.71,2.06,7.21,4.16,7.48l.12,0c1.93.22,3.26-1.62,4-5.55Q500.21,91,499.4,98l-.14,1.27q-3.54,12.89-19.75,11l-2.32-.31c-7.77-2.51-12.12-6-13.1-10.41a206.36,206.36,0,0,1-2.95-22.31A9.68,9.68,0,0,0,455,73.93l-4.31-.49q-2.18,22.1,2.57,28.29l-.55,4.85-31.9-3.68.56-4.84q4.74-3.75,7.36-26.46l.36-3.2c.2-1.41.38-2.75.52-4.08Q432,42.89,428.33,35.6l.51-5.14ZM426,30.36h0l0,.55-.36,4.45Q419.47,38,416.4,64.49q-2.34,20.55.16,29.19a10.4,10.4,0,0,0,1.32-.29l-.17.13a2.41,2.41,0,0,1-.24.21c-.07.08-.16.15-.23.23a4.31,4.31,0,0,0-.43.5,10.91,10.91,0,0,0,1.65,3.26l-.55,4.86L386,98.91l.55-4.85q4.76-3.74,7.38-26.47l.35-3.18c.2-1.42.38-2.77.52-4.09q2.46-21.42-1.25-28.73l.51-5.13Zm-73.59-8c6.42.41,10.62.73,12.63.95q27.18,3.14,27,22.23l-.76,6.61Q389.13,62.69,373,68a52.93,52.93,0,0,1-10.3.18l-17.13-1.56q-1.2,17.65,3,23.1L348,94.54l-31.88-3.67.55-4.85q4.75-3.73,7.37-26.47l.36-3.19c.2-1.37.36-2.72.52-4q2.4-21-1.3-28.33l.49-5.13Zm-87.75-5.72a3.59,3.59,0,0,1-.21.59l0-.61Zm-2.9,14.24a21.06,21.06,0,0,1,6.12,1.84,67.35,67.35,0,0,0,1.85-7.16l.82-13.06,35.57,4.32c-.27,2-.49,3.75-.65,5.16q-2.78,24.21,2.82,45.2,3.82,17,6,17.22l-.44,6.22-33.6-3.86.56-4.89c1.32-.92,2.24-3.56,2.73-8,.08-.63.14-1.3.19-2a146.46,146.46,0,0,0,.94-16.5,25.75,25.75,0,0,1-3.06-.21,37.06,37.06,0,0,1-8.07-1.9,27.94,27.94,0,0,1-2.77-.95Q269.08,57.2,266.63,64A63,63,0,0,0,264,76.28l-.06.63a2.86,2.86,0,0,0,1,2.94l-.54,5.07-14.68-1.69-7.23-.82-.19,0,.36-5.09a7.47,7.47,0,0,0,2.81-1.22,19.55,19.55,0,0,0,4.22-4.17A83.71,83.71,0,0,0,257,60.2a108.6,108.6,0,0,0,5.36-12.11c-.54-.34-1.26-.83-2.15-1.52a6.52,6.52,0,0,0-2.93-1.34c-1.51-.17-3,1.1-4.58,3.79-3.88-1.47-5.85-3.82-5.94-7C248.19,33.71,253.2,30,261.79,30.87Zm-74.3-16.1q5.17-9.69,19.45-8.91c1,0,2.11.15,3.42.3s2.82.36,4.49.61l29.49,3.62c.71.1,1.43.21,2.15.29a63,63,0,0,0,12.25-.09L259.1,15Q255,29.13,238.56,28.61l-2-.18A137.06,137.06,0,0,0,234,44c-.07.52-.12,1-.18,1.53q-.41,3.73-.63,7c-.18,2.6-.29,5-.31,7.23q-.12,12.63,3.22,17l-.45,3.82v0l-.11,1-.34,0L203.66,78l.56-4.86q4.75-3.72,7.37-26.46l.37-3.19c.18-1.34.34-2.64.49-3.9.4-3.46.67-6.55.82-9.32.12-2.31.15-4.36.1-6.19-.69-.3-1.35-.58-2-.83h0a34,34,0,0,0-8.61-2.39A12,12,0,0,0,195,22.14h0c-3.26,2.25-6.34,3.23-9.28,2.88a7.71,7.71,0,0,1-.86-.14l0-1,.07-.66c.08-.58.17-1.15.29-1.7A22.59,22.59,0,0,1,187.49,14.77Zm29.25,146.9-1.25-.14-.33,0L207,179.3c-.16.36-.36.73-.55,1.07a23,23,0,0,1,8.37-.53,18,18,0,0,1,11.74,6.39,9.21,9.21,0,0,1,1,5.41q-.54,4.62-6.33,11.15-6.47-6.79-11.55-8.8a28.3,28.3,0,0,0-6-1.46l-1.12-.13-1,11.77q-1.31,11.36,5.32,15.58l-.79,6.74-34.45-4,.71-5.75a4.32,4.32,0,0,0,2.75-2.59c.32-.92.63-1.84.92-2.74v0a127,127,0,0,0,5.53-24.86l0-.1a11.55,11.55,0,0,0-.2-1.42l.35.06c.23-2.31.39-4.63.49-6.92s.09-4.69,0-7A104.14,104.14,0,0,0,181,158a3.25,3.25,0,0,0-1.7-1.85l.63-5.48q14.43,1.64,23.81,2.68c2.72.31,5.13.59,7.2.81l7.22.82c.95.12,1.68.2,2.16.25l1.31.14q23.24,5.33,21.93,16.73l-.15,1.25-20.17,3.32C222.71,167.11,220.56,162.1,216.74,161.67Zm.49,12.67c-.53-.11-1.15-.16-1.76-.27l-1.32-.1a10,10,0,0,0-1.45,0,20.94,20.94,0,0,1,4.38-.77C217.13,173.57,217.18,174,217.23,174.34Zm56.42,50.92a4.58,4.58,0,0,1-.48-.88c.09-.22.26-.36.35-.6a11.45,11.45,0,0,0,.27,1.64C273.71,225.42,273.72,225.35,273.65,225.26ZM310,234.49l-.05,0a1.24,1.24,0,0,1-.32.23q-4.35,3.12-11.63,2.82h-.18a6,6,0,0,1-.94,0,10.4,10.4,0,0,1-1.16-.12.22.22,0,0,1-.12,0,1.23,1.23,0,0,1-.27,0c-.71-.08-1.48-.19-2.33-.32q-11.62-3.73-13.08-10.39t-3-22.31a9.66,9.66,0,0,0-6.15-3.34l-4.32-.49q-2.19,22.08,2.57,28.28l-.56,4.84L236.62,230l.55-4.85q4.76-3.74,7.37-26.47l.37-3.19c.19-1.4.35-2.76.51-4.07q2.46-21.43-1.24-28.74l.48-5.13,27.39,3.33q11.47,1.6,19.81,2.74,18.47,4,21.32,14.88l.19,3.93-.15,1.3q-1.19,10.25-12.6,15-3.27,1.4-11.12.48l-1.13-.11q13.06,3.43,12.95,14.13,1,7.08,4.14,7.49h.14c1.91.22,3.25-1.62,4-5.54,4.3,1.91,6.18,5.24,5.64,9.93l-.14,1.26A14.89,14.89,0,0,1,310,234.49ZM315,239l.56-4.86q4.75-3.72,7.36-26.47l.37-3.18c.2-1.41.37-2.77.51-4.09q2.48-21.42-1.24-28.72l.5-5.14,32,3.9-.39,5q-6.18,2.67-9.23,29.11-3,26.6,2.05,33.24l-.55,4.85Zm86.26,10.23-50.28-6.11-1.56-.17.63-5.49a3.51,3.51,0,0,0,2.4-1.9,126.67,126.67,0,0,0,6.8-28.26,109.63,109.63,0,0,0-.48-29.56,3.24,3.24,0,0,0-1.66-1.78l.63-5.48,40.4,4.56,1.31.14q11.5,2.63,17,6.75l.61.05,0,.4q5,4.07,4.35,9.53l-.13,1.26L401,196.51q-.75-14.34-6.47-15l-1.25-.13q-8.23-.94-11.79,18.31l-.35,3.73a25,25,0,0,1,14.49-2.94,17.58,17.58,0,0,1,11.91,6.88,9.2,9.2,0,0,1,1,5.41c-.35,3.07-2.47,6.79-6.33,11.14q-6.45-6.79-11.55-8.79a27.87,27.87,0,0,0-6.07-1.47,13.07,13.07,0,0,0-4.37,0l-1,11.21q-1.77,15.41,10.23,17.11,4.4.18,8.43-13.19l20.26,1.6Q416,244.53,401.22,249.25Zm83,9.29c-.17,0-.32,0-.39-.11l.38,0-24.1-2.79.2-4.15a18,18,0,0,0,2-5.6q-2.05-13.41-16.45-24.42-7.44-7.68-8.94-12.14l-.25,1.07-2.21,19.17q-1.35,14.56,7.37,20.2l-.56,3.72-26.46-3,.68-5.48q7,.3,10.28-28.08l.51-4.5q2.44-21.1-3.47-29.94l.57-4.44,31.7,3.6-.35,4.64c-1.84,1-2.85,2.27-3,3.8a6.74,6.74,0,0,0,0,1.19l0,.31q-.86,7.22,11.07,17.29,5.22,5.28,10.24,15l.7-6q2.77-24.31-4.36-29.87l.5-4.7,26,3.07-.32,5.11q-9.21-1.06-13.59,37.08-2.38,20.75,3.34,25.18l-.54,4.77-.52,0Zm56.49,4.37a38.29,38.29,0,0,1-11.6.72L505,260.85v0L493,259.48c-.86,0-1.77-.05-2.63,0a.15.15,0,0,0,.06-.1.14.14,0,0,0,0-.06.2.2,0,0,0,0-.1l-.58-.08.63-5.48a3.87,3.87,0,0,0,2.69-2.42l2.14-4.76q3.19-11.1,3.63-15a163.07,163.07,0,0,0,1.28-26.07q-.54-5.71-.82-9.44c-.71-2-1.6-3.33-2.66-3.85l.62-5.43,13,1.49,26.38,2.54q16.91,3.75,24,17A41.66,41.66,0,0,1,564.76,230l-.09.76Q562.18,252.31,540.67,262.91Zm68.72,9.22a50.61,50.61,0,0,1-9.13.27l-9.35-1.08q-22.7-2.61-27.08-17.86a5.48,5.48,0,0,1-.44-3c1-8.67,6-12.48,15.12-11.43a24.56,24.56,0,0,1,13.89,6.57c-5.85,1.8-9,4.29-9.32,7.43-.12,1,.26,3,1.17,6.1s4.88,5,12,5.8l.73.07c7.41-.11,11.37-2.37,11.88-6.73l.28-2.57q1.26-10.77-29.48-21.86-11-7-12.68-16.39c.06-.75.12-1.47.21-2.16q2.42-21.17,30.36-18L614.92,203a25.66,25.66,0,0,0,4.49.93,16.77,16.77,0,0,0,10.15-2,11.35,11.35,0,0,1,1,6.76c-.14,1.25-.58,3.63-1.3,7.15s-4.82,5.62-12.31,6.31l-.8-.1q-10.15-1.17-16.06-15.19a12.94,12.94,0,0,0-7.9-3.68,6.35,6.35,0,0,0-5.73,5.53q-.72,6.15,32.73,21.74,11.32,5.85,14,16.94a23.72,23.72,0,0,1,.17,3.67Q631.3,268.82,609.39,272.13Z"/><path class="cls-3" d="M559.47,258.37a12.81,12.81,0,0,0-1.67-.43c.34-.36.75-.72,1.1-1.16A6.48,6.48,0,0,0,559.47,258.37Z"/><path class="cls-3" d="M396.93,11.46l.1.53c-1,0-2,.12-3,.21l-.07-.38Z"/><path class="cls-3" d="M237,37c0,.24,0,.47-.05.63l-.1-.6Z"/><path class="cls-3" d="M393.94,11.82l.07.38c1-.09,2-.19,3-.21l-.1-.53Z"/><path class="cls-3" d="M484.18,258.54c-.17,0-.32,0-.39-.11l.38,0Z"/><path class="cls-3" d="M490.45,259.3a.2.2,0,0,0,0-.1v-.05l2.53.33c-.86,0-1.77-.05-2.63,0a.15.15,0,0,0,.06-.1A.14.14,0,0,0,490.45,259.3Z"/><path class="cls-3" d="M204.45,180.92c-.32.13-.56.19-.88.33l0-.47A3.15,3.15,0,0,0,204.45,180.92Z"/><path class="cls-3" d="M217.23,174.34c-.53-.11-1.15-.16-1.76-.27l-1.32-.1a10,10,0,0,0-1.45,0,20.94,20.94,0,0,1,4.38-.77C217.13,173.57,217.18,174,217.23,174.34Z"/><path class="cls-3" d="M204.45,180.92c-.32.13-.56.19-.88.33l0-.47A3.15,3.15,0,0,0,204.45,180.92Z"/><path class="cls-3" d="M217.23,174.34c-.53-.11-1.15-.16-1.76-.27l-1.32-.1a10,10,0,0,0-1.45,0,20.94,20.94,0,0,1,4.38-.77C217.13,173.57,217.18,174,217.23,174.34Z"/><path class="cls-3" d="M417,182.45a1.14,1.14,0,0,1-.15-.17s0,0,0,0l0,0a.64.64,0,0,0-.17-.16.84.84,0,0,0-.21-.13l.61.05,0,.4Z"/><path class="cls-3" d="M450.47,228.77"/><path class="cls-3" d="M450.47,258.36a33,33,0,0,0,20.92-8.66,22.12,22.12,0,0,0,6.12-9.53,22.32,22.32,0,0,0,2.55-11.4L479,220.9a29.46,29.46,0,0,0-7.61-13.05l-6-4.63a29.43,29.43,0,0,0-14.93-4,33,33,0,0,0-20.93,8.67,22.16,22.16,0,0,0-6.11,9.52,22.16,22.16,0,0,0-2.55,11.4l1.05,7.87a29.74,29.74,0,0,0,7.61,13.06l6,4.62a29.39,29.39,0,0,0,14.94,4Z"/><path class="cls-3" d="M279.43,205.4"/><path class="cls-3" d="M279.43,235a22.12,22.12,0,0,0,11.4-2.55,26.55,26.55,0,0,0,15.65-15.64A22.32,22.32,0,0,0,309,205.4L308,197.53a29.56,29.56,0,0,0-7.61-13.05l-6-4.63a29.49,29.49,0,0,0-14.94-4,22.37,22.37,0,0,0-11.4,2.55A26.64,26.64,0,0,0,252.39,194a22.37,22.37,0,0,0-2.55,11.4l1.06,7.87a29.55,29.55,0,0,0,7.61,13.06l6,4.62a29.33,29.33,0,0,0,14.93,4Z"/><path class="cls-3" d="M239.66,72.29l-.15.11h0l-.08.2s-.06,0-.08,0a3.23,3.23,0,0,1-.53-.27,1.1,1.1,0,0,1,.47,0l.29,0Z"/><path class="cls-3" d="M456.23,93.32"/><path class="cls-3" d="M456.23,112.62A19.93,19.93,0,0,0,469.87,107a14.52,14.52,0,0,0,4-6.21,14.53,14.53,0,0,0,1.66-7.44c-.22-5-1.86-10.16-5.65-13.64a19.29,19.29,0,0,0-27.28,0,14.34,14.34,0,0,0-4,6.21,14.41,14.41,0,0,0-1.66,7.43c.22,5,1.86,10.17,5.65,13.65a20.05,20.05,0,0,0,13.64,5.65Z"/><path class="cls-3" d="M389,66.05a3.1,3.1,0,0,1-.83.65l.14-.78A1.77,1.77,0,0,0,389,66.05Z"/><path class="cls-3" d="M217.08,173.17a20.94,20.94,0,0,0-4.38.77,10,10,0,0,1,1.45,0l1.32.1c.61.11,1.23.16,1.76.27C217.18,174,217.13,173.57,217.08,173.17ZM239.57,72.29l-.29,0a1.1,1.1,0,0,0-.47,0,3.23,3.23,0,0,0,.53.27s0,0,.08,0l.08-.2h0l.15-.11ZM319.78,89l0,.31.39,0A1.49,1.49,0,0,1,319.78,89Zm-.37,73.1a5.45,5.45,0,0,0-1.9,2.73,19.26,19.26,0,0,0,2.23-3C319.65,161.92,319.49,162,319.41,162.05Z"/><path class="cls-3" d="M239.66,72.29l-.15.11h0l-.08.2s-.06,0-.08,0a3.23,3.23,0,0,1-.53-.27,1.1,1.1,0,0,1,.47,0l.29,0Z"/><path class="cls-3" d="M320.14,89.29l-.38,0,0-.3A1.69,1.69,0,0,0,320.14,89.29Z"/><path class="cls-3" d="M389,66.05a3.1,3.1,0,0,1-.83.65l.14-.78A1.77,1.77,0,0,0,389,66.05Z"/><path class="cls-3" d="M264.53,16.61l0,.61a3.59,3.59,0,0,0,.21-.59Zm-25,55.68-.29,0a1.1,1.1,0,0,0-.47,0,3.23,3.23,0,0,0,.53.27s0,0,.08,0l.08-.2h0l.15-.11Z"/><path class="cls-3" d="M319.78,89l0,.31.39,0A1.49,1.49,0,0,1,319.78,89Z"/><path class="cls-3" d="M388.31,65.92l-.14.78a3.1,3.1,0,0,0,.83-.65A1.77,1.77,0,0,1,388.31,65.92Z"/><path class="cls-3" d="M426,30.37,423,30l0,.37c1,.16,2,.31,3,.54Z"/><path class="cls-3" d="M388.31,65.92l-.14.78a3.1,3.1,0,0,0,.83-.65A1.77,1.77,0,0,1,388.31,65.92Zm28.25,27.76h0a3,3,0,0,0,.2.6c0,.07,0,.13.05.19a0,0,0,0,1,0,0,4.31,4.31,0,0,1,.43-.5c.07-.08.16-.15.23-.23a2.41,2.41,0,0,0,.24-.21l.17-.13A10.4,10.4,0,0,1,416.56,93.68Z"/><path class="cls-3" d="M204.12,180.9a2.19,2.19,0,0,1-.51-.12h0l0,.47c.16-.07.3-.11.44-.16l.41-.17s0,0,0,0Z"/><path class="cls-3" d="M319.41,162.05a5.45,5.45,0,0,0-1.9,2.73,19.26,19.26,0,0,0,2.23-3C319.65,161.92,319.49,162,319.41,162.05Zm-9.77,72.57v.15l.32-.23.05,0a2,2,0,0,0,.28-.29A3.48,3.48,0,0,1,309.64,234.62Z"/><path class="cls-3" d="M417,182.4l0-.4-.61-.05a.84.84,0,0,1,.21.13.64.64,0,0,1,.17.16l0,0s0,0,0,0a1.14,1.14,0,0,0,.15.17Z"/><path class="cls-3" d="M484.17,258.47l-.38,0c.07.09.22.1.39.11Z"/><path class="cls-3" d="M490.43,259.36a.15.15,0,0,1-.06.1c.86,0,1.77.05,2.63,0l-2.53-.33v.05a.2.2,0,0,1,0,.1A.14.14,0,0,1,490.43,259.36Z"/><path class="cls-3" d="M314.3,84.39q-2.15-.26-6-17.22-5.6-21-2.82-45.2c.16-1.41.38-3.13.65-5.16l-35.57-4.32-.82,13.06a67.35,67.35,0,0,1-1.85,7.16,21.06,21.06,0,0,0-6.12-1.84C253.2,30,248.19,33.71,246.71,42c.09,3.22,2.06,5.57,5.94,7,1.54-2.69,3.07-4,4.58-3.79a6.52,6.52,0,0,1,2.93,1.34c.89.69,1.61,1.18,2.15,1.52A108.6,108.6,0,0,1,257,60.2a83.71,83.71,0,0,1-7.31,11.7,19.55,19.55,0,0,1-4.22,4.17,7.47,7.47,0,0,1-2.81,1.22l-.36,5.09.19,0,7.23.82,14.68,1.69.54-5.07a2.86,2.86,0,0,1-1-2.94l.06-.63A63,63,0,0,1,266.63,64q2.46-6.76,4.15-11.63a27.94,27.94,0,0,0,2.77.95,37.06,37.06,0,0,0,8.07,1.9,25.75,25.75,0,0,0,3.06.21,146.46,146.46,0,0,1-.94,16.5c-.05.69-.11,1.36-.19,2-.49,4.41-1.41,7-2.73,8l-.56,4.89,33.6,3.86ZM259.1,15l-.36-4.41a63,63,0,0,1-12.25.09c-.72-.08-1.44-.19-2.15-.29L214.85,6.77c-1.67-.25-3.16-.45-4.49-.61s-2.46-.26-3.42-.3q-14.28-.78-19.45,8.91a22.59,22.59,0,0,0-2.28,6.76c-.12.55-.21,1.12-.29,1.7l-.07.66,0,1a7.71,7.71,0,0,0,.86.14c2.94.35,6-.63,9.28-2.88h0a12,12,0,0,1,7.79-1.33,34,34,0,0,1,8.61,2.39h0c.64.25,1.3.53,2,.83,0,1.83,0,3.88-.1,6.19-.15,2.77-.42,5.86-.82,9.32-.15,1.26-.31,2.56-.49,3.9l-.37,3.19Q209,69.37,204.22,73.09L203.66,78l31.56,3.63.34,0,.11-1v0l.45-3.82q-3.33-4.33-3.22-17c0-2.22.13-4.63.31-7.23q.22-3.31.63-7c.06-.5.11-1,.18-1.53a137.06,137.06,0,0,1,2.5-15.54l2,.18Q255,29.15,259.1,15ZM226.54,186.23a18,18,0,0,0-11.74-6.39,23,23,0,0,0-8.37.53c.19-.34.39-.71.55-1.07l8.18-17.8.33,0,1.25.14c3.82.43,6,5.44,6.49,15l20.17-3.32.15-1.25q1.3-11.42-21.93-16.73l-1.31-.14c-.48-.05-1.21-.13-2.16-.25l-7.22-.82c-2.07-.22-4.48-.5-7.2-.81q-9.37-1-23.81-2.68l-.63,5.48A3.25,3.25,0,0,1,181,158a104.14,104.14,0,0,1,1.22,13.19c.06,2.33,0,4.68,0,7s-.26,4.61-.49,6.92l-.35-.06a11.55,11.55,0,0,1,.2,1.42l0,.1A127,127,0,0,1,176,211.43v0c-.29.9-.6,1.82-.92,2.74a4.32,4.32,0,0,1-2.75,2.59l-.71,5.75,34.45,4,.79-6.74q-6.63-4.23-5.32-15.58l1-11.77,1.12.13a28.3,28.3,0,0,1,6,1.46q5.09,2,11.55,8.8,5.79-6.53,6.33-11.15A9.21,9.21,0,0,0,226.54,186.23Zm-22.12-5.31a.24.24,0,0,1-.12.05h0l-.07,0h0l-.2.08c-.14,0-.28.09-.44.16l0-.47h0a2.19,2.19,0,0,0,.51.12Zm23.85-43.2q-.57-.06-1.32-1.95a68.26,68.26,0,0,1-2.39-8.68,61.67,61.67,0,0,1-1.54-7.58,73,73,0,0,1-.78-10.25v0a87,87,0,0,1,.57-10.08c.11-.88.23-1.94.39-3.19l-22-2.68-.51,8.07a42.38,42.38,0,0,1-1.16,4.44,12.82,12.82,0,0,0-3.77-1.15q-8-.8-9.32,6.87a4,4,0,0,0,1,2.65,4.5,4.5,0,0,0,1,.87l.2.13a8.51,8.51,0,0,0,1.45.71c1-1.67,1.91-2.45,2.83-2.35a4,4,0,0,1,1.82.83l.05,0c-.13.33-.26.65-.41,1,.57,0,1.08-.07,1.59-.14l.1.06c-.19.48-.37,1-.56,1.45s-.33.81-.5,1.2c-.39.94-.79,1.87-1.23,2.76-.24.53-.5,1-.78,1.57a50.46,50.46,0,0,1-4.76,7.74c-1.56,2-3,3.08-4.34,3.32l-.23,3.15,13.67,1.58.32-3.15a1.78,1.78,0,0,1-.61-1.82l.06-.37a37.79,37.79,0,0,1,1.64-7.61c.44-1.25.87-2.42,1.26-3.51.15-.44.3-.85.46-1.26s.3-.86.43-1.26l.41-1.17a17.68,17.68,0,0,0,1.7.6,22,22,0,0,0,5,1.16,13.46,13.46,0,0,0,1.89.13c0,.55,0,1.11,0,1.65,0,.23,0,.46,0,.69q0,.78-.06,1.56c-.08,2.13-.25,4.23-.48,6.31,0,.43-.07.84-.11,1.23q-.48,4.08-1.7,4.92l-.35,3,2.86.32,7.19.84,7.21.82,3.51.41Zm-24-28.16c.14-.41.28-.82.41-1.22q.95-2.88,1.66-5.22c.75-2.59,1.25-3.89,1.48-3.87s.35.64.66,1.85c.59,3.56,1,6.88,1.26,10,.07.88.14,1.74.18,2.58A21.31,21.31,0,0,1,204.26,109.56Zm68.64,34.2c-2.37-1.83-3-7-2.08-15.57q2.71-23.59,8.41-22.92l.2-3.16-16.07-1.91-.31,2.93q4.4,3.42,2.69,18.45l-.42,3.72A38.54,38.54,0,0,0,259,116q-7.37-6.21-6.85-10.68l0-.2a3.69,3.69,0,0,1,0-.74,3.12,3.12,0,0,1,1.88-2.33l.21-2.88-11.43-1.3-7.24-.81-.93-.11-.35,2.73,0,0h0q2.43,3.7,2.55,10.82h0a57.45,57.45,0,0,1-.43,7.64l-.32,2.77q-2,17.55-6.36,17.36l-.42,3.38,16.36,1.88.35-2.29q-5.38-3.48-4.55-12.48L242.86,117l.15-.66c.63,1.84,2.46,4.33,5.53,7.51q8.9,6.81,10.16,15.09a11.12,11.12,0,0,1-1.23,3.45l-.13,2.59,15.22,1.74ZM322,129.51l.06-.47a25.75,25.75,0,0,0-2.41-13.76c-2.95-5.44-7.89-8.93-14.88-10.49l-16.31-1.56-8-.92-.39,3.35a3.89,3.89,0,0,1,1.64,2.39c.13,1.53.29,3.47.51,5.82a101.77,101.77,0,0,1-.79,16.12,69.51,69.51,0,0,1-2.23,9.25l-1.33,2.95a2.39,2.39,0,0,1-1.66,1.49l-.39,3.4,9.29,1.09v0L300,149.86a23.87,23.87,0,0,0,7.17-.45Q320.46,142.87,322,129.51Zm-6.9,96.86.14-1.26c.54-4.69-1.34-8-5.64-9.93-.75,3.92-2.09,5.76-4,5.54h-.14q-3.13-.41-4.14-7.49.12-10.68-12.95-14.13l1.13.11q7.85.92,11.12-.48,11.4-4.74,12.6-15l.15-1.3-.19-3.93q-2.85-10.84-21.32-14.88-8.34-1.14-19.81-2.74l-27.39-3.33-.48,5.13q3.69,7.32,1.24,28.74c-.16,1.31-.32,2.67-.51,4.07l-.37,3.19q-2.61,22.74-7.37,26.47l-.55,4.85,31.89,3.66.56-4.84q-4.76-6.19-2.57-28.28l4.32.49a9.66,9.66,0,0,1,6.15,3.34q1.48,15.65,3,22.31T293,237.07c.85.13,1.62.24,2.33.32a1.23,1.23,0,0,0,.27,0,25.2,25.2,0,0,0,3.07.12,2.5,2.5,0,0,1-.67.06q7.29.3,11.63-2.82v-.15a3.48,3.48,0,0,0,.65-.42,2,2,0,0,1-.28.29A14.89,14.89,0,0,0,315.1,226.37Zm32.31,11.45q-5.1-6.65-2.05-33.24t9.23-29.11l.39-5-32-3.9-.5,5.14q3.71,7.28,1.24,28.72c-.14,1.32-.31,2.68-.51,4.09l-.37,3.18q-2.61,22.74-7.36,26.47L315,239l31.9,3.65ZM392.06,45.53q.18-19.1-27-22.23c-2-.22-6.21-.54-12.63-.95l-28.38-3.48L323.57,24q3.71,7.31,1.3,28.33c-.16,1.31-.32,2.66-.52,4L324,59.55Q321.37,82.29,316.62,86l-.55,4.85L348,94.54l.57-4.86q-4.22-5.45-3-23.1l17.13,1.56A52.93,52.93,0,0,0,373,68q16.19-5.29,18.35-15.82ZM319.75,89.26l0-.31a1.49,1.49,0,0,0,.36.34Zm98.71,8.46a10.91,10.91,0,0,1-1.65-3.26,0,0,0,0,0,0,0c0-.06,0-.12-.05-.19a3,3,0,0,1-.2-.6h0q-2.52-8.62-.16-29.19,3.06-26.46,9.23-29.12l.36-4.45c-1-.23-2-.38-3-.54l0-.37,3,.36h0l-32-3.9-.51,5.13q3.7,7.31,1.25,28.73c-.14,1.32-.32,2.67-.52,4.09l-.35,3.18q-2.62,22.72-7.38,26.47L386,98.91l31.9,3.67Zm-.32,132.71-20.26-1.6q-4,13.38-8.43,13.19-12-1.71-10.23-17.11l1-11.21a13.07,13.07,0,0,1,4.37,0,27.87,27.87,0,0,1,6.07,1.47q5.08,2,11.55,8.79c3.86-4.35,6-8.07,6.33-11.14a9.2,9.2,0,0,0-1-5.41,17.58,17.58,0,0,0-11.91-6.88,25,25,0,0,0-14.49,2.94l.35-3.73q3.56-19.27,11.79-18.31l1.25.13q5.72.66,6.47,15l20.19-3.32.13-1.26q.65-5.48-4.35-9.53v0a1.14,1.14,0,0,1-.15-.17s0,0,0,0l0,0a.64.64,0,0,0-.17-.16.84.84,0,0,0-.21-.13q-5.47-4.11-17-6.75l-1.31-.14-40.4-4.56-.63,5.48a3.24,3.24,0,0,1,1.66,1.78,109.63,109.63,0,0,1,.48,29.56,126.67,126.67,0,0,1-6.8,28.26,3.51,3.51,0,0,1-2.4,1.9l-.63,5.49,1.56.17,50.28,6.11Q416,244.52,418.14,230.43ZM499.4,98q.81-7-5.63-9.93c-.76,3.93-2.09,5.77-4,5.55l-.12,0c-2.1-.27-3.48-2.77-4.16-7.48q.13-10.68-12.93-14.14l1.12.12c5.24.61,8.95.44,11.12-.48q11.42-4.75,12.59-15l.15-1.3-.19-3.93Q494.5,40.55,476,36.52l-19.8-2.73-27.38-3.33-.51,5.14q3.72,7.29,1.25,28.72c-.14,1.33-.32,2.67-.52,4.08l-.36,3.2q-2.62,22.73-7.36,26.46l-.56,4.84,31.9,3.68.55-4.85q-4.75-6.21-2.57-28.29l4.31.49a9.68,9.68,0,0,1,6.17,3.34,206.36,206.36,0,0,0,2.95,22.31c1,4.44,5.33,7.9,13.1,10.41l2.32.31q16.23,1.88,19.75-11ZM485.23,253.75q-5.72-4.42-3.34-25.18,4.38-38.15,13.59-37.08l.32-5.11-26-3.07-.5,4.7q7.15,5.56,4.36,29.87l-.7,6q-5-9.74-10.24-15-11.93-10.06-11.07-17.29l0-.31a6.74,6.74,0,0,1,0-1.19c.18-1.53,1.19-2.79,3-3.8l.35-4.64-31.7-3.6-.57,4.44q5.91,8.83,3.47,29.94l-.51,4.5q-3.25,28.38-10.28,28.08l-.68,5.48,26.46,3,.56-3.72q-8.71-5.64-7.37-20.2l2.21-19.17.25-1.07q1.5,4.45,8.94,12.14,14.4,11,16.45,24.42a18,18,0,0,1-2,5.6l-.2,4.15,24.1,2.79.52,0Zm79.44-23,.09-.76a41.66,41.66,0,0,0-3.91-22.25q-7.12-13.22-24-17l-26.38-2.54-13-1.49-.62,5.43c1.06.52,2,1.81,2.66,3.85q.29,3.72.82,9.44A163.07,163.07,0,0,1,499,231.49q-.42,3.87-3.63,15l-2.14,4.76a3.87,3.87,0,0,1-2.69,2.42l-.63,5.48.58.08v-.05l2.53.33,11.94,1.42v0l24.12,2.78a38.29,38.29,0,0,0,11.6-.72Q562.18,252.31,564.67,230.71ZM633.34,251a23.72,23.72,0,0,0-.17-3.67q-2.64-11.09-14-16.94-33.45-15.57-32.73-21.74a6.35,6.35,0,0,1,5.73-5.53,12.94,12.94,0,0,1,7.9,3.68q5.91,14,16.06,15.19l.8.1c7.49-.69,11.59-2.81,12.31-6.31s1.16-5.9,1.3-7.15a11.35,11.35,0,0,0-1-6.76,16.77,16.77,0,0,1-10.15,2,25.66,25.66,0,0,1-4.49-.93l-17.39-5.64q-27.93-3.19-30.36,18c-.09.69-.15,1.41-.21,2.16q1.66,9.39,12.68,16.39,30.74,11.09,29.48,21.86l-.28,2.57c-.51,4.36-4.47,6.62-11.88,6.73l-.73-.07q-10.65-1.25-12-5.8c-.91-3.05-1.29-5.08-1.17-6.1.36-3.14,3.47-5.63,9.32-7.43a24.56,24.56,0,0,0-13.89-6.57c-9.09-1.05-14.11,2.76-15.12,11.43a5.48,5.48,0,0,0,.44,3q4.39,15.25,27.08,17.86l9.35,1.08a50.61,50.61,0,0,0,9.13-.27Q631.29,268.82,633.34,251Z"/><path class="cls-3" d="M264.53,16.61l0,.61a3.59,3.59,0,0,0,.21-.59Zm-25.19,56s0,0,.08,0l.08-.2A.44.44,0,0,0,239.34,72.58Z"/><path class="cls-3" d="M247.51,129.68"/><path class="cls-3" d="M247.51,133.54a3.86,3.86,0,1,0-3.86-3.86,3.89,3.89,0,0,0,3.86,3.86Z"/><path class="cls-3" d="M239.66,72.29l-.15.11h0l-.08.2s-.06,0-.08,0a3.23,3.23,0,0,1-.53-.27,1.1,1.1,0,0,1,.47,0l.29,0Z"/><path class="cls-2" d="M226.54,186.23a18,18,0,0,0-11.74-6.39,23,23,0,0,0-8.37.53,21.69,21.69,0,0,0-2.87.91v0l0-.47.18-1.85q3.41-18,11.37-17.43l.33,0,1.25.14c3.82.43,6,5.44,6.49,15l20.17-3.32.15-1.25q1.3-11.42-21.93-16.73l-1.31-.14c-.48-.05-1.21-.13-2.16-.25l-7.22-.82c-2.07-.22-4.48-.5-7.2-.81q-9.37-1-23.81-2.68l-.63,5.48A3.25,3.25,0,0,1,181,158a104.14,104.14,0,0,1,1.22,13.19c.06,2.33,0,4.68,0,7s-.26,4.61-.49,6.92c-.05.45-.11.91-.15,1.36l0,.1A127,127,0,0,1,176,211.43v0c-.29.9-.6,1.82-.92,2.74a4.32,4.32,0,0,1-2.75,2.59l-.71,5.75,34.45,4,.79-6.74q-6.63-4.23-5.32-15.58l1-11.77,1.12.13a28.3,28.3,0,0,1,6,1.46q5.09,2,11.55,8.8,5.79-6.53,6.33-11.15A9.21,9.21,0,0,0,226.54,186.23Z"/><path class="cls-2" d="M315.24,225.11c.54-4.69-1.34-8-5.64-9.93-.75,3.92-2.09,5.76-4,5.54h-.14q-3.13-.41-4.14-7.49.12-10.68-12.95-14.13l1.13.11q7.85.92,11.12-.48,11.4-4.74,12.6-15l.15-1.3-.19-3.93q-2.85-10.84-21.32-14.88-8.34-1.14-19.81-2.74l-27.39-3.33-.48,5.13q3.69,7.32,1.24,28.74c-.16,1.31-.32,2.67-.51,4.07l-.37,3.19q-2.61,22.74-7.37,26.47l-.55,4.85,31.89,3.66.56-4.84q-4.76-6.19-2.57-28.28l4.32.49a9.66,9.66,0,0,1,6.15,3.34q1.48,15.65,3,22.31T293,237.07c.85.13,1.62.24,2.33.32a1.23,1.23,0,0,0,.27,0,.22.22,0,0,0,.12,0c.72.08,1.42.13,2.1.16H298q7.29.3,11.63-2.82l.32-.23.05,0a14.89,14.89,0,0,0,5.09-8.12Zm-41-33.11-6.7-.77q2.63-19.46,6.61-23.37l9.36,1.21q6.89.8,5.83,9.92c-.08.65-.18,1.32-.31,2Q287.82,191.47,274.26,192Z"/><path class="cls-2" d="M347.41,237.82q-5.1-6.65-2.05-33.24t9.23-29.11l.39-5-32-3.9-.5,5.14q3.71,7.28,1.24,28.72c-.14,1.32-.31,2.68-.51,4.09l-.37,3.18q-2.61,22.74-7.36,26.47L315,239l31.9,3.65Z"/><path class="cls-2" d="M393.28,181.37l1.25.14q5.72.66,6.47,15l20.19-3.32.14-1.26q.63-5.46-4.36-9.53a1.58,1.58,0,0,1-.15-.12s0,0,0,0l0,0-.38-.29q-5.47-4.11-17-6.75l-1.31-.14q-4.82-.57-40.39-4.56l-.63,5.48a3.21,3.21,0,0,1,1.65,1.79,110,110,0,0,1,.48,29.55,126.54,126.54,0,0,1-6.8,28.26,3.51,3.51,0,0,1-2.4,1.9l-.63,5.49,1.57.17,50.28,6.11q14.77-4.73,16.91-18.81l-20.26-1.61q-4,13.38-8.43,13.19-12-1.71-10.23-17.11l1-11.22a13.47,13.47,0,0,1,4.38,0,27.87,27.87,0,0,1,6.07,1.47q5.08,2,11.55,8.79c3.86-4.35,6-8.06,6.33-11.14a9.17,9.17,0,0,0-1-5.4,17.54,17.54,0,0,0-11.91-6.89,25,25,0,0,0-14.49,2.94l.34-3.73Q385.05,180.42,393.28,181.37Z"/><path class="cls-2" d="M495.49,191.49l.31-5.11-26-3.08L469.3,188q7.14,5.55,4.35,29.86l-.69,6q-5-9.72-10.24-15-11.93-10.08-11.08-17.3l0-.31a6.8,6.8,0,0,1,0-1.19c.18-1.53,1.19-2.79,3-3.8l.34-4.64-31.71-3.6-.56,4.44q5.91,8.83,3.47,29.94l-.51,4.49q-3.25,28.4-10.28,28.09l-.68,5.48,26.46,3,.56-3.7q-8.71-5.65-7.37-20.2l2.21-19.18.25-1.07q1.5,4.45,8.95,12.14,14.39,11,16.44,24.42a18,18,0,0,1-2,5.6l-.21,4.16,24.12,2.77.5.06.55-4.76q-5.72-4.44-3.34-25.19Q486.27,190.43,495.49,191.49Z"/><path class="cls-2" d="M560.85,207.69q-7.12-13.19-24-17l-26.38-2.53-13-1.49-.63,5.43q1.61.78,2.66,3.86c.2,2.48.47,5.62.83,9.43A164.26,164.26,0,0,1,499,231.49c-.28,2.57-1.5,7.57-3.62,15l-2.14,4.77a3.9,3.9,0,0,1-2.7,2.42l-.63,5.48.58.07,2.53.3,11.93,1.41,0,0,24.12,2.78a37.92,37.92,0,0,0,11.59-.73q21.52-10.57,24-32.19l.09-.76A41.69,41.69,0,0,0,560.85,207.69Zm-19.67,18.68-1.46,12.71q-4.22,19.28-13.07,18.25-7.86-.9-5.19-24.17l2-17.79q3.76-18.42,9.23-17.78l.77.08Q544.34,198.93,541.18,226.37Z"/><path class="cls-2" d="M633.16,247.37q-2.62-11.1-14-17-33.45-15.58-32.73-21.74a6.34,6.34,0,0,1,5.73-5.53,12.91,12.91,0,0,1,7.9,3.68q5.91,14,16.06,15.19l.8.09q11.22-1,12.31-6.3t1.31-7.15a11.57,11.57,0,0,0-1-6.76,16.81,16.81,0,0,1-10.16,2,27.27,27.27,0,0,1-4.5-.92l-17.37-5.64q-27.94-3.21-30.38,18c-.08.69-.15,1.41-.2,2.16q1.66,9.39,12.68,16.39,30.74,11.09,29.48,21.86l-.28,2.57q-.76,6.54-11.88,6.74l-.73-.09c-7.1-.81-11.09-2.75-12-5.79s-1.29-5.08-1.17-6.1q.54-4.72,9.32-7.44a24.58,24.58,0,0,0-13.9-6.56q-13.62-1.56-15.11,11.42a5.51,5.51,0,0,0,.44,3q4.39,15.25,27.07,17.86l9.35,1.07a49.53,49.53,0,0,0,9.14-.26q21.9-3.31,24-21.1A24.16,24.16,0,0,0,633.16,247.37Z"/><path class="cls-2" d="M228.27,137.72q-.57-.06-1.32-1.95a68.26,68.26,0,0,1-2.39-8.68,61.67,61.67,0,0,1-1.54-7.58,73,73,0,0,1-.78-10.25v0a87,87,0,0,1,.57-10.08c.11-.88.23-1.94.39-3.19l-22-2.68-.51,8.07a42.38,42.38,0,0,1-1.16,4.44,12.82,12.82,0,0,0-3.77-1.15q-8-.8-9.32,6.87a4,4,0,0,0,1,2.65,4.5,4.5,0,0,0,1,.87l.2.13a8.51,8.51,0,0,0,1.45.71c1-1.67,1.91-2.45,2.83-2.35a4,4,0,0,1,1.82.83l.05,0,.57.42c.23.17.43.31.61.42l.1.06c-.19.48-.37,1-.56,1.45s-.33.81-.5,1.2c-.39.94-.79,1.87-1.23,2.76-.24.53-.5,1-.78,1.57a50.46,50.46,0,0,1-4.76,7.74c-1.56,2-3,3.08-4.34,3.32l-.23,3.15,13.67,1.58.32-3.15a1.78,1.78,0,0,1-.61-1.82l.06-.37a37.79,37.79,0,0,1,1.64-7.61c.44-1.25.87-2.42,1.26-3.51.15-.44.3-.85.46-1.26s.3-.86.43-1.26l.41-1.17a17.68,17.68,0,0,0,1.7.6,22,22,0,0,0,5,1.16,13.46,13.46,0,0,0,1.89.13c0,.55,0,1.11,0,1.65,0,.23,0,.46,0,.69q0,.78-.06,1.56c-.08,2.13-.25,4.23-.48,6.31,0,.43-.07.84-.11,1.23q-.48,4.08-1.7,4.92l-.35,3,2.86.32,7.19.84,7.21.82,3.51.41Zm-24-28.16c.14-.41.28-.82.41-1.22q.95-2.88,1.66-5.22c.75-2.59,1.25-3.89,1.48-3.87s.35.64.66,1.85c.59,3.56,1,6.88,1.26,10,.07.88.14,1.74.18,2.58A21.31,21.31,0,0,1,204.26,109.56Z"/><path class="cls-3" d="M209.91,113.63a21.31,21.31,0,0,1-5.65-4.07c.14-.41.28-.82.41-1.22q.95-2.88,1.66-5.22c.75-2.59,1.25-3.89,1.48-3.87s.35.64.66,1.85c.59,3.56,1,6.88,1.26,10C209.8,111.93,209.87,112.79,209.91,113.63Z"/><path class="cls-2" d="M272.9,143.76c-2.37-1.83-3-7-2.08-15.57q2.71-23.59,8.41-22.92l.2-3.16-16.07-1.91-.31,2.93q4.4,3.42,2.69,18.45l-.42,3.72A38.54,38.54,0,0,0,259,116q-7.37-6.21-6.85-10.68l0-.2a3.69,3.69,0,0,1,0-.74,3.12,3.12,0,0,1,1.88-2.33l.21-2.88-11.43-1.3-7.24-.81-.93-.11-.35,2.73,0,0h0q2.43,3.7,2.55,10.82h0a57.45,57.45,0,0,1-.43,7.64l-.32,2.77q-2,17.55-6.36,17.36l-.42,3.38,16.36,1.88.35-2.29q-5.38-3.48-4.55-12.48L242.86,117l.15-.66c.63,1.84,2.46,4.33,5.53,7.51q8.9,6.81,10.16,15.09a11.12,11.12,0,0,1-1.23,3.45l-.13,2.59,15.22,1.74Z"/><path class="cls-2" d="M322,129.51l.06-.47a25.75,25.75,0,0,0-2.41-13.76c-2.95-5.44-7.89-8.93-14.88-10.49l-16.31-1.56-8-.92-.39,3.35a3.89,3.89,0,0,1,1.64,2.39c.13,1.53.29,3.47.51,5.82a101.77,101.77,0,0,1-.79,16.12,69.51,69.51,0,0,1-2.23,9.25l-1.33,2.95a2.39,2.39,0,0,1-1.66,1.49l-.39,3.4,9.29,1.09v0L300,149.86a23.87,23.87,0,0,0,7.17-.45Q320.46,142.87,322,129.51ZM298.5,146q-4.86-.57-3.2-14.94l1.25-11q2.34-11.39,5.71-11l.48.06q6.7.78,4.74,17.74l-.9,7.86Q304,146.6,298.5,146Z"/><path class="cls-2" d="M259.1,15l-.36-4.41a63,63,0,0,1-12.25.09c-.72-.08-1.44-.19-2.15-.29L214.85,6.77c-1.67-.25-3.16-.45-4.49-.61s-2.46-.26-3.42-.3q-14.28-.78-19.45,8.91a22.59,22.59,0,0,0-2.28,6.76c-.12.55-.21,1.12-.29,1.7l-.07.66,0,1a7.71,7.71,0,0,0,.86.14c2.94.35,6-.63,9.28-2.88h0a12,12,0,0,1,7.79-1.33,34,34,0,0,1,8.61,2.39h0c.64.25,1.3.53,2,.83,0,1.83,0,3.88-.1,6.19-.15,2.77-.42,5.86-.82,9.32-.15,1.26-.31,2.56-.49,3.9l-.37,3.19Q209,69.37,204.22,73.09L203.66,78l31.56,3.63.34,0,.11-1v0l.45-3.82q-3.33-4.33-3.22-17c0-2.22.13-4.63.31-7.23q.22-3.31.63-7c.06-.5.11-1,.18-1.53a137.06,137.06,0,0,1,2.5-15.54l2,.18Q255,29.15,259.1,15Z"/><path class="cls-2" d="M392.06,45.53q.18-19.1-27-22.23c-2-.22-6.21-.54-12.63-.95l-28.38-3.48L323.57,24q3.71,7.31,1.3,28.33c-.16,1.31-.32,2.66-.52,4L324,59.55Q321.37,82.29,316.62,86l-.55,4.85L348,94.54l.57-4.86q-4.22-5.45-3-23.1l17.13,1.56A52.93,52.93,0,0,0,373,68q16.19-5.29,18.35-15.82ZM346.19,58.78l.22-1.89q2.2-19.17,5.82-25.68,2.16-2.12,7.18-1.82,10.47,2.31,9.6,10l-.76,6.51q0,.73-.12,1.41Q366.57,61,346.19,58.78Z"/><path class="cls-2" d="M394.07,26.46l-.51,5.13q3.72,7.31,1.25,28.74c-.14,1.31-.32,2.67-.52,4.08l-.36,3.18q-2.61,22.72-7.37,26.47L386,98.91l31.9,3.66.55-4.85a11.15,11.15,0,0,1-1.65-3.26,1.22,1.22,0,0,0-.07-.17l-.18-.61Q414,85,416.41,64.49q3-26.47,9.22-29.12l.36-4.46,0-.55Z"/><path class="cls-2" d="M493.77,88.08c-.76,3.93-2.1,5.77-4,5.55l-.13,0c-2.09-.27-3.47-2.77-4.14-7.48Q485.6,75.45,472.54,72l1.12.13q7.86.9,11.12-.5,11.42-4.74,12.6-15l.14-1.3-.18-3.94Q494.49,40.56,476,36.52l-19.8-2.73-27.38-3.33-.51,5.13q3.72,7.3,1.25,28.73c-.14,1.32-.32,2.67-.51,4.08l-.37,3.19q-2.61,22.74-7.37,26.47l-.55,4.84,31.9,3.68.55-4.86q-4.75-6.19-2.57-28.29l4.31.5a9.68,9.68,0,0,1,6.17,3.34,207,207,0,0,0,2.94,22.31q1.49,6.66,13.1,10.4c.84.13,1.61.23,2.33.31q16.23,1.88,19.75-11L499.4,98C499.94,93.31,498.06,90,493.77,88.08ZM473.53,51.9c-.08.65-.19,1.33-.33,2q-1.18,10.46-14.78,11l-6.7-.76q2.61-19.45,6.61-23.38L467.7,42Q474.57,42.77,473.53,51.9Z"/><path class="cls-2" d="M314.3,84.39q-2.15-.26-6-17.22-5.6-21-2.82-45.2c.16-1.41.38-3.13.65-5.16l-35.57-4.32-.82,13.06a67.35,67.35,0,0,1-1.85,7.16,21.06,21.06,0,0,0-6.12-1.84C253.2,30,248.19,33.71,246.71,42c.09,3.22,2.06,5.57,5.94,7,1.54-2.69,3.07-4,4.58-3.79a6.52,6.52,0,0,1,2.93,1.34c.89.69,1.61,1.18,2.15,1.52A108.6,108.6,0,0,1,257,60.2a83.71,83.71,0,0,1-7.31,11.7,19.55,19.55,0,0,1-4.22,4.17,7.47,7.47,0,0,1-2.81,1.22l-.36,5.09.19,0,7.23.82,14.68,1.69.54-5.07a2.86,2.86,0,0,1-1-2.94l.06-.63A63,63,0,0,1,266.63,64q2.46-6.76,4.15-11.63a27.94,27.94,0,0,0,2.77.95,37.06,37.06,0,0,0,8.07,1.9,25.75,25.75,0,0,0,3.06.21,146.46,146.46,0,0,1-.94,16.5c-.05.69-.11,1.36-.19,2-.49,4.41-1.41,7-2.73,8l-.56,4.89,33.6,3.86ZM275.48,38.82q1.93-5.84,3.34-10.41c1.21-4.22,2-6.32,2.4-6.27.21,0,.58,1,1.06,3a172.87,172.87,0,0,1,2.32,20.29A35.34,35.34,0,0,1,275.48,38.82Z"/><path class="cls-2" d="M203,83.7a5.83,5.83,0,0,1-5.11-6.4l.59-4.83a5.87,5.87,0,0,1,2-3.87c.34-.29,3.13-3.57,5.29-22.6l.4-3.38c.17-1.3.35-2.53.5-3.75.38-3.33.62-6.35.72-9L194.57,29a17.64,17.64,0,0,1-8.92,1.8l-.61-.05a8.69,8.69,0,0,1-1.53-.27,5.59,5.59,0,0,1-3.5-2.4l-16.17-1L161.3,42.68a16.54,16.54,0,0,1,.3,4.66,32.92,32.92,0,0,1-2.68,10.08l-.8,2.21c-2.88-.21-6.66-.45-11.41-.72l-7-.52q5.33-10.95,9.69-15.82l1.34-17-57-3.6L91.23,37.58a16.57,16.57,0,0,1,.3,4.66,33.16,33.16,0,0,1-2.67,10.08l-.69,1.9a18.2,18.2,0,0,1-9.24-3.59l-16.1-1.4L40.84,96l16.74,5.86A59.82,59.82,0,0,1,71.66,100l-1,2.84q-2.92,7.47-4.79,12.4c-1.86-.27-4.27-.71-7.26-1.28a13.7,13.7,0,0,1-8.12-5.66l-13.69-.57-23,49.64,13.62,2.83q5.64-1.76,14.77-1.09c1.85.14,3.65.34,5.35.6l-.37.63Q41,172.65,36.05,178.12l-.87,13.44L96.77,196l1-13.43a13.46,13.46,0,0,1-2.1-8.36,16.29,16.29,0,0,1,.25-1.83c1-3.95,2-7.56,2.94-10.8,2.94.22,6.93.46,11.93.76l7.75.56c-.17.35-.6,1.18-1.26,2.51q-6.19,12.3-11.13,17.76l-.87,13.45,61.58,4.48,1-13.43a13.51,13.51,0,0,1-2.08-8.37,16.17,16.17,0,0,1,.23-1.82q1.41-5.84,2.82-10.49a19,19,0,0,1,7.57,2.06c-.14-2.86-.42-5.71-.82-8.53a5.84,5.84,0,0,1-1.94-5.1l.62-5.45a5.74,5.74,0,0,1,6.17-5.12l.84.07a24,24,0,0,1,2-4.89,3.62,3.62,0,0,1-3-3.86l.22-3.15a4,4,0,0,1,3-3.27s.71-.18,2.07-1.95a45.36,45.36,0,0,0,3.74-5.82c.47-.85.92-1.72,1.37-2.62a1.85,1.85,0,0,1-.62,0,4.29,4.29,0,0,1-1-.22,11.77,11.77,0,0,1-2.82-1.52,7.82,7.82,0,0,1-3.21-6.13l.06-.68c1.25-6.72,5.86-10.34,12.7-9.83l.78.06a2,2,0,0,0,.68.12c0-.08.1-.22.11-.38l.49-7.77A3.66,3.66,0,0,1,199,90.53a3.71,3.71,0,0,1,2.53-.82h.15l9,1.11a26,26,0,0,1,3-5.87ZM140.76,108q-3,7.78-5,13l-3.14-.12q-12-.44-19.48-.88,2.67-7,7-17.53l.92-2.2c.57,0,1.86.09,3.87.17l18.4,1Z"/></g></g></svg>