<svg id="Layer_1" data-name="Layer 1" xmlns="http://www.w3.org/2000/svg" viewBox="0 0 212.78 190.39"><defs><style>.cls-1{fill:#fff3f6;}.cls-2{fill:#f37d7f;}</style></defs><path class="cls-1" d="M211.27,57.08c-1.22-.36-2.45-.7-3.65-1.08A33.31,33.31,0,0,1,198,51.15c-4.15-3-8.07-6.37-11.91-9.79a71.22,71.22,0,0,0-5.63-4.65,17.82,17.82,0,0,0-6.25-3,10.64,10.64,0,0,0-7.62.72c-.83.42-1.63.87-2.45,1.3-1.6.86-3.19,1.76-4.81,2.57a28.13,28.13,0,0,1-7.22,2.35c-1.24.24-2.48.52-3.71.86A7.19,7.19,0,0,0,145,43.54a8.79,8.79,0,0,0-1.81,3c-.4,1.09-.74,2.21-1.06,3.33-.46,1.58-.86,3.18-1.32,4.76a43.25,43.25,0,0,1-5.14,11.07,19.08,19.08,0,0,1-4.35,4.91,18.88,18.88,0,0,1-8.49,3.72,9.15,9.15,0,0,1-5-.52A4.8,4.8,0,0,1,115.6,72a7.42,7.42,0,0,1-1.22-4.5,9.57,9.57,0,0,1,1.89-5.56,35.87,35.87,0,0,1,2.53-3c2-2.15,4.07-4.27,6.12-6.4s4-4.12,6.16-6l5.72-5.18a74.09,74.09,0,0,0,8.1-8.61,29.59,29.59,0,0,0,4.27-7.12,10.47,10.47,0,0,0,.84-4.72,5,5,0,0,0-.54-2.07,2.75,2.75,0,0,0-2.08-1.52,8.63,8.63,0,0,0-1.44-.06c-.68,0-1.37.07-2,.12a4.58,4.58,0,0,1-3.17-.94,25.42,25.42,0,0,0-7.83-3.81,11.77,11.77,0,0,0-2.42-.47A15.82,15.82,0,0,0,123,13.23a24,24,0,0,0-9.56,7.44,33.55,33.55,0,0,0-4.56,8.61,32.74,32.74,0,0,0-2,9.22q-.31,4.2-.53,8.42a117.9,117.9,0,0,1-2,16.65,52,52,0,0,1-1.8,6.86,22.86,22.86,0,0,1-3.83,6.89,4.49,4.49,0,0,1-2,1.51,3,3,0,0,1-3.51-1.2,9.54,9.54,0,0,1-1.26-3,21.07,21.07,0,0,1-.53-3.87,47.73,47.73,0,0,1,.15-5.86c.13-1.71.29-3.42.44-5.13a94.76,94.76,0,0,1,1.32-9.48A72.52,72.52,0,0,1,99.9,30.42c1.33-2.59,2.79-5.12,4.34-7.59,2.34-3.72,4.49-7.54,6.56-11.41a27.69,27.69,0,0,0,2.28-5.95,9.58,9.58,0,0,0,.25-1.42,3,3,0,0,0-.76-2.27A4.29,4.29,0,0,0,110.81.57,8.3,8.3,0,0,0,107.58,0c-1.16,0-2.33.12-3.48.24s-2.18.32-3.26.48A10.4,10.4,0,0,1,97.15.62,23.07,23.07,0,0,0,94.82.24,11,11,0,0,0,88.25,1.5a17.56,17.56,0,0,0-5.86,5.08,27.63,27.63,0,0,0-2,3.37,45.07,45.07,0,0,0-4.2,11,101.74,101.74,0,0,0-2.69,17.17c-.12,2-.28,4-.32,6.07C73.11,50,73,55.68,73,61.41c0,5.24,0,10.5-.21,15.74,0,1.07-.13,2.13-.21,3.19a4.82,4.82,0,0,1-.17.68,1.08,1.08,0,0,1-.93-.46,7.75,7.75,0,0,1-.86-1.28,23.11,23.11,0,0,1-1-2.37,46,46,0,0,1-2.15-9.84,77,77,0,0,1-.33-13.15,112.94,112.94,0,0,1,2.74-18.83c1.27-5.73,3-11.35,4.7-17,.6-1.93,1.18-3.87,1.7-5.83a26.56,26.56,0,0,0,.64-3.43,9.86,9.86,0,0,0-.46-4.57,6.14,6.14,0,0,0-.9-1.72A2.18,2.18,0,0,0,73,1.74a9.09,9.09,0,0,0-1.6.69,20.81,20.81,0,0,1-7.21,2.63c-1.06.14-2.12.19-3.18.29s-2,.16-3,.31a5.42,5.42,0,0,0-3.18,1.78A15.31,15.31,0,0,0,53,9.9a32.63,32.63,0,0,0-2.82,5.94,30.43,30.43,0,0,0-1.74,11.23,68.86,68.86,0,0,0,1,9.82c.68,3.88,1.39,7.76,2.17,11.63,1.33,6.55,2.55,13.13,3.61,19.73.39,2.44.67,4.9,1,7.35a22.4,22.4,0,0,1-.05,5.24c0,.33,0,.7-.29,1-.42,0-.63-.38-.88-.66-.46-.55-.93-1.1-1.39-1.66a53.11,53.11,0,0,1-6.56-9.94,57.33,57.33,0,0,1-4.52-13,44.27,44.27,0,0,1-.14-19.8c.42-1.84.85-3.68,1.26-5.52.55-2.48,1.1-5,1.62-7.44a26.71,26.71,0,0,0,.16-8.92,10.28,10.28,0,0,0-.79-3,6,6,0,0,0-1.42-2c-.31-.29-.65-.62-1.14-.52a2.07,2.07,0,0,0-.16.17.84.84,0,0,0-.1.29,16.09,16.09,0,0,1-3.54,7.23,26.44,26.44,0,0,1-5.74,5.12,80.68,80.68,0,0,0-8.47,6.36,22.06,22.06,0,0,0-1.68,1.67A27.53,27.53,0,0,0,15.94,42.8,21.57,21.57,0,0,0,16.27,54a33.64,33.64,0,0,0,1.26,3.48,55.15,55.15,0,0,0,8.75,14c2.2,2.62,4.48,5.19,6.73,7.78a63.5,63.5,0,0,1,6.3,8.38,14.31,14.31,0,0,1,1.76,3.93,5.3,5.3,0,0,1,.15,2.24,1.75,1.75,0,0,1-2,1.64,7.07,7.07,0,0,1-1.8-.39,11.68,11.68,0,0,1-3.28-1.89,38.68,38.68,0,0,1-6.15-6,54,54,0,0,1-6.45-9.9c-1.71-3.29-3.18-6.68-4.64-10.09q-2-4.64-4-9.26a8.59,8.59,0,0,0-1.42-2.38,3.17,3.17,0,0,0-1.68-1.15,5.67,5.67,0,0,0-.66.22,3.48,3.48,0,0,0-.6.4,15,15,0,0,0-3.89,4.61A48.59,48.59,0,0,0,2.33,64.7,29.8,29.8,0,0,0,.27,80.34c.22,1.76.47,3.53.75,5.29L2.08,97.1q0,1.08.09,2.16a25.72,25.72,0,0,0,.56,4.28A27.66,27.66,0,0,0,11.33,118a26.64,26.64,0,0,0,14.39,6.8,74.72,74.72,0,0,0,11.09.67c1.61,0,3.22-.06,4.84,0q3.35,0,6.69.11a26,26,0,0,1,6.49,1c.28.08.62.07.82.42a2,2,0,0,1-1,.43,167.18,167.18,0,0,1-28.91,6.32,110.81,110.81,0,0,1-13.12,1.17,3.24,3.24,0,0,0-2,.78,1.14,1.14,0,0,0,.13,2.08c.18.1.36.21.54.29a5.34,5.34,0,0,0,2.53.32l8.29-.89a173.72,173.72,0,0,0,30.55-6.06c1.64-.48,3.27-1,4.91-1.52.21-.06.43-.19.65,0a1.68,1.68,0,0,1-.71.89,15.37,15.37,0,0,1-1.86,1.28c-1.49.77-3,1.49-4.54,2.19a43.1,43.1,0,0,0-7.19,4,22.83,22.83,0,0,0-5.79,5.93,39.83,39.83,0,0,0-5.41,12.28A22.51,22.51,0,0,0,32,162a12.9,12.9,0,0,0,3.88,9.55,10.61,10.61,0,0,0,4.17,2.74,1.8,1.8,0,0,1,.38.16c.78.49,1.59,1,2.34,1.49a22.41,22.41,0,0,0,5.63,2.74,12,12,0,0,0,5.38.57,9.81,9.81,0,0,0,2-.49,1.89,1.89,0,0,0,1.38-2.49,7.75,7.75,0,0,0-.43-1.37c-.41-1.05-.83-2.1-1.29-3.13a39.54,39.54,0,0,1-3.16-13.35,16.06,16.06,0,0,1,.05-3.6,4.56,4.56,0,0,1,.53-1.65,2.62,2.62,0,0,1,2.8-1.32,4.08,4.08,0,0,1,1.7.69,5.31,5.31,0,0,1,1.7,2,14.6,14.6,0,0,1,1.3,4.42,31.52,31.52,0,0,1,.35,5.13c0,2.68-.16,5.35-.23,8-.06,1.92-.12,3.84-.15,5.76a12.34,12.34,0,0,0,.43,3.36,9.71,9.71,0,0,0,3,4.83,8.85,8.85,0,0,0,6,2.31c1.23,0,2.47-.09,3.7-.2a11.18,11.18,0,0,1,3.78.25l2.1.53c1.23.3,2.46.62,3.7.9a18.64,18.64,0,0,0,4.08.47A9.78,9.78,0,0,0,90,190a5.63,5.63,0,0,0,1.82-.94,3.32,3.32,0,0,0,1.35-3.35,7.22,7.22,0,0,0-.87-2.4,23,23,0,0,0-3.19-4,116.9,116.9,0,0,1-8.9-11.2,58.53,58.53,0,0,1-3.57-5.53,27.87,27.87,0,0,1-2.67-6.23,12.72,12.72,0,0,1-.38-2.22,2.66,2.66,0,0,1,.64-2,1.71,1.71,0,0,1,1.69.35,14.28,14.28,0,0,1,2.65,2.44,32.47,32.47,0,0,1,4,5.69c1.56,2.82,3.07,5.67,4.62,8.49a48.51,48.51,0,0,0,3.71,6.05c1.24,1.64,2.49,3.28,3.81,4.86a31.75,31.75,0,0,0,4.13,4.15,19.74,19.74,0,0,0,12.77,4.71h.72a48.67,48.67,0,0,1,6.27.31c1.12.12,2.26.18,3.39.2a11.32,11.32,0,0,0,4.89-1,22.59,22.59,0,0,0,6.9-4.78,9.22,9.22,0,0,0,2.67-5,5.53,5.53,0,0,0-1.94-5.44,21.9,21.9,0,0,0-3.28-2.29,93.09,93.09,0,0,0-9.81-5c-2.92-1.29-5.84-2.58-8.72-3.94a40.38,40.38,0,0,1-9-5.74,49.59,49.59,0,0,1-6.54-7,2.47,2.47,0,0,1-.3-.42,4,4,0,0,1-.62-2.25,1.28,1.28,0,0,1,1.65-1.34,4.82,4.82,0,0,1,1.63.58c1.19.68,2.36,1.39,3.49,2.17a71.89,71.89,0,0,1,6.22,5.06,126.82,126.82,0,0,0,10,8,66.07,66.07,0,0,0,9.21,5.62A54.24,54.24,0,0,0,139,170.52a34.74,34.74,0,0,0,6.09.93,19.55,19.55,0,0,0,6.72-.74,4.38,4.38,0,0,0,2.55-1.8,12.55,12.55,0,0,1,4.7-4.22c2.25-1.23,4.55-2.39,6.86-3.53a17.27,17.27,0,0,0,3.75-2.5,12,12,0,0,0,3-3.89,5.82,5.82,0,0,0,.64-2.68,14.72,14.72,0,0,0-4.4-10.54c-.09-.09-.17-.2-.3-.35a16,16,0,0,1,1.41-2.84,4.43,4.43,0,0,1,.64-.66,5.23,5.23,0,0,1,2.46-1.21c1.14-.27,2.29-.49,3.43-.71a33.12,33.12,0,0,0,4.39-1.09,11.16,11.16,0,0,0,3.87-2.29,5.91,5.91,0,0,0,2-3.83,11.91,11.91,0,0,0-.31-4.49,7,7,0,0,0-5.5-5.38,10.07,10.07,0,0,0-4.6,0c-1.23.28-2.46.6-3.68,1a64.86,64.86,0,0,1-13.75,2.48,46.2,46.2,0,0,1-16.9-1.74c-4-1.22-7.95-2.64-11.83-4.22a39.24,39.24,0,0,1-7-3.75,4.78,4.78,0,0,1-1.77-2,2.8,2.8,0,0,1,1.08-3.76,12.72,12.72,0,0,1,1.45-.78,14.76,14.76,0,0,1,8-1.12,20.68,20.68,0,0,1,6.39,1.9,74.69,74.69,0,0,1,7.86,4,77.94,77.94,0,0,0,7.85,4.09,39.44,39.44,0,0,0,9.5,3,20,20,0,0,0,3.78.36,8.88,8.88,0,0,0,4.59-1.31,23.34,23.34,0,0,0,4.86-4.11,5.75,5.75,0,0,0,1.66-4.58,17.08,17.08,0,0,1,1.53-8,8.93,8.93,0,0,0,.35-.85.81.81,0,0,0-.18-1,1.3,1.3,0,0,0-1.09,0c-.53.16-1.05.33-1.56.52a32.2,32.2,0,0,1-7.3,1.73,73.63,73.63,0,0,1-11.4.49,35,35,0,0,1-6.22-.77,12.47,12.47,0,0,1-3.29-1.19,5.72,5.72,0,0,1-2-1.83,3.12,3.12,0,0,1,.71-4.46,10.24,10.24,0,0,1,1.14-.7,17.69,17.69,0,0,1,9.08-1.81,25.22,25.22,0,0,1,6.15,1.16c2,.6,3.93,1.25,5.89,1.86,1.12.34,2.24.68,3.37.94a12.76,12.76,0,0,0,6.32-.08,12.32,12.32,0,0,0,8.45-6.79,4.49,4.49,0,0,1,1.5-1.79c.7-.5,1.39-1,2.1-1.49a22.45,22.45,0,0,0,5.86-6,37.49,37.49,0,0,0,2.63-4.77c.62-1.26,1.22-2.53,1.89-3.77a27.75,27.75,0,0,1,5.82-7.54c1.27-1.15,2.56-2.27,3.84-3.42.31-.27.69-.48.78-1A5,5,0,0,0,211.27,57.08Zm-69,82.87a56.29,56.29,0,0,0,14.26,5.3c-21.23,5.8-53.55-8.25-48.76-17.8C109.76,123.56,127.31,132,142.31,140Z"/><path class="cls-2" d="M15.79,137.38c-1,.15-2,.3-3,.39a2.43,2.43,0,0,1-1.79-.62,2,2,0,0,1-.32-.43,1.14,1.14,0,0,1,.77-.85,4,4,0,0,1,1.07-.29,6.38,6.38,0,0,1,4,1.31A.74.74,0,0,1,15.79,137.38Z"/><path class="cls-2" d="M16.61,136.2c-.36-.16-.69-.39-1.13-.64a3.08,3.08,0,0,1,1.19-.23c3.44-.39,6.89-.71,10.32-1.18a169.2,169.2,0,0,0,42.49-11.48,173.46,173.46,0,0,0,16.21-7.78q4.84-2.64,9.45-5.65c3.5-2.3,6.87-4.78,10.19-7.33,4.7-3.62,9.39-7.27,14.12-10.85q4.3-3.25,8.75-6.34a128.11,128.11,0,0,1,17.19-10.1,104.59,104.59,0,0,1,14-5.43,186,186,0,0,1,25.42-5.94c1.69-.29,3.39-.53,5.08-.79a1.92,1.92,0,0,1,1,.08c-.25.06-.5.14-.75.19A266.53,266.53,0,0,0,163.66,70c-2.64.85-5.31,1.62-7.94,2.51a94.47,94.47,0,0,0-14.84,6.57q-4.87,2.67-9.53,5.71c-2.35,1.55-4.65,3.16-6.94,4.79-5,3.59-9.9,7.39-14.79,11.16-3.29,2.53-6.58,5.06-9.92,7.53-2.82,2.08-5.76,4-8.76,5.77A165.32,165.32,0,0,1,66.1,126.2a169.32,169.32,0,0,1-39.68,10.11c-2.69.35-5.38.62-8.08.92l-1.05.07C17.12,136.89,17.08,136.41,16.61,136.2Z"/><path d="M1,85.63C.74,83.87.5,82.1.27,80.33A29.78,29.78,0,0,1,2.33,64.7a47.75,47.75,0,0,1,2.36-5.14A14.85,14.85,0,0,1,8.57,55a3,3,0,0,1,.6-.4,4.32,4.32,0,0,1,.66-.23,3.1,3.1,0,0,1,1.68,1.16,8,8,0,0,1,1.42,2.37q2,4.63,4,9.27c1.45,3.4,2.93,6.8,4.63,10.09A54.63,54.63,0,0,0,28,87.11a38.68,38.68,0,0,0,6.15,6,11.84,11.84,0,0,0,3.29,1.89,7.33,7.33,0,0,0,1.79.38,1.74,1.74,0,0,0,2-1.63,5.46,5.46,0,0,0-.14-2.24,14.36,14.36,0,0,0-1.77-3.93A62.63,62.63,0,0,0,33,79.25c-2.25-2.59-4.53-5.16-6.73-7.79a55.54,55.54,0,0,1-8.75-14A32.65,32.65,0,0,1,16.27,54a21.61,21.61,0,0,1-.33-11.2,27.73,27.73,0,0,1,6.47-12.58,21.93,21.93,0,0,1,1.68-1.66,80.34,80.34,0,0,1,8.47-6.36,26.48,26.48,0,0,0,5.74-5.13,16,16,0,0,0,3.54-7.22,1,1,0,0,1,.1-.29.81.81,0,0,1,.16-.17c.49-.11.83.22,1.14.52a6,6,0,0,1,1.43,2,11,11,0,0,1,.79,3,26.91,26.91,0,0,1-.17,8.91c-.52,2.49-1.07,5-1.62,7.45-.41,1.84-.84,3.68-1.26,5.52a44.27,44.27,0,0,0,.14,19.8,58,58,0,0,0,4.52,13,53,53,0,0,0,6.57,9.94c.45.56.92,1.11,1.39,1.65.24.29.46.61.88.67.29-.27.25-.63.29-1a23,23,0,0,0,0-5.24c-.27-2.46-.56-4.91-1-7.35-1.06-6.6-2.28-13.18-3.61-19.74-.78-3.86-1.49-7.74-2.17-11.63a70,70,0,0,1-1-9.81,30.43,30.43,0,0,1,1.74-11.23A32.63,32.63,0,0,1,53,9.9a15.3,15.3,0,0,1,1.85-2.47,5.35,5.35,0,0,1,3.17-1.77c1-.15,2-.22,3-.31s2.13-.15,3.18-.3A20.72,20.72,0,0,0,71.4,2.43,8.68,8.68,0,0,1,73,1.74a2.17,2.17,0,0,1,2.55.83,6.07,6.07,0,0,1,.9,1.73,9.83,9.83,0,0,1,.46,4.56,26.39,26.39,0,0,1-.64,3.44c-.52,2-1.1,3.9-1.7,5.83-1.74,5.6-3.43,11.22-4.7,17a113.87,113.87,0,0,0-2.74,18.82,77.11,77.11,0,0,0,.33,13.16,45.9,45.9,0,0,0,2.15,9.83,22.38,22.38,0,0,0,1,2.38,7.67,7.67,0,0,0,.86,1.27,1.08,1.08,0,0,0,.93.46,4.51,4.51,0,0,0,.17-.68c.08-1.06.16-2.12.21-3.18.25-5.25.17-10.5.21-15.75q.09-8.59.26-17.19c0-2,.2-4,.32-6.06A101.58,101.58,0,0,1,76.23,21a45,45,0,0,1,4.21-11,24.65,24.65,0,0,1,2-3.37,17.67,17.67,0,0,1,5.85-5.09A11,11,0,0,1,94.82.23c.78.09,1.56.22,2.34.38a10.12,10.12,0,0,0,3.68.12C101.93.57,103,.37,104.1.25S106.42,0,107.58,0a8.31,8.31,0,0,1,3.23.57,4.46,4.46,0,0,1,1.77,1.2,3,3,0,0,1,.75,2.28,8.62,8.62,0,0,1-.25,1.42,27.58,27.58,0,0,1-2.27,5.94c-2.08,3.87-4.23,7.7-6.57,11.42-1.55,2.47-3,5-4.34,7.59a72.74,72.74,0,0,0-6.63,19.85A94.16,94.16,0,0,0,92,59.74c-.15,1.71-.3,3.42-.44,5.13a47.9,47.9,0,0,0-.15,5.87,21.86,21.86,0,0,0,.53,3.86,9.16,9.16,0,0,0,1.27,3,3,3,0,0,0,3.5,1.21,4.58,4.58,0,0,0,2-1.51,22.86,22.86,0,0,0,3.83-6.89,52.57,52.57,0,0,0,1.8-6.87,117.77,117.77,0,0,0,2-16.64c.14-2.81.33-5.62.53-8.43a32.89,32.89,0,0,1,2-9.22,33.32,33.32,0,0,1,4.56-8.6A23.88,23.88,0,0,1,123,13.23a15.84,15.84,0,0,1,7.46-1.15,11.05,11.05,0,0,1,2.41.47,25.19,25.19,0,0,1,7.83,3.81,4.68,4.68,0,0,0,3.17.94c.68-.06,1.37-.11,2-.13a8.63,8.63,0,0,1,1.44.07,2.74,2.74,0,0,1,2.08,1.51,4.84,4.84,0,0,1,.55,2.07,10.82,10.82,0,0,1-.84,4.73,30,30,0,0,1-4.28,7.12,74.91,74.91,0,0,1-8.1,8.61c-1.9,1.72-3.82,3.44-5.72,5.17-2.14,1.94-4.17,4-6.16,6.06s-4.1,4.25-6.12,6.4a37.63,37.63,0,0,0-2.52,3,9.56,9.56,0,0,0-1.89,5.57,7.38,7.38,0,0,0,1.21,4.49,4.68,4.68,0,0,0,2.3,1.82,9.17,9.17,0,0,0,5,.53,19.08,19.08,0,0,0,8.5-3.72,19.4,19.4,0,0,0,4.34-4.91,42.74,42.74,0,0,0,5.14-11.07c.46-1.58.86-3.18,1.32-4.76.32-1.12.66-2.24,1.06-3.33a8.6,8.6,0,0,1,1.82-3,7.08,7.08,0,0,1,3.38-2.06c1.22-.34,2.46-.62,3.7-.86a28.16,28.16,0,0,0,7.22-2.36c1.63-.81,3.21-1.7,4.81-2.56.82-.44,1.63-.89,2.45-1.3a10.7,10.7,0,0,1,7.62-.73,18.31,18.31,0,0,1,6.26,3c2,1.44,3.81,3,5.62,4.65,3.84,3.43,7.76,6.75,11.91,9.8A33.41,33.41,0,0,0,207.62,56c1.21.39,2.43.72,3.65,1.09a5.05,5.05,0,0,1,1.51.59c-.1.48-.48.69-.78,1-1.28,1.14-2.57,2.27-3.85,3.42a27.75,27.75,0,0,0-5.82,7.54c-.66,1.23-1.27,2.5-1.88,3.77a39.58,39.58,0,0,1-2.64,4.77,22.3,22.3,0,0,1-5.86,6c-.71.48-1.4,1-2.1,1.49a4.36,4.36,0,0,0-1.5,1.79,12.28,12.28,0,0,1-8.45,6.78,12.76,12.76,0,0,1-6.32.09c-1.13-.27-2.25-.6-3.36-1-2-.6-3.92-1.26-5.89-1.86a26.38,26.38,0,0,0-6.16-1.16,17.83,17.83,0,0,0-9.08,1.82,13.29,13.29,0,0,0-1.14.69,3.13,3.13,0,0,0-.71,4.47,5.67,5.67,0,0,0,2.06,1.83,12.6,12.6,0,0,0,3.28,1.18,33.48,33.48,0,0,0,6.22.77,71.3,71.3,0,0,0,11.41-.49,31.72,31.72,0,0,0,7.29-1.73c.51-.19,1-.36,1.56-.52a1.26,1.26,0,0,1,1.09,0,.79.79,0,0,1,.18.94,8.14,8.14,0,0,1-.35.86,16.93,16.93,0,0,0-1.52,8,5.8,5.8,0,0,1-1.67,4.59,23.34,23.34,0,0,1-4.86,4.1,8.69,8.69,0,0,1-4.58,1.31,20,20,0,0,1-3.79-.35,39.44,39.44,0,0,1-9.5-3,76.73,76.73,0,0,1-7.84-4.09,75.83,75.83,0,0,0-7.87-4,20.69,20.69,0,0,0-6.39-1.91,14.86,14.86,0,0,0-8,1.12,13.35,13.35,0,0,0-1.44.78,2.82,2.82,0,0,0-1.09,3.77,4.83,4.83,0,0,0,1.77,2,38.4,38.4,0,0,0,7,3.76c3.87,1.57,7.81,3,11.82,4.21a46.42,46.42,0,0,0,16.9,1.75,64.86,64.86,0,0,0,13.75-2.48c1.22-.36,2.45-.68,3.68-1a10.07,10.07,0,0,1,4.6,0,7,7,0,0,1,5.5,5.38,11.94,11.94,0,0,1,.32,4.49,5.92,5.92,0,0,1-2,3.83,11,11,0,0,1-3.87,2.29,32.77,32.77,0,0,1-4.39,1.1c-1.14.22-2.29.44-3.42.7a5.36,5.36,0,0,0-2.47,1.21,4.5,4.5,0,0,0-.64.67,15.89,15.89,0,0,0-1.41,2.83c.13.15.21.26.31.36a14.73,14.73,0,0,1,4.39,10.54,5.83,5.83,0,0,1-.63,2.68,12.1,12.1,0,0,1-3,3.89,17.58,17.58,0,0,1-3.76,2.5c-2.31,1.13-4.6,2.29-6.86,3.52a12.71,12.71,0,0,0-4.7,4.22,4.36,4.36,0,0,1-2.55,1.81,19.49,19.49,0,0,1-6.71.74,33.81,33.81,0,0,1-6.1-.94,53.56,53.56,0,0,1-10.48-3.93,66.66,66.66,0,0,1-9.21-5.62c-3.52-2.45-6.77-5.25-10-8a73.42,73.42,0,0,0-6.21-5.07c-1.14-.77-2.31-1.49-3.5-2.17a5.2,5.2,0,0,0-1.63-.58,1.29,1.29,0,0,0-1.65,1.35,4.07,4.07,0,0,0,.62,2.25,3.19,3.19,0,0,0,.3.42,50.67,50.67,0,0,0,6.54,7,40.42,40.42,0,0,0,9,5.75c2.88,1.36,5.8,2.65,8.72,3.94a94,94,0,0,1,9.81,5,22.58,22.58,0,0,1,3.29,2.3,5.55,5.55,0,0,1,1.94,5.44,9.38,9.38,0,0,1-2.67,5,22.81,22.81,0,0,1-6.9,4.77,11.37,11.37,0,0,1-4.9,1c-1.13,0-2.26-.09-3.39-.2a48.59,48.59,0,0,0-6.27-.31h-.72a19.73,19.73,0,0,1-12.77-4.7A31.75,31.75,0,0,1,94.73,180c-1.32-1.58-2.57-3.22-3.81-4.86A50.51,50.51,0,0,1,87.21,169c-1.55-2.82-3.06-5.67-4.62-8.49a32.1,32.1,0,0,0-4-5.69,14.54,14.54,0,0,0-2.64-2.44,1.74,1.74,0,0,0-1.7-.36,2.63,2.63,0,0,0-.63,2.05,12.86,12.86,0,0,0,.37,2.22,28.06,28.06,0,0,0,2.67,6.22,58.68,58.68,0,0,0,3.57,5.54,116.77,116.77,0,0,0,8.9,11.19,23.09,23.09,0,0,1,3.19,4,6.67,6.67,0,0,1,.87,2.4,3.33,3.33,0,0,1-1.35,3.35A5.42,5.42,0,0,1,90,190a10.1,10.1,0,0,1-2.84.4,18.64,18.64,0,0,1-4.08-.47c-1.24-.28-2.47-.6-3.7-.91l-2.1-.53a11.7,11.7,0,0,0-3.78-.25,35.14,35.14,0,0,1-3.7.21,8.89,8.89,0,0,1-6-2.31,9.77,9.77,0,0,1-3-4.84,12.3,12.3,0,0,1-.43-3.36c0-1.92.09-3.84.15-5.76.08-2.67.18-5.35.23-8a30.37,30.37,0,0,0-.35-5.13,14.52,14.52,0,0,0-1.3-4.42,5.31,5.31,0,0,0-1.7-2,4,4,0,0,0-1.7-.69,2.62,2.62,0,0,0-2.79,1.31,4.44,4.44,0,0,0-.54,1.66,16.57,16.57,0,0,0-.05,3.59,39.67,39.67,0,0,0,3.16,13.35c.46,1,.88,2.09,1.3,3.14a9.08,9.08,0,0,1,.43,1.37,1.9,1.9,0,0,1-1.39,2.49,9.17,9.17,0,0,1-2,.48,12,12,0,0,1-5.38-.56A22.21,22.21,0,0,1,42.8,176c-.76-.53-1.56-1-2.35-1.48a1.8,1.8,0,0,0-.38-.16,10.61,10.61,0,0,1-4.16-2.74A12.88,12.88,0,0,1,32,162a22.45,22.45,0,0,1,.71-5.6,39.72,39.72,0,0,1,5.41-12.28,22.83,22.83,0,0,1,5.79-5.93,41.71,41.71,0,0,1,7.19-4c1.53-.71,3.05-1.42,4.54-2.2a13.58,13.58,0,0,0,1.86-1.27,1.68,1.68,0,0,0,.71-.89c-.22-.19-.44-.06-.65,0-1.63.51-3.27,1-4.91,1.52a173.72,173.72,0,0,1-30.55,6.06c-2.76.3-5.52.6-8.28.88a5.19,5.19,0,0,1-2.53-.32,3.22,3.22,0,0,1-.55-.29c-1-.63-.89-1.47-.12-2.08a3.18,3.18,0,0,1,2-.77,110.81,110.81,0,0,0,13.12-1.17,168.43,168.43,0,0,0,28.92-6.32,2.16,2.16,0,0,0,1-.43c-.21-.36-.55-.34-.83-.42a25.54,25.54,0,0,0-6.49-1c-2.23-.07-4.46-.1-6.69-.12-1.61,0-3.23,0-4.84,0a72.19,72.19,0,0,1-11.09-.67A26.59,26.59,0,0,1,11.33,118a27.62,27.62,0,0,1-8.59-14.45,25.74,25.74,0,0,1-.57-4.28q-.06-1.08-.09-2.16M120.59,78.31a8.14,8.14,0,0,1,0,1.21c-.34,2.1-.67,4.2-1.07,6.28-.28,1.49-.65,3-1,4.42,0,.18-.17.4.12.56a2.15,2.15,0,0,0,.34-.17q1-.75,2.07-1.53c1.11-.84,1-.52,1.4-2a53.76,53.76,0,0,0,2-12,1.76,1.76,0,0,0-.06-.38,1.51,1.51,0,0,0-.34,0,12.34,12.34,0,0,1-3,.34,1.81,1.81,0,0,0-.55.22c-.19-.37-.58-.32-.9-.37a7.12,7.12,0,0,1-3.87-1.75.78.78,0,0,0-.65-.22,12.73,12.73,0,0,0-.48-1.35,8.82,8.82,0,0,1-.82-4.9,10.23,10.23,0,0,1,2-5.13,33.92,33.92,0,0,1,2.38-2.83c2.38-2.52,4.77-5,7.19-7.5q2.45-2.51,5-4.89c1.82-1.71,3.71-3.36,5.56-5a78.93,78.93,0,0,0,7.77-8.07,31.08,31.08,0,0,0,4.78-7.53,11.07,11.07,0,0,0,.84-2.75,8.64,8.64,0,0,0,0-2.87c0-.18-.06-.42-.35-.4a.61.61,0,0,0-.13.15c-.11.18-.2.36-.3.54a46.11,46.11,0,0,1-4.4,6.82,77.11,77.11,0,0,1-7.81,8.45c-2.89,2.78-5.83,5.51-8.76,8.25s-5.62,5.33-8.24,8.19a51.26,51.26,0,0,0-5.26,6.58A21.7,21.7,0,0,0,110.82,66a21.94,21.94,0,0,0-.43,5.83c.08,1.51.22,3,.35,4.51.19,2.29.43,4.58.57,6.87a42.91,42.91,0,0,1-.35,9.34c-.2,1.33-.48,2.63-.72,4a5,5,0,0,0,0,.6A20.88,20.88,0,0,0,114,94.23a4.58,4.58,0,0,0,.12-.47,70.58,70.58,0,0,0,1.22-18.23,8.35,8.35,0,0,1,0-1,11.68,11.68,0,0,1,.24,1.29,61.13,61.13,0,0,1-.18,11c-.21,2-.54,4-.81,6,0,.3-.06.59-.09.92A15.61,15.61,0,0,0,118,91.26a100.13,100.13,0,0,0,2.42-12A8.17,8.17,0,0,1,120.59,78.31Zm34.91-4.46a3.73,3.73,0,0,1,.74.31c.91.6,1.84,1.19,2.71,1.86a40.73,40.73,0,0,1,7,7.09c2.12,2.66,4.18,5.35,6.53,7.82.9.94,1.89,1.78,2.84,2.67a1.61,1.61,0,0,0,1.13.41,12.47,12.47,0,0,0,3.16-.37,4.45,4.45,0,0,0,.54-.23c-.27-.25-.46-.44-.66-.6a66.87,66.87,0,0,1-8.71-8.28c-2-2.2-3.88-4.44-5.88-6.61a23.85,23.85,0,0,0-5.48-4.47c-.55-.33-1.14-.62-1.62-.88a5.55,5.55,0,0,0-2.46,1l.22.34-.92-.25a8.09,8.09,0,0,0-2.34,1c.32.24.55.43.8.6a31,31,0,0,1,6.27,6.06c1.8,2.33,3.56,4.7,5.38,7,.76,1,1.61,1.88,2.44,2.79a4.32,4.32,0,0,0,2.15,1.33c1.06.28,2.09.66,3.15,1,.62.18,1.27.3,1.91.43.14,0,.33.1.41-.15a1.12,1.12,0,0,0-.19-.24,42.57,42.57,0,0,1-5-5.29c-2.17-2.65-4.24-5.4-6.55-7.94a33.94,33.94,0,0,0-6.54-5.6C156.14,74.35,155.83,74.09,155.5,73.85ZM162,71.77a5.87,5.87,0,0,1,.95.31c1.12.61,2.24,1.2,3.31,1.87a36.69,36.69,0,0,1,6.68,5.75c2.25,2.31,4.44,4.67,6.69,7a39.6,39.6,0,0,0,4.62,4.06,5.14,5.14,0,0,0,.5.28,6.51,6.51,0,0,0,2.65-3.34l-.64-.5c-1.07-.85-2.19-1.65-3.21-2.56-2.84-2.53-5.63-5.1-8.45-7.66a47.24,47.24,0,0,0-5.36-4.31,17.77,17.77,0,0,0-4.42-2.16,1.93,1.93,0,0,0-1.3,0c-.68.24-1.37.43-2.06.65a1.76,1.76,0,0,0-.36.28l.44.38-1.23-.23c-.39.12-.83.23-1.24.38a3.29,3.29,0,0,0-1.28.55c.29.18.5.34.73.46a21.53,21.53,0,0,1,5.32,4c1.59,1.61,3.11,3.29,4.59,5,1.62,1.86,3.25,3.71,5,5.47a62.78,62.78,0,0,0,6,5.32c.27.21.56.38.83.56a9.41,9.41,0,0,0,3.09-1.48,7.21,7.21,0,0,0,.54-.48,5.39,5.39,0,0,0-.48-.48,79,79,0,0,1-8.47-8.09c-1.64-1.7-3.26-3.42-4.94-5.08a29.4,29.4,0,0,0-7.6-5.39A9.52,9.52,0,0,1,162,71.77Zm-8.26-1.6a7.33,7.33,0,0,1-.3-1,24.94,24.94,0,0,1,1.08-13.66c.65-1.69,1.38-3.36,2.18-5,1.17-2.36,2.45-4.67,3.65-7,1-2,2-3.93,2.92-5.9.1-.19.31-.4.07-.68l-5.64,2.8c-.12.38-.23.7-.33,1a59.42,59.42,0,0,1-2.76,7.41c-.59,1.31-1.22,2.61-1.79,3.93-.72,1.63-1.45,3.25-2.07,4.92a25.71,25.71,0,0,0-1.49,10.72,13.33,13.33,0,0,0,.54,3.13,9.72,9.72,0,0,0,.37.91c1.19-.4,2.28-.86,3.39-1.28.06-.15.12-.27.18-.39a1.73,1.73,0,0,0,.58.1,7.23,7.23,0,0,0,1.74-.66c0-.32,0-.62.06-.93.12-1.5.17-3,.37-4.51a57.73,57.73,0,0,1,7.72-22,73,73,0,0,1,4.72-7,2.41,2.41,0,0,0,.58-.95,1.22,1.22,0,0,0-.93.08,21.12,21.12,0,0,0-4.41,2.13c-.44.95-.82,1.86-1.27,2.75-1.39,2.72-2.8,5.42-4.21,8.13a79.35,79.35,0,0,0-3.52,7.32,25.41,25.41,0,0,0-1.9,8.29,29.49,29.49,0,0,0,.39,6.15C153.68,69.42,153.67,69.8,153.7,70.17Zm9.19-3c.16,0,.34.17.47.14,1-.26,2-.55,3.08-.83.77-1.22,1.54-2.4,2.28-3.59,1.55-2.51,3.06-5,4.66-7.52a59.21,59.21,0,0,1,11.26-13.15,8.79,8.79,0,0,0,.63-.69,14.7,14.7,0,0,0-2.23-2,12.13,12.13,0,0,0-2.36-1.77c-.31.24-.59.43-.84.65-1.65,1.46-3.21,3-4.72,4.59A37.71,37.71,0,0,0,167,56.18c-.7,1.93-1.28,3.91-1.95,5.85-.49,1.43-1,2.84-1.57,4.25a7.26,7.26,0,0,1-.55,1,2.5,2.5,0,0,1,.1-.49,58.2,58.2,0,0,0,2.24-6.3c.56-1.76,1.14-3.52,1.8-5.25a35.6,35.6,0,0,1,4.8-8.71A53.47,53.47,0,0,1,178.71,39a11.1,11.1,0,0,0,1.58-1.56,11.54,11.54,0,0,0-4.85-2.66c-.23.26-.5.53-.73.82a77.6,77.6,0,0,0-9.75,15,57.88,57.88,0,0,0-5.42,16.77c0,.33-.08.67-.13,1.07a13.56,13.56,0,0,0,2.53-.66,2.88,2.88,0,0,0,.65-.29A1.56,1.56,0,0,0,162.89,67.2ZM59,131.71c0-.41-.09-.82-.15-1.36a4.41,4.41,0,0,0-.44.44,2.21,2.21,0,0,0-.26.44c-.12.24-.22.49-.33.74l-.34-.3a2.28,2.28,0,0,0-1,.83c-.89,1.05-1.76,2.1-2.69,3.11-1.66,1.82-3.41,3.57-5,5.42a57.11,57.11,0,0,0-11.88,21.08,43.93,43.93,0,0,0-1.55,6.6c-.05.37-.09.75-.13,1.15a12.05,12.05,0,0,0,5.24,4,1.91,1.91,0,0,1,.45.23l3.33,2.06a21,21,0,0,0,3.63,1.68,4.29,4.29,0,0,0,.57.09l-.26-.95c-.35-1.5-.81-3-1.05-4.51a44.27,44.27,0,0,1,3.37-25.63c.84-1.88,1.83-3.69,2.79-5.51,1.42-2.66,2.75-5.37,3.9-8.16a6,6,0,0,1,.4-.7,9.7,9.7,0,0,1-.33,1.17,80.12,80.12,0,0,1-3.75,7.89c-.72,1.36-1.45,2.72-2.13,4.11a44.35,44.35,0,0,0-4.53,18.75,38.66,38.66,0,0,0,1.72,12.78c.12.36.25.7.38,1.07a11.79,11.79,0,0,0,6,.2,5.6,5.6,0,0,0,.87-.3,1.42,1.42,0,0,0,.92-1.64,6.74,6.74,0,0,0-.33-1.08c-.34-.86-.68-1.73-1.06-2.57a40.41,40.41,0,0,1-3.57-14.49,25.16,25.16,0,0,1,0-2.88,7.41,7.41,0,0,1,.33-1.81,3.33,3.33,0,0,1,2.49-2.37c.19-.05.37-.13.6-.21,0-.17,0-.3,0-.44a31.56,31.56,0,0,1,1.27-7.28c.39-1.35.79-2.7,1.18-4a32.09,32.09,0,0,0,1.25-6.87,4.26,4.26,0,0,1,.16-.79,8.39,8.39,0,0,1,.06,1A29,29,0,0,1,58,139.15c-.42,1.48-.87,3-1.29,4.45a31.41,31.41,0,0,0-1.18,6.46,2.75,2.75,0,0,0,0,1.14l.5.14a5,5,0,0,1,2.92,2,10.14,10.14,0,0,1,1.51,3.25c.11.38.22.76.34,1.14a1,1,0,0,0,.18-.6c0-3,.13-6,.1-9,0-4-.15-8-.28-12a23.53,23.53,0,0,0-1.1-6.16,3.41,3.41,0,0,0-.33-.56,3.22,3.22,0,0,0-.2,1.22C59.11,131,59.05,131.35,59,131.71Zm58.17-35.17-1,0-1.22.93c-.4.31-.82.62-1.22.94a4.55,4.55,0,0,0-1.18,1.08c1.14.39,2.21.73,3.25,1.13s2,.81,3,1.25,2.06,1,3.07,1.45,2,1,2.92,1.52h.2a17.94,17.94,0,0,1,7.32-.61,1,1,0,0,0,.37-.08,2.12,2.12,0,0,0-.18-.22l-.58-.42a42.28,42.28,0,0,0-14.33-6.74,2.67,2.67,0,0,1-.46-.2,8.06,8.06,0,0,1,1.1.13,38.34,38.34,0,0,1,8.89,3.47,60.91,60.91,0,0,1,6.07,3.85,4.26,4.26,0,0,0,1.37.67,28.19,28.19,0,0,1,4.62,1.72,83.86,83.86,0,0,1,7.75,4,70.26,70.26,0,0,0,7.67,4,38.35,38.35,0,0,0,9.11,2.83,20,20,0,0,0,3.79.34,7.62,7.62,0,0,0,4.43-1.43c1.1-.81,2.19-1.65,3.22-2.55a9.76,9.76,0,0,0,2.23-2.68,2.75,2.75,0,0,0,.15-.55h-.27a3.43,3.43,0,0,0-.48.19,21.47,21.47,0,0,1-9.88,2,38.22,38.22,0,0,1-11.42-1.94,67.69,67.69,0,0,1-8.37-3.42c-4.73-2.27-9.31-4.83-13.79-7.55-2.05-1.24-4.1-2.49-6.18-3.68a23.84,23.84,0,0,0-5.7-2.34c-.36-.1-.73-.16-1-.23a18.47,18.47,0,0,0-3.6,2.79Zm13.32-9a8.29,8.29,0,0,1,1,.21,42.64,42.64,0,0,1,7,3c2.19,1.2,4.32,2.52,6.38,3.93.33.23.62.57,1.05.59a10.77,10.77,0,0,1,.55-1.66,11.78,11.78,0,0,1,1.08-1.51,39.88,39.88,0,0,0-14-7.9,8.48,8.48,0,0,0-2.16,1.29,8.23,8.23,0,0,0-2,1.45l1.14.57-1.65-.29a16.71,16.71,0,0,0-4,3l.16.26-.81.07c-2.09,1.33-2.85,1.92-3.29,2.53,0,0,0,.07,0,.08a4,4,0,0,0,.58.21,24.33,24.33,0,0,1,5.71,2.28q2,1.13,4,2.34c4.75,2.93,9.58,5.73,14.6,8.21a71.38,71.38,0,0,0,9.85,4.12,37.63,37.63,0,0,0,12,1.89,21.51,21.51,0,0,0,9.61-2.29c.15-.08.29-.17.49-.3,0-.54,0-1.09,0-1.63s0-1,0-1.54a6.16,6.16,0,0,0,.05-1.67c-.29.07-.56.12-.82.2a31.41,31.41,0,0,1-5.84,1.14,47.69,47.69,0,0,1-29.9-6.59c-2.32-1.4-4.54-2.95-6.8-4.44a33.66,33.66,0,0,0-7.84-4,3.28,3.28,0,0,1-.43-.26,1.62,1.62,0,0,1,1.08.21,24.63,24.63,0,0,1,4.57,2.12c1.55,1,3.07,1.93,4.58,2.94a78.19,78.19,0,0,0,7.61,4.7A48,48,0,0,0,170,106a32.1,32.1,0,0,0,6.68-1.15c.46-.13.91-.29,1.38-.44.08-.38.16-.71.24-1a20.44,20.44,0,0,1,1.3-3.79c.09-.2.26-.43,0-.66a6.43,6.43,0,0,0-1.85.54,32.55,32.55,0,0,1-7.49,1.77,72.23,72.23,0,0,1-11.39.49,35,35,0,0,1-6.53-.82,13.5,13.5,0,0,1-3.27-1.2,6,6,0,0,1-2.43-2.31,14,14,0,0,1-.65-1.41s-.08-.08-.14-.12A56.63,56.63,0,0,0,131.49,88,10.23,10.23,0,0,1,130.48,87.57Zm-37.4,26.62-1-.06c-.6.36-1.2.69-1.77,1.06s-1.24.53-1.69,1.15c2,.65,3.86,1.2,5.71,1.9s3.63,1.45,5.39,2.3,3.53,1.82,5.23,2.85,3.32,2.17,4.81,3.16c1.17,0,2.16,0,3.14.12s2,.35,2.92.54c0-.09,0-.13,0-.15a5.05,5.05,0,0,0-.6-.53c-3.16-2.24-6.36-4.42-9.67-6.43a54.92,54.92,0,0,0-12.06-5.68,3.18,3.18,0,0,1-.44-.24,10,10,0,0,1,1.09.2,48.81,48.81,0,0,1,9.64,4.34,147.91,147.91,0,0,1,12.87,8.47,6.45,6.45,0,0,0,1.53.82c1.7.65,3.4,1.29,5.07,2,3.92,1.67,7.66,3.69,11.39,5.74s7.29,4,11.09,5.63a45.14,45.14,0,0,0,6.95,2.54c1.39.36,2.81.64,4.23.87a5.91,5.91,0,0,0,3.59-.64,2.16,2.16,0,0,0,1.28-1.84c-.29-.06-.52-.12-.76-.16a56.14,56.14,0,0,1-12.12-3.53,116.92,116.92,0,0,1-12-5.85c-5-2.76-9.88-5.77-14.76-8.76a135.23,135.23,0,0,0-18.2-9.54,41.11,41.11,0,0,0-6.21-2.16,5.59,5.59,0,0,1-.57-.22,8.26,8.26,0,0,1,1,.1,40.33,40.33,0,0,1,6.49,2.29,133.45,133.45,0,0,1,17.83,9.38c5.16,3.18,10.33,6.36,15.67,9.24a103.58,103.58,0,0,0,13,6.08,54.55,54.55,0,0,0,9.62,2.62,2.43,2.43,0,0,0,1.23,0,8,8,0,0,0,.25-.79c.18-.83.34-1.68.53-2.51a8,8,0,0,1,1.69-3.6,2.17,2.17,0,0,0,.21-.41c-.33-.08-.58-.16-.84-.2a93.22,93.22,0,0,1-12.25-2.68,125.37,125.37,0,0,1-13.66-4.87c-9.68-4-19.19-8.32-28.6-12.89a80.16,80.16,0,0,0-9.33-4.05,2,2,0,0,1-.34-.22,11.82,11.82,0,0,1,1.18.26,67.6,67.6,0,0,1,7.38,3.15c7.53,3.64,15.11,7.19,22.79,10.5,4.45,1.91,8.9,3.79,13.44,5.46a99.59,99.59,0,0,0,19,5c.57.09,1.15.15,1.72.22.3-.15.58-.28.85-.44a7.82,7.82,0,0,1,3.52-1,24.36,24.36,0,0,1,3.08,0c1.12.09,2.24.3,3.36.45.82.1,1.64.21,2.46.25a10.23,10.23,0,0,0,5.18-1.07,4.13,4.13,0,0,0,1.08-.76,5.08,5.08,0,0,0,1.44-2.9,11.57,11.57,0,0,0-.18-4.19,2.53,2.53,0,0,0-.27-.55c-.81.27-1.54.54-2.29.77a49.5,49.5,0,0,1-9.18,1.79,101.42,101.42,0,0,1-19.94.09,73.41,73.41,0,0,1-26.08-7c-3.42-1.66-6.74-3.52-10-5.47a112.77,112.77,0,0,0-12.73-6.48c-.79-.34-1.59-.64-2.31-.93a15.29,15.29,0,0,0-3.59,2.66l.15.27h-.78c-.48.32-.93.63-1.4.92-.93.59-.93.59-1.26,1.1l.91.42-1.57-.19-2.92,1.86Zm-28.46,14.3-1-.64a1.9,1.9,0,0,0-1.09.49c.9,1.15,1.81,2.25,2.64,3.41s1.63,2.38,2.38,3.61,1.45,2.48,2.11,3.76,1.29,2.64,1.85,4,1,2.69,1.43,4.07.78,2.75,1.18,4.17a3.74,3.74,0,0,1,2.82,1.1l.08.07a25.55,25.55,0,0,1,4.27,4.84,67.87,67.87,0,0,1,3.54,5.91c.27.49.55,1,.83,1.46a6.78,6.78,0,0,0-.53-1.67c-3.18-7.21-6.59-14.3-10.44-21.18a58,58,0,0,0-4.93-7.46c-1-1.27-2.07-2.47-3.12-3.69-.68-.77-1.38-1.52-2.07-2.27a1.22,1.22,0,0,1,.34.18,45.56,45.56,0,0,1,4.78,5.24c1,1.3,2,2.64,2.86,4,1.17,1.81,2.31,3.65,3.34,5.54,1.41,2.59,2.74,5.22,4.06,7.86,2.59,5.17,5.05,10.42,7.2,15.8.35.85.69,1.72,1.12,2.53a50.32,50.32,0,0,0,6.33,9.23,42.12,42.12,0,0,0,3.67,3.89,19.48,19.48,0,0,0,13.61,5.43c1.27,0,2.54,0,3.81,0,.14,0,.35.07.38-.23-.14-.07-.28-.17-.43-.24a36.65,36.65,0,0,1-6-3.6,57.75,57.75,0,0,1-12.49-12,98.86,98.86,0,0,1-6.4-9.94c-2.08-3.59-4.13-7.19-6.21-10.78-2-3.44-4-6.88-6-10.3a43.06,43.06,0,0,0-4.27-6c-.9-1-1.84-2-2.77-3.05a53.22,53.22,0,0,0-5-4.76,4,4,0,0,0-.6-.36c-.48.18-.94.33-1.38.51a2.93,2.93,0,0,0-.45.3.62.62,0,0,0,.07.17ZM63.54,6.87c-.07-.33-.15-.65-.25-1a34.46,34.46,0,0,0-5.47.52c-.06.23-.11.42-.15.62l-.33-.43a3.6,3.6,0,0,0-1.74,1,13,13,0,0,0-2.12,2.77,30.34,30.34,0,0,0-4.4,15.35,50.78,50.78,0,0,0,.36,6.16c.47,4.34,1.27,8.62,2.12,12.89,1.58,7.87,3.12,15.75,4.39,23.67.41,2.54.77,5.09.95,7.66a22.76,22.76,0,0,1-.09,4.52A13.52,13.52,0,0,1,56.53,82a.66.66,0,0,1-.6.53,1.64,1.64,0,0,1-1.07-.68c-.68-.78-1.36-1.55-2-2.35a43.65,43.65,0,0,1-3.5-4.83c-.82-1.35-1.67-2.68-2.41-4.07a53.77,53.77,0,0,1-4.35-11.3,46.33,46.33,0,0,1-.54-23.81c.38-1.53.72-3.08,1.07-4.62q.74-3.32,1.46-6.63a25.78,25.78,0,0,0,.32-8.8,20.71,20.71,0,0,0-.62-2.81A4.76,4.76,0,0,0,43,10.53a2.65,2.65,0,0,0-.57-.31,5.7,5.7,0,0,0-.06.58,39.31,39.31,0,0,1-.73,8.6,17.92,17.92,0,0,1-4.54,9.31c-.61.64-1.26,1.25-2,2,0,.28,0,.66,0,1a64.86,64.86,0,0,0,.57,19.07,38.88,38.88,0,0,0,3.53,10.7,70,70,0,0,0,4.12,7.12,87.45,87.45,0,0,0,5.79,8,107.06,107.06,0,0,1,7,9.55A52.92,52.92,0,0,1,60.7,95a62.94,62.94,0,0,1,4.68,18.89c.22,2.8.31,5.62.47,8.42,0,.34-.09.69.16,1l.41-.15c0-.18,0-.35,0-.52,0-2,.14-4,.12-6.07a74.24,74.24,0,0,0-1.67-14.49c-1.4-6.65-2.87-13.28-4.3-19.91-.72-3.35-1.52-6.69-2.13-10.06a136.13,136.13,0,0,1-1.78-35.37c.54-6.6,1.06-13.2,1.09-19.83a3,3,0,0,1,.12-.58,10,10,0,0,1,.12,1.1c-.07,2.57-.1,5.15-.25,7.72-.26,4.48-.58,9-.9,13.45A132.08,132.08,0,0,0,59.12,74c1.32,6.66,2.89,13.27,4.32,19.91.82,3.82,1.63,7.65,2.33,11.49a71.86,71.86,0,0,1,1,16.5,2,2,0,0,0,.07,1.13,2.16,2.16,0,0,0,1.21-.48,3,3,0,0,0,.11-.31q.14-.77.24-1.53a71.16,71.16,0,0,0-.62-24.57C66.89,91.7,66,87.3,65,82.92c-1.27-5.73-2.57-11.44-3.61-17.22a84.35,84.35,0,0,1-.32-29.39c.26-1.48.48-3,.71-4.47A118.34,118.34,0,0,0,63.52,9.29a4.08,4.08,0,0,1,.09-.69,6.74,6.74,0,0,1,.14,1c0,1.41,0,2.82,0,4.22a109.74,109.74,0,0,1-1.34,15.47c-.39,2.68-.81,5.36-1.23,8a81,81,0,0,0,0,25.1c.71,4.68,1.61,9.33,2.65,13.94,1.47,6.49,3,13,4.22,19.5a72.12,72.12,0,0,1,1.43,15.44,78.86,78.86,0,0,1-.84,9.94,1.61,1.61,0,0,0,0,1.08A22.54,22.54,0,0,0,71.74,121c.06-.22.12-.38.15-.55.19-1.36.4-2.71.56-4.08a57.16,57.16,0,0,0-.25-15.89q-.77-4.72-1.93-9.36C69,86.05,67.68,81,66.42,76a93.18,93.18,0,0,1-2.35-12.73,81.32,81.32,0,0,1,1.36-25.38c1.09-5.17,2.4-10.29,3.73-15.4,1.07-4.12,2.23-8.21,2.94-12.42a3.19,3.19,0,0,1,.21-.56,10.34,10.34,0,0,1-.07,1.11c-.48,2.88-1.19,5.7-1.91,8.53q-1.92,7.53-3.78,15.07a93.92,93.92,0,0,0-1.82,9.4A78.68,78.68,0,0,0,66,72.7c1,4.21,2.07,8.39,3.14,12.57S71.2,93.37,72,97.48a59.35,59.35,0,0,1,1.19,13.09,77.49,77.49,0,0,1-.85,9.12,1.48,1.48,0,0,0,0,1A17.57,17.57,0,0,0,75,119.58a15,15,0,0,0,2.56-1.29c0-.38,0-.72,0-1.06,0-1.82,0-3.64-.12-5.46a122.42,122.42,0,0,0-2-15.39,82.9,82.9,0,0,0-3.07-11.73,17.3,17.3,0,0,0-2.23-4.84,3.15,3.15,0,0,1-.28-.55A30,30,0,0,1,68,73.41,60.28,60.28,0,0,1,66.4,60.16a96.24,96.24,0,0,1,1.22-16.61,151.31,151.31,0,0,1,4.63-19.94C73.1,20.79,74,18,74.84,15.15c.45-1.55.85-3.11,1.22-4.68A11.91,11.91,0,0,0,76.35,7a8.84,8.84,0,0,0-.94-3.56,2.25,2.25,0,0,0-1-1,1,1,0,0,0-1.15,0c-.07.35-.12.69-.18,1-.07-.31-.14-.63-.21-1a21.35,21.35,0,0,0-3,1.44,18.78,18.78,0,0,1-3,1.19c-1,.27-2.11.5-3.15.75C63.65,6.21,63.6,6.54,63.54,6.87Zm-49,57.22c0-.3,0-.61.05-1a35.91,35.91,0,0,0-3-6.25,4.08,4.08,0,0,0-.41-.45c-.24.32-.44.59-.63.86.13-.45.25-.9.39-1.38-.32-.45-.58-.94-1.3-1a5.57,5.57,0,0,0-.79.54c-.6.56-1.21,1.11-1.75,1.72a21.42,21.42,0,0,0-3.61,6.31,2.13,2.13,0,0,0-.11,1.41A16.33,16.33,0,0,0,4,66.93c.55,1.29,1.17,2.55,1.77,3.81.07.14.09.36.33.3,0,0,.06-.05.07-.08.07-.33.14-.67.2-1A46.51,46.51,0,0,1,10,58.2a9.38,9.38,0,0,1,.56-1,10,10,0,0,1-.34,1.06A50.12,50.12,0,0,0,6.59,70.58a5.28,5.28,0,0,0,.23,2.81,19.11,19.11,0,0,1,1,9.82c-.22,1.39-.55,2.76-.86,4.13a3.4,3.4,0,0,0-.07,1.42,35.88,35.88,0,0,0,4.54,12.38,30.16,30.16,0,0,0,7.36,8.23,33.55,33.55,0,0,0,10,5.17c2.15.71,4.33,1.32,6.49,2s4.18,1.32,6.26,2a29.4,29.4,0,0,1,10.35,6.17A6,6,0,0,0,55,125.87a.84.84,0,0,0-.25-.63c-.57-.63-1.13-1.29-1.74-1.89a32.86,32.86,0,0,0-5.77-4.45c-2.7-1.69-5.55-3.13-8.37-4.6-1.95-1-3.89-2-5.8-3.13a35.65,35.65,0,0,1-9-7.25A43.65,43.65,0,0,1,13.15,71.37a31.33,31.33,0,0,1,.71-5.09,9.11,9.11,0,0,1,.35-1c0,.24,0,.48,0,.71a41.65,41.65,0,0,0-.76,11.36,42.71,42.71,0,0,0,10.62,26,35.72,35.72,0,0,0,7.44,6.44c2.44,1.61,5.05,2.9,7.63,4.26s5,2.62,7.41,4a28.69,28.69,0,0,1,9,7.67,2.1,2.1,0,0,0,1.4.78.87.87,0,0,0,.91-.34A19.65,19.65,0,0,0,56,123.07a40.75,40.75,0,0,0-8.53-9.29c-2.06-1.64-4.17-3.22-6.26-4.84A60.88,60.88,0,0,1,28.52,95.87a35.74,35.74,0,0,1-3.79-6.81,28.21,28.21,0,0,1-2-7.64,4.61,4.61,0,0,0-.52-1.65c-1-1.81-1.95-3.62-2.8-5.49C18,71.19,16.69,68.07,15.33,65c-.14-.34-.3-.67-.45-1Zm66.26,57.12a7.67,7.67,0,0,1,1.08.23,36.25,36.25,0,0,1,10.3,5.5c2.57,1.95,5.09,3.95,7.64,5.92a89.41,89.41,0,0,0,12.62,8.29,118.43,118.43,0,0,0,20.44,8.37,87.89,87.89,0,0,0,17.81,3.66,39.73,39.73,0,0,0,10.67-.33,29.18,29.18,0,0,0,10.37-3.78,4.6,4.6,0,0,0,.54-.45,14.79,14.79,0,0,0-1.73-4.1,9.73,9.73,0,0,0-1.76-2.27,3.43,3.43,0,0,0-.6-.38c-.42.44-.78.85-1.17,1.23a9.3,9.3,0,0,1-5.57,2.41c-2.79.3-5.59.6-8.39.82a66.71,66.71,0,0,1-13-.1c-1.6-.19-3.19-.46-4.78-.74-.94-.16-1.87-.41-2.81-.62-1.54-.35-3.08-.69-4.62-1.06a64.46,64.46,0,0,1-7.18-2.17,27.47,27.47,0,0,1-7-3.73,36.9,36.9,0,0,1-3.73-3.23,8.61,8.61,0,0,1-2.83-4.73c-5.57-4-19.64-9.83-25-10.33a18.81,18.81,0,0,0-2.09,1.11l.7.48-1.39-.2a7.33,7.33,0,0,0-1.78,1l.79.51L77,122.2l-1.9.86a1,1,0,0,0-.21.2c.13.37.48.39.74.51a40.37,40.37,0,0,1,5.79,3.13,80,80,0,0,1,15.7,14c1,1.09,1.89,2.18,2.84,3.26a15.41,15.41,0,0,0,3.95,3.56l.08.07c2.19,1.59,4.2,3.41,6.26,5.17,3,2.59,6.08,5.13,9.31,7.45a64.17,64.17,0,0,0,12.77,7.25,48.29,48.29,0,0,0,7.12,2.36,32.46,32.46,0,0,0,5.8.85,19.22,19.22,0,0,0,6.31-.69,3.86,3.86,0,0,0,2.38-1.68,11.55,11.55,0,0,1,2.65-2.84,23.8,23.8,0,0,1,4.48-2.72c.22-.12.44-.27.74-.45a1.87,1.87,0,0,0-1.12-.1,50.77,50.77,0,0,1-7.4-.12,59.82,59.82,0,0,1-13.37-2.81A123.07,123.07,0,0,1,120,150.74a104.63,104.63,0,0,1-16.33-10.67c-2.8-2.26-5.54-4.6-8.28-6.93A64.47,64.47,0,0,0,79,122.87a4.22,4.22,0,0,1-.6-.37,7.76,7.76,0,0,1,1.07.32A61.84,61.84,0,0,1,89.05,128a92.24,92.24,0,0,1,9,7c2.79,2.39,5.57,4.78,8.53,6.94a124.82,124.82,0,0,0,33,17.1,58.67,58.67,0,0,0,12.22,2.78,48.87,48.87,0,0,0,10.47.13,4,4,0,0,0,1.29-.3c1.23-.6,2.48-1.19,3.65-1.91a12.69,12.69,0,0,0,4.66-4.82,5.89,5.89,0,0,0,.71-2.35,10.71,10.71,0,0,0-.1-2.77,4.61,4.61,0,0,0-.19-.62,4.21,4.21,0,0,0-.61.25,25.31,25.31,0,0,1-5.11,2.39,35.86,35.86,0,0,1-14.09,1.83,75.54,75.54,0,0,1-11.3-1.6,114.63,114.63,0,0,1-20.35-6.54A86.09,86.09,0,0,1,102.16,135c-2.88-2.16-5.72-4.37-8.55-6.6a41.25,41.25,0,0,0-12.31-6.9A2.73,2.73,0,0,1,80.77,121.21ZM121.18,17.43a1.75,1.75,0,0,1-.08,1.11,55.07,55.07,0,0,1-1.77,6.55c-.92,2.8-1.87,5.6-2.76,8.41-1.47,4.65-3.18,9.21-5,13.71q-1.64,4-3.19,8a40.74,40.74,0,0,0-1.75,5.49A62.46,62.46,0,0,0,105,75.53c0,1.79,0,3.57,0,5.35a48.3,48.3,0,0,1-.58,7.69,93.56,93.56,0,0,1-3.34,15.06c-.06.18-.19.38.08.59a5.21,5.21,0,0,0,.49-.29c.72-.53,1.42-1.09,2.14-1.61a2.38,2.38,0,0,0,.85-1.13A41,41,0,0,0,107,93.53a49.65,49.65,0,0,0,.92-9.73c0-3.39-.23-6.78-.5-10.17-.13-1.67-.23-3.35-.28-5a23.34,23.34,0,0,1,1.27-8.2A34.61,34.61,0,0,1,110.76,55a65.93,65.93,0,0,1,5-7.75c2-2.71,4.21-5.24,6.34-7.84q6.61-8.07,13.15-16.21a36.47,36.47,0,0,0,4-5.88,1.56,1.56,0,0,0,.34-1,4.65,4.65,0,0,0-.38-.29,25.45,25.45,0,0,0-6.34-2.9,11.15,11.15,0,0,0-2.21-.47,15.87,15.87,0,0,0-8.12,1.38,8.32,8.32,0,0,0-.81.46c-.09.67-.16,1.32-.27,2-.06.33-.19.64-.28,1,0-.54.11-1.08.15-1.62,0-.34.2-.67,0-1-.18.09-.37.16-.54.26a23,23,0,0,0-4.44,3.32,24.65,24.65,0,0,0-4.75,6.43,34.78,34.78,0,0,0-4.06,13.71c-.19,2.57-.34,5.14-.5,7.71A117,117,0,0,1,105.75,59a76.93,76.93,0,0,1-2.14,10.06,24.44,24.44,0,0,1-2.78,6.27,4.3,4.3,0,0,0-.26.48c0,.33,0,.67.05,1,.07,1.13.17,2.26.22,3.39a83.43,83.43,0,0,1-1,16.1c-.46,3.06-1.07,6.08-1.81,9.08a1.69,1.69,0,0,0-.11,1.06,15.76,15.76,0,0,0,2.22-1.52,1.38,1.38,0,0,0,.32-.52c.12-.29.2-.58.3-.88a82.39,82.39,0,0,0,2.84-11.9,58.07,58.07,0,0,0,1.08-10c0-1.23,0-2.47,0-3.7a75.59,75.59,0,0,1,.15-7.82,51.74,51.74,0,0,1,2.67-13.49q1.4-3.81,2.93-7.58c1.74-4.25,3.49-8.5,4.93-12.87q1.89-5.71,3.77-11.44a59.2,59.2,0,0,0,1.78-6.55A7.66,7.66,0,0,1,121.18,17.43ZM107.28,1.66c0-.33,0-.65,0-1a2.11,2.11,0,0,0-1.16-.06c-1.46.18-2.92.36-4.37.59A12.45,12.45,0,0,1,97,1.2a2.54,2.54,0,0,0-.55,0c-.13.67-.25,1.27-.37,1.86,0-.64,0-1.28,0-2A10.85,10.85,0,0,0,86.6,3.3c0,1.25,0,2.45.05,3.65a71.32,71.32,0,0,1-1.34,16c-.81,4.14-1.62,8.28-2.5,12.41-1.25,5.87-2.34,11.78-3.07,17.74C79,59.2,78.4,65.35,78.21,71.53a133.28,133.28,0,0,0,1.14,21Q80,98,80.63,103.4a35.2,35.2,0,0,1,0,7.61c-.2,1.77-.47,3.53-.7,5.3,0,.25-.19.53.09.74a31.81,31.81,0,0,0,5.84-3.16c0-.19,0-.54,0-.88a60,60,0,0,0,0-16c-.65-4.72-1.34-9.44-2-14.15a96.42,96.42,0,0,1-1.12-16.1,124.73,124.73,0,0,1,5.78-35.13c1.13-3.52,2.3-7,3.47-10.56A77,77,0,0,0,95.78,4.64a8.16,8.16,0,0,1,.28-1.08C96,4,96,4.38,96,4.79a67.53,67.53,0,0,1-3,14.27c-1.14,3.56-2.32,7.11-3.48,10.66a121.46,121.46,0,0,0-4.74,19.17,143.56,143.56,0,0,0-1.6,15.76,99.35,99.35,0,0,0,1.17,18.87c.67,4.58,1.34,9.16,2,13.75a56.27,56.27,0,0,1,.26,12.84c-.1,1-.23,2-.33,3.07a3.11,3.11,0,0,0,.06.59A30.46,30.46,0,0,0,91,111.05c.06-.42.14-.89.19-1.37a63.13,63.13,0,0,0-.67-16.81c-.4-2.4-.88-4.79-1.38-7.17a106.33,106.33,0,0,1-2.2-21.57,62.48,62.48,0,0,1,2-16.61,84,84,0,0,1,2.86-8.59c1.75-4.54,3.66-9,5.66-13.47,2.33-5.15,4.68-10.3,6.81-15.55a72.48,72.48,0,0,0,2.82-7.84,2.08,2.08,0,0,1,.22-.45,7.74,7.74,0,0,1-.17,1.09c-.6,1.79-1.14,3.6-1.86,5.34-1.67,4.1-3.41,8.17-5.16,12.23-2,4.59-4.06,9.15-6,13.75-1.56,3.66-3,7.38-4.17,11.18a56.1,56.1,0,0,0-2.38,12.3,100.16,100.16,0,0,0,1.35,25.11c.59,3.34,1.34,6.65,1.92,10a62.85,62.85,0,0,1,.68,17.32c0,.23,0,.47,0,.76a1.76,1.76,0,0,0,.44-.09c.91-.6,1.89-1.11,2.84-1.86,0-.27,0-.58,0-.89.17-3.22.42-6.43.52-9.66a64.38,64.38,0,0,0-2.49-19.41c-.18-.65-.49-1.27-.73-1.91s-.45-1.08-.61-1.63a18.87,18.87,0,0,1-.67-3.95A46.82,46.82,0,0,1,90.88,65c.13-1.71.29-3.42.44-5.13a95.44,95.44,0,0,1,1.34-9.68A71.86,71.86,0,0,1,100,28.9c1.17-2.14,2.4-4.24,3.67-6.31q3.51-5.7,6.65-11.6a25.36,25.36,0,0,0,2.17-5.76,5.74,5.74,0,0,0,.21-1.42,2.5,2.5,0,0,0-1.58-2.53,8.38,8.38,0,0,0-2.79-.67,4.26,4.26,0,0,0-.64.05Zm-21,1.88a7.13,7.13,0,0,0-.8.54A17.22,17.22,0,0,0,81.91,8.3,46.61,46.61,0,0,0,77.11,20a100.68,100.68,0,0,0-2.74,15.6q-.44,5-.59,10c-.22,7.79-.19,15.58-.24,23.37,0,3.39-.18,6.79-.29,10.18,0,.55-.08,1.1-.14,1.64a1,1,0,0,1-.67.91l-.89,0c.13.36.24.64.34.93.6,1.71,1.28,3.41,1.78,5.15a108.93,108.93,0,0,1,4.22,29.65,7.35,7.35,0,0,0,.09.79l1.4-.68c.07-.24.13-.41.16-.57a45.81,45.81,0,0,0,.75-13.82c-.4-3.41-.78-6.82-1.22-10.22a129.73,129.73,0,0,1-1.15-21.66A201.73,201.73,0,0,1,82.15,37c1-4.66,1.92-9.34,2.84-14a71.23,71.23,0,0,0,1.4-15.76c0-.89,0-1.79,0-2.68C86.37,4.27,86.33,4,86.29,3.54ZM105.14,101l.17.12c.22-.15.45-.29.66-.45.9-.69,1.77-1.41,2.69-2.07a3,3,0,0,0,1.24-1.91A45.72,45.72,0,0,0,111,83.38c-.15-2.39-.41-4.78-.6-7.17-.13-1.74-.29-3.49-.34-5.23a20.54,20.54,0,0,1,3.23-11.73,53,53,0,0,1,6.88-8.56c2-2.09,4.12-4.11,6.23-6.13,2.69-2.59,5.42-5.14,8.15-7.7,2.35-2.2,4.66-4.45,6.81-6.84a48.56,48.56,0,0,0,7-10c.17-.33.32-.67.46-1a1.92,1.92,0,0,0-1.61-1.22,11.24,11.24,0,0,0-1.64-.05c-.72,0-1.44.09-2.16.11a4.12,4.12,0,0,1-2.79-.85c-.22-.16-.42-.37-.77-.3-.13.21-.28.43-.4.67a33.32,33.32,0,0,1-3.3,5.09c-1.68,2.13-3.38,4.23-5.07,6.34-3.29,4.13-6.57,8.26-10,12.27a102.08,102.08,0,0,0-7.22,9.35,45.19,45.19,0,0,0-4.64,8.46,24.23,24.23,0,0,0-1.82,10.16c.07,1.57.2,3.14.28,4.72.17,3.05.4,6.09.47,9.14a44.46,44.46,0,0,1-2.85,17.35C105.25,100.53,105.21,100.75,105.14,101ZM63,124.53c0-.39,0-.76-.07-1.13a79.22,79.22,0,0,0-1.21-8.25A81.12,81.12,0,0,0,55.1,95.29c-1.27-2.62-2.54-5.24-4-7.77a79.85,79.85,0,0,0-5.43-8.13c-1.33-1.78-2.71-3.54-4-5.34-1.15-1.58-2.29-3.17-3.37-4.8a72.92,72.92,0,0,1-5-9,93.62,93.62,0,0,1-7.65-23.71c0-.22-.13-.44-.2-.68a1.7,1.7,0,0,0-.45.07c-1.21.47-2.44.91-3.63,1.44a9.12,9.12,0,0,0-3.78,3.24,6.52,6.52,0,0,0-1,2.34,2.42,2.42,0,0,0,.09,1.41c.31.77.58,1.54.91,2.3A75.93,75.93,0,0,0,25.65,61q2.79,3.9,5.89,7.54c2.1,2.46,4.16,4.94,6.21,7.42C40.3,79,42.87,82,45.19,85.26c.22.3.44.61.65.93,1.19,1.84,2.4,3.67,3.55,5.54q1.5,2.46,2.88,5a86.39,86.39,0,0,1,4.2,9.37,70.81,70.81,0,0,1,4,13.81c.25,1.46.54,2.9.81,4.35,0,.26.14.51.22.79a5.35,5.35,0,0,0,.66-.16C62.4,124.79,62.64,124.67,63,124.53ZM25.75,35.67c.07.51.12.91.19,1.31A84.46,84.46,0,0,0,29.1,49.11,83,83,0,0,0,41.93,73.92c2.72,3.57,5.47,7.13,7.89,10.92.77,1.22,1.53,2.44,2.2,3.71,1.16,2.18,2.27,4.39,3.34,6.61a77.5,77.5,0,0,1,4.71,12.15,87.84,87.84,0,0,1,3.12,16.14c0,.29,0,.62.28.91.32-.11.68-.21,1-.35a2.39,2.39,0,0,0,1-.54c0-.34,0-.72,0-1.09-.05-1.54-.1-3.09-.18-4.63a64.21,64.21,0,0,0-4-20.09,59,59,0,0,0-3.2-7.34,74.69,74.69,0,0,0-6-9.22c-1.28-1.7-2.59-3.37-3.91-5a88.75,88.75,0,0,1-8.8-13.27A39.54,39.54,0,0,1,35.8,53a63.92,63.92,0,0,1-1.28-18.51c.06-1,.19-1.91.28-2.86a4.17,4.17,0,0,0-.06-.7A34.7,34.7,0,0,1,25.75,35.67Zm35.32,89.59c0-.37,0-.64-.09-.9q-.28-1.62-.6-3.24a75.59,75.59,0,0,0-1.81-8,87.64,87.64,0,0,0-8.41-19.49c-1.42-2.35-2.86-4.69-4.38-7a105.3,105.3,0,0,0-6.6-8.56c-3-3.67-6.13-7.3-9.14-11a92.24,92.24,0,0,1-8.16-11.36,70.28,70.28,0,0,1-5-10c-.11-.31-.12-.69-.49-.87-.3.26-.23.62-.26,1a21.3,21.3,0,0,0,1,8.82,47.67,47.67,0,0,0,5.55,11,88.24,88.24,0,0,0,7.91,9.86c2,2.32,4.06,4.66,6,7.09a44.72,44.72,0,0,1,3.56,5.17,12.4,12.4,0,0,1,1.59,3.77,4.12,4.12,0,0,0,.9,1.81,86.93,86.93,0,0,1,6.07,8.55,91.48,91.48,0,0,1,4.72,8.78,140.83,140.83,0,0,1,6,14.41,6.14,6.14,0,0,0,.36.63Zm7.09.84a6.31,6.31,0,0,0,.48.5,61.14,61.14,0,0,1,8,7.64c2.19,2.36,4.27,4.83,6.26,7.37,2.3,2.95,4.46,6,6.58,9.08,1.25,1.81,2.45,3.65,3.73,5.44a117.45,117.45,0,0,0,8.13,10.35c1.49,1.66,3,3.3,4.53,4.92a70.75,70.75,0,0,0,8.28,7.38,46.73,46.73,0,0,0,13.62,7.33c.38.13.78.23,1.11.33a2.08,2.08,0,0,0,.36-.14,24.47,24.47,0,0,0,3.75-2.89,9.53,9.53,0,0,0,2.5-3.72,4.2,4.2,0,0,0,.12-.66,1.07,1.07,0,0,0-.22-.14c-.62-.19-1.25-.38-1.88-.55A77.55,77.55,0,0,1,114.24,170a63.55,63.55,0,0,1-13.11-10.19c-2.33-2.38-4.46-4.94-6.58-7.51C91.74,148.9,89,145.45,86.16,142a127,127,0,0,0-9.77-10.71A48.93,48.93,0,0,0,69.87,126c-.2-.13-.42-.23-.65-.36Zm60.18,60.63a6.07,6.07,0,0,0-.67-.34l-2.13-.78a50.19,50.19,0,0,1-13.74-8.34,82.86,82.86,0,0,1-7.75-7.36c-2.22-2.39-4.35-4.84-6.39-7.39-3.28-4.1-6.24-8.44-9.18-12.79A142.17,142.17,0,0,0,79.61,138c-.81-1-1.65-1.92-2.51-2.85-1.16-1.27-2.34-2.51-3.53-3.75a50.74,50.74,0,0,0-5.33-4.82,2.58,2.58,0,0,0-.5-.29,3.05,3.05,0,0,0-1.3.56c.21.21.36.38.53.53a61.66,61.66,0,0,1,6.66,6.57,65.42,65.42,0,0,1,7.46,10.82l4.41,7.67c1.44,2.49,2.91,5,4.32,7.47,1.92,3.41,3.9,6.77,6.09,10a51.47,51.47,0,0,0,6,7.21,61.11,61.11,0,0,0,7.9,6.72,35.48,35.48,0,0,0,7.29,4.2,5.9,5.9,0,0,0,1.47.43c1.09.12,2.19.19,3.29.22a11.77,11.77,0,0,0,5.83-1.44A6.15,6.15,0,0,0,128.34,186.73Zm7.48-8.15a4.86,4.86,0,0,0-1.31-4.73,18.5,18.5,0,0,0-3.49-2.53,97.06,97.06,0,0,0-10.94-5.47c-3-1.27-5.91-2.58-8.79-4A40.13,40.13,0,0,1,96.8,149.46a5.19,5.19,0,0,1-1.11-2.84c0-.13,0-.26-.08-.42-2-2.41-4.07-4.71-6.24-6.95a88.91,88.91,0,0,0-7.56-7,87.24,87.24,0,0,0-9.41-6.81c-.4-.24-.82-.46-1.17-.66-1,.35-1,.35-1.44.77a3.39,3.39,0,0,0,.45.4,50.12,50.12,0,0,1,8.65,7.41c2.47,2.52,4.81,5.17,7.07,7.88,3,3.53,5.83,7.11,8.72,10.69,2,2.51,4.11,5,6.34,7.29a54.71,54.71,0,0,0,7.63,6.72,78.39,78.39,0,0,0,26.45,12.47C135.3,178.5,135.5,178.52,135.82,178.58Zm19.84-33.05,0-.2c-.21-.06-.43-.14-.65-.19a36.48,36.48,0,0,1-7.17-2.2c-2.34-1-4.67-2-6.93-3.15-3.09-1.57-6.12-3.24-9.17-4.89a106.41,106.41,0,0,0-11.52-5.47,40.12,40.12,0,0,0-6.08-1.92,10.5,10.5,0,0,0-3.06-.34,7.66,7.66,0,0,0-1.71.3,2.18,2.18,0,0,0-1.58,2.07,3.48,3.48,0,0,0,.37,1.79,8.39,8.39,0,0,0,1.65,2.35c.53.53,1.07,1.06,1.62,1.57a27,27,0,0,0,9,5.64c1.42.53,2.85,1,4.3,1.44,3.42,1,6.92,1.76,10.41,2.49a53,53,0,0,0,13,1.18c2.15-.09,4.31-.23,6.47-.36C155,145.62,155.33,145.57,155.66,145.53ZM17.29,137.3l1.05-.07c2.7-.3,5.39-.57,8.08-.92A169.32,169.32,0,0,0,66.1,126.2a165.32,165.32,0,0,0,24.84-12.12c3-1.8,5.94-3.69,8.76-5.77,3.34-2.47,6.63-5,9.92-7.53,4.89-3.77,9.76-7.57,14.79-11.16,2.29-1.63,4.59-3.24,6.94-4.79q4.65-3,9.53-5.71a94.47,94.47,0,0,1,14.84-6.57c2.63-.89,5.3-1.66,7.94-2.51a266.53,266.53,0,0,1,26.47-7.31c.25,0,.5-.13.75-.19a1.92,1.92,0,0,0-1-.08c-1.69.26-3.39.5-5.08.79a186,186,0,0,0-25.42,5.94,104.59,104.59,0,0,0-14,5.43,128.11,128.11,0,0,0-17.19,10.1q-4.44,3.07-8.75,6.34c-4.73,3.58-9.42,7.23-14.12,10.85-3.32,2.55-6.69,5-10.19,7.33q-4.61,3-9.45,5.65a173.46,173.46,0,0,1-16.21,7.78A169.2,169.2,0,0,1,27,134.15c-3.43.47-6.88.79-10.32,1.18a3.08,3.08,0,0,0-1.19.23c.44.25.77.48,1.13.64S17.12,136.89,17.29,137.3Zm168.3-13.79c0-.13,0-.2,0-.26a6.2,6.2,0,0,0-4.07-3.79,9.37,9.37,0,0,0-5-.21c-1.23.29-2.46.62-3.68,1a68.76,68.76,0,0,1-11.39,2.27,48.68,48.68,0,0,1-22.11-2.33c-1.91-.68-3.81-1.37-5.72-2a42.56,42.56,0,0,1-11.07-5.6,4.88,4.88,0,0,1-1.33-1.27,2.68,2.68,0,0,0-1-.89c-1.1-.62-2.19-1.28-3.3-1.89a61.41,61.41,0,0,0-9.43-4.34c-.25-.09-.52-.15-.81-.24-1,.8-2.08,1.59-3.1,2.39-.06,0,0,.18-.07.29.78.32,1.54.62,2.3,1a105.72,105.72,0,0,1,11.75,5.9c2.7,1.57,5.41,3.12,8.16,4.58a72.19,72.19,0,0,0,26.09,8.08,108.9,108.9,0,0,0,17.78.55,70.74,70.74,0,0,0,8.59-.95,37,37,0,0,0,6.47-1.67A1.79,1.79,0,0,0,185.59,123.51ZM60.47,129c-.07.42-.08.42,0,.66a39.4,39.4,0,0,1,2.37,6,69.49,69.49,0,0,1,3,16c.25,3.56.61,7.1,1,10.65a72.06,72.06,0,0,0,1.34,8.53,47.38,47.38,0,0,0,5.16,13.92A22,22,0,0,0,75,187.4c1.46.32,2.8.6,4.13.91,1.17.28,2.32.63,3.49.88s2.3.42,3.45.54a16.9,16.9,0,0,0,2.36,0,2.25,2.25,0,0,0,.55-.19,1.64,1.64,0,0,0-.2-.33c-.78-.77-1.58-1.52-2.36-2.29a49,49,0,0,1-4.78-5.51,45.74,45.74,0,0,1-5-8.63,126.15,126.15,0,0,1-6.18-17.53c-.9-3.23-1.69-6.5-2.56-9.74a61.15,61.15,0,0,0-4.16-11.59,36.18,36.18,0,0,0-2.49-4.26C61,129.36,60.87,129,60.47,129ZM23.2,81.55c-.06.14-.12.2-.12.26s0,.41.06.61a30.6,30.6,0,0,0,1.16,4.69,35.64,35.64,0,0,0,5.5,10c1.11,1.48,2.37,2.85,3.6,4.22a59.64,59.64,0,0,0,7.64,7c2.3,1.79,4.64,3.53,6.9,5.36a40.5,40.5,0,0,1,7,7.23,41.23,41.23,0,0,1,2.7,4.13c.21.35.44.68.65,1,.43,0,.76,0,1-.43-.14-.44-.28-.9-.44-1.35a147,147,0,0,0-6.16-14.46c-1.08-2.21-2.25-4.39-3.46-6.54a72,72,0,0,0-4.1-6.28c-.81-1.15-1.68-2.26-2.53-3.38-.14-.17-.24-.43-.53-.39,0,0-.08,0-.09.07-.05.23-.1.46-.16.69a2.33,2.33,0,0,1-2.67,2,8.18,8.18,0,0,1-2-.46,11.56,11.56,0,0,1-3.2-1.82,35.38,35.38,0,0,1-4.67-4.32,51,51,0,0,1-5.51-7.17A8.21,8.21,0,0,0,23.2,81.55Zm51.23,106a1.81,1.81,0,0,0-.43-1c-.47-.77-1-1.51-1.39-2.29a44.78,44.78,0,0,1-3.67-8.92,69.44,69.44,0,0,1-2.46-13q-.6-6.09-1.08-12.2a67.28,67.28,0,0,0-2.75-14.2,41.1,41.1,0,0,0-2.35-6.14c-.08-.17-.08-.17-.44-.41,0,0,0,.06,0,.09a2.4,2.4,0,0,0,.06.4,28.17,28.17,0,0,1,1.31,8.09c.18,4.6.24,9.19.15,13.79-.07,3.25-.16,6.51-.09,9.77.07,3.77,0,7.54-.22,11.31-.1,1.74-.1,3.49-.11,5.24a11.52,11.52,0,0,0,.5,3.45,8.88,8.88,0,0,0,7.92,6.35A27.51,27.51,0,0,0,74.43,187.52ZM61,128.79l.52.79c.51.81,1.06,1.6,1.54,2.44a48.38,48.38,0,0,1,4,9.34c1.09,3.43,2,6.92,2.84,10.41a136.23,136.23,0,0,0,6.63,19.87,46,46,0,0,0,6.25,10.71,65,65,0,0,0,5.15,5.6c.54.52,1.11,1,1.66,1.51.29-.08.53-.13.75-.21a5,5,0,0,0,.74-.35,2.93,2.93,0,0,0,1.46-3.5,5.28,5.28,0,0,0-.84-2c-.53-.75-1.07-1.51-1.67-2.21-1.27-1.49-2.61-2.91-3.85-4.42-2.7-3.29-5.29-6.66-7.67-10.19a47.24,47.24,0,0,1-3.51-6,22.93,22.93,0,0,1-1.79-5,4.71,4.71,0,0,1,.57-3.85.94.94,0,0,0,.06-.23,52.13,52.13,0,0,0-7.29-17.41A32.41,32.41,0,0,0,62,128.39ZM4.47,102.33l-.19.07a4,4,0,0,0,0,.6,19.14,19.14,0,0,0,1.35,6.1,15.09,15.09,0,0,0,1.1,2.42,27.81,27.81,0,0,0,5.68,6.6,26.33,26.33,0,0,0,13.51,6.07,56.88,56.88,0,0,0,7.49.62c2.57,0,5.14,0,7.71,0,3.12,0,6.24-.07,9.36.21a4,4,0,0,0,.47,0,3,3,0,0,0-1.08-.72,47.27,47.27,0,0,0-9.42-3.52,76.39,76.39,0,0,0-8.08-1.59c-2.06-.31-4.13-.65-6.18-1a32,32,0,0,1-5.25-1.47,30,30,0,0,1-11.35-7.94,53.63,53.63,0,0,1-4.82-6Zm46,21.85.12-.13c-.12-.11-.23-.23-.36-.33a26.35,26.35,0,0,0-7-4.13c-2-.77-4-1.47-6-2.13s-3.89-1.13-5.81-1.75-3.86-1.25-5.73-2a30.3,30.3,0,0,1-12.82-9.83,32.36,32.36,0,0,1-4.31-7.81,39.48,39.48,0,0,1-1.75-6c0-.24,0-.56-.36-.71a3.17,3.17,0,0,0-.2.49c-.5,2-1,3.91-1.47,5.89a26,26,0,0,0-.55,4.9,1.89,1.89,0,0,0,.31,1.27c.89,1.22,1.73,2.48,2.67,3.66S9,107.67,10,108.7a33.1,33.1,0,0,0,5.74,5,27,27,0,0,0,9.54,4c1.91.41,3.84.71,5.77,1.05s4.14.64,6.19,1A49.22,49.22,0,0,1,50,124,4.89,4.89,0,0,0,50.44,124.18ZM55.72,133l-.15-.16-1.94.92a73.82,73.82,0,0,0-7.46,3.69,22.74,22.74,0,0,0-6.74,5.95A36.9,36.9,0,0,0,33,158.29a27,27,0,0,0-.33,3.48,13.06,13.06,0,0,0,.37,3.57,12.16,12.16,0,0,0,1.19,3,1.3,1.3,0,0,0,.72.76l.28-1.56a55.24,55.24,0,0,1,6.44-17.16A65.67,65.67,0,0,1,52.1,137c1.15-1.17,2.25-2.39,3.37-3.6A2.59,2.59,0,0,0,55.72,133Zm95.8-91.57a1.47,1.47,0,0,0-.14.28c-1,3.36-2.37,6.58-3.63,9.84-.77,2-1.5,4-2.14,6-1.63,5.12-1.33,10.29-.28,15.46a.66.66,0,0,0,.06.2l.28.57c.74-.33,1.43-.62,2.11-.94a10.89,10.89,0,0,0,2-1,15,15,0,0,1-.88-4.06,26.89,26.89,0,0,1,.15-5.23,29,29,0,0,1,2.42-8.37c.78-1.76,1.59-3.5,2.39-5.24A63.51,63.51,0,0,0,157,40.9c.08-.28.24-.56.13-.84C157,40,157,40,157,40Zm-.57.05a14.88,14.88,0,0,0-2.47.59,7,7,0,0,0-4.09,3.39,14.37,14.37,0,0,0-.94,2.17c-.32.94-.56,1.9-.84,2.86-.61,2.11-1.23,4.21-1.82,6.32a7.63,7.63,0,0,0-.27,1.41,43.42,43.42,0,0,0,0,8.53c.12,1.26.25,2.52.39,3.79a33.65,33.65,0,0,1,.24,4.92,2.49,2.49,0,0,0,.1.55l4-2c-.08-.36-.15-.66-.21-1a35.08,35.08,0,0,1-.77-10.42,31.31,31.31,0,0,1,1.85-7.68c.79-2.12,1.66-4.21,2.46-6.33s1.46-4,2.18-6A1.83,1.83,0,0,0,151,41.49ZM159,68.66c.08-.43.14-.76.19-1.1a56.1,56.1,0,0,1,3-11.53,71.51,71.51,0,0,1,7.91-14.85c1.42-2.1,3-4.1,4.59-6.06a2.65,2.65,0,0,0,.27-.5,8.88,8.88,0,0,0-4.86-.57c-.16.19-.37.42-.55.67-.91,1.24-1.85,2.47-2.72,3.73a60,60,0,0,0-9.26,20.73,49.24,49.24,0,0,0-1.27,9.37c0,.28-.14.61.2.9ZM97.3,107.05c.13-.43.24-.79.33-1.16a96.37,96.37,0,0,0,3-21c.07-2.57,0-5.14-.22-7.71a5.33,5.33,0,0,0-.15-.61,2.8,2.8,0,0,0-.88,1,6.81,6.81,0,0,1-1.58,1.45,3.56,3.56,0,0,1-4.23,0c-.1-.06-.22-.1-.32-.15s-.09.12-.08.15c.08.4.15.8.25,1.19a63.67,63.67,0,0,1,2.15,18.43c-.09,2.91-.31,5.82-.46,8.73a1.87,1.87,0,0,0,.06,1.14c.26-.13.51-.24.74-.38C96.36,107.71,96.8,107.39,97.3,107.05Zm3.3,38.39c-.36-.47-.57-.77-.81-1.05-.4-.47-.82-.93-1.24-1.38-1.79-2-3.54-4-5.39-5.94a75.67,75.67,0,0,0-8-7.09,46.19,46.19,0,0,0-10-6.1c-.34-.15-.69-.28-1-.4a17,17,0,0,0-2.52,1.18,4.94,4.94,0,0,0,.44.38c.44.28.89.53,1.32.8a93.75,93.75,0,0,1,20.11,17.48c.69.8,1.41,1.58,2.13,2.39a2,2,0,0,0,.33-.34,1.82,1.82,0,0,1,2.14-.82,14,14,0,0,1,1.65.57ZM167,66.28a4.64,4.64,0,0,0,.54,0c1.23-.3,2.46-.58,3.69-.91a3.66,3.66,0,0,0,1-.49,9.85,9.85,0,0,0,2.9-3.16c.72-1.2,1.4-2.43,2.07-3.67,1.09-2,2.21-4,3.49-5.93a58.23,58.23,0,0,1,6.45-8,5.86,5.86,0,0,0,.45-.58c-.33-.32-.61-.62-.92-.88a2.87,2.87,0,0,0-1.14-.79c-.52.46-1.07.92-1.58,1.42-1.34,1.32-2.71,2.61-4,4a62,62,0,0,0-6.84,9.1c-2,3.12-3.92,6.27-5.88,9.41C167.13,65.9,167.09,66,167,66.28ZM83,119.22l.06.21c.29.08.57.18.87.25a72.5,72.5,0,0,1,10.75,3.49,87.86,87.86,0,0,1,11.39,5.72c.32.19.6.47,1,.46a8.42,8.42,0,0,1,.74-1.47,8.29,8.29,0,0,1,1.29-1.13c-.61-.79-3.21-2.54-6.35-4.3A59.64,59.64,0,0,0,88,116.53C86.29,117.48,84.64,118.3,83,119.22Zm111.24-38a4.18,4.18,0,0,0-.47-.33,72.33,72.33,0,0,1-8.46-5.64c-1.74-1.32-3.48-2.66-5.26-3.94a21.1,21.1,0,0,0-6.19-3.17,3.56,3.56,0,0,0-2.41,0c-.51.2-1.05.32-1.57.49-.22.07-.43.17-.75.3a2.26,2.26,0,0,0,.42.27,25.63,25.63,0,0,1,7.18,3.93,79.34,79.34,0,0,1,6.57,5.58c1.74,1.6,3.49,3.19,5.36,4.63.49.38,1,.73,1.45,1.07A12.18,12.18,0,0,0,194.28,81.25Zm5.78-8.85a3.45,3.45,0,0,0-.43-.22A63,63,0,0,1,192,68.57q-2.09-1.12-4.23-2.11a13.65,13.65,0,0,0-4.87-1.18,5.72,5.72,0,0,0-1.43.11c-.54.1-1.06.27-1.59.42a3.91,3.91,0,0,0-.46.23,2.6,2.6,0,0,0,.33.23,22.59,22.59,0,0,1,4.2,2.38c2.16,1.46,4.16,3.13,6.2,4.75A60.25,60.25,0,0,0,196,77.63a1.88,1.88,0,0,0,1,.46A19.83,19.83,0,0,0,200.06,72.4Zm-34.69-2.2c.31.13.49.22.67.28a17.92,17.92,0,0,1,4.18,2.19,42.94,42.94,0,0,1,4.48,3.59c2.59,2.34,5.14,4.73,7.75,7,1.35,1.2,2.79,2.31,4.2,3.45a1.77,1.77,0,0,0,1,.54c.32-.46.61-.93,1-1.34s.8-.82,1.25-1.28l-.65-.56c-1.27-1.05-2.56-2.07-3.8-3.15-2.19-1.91-4.32-3.89-6.52-5.79a34.56,34.56,0,0,0-6.58-4.54A17.17,17.17,0,0,0,169,69.33a2.27,2.27,0,0,0-1.41,0l-1.76.55A3.47,3.47,0,0,0,165.37,70.2ZM188,43.92a1.24,1.24,0,0,0-.36.12c-.23.2-.47.4-.68.62a52.83,52.83,0,0,0-7.15,9.24c-1.15,1.91-2.2,3.87-3.28,5.82a18.06,18.06,0,0,1-3.41,4.72c-.11.1-.3.19-.15.45.22,0,.45-.06.68-.11.77-.16,1.54-.35,2.31-.48a5.16,5.16,0,0,0,2.82-1.57,16.61,16.61,0,0,0,2.41-3.19c.86-1.4,1.69-2.82,2.55-4.22a47.69,47.69,0,0,1,6.51-8.83,2.69,2.69,0,0,0,.26-.46Zm8.72,34.58c-.75-.49-1.42-.9-2.06-1.34-2.42-1.64-4.66-3.49-6.93-5.31a56,56,0,0,0-5.84-4.19,12.72,12.72,0,0,0-2.68-1.29,2.1,2.1,0,0,0-1.31,0l-4,1.13c-.15,0-.35,0-.36.32a2.28,2.28,0,0,0,.36.15,20.89,20.89,0,0,1,6.22,3.12c1.75,1.26,3.45,2.58,5.18,3.88a75.41,75.41,0,0,0,8.18,5.5c.35.2.72.37,1.09.56A12.42,12.42,0,0,0,196.75,78.5Zm7.83-13.56c.55-.61,1.06-1.21,1.6-1.78a44.6,44.6,0,0,1,5.7-5,2.73,2.73,0,0,0,.36-.44c-1.3-.32-2.5-.58-3.68-.91s-2.36-.72-3.57-1.09a3.61,3.61,0,0,0-.56.18c-1.2.56-2.42,1.11-3.61,1.72-2.1,1.08-4.1,2.36-6.28,3.3-.13,0-.23.19-.48.41a6.26,6.26,0,0,0,.67,0c.72-.09,1.43-.2,2.14-.3l5.3-.71a1.42,1.42,0,0,1,1.06.09,3.79,3.79,0,0,1-1.57.52c-.53.12-1.07.22-1.61.33l-1.6.38-1.71.38c-.53.12-1.07.21-1.61.34a6.78,6.78,0,0,0-1.71.48,6.69,6.69,0,0,0,.75.17,35,35,0,0,1,5.16,1c1.26.31,2.54.58,3.81.84C203.61,64.87,204.09,64.89,204.58,64.94Zm-80.32,40.11c-1.88-1.53-10-5-12.31-5.32-1.49,1.13-3,2.33-4.54,3.56a3,3,0,0,0-.27.37,6.66,6.66,0,0,0,.68.32,51.68,51.68,0,0,1,7.24,3.16c1.67.87,3.3,1.82,5,2.73a4.7,4.7,0,0,0,.59.22c0-.32,0-.56,0-.8a3.23,3.23,0,0,1,1.26-2.79,9,9,0,0,1,1-.68C123.27,105.57,123.72,105.34,124.26,105.05Zm24.2-28.81.86.62a13.16,13.16,0,0,1,2.79,2.42c1.17,1.39,2.3,2.81,3.42,4.24,1.58,2,3.15,4.07,4.92,6a2.16,2.16,0,0,0,1,.65c1.72.45,3.44.93,5.16,1.4a4,4,0,0,0,.49,0,4.65,4.65,0,0,0-.32-.41,49.93,49.93,0,0,1-3.64-4.33q-1.69-2.28-3.4-4.54a32.23,32.23,0,0,0-5-5.42,20.63,20.63,0,0,0-2.91-2.18,27.16,27.16,0,0,0-3,1.24C148.69,76,148.62,76.09,148.46,76.24Zm29.71-12.46a19.66,19.66,0,0,0,3.09-.56,1.85,1.85,0,0,0,.37-.19,13.91,13.91,0,0,0,4.13-3.34c1-1.2,2-2.46,2.89-3.73a35.78,35.78,0,0,1,5.49-6.1,5.34,5.34,0,0,0,.39-.44,22.06,22.06,0,0,0-3.75-3c-.39.39-.79.8-1.18,1.23a40.94,40.94,0,0,0-4.46,6c-1.27,2-2.5,4.1-3.76,6.14a13.32,13.32,0,0,1-2.92,3.55A3.34,3.34,0,0,0,178.17,63.78ZM151.5,90.41c-.16-.21-.25-.35-.36-.47a55.12,55.12,0,0,0-4.91-4.51,35.24,35.24,0,0,0-5.93-4c-.39-.2-.8-.37-1.22-.56l-1.81,1c-.56.33-1.13.64-1.66,1a5.9,5.9,0,0,0-1.72,1.2c.4.15.71.29,1,.4A36,36,0,0,1,142,87.84a51.19,51.19,0,0,1,5.26,3.75,4.07,4.07,0,0,0,.61.39Zm8.52-.59.13-.19-.85-1c-1-1.24-2.07-2.47-3.08-3.73s-2-2.68-3.07-4a18.8,18.8,0,0,0-3.33-3.34,6.87,6.87,0,0,0-1.88-1.17,19,19,0,0,0-4.37,2.17,4.29,4.29,0,0,0,.5.33,14.5,14.5,0,0,1,2.62,1.63A26,26,0,0,1,150,83.6c1.21,1.31,2.38,2.65,3.61,4,.7.74,1.46,1.43,2.17,2.11.76,0,1.45,0,2.13,0S159.31,89.78,160,89.82Zm22.57-27.06.09.21c.71,0,1.41-.22,2.11-.3a9.38,9.38,0,0,0,3.19-1.1,21.53,21.53,0,0,0,4.47-3.28,61.55,61.55,0,0,1,6.15-5.14,4.08,4.08,0,0,0,.44-.4,37.29,37.29,0,0,0-4.14-3c-.22.15-.48.31-.71.5a25.42,25.42,0,0,0-3.58,3.68c-1.09,1.37-2.12,2.78-3.16,4.18a18,18,0,0,1-4.13,4.13C183.07,62.38,182.83,62.58,182.59,62.76Zm-46.14,3.07a60.43,60.43,0,0,1,.47,10.76c0,.38,0,.76,0,1.13a2.66,2.66,0,0,0,.11.47,15.25,15.25,0,0,0,3.81-2.13c0-.54.06-1.12,0-1.7-.07-1.23-.13-2.47-.27-3.69a58.63,58.63,0,0,1-.52-11.08c0-.14.08-.34-.16-.41Zm3,14.84.8.44c1.09.65,2.22,1.24,3.26,2a52.21,52.21,0,0,1,7.73,6.58c.24.24.5.45.73.66l3.17-.62c-.22-.28-.36-.5-.54-.69-.73-.77-1.48-1.52-2.2-2.29-1.41-1.5-2.79-3-4.22-4.5a15.34,15.34,0,0,0-3.66-2.8,4.58,4.58,0,0,0-1.65-.64A30,30,0,0,0,139.47,80.67Zm-16.86,7.24,4.9-3.46c.08-.23.14-.36.17-.49A58.25,58.25,0,0,0,129,73.36a2.45,2.45,0,0,0-.1-.42l-4.13,1.62c-.07.85-.14,1.73-.23,2.61s-.19,1.77-.31,2.66-.25,1.76-.42,2.64-.37,1.74-.55,2.61A28.78,28.78,0,0,0,122.61,87.91Zm61-23c.09.09.11.12.14.13a2.46,2.46,0,0,0,.29.09,18.16,18.16,0,0,1,5.91,2c1.37.7,2.72,1.45,4.08,2.17a47.3,47.3,0,0,0,5.32,2.44c.31.12.63.21.93.31a13,13,0,0,0,1.65-3.37c-.14,0-.3-.13-.45-.17a37.49,37.49,0,0,1-5.82-2c-1.22-.52-2.45-1-3.7-1.53a13.74,13.74,0,0,0-3.56-.93,4.9,4.9,0,0,0-1.43,0c-.94.18-1.87.42-2.8.65A4.59,4.59,0,0,0,183.59,64.93Zm15.95-12c-.2.1-.33.15-.44.22a45.09,45.09,0,0,0-4.91,3.89c-.92.83-1.83,1.66-2.77,2.47a15.66,15.66,0,0,1-2.77,1.94c-.22.12-.47.22-.55.5.09,0,.12.09.15.09a16.86,16.86,0,0,0,5.6-1.2c1-.43,2-.91,3-1.42,2.36-1.24,4.64-2.66,7.11-3.7.13,0,.23-.19.41-.36-.86-.41-1.64-.76-2.4-1.14S200.37,53.42,199.54,53ZM136.68,78.56c0-1,0-1.8,0-2.62,0-1.17.05-2.34,0-3.5-.08-1.74-.21-3.49-.34-5.23a5.31,5.31,0,0,0-.2-.91l-2.74,3.34a3.44,3.44,0,0,0,0,.43A52.69,52.69,0,0,1,132,81c0,.11,0,.24.09.43ZM128,84a24.68,24.68,0,0,0,3.48-2.28c.1-.29.19-.51.26-.74s.21-.72.29-1.09a55.51,55.51,0,0,0,1-9.27,2.36,2.36,0,0,0-.08-.52l-3.55,2.59A67.61,67.61,0,0,1,128,84ZM189,63.62v.2l.48.13c1.12.35,2.24.65,3.33,1s2.22.91,3.33,1.38a36.53,36.53,0,0,0,4.74,1.67c.43.11.87.19,1.24.26.45-.27.57-.69.81-1s.44-.62.63-1,.55-.59.56-1a1.28,1.28,0,0,0-.22-.12c-2.11-.3-4.16-.87-6.22-1.37a31.38,31.38,0,0,0-5.19-.76A11.22,11.22,0,0,0,189,63.62ZM16.48,136.89a6.38,6.38,0,0,0-4-1.31,4,4,0,0,0-1.07.29,1.14,1.14,0,0,0-.77.85,2,2,0,0,0,.32.43,2.43,2.43,0,0,0,1.79.62c1-.09,2-.24,3-.39A.74.74,0,0,0,16.48,136.89Z"/><path d="M57.85,13.26a9.2,9.2,0,0,1,0,3.14,1.9,1.9,0,0,1-.11-.39A12.66,12.66,0,0,1,57.85,13.26Z"/><path d="M57.78,10.46a3.41,3.41,0,0,1,.06,1.82A3.31,3.31,0,0,1,57.78,10.46Z"/><path d="M57.84,12.23a1.28,1.28,0,0,1,0,1.08A1.24,1.24,0,0,1,57.84,12.23Z"/><path d="M57.76,9.45a1.35,1.35,0,0,1,0,1.06A1.31,1.31,0,0,1,57.76,9.45Z"/><path d="M57.66,6.92l0,1.1A1.49,1.49,0,0,1,57.66,6.92Z"/><path d="M14.52,64.05a1.89,1.89,0,0,1-.32,1.33A1.71,1.71,0,0,1,14.52,64.05Z"/><path d="M73.07,4.21c-.2,1.68-.4,3.36-.61,5,0,.09-.11.17-.16.25a3.9,3.9,0,0,1,0-.59c.18-1.35.36-2.69.56-4A5.67,5.67,0,0,1,73.07,4.21Z"/><path d="M63.61,8.64a3.51,3.51,0,0,1-.06-1.82A3.14,3.14,0,0,1,63.61,8.64Z"/><path d="M115.13,72.88a2.6,2.6,0,0,1,.23,1.69A3.16,3.16,0,0,1,115.13,72.88Z"/><path d="M125,90.51a1.57,1.57,0,0,1,1.32.33A1.88,1.88,0,0,1,125,90.51Z"/><path d="M120.65,76.7a2.46,2.46,0,0,1-.07,1.65A2.66,2.66,0,0,1,120.65,76.7Z"/><path d="M120.55,75.22a2.1,2.1,0,0,1,.1,1.52A3.27,3.27,0,0,1,120.55,75.22Z"/></svg>