<?xml version="1.0" encoding="utf-8"?>
<!-- Generator: Adobe Illustrator 25.1.0, SVG Export Plug-In . SVG Version: 6.00 Build 0)  -->
<svg version="1.1" id="Layer_1" xmlns="http://www.w3.org/2000/svg" xmlns:xlink="http://www.w3.org/1999/xlink" x="0px" y="0px"
	 viewBox="0 0 459 434.6" style="enable-background:new 0 0 459 434.6;" xml:space="preserve">
<style type="text/css">
	.st0{fill:#FFF3F6;}
	.st1{fill:#F37D7F;}
</style>
<g>
	<path class="st0" d="M174.9,379.8c-8.6,5.2-17.2,10.2-26,14.8c-9.4,4.8-25.5,12.4-27,12.7c-0.5-0.2-0.4-0.7-0.3-1.1
		c0.3-1.8,1.1-3.4,2.3-4.7c1-1.1,2.2-2,3.5-2.6c11.4-5.3,22.8-10.7,33.7-17.1c3.4-2,6.7-4,10-5.9c0.2-0.1,0.5-0.3,0.9-0.6
		c-0.7-0.1-1.3-0.2-1.8-0.3c-6.6-1-13.1-2.5-19.5-4.4c-5.9-1.7-11.6-4-17-6.9c-3-1.6-5.6-3.5-8-5.9c-4.4-4.3-6.6-10.4-6-16.5
		c0.4-4.1,1.5-8.1,3.3-11.8c2.4-5.3,5.6-10.3,9.5-14.7c3.5-4.1,7.4-7.8,11.6-11.2c9.2-7.5,19-14.3,29.1-20.5
		c7.9-4.7,16.3-8.7,25.1-11.7c7.4-2.6,14.8-5.2,22.2-7.8c17.1-6.1,33.9-12.8,50.3-20.4c7.6-3.6,15.2-7.3,22.5-11.6
		c5.3-3.1,10.3-6.5,15-10.4c5-4,9.5-8.5,14.1-13c4.3-4.2,8.6-8.5,13-12.5c8.6-7.6,18.2-14,28.6-19c9.3-4.5,18.8-8.4,28.5-11.7
		c8.4-3,16.8-5.9,25.2-9c7.5-2.7,14.7-6.1,21.5-10.2c5.8-3.3,11.2-7.4,16.1-12c0.7-0.7,1.3-1.4,2-2c0.4-0.3,0.8-0.6,1.2-0.9
		c0.6,0.2,0.5,0.6,0.4,0.9c-0.5,2.8-1.1,5.6-1.5,8.4c-0.8,5.8-1.7,11.5-2.3,17.3c-0.7,6.9-1.9,13.8-3.7,20.5
		c-2.7,10.2-7.1,19.8-12.9,28.6c-2.8,4.1-5.8,8-9.2,11.7c-5.3,5.9-11.2,11.3-17.1,16.7c-3.8,3.5-7.6,6.9-11.3,10.5
		c-4.2,4-8.3,8.2-12.2,12.6c-5.2,6-10.1,12.3-14.6,18.8c-6.5,9.4-12.5,19.1-18.5,28.9c-4.6,7.5-9.2,15-14.2,22.2
		c-3.6,5.2-7.4,10.2-11.4,15c-5.3,6.3-11.1,12.1-17.2,17.5c-3.5,3-7.1,5.9-10.7,8.8c-6.5,5.1-13.2,9.8-20,14.5
		c-5,3.5-9.9,7.2-14.6,11c-4.5,3.7-8.9,7.5-13,11.6c-3.5,3.5-6.9,7-10.3,10.5c-3.1,3.3-6.4,6.3-10,9c-9.6,7-20.2,10.1-32.1,8.2
		c-5-0.7-9.8-2.7-13.9-5.6c-3.1-2.3-5.6-5.4-7.3-9c-1.3-2.9-2.4-5.9-3.1-9c-2.3-9.7-3.3-19.6-2.9-29.5c0-0.3,0-0.6,0-1
		C174.9,379.9,174.9,379.8,174.9,379.8z"/>
	<path class="st1" d="M435.2,168.3l-0.1-0.1c-0.1,0.1-0.2,0.2-0.3,0.3c-1.3,1.8-2.6,3.7-4,5.5c-3.5,4.4-6.9,8.9-10.5,13.3
		c-3.4,4.2-6.8,8.3-10.4,12.3c-3.1,3.6-6.3,7.1-9.5,10.5c-3.5,3.7-7,7.3-10.6,10.8c-7.5,7.3-15.2,14.4-23.2,21.2
		c-3.7,3.1-7.4,6.3-11.3,9.3c-4.3,3.4-8.7,6.6-13.1,9.8c-5.5,4-11.1,7.6-16.9,11.2c-8.5,5.2-17.2,10.1-25.9,15
		c-10.7,6-21.4,11.9-31.7,18.4c-6.9,4.3-13.7,8.9-20.2,13.8c-4.5,3.4-8.9,7-13.3,10.6c-4.6,3.8-9.1,7.7-13.8,11.5
		c-4,3.3-8,6.5-12.1,9.7c-5,4-10.2,7.6-15.4,11.3c-6,4.2-12,8.2-18.2,12c-8.2,5-16.4,10-24.9,14.3c-7.6,3.9-15.2,7.5-22.9,11.2
		c-2.1,1.1-3.7,3-4.4,5.3c0,0.1-0.1,0.2-0.2,0.5l1-0.4c4.7-2.2,9.3-4.5,14-6.7C153.9,391,169.8,382,185,372c4-2.6,7.8-5.3,11.7-8
		c3.4-2.4,6.8-4.9,10.2-7.4s6.8-5.3,10.1-8c3.7-3,7.4-6.1,11.2-9.2s7.5-6.3,11.3-9.4c4.4-3.7,9-7.2,13.7-10.5
		c6.7-4.8,13.6-9.4,20.7-13.6c7.8-4.6,15.6-9.1,23.5-13.5c11.2-6.4,22.5-12.6,33.5-19.6c5.1-3.3,10.2-6.7,15.1-10.3
		c3-2.2,6.1-4.5,9-6.8c2.8-2.2,5.5-4.4,8.3-6.6c2.1-1.8,4.3-3.6,6.4-5.4c2.6-2.2,5.2-4.5,7.8-6.8c1.9-1.7,3.7-3.4,5.5-5.1
		c2.8-2.7,5.7-5.4,8.4-8.3c3-3.1,5.9-6.4,8.8-9.6s5.5-6.2,8.2-9.5c3.8-4.6,7.5-9.3,11.2-14c4.9-6.2,9.4-12.6,13.8-19.2
		C434,170.3,434.6,169.3,435.2,168.3z"/>
	<path d="M174.9,379.8c-8.6,5.2-17.2,10.2-26,14.8c-9.4,4.8-25.5,12.4-27,12.7c-0.5-0.2-0.4-0.7-0.3-1.1c0.3-1.8,1.1-3.4,2.3-4.7
		c1-1.1,2.2-2,3.5-2.6c11.4-5.3,22.8-10.7,33.7-17.1c3.4-2,6.7-4,10-5.9c0.2-0.1,0.5-0.3,0.9-0.6c-0.7-0.1-1.3-0.2-1.8-0.3
		c-6.6-1-13.1-2.5-19.5-4.4c-5.9-1.7-11.6-4-17-6.9c-3-1.6-5.6-3.5-8-5.9c-4.4-4.3-6.6-10.4-6-16.5c0.4-4.1,1.5-8.1,3.3-11.8
		c2.4-5.3,5.6-10.3,9.5-14.7c3.5-4.1,7.4-7.8,11.6-11.2c9.2-7.5,19-14.3,29.1-20.5c7.9-4.7,16.3-8.7,25.1-11.7
		c7.4-2.6,14.8-5.2,22.2-7.8c17.1-6.1,33.9-12.8,50.3-20.4c7.6-3.6,15.2-7.3,22.5-11.6c5.3-3.1,10.3-6.5,15-10.4
		c5-4,9.5-8.5,14.1-13c4.3-4.2,8.6-8.5,13-12.5c8.6-7.6,18.2-14,28.6-19c9.3-4.5,18.8-8.4,28.5-11.7c8.4-3,16.8-5.9,25.2-9
		c7.5-2.7,14.7-6.1,21.5-10.2c5.8-3.3,11.2-7.4,16.1-12c0.7-0.7,1.3-1.4,2-2c0.4-0.3,0.8-0.6,1.2-0.9c0.6,0.2,0.5,0.6,0.4,0.9
		c-0.5,2.8-1.1,5.6-1.5,8.4c-0.8,5.8-1.7,11.5-2.3,17.3c-0.7,6.9-1.9,13.8-3.7,20.5c-2.7,10.2-7.1,19.8-12.9,28.6
		c-2.8,4.1-5.8,8-9.2,11.7c-5.3,5.9-11.2,11.3-17.1,16.7c-3.8,3.5-7.6,6.9-11.3,10.5c-4.2,4-8.3,8.2-12.2,12.6
		c-5.2,6-10.1,12.3-14.6,18.8c-6.5,9.4-12.5,19.1-18.5,28.9c-4.6,7.5-9.2,15-14.2,22.2c-3.6,5.2-7.4,10.2-11.4,15
		c-5.3,6.3-11.1,12.1-17.2,17.5c-3.5,3-7.1,5.9-10.7,8.8c-6.5,5.1-13.2,9.8-20,14.5c-5,3.5-9.9,7.2-14.6,11
		c-4.5,3.7-8.9,7.5-13,11.6c-3.5,3.5-6.9,7-10.3,10.5c-3.1,3.3-6.4,6.3-10,9c-9.6,7-20.2,10.1-32.1,8.2c-5-0.7-9.8-2.7-13.9-5.6
		c-3.1-2.3-5.6-5.4-7.3-9c-1.3-2.9-2.4-5.9-3.1-9c-2.3-9.7-3.3-19.6-2.9-29.5c0-0.3,0-0.6,0-1C174.9,379.9,174.9,379.8,174.9,379.8z
		 M435.2,168.3l-0.1-0.1c-0.1,0.1-0.2,0.2-0.3,0.3c-1.3,1.8-2.6,3.7-4,5.5c-3.5,4.4-6.9,8.9-10.5,13.3c-3.4,4.2-6.8,8.3-10.4,12.3
		c-3.1,3.6-6.3,7.1-9.5,10.5c-3.5,3.7-7,7.3-10.6,10.8c-7.5,7.3-15.2,14.4-23.2,21.2c-3.7,3.1-7.4,6.3-11.3,9.3
		c-4.3,3.4-8.7,6.6-13.1,9.8c-5.5,4-11.1,7.6-16.9,11.2c-8.5,5.2-17.2,10.1-25.9,15c-10.7,6-21.4,11.9-31.7,18.4
		c-6.9,4.3-13.7,8.9-20.2,13.8c-4.5,3.4-8.9,7-13.3,10.6c-4.6,3.8-9.1,7.7-13.8,11.5c-4,3.3-8,6.5-12.1,9.7c-5,4-10.2,7.6-15.4,11.3
		c-6,4.2-12,8.2-18.2,12c-8.2,5-16.4,10-24.9,14.3c-7.6,3.9-15.2,7.5-22.9,11.2c-2.1,1.1-3.7,3-4.4,5.3c0,0.1-0.1,0.2-0.2,0.5l1-0.4
		c4.7-2.2,9.3-4.5,14-6.7C153.9,391,169.8,382,185,372c4-2.6,7.8-5.3,11.7-8c3.4-2.4,6.8-4.9,10.2-7.4s6.8-5.3,10.1-8
		c3.7-3,7.4-6.1,11.2-9.2s7.5-6.3,11.3-9.4c4.4-3.7,9-7.2,13.7-10.5c6.7-4.8,13.6-9.4,20.7-13.6c7.8-4.6,15.6-9.1,23.5-13.5
		c11.2-6.4,22.5-12.6,33.5-19.6c5.1-3.3,10.2-6.7,15.1-10.3c3-2.2,6.1-4.5,9-6.8c2.8-2.2,5.5-4.4,8.3-6.6c2.1-1.8,4.3-3.6,6.4-5.4
		c2.6-2.2,5.2-4.5,7.8-6.8c1.9-1.7,3.7-3.4,5.5-5.1c2.8-2.7,5.7-5.4,8.4-8.3c3-3.1,5.9-6.4,8.8-9.6s5.5-6.2,8.2-9.5
		c3.8-4.6,7.5-9.3,11.2-14c4.9-6.2,9.4-12.6,13.8-19.2C434,170.3,434.6,169.3,435.2,168.3z M213.4,267.1c-6.9,2.4-13.8,4.6-20.6,7.4
		l0.5,1.1c2.6,5.4,5.6,10.6,8.8,15.7s6.6,10.4,9.8,15.7c2.5,4.1,4.7,8.5,6.5,12.9c2.3,5.8,3.4,12,3.4,18.3c0,0.3,0,0.6,0.1,1
		c0.1,0,0.2-0.1,0.3-0.1l7.4-6.2c0.4-0.3,0.6-0.7,0.6-1.2c0-1.9,0.2-3.9,0.1-5.8c-0.5-9-2.2-17.9-5.2-26.4
		c-1.7-4.8-3.6-9.5-5.5-14.3c-2.4-5.7-4.4-11.5-5.9-17.5C213.5,267.5,213.4,267.4,213.4,267.1z M185.8,366.3
		c-0.1-0.2-0.2-0.5-0.3-0.7c-1.7-2.7-3.5-5.3-5.5-7.8c-3-3.7-6.3-7.1-10-10.1c-2.5-2.1-5-4.2-7.5-6.3c-2.9-2.5-5.9-4.9-8.7-7.4
		s-6-5.2-8.8-7.9c-3.6-3.5-7-7.1-10.4-10.7l-0.7-0.8c-4.9,5.3-8.7,11.4-11.3,18.1c0.1,0.1,0.2,0.2,0.3,0.3c2.1,1.5,4.2,3,6.3,4.4
		c5.4,3.6,11.2,6.7,16.9,9.8c6.8,3.8,13.7,7.6,20.1,12c4.7,3,8.9,6.6,12.8,10.6c0.2,0.2,0.3,0.3,0.5,0.5L185.8,366.3z M179.1,280.9
		c0,0.1,0,0.2,0,0.2c0.1,0.2,0.2,0.4,0.3,0.6c2.7,5.7,5.8,11.1,9.3,16.4c3.6,5.5,7.2,11,10.7,16.5c3.4,5.3,6.4,10.9,9,16.7
		c2.1,4.5,3.6,9.4,4.5,14.3c0.1,0.2,0.1,0.4,0.2,0.6l8-6.5c0-0.2,0-0.4,0-0.6c0-4.1-0.5-8.2-1.4-12.2c-1.4-5.4-3.5-10.6-6.2-15.5
		c-3-5.6-6.5-11-10-16.4c-4.1-6.3-7.8-12.9-11.2-19.6c-0.1-0.2-0.2-0.4-0.3-0.6C187.5,276.6,183.2,278.6,179.1,280.9L179.1,280.9z
		 M239.8,324.2c0.2-0.2,0.4-0.3,0.6-0.4c1.2-1,2.5-1.9,3.7-2.9c1.9-1.4,3.7-2.8,5.6-4.2c0.4-0.3,0.7-0.7,0.8-1.2
		c2-9.1,1.9-18.6-0.4-27.6c-2.6-10.3-6.6-20-10.9-29.6c-0.1-0.2-0.2-0.3-0.3-0.4l-13.7,5.1c0,0.2,0.1,0.4,0.1,0.6
		c0.9,3.1,1.7,6.3,2.7,9.4c2.2,7,4.6,14,6.8,21c1.9,5.6,3.4,11.2,4.6,17c0.9,4.2,1,8.5,0.5,12.8
		C239.8,323.9,239.8,324.1,239.8,324.2L239.8,324.2z M206.1,351.9c0-0.2,0-0.3,0-0.5c-0.1-0.3-0.1-0.7-0.2-1
		c-0.9-3.6-2.4-7-4.3-10.2c-3-5.3-6.5-10.3-9.9-15.3c-3-4.5-6.1-8.9-9-13.4c-5-7.6-9.5-15.5-13.5-23.6c-0.1-0.2-0.3-0.5-0.4-0.7
		c-3.8,2.2-7.4,4.7-10.8,7.4c0.1,0.3,0.3,0.7,0.4,1c4.5,10.5,10.5,20.4,17.8,29.2c3.2,3.8,6.4,7.6,9.6,11.5c2.6,3.1,5.1,6.3,7.2,9.8
		c2.2,3.4,4,7.1,5.2,11c0.1,0.2,0.2,0.5,0.3,0.7L206.1,351.9z M134.3,314.1c0.3,0.3,0.5,0.6,0.7,0.9c2.4,2.5,4.8,5.1,7.3,7.5
		c3,3,6.1,5.9,9.2,8.7c2.6,2.4,5.3,4.6,8,6.8c2.9,2.4,5.7,4.9,8.6,7.3c2.9,2.4,5.7,5,8.4,7.7c3.1,3.2,5.9,6.7,8.2,10.5l1.6,2.6
		l5.2-3.5c-0.1-0.2-0.1-0.4-0.1-0.5c-1.8-4.7-4.3-9.2-7.2-13.3c-2.3-3.2-4.9-6.2-7.6-9c-5.1-5.2-10.3-10.3-15.4-15.4
		c-4.6-4.5-9-9.2-13.3-14c-0.9-1.1-1.8-2.2-2.7-3.3l-1.5-1.8C140.2,307.9,137.1,310.9,134.3,314.1L134.3,314.1z M212.6,346.8
		c0-0.4-0.1-0.8-0.1-1.1c-0.5-2.9-1.2-5.7-2.2-8.4c-2.7-7.2-6.1-14-10.2-20.5c-3.7-6-7.6-11.9-11.5-17.8c-3.6-5.4-6.9-11.1-9.7-17
		c-0.1-0.2-0.2-0.4-0.4-0.6c-3.2,1.6-6.3,3.4-9.2,5.4c0.1,0.2,0.2,0.5,0.3,0.8c3.3,6.9,7,13.5,11.1,19.9c4.6,7.1,9.4,14.1,14.1,21.2
		c2.5,3.8,5.1,7.6,7.3,11.6c1.9,3.3,3.4,6.9,4.2,10.7c0.1,0.2,0.1,0.4,0.2,0.6L212.6,346.8z M144.1,304.7c0.1,0.2,0.2,0.3,0.2,0.4
		c2.4,2.8,4.8,5.7,7.3,8.5c4.5,5,9.2,9.6,14,14.2c3.4,3.3,6.7,6.7,10.1,10.1c3.3,3.3,6.3,6.9,9.1,10.7c2.7,3.9,5,8,6.7,12.4
		c0.1,0.3,0.2,0.6,0.4,1l6-4.2c-0.1-0.5-0.2-0.9-0.3-1.2c-1.6-4.9-4-9.5-7.1-13.6c-2.3-3.1-4.8-6.2-7.2-9.2
		c-3.4-4.2-7-8.4-10.4-12.6c-2-2.5-3.9-5.2-5.7-7.9c-3.4-5.3-6.4-10.9-8.9-16.7c-0.3-0.6-0.6-1.3-0.9-2.1
		C152.7,297.9,148.3,301.2,144.1,304.7z M233.8,424.7c-0.7-1.2-1.3-2.2-1.9-3.3c-6.1-10.5-12.1-21.2-18.6-31.4
		c-2.3-3.6-4.7-7.3-7.2-10.9c-1.7-2.4-3.5-4.8-5.2-7.1c-1.4-1.9-3-3.8-4.7-5.5c-0.1-0.1-0.3-0.2-0.5-0.4l-5.1,3.5
		c0.6,0.8,1.1,1.4,1.5,2.1c1.5,2.5,3.1,5,4.5,7.6c5.2,9.4,9.9,19.1,14.7,28.8c3.6,7.2,7.2,14.4,10.8,21.6c0.2,0.4,0.4,0.7,0.6,1.1
		C226.7,429.4,230.4,427.3,233.8,424.7L233.8,424.7z M217.7,349.6c0.3,0.4,0.6,0.6,0.8,0.8c2.1,2.1,4.2,4.4,6,6.8
		c2.7,3.5,5.1,7.2,7.3,11c3.1,5.4,5.8,11.1,8.5,16.7c3.5,7.2,7.1,14.5,10.6,21.7c0.2,0.4,0.4,0.7,0.6,1l8.8-8.3
		c-0.2-0.4-0.3-0.7-0.5-1l-2.5-4.8c-4-7.7-8.1-15.3-12.6-22.7c-2.8-4.5-5.7-8.9-8.6-13.4c-1.3-2-2.7-3.9-4.2-5.8s-2.8-3.5-4.3-5.2
		c-0.8-1-1.7-1.9-2.7-2.9L217.7,349.6z M334.6,265l0.2,0.1c0.2-0.1,0.3-0.1,0.5-0.2c3-2.1,5.9-4.2,8.9-6.2c0.6-0.4,1-1.1,1-1.9
		c0.3-4.8,0.1-9.6-0.5-14.3c-1.2-8.5-3.4-16.8-6.7-24.7c-2.2-5.3-4.5-10.6-6.7-15.9c-0.1-0.2-0.2-0.4-0.3-0.6l-9.1,8.9
		c0.1,0.4,0.2,0.7,0.3,1c1.4,3.5,2.8,6.9,4.3,10.4c2.8,6.5,5.1,13.3,6.8,20.1c1.9,7.4,2.4,15.1,1.5,22.7
		C334.7,264.5,334.6,264.7,334.6,265L334.6,265z M230.7,331.9c0.8-0.6,1.4-1.2,2.1-1.8c1.9-1.6,3.8-3.2,5.7-4.7
		c0.4-0.3,0.7-0.8,0.8-1.4c0.1-1.1,0.2-2.1,0.3-3.2c0.1-3.2-0.2-6.4-0.8-9.6c-1.2-5.9-2.8-11.8-4.8-17.5c-3.3-9.9-6.8-19.8-9.4-29.9
		c-0.1-0.2-0.1-0.3-0.2-0.5l-10.2,3.7c0,0.3,0,0.5,0.1,0.6c0.8,2.6,1.4,5.3,2.3,7.8c2,5.4,4,10.7,6.2,16c3.1,7.6,5.5,15.5,6.9,23.5
		c1.1,5.4,1.4,11,1.1,16.5C230.6,331.6,230.6,331.7,230.7,331.9L230.7,331.9z M339.7,193.4c0.1,0.4,0.2,0.7,0.4,1
		c1.4,3.5,2.9,7.1,4.3,10.6c3.9,9.2,6.9,18.8,9,28.6c1.2,5.3,1.9,10.7,2.1,16.1c0,0.1,0.1,0.2,0.1,0.3l0.2-0.1c3-2.5,6.1-5,9.1-7.5
		c0.3-0.2,0.4-0.6,0.4-0.9c0-0.4,0-0.8,0-1.2c-0.3-6.5-1.3-13-3.1-19.3c-1.8-6-4-11.9-6.6-17.5c-2.5-5.3-4.6-10.7-6.5-16.2
		c-0.1-0.2-0.2-0.4-0.3-0.5C345.6,188.7,342.6,190.9,339.7,193.4L339.7,193.4z M311.8,359.8c-0.1-0.2-0.3-0.4-0.4-0.5
		c-2.4-2.2-4.7-4.5-7-6.7c-3.5-3.4-7-6.9-10.6-10.3s-7.4-7.2-11-10.7c-3.6-3.5-7.4-6.9-11.4-10c-2.7-2.1-5.5-4-8.5-5.7
		c-0.4-0.2-0.8-0.4-1.3-0.6l-3.1,2.1c0.5,0.5,0.9,1,1.4,1.5c2.9,2.8,5.7,5.8,8.3,9c1.7,2,3.2,4,4.8,6c1.2,1.5,2.4,3.1,3.6,4.7
		c1.5,2,3.1,4.1,4.6,6.1c1.2,1.6,2.4,3.2,3.7,4.7c1.5,1.9,3,3.8,4.5,5.7s2.9,3.5,4.3,5.2c2.3,2.6,4.6,5.2,6.9,7.8
		c0.1,0.2,0.3,0.3,0.6,0.5C304.8,365.7,308.4,362.9,311.8,359.8z M211.3,354.7l0.4,0.6c0.8,1,1.6,2,2.2,3c2.4,3.6,4.6,7.4,6.6,11.3
		c4.1,8,8,16,12.2,23.9c3.6,6.9,7.5,13.6,11.3,20.4c0.2,0.3,0.4,0.6,0.6,0.9l6.3-6.5c-0.2-0.4-0.3-0.6-0.4-0.9
		c-3.1-6.3-6.2-12.7-9.3-19c-3.2-6.6-6.3-13.2-9.9-19.6c-3.6-6.6-8.1-12.7-13.3-18.1c-0.2-0.2-0.5-0.5-0.8-0.8L211.3,354.7z
		 M222.1,431.2c-0.2-0.4-0.3-0.7-0.4-0.9c-1.9-3.8-3.9-7.6-5.8-11.5c-5.4-10.8-10.8-21.6-16.2-32.4c-2.4-4.9-5-9.6-7.9-14.2
		c-0.5-0.8-1-1.5-1.6-2.2l-3.6,2.4l0.4,0.8c1.1,2,2.2,4,3.2,6.1c2.1,4.6,3.7,9.3,4.8,14.2c1.1,4.5,2.2,9,3.3,13.4
		c2.1,8.8,5.1,17.4,8.7,25.6c0.1,0.3,0.3,0.6,0.4,0.9C212.4,433.7,217.4,432.9,222.1,431.2L222.1,431.2z M285.5,380
		c-1.1-1.3-2.1-2.5-3-3.8c-2.7-3.6-5.4-7.1-8-10.8c-3.6-5.1-7.1-10.4-10.8-15.5c-2.5-3.5-5.1-7-7.8-10.4c-3.2-3.9-6.6-7.5-10.2-10.9
		c-0.4-0.4-0.8-0.7-1.3-1c-2.9,2.2-5.7,4.5-8.5,6.9c0.1,0.1,0.2,0.2,0.3,0.4c1.7,1.4,3.4,2.8,5,4.3c2.6,2.4,5.1,4.7,7.6,7.2
		c3.3,3.3,6.3,6.8,9,10.5c2.5,3.4,5.1,6.8,7.5,10.4c3.6,5.5,7.1,11.1,10.6,16.6l1.3,2L285.5,380z M281.2,296.3l0.3,0.1l0.7-0.3
		c2.9-1.7,5.8-3.3,8.8-5c0.7-0.3,1.1-1,1.3-1.7c0.6-3.5,0.8-7.1,0.3-10.6c-0.6-5.2-1.6-10.3-3-15.3c-2.2-8.1-4.5-16.2-6.7-24.4
		c0-0.1-0.1-0.2-0.2-0.4l-10.1,4.9c0,0.3,0,0.4,0,0.6c0.3,2,0.6,4.1,1,6.1c1,5.2,2.6,10.3,4.1,15.4c1.7,5.5,2.9,11,3.7,16.7
		c0.7,4.5,0.7,9.1,0,13.6C281.3,296,281.3,296.1,281.2,296.3L281.2,296.3z M250.9,315.7c0.2-0.1,0.4-0.2,0.6-0.3
		c3-2.1,6.1-4.2,9.1-6.2c0.4-0.2,0.7-0.7,0.8-1.2c0.2-2.2,0.5-4.4,0.6-6.7c0.1-6.2-0.6-12.5-2.1-18.5c-2.3-9.9-5.5-19.6-9.6-28.9
		c-0.1-0.2-0.2-0.4-0.3-0.5l-10.6,4.2c0,0.1,0,0.2,0.1,0.3l1,2.2c3.4,7.5,6.4,15.2,8.8,23.1c3.1,10.4,4.1,21,1.7,31.7
		C251,315.1,251,315.4,250.9,315.7z M283.2,238.3c0.4,1.4,0.7,2.6,1,3.9c2,7.1,3.9,14.1,5.9,21.2c1.4,5,2.4,10.1,3,15.3
		c0.5,3.7,0.3,7.4-0.4,11c0,0.1,0,0.3,0,0.4c0.2-0.1,0.3-0.1,0.5-0.2l8.9-5c0.4-0.2,0.7-0.6,0.7-1c0.5-1.9,0.8-3.9,0.9-5.9
		c0.1-3.1,0-6.2-0.4-9.3c-0.9-6.6-2.4-13.2-4.4-19.6c-1.6-5.4-3.2-10.8-4.7-16.2c-0.1-0.2-0.1-0.3-0.2-0.5L283.2,238.3z
		 M261.5,248.4c0,0.2,0,0.4,0,0.6c0.3,1.8,0.6,3.6,1,5.4c1.4,5.7,2.8,11.4,4.3,17.1c1.5,5.5,2.6,11,3.3,16.6c0.7,4.8,0.7,9.6,0,14.4
		c0,0.2,0,0.4,0,0.6l10.5-6.3c0.4-1.6,0.6-3.1,0.6-4.7c0.1-5.1-0.3-10.2-1.4-15.2c-1-4.9-2.4-9.7-3.8-14.5c-1.9-5.9-3.3-12-4.1-18.2
		c0-0.2-0.1-0.3-0.1-0.4L261.5,248.4z M291.8,375.3c3.1-1.9,6-4.1,8.7-6.5c-0.2-0.2-0.5-0.5-0.7-0.7c-2.5-2.8-5-5.6-7.4-8.4
		s-4.5-5.5-6.7-8.3c-2-2.6-4-5.1-6-7.7c-1.8-2.4-3.6-4.8-5.5-7.2c-2.4-3-4.7-6-7.2-9c-2.7-3.3-5.6-6.5-8.7-9.5
		c-0.1-0.1-0.3-0.2-0.5-0.3l-6.4,4.5c0,0.1,0,0.2,0,0.2l1.1,1.1c4.1,4.1,7.9,8.5,11.4,13.1c1.7,2.4,3.5,4.7,5.2,7.2
		c2.2,3.2,4.3,6.4,6.5,9.6c2.5,3.7,5.1,7.4,7.7,11c2.2,3,4.5,5.9,6.7,8.9C290.7,373.9,291.2,374.6,291.8,375.3L291.8,375.3z
		 M303.2,284.1l11.5-6.6c0-0.5,0.1-0.8,0.1-1.2c0.2-3.4,0-6.7-0.3-10.1c-0.8-7.1-2.2-14.2-4-21.2c-1.7-6.6-3.3-13.1-5-19.7
		c-0.1-0.2-0.1-0.4-0.2-0.5l-10.6,7.1c0,0.2,0,0.4,0.1,0.6c0.7,2.6,1.4,5.1,2.1,7.7c1.4,4.9,3,9.8,4.3,14.8c1.6,5.8,2.6,11.8,3,17.9
		c0.3,3.5,0,7.1-0.9,10.5C303.3,283.7,303.3,283.9,303.2,284.1L303.2,284.1z M122.4,333.5c-0.1,0.2-0.2,0.5-0.3,0.7
		c-0.4,1.8-1,3.6-1.3,5.4c-0.5,2.8-0.3,5.6,0.3,8.4c0.1,0.7,0.7,1.4,1.4,1.6c5.8,2.7,11.7,5,17.6,7.3c7.1,2.7,14.1,5.4,21.1,8.4
		c3.4,1.4,6.7,3.1,9.8,5.1c1.4,0.9,2.6,1.9,4,2.9l4.1-2.6c-0.2-0.3-0.4-0.5-0.6-0.7c-1.9-1.8-3.8-3.6-5.8-5.3
		c-3.8-3-7.8-5.8-11.9-8.4c-5.9-3.7-12.1-7-18.2-10.4c-5.1-2.9-10.3-5.7-15.1-9C125.7,335.9,124.1,334.7,122.4,333.5z M206.7,433.4
		c-0.1-0.3-0.2-0.6-0.3-0.9c-0.5-1.1-0.9-2.2-1.4-3.3c-3.2-8.1-5.9-16.4-7.9-24.8c-1.2-4.9-2.4-9.8-3.7-14.7c-1.5-5.6-3.7-11-6.6-16
		c-0.2-0.3-0.4-0.7-0.7-1.1c-1.6,1.1-3.2,2-4.7,3.1c1.1,2.4,1.9,4.9,2.4,7.4c0.8,4.1,1.4,8.3,1.7,12.5c0.5,4.8,0.9,9.6,1.5,14.4
		c0.8,6.2,2.1,12.2,4,18.1c0.2,0.6,0.7,1.1,1.3,1.4c4.2,2.1,8.9,3.4,13.6,3.6C206.2,433.4,206.4,433.4,206.7,433.4L206.7,433.4z
		 M262.1,314.7l0.8,0.5c1.5,0.9,3.1,1.8,4.7,2.8c3.8,2.6,7.4,5.4,10.7,8.6c3.1,2.9,6.2,5.7,9.2,8.6c2.5,2.4,5,4.9,7.5,7.4
		c1.4,1.4,2.8,2.7,4.1,4.1l7.2,7c1.8,1.7,3.5,3.4,5.3,5c0.2,0.2,0.5,0.3,0.6,0.5c2.7-2.1,5.2-4.5,7.5-7.1c-0.1-0.1-0.3-0.3-0.4-0.4
		c-1.9-1.6-3.7-3.2-5.6-4.8c-2.2-1.9-4.3-3.8-6.5-5.8c-2.2-1.9-4.3-3.9-6.5-5.8c-2.4-2.1-4.9-4.3-7.3-6.4c-2.2-1.9-4.4-3.8-6.6-5.6
		s-4.6-3.7-6.9-5.6c-2.8-2.3-5.7-4.5-8.8-6.5c-0.6-0.4-1.2-0.7-1.9-1.1L262.1,314.7z M315.3,216.5l-9.4,7.9c0,0.3,0.1,0.5,0.2,0.8
		c0.9,3.7,1.8,7.4,2.8,11c2,7.4,4,14.9,5.2,22.5c1.1,5.9,1.5,12,1.2,18c0,0.2,0,0.3,0.1,0.5l10.3-6.2c0-1,0.1-1.9,0.1-2.9
		c-0.1-3.8-0.5-7.5-1.3-11.2c-1.4-7.3-3.2-14.5-5.1-21.6c-1.7-6-3-12.1-4-18.3C315.4,216.9,315.3,216.7,315.3,216.5L315.3,216.5z
		 M230.1,339.4c0.2,0.2,0.3,0.4,0.5,0.5c2.6,1.9,5,4.1,7.2,6.5c2.1,2.2,4,4.5,6,6.8c2.6,3.1,5,6.4,7.3,9.7c3.4,4.9,6.5,9.9,9.4,15.1
		c2.5,4.4,4.9,8.9,7.3,13.3c0.2,0.4,0.4,0.7,0.7,1.1l8.2-6.3c-0.2-0.3-0.3-0.5-0.4-0.8c-4.6-7.4-9.2-15-14.2-22.1
		c-1.6-2.3-3.3-4.5-5-6.7c-1.4-1.8-2.8-3.5-4.3-5.1c-2.2-2.5-4.5-4.9-6.8-7.2c-1.6-1.6-3.3-3.1-4.9-4.6s-3.4-2.9-5.1-4.4
		c-0.2-0.1-0.4-0.2-0.6-0.3L230.1,339.4z M359.6,180.1c0,0.1,0,0.2,0,0.3c0.1,0.7,0.3,1.4,0.5,2.1c1.6,6.3,3.5,12.5,5.7,18.6
		c2.1,5.9,4.3,11.8,5.9,17.8c1.4,4.8,2.2,9.7,2.5,14.6c0,0.2,0.1,0.3,0.1,0.5c0.4-0.3,0.7-0.5,1-0.8c2.1-2,4.2-3.9,6.4-5.9
		c0.4-0.4,0.7-0.9,0.7-1.5c0-4.9-0.7-9.8-1.9-14.5c-1.3-4.6-2.8-9.1-4.5-13.6c-2.8-7.1-5.1-14.3-7-21.7c-0.1-0.2-0.1-0.3-0.2-0.4
		C365.6,177,362.5,178.4,359.6,180.1L359.6,180.1z M331.5,200.6c0.1,0.3,0.1,0.5,0.2,0.6c1.1,2.5,2.1,5.1,3.2,7.6
		c2.5,5.5,4.7,11.2,6.6,16.9c3.2,10.1,5,20.4,4.1,31.1c0,0.2,0,0.4,0.1,0.6c3.2-2.3,6.3-4.7,9.3-7.1c0-0.1,0-0.3,0-0.4
		c-0.2-2.2-0.2-4.5-0.5-6.7c-1.3-9.4-3.6-18.7-6.7-27.7c-2.5-7.2-5.6-14.2-8.4-21.3c-0.1-0.2-0.2-0.3-0.3-0.5
		C336.4,196,333.9,198.3,331.5,200.6L331.5,200.6z M229.6,339.7l-4.2,3.6l0.7,0.7c1.5,1.7,3.1,3.3,4.5,5.1c2.1,2.6,4.1,5.3,6,8.1
		c3.1,4.4,6,9,8.8,13.6c5,8.4,9.7,16.9,14.1,25.6c0.4,0.8,0.8,1.6,1.3,2.5l7.2-6c-0.6-1.2-1.2-2.3-1.8-3.4c-3-5.4-5.9-10.8-9-16.1
		c-2.9-5.1-6.2-10-9.7-14.6c-2-2.6-4.1-5.3-6.2-7.8c-2.5-3-5.3-5.9-8.2-8.5C231.9,341.5,230.8,340.6,229.6,339.7z M315.9,215.8
		c0,0.4,0,0.6,0.1,0.9c0.2,1.2,0.4,2.5,0.5,3.7c1,5.9,2.6,11.7,4.1,17.5c1.9,6.9,3.6,13.9,4.8,21c0.7,3.7,1,7.4,0.8,11.2
		c0,0.2,0,0.4,0.1,0.5l7.8-5c0.1-0.3,0.1-0.4,0.1-0.5c0.7-5.5,0.6-11.1-0.2-16.6c-1.1-7-3-13.8-5.6-20.4c-2.2-5.6-4.5-11.2-6.8-16.8
		c-0.1-0.2-0.2-0.3-0.3-0.5L315.9,215.8z M349.4,186.2c0.1,0.4,0.2,0.8,0.3,1.1c1.4,4.4,3.2,8.6,5,12.8c2.2,4.9,4.4,9.8,6.1,14.9
		c3,8.3,4.7,17.1,4.9,26c0,0.2,0.1,0.4,0.1,0.5l7.9-6.9c0-0.8-0.1-1.6-0.1-2.4c-0.4-4.1-1.2-8.1-2.3-12.1
		c-1.6-6.1-3.7-11.9-5.8-17.8c-2.6-6.9-4.8-14-6.5-21.2c-0.1-0.2-0.1-0.4-0.2-0.6C355.6,182.2,352.4,184.1,349.4,186.2z
		 M203.1,360.9c0.2,0.2,0.3,0.4,0.4,0.5c0.8,1,1.7,2,2.5,3.1c2.6,3.4,5,6.9,7.2,10.5c4.2,7,8.4,14.1,12.7,21.1s8.4,13.7,13.1,20.3
		c0.5,0.8,1.1,1.5,1.7,2.3l3.6-3.6c-0.5-0.8-0.9-1.4-1.2-2.1c-5.8-10-11.2-20.2-16.5-30.5c-2.9-5.7-5.8-11.5-8.8-17.1
		c-1.5-2.9-3.2-5.6-5.1-8.3c-0.5-0.7-1.1-1.4-1.7-2.1L203.1,360.9z M369.4,175.2c0.1,0.6,0.2,1,0.3,1.4c1.5,5.8,3.3,11.5,5.4,17.1
		c1.8,4.9,3.5,9.7,5.1,14.7c1.8,5.5,2.7,11.2,2.6,17c0,0.2,0,0.4,0.1,0.7c0.3-0.2,0.5-0.4,0.7-0.6c2.1-2,4.2-4.1,6.4-6.1
		c0.6-0.5,0.8-1.2,0.8-1.9c-0.1-3.9-0.6-7.9-1.3-11.7c-1.1-5.9-2.7-11.6-4.8-17.2c-1.9-5.6-3.8-11.3-5.7-17
		c-0.1-0.2-0.2-0.4-0.3-0.6L369.4,175.2z M335.7,327.5c-0.2-0.1-0.3-0.2-0.4-0.3c-5.9-4.4-12-8.5-18.2-12.4
		c-9.2-5.8-18.9-10.8-29-14.8c-0.4-0.1-0.7-0.2-1.1-0.4c-1.9,1.1-3.8,2.1-5.7,3.3l1.2,0.7c4.6,2.4,9.1,4.9,13.5,7.6
		c5.9,3.7,11.6,7.6,17.2,11.7c3.5,2.6,7,5.3,10.4,8c2.3,1.8,4.6,3.6,6.9,5.5c0.2,0.2,0.5,0.3,0.8,0.5
		C332.9,333.8,334.4,330.7,335.7,327.5z M261.9,308.1c0.2,0,0.3-0.1,0.5-0.1c2.2-1.4,4.5-2.8,6.7-4.2c0.3-0.2,0.5-0.5,0.5-0.9
		c0.1-1.1,0.3-2.2,0.4-3.3c0.3-4,0.1-8.1-0.5-12c-0.8-5.7-2-11.3-3.5-16.8c-1.9-7.1-3.8-14.2-5.1-21.5c0-0.2-0.1-0.4-0.2-0.5
		l-10.1,4.3c0.2,0.4,0.3,0.8,0.4,1.1c1.7,4.3,3.4,8.6,5,13c2.9,8.1,4.9,16.5,6,25c0.7,5.1,0.7,10.3-0.1,15.4
		C262,307.7,261.9,307.9,261.9,308.1L261.9,308.1z M240.1,419.3c-0.1-0.2-0.2-0.4-0.3-0.5c-2.1-3-4.3-6-6.3-9.1
		c-3.9-6.2-7.7-12.4-11.6-18.7c-4-6.6-8-13.3-12.1-19.9c-1.9-3.2-4.1-6.2-6.5-9c-0.2-0.3-0.5-0.5-0.8-0.8c-2.2,1.5-4.2,3-6.4,4.5
		c0.2,0.3,0.4,0.5,0.6,0.7c2.4,2.4,4.7,5.1,6.6,7.9c2.1,2.8,4.1,5.7,6,8.6c4.7,7,9.1,14.2,13.4,21.5c3.7,6.3,7.4,12.7,11.1,19.1
		c0.1,0.2,0.3,0.5,0.5,0.8C236.4,422.7,238.3,421.1,240.1,419.3z M324.9,346.3c-0.4-0.4-0.6-0.7-0.9-0.9c-2.7-2.5-5.3-5.1-8-7.6
		c-1.6-1.5-3.2-3-4.8-4.5c-2.6-2.3-5.2-4.7-7.8-6.9c-3.2-2.6-6.4-5.2-9.7-7.6c-5.8-4.3-11.9-8.1-18.3-11.4c-0.2-0.1-0.5-0.3-0.8-0.4
		l-4.7,2.9l0.9,0.6c1.4,0.9,2.8,1.8,4.1,2.7c2.5,1.9,4.9,3.7,7.3,5.7c2.4,1.9,4.8,3.9,7.2,5.9c1.8,1.5,3.6,3,5.4,4.6
		c2,1.7,4,3.5,6,5.2c1.7,1.5,3.3,3,5,4.5l6.6,5.9l6,5.3c0.6,0.5,1.3,1,2,1.6L324.9,346.3z M275.1,306.5c0.5,0.3,0.8,0.5,1.1,0.6
		c5.4,2.8,10.6,6,15.5,9.5c5.3,3.7,10.3,7.7,15.2,12c3.2,2.9,6.4,5.7,9.5,8.7c2.8,2.6,5.4,5.2,8.2,7.8c0.2,0.2,0.5,0.4,0.8,0.7
		c2.2-2.5,4-5.2,5.5-8.2c-0.2-0.2-0.4-0.4-0.7-0.6c-2.2-1.8-4.5-3.7-6.8-5.4c-5.2-4-10.5-7.9-15.8-11.8c-8.4-6-17.2-11.4-26.3-16.2
		l-0.7-0.3L275.1,306.5z M291.4,375.7c-0.6-0.7-1.1-1.3-1.6-1.8c-1.7-2.2-3.5-4.4-5.1-6.7s-3.4-4.6-5-7c-2-2.9-4-5.9-6-8.8
		c-2.2-3.3-4.4-6.6-6.7-9.8c-1.6-2.3-3.3-4.5-5-6.8c-1.4-1.8-2.8-3.5-4.3-5.1c-1.9-2.1-3.9-4.2-5.8-6.2c-0.3-0.3-0.7-0.6-1-0.9
		c-2,1.5-4,2.9-6,4.5c0.9,0.9,1.8,1.6,2.6,2.4c3.5,3.3,6.7,6.9,9.7,10.6c2.7,3.5,5.3,7,7.8,10.6c3.6,5.1,7.1,10.4,10.8,15.5
		c3,4.2,6.2,8.2,9.3,12.4c0.2,0.3,0.5,0.6,0.9,0.9C287.8,378.3,289.5,377,291.4,375.7z M339.1,316.7l-0.6-0.4
		c-8.7-5.4-17.8-10-27.3-13.9c-5.8-2.4-11.7-4.3-17.7-5.8c-0.5-0.1-1-0.1-1.5,0.2c-1.2,0.7-2.4,1.4-3.5,2c-0.2,0.1-0.4,0.2-0.7,0.5
		l1,0.4c3,1.3,6.1,2.5,9.1,3.9c12.4,6,24.3,13.2,35.4,21.4l2.6,1.9C337.3,323.6,338.4,320.2,339.1,316.7z M399.1,210
		c0.3-0.2,0.5-0.4,0.6-0.6c1.3-1.4,2.6-2.9,4-4.2c0.4-0.4,0.7-1,0.7-1.6c0.5-7.9-0.3-15.9-2.3-23.5c-1.3-5.1-3.1-10.1-4.7-15.2
		c-0.1-0.2-0.2-0.3-0.2-0.4l-9,3.2c0.1,0.4,0.1,0.7,0.2,1.1c0.6,2.9,1.2,5.8,2,8.6c1.3,4.4,2.8,8.6,4.2,13
		c2.2,6.2,3.7,12.7,4.4,19.3C399.1,209.7,399.1,209.8,399.1,210L399.1,210z M379.5,170.9c0.1,0.4,0.1,0.6,0.2,0.8
		c1.1,3.4,2.1,6.7,3.3,10.1c1.8,5.3,3.8,10.6,5.2,16c1.9,6.4,2.9,13.1,3,19.8c0,0.2,0,0.4,0.1,0.6c0.3-0.3,0.5-0.5,0.7-0.7
		c2.1-2.1,4.2-4.3,6.3-6.4c0.3-0.3,0.5-0.7,0.4-1.2c-0.1-1.1-0.2-2.3-0.4-3.4c-1-6-2.5-12-4.7-17.7c-2.5-6.6-4.4-13.4-5.8-20.4
		c0-0.2-0.1-0.4-0.2-0.6L379.5,170.9z M176.2,378.9c0,0.3-0.1,0.5-0.1,0.6c-0.5,9.9,0.4,19.8,2.5,29.5c0.7,3.1,1.6,6.2,2.9,9.1
		c1.7,4,4.4,7.4,8,9.9c0.3,0.2,0.6,0.3,1,0.6c-0.1-0.5-0.2-0.8-0.3-1c-0.8-2.9-1.6-5.8-2.2-8.8c-1.4-7.1-2.4-14.2-2.9-21.4
		c-0.3-4.9-1-9.8-1.9-14.5c-0.4-2.1-1-4.1-1.8-6c-0.1-0.3-0.3-0.5-0.4-0.9L176.2,378.9z M174.4,373.5c-0.6-0.5-1.1-1-1.7-1.4
		c-2.4-1.7-4.9-3.2-7.6-4.4c-5.9-2.8-12-5.2-18.1-7.6c-8.2-3.2-16.6-6.2-24.6-9.9c-0.2-0.1-0.3-0.1-0.5-0.1c0,0.1,0,0.3,0.1,0.4
		c0.8,1.8,1.8,3.5,3.1,5c2.5,2.9,5.5,5.2,8.8,7c5.3,2.8,10.8,5.1,16.5,6.8c7.3,2.2,14.7,3.8,22.2,4.9
		C173.3,374.3,174,374,174.4,373.5z M405,203.7c0.3-0.3,0.4-0.4,0.5-0.5c1.7-1.9,3.4-3.8,5-5.7c0.3-0.3,0.4-0.7,0.5-1.2
		c0.2-1.4,0.4-2.8,0.5-4.1c0.7-10.4-1.1-20.8-5.2-30.3c-0.1-0.2-0.2-0.4-0.3-0.6l-8,2.8c0.1,0.5,0.2,0.8,0.4,1.2c1,3.1,2,6.2,3,9.3
		c3,9.1,4.2,18.6,3.6,28.1C404.9,203,405,203.2,405,203.7z M341.2,309.1c-0.5-0.2-0.8-0.5-1.2-0.6c-4.6-2.2-9.3-4.4-14-6.5
		c-7.4-3.3-14.9-6.5-22.3-9.7c-0.7-0.3-1.4-0.6-2.2-1l-8.2,4.6c16.6,4.1,31.5,11.4,46,20.1C340,313.7,340.6,311.5,341.2,309.1z
		 M343.1,302.4l-1.1-0.5c-7.7-3.6-15.5-6.8-23.4-9.7c-3.5-1.2-6.9-2.6-10.2-4.2c-0.1-0.1-0.3-0.1-0.5-0.1c-1.8,1.1-3.8,2-5.7,3.3
		c0.5,0.2,0.8,0.4,1.2,0.6c5.2,2.3,10.5,4.6,15.8,6.9c7.3,3.1,14.6,6.1,21.7,9.8c0.1,0.1,0.3,0.1,0.5,0.1L343.1,302.4z M440.2,162.1
		L440.2,162.1l3.2-2.6c3.6-3.1,7-6.3,10.3-9.8c1.4-1.5,1.4-1.5,1.7-3.5c0.7-4.6,1.5-9.1,2.6-13.6c0-0.1,0-0.3,0-0.4
		c-2.6,2.4-5.1,4.8-7.8,7s-5.6,4.2-8.6,6.4c-0.1,0.9-0.2,1.9-0.3,2.9s-0.2,2-0.4,3s-0.3,2.1-0.5,3.1s-0.4,2-0.6,3s-0.5,2-0.7,2.9
		c0.3-0.2,0.5-0.4,0.7-0.7c0.9-1.4,1.8-2.8,2.8-4.2c0.2-0.4,0.5-0.6,0.9-0.6c0.1,0.1,0.1,0.1,0.1,0.2
		C442.5,157.4,441.3,159.8,440.2,162.1L440.2,162.1z M413.1,158.8c4.2,9.8,5.2,19.9,4.3,30.4c0.1-0.1,0.3-0.2,0.4-0.3
		c1.5-1.9,3.1-3.8,4.6-5.6c0.5-0.6,0.8-1.3,0.8-2c0.3-4.2,0.2-8.4-0.1-12.6c-0.3-4-1.1-8-2.2-11.9c-0.1-0.3-0.2-0.6-0.3-0.9
		L413.1,158.8z M411.6,196l0.2,0.1l0.3-0.3c1.4-1.7,2.9-3.4,4.3-5.1c0.4-0.4,0.6-0.9,0.6-1.5c0.1-2.3,0.2-4.5,0.2-6.8
		c0.1-7.6-1.3-15.1-4.1-22.2c-0.2-0.4-0.3-0.8-0.5-1.3l-5.9,2.1C411.4,172.1,413.1,184.1,411.6,196L411.6,196z M313.4,284.6
		c0.2,0.1,0.4,0.2,0.6,0.3c1.7,0.6,3.5,1.4,5.2,1.9c8.4,2.7,17,5.1,25.5,7.4c0.2,0,0.4,0.1,0.6,0.1l2.1-5.6
		c-4.7-1.2-9.2-2.3-13.8-3.5c-4.6-1.2-9.1-2.7-13.4-4.5L313.4,284.6z M308.6,287.4c0.5,0.2,0.7,0.4,1,0.5c2.6,1,5.2,2.2,7.8,3.1
		c8.5,3.1,16.9,6.5,25.1,10.3c0.2,0.1,0.5,0.2,0.7,0.3c0.7-2.2,1.3-4.4,1.9-6.6c-10.9-3.1-21.9-5.8-32.4-10L308.6,287.4z
		 M350.2,282.4c-3.8-0.9-7.6-1.7-11.4-2.6c-3.7-1-7.4-2.2-10.9-3.8c-2.4,1.2-4.7,2.7-6.9,4.3c8.6,3.6,17.7,5.5,26.7,7.8L350.2,282.4
		z M418.5,193.4l2.4,0.2c6.8,0.5,13.6,0.2,20.3-0.7c0.6,0,1.2-0.3,1.5-0.9c1.4-2,2.9-4,4.3-6c0.1-0.3,0.3-0.5,0.4-0.8
		c-8.2,1.6-16.5,2.6-24.9,2.9L418.5,193.4z M435.1,170.2c3.5-0.3,15.6-5.1,18.2-7.2c0.5-4.4,1.1-9,1.6-13.7
		c-0.2,0.1-0.4,0.3-0.5,0.4c-0.5,0.5-0.9,1-1.4,1.5c-3,2.8-6,5.7-9.1,8.5c-0.9,0.9-2,1.6-3,2.4c-0.6,0.4-1.2,0.8-1.7,1.4
		C437.8,165.7,436.5,167.9,435.1,170.2L435.1,170.2z M421.2,155.6c2.6,8.5,3.1,17.1,2.6,25.9c1.4-1.6,2.6-3.2,3.9-4.8
		c0.5-0.7,0.9-1.5,0.9-2.3c0.7-7,0.3-14.1-1.1-21c0-0.2-0.1-0.3-0.2-0.5L421.2,155.6z M451.6,172.7l-0.2-0.2
		c-6.6,2.1-13.5,3.4-20.4,3.9c-1.2,1.9-2.5,3.6-3.7,5.4c7.7-0.2,15.3-1.3,22.8-3.1C450.6,176.7,451.1,174.7,451.6,172.7z
		 M426.9,182.2l-3.9,5.4l0.1,0.2c0.1-0.1,0.3-0.1,0.4-0.1c8-0.5,15.9-1.5,23.8-3c0.4-0.1,0.8-0.4,0.9-0.8c0.5-1.3,1-2.7,1.4-4
		c0-0.2,0-0.3,0-0.5C442.2,181,434.7,182.3,426.9,182.2L426.9,182.2z M434.5,200.6l-0.1-0.2c-6.5-0.3-13-1.2-19.3-2.6l-3.8,4.6
		c5.2,1.9,10.6,3.3,16.1,4.2L434.5,200.6z M431.3,175.9c6.9-0.5,13.7-1.9,20.3-4.1c0.7-2.5,1.1-5.2,1.3-7.8
		c-0.3,0.1-0.6,0.3-0.9,0.4c-4.9,2.7-10.2,4.7-15.6,6c-1.2,0.2-2.3,1-3,2.1C432.9,173.6,432.1,174.7,431.3,175.9L431.3,175.9z
		 M441.4,193.6l-0.1-0.2c-7.7,1.1-15.4,1.3-23.1,0.4c-0.9,1.2-1.9,2.2-2.7,3.5c1.4,0.3,2.7,0.5,4,0.7c4.9,0.9,9.9,1.5,14.9,1.7
		c0.6,0.1,1.2-0.2,1.6-0.6c1.1-1.1,2.3-2.2,3.4-3.3C440.1,195.2,440.8,194.4,441.4,193.6L441.4,193.6z M429.1,174.6l0.2,0.1
		c0.2-0.2,0.4-0.4,0.5-0.7c0.7-0.9,1.3-1.8,2-2.7c0.9-1.1,1.5-2.5,1.7-4c0.9-5.6,1.1-11.3,0.6-17c0-0.2-0.1-0.4-0.1-0.5l-5.9,3
		C429.6,159.9,429.9,167.3,429.1,174.6L429.1,174.6z M328.5,275.7c7.1,3.2,14.6,4.7,22,6.1c0.4-0.7,0.7-1.3,1-1.9
		c0.4-0.6,0.7-1.2,0.9-1.9c-6.3-1.3-12.3-3.3-18.1-6C332.4,273.2,330.5,274.4,328.5,275.7z M406.7,208c4.8,1.6,9.7,3,14.6,4.1
		c1.8-1.6,3.6-3.2,5.5-4.9c-2.8-0.7-5.4-1.2-8-2s-5.2-1.6-7.9-2.4L406.7,208z M335,271.6c2,1.5,15.3,5.8,18,5.8l2.2-3.8l-14.6-5.8
		L335,271.6z M401.8,213.7c0.1,0.1,0.3,0.2,0.4,0.2c4.1,1.3,8.2,2.5,12.4,3.4c0.4,0.1,0.8,0,1.1-0.3c1.6-1.3,3.2-2.7,4.7-4.1
		c0.1-0.1,0.1-0.2,0.2-0.3l-14.2-4.2C404.9,210.1,403.4,211.9,401.8,213.7z M408.4,222.8v-0.2c-4-1.2-8-2.1-12-2.8l-5.5,5.9
		c0.2,0.1,0.3,0.1,0.5,0.2c3.2,0.7,6.4,1.3,9.5,2c0.5,0.1,1,0,1.4-0.3c1.5-1.1,2.9-2.2,4.4-3.3L408.4,222.8z M367.2,247.4l-8.5,7
		c3.1,1.2,6,2.2,9,3l7.1-7.4L367.2,247.4z M433.9,168.2l0.2,0.1c1-1.4,2-2.9,3-4.3c0.6-0.9,1.1-1.9,1.4-3c1.3-4.6,2.1-9.4,2.4-14.2
		c0-0.2,0-0.5,0-0.8l-6.3,3.6C435.2,155.7,435,162,433.9,168.2z M346.7,263.5l-5.4,3.9c4.7,2.1,9.5,4,14.4,5.5l3.2-4.7L346.7,263.5z
		 M414.5,218l-13.1-3.8l-4.4,4.8l12.4,3L414.5,218z M400.7,228.6l-0.1-0.2c-3.4-0.7-6.9-1.6-10.3-2.2l-5.1,5.2l9.2,2L400.7,228.6z
		 M359.2,267.7c1.2-1.5,2.3-3,3.5-4.5l-10.8-3.6l-4.7,3.5L359.2,267.7z M363.1,262.7l4.1-4.7l-9.1-3.2l-5.5,4.3l0,0.2L363.1,262.7z
		 M393.7,233.9c-0.2-0.1-0.2-0.2-0.3-0.2c-2.7-0.8-5.4-1.4-8.1-1.7c-0.4,0-0.9,0.1-1.1,0.5l-4.3,4.1c-0.1,0.1-0.3,0.3-0.5,0.6
		l7.7,2.1L393.7,233.9z M367.8,247c2.6,1,5,1.8,7.6,2.6l5.4-5.1l-7.4-2.1C371.6,243.8,369.8,245.3,367.8,247z M378.7,237.6l-4.6,4.4
		c2.4,0.8,4.9,1.5,7.5,2l5-4.2L378.7,237.6z"/>
	<path class="st0" d="M145.2,243.9c-0.2-0.4-0.4-0.7-0.6-1.1c-2.9-4.7-6.2-9.2-9.8-13.5c-4-4.9-8.1-9.6-12.5-14.1
		c-4.5-4.7-10-8.5-16-11c-1-0.4-1.9-0.9-2.8-1.3c-0.3-0.1-0.5-0.3-0.8-0.5c0.1-0.5,0.2-0.9,0.3-1.4c0.6-1.7,1.3-3.3,2.3-4.8
		c2-3,4.2-5.9,6.6-8.6c4.2-5,9.2-9.1,14-13.6c4-3.7,7.9-7.6,11.6-11.7c3.6-3.9,7.1-7.9,10.4-12.1c2.4-3.1,4.7-6.3,6.9-9.5
		c1.9-2.7,3.8-5.4,5.6-8.2c2.1-3.2,4.2-6.4,6.4-9.5c1.6-2.4,3.2-4.7,4.8-7.1c3.5-5,7.2-10,11.2-14.7c10.7-12.7,23.4-23.5,37.6-32.2
		c7.5-4.5,15.3-8.6,23.3-12.3c11-5.2,22.4-9.7,33.7-14.4c9.3-3.7,18.4-8,27.2-12.8c8.9-4.9,17.5-10.3,25.8-16.1
		c3.1-2.3,6-4.9,8.6-7.8c1.7-1.8,3.4-3.7,5.1-5.6c0.1-0.1,0.2-0.2,0.3-0.2c0.6,0,0.7,0.5,0.9,0.9c0.5,1.6,1.1,3.3,1.5,4.9
		c4.2,15.6,4.7,31.9,1.3,47.7c-1.3,5.8-3,11.5-5.1,17.1c-2.5,7-4.1,14.2-4.6,21.6c-0.5,6-1.1,12-1.8,18c-0.2,1.5-0.5,3-0.7,4.5
		c-0.1,0.7-0.5,1.3-1.1,1.6c-0.4,0.2-0.8,0.4-1.2,0.6c-5.6,2.3-11.4,3.9-17.4,4.7c-3.8,0.5-7.5,0.8-11.3,1.3c-2.2,0.3-4.4,0.7-6.6,1
		c-0.4,0.1-0.7,0.2-1.1,0.3c0,0.1,0,0.2,0,0.3c1,0.6,1.9,1.3,2.9,1.8c3.8,1.9,7.7,3.6,11.6,5c3.5,1.1,6.8,2.5,10.1,4.1
		c1.7,0.9,3.3,1.9,4.9,2.8c0.5,0.3,0.9,0.6,1.3,1c-0.3,0.7-0.5,1.2-0.8,1.8c-4.2,8.7-9.5,16.8-15.7,24.1
		c-4.4,5.3-8.9,10.6-13.2,15.9c-5.8,7.2-10.3,15.3-13.6,24c-2.5,6.3-4.9,12.6-7.4,18.8c-2.7,6.7-5.8,13.3-9.3,19.6
		c-3,5.5-6.2,10.9-9.5,16.3c-4.3,6.9-9.1,13.5-14.4,19.7c-2.9,3.4-5.8,6.9-8.9,10.1c-8.8,9.6-18.5,18.2-29.1,25.8
		c-5.1,3.6-10.2,7.4-15.2,11.3c-3.7,2.8-7.1,5.9-10.1,9.4c-1.6,1.8-3.1,3.8-4.4,5.8c-2.7,4.1-5.2,8.1-7.7,12.3
		c-1.6,2.8-3,5.7-4.5,8.6c-1.4,2.6-2.8,5.2-4.2,7.8c-4.6,8.2-11.6,13.4-20.4,16.3c-5.6,1.9-11.5,2.8-17.4,2.9c-2.3,0-4.6,0-6.9,0.1
		c-5.1,0.2-10,1.2-14.8,3.1c-2.2,0.8-4.4,1.5-6.7,2.1c-4.8,1.3-9.4,0.3-13.8-1.9c-6-3-10.9-7.8-13.9-13.8c-2.2-4.3-4-8.7-5.4-13.4
		c-1.5-5.2-3-10.3-4-15.6c-0.1-0.3-0.2-0.6-0.3-0.8c-0.3,0.1-0.6,0.2-0.8,0.4c-10.2,6-20.7,11.3-31.6,16c-2.5,1.1-5,2.3-7.5,3.5
		c-2.3,1.1-5.1,0.9-7.3-0.5c-1.1-0.6-1.6-1.9-1-3c0.3-0.5,0.7-0.9,1.3-1.1c3-1.3,5.9-2.6,8.8-3.9c10-4.2,19.8-9,29.4-14.4
		c0.4-0.2,0.7-0.5,1.1-0.7l-0.1-0.2l-1.2-0.1c-5.7-0.2-11.4-0.3-17.1-0.9c-5.1-0.5-10.1-1.5-15.1-2.8c-3.4-0.8-6.5-2.5-9-4.9
		c-1.4-1.2-2.5-2.8-3.2-4.5c-2.9-6.6-4-13.8-3.4-20.9c0.7-7.1,2.7-14,5.9-20.4c2.7-5.2,6-10.1,9.9-14.5c5.7-6.7,12.7-11.8,20.2-16.3
		c5.9-3.5,12.1-6.6,18.2-9.7c7.1-3.5,14-7.6,20.4-12.2c3.6-2.6,7-5.6,10.1-8.8c3-3.2,5.4-6.8,7.4-10.8c0.3-0.7,0.7-1.3,1.1-2
		c0.5,0.2,1,0.2,1.3,0.4c5.4,2.4,10.9,4.8,16.3,7.3c3.4,1.7,6.7,3.7,9.8,6c2.6,1.8,5.1,3.7,7.8,5.4c4.3,2.8,8.8,5.1,13.6,7
		C143.2,243.7,144.2,243.9,145.2,243.9z"/>
	<path class="st1" d="M337.8,23.6l-0.2-0.1c-0.2,0.4-0.4,0.8-0.6,1.2c-5.6,11.3-12.1,22.1-19.5,32.4c-5.4,7.6-11.4,14.8-18,21.5
		c-5.1,5.1-10.3,10.2-15.5,15.2c-5.7,5.5-11.4,11.1-16.7,16.9c-4.9,5.3-9.6,10.8-14.1,16.4c-6.7,8.4-12.9,17.1-18.6,26.1
		c-3.6,5.6-7.2,11.3-10.8,17c-4,6.4-8,12.7-12.1,19.1s-8.3,12.8-12.6,19.1c-3.5,5.2-7.2,10.3-10.9,15.4c-6.5,8.7-12.9,17.4-19.6,26
		c-4.2,5.5-8.7,10.8-13.3,16c-4.3,5-8.9,9.7-13.6,14.3c-5.9,5.8-12.1,11.3-18.6,16.5c-8.2,6.6-16.7,12.7-25.4,18.6
		c-9.3,6.3-18.5,12.6-27.8,18.8c-5.6,3.7-11.1,7.6-16.7,11.1c-7.2,4.5-14.7,8.4-22.5,11.9c-6.5,3-13.1,5.9-19.7,8.8
		c-0.4,0.2-0.8,0.4-1.2,0.6c-0.2,0.6,0,1.3,0.6,1.5c1.8,0.9,3.6,1.4,5.6,0.5c3.8-1.7,7.6-3.4,11.3-5.2c9.5-4.2,18.8-9,27.8-14.3
		c6.4-3.8,12.4-8.1,18.4-12.3c10.6-7.3,21.2-14.5,31.8-21.9c10.4-7.2,20.4-15,29.9-23.3c12.6-11.3,24.2-23.7,34.4-37.1
		c11.3-14.7,22.3-29.6,32.7-44.9c3.8-5.7,7.6-11.5,11.2-17.3c3.3-5.2,6.6-10.6,9.9-15.8c3.9-6.3,7.8-12.6,11.8-18.9
		c3.3-5.3,6.8-10.6,10.3-15.8c4.4-6.5,9.1-12.7,14.1-18.6c3.7-4.3,7.3-8.6,11.1-12.7c5.9-6.6,12.3-12.7,18.6-18.9
		c3.5-3.5,7.1-7,10.6-10.6c2.2-2.2,4.3-4.5,6.4-6.8c1.9-2.1,3.8-4.2,5.6-6.4c0.8-1,1.6-2,2.4-3c3.3-4,6.3-8.2,9.2-12.6
		c2.8-4.2,5.3-8.5,7.6-13c2.4-4.6,4.6-9.4,6.4-14.2C337.5,24.5,337.7,24.1,337.8,23.6z"/>
	<path d="M145.2,243.9c-0.2-0.4-0.4-0.7-0.6-1.1c-2.9-4.7-6.2-9.2-9.8-13.5c-4-4.9-8.1-9.6-12.5-14.1c-4.5-4.7-10-8.5-16-11
		c-1-0.4-1.9-0.9-2.8-1.3c-0.3-0.1-0.5-0.3-0.8-0.5c0.1-0.5,0.2-0.9,0.3-1.4c0.6-1.7,1.3-3.3,2.3-4.8c2-3,4.2-5.9,6.6-8.6
		c4.2-5,9.2-9.1,14-13.6c4-3.7,7.9-7.6,11.6-11.7c3.6-3.9,7.1-7.9,10.4-12.1c2.4-3.1,4.7-6.3,6.9-9.5c1.9-2.7,3.8-5.4,5.6-8.2
		c2.1-3.2,4.2-6.4,6.4-9.5c1.6-2.4,3.2-4.7,4.8-7.1c3.5-5,7.2-10,11.2-14.7c10.7-12.7,23.4-23.5,37.6-32.2
		c7.5-4.5,15.3-8.6,23.3-12.3c11-5.2,22.4-9.7,33.7-14.4c9.3-3.7,18.4-8,27.2-12.8c8.9-4.9,17.5-10.3,25.8-16.1
		c3.1-2.3,6-4.9,8.6-7.8c1.7-1.8,3.4-3.7,5.1-5.6c0.1-0.1,0.2-0.2,0.3-0.2c0.6,0,0.7,0.5,0.9,0.9c0.5,1.6,1.1,3.3,1.5,4.9
		c4.2,15.6,4.7,31.9,1.3,47.7c-1.3,5.8-3,11.5-5.1,17.1c-2.5,7-4.1,14.2-4.6,21.6c-0.5,6-1.1,12-1.8,18c-0.2,1.5-0.5,3-0.7,4.5
		c-0.1,0.7-0.5,1.3-1.1,1.6c-0.4,0.2-0.8,0.4-1.2,0.6c-5.6,2.3-11.4,3.9-17.4,4.7c-3.8,0.5-7.5,0.8-11.3,1.3c-2.2,0.3-4.4,0.7-6.6,1
		c-0.4,0.1-0.7,0.2-1.1,0.3c0,0.1,0,0.2,0,0.3c1,0.6,1.9,1.3,2.9,1.8c3.8,1.9,7.7,3.6,11.6,5c3.5,1.1,6.8,2.5,10.1,4.1
		c1.7,0.9,3.3,1.9,4.9,2.8c0.5,0.3,0.9,0.6,1.3,1c-0.3,0.7-0.5,1.2-0.8,1.8c-4.2,8.7-9.5,16.8-15.7,24.1
		c-4.4,5.3-8.9,10.6-13.2,15.9c-5.8,7.2-10.3,15.3-13.6,24c-2.5,6.3-4.9,12.6-7.4,18.8c-2.7,6.7-5.8,13.3-9.3,19.6
		c-3,5.5-6.2,10.9-9.5,16.3c-4.3,6.9-9.1,13.5-14.4,19.7c-2.9,3.4-5.8,6.9-8.9,10.1c-8.8,9.6-18.5,18.2-29.1,25.8
		c-5.1,3.6-10.2,7.4-15.2,11.3c-3.7,2.8-7.1,5.9-10.1,9.4c-1.6,1.8-3.1,3.8-4.4,5.8c-2.7,4.1-5.2,8.1-7.7,12.3
		c-1.6,2.8-3,5.7-4.5,8.6c-1.4,2.6-2.8,5.2-4.2,7.8c-4.6,8.2-11.6,13.4-20.4,16.3c-5.6,1.9-11.5,2.8-17.4,2.9c-2.3,0-4.6,0-6.9,0.1
		c-5.1,0.2-10,1.2-14.8,3.1c-2.2,0.8-4.4,1.5-6.7,2.1c-4.8,1.3-9.4,0.3-13.8-1.9c-6-3-10.9-7.8-13.9-13.8c-2.2-4.3-4-8.7-5.4-13.4
		c-1.5-5.2-3-10.3-4-15.6c-0.1-0.3-0.2-0.6-0.3-0.8c-0.3,0.1-0.6,0.2-0.8,0.4c-10.2,6-20.7,11.3-31.6,16c-2.5,1.1-5,2.3-7.5,3.5
		c-2.3,1.1-5.1,0.9-7.3-0.5c-1.1-0.6-1.6-1.9-1-3c0.3-0.5,0.7-0.9,1.3-1.1c3-1.3,5.9-2.6,8.8-3.9c10-4.2,19.8-9,29.4-14.4
		c0.4-0.2,0.7-0.5,1.1-0.7l-0.1-0.2l-1.2-0.1c-5.7-0.2-11.4-0.3-17.1-0.9c-5.1-0.5-10.1-1.5-15.1-2.8c-3.4-0.8-6.5-2.5-9-4.9
		c-1.4-1.2-2.5-2.8-3.2-4.5c-2.9-6.6-4-13.8-3.4-20.9c0.7-7.1,2.7-14,5.9-20.4c2.7-5.2,6-10.1,9.9-14.5c5.7-6.7,12.7-11.8,20.2-16.3
		c5.9-3.5,12.1-6.6,18.2-9.7c7.1-3.5,14-7.6,20.4-12.2c3.6-2.6,7-5.6,10.1-8.8c3-3.2,5.4-6.8,7.4-10.8c0.3-0.7,0.7-1.3,1.1-2
		c0.5,0.2,1,0.2,1.3,0.4c5.4,2.4,10.9,4.8,16.3,7.3c3.4,1.7,6.7,3.7,9.8,6c2.6,1.8,5.1,3.7,7.8,5.4c4.3,2.8,8.8,5.1,13.6,7
		C143.2,243.7,144.2,243.9,145.2,243.9z M337.8,23.6l-0.2-0.1c-0.2,0.4-0.4,0.8-0.6,1.2c-5.6,11.3-12.1,22.1-19.5,32.4
		c-5.4,7.6-11.4,14.8-18,21.5c-5.1,5.1-10.3,10.2-15.5,15.2c-5.7,5.5-11.4,11.1-16.7,16.9c-4.9,5.3-9.6,10.8-14.1,16.4
		c-6.7,8.4-12.9,17.1-18.6,26.1c-3.6,5.6-7.2,11.3-10.8,17c-4,6.4-8,12.7-12.1,19.1s-8.3,12.8-12.6,19.1
		c-3.5,5.2-7.2,10.3-10.9,15.4c-6.5,8.7-12.9,17.4-19.6,26c-4.2,5.5-8.7,10.8-13.3,16c-4.3,5-8.9,9.7-13.6,14.3
		c-5.9,5.8-12.1,11.3-18.6,16.5c-8.2,6.6-16.7,12.7-25.4,18.6c-9.3,6.3-18.5,12.6-27.8,18.8c-5.6,3.7-11.1,7.6-16.7,11.1
		c-7.2,4.5-14.7,8.4-22.5,11.9c-6.5,3-13.1,5.9-19.7,8.8c-0.4,0.2-0.8,0.4-1.2,0.6c-0.2,0.6,0,1.3,0.6,1.5c1.8,0.9,3.6,1.4,5.6,0.5
		c3.8-1.7,7.6-3.4,11.3-5.2c9.5-4.2,18.8-9,27.8-14.3c6.4-3.8,12.4-8.1,18.4-12.3c10.6-7.3,21.2-14.5,31.8-21.9
		c10.4-7.2,20.4-15,29.9-23.3c12.6-11.3,24.2-23.7,34.4-37.1c11.3-14.7,22.3-29.6,32.7-44.9c3.8-5.7,7.6-11.5,11.2-17.3
		c3.3-5.2,6.6-10.6,9.9-15.8c3.9-6.3,7.8-12.6,11.8-18.9c3.3-5.3,6.8-10.6,10.3-15.8c4.4-6.5,9.1-12.7,14.1-18.6
		c3.7-4.3,7.3-8.6,11.1-12.7c5.9-6.6,12.3-12.7,18.6-18.9c3.5-3.5,7.1-7,10.6-10.6c2.2-2.2,4.3-4.5,6.4-6.8c1.9-2.1,3.8-4.2,5.6-6.4
		c0.8-1,1.6-2,2.4-3c3.3-4,6.3-8.2,9.2-12.6c2.8-4.2,5.3-8.5,7.6-13c2.4-4.6,4.6-9.4,6.4-14.2C337.5,24.5,337.7,24.1,337.8,23.6z
		 M105.1,308.5c-0.3-0.2-0.5-0.4-0.8-0.6c-2.5-1.1-4.9-2.4-7.5-3.3c-5.1-1.8-10.2-3.4-15.4-5C70,296,58.7,292,48.2,286.2
		c-4.2-2.3-8.3-4.8-12.2-7.6c-3.5-2.5-6.9-5.2-10.1-8.2c-0.2-0.2-0.5-0.4-0.8-0.6c-3.9,2.6-12.3,12-13.1,14.5l1.2,0.9
		c5.1,3.8,10.6,7,16.4,9.5c8.2,3.6,16.6,6.4,25.2,8.5c6.9,1.8,13.9,3.5,20.9,5.3c6.1,1.6,12,3.7,17.7,6.5c0.4,0.2,0.8,0.4,1.3,0.6
		L105.1,308.5z M156.4,262.6c-0.3-0.3-0.4-0.4-0.6-0.6c-3-2.8-6.3-5.2-9.9-7.2c-4-2.4-8.2-4.4-12.6-6.1c-7.5-2.9-15.1-5.7-22.6-8.5
		s-15-5.8-22.3-9.2l-2-0.9c-3.3,3.6-6.9,6.8-10.9,9.7c0.2,0.2,0.5,0.4,0.7,0.6c0.8,0.4,1.5,0.8,2.3,1.2c6.6,3.3,13.4,6.1,20.3,8.4
		c6.8,2.3,13.6,4.3,20.4,6.5c7,2.2,13.7,4.7,19.8,8.9c2,1.4,3.9,2.9,5.7,4.6c0.9,0.8,1.7,1.6,2.6,2.5
		C150.5,269.2,153.4,266,156.4,262.6z M226.7,163.1c0-0.2-0.1-0.3-0.1-0.4c-0.1-0.2-0.3-0.5-0.4-0.7c-2.7-4.3-6-8.2-9.8-11.6
		c-3.2-3.1-6.6-6-9.8-9.1s-6.4-6.1-9.5-9.3c-6.6-6.8-12.7-14.2-18.1-22c-0.2-0.2-0.4-0.4-0.6-0.8c-3.4,4.3-6.4,8.8-9.5,13.4
		c1.2,1.5,2.4,3,3.6,4.4c5,5.8,10.5,11.2,16.4,16.1c3.6,3.1,7.3,6,11.1,9c4.1,3.2,8.1,6.4,12,9.9c3.1,2.7,5.9,5.8,8.3,9.1
		c0.2,0.3,0.4,0.6,0.8,1.1C223,169,224.8,166,226.7,163.1L226.7,163.1z M252.6,125.6c0.3-0.3,0.5-0.5,0.7-0.7
		c2.5-2.9,4.9-5.8,7.4-8.7c0.4-0.5,0.7-1.1,0.7-1.8c0.2-2.7,0.1-5.5-0.3-8.2c-0.7-4.5-2.1-8.9-4.2-13c-2.1-4.2-4.4-8.3-6.7-12.3
		c-3.8-6.4-7-13.2-9.4-20.3c-0.1-0.2-0.2-0.4-0.3-0.6c-4.6,2.1-9,4.4-13.3,6.8c0,0.2,0,0.5,0.1,0.7c0.4,1.7,0.8,3.4,1.3,5.1
		c2.3,7.6,5.6,14.9,9.7,21.6c2.5,4.3,5.2,8.5,7.6,12.8c3.2,5.5,5.4,11.6,6.5,17.9C252.4,125.2,252.5,125.4,252.6,125.6L252.6,125.6z
		 M238.1,145.2c0.2-0.2,0.4-0.3,0.5-0.5c2.1-2.9,4.1-5.8,6.1-8.7c0.4-0.4,0.5-1,0.2-1.5c-0.9-2-1.7-4.1-2.7-6.1
		c-2.2-4-4.8-7.8-7.7-11.3c-4.3-5.4-8.3-11.1-12.1-16.9c-4.5-7.2-8.2-14.8-10.1-23.2c-0.1-0.2-0.2-0.4-0.3-0.6
		c-4.1,2.9-8.1,6-11.9,9.3c0.1,0.4,0.1,0.6,0.2,0.9c1.4,3.6,2.6,7.2,4.2,10.7c3.6,7.8,8.2,15.1,13.7,21.6c3.9,4.8,7.9,9.4,11.8,14.2
		c3.1,3.6,5.7,7.6,7.6,11.9C237.9,144.9,238,145.1,238.1,145.2L238.1,145.2z M146.5,282.6l0.1,0.2l1,0c2.8,0.2,5.7,0.3,8.5,0.6
		c7.7,1,15.3,2.9,22.6,5.8c7.7,2.8,15,6.3,22.4,9.8c4.7,2.3,9.7,4.3,14.7,5.8c0.4,0.1,0.9,0.2,1.4,0.4c4.4-3.8,8.6-7.7,12.7-11.9
		l-1.1-0.2c-1.7-0.3-3.5-0.6-5.2-1c-4.6-1.2-9.2-2.8-13.6-4.7c-5.8-2.3-11.6-4.7-17.5-6.9c-7.6-2.9-15.6-4.6-23.8-5.2
		c-5.1-0.4-10.2-0.1-15.2,0.8c-0.8,0.1-1.6,0.5-2.1,1.1c-1.4,1.5-2.9,3-4.3,4.5C147,282.1,146.8,282.3,146.5,282.6z M176.4,237.3
		c-0.1-0.3-0.1-0.4-0.1-0.4c-0.2-0.3-0.3-0.5-0.5-0.8c-4.5-6.5-9.9-12.3-16.1-17.1c-2.3-1.8-4.7-3.5-7.2-5.1c-3-1.9-6.1-3.8-9.3-5.4
		c-5.3-2.8-10.8-5.4-16.2-8.1c-4.3-2.2-8.5-4.7-12.4-7.5c-1.1-0.8-2.1-1.5-3.3-2.3c-2.9,3.6-5.8,7-7.1,11.5c0.1,0.1,0.3,0.2,0.4,0.3
		c4.3,1.7,8.5,3.8,12.9,5.5c5.6,2.3,11.1,4.9,16.4,7.9c3.7,2,7.3,4.3,10.7,6.7c5.7,4,11.1,8.5,16.1,13.5c3,3,5.7,6.3,8,9.9
		c0.2,0.3,0.4,0.6,0.6,1C171.8,243.6,174,240.4,176.4,237.3z M146.9,273c-0.2-0.3-0.4-0.6-0.7-0.8c-0.6-0.6-1.2-1.1-1.8-1.7
		c-3.3-3.1-7-5.7-11.1-7.8c-3.7-1.9-7.6-3.5-11.6-4.7c-6.6-2.1-13.2-4.1-19.7-6.2c-7.5-2.4-14.9-5.3-22-8.8
		c-1.7-0.8-3.4-1.7-5.2-2.6l-8.7,5.7l1,0.8c5.2,3.8,10.8,7.1,16.7,9.7c9.1,4.3,18.4,8.1,27.9,11.4c5.6,2,11.1,4,16.6,6.1
		c3,1.1,5.9,2.5,8.6,4.2c0.9,0.6,1.8,1.2,2.9,1.9L146.9,273z M212.9,75.7c0,0.2,0,0.3,0,0.4c0.1,0.3,0.1,0.5,0.2,0.8
		c0.9,3.7,2.1,7.3,3.6,10.7c3.2,7.1,7.2,13.9,11.8,20.1c3.1,4.3,6.4,8.4,9.5,12.7c3.1,4.1,5.6,8.6,7.4,13.4c0.1,0.2,0.2,0.3,0.3,0.5
		c0.1-0.1,0.3-0.2,0.4-0.4c1.8-2.3,3.6-4.7,5.4-7c0.3-0.4,0.4-1,0.3-1.5c-0.4-1.7-0.6-3.4-1.1-5.1c-1.5-5.4-3.8-10.6-6.8-15.4
		c-2.3-3.9-4.7-7.7-7-11.6c-4.8-8-8.3-16.6-10.5-25.6c-0.1-0.2-0.1-0.4-0.2-0.6C221.7,69.9,217.3,72.7,212.9,75.7z M227.1,162.2
		c0.4-0.5,0.7-0.9,0.9-1.2c1.4-2.2,2.8-4.6,4.3-6.8c0.6-0.7,0.6-1.7,0.2-2.5c-2-4.4-4.6-8.4-7.8-12.1c-4.2-5-9-9.5-13.7-14.1
		c-3.2-3.1-6.4-6.2-9.6-9.3c-4.6-4.5-8.9-9.2-13.1-14.1l-2.2-2.6c-2.6,2.8-5.1,5.8-7.4,8.9c0.3,0.4,0.5,0.8,0.7,1.1
		c8.5,12.1,18.3,23.2,29.3,33c3.1,2.9,6.3,5.8,9.4,8.7c3.2,3,6,6.4,8.4,10.1C226.7,161.6,226.9,161.8,227.1,162.2L227.1,162.2z
		 M194.8,222.7l1.5-0.2c7.7-1.1,15.5-1.2,23.2-0.2c9.4,1.3,18.5,3.9,27.2,7.5c5.7,2.3,11.3,5,16.6,8.2c0.2,0.1,0.5,0.2,0.8,0.2
		c1.1-5.1,2.2-10.2,3.4-15.3l-2.4-1.2c-5.7-3.1-11.7-5.5-17.8-7.4c-15.4-4.7-30.8-4.3-46.1,0.2c-0.6,0.2-1.2,0.6-1.5,1.1
		c-1.4,2-2.8,4.1-4.2,6.1C195.2,221.9,195.1,222.2,194.8,222.7z M210,189.6c-0.3-0.4-0.5-0.8-0.7-1.1c-2.4-3.2-5.2-6-8.4-8.4
		c-4.6-3.6-9.7-6.6-14.5-9.8c-3.7-2.5-7.5-4.9-11.1-7.6c-3.3-2.5-6.6-5.1-9.7-7.8c-2.9-2.6-5.7-5.3-8.6-8c-0.9-0.9-1.8-1.8-2.7-2.8
		l-9.4,12.4c0.7,0.6,1.4,1.3,2.1,1.9c3.1,2.3,6.1,4.6,9.3,6.8s6.5,4.3,9.8,6.3c3.5,2.2,7,4.2,10.6,6.4c3.2,1.9,6.4,3.8,9.7,5.7
		c3.5,2,6.9,4.1,10.2,6.4c2.8,2,5.4,4.4,7.6,7.1c0.2,0.2,0.4,0.4,0.6,0.6L210,189.6z M324,144.6c-0.4-0.1-0.6-0.2-0.9-0.2
		c-3.3-0.6-6.6-1.2-9.9-1.9c-6.7-1.5-13.5-3.1-20.2-4.5c-7.7-1.7-15.6-2.4-23.4-2.1c-7.3,0.5-14.4,2.2-21.2,5
		c-0.7,0.2-1.2,0.6-1.6,1.2c-1.8,2.7-3.6,5.3-5.4,7.9c-0.2,0.3-0.3,0.5-0.4,0.8c0.6-0.2,0.9-0.3,1.2-0.4c5.7-2.3,11.7-3.6,17.9-3.7
		c5,0,10,0.4,14.9,1.1c8.2,1.1,16.3,2.9,24.4,4.6c5.5,1.2,11,2.1,16.5,2.8c0.4,0,0.9,0,1.3,0.1C319.8,151.9,322,148.3,324,144.6
		L324,144.6z M166.2,356.4c-0.4-0.2-0.7-0.3-1-0.4c-3.5-1.5-6.8-3.4-9.8-5.6c-3-2.2-5.8-4.5-8.5-7c-2.5-2.2-5.1-4.3-7.6-6.5
		c-4.7-4-9.8-7.5-15.2-10.4c-7.3-3.8-15.5-5.8-23.8-5.9c-0.6,0-1.2,0.1-1.7,0.5c-1.7,1.2-3.5,2.4-5.2,3.5c-0.2,0.2-0.4,0.4-0.6,0.5
		l1.2,0.4c2,0.6,4.1,1.2,6.1,1.9c8.7,3.1,16.8,7.6,24.1,13.3c5.9,4.5,11.6,9.3,17.3,14c4.5,3.9,9.4,7.4,14.4,10.6
		c1.5,0.9,3,1.6,4.6,2.5C162.6,364,164.3,360.2,166.2,356.4z M196.4,209.9c-0.2-0.4-0.4-0.7-0.6-1c-2.3-3.6-5.1-6.8-8.4-9.5
		c-3.6-2.9-7.4-5.5-11.5-7.8c-4.2-2.3-8.3-4.6-12.5-7c-2.5-1.4-5-2.8-7.4-4.3s-5.1-3.2-7.5-4.8c-3.6-2.3-6.8-5.1-9.7-8.2l-1.9-2.1
		l-7.7,7.7c0.2,0.3,0.4,0.6,0.7,0.9c2.1,2.1,4.2,4.4,6.4,6.4c4.2,3.6,8.7,6.9,13.4,9.7c3.1,1.9,6.3,3.7,9.5,5.6
		c4.4,2.6,8.9,5.1,13.3,7.7c3.3,1.8,6.3,4,9.2,6.5c3,2.7,5.5,5.9,7.3,9.6c0.1,0.2,0.3,0.4,0.5,0.7L196.4,209.9z M53.4,252.9
		c0.1,0.2,0.2,0.3,0.4,0.4c1.6,1.2,3.1,2.5,4.8,3.6c3.7,2.3,7.5,4.4,11.5,6.1c6.7,3,13.6,5.5,20.5,7.9c9,3.1,18,6.1,26.8,9.8
		c4.6,1.8,9,4.2,13,7.2c0.2,0.1,0.3,0.2,0.5,0.3c1.5-0.9,7.8-6.8,8.2-7.7c-0.3-0.2-0.6-0.5-0.9-0.7c-2.1-1.4-4.3-2.6-6.7-3.6
		c-4.7-2.1-9.5-3.9-14.4-5.5c-12.6-4.1-24.9-9.1-36.8-14.9c-4-1.9-7.8-4.2-11.4-6.7c-1.2-0.8-2.2-1.7-3.3-2.5L53.4,252.9z
		 M160.1,368.3l-0.9-0.5c-2.3-1.3-4.7-2.5-6.9-3.9c-4.4-3-8.7-6.3-12.8-9.8c-5.3-4.3-10.5-8.8-16-12.9c-5.8-4.3-12-8-18.6-11
		c-4-1.8-8.1-3.2-12.3-4.2c-0.7-0.2-1.4-0.1-2,0.4c-0.8,0.6-1.8,1.2-2.6,1.8c-0.2,0.2-0.4,0.4-0.6,0.6c0.3,0.1,0.5,0.2,0.7,0.3
		c6.3,2.4,11.7,6.2,16.7,10.5c3.4,2.9,6.6,5.9,9.8,8.9s6.3,5.9,9.4,8.8c3.5,3.3,7.1,6.6,10.9,9.6c4.7,3.7,9.7,6.9,15.1,9.5
		c0.9,0.5,1.9,0.8,2.8,1.3C155.7,374.8,158.1,371.6,160.1,368.3z M105.7,307.9c2.1-1.2,4-2.7,5.8-4.3c-0.2-0.2-0.4-0.4-0.6-0.5
		c-1-0.6-2-1.2-3-1.7c-4.1-2.2-8.3-4.1-12.7-5.7c-5.8-2.2-11.7-4.3-17.4-6.6c-7.2-2.8-14.1-6.4-20.4-10.8
		c-6.7-4.6-12.7-10-17.9-16.1c-0.3-0.4-0.7-0.8-1.1-1.2c-4.4,2.5-8.5,5.3-12.4,8.4c0.1,0.2,0.2,0.3,0.4,0.5c0.8,0.7,1.6,1.5,2.4,2.2
		c5,4.3,10.4,8.2,16.2,11.5c5.2,3,10.5,5.7,16,8c7.9,3.3,16,6,24.1,8.5c4.2,1.3,8.4,2.7,12.6,4.2
		C100.3,305.2,102.9,306.6,105.7,307.9z M142.4,384.6c-0.2-0.2-0.4-0.3-0.7-0.4c-2.9-1.4-5.6-3.1-8.1-5c-3.4-2.5-6.7-5.3-9.8-8.2
		c-3.2-3.2-6.5-6.3-9.7-9.5c-4.6-4.6-9.1-9.3-13.7-14c-3.2-3.3-6.7-6.3-10.5-9c-2.6-1.8-5.3-3.4-8.2-4.7c-0.7-0.4-1.5-0.3-2.1,0.2
		c-1.8,1.3-3.6,2.5-5.4,3.8c-0.2,0.2-0.4,0.4-0.7,0.6l0.7,0.5c1.3,0.8,2.7,1.5,4,2.4c5.1,3.5,9.7,7.7,13.7,12.5
		c3.4,4.1,6.8,8.3,10.2,12.4c5,6.4,10.8,12,17.2,16.9c2.4,1.7,4.9,3.2,7.3,4.8c0.5,0.3,1.1,0.5,1.7,0.4c4.4-0.5,8.8-1.5,13-3.1
		C141.7,384.9,141.9,384.8,142.4,384.6z M111.8,189.9c0.3,0.3,0.6,0.5,0.9,0.7l3.5,2.4c3.7,2.6,7.6,4.8,11.6,6.9
		c6.1,3.1,12.3,6.1,18.3,9.4c3.3,1.8,6.4,3.7,9.5,5.8c4.5,3,8.6,6.4,12.3,10.3c3.2,3.2,6,6.8,8.5,10.5c0.2,0.2,0.3,0.4,0.5,0.6
		l6.1-8c-0.2-0.5-0.3-0.9-0.5-1.4c-0.9-2-2.1-3.8-3.4-5.5c-3.9-5-8.8-8.8-14-12.4c-4.5-3-9.3-5.8-14.2-8.2
		c-5.2-2.7-10.4-5.5-15.3-8.6c-4.9-3-9.5-6.6-13.7-10.5l-1.3-1.2C117.4,183.6,114.5,186.6,111.8,189.9L111.8,189.9z M87,229.5
		c0.5,0.2,0.8,0.4,1.1,0.6c3.1,1.4,6.2,2.8,9.3,4.1c8.2,3.5,16.7,6.5,25.1,9.6c7.3,2.7,14.7,5.4,21.6,9.2c4.4,2.4,8.5,5.2,12.2,8.6
		c0.2,0.2,0.5,0.3,0.7,0.5c2.5-3.1,5-6.1,7.5-9.1c-0.1-0.2-0.2-0.4-0.3-0.6c-0.2-0.2-0.4-0.4-0.6-0.6c-2.7-2.2-5.4-4.3-8.4-6.2
		c-3.2-2-6.5-3.7-9.9-5.2c-0.2-0.1-0.4-0.1-0.6-0.1c0.7,1.7,1.9,3.1,2.2,5c-0.5,0-0.9,0-1.4-0.1c-1.2-0.3-2.5-0.6-3.7-1
		c-4.7-1.8-9.1-4-13.3-6.8c-2.5-1.6-5-3.4-7.5-5.1s-5.2-3.5-7.9-5.1c-3.6-2.1-7.4-3.9-11.3-5.5c-2.6-1.2-5.2-2.2-7.8-3.3
		c-0.1,0-0.2,0-0.4,0C92.1,222.5,89.8,226.2,87,229.5z M137.5,164.5c1.8,2.4,3.9,4.6,6.2,6.4c6,4.9,12.6,8.8,19.3,12.6
		c5.2,2.9,10.4,5.8,15.6,8.8c3.5,2,6.8,4.3,9.9,7c3.1,2.6,5.7,5.7,7.9,9.1c0.2,0.2,0.3,0.4,0.6,0.6c2.4-3.6,4.8-7.2,7.2-10.7
		c-0.2-0.3-0.3-0.6-0.5-0.7c-2.7-3.2-5.8-6-9.4-8.3c-2.6-1.7-5.3-3.3-8-4.9s-5.4-3.2-8.1-4.8c-2.9-1.7-5.7-3.4-8.6-5.1s-5.4-3.3-8-5
		c-3.6-2.4-7.3-4.8-10.8-7.3c-2-1.4-3.8-3-5.6-4.5c-0.3-0.3-0.7-0.5-1.1-0.8L137.5,164.5z M153.7,275.2l0.1,0.2l1-0.1
		c1.2-0.2,2.4-0.4,3.6-0.5c7.2-0.6,14.5-0.2,21.6,1.4c6.8,1.5,13.4,3.6,19.8,6.2c5.6,2.2,11.1,4.5,16.6,6.7
		c4.2,1.7,8.7,2.9,13.2,3.5c0.7,0.1,1.4-0.1,1.8-0.7c1.1-1.2,2.3-2.4,3.5-3.7c0.7-0.8,1.4-1.6,2.2-2.5c-0.5-0.1-0.8-0.2-1.1-0.3
		c-4.8-1.2-9.6-2.8-14.1-4.9c-4.8-2.2-9.6-4.6-14.4-6.8c-6.5-3.1-13.3-5.6-20.3-7.4c-7.7-2.1-15.8-2.5-23.7-1.2
		c-0.7,0.1-1.4,0.5-1.9,1.1c-2.4,2.8-4.8,5.5-7.2,8.2L153.7,275.2z M154.7,143.4c0.1,0.2,0.3,0.4,0.4,0.5c1.8,1.8,3.6,3.6,5.4,5.4
		c3.2,3.1,6.5,6.1,10,8.9c6.6,5.2,13.4,10,20.5,14.3c4,2.4,7.8,5.1,11.4,8c2.1,1.7,4,3.5,5.7,5.6c0.7,0.9,1.4,1.8,2.2,2.8
		c2-3.2,4-6.2,5.9-9.4c-0.3-0.5-0.6-1-0.9-1.4c-2.5-3.5-5.6-6.6-9.1-9.2c-5.2-3.9-10.6-7.6-16.1-10.9c-2.8-1.8-5.5-3.5-8.2-5.4
		c-7.5-5.2-14.2-11.3-20.1-18.3c-0.2-0.2-0.4-0.4-0.7-0.6L154.7,143.4z M39.1,260.4c0,0.1,0,0.2,0.1,0.4c0.1,0.2,0.2,0.3,0.4,0.5
		c7,8.2,15.4,15.2,24.7,20.6c5.2,3,10.6,5.5,16.2,7.6c5.6,2.1,11.2,4.2,16.9,6.3c3.9,1.5,7.8,3.3,11.4,5.4l3.4,2
		c1.4-0.7,9-6.6,9.6-7.5l-0.9-0.7c-3.8-2.8-8-5.1-12.4-6.8c-5.2-2-10.4-3.7-15.7-5.4c-12.7-4.1-25-8.8-36.3-16.1
		c-3.1-1.9-6-4.1-8.7-6.4l-3.4-2.9L39.1,260.4z M171.9,346.7c2.8-4.7,6.1-9.2,9.8-13.3l-1.3-0.7c-0.8-0.4-1.7-0.8-2.5-1.2
		c-3.8-2.1-7.6-4.1-11.4-6.3c-3.5-2-7-4-10.5-6c-4.3-2.5-8.6-4.9-13-7c-7.6-3.7-16.1-5.3-24.6-4.7c-0.5,0-1.1,0.2-1.5,0.5
		c-1,0.7-1.9,1.4-2.9,2.1c-0.2,0.2-0.4,0.4-0.6,0.6c0.5,0.1,0.8,0.2,1.2,0.4c2.4,0.8,4.8,1.5,7.1,2.5c6,2.8,11.7,6.1,17.1,9.9
		c3.1,2.1,6.1,4.2,9.1,6.4c1.5,1,2.9,2,4.4,3.1c3.8,2.6,7.6,5.3,11.3,7.9c2.3,1.6,4.5,3.2,6.8,4.9
		C170.8,346.1,171.3,346.3,171.9,346.7z M118.9,306.6l0.1,0.2c0.4,0,0.9,0,1.3,0c5.3-0.2,10.5,0.4,15.6,1.9c4.1,1.3,8.1,3,11.9,5.1
		c4.8,2.6,9.5,5.3,14.3,8c5.3,3,10.5,5.9,15.8,8.9c1.4,0.8,2.9,1.5,4.3,2.2c1.7-1.6,3.4-3.1,5.1-4.6s3.5-2.9,5.3-4.4
		c-0.2-0.1-0.4-0.2-0.6-0.3c-4.7-2-9.1-4.4-13.4-7.2c-4.4-2.6-8.7-5.3-13.1-7.9c-3.8-2.2-7.8-4.1-12-5.6c-7.8-2.8-16.1-4-24.4-3.5
		c-0.6,0-1.2,0.3-1.7,0.7c-2.5,2-5.1,4-7.6,6C119.4,306.1,119.1,306.4,118.9,306.6L118.9,306.6z M6.2,294.3c0.3,0.2,0.6,0.5,0.9,0.6
		c1.1,0.7,2.1,1.5,3.2,2.1c4.2,2.5,8.6,4.7,13.2,6.5c6.9,2.7,14.1,4.9,21.4,6.5c7.2,1.7,14.3,3.3,21.5,5c5.6,1.3,11.1,3.1,16.4,5.5
		c0.9,0.4,1.8,0.9,2.7,1.3c1.9-0.9,8.1-5.2,8.5-5.9c-0.2-0.1-0.4-0.3-0.6-0.4c-3.7-1.8-7.6-3.3-11.5-4.5c-6.5-2.1-13.2-3.7-19.9-5.3
		c-9.4-2.1-18.6-4.9-27.6-8.3c-4.7-1.8-9.3-4-13.7-6.5c-2.8-1.6-5.5-3.3-8.1-5.3l-1-0.8C9.4,287.8,7.6,291,6.2,294.3z M188.4,231.5
		l1.5-0.1c4.5-0.5,9-0.5,13.5-0.2c12,0.9,23.9,3.8,35,8.5c6.2,2.6,12,5.9,17.9,9c1.2,0.6,2.4,1.2,3.6,1.9c1.6-3.8,2.9-7.7,3.9-11.6
		c-1-0.6-1.8-1.2-2.8-1.7c-3.5-1.7-6.9-3.6-10.4-5.1c-9-4.1-18.4-7-28.1-8.7c-9.1-1.5-18.3-1.5-27.4-0.1c-0.6,0-1.1,0.3-1.5,0.8
		c-1.6,2.3-3.2,4.5-4.9,6.8C188.6,231,188.6,231.2,188.4,231.5z M163.4,264.2c0.1,0.1,0.2,0.1,0.4,0.1l0.8-0.1
		c5.9-0.9,11.9-0.8,17.8,0.2c6.5,1.2,12.8,3.2,18.9,5.7c6.1,2.5,12.1,5.5,18,8.3c5.5,2.7,11.2,4.8,17.1,6.4c0.4,0.1,0.9,0.2,1.4,0.3
		c2.5-2.8,4.9-5.5,7.2-8.5c-0.9-0.3-1.7-0.6-2.4-0.9c-4.7-2-9.4-4-14.1-6c-11-4.9-22.4-8.7-34.1-11.4c-7.5-1.7-15.1-2.6-22.8-2.6
		c-0.8,0-1.5,0.4-2,1c-1.8,2.4-3.8,4.7-5.6,7C163.7,263.7,163.6,264,163.4,264.2z M241.3,59.5c0,0.1,0,0.3,0,0.4
		c0.1,0.3,0.2,0.5,0.2,0.8c2.3,6.7,5.2,13.1,8.8,19.2c2.5,4.4,4.9,8.7,7.1,13.2c3.4,6.4,4.9,13.5,4.5,20.7c0,0.2,0,0.4,0.1,0.5
		c0.1-0.1,0.3-0.2,0.4-0.3c3-3.2,6-6.4,9-9.7c0.4-0.4,0.6-1,0.7-1.6c0.4-2.7,0.4-5.3,0.1-8c-0.6-4.3-2-8.5-4-12.4
		c-2.2-4.4-4.6-8.7-6.9-13c-2.7-4.8-5.1-9.9-7-15.1c-0.1-0.2-0.2-0.4-0.3-0.6L241.3,59.5z M130.5,288.6c-0.4-0.3-0.7-0.6-1-0.8
		c-3.5-2.5-7.4-4.6-11.4-6.2c-7.2-3-14.5-5.6-21.9-8.1c-8.2-2.8-16.4-5.6-24.3-9c-6.7-2.9-13.2-6.2-18.9-10.9
		c-0.2-0.1-0.4-0.3-0.6-0.4l-7.3,3.7c0.1,0.2,0.2,0.4,0.4,0.5c1,0.9,1.9,1.8,3,2.5c2.4,1.8,4.9,3.7,7.4,5.4
		c3.7,2.5,7.6,4.8,11.7,6.7c7.2,3.5,14.6,6.4,22.2,8.9c5.7,1.9,11.3,3.7,17,5.8c5.4,1.9,10.5,4.6,15.1,8.1c0.2,0.1,0.4,0.2,0.6,0.3
		C125.1,293.3,127.8,291.1,130.5,288.6z M216.6,305.8c-0.4-0.2-0.7-0.3-0.9-0.3c-3.8-1.1-7.5-2.4-11.1-4.1c-5.7-2.6-11.3-5.3-17-7.8
		c-6.9-3.1-14.1-5.7-21.5-7.6c-6.3-1.6-12.8-2.4-19.4-2.4c-0.7,0-1.5,0.3-2,0.8c-2.3,2.2-4.7,4.4-7,6.6c-0.3,0.2-0.5,0.5-0.7,0.8
		l0.1,0.2c0.4,0,0.8,0,1.2-0.1c5.9-0.8,12-0.4,17.8,1c3.5,0.9,6.9,2,10.1,3.5c5.4,2.4,10.7,5,16,7.5c6.7,3.2,13.5,6,20.6,8.4
		c1.3,0.4,2.6,0.8,4,1.2C210,311.1,213.4,308.6,216.6,305.8z M175,249.5l0.1,0.2c0.4-0.1,0.7-0.1,1.1-0.2c3.2-0.4,6.3-1,9.5-1.2
		c10.9-0.9,21.9,0.9,32,5.1c6.6,2.7,12.6,6.4,18.7,10c3.3,2,6.7,3.8,10.1,5.5l3,1.3c2.1-3.1,4.1-6.2,5.8-9.5
		c-0.3-0.2-0.5-0.3-0.7-0.4c-1.8-0.9-3.5-1.7-5.2-2.6c-4.8-2.4-9.5-4.9-14.3-7.2c-9-4.3-18.5-7.3-28.2-9.1
		c-7.9-1.4-15.9-1.8-23.8-1.1c-0.9,0-1.7,0.5-2.1,1.2c-1.7,2.4-3.6,4.8-5.3,7.2C175.4,249,175.2,249.2,175,249.5L175,249.5z
		 M100.6,319.7c0,0.1,0,0.2,0,0.2c0.6,0,1.3,0.1,1.9,0.1c6.9,0.3,13.7,2,20,5c5.2,2.6,10.1,5.7,14.6,9.4c2.6,2.1,5.2,4.3,7.7,6.5
		c2.3,2,4.6,4,7,6c4,3.5,8.5,6.3,13.3,8.5c0.4,0.2,0.8,0.3,1.2,0.5l5-8.4c-0.3-0.2-0.5-0.4-0.7-0.6c-2.6-1.8-5.1-3.7-7.7-5.5
		c-4.5-3.1-9-6.2-13.5-9.4l-11.3-7.8c-4.4-3-8.9-5.8-13.6-8.3c-3.5-1.9-7.2-3.3-11.1-4.3c-0.7-0.2-1.5-0.1-2.1,0.4
		c-3.3,2.4-6.7,4.8-10.1,7.2C101.1,319.3,100.9,319.5,100.6,319.7z M230.8,166.7c0.1,0.1,0.1,0.1,0.2,0.2l0.9-0.2
		c2.4-0.5,4.8-1.1,7.3-1.4c6.8-0.9,13.7-0.8,20.4,0.3c7.8,1.2,15.5,2.9,23,5.1c4.8,1.3,9.6,2.5,14.4,3.7c0.5,0.1,0.9,0.1,1.4,0.2
		l9.5-8.4c-0.5-0.1-0.7-0.2-1-0.2c-3.5-0.5-6.9-1.3-10.2-2.4c-5.4-1.6-10.7-3.4-16.1-5c-6.5-2.1-13.3-3.3-20.2-3.7
		c-8-0.3-15.9,0.9-23.4,3.6c-0.9,0.3-1.7,0.9-2.2,1.7c-0.8,1.4-1.7,2.7-2.5,4C231.7,165.2,231.3,165.9,230.8,166.7z M233.6,152.2
		c1.3-2,2.6-3.9,3.8-5.8c0.1-0.3,0.1-0.7,0-1c-0.3-0.7-0.6-1.4-0.9-2.1c-2.2-4.2-4.9-8.1-8.1-11.6c-3.9-4.7-7.9-9.3-11.7-14.1
		c-7.4-9-13.1-19.4-16.7-30.5c-0.1-0.3-0.2-0.6-0.4-1c-4.6,4-8.8,8.2-12.8,12.8c0.2,0.3,0.3,0.5,0.5,0.8c1.1,1.3,2.1,2.5,3.2,3.8
		c7.1,8.2,14.9,15.8,22.8,23.3c3.9,3.7,7.7,7.4,11.2,11.5c3.6,3.9,6.6,8.4,8.7,13.3C233.3,151.6,233.4,151.8,233.6,152.2
		L233.6,152.2z M205.7,314.2V314l-2.4-0.8c-8.7-2.9-17.2-6.4-25.4-10.6c-4.8-2.3-9.5-4.6-14.4-6.6c-8.4-3.5-17.5-4.6-26.5-3.3
		c-0.9,0.1-1.7,0.5-2.4,1.1c-1.5,1.3-3,2.6-4.5,3.9c-0.2,0.2-0.5,0.5-0.7,0.7c0.5,0.2,1,0.2,1.6,0.2c11.7-0.4,22.5,2.5,32.7,8.1
		c5.2,2.8,10.2,5.9,15.2,9c3.2,2.1,6.5,4,9.9,5.7c1.5,0.7,3,1.4,4.5,2L205.7,314.2z M326.4,139.5c-0.3-0.2-0.5-0.4-0.7-0.5
		c-3.1-2-6.3-3.6-9.7-4.9c-4.1-1.6-8.3-3.2-12.4-4.8c-2.8-1-5.3-2.6-7.5-4.6c-0.3-0.2-0.6-0.4-1-0.4c-1.7-0.2-3.3-0.4-5-0.5
		c-6.6-0.5-13.2,0.2-19.5,2c-6.2,1.9-12.1,4.6-17.5,8.1c-0.2,0.1-0.3,0.2-0.5,0.4c-1.6,1.6-2.7,3.7-4.1,5.6c0.4,0,0.9-0.1,1.3-0.3
		c6.5-2.6,13.4-4,20.4-4.4c5.7-0.2,11.4,0.1,17,1c6.2,1,12.3,2.5,18.4,3.9c5.9,1.3,11.8,2.5,17.6,3.7c0.4,0.1,0.8,0.1,1.3,0.1
		L326.4,139.5z M1.9,322c0.5,0.1,1,0.3,1.5,0.4c2.9,0.5,5.8,1.1,8.7,1.5c11,1.4,22.1,2.2,33.2,2.3c5.9,0,11.8,0.4,17.7,1.1
		c3.4,0.4,6.8,1.2,10,2.4c0.4,0.2,0.8,0.1,1.2-0.1l4-2.7c0.1-0.1,0.3-0.3,0.4-0.5c-0.2-0.1-0.3-0.2-0.5-0.3
		c-1.8-0.7-3.6-1.4-5.5-2.1c-5-1.5-10-2.7-15.2-3.4c-7.3-1.2-14.6-2.3-21.8-3.7c-10.1-1.9-20-5.1-29.3-9.5c-1.2-0.6-2.4-1.2-3.7-1.8
		C1.2,311,1,316.6,1.9,322z M62.6,345.8c0.2,0.3,0.4,0.5,0.5,0.7c1.9,2.4,3.5,5,4.9,7.7c1.6,3.3,3.1,6.7,4.5,10.2
		c1.9,4.8,4,9.6,6.4,14.2c3,5.8,7.2,10.9,12.2,15c0.5,0.5,1.2,0.6,1.8,0.4c2.2-0.6,4.4-1.2,6.5-2c2.5-1,5.1-1.8,7.8-2.4
		c0.2-0.1,0.4-0.1,0.6-0.2c-1.1-0.7-2.2-1.4-3.2-2.1c-3.1-2.2-5.8-4.9-8.2-7.9c-3.3-4.1-6.2-8.6-9.1-13c-3.4-5.2-7-10.3-11-15.1
		c-2.5-2.9-5.2-5.5-8.1-7.9c-0.3-0.3-0.7-0.5-1.2-0.7L62.6,345.8z M259.6,251.2c-0.3-0.2-0.5-0.4-0.7-0.5c-2.3-1.2-4.6-2.3-6.9-3.5
		c-4.2-2.2-8.4-4.4-12.7-6.3c-10.7-4.7-22.1-7.7-33.8-8.8c-5.5-0.5-11.1-0.4-16.6,0.2c-0.7,0-1.3,0.3-1.7,0.8
		c-1.4,2-2.9,3.9-4.3,5.9c-0.1,0.2-0.2,0.5-0.3,0.7c0.5,0,0.8,0,1.1-0.1c6-0.5,12.1-0.4,18.1,0.3c13.3,1.6,25.7,5.8,37.6,11.8
		c4.4,2.2,8.7,4.5,13,6.8c1,0.5,2.1,1,3.2,1.5C257.1,257.2,258.4,254.2,259.6,251.2L259.6,251.2z M67.8,342.3c0,0.1,0.1,0.3,0.2,0.4
		c0.3,0.2,0.5,0.5,0.8,0.6c2.9,2.2,5.5,4.7,7.8,7.4c3.4,4,6.5,8.2,9.3,12.5c3.2,4.7,6.3,9.3,9.6,13.9c3.1,4.5,7.1,8.3,11.7,11.2
		c0.8,0.6,1.9,0.8,2.9,0.7c3.1-0.5,6.2-0.7,9.3-0.6c2,0,3.9-0.1,5.9-0.1c0.3,0,0.6-0.1,1-0.1c-0.1-0.1-0.3-0.3-0.4-0.4
		c-1.3-0.8-2.6-1.6-3.8-2.4c-4.6-3-9-6.5-12.8-10.4c-3.5-3.7-6.9-7.6-10-11.6c-4.4-5.5-8.8-11.1-14-15.9c-3.2-2.9-6.7-5.5-10.4-7.7
		c-0.6-0.4-1.3-0.7-2-1L67.8,342.3z M161.8,133l0.9,1.1c3.5,4.2,7.4,8.1,11.5,11.6c4.6,3.9,9.6,7.5,14.7,10.7c3.1,2,6.2,3.8,9.2,5.9
		c3.4,2.3,6.6,4.7,9.9,7.2c3.2,2.4,5.9,5.3,8.2,8.6c0.2,0.2,0.4,0.5,0.6,0.7c1.3-2.1,2.5-4,3.8-6c-0.3-0.4-0.5-0.8-0.8-1.2
		c-3.1-4.2-6.8-8-10.9-11.3c-3.4-2.8-6.8-5.6-10.2-8.3c-6.4-5-12.7-10.1-18.5-15.7c-4-3.8-7.7-7.8-11.1-12.2
		c-0.2-0.3-0.4-0.5-0.8-0.9L161.8,133z M189,220.4c-0.5-1.3-1.1-2.6-1.9-3.7c-2.2-3.4-5-6.4-8.3-8.8c-3.2-2.4-6.6-4.5-10.2-6.4
		c-3.4-1.9-6.8-3.9-10.2-5.8c-3.3-1.9-6.6-3.8-9.9-5.8c-3.7-2.3-7.2-4.8-10.6-7.5c-2.6-2-5-4.2-7.2-6.6c-0.7-0.8-1.4-1.5-2.1-2.3
		l-7.5,6.9c0.2,0.2,0.3,0.4,0.5,0.6c1.9,1.7,3.7,3.5,5.7,5c4.6,3.6,9.5,6.9,14.7,9.7c5.5,3,11,5.9,16.4,8.9c3.1,1.8,6.2,3.7,9.1,5.8
		c3,2.1,5.8,4.4,8.3,7c3,2.8,5.4,6.1,7.1,9.8c0.1,0.2,0.3,0.5,0.4,0.7L189,220.4z M152.5,378.3c-0.2-0.2-0.4-0.3-0.7-0.4
		c-2.8-1.2-5.6-2.6-8.2-4.2c-3.6-2.1-7-4.4-10.1-7.1c-4.4-3.8-8.7-7.8-13-11.7c-4-3.7-8-7.5-12-11.2c-4.1-3.9-8.6-7.4-13.4-10.4
		c-2.5-1.5-5-2.7-7.7-3.7c-0.4-0.2-1-0.1-1.4,0.1c-1.3,0.9-2.6,1.8-3.8,2.6c-0.2,0.2-0.4,0.4-0.6,0.6c0.4,0.2,0.7,0.4,1,0.5
		c3.7,1.7,7.1,3.8,10.2,6.4c3.4,2.7,6.6,5.5,9.6,8.6c3.8,3.9,7.7,7.9,11.4,11.8c5,5.2,10,10.3,15.5,14.9c4,3.4,8.3,6.4,13,8.8
		c0.5,0.3,1.1,0.3,1.6,0.1c2.6-1.2,5-2.7,7.3-4.5C151.6,379.1,152,378.7,152.5,378.3z M225.5,175.6c0.1,0.1,0.2,0.1,0.2,0.1
		c0.3-0.1,0.7-0.1,1-0.2c4.4-1.4,9-1.9,13.6-1.6c3,0.2,6,0.6,9,1.1c7,1.3,14,2.9,20.8,5l16.6,4.6c0.4,0.1,0.8,0.2,1.2,0.2l9.6-9.5
		l-1.1-0.3c-2.5-0.6-5.1-1.2-7.6-1.8c-6.5-1.7-13-3.6-19.6-5.1c-7.4-1.8-15-2.7-22.7-2.7c-5.1,0.1-10.2,0.8-15.1,2.1
		c-1,0.2-1.8,0.8-2.3,1.7c-1.1,1.9-2.3,3.7-3.4,5.6C225.7,175.1,225.5,175.3,225.5,175.6L225.5,175.6z M272.9,102.7
		c0.2-0.1,0.4-0.3,0.6-0.4l7.2-7.1c0.4-0.5,0.7-1,0.8-1.6c1.5-5.9,1.4-12.1-0.5-17.9c-1.7-5.2-4-10.2-7-14.8c-2.5-4-4.9-8-7.3-12
		c-0.1-0.1-0.2-0.3-0.3-0.4l-11.6,4.9c0,0.3,0.1,0.6,0.2,0.8c0.8,2,1.5,4.1,2.5,6.1c2.4,4.8,4.9,9.4,7.4,14.1c2,3.6,3.8,7.2,5.5,11
		c2.3,5.2,3.1,11,2.5,16.6C272.9,102.1,272.9,102.3,272.9,102.7z M267.5,222.1l2.4-8.7c-0.2-0.2-0.4-0.3-0.6-0.4
		c-4.4-2.1-8.8-4.2-13.2-6.2c-6.1-2.9-12.6-4.9-19.3-6.2c-9.2-1.7-18.6-1.1-27.4,2c-0.8,0.3-1.5,0.8-2,1.5c-1.9,2.8-3.7,5.6-5.6,8.4
		c-0.2,0.3-0.4,0.6-0.7,1.1c0.6-0.2,1-0.2,1.4-0.4c7.1-2,14.5-3.1,21.9-3.2c12.6,0,25,3,36.4,8.6C263,219.7,265.1,220.9,267.5,222.1
		L267.5,222.1z M249.2,270.7l-0.8-0.4c-3.3-1.4-6.6-3-9.7-4.8c-4.3-2.5-8.5-5-12.8-7.4c-4.4-2.5-9.1-4.5-13.9-6.1
		c-12.2-3.9-24.5-4-37-1.5c-0.6,0.1-1.1,0.4-1.4,0.9c-0.7,0.9-1.4,1.8-2.1,2.7c-0.1,0.2-0.3,0.5-0.4,0.7c0.4,0,0.7,0.1,1,0.1
		c1,0,1.9,0,2.9,0c8.4,0.4,16.8,1.7,24.9,3.9c11.4,3.1,22.6,7.2,33.3,12.2c3.6,1.6,7.2,3.1,10.9,4.6c0.5,0.2,0.9,0.3,1.4,0.4
		C246.7,274.2,248,272.6,249.2,270.7z M236.4,157.8l0.2,0.2l1-0.3c2.1-0.6,4.1-1.3,6.2-1.8c10-2.3,20.4-2.2,30.3,0.3
		c5.8,1.4,11.3,3.3,17,5.1c5.2,1.8,10.5,3.1,15.8,4.1c0.5,0.1,1.1,0.1,1.7,0.2c3.1-2.9,5.8-6.1,8.2-9.6l-1.1-0.2
		c-2.5-0.4-5.1-0.6-7.6-1.1c-6.4-1.2-12.8-2.5-19.2-3.8c-7.4-1.6-14.9-2.7-22.4-3.4c-8-0.7-16.1,0.4-23.7,3.2
		c-1.6,0.6-3.1,1.4-3.9,3.1c-0.1,0.1-0.2,0.3-0.3,0.4L236.4,157.8z M336.2,103.3c-0.5,0.1-0.7,0.1-0.9,0.2c-8.4,2-17.1,2.8-25.8,2.4
		c-3.8-0.2-7.5-0.4-11.3-0.6c-8.1-0.3-16.1,0.9-23.7,3.8c-0.9,0.3-1.6,0.7-2.2,1.4c-2.9,3.3-5.9,6.6-8.8,9.9
		c-0.2,0.3-0.4,0.6-0.7,0.9c0.1,0,0.2,0,0.3,0c0.2-0.1,0.5-0.2,0.7-0.3c3.1-1.6,6.4-2.9,9.8-3.8c6.6-1.7,13.4-2.4,20.2-2.1
		c5.7,0.2,11.5,0.3,17.2,0.3c7.7,0,15.4-1,22.8-3.1l1.3-0.4C335.4,109.1,335.8,106.3,336.2,103.3L336.2,103.3z M84.8,322.3
		c-0.7-0.3-1-0.5-1.4-0.7c-4-1.8-8.1-3.3-12.4-4.5c-7.5-2.1-15.1-3.8-22.7-5.5c-7-1.4-14-3.3-20.7-5.7c-7.1-2.4-13.9-5.8-20.1-9.9
		c-0.5-0.3-1-0.6-1.6-1c-1.4,3.1-2.5,6.4-3.2,9.8c2.3,1.1,4.6,2.2,6.8,3.2c9.9,4.3,20.3,7.3,31,9.1c6.6,1.1,13.2,2.1,19.7,3.2
		c6.4,0.9,12.7,2.7,18.6,5.4c0.2,0.1,0.5,0.2,0.7,0.2L84.8,322.3z M72.9,330.3c-0.2-0.1-0.5-0.3-0.7-0.4c-1.1-0.3-2.1-0.6-3.2-0.9
		c-5.8-1.2-11.7-1.9-17.6-2c-8.2-0.3-16.3-0.5-24.5-1c-8.1-0.4-16.2-1.4-24.2-3.1c-0.2,0-0.5,0-0.7,0c0.1,0.4,0.1,0.8,0.2,1.2
		c0.6,2.2,1.2,4.4,1.9,6.5c0.4,1.4,1.1,2.7,2,3.9c0.4,0.6,1,1,1.7,1c2.4,0.2,4.9,0.5,7.3,0.6c6.4,0.1,12.8-0.1,19.2-0.6
		c6.5-0.4,13-0.8,19.4-1.1c3.1-0.2,6.1-0.1,9.1,0.5c0.8,0.2,1.6,0.4,2.5,0.6L72.9,330.3z M208.9,201.7l0.2,0.2
		c0.3-0.1,0.6-0.1,0.9-0.2c6.6-2.2,13.6-3.1,20.5-2.5c7.2,0.6,14.3,2.3,21,5c6.1,2.4,12,5.3,17.9,8.2c0.3,0.1,0.6,0.2,0.9,0.3
		c1.5-3.4,2.9-6.6,4.4-9.9c-0.2-0.1-0.3-0.2-0.5-0.3c-5.5-2.1-10.9-4.2-16.3-6.2c-5.9-2.3-12-3.9-18.2-4.8
		c-8.3-1.2-16.8-0.3-24.6,2.6c-0.8,0.2-1.5,0.7-1.9,1.4c-0.9,1.5-1.9,3-2.9,4.5C209.7,200.5,209.3,201.1,208.9,201.7z M220.4,183.5
		l0.2,0.2l1.2-0.3c6.9-1.7,14-2.1,21-1.2c6,0.9,11.9,2.5,17.6,4.8c5.2,2,10.5,4.2,15.7,6.2c1.1,0.4,2.3,0.8,3.6,1.3
		c0.8-1.1,1.6-2.1,2.4-3.1s1.7-2.1,2.6-3.1s1.7-1.9,2.7-3c-1.4-0.4-2.6-0.6-3.8-1c-7.1-2-14.2-4-21.3-5.9c-6.6-1.8-13.2-3.1-20-3.8
		c-5.6-0.6-11.2,0-16.5,1.7c-0.7,0.2-1.4,0.7-1.8,1.3c-0.9,1.6-1.9,3-2.8,4.6C220.9,182.7,220.7,183.1,220.4,183.5L220.4,183.5z
		 M168.7,247.3c-0.1-0.3-0.3-0.6-0.5-0.9c-1-1.5-2-3-3.1-4.4c-4.6-5.6-9.8-10.6-15.5-15c-5.7-4.5-11.8-8.5-18.3-11.9
		c-4.6-2.5-9.3-4.8-14.1-6.8c-0.4-0.2-0.8-0.3-1.1-0.4c0.2,0.3,0.4,0.5,0.7,0.7c1.3,1.1,2.6,2,3.8,3.2c2.7,2.7,5.5,5.5,8.1,8.4
		c5.3,5.8,10.1,11.9,14.6,18.3c0.3,0.4,0.7,0.8,1.2,0.9c4.4,1.7,8.6,3.9,12.4,6.6c2.2,1.6,4.4,3.3,6.6,5l1.5,1.2L168.7,247.3z
		 M274.7,107.9l0.2,0.2c0.3-0.1,0.6-0.2,1-0.3c7.4-2.6,15.1-3.7,22.9-3.3c3.8,0.2,7.7,0.5,11.5,0.6c8.2,0.3,16.4-0.4,24.4-2.2
		c0.5-0.1,1-0.3,1.6-0.4c0.3-3.1,0.5-6.2,0.8-9.4c-0.2,0-0.4,0.1-0.6,0.2c-4.2,1.8-8.7,2.8-13.2,3c-5,0.2-10,0.1-15-0.2
		c-3.3-0.2-6.6-0.3-9.9-0.3c-4.9-0.1-9.7,1.1-14.1,3.2c-0.9,0.5-1.7,1-2.4,1.7c-1.8,1.7-3.5,3.6-5.3,5.3
		C275.8,106.7,275.2,107.3,274.7,107.9z M279.2,195.2l-0.9-0.4c-2.6-1-5.2-2-7.8-3c-5.6-2.2-11.1-4.5-16.8-6.4
		c-10.6-3.5-21.9-3.9-32.7-1.1c-0.7,0.1-1.4,0.6-1.8,1.2c-1.4,2.3-2.9,4.6-4.3,6.9c-0.1,0.2-0.2,0.5-0.3,0.8
		c0.5-0.1,0.8-0.2,1.1-0.3c7.6-2.7,15.8-3.5,23.9-2.3c6.7,1,13.2,2.8,19.5,5.3c4.8,1.8,9.7,3.7,14.5,5.6c0.5,0.2,1,0.3,1.5,0.5
		C276.4,199.7,277.8,197.5,279.2,195.2L279.2,195.2z M267.3,48.2c0.3,0.6,0.6,1.2,0.9,1.7c2.2,3.6,4.4,7.2,6.7,10.8
		c2.5,3.9,4.6,8,6.2,12.3c2.3,6.4,3.3,12.9,1.5,19.6c0,0.3-0.1,0.6-0.1,0.8c0.3-0.3,0.6-0.4,0.8-0.6c2.3-2.2,4.6-4.5,7-6.7
		c0.5-0.5,0.9-1.2,1-1.9c0.4-2.7,0.6-5.4,0.3-8.1c-0.6-6.2-2.6-12.2-6-17.4c-2.3-3.6-4.7-7-7-10.5c-0.8-1.2-1.5-2.3-2.4-3.6
		L267.3,48.2z M58,348.8l0.2,1.3c1.1,5.5,2.7,10.8,4.2,16.1c1.3,4.3,3,8.4,5,12.3c2.9,6.1,7.8,10.9,13.9,13.8c2.5,1.3,5.2,2,8,2.1
		c0.4,0,0.8,0,1.5-0.1c-0.5-0.5-0.8-0.8-1.1-1.1c-2.8-2.3-5.3-5-7.4-8c-3.1-4.3-5.7-8.9-7.7-13.8c-1.9-4.4-3.7-8.9-5.6-13.3
		c-1.6-3.8-3.6-7.3-6.1-10.6c-0.3-0.4-0.6-0.8-1-1.3L58,348.8z M334.9,112.8c-0.1,0-0.3,0-0.4,0c-0.2,0-0.5,0.1-0.7,0.2
		c-7.2,2-14.6,3-22,3.1c-6,0-12.1-0.1-18.1-0.3c-6.1-0.3-12.2,0.3-18.2,1.7c-4.6,1-9,2.7-13,5.1c-0.8,0.4-1.5,1-2.1,1.7
		c-2.1,2.5-4.1,5.1-6.1,7.7c-0.1,0.2-0.2,0.4-0.3,0.6l0.1,0.2c12.8-8.2,26.7-11.4,41.4-8.9c1.5-0.6,2.6-1,3.6-1.3
		c1.2-0.3,2.3-0.6,3.5-0.7c3.4-0.4,6.8-0.8,10.1-1.2c7.1-0.7,14-2.4,20.7-5c0.4-0.1,0.7-0.3,1.1-0.4
		C334.6,114.3,334.7,113.6,334.9,112.8L334.9,112.8z M284.9,97.4l0.2,0.2c0.2-0.1,0.5-0.1,0.7-0.2c4-1.7,8.4-2.5,12.8-2.4
		c3.5,0,7,0.2,10.5,0.4c4.8,0.3,9.5,0.4,14.3,0.2c4.3-0.2,8.6-1.1,12.6-2.8c0.4-0.2,0.7-0.4,1-0.5c0.5-3.7,0.9-7.2,1.4-10.9
		l-0.8,0.3c-2.2,0.7-4.3,1.6-6.5,2.2c-4.9,1.2-9.9,2-14.9,2.4c-4.6,0.5-9.3,1.1-13.9,1.8c-3.1,0.4-6.1,1.2-9.1,2.3
		c-1,0.4-2,1-2.8,1.8c-0.9,0.9-1.8,1.7-2.6,2.6L284.9,97.4z M292,84.1c0.2-0.1,0.4-0.3,0.6-0.4l5.4-5.4c0.4-0.4,0.6-0.9,0.6-1.5
		c-0.1-2.2-0.1-4.3-0.3-6.5c-0.5-4.3-1.6-8.6-3.3-12.6c-2.3-5.9-4.8-11.7-7.3-17.5c-0.1-0.1-0.2-0.3-0.3-0.4l-10.5,4.4
		c0.2,0.4,0.4,0.7,0.6,1c1.4,2.1,2.9,4.3,4.3,6.4c2.3,3.3,4.5,6.7,6.4,10.2c3.5,6.6,4.8,14.1,3.9,21.5C292,83.5,292,83.7,292,84.1
		L292,84.1z M288.1,39.4c0.1,0.4,0.2,0.7,0.4,1c0.5,1.3,1.1,2.6,1.7,3.9c2.3,5.1,4.5,10.2,6.3,15.5c1.9,5.2,2.9,10.8,2.9,16.3
		c0,0.2,0,0.4,0.1,0.6c0.2-0.1,0.4-0.3,0.5-0.4l5.8-6.3c0.4-0.4,0.5-0.9,0.5-1.4c-0.1-1.3-0.1-2.6-0.2-3.9
		c-0.8-6.3-2.6-12.5-5.4-18.2c-1.6-3.4-3.1-6.8-4.7-10.2c-0.1-0.1-0.2-0.2-0.3-0.3L288.1,39.4z M64.5,336v-0.3
		c-1.2-0.2-2.3-0.4-3.5-0.5c-2.8-0.1-5.7-0.2-8.5-0.1c-7,0.4-13.9,0.9-20.9,1.3c-7.6,0.5-15.2,0.9-22.9,0c-0.2,0-0.3,0-0.5,0.1
		c0.4,0.3,0.6,0.5,0.9,0.8c1.6,1.3,3.4,2.3,5.4,2.9c6,1.9,12.1,3.2,18.4,2.3c0.3,0,0.7,0,1-0.1c3.8-0.4,7.6-0.8,11.4-1.2
		c3.7-0.5,7.3-0.5,11,0c0.4,0,0.9-0.1,1.2-0.3c2.2-1.4,4.3-2.9,6.5-4.4C64.2,336.3,64.3,336.2,64.5,336z M300.7,82
		c0.3,0,0.5-0.1,0.8-0.1c4.4-1.3,9-2.2,13.6-2.7c3.7-0.4,7.4-0.8,11.1-1.3c3.9-0.5,7.7-1.3,11.4-2.6c1-0.3,2-0.8,2.9-1.2
		c1-2.9,2-5.8,3-8.8c-0.5,0.2-0.7,0.3-1,0.4c-4.1,1.9-8.4,3.1-12.8,3.8c-3.6,0.6-7.3,1.1-10.9,1.7c-3.4,0.5-6.7,1.4-9.8,2.8
		c-1.1,0.5-2.1,1.2-2.9,2.1c-1.5,1.7-3.1,3.3-4.6,5C301.1,81.4,300.9,81.7,300.7,82L300.7,82z M340.1,75c-1.1,0.4-2.1,0.8-3,1.1
		c-4,1.3-8.2,2.2-12.4,2.6c-4.3,0.5-8.5,1-12.8,1.5c-3.9,0.5-7.8,1.4-11.5,2.7c-0.9,0.3-1.7,0.8-2.4,1.5c-1.4,1.4-2.8,2.8-4.1,4.2
		c-0.2,0.2-0.3,0.4-0.5,0.6c0,0.1,0,0.2,0.1,0.3c0.2-0.1,0.4-0.2,0.5-0.3c4.9-1.4,9.9-2.4,15-2.9c5-0.6,10.1-1.1,15.1-1.8
		c4.3-0.5,8.5-1.6,12.5-3.2c0.6-0.3,1.2-0.6,1.8-0.8C339.1,78.7,339.5,77,340.1,75L340.1,75z M306.9,68l0.4,0.1
		c0.7-0.8,1.3-1.6,2-2.4c0.6-0.6,0.9-1.5,1-2.3c1.2-8,0.1-16.1-3-23.5c-1.1-2.5-2-5.1-3-7.7c-0.1-0.2-0.2-0.3-0.3-0.6l-7.6,4
		c0.2,0.7,0.4,1.2,0.7,1.8c1.4,2.9,2.7,5.8,4.1,8.8c3.4,6.7,5.3,14,5.8,21.4C306.9,67.7,306.9,67.9,306.9,68L306.9,68z M309.1,73.1
		c0.2-0.1,0.4-0.1,0.6-0.2c2.9-1.2,5.9-2,8.9-2.4c2.9-0.4,5.9-0.8,8.8-1.3c5.2-0.6,10.3-2.1,15.1-4.2c0.4-0.2,0.8-0.4,1.2-0.6
		c0.6-2.1,1.3-4.2,1.9-6.5c-0.3,0.1-0.5,0.1-0.6,0.2c-3,1-6,1.8-9.1,2.4c-2.6,0.5-5.1,1-7.7,1.6c-5.5,1.2-10.6,3.5-15.1,6.8
		C311.5,69.9,310.1,71.4,309.1,73.1L309.1,73.1z M304.6,31.2c0.2,0.6,0.3,1,0.5,1.5c1,2.7,2.1,5.3,3.1,7.9c1.4,3.5,2.4,7.1,2.8,10.8
		c0.4,3.5,0.4,7.1,0,10.6c0,0.3,0,0.7,0,1c0.3-0.2,0.6-0.4,0.9-0.7c0.9-1.2,1.8-2.4,2.8-3.6c0.4-0.6,0.7-1.3,0.9-2
		c1.4-7.1,0.9-14.5-1.5-21.3c-0.9-2.5-1.6-5.1-2.4-7.7c-0.1-0.1-0.1-0.3-0.2-0.4L304.6,31.2z M313.4,67.7c0.2,0,0.3-0.1,0.5-0.2
		c0.3-0.2,0.6-0.3,0.9-0.6c3.7-2.5,7.9-4.3,12.3-5.3c2.5-0.6,5-1.1,7.5-1.6c3.3-0.6,6.6-1.4,9.8-2.4c0.5-0.2,1-0.4,1.5-0.6
		c0.9-2.8,1.5-5.7,2-8.7l-0.9,0.3c-2.1,0.9-4.3,1.9-6.5,2.7c-3,1.1-6.1,2-9.2,3.1c-3.6,1.1-7,2.5-10.4,4.1c-0.5,0.2-1,0.5-1.3,0.9
		C317.5,62.2,315.5,64.9,313.4,67.7z M348.9,39.9c-0.3,0.1-0.5,0.1-0.6,0.2c-2,0.7-4.1,1.5-6.1,2.2c-5.8,1.9-11.2,4.8-16.1,8.4
		c-0.5,0.4-0.9,0.8-1.3,1.3c-1.1,1.6-2.2,3.2-3.3,4.8c-0.2,0.3-0.3,0.6-0.6,1c0.3-0.1,0.5-0.1,0.8-0.2c4.3-1.9,8.7-3.5,13.2-4.9
		c3.5-1.2,6.9-2.5,10.4-3.8c1-0.4,1.8-0.9,2.8-1.4C348.3,44.9,348.6,42.5,348.9,39.9z M317.6,23.6l-5.4,3.3c0.1,0.5,0.2,1,0.3,1.5
		c0.8,2.5,1.6,4.9,2.4,7.3c1,3.1,1.7,6.2,2,9.5c0.2,3.2,0.1,6.5-0.3,9.7c0,0.3-0.2,0.7,0.1,1.1c0.2-0.3,0.5-0.6,0.7-0.9
		c1.4-2.1,2.8-4.2,4.4-6.3c0.7-0.9,1-2,0.9-3.2c-0.4-7.2-1.9-14.3-4.5-21.1C317.9,24.3,317.8,24,317.6,23.6z M338.9,23.9l0.2,0.2
		c0.8-0.8,1.6-1.5,2.4-2.3c2.2-2.2,4-4.7,5.5-7.4c0.3-0.5,0.4-1,0.2-1.6c-0.9-3.5-1.7-7-2.5-10.5c-0.1-0.3-0.2-0.6-0.3-0.9
		c-0.1,0.1-0.2,0.2-0.4,0.3c-2.1,2.8-4.4,5.4-6.9,7.8c-0.4,0.4-0.6,0.9-0.5,1.5c0.2,4,0,8.1-0.5,12.1c0,0.3,0,0.6-0.1,1.1
		c0.1-0.2,0.3-0.3,0.4-0.5c1.9-3.5,3.4-7.1,4.7-10.9c0.1-0.3,0.3-0.7,0.5-1c0.5,0.6,0.5,0.6,0.4,1.3c-0.6,3.3-1.5,6.5-2.5,9.6
		C339.1,23.2,339,23.5,338.9,23.9z M349.1,31.5l-0.9,0.5c-1.6,0.8-3.2,1.6-4.8,2.4s-3.1,1.2-4.6,1.8c-2.2,0.8-4.3,2-6.2,3.3
		c-0.6,0.5-1.1,1-1.5,1.7c-1.2,2.1-2.4,4.2-3.6,6.2l-1.1,1.9c0.2,0,0.2,0.1,0.2,0c0.2-0.1,0.4-0.2,0.6-0.4c4.3-3.1,9.1-5.6,14.2-7.2
		c2.1-0.7,4.2-1.5,6.3-2.2c0.4-0.1,0.8-0.4,1.3-0.6C349,36.5,349,34.1,349.1,31.5z M323.2,20l-5.1,3.2c0.3,0.9,0.7,1.7,1,2.5
		s0.6,1.6,0.9,2.4s0.5,1.6,0.8,2.5s0.5,1.7,0.7,2.5s0.4,1.7,0.6,2.6s0.3,1.7,0.5,2.5s0.3,1.7,0.4,2.5s0.2,1.7,0.3,2.6
		c0,0.9,0.1,1.8,0.3,2.6c0.3-0.4,0.6-0.7,0.7-1c1.2-1.9,2.3-3.8,3.5-5.6c0.5-0.7,0.7-1.6,0.5-2.4c-0.9-5.4-2.4-10.7-4.4-15.9
		C323.6,20.8,323.5,20.5,323.2,20z M332.6,38.6c0.3-0.1,0.5-0.2,0.7-0.3c1.3-0.7,2.6-1.5,4-2.1c1.6-0.7,3.2-1.2,4.8-1.9
		c2-0.9,4-1.8,6-2.8c0.4-0.2,0.8-0.5,1.1-0.8c-0.1-2.5-0.3-5-0.4-7.7c-0.8,0.7-1.3,1.3-1.9,1.8c-2.6,2.3-5.5,4.2-8.8,5.5
		c-1.3,0.4-2.3,1.4-2.7,2.7C334.5,34.7,333.5,36.5,332.6,38.6L332.6,38.6z M328.9,37c0.2-0.2,0.4-0.5,0.6-0.7
		c0.6-0.9,1.1-1.9,1.6-2.9c0.3-0.6,0.5-1.3,0.5-2c0-5.1-0.6-10.1-1.9-15c-0.1-0.2-0.2-0.4-0.2-0.6l-5.7,3.9
		C326.2,25.3,327.9,31.1,328.9,37L328.9,37z M330.2,15.4c0.3,1.2,0.6,2.5,0.9,3.8s0.5,2.5,0.7,3.8s0.3,2.6,0.4,3.9s0.1,2.5,0.2,3.8
		h0.2c0.5-0.9,1.1-1.8,1.5-2.8c0.4-0.8,0.7-1.6,0.9-2.4c0.8-4.6,1.1-9.2,1-13.8c0-0.3,0-0.6-0.1-1L330.2,15.4z M348.5,22.1
		c-0.1-2.4-0.4-4.8-1.1-7.1c-0.2,0.2-0.3,0.4-0.4,0.6c-1.6,3-3.7,5.7-6.3,7.9c-1.8,1.5-3.1,3.5-3.8,5.7c-0.1,0.2-0.1,0.4-0.2,0.8
		C341.3,28.1,345.3,25.7,348.5,22.1L348.5,22.1z M31.9,343.3v0.2c0.4,0,0.9,0.1,1.3,0.1c5.2,0.3,10.5,0.5,15.7,0.8
		c3.3,0.1,2.2,0.4,5.2-1.4c0.5-0.3,1-0.7,1.5-1l0-0.2c-0.3-0.1-0.7-0.1-1-0.1c-2.1,0-4.3-0.1-6.4,0c-5.3,0.5-10.6,1-15.9,1.5
		C32.2,343.2,32.1,343.2,31.9,343.3z"/>
</g>
</svg>
