<svg xmlns="http://www.w3.org/2000/svg" viewBox="0 0 1625.02 1033.82"><defs><style>.cls-1{fill:#fff;}.cls-2{fill:#f37d7f;}</style></defs><g id="Layer_2" data-name="Layer 2"><g id="Design"><path class="cls-1" d="M1625,1027.55h0c-4.2-66.91-17.07-147.78-39.17-235.52-.13-.51-.25-1-.38-1.53a1800,1800,0,0,0-95.39-278q-2.07-4.74-4.19-9.49h0l-1.45-3.24-2.82-6.29c-5.17-11.43-9.89-21.53-14.22-30.53-.72-1.51-1.43-3-2.13-4.43s-1.52-3.11-2.25-4.62l-2.09-4.24-.06-.12-2-4.08q-2.05-4.11-4-7.86l-1.43-2.8q-1.76-3.43-3.4-6.58l-.65-1.25-.73-1.4c-.27-.49-.52-1-.77-1.46l-1.6-3.05c-.39-.75-.78-1.48-1.16-2.2-2-3.87-3.9-7.39-5.63-10.66l-.73-1.39c-.28-.52-.55-1-.81-1.55l-1.19-2.29c-.57-1.08-1.11-2.14-1.63-3.17a.54.54,0,0,1-.05-.11c-.35-.68-.69-1.34-1-2l-.56-1.14c-.67-1.37-1.31-2.69-1.92-4-.16-.32-.31-.65-.45-1-.29-.61-.56-1.22-.83-1.82-1.14-2.54-2.15-5-3.07-7.49-.35-.93-.68-1.86-1-2.8s-.64-1.93-.94-2.91c-.48-1.56-.93-3.15-1.34-4.79l-.27-1.07-.42-1.81c-.1-.44-.2-.88-.29-1.33-.25-1.17-.49-2.38-.72-3.61s-.45-2.51-.65-3.82c-.14-.88-.27-1.77-.4-2.68l-.18-1.28c0-.34-.09-.68-.13-1-.14-1-.26-2.08-.39-3.16l-.18-1.64c-.12-1.11-.23-2.25-.35-3.41,0-.59-.11-1.18-.17-1.78,0-.4-.07-.81-.11-1.22-.07-.81-.14-1.63-.21-2.47-.1-1.27-.2-2.57-.3-3.91,0-.09,0-.17,0-.25-.07-1-.15-2.08-.22-3.16,0-.07,0-.15,0-.22-.07-1.09-.15-2.2-.21-3.34,0-.08,0-.15,0-.22q-.23-3.59-.43-7.5c-.4-7.3-.77-15.51-1.17-24.84,0-.82-.07-1.64-.11-2.46s-.07-1.61-.11-2.41a2.17,2.17,0,0,0,0-.26l-.12-2.53c-.08-1.74-.17-3.46-.27-5.17a.49.49,0,0,1,0-.12c-1.37-24.78-4-46.26-13.37-60.94-.3-.47-.61-.94-.92-1.4s-.51-.74-.77-1.1c-.12-.18-.25-.35-.38-.52s-.37-.5-.57-.74-.52-.67-.8-1-.53-.63-.8-.94c-9.7-11-24.89-16.55-49-14.49-1.75-2-3.53-3.94-5.31-5.89s-3.58-3.89-5.38-5.82q-7.21-7.72-14.7-15.22c-71-71.19-158.86-126.49-253.84-159l-3.35-1.13c-1.12-.38-2.23-.74-3.33-1.1h0l-3.11-1q-3-.95-5.95-1.83-2.78-.83-5.5-1.6l-5.08-1.4-2.7-.71C991-3.95,950.4-2.38,913.39,9.94l-1.86.62q-.82.27-1.65.57C869.05,25.55,832.38,53,791,88.13l-1.59,1.36c-31,26.38-64.66,57-104.7,89.52,0,0,0,0,0,0l-2.85,2.31c-15.63,12.71-32.51,25-49.88,36.94-9.37,6.43-18.88,12.74-28.42,18.93l-.19.12c-24.81,16.09-49.79,31.36-72.9,45.75l-.27.17c-27.63,17.21-52.55,33.17-71.26,47.8l-1.62,1.27-1.56,1.23-1.4,1.13-1.71,1.41q-1.7,1.41-3.34,2.84-2.47,2.16-4.86,4.37-1.59,1.47-3.13,2.95t-3.05,3q-2.26,2.26-4.45,4.59l0,0c-1,1-1.92,2.06-2.87,3.1-.49.53-1,1.06-1.44,1.6-.93,1.05-1.86,2.11-2.78,3.17l0,0q-1.72,2-3.41,4T420,369.92q-2.67,3.33-5.24,6.77c-.85,1.13-1.7,2.27-2.54,3.42l0,0q-1.89,2.6-3.77,5.24l0,0-2.48,3.54-1.26,1.82q-1.85,2.7-3.69,5.45s0,0,0,0q-2.45,3.67-4.9,7.44h0l-2.45,3.79c-1.24,1.91-2.47,3.85-3.71,5.8l-2.48,3.92c-5.06,8-10.22,16.29-15.65,24.88l-2.48,3.9q-4.1,6.45-8.45,13.1l-1.55,2.36q-1.55,2.37-3.15,4.76c-.66,1-1.33,2-2,3-1.86,2.76-3.75,5.56-5.7,8.38q-6.39,9.26-13.47,18.91l-2,2.77c-1.1,1.48-2.22,3-3.35,4.46q-4.92,6.53-10.26,13.23h0c-1.41,1.79-2.86,3.58-4.32,5.38-5.15,6.33-10.57,12.77-16.33,19.33a.12.12,0,0,1-.05.05c-.87,1-1.74,2-2.63,3q-6.64,7.47-13.85,15.15-2.9,3.07-5.88,6.18l0,0q-2.64,2.75-5.37,5.52l0,0q-2.73,2.77-5.54,5.57c-1,1-2,2-3,2.93q-4.17,4.13-8.54,8.29Q241.57,600,227.93,612q-5.42,4.75-10.92,9.41c-2.63,2.24-5.27,4.46-7.92,6.7l-8,6.68c-4.48,3.77-9,7.56-13.38,11.4q-4.44,3.84-8.79,7.75c-1.46,1.31-2.9,2.62-4.34,3.94s-2.86,2.65-4.28,4c-1.77,1.67-3.52,3.37-5.26,5.08L164,668q-3.12,3.1-6.15,6.28c-8,8.38-15.36,17.23-22.52,26.27l-3.56,4.53L130,707.34c-1.77,2.27-3.52,4.56-5.28,6.85q-3.51,4.59-7,9.17C111.9,731,106,738.59,99.89,746c-2.48,3-5.18,6.08-8,9.26-.75.83-1.5,1.66-2.27,2.49s-1.42,1.55-2.15,2.33l-2.06,2.21-1.9,2-1.85,2-5.06,5.32c-14.95,15.62-31.83,33.12-45.92,52.12q-1.39,1.9-2.78,3.82l-1.55,2.2L24.73,832l-1.64,2.46c-.57.88-1.15,1.76-1.71,2.64-1.24,2-2.45,3.91-3.61,5.88-.62,1-1.22,2.11-1.82,3.17-1,1.73-1.9,3.47-2.8,5.22-.42.83-.84,1.65-1.25,2.48a2,2,0,0,1-.1.21l-1.2,2.51-.09.2c-.39.84-.77,1.68-1.15,2.53-.8,1.83-1.56,3.66-2.27,5.51-.18.47-.36.93-.53,1.39-.53,1.39-1,2.79-1.47,4.19l-.45,1.4c-.16.47-.31.94-.43,1.41A102,102,0,0,0,1,887.49c-.08.54-.16,1.09-.23,1.63a89.52,89.52,0,0,0-.71,14.3c0,1.09.1,2.19.18,3.29.15,2.18.39,4.38.73,6.58,0,.28.08.57.13.85.2,1.23.42,2.47.68,3.71a5.59,5.59,0,0,0,.12.56c.19.9.4,1.8.62,2.7s.51,2,.79,3a2.48,2.48,0,0,0,.15.41,2.3,2.3,0,0,0,.45.64,2.54,2.54,0,0,0,2.4.54,3.11,3.11,0,0,0,.89-.4l.2-.15.34-.34a1.43,1.43,0,0,0,.14-.2,2,2,0,0,0,.3-.69,2.26,2.26,0,0,0,.06-.53c0-1.21.07-2.43.18-3.64l0-.43c.15-1.61.37-3.22.66-4.82.09-.44.17-.88.26-1.31.25-1.25.55-2.5.89-3.75l.42-1.46c.23-.77.47-1.53.73-2.3l0-.08c.28-.83.57-1.67.9-2.5l.48-1.24.51-1.24c.43-1,.89-2.05,1.37-3.07s1-2,1.51-3q1.05-2,2.22-4l1.2-2q1.2-2,2.51-3.89l0,0c1.72-2.57,3.57-5.07,5.51-7.48l0,0c.36-.46.73-.91,1.1-1.36l1.68-2,1.28-1.47q1.94-2.18,3.93-4.26l1.19-1.21c.53-.54,1.07-1.07,1.6-1.59q1.89-1.87,3.83-3.6c.64-.59,1.28-1.16,1.92-1.7s1.5-1.29,2.24-1.91q1.76-1.45,3.48-2.8l0,0c.64-.5,1.27-1,1.9-1.44a92.12,92.12,0,0,1,9.38-6.15c1-.59,2-1.14,3-1.67a72.57,72.57,0,0,1,21.86-7.4q1.38-.23,2.73-.39c.93-.12,1.84-.21,2.75-.29l1.36-.11,1.5-.08a83.22,83.22,0,0,1,8.8,0l2.2.14,3.27.3c1.09.11,2.16.25,3.23.39s2.13.3,3.19.47,2.11.34,3.16.52l2.09.37,3,.56,3.41.66,3.86.75h.08l2.48.47h.06l3.74.67c1.26.21,2.51.4,3.76.58a64.8,64.8,0,0,0,19.24.16c.6-.09,1.19-.19,1.78-.3h0c.59-.11,1.17-.23,1.75-.36,1.16-.25,2.31-.54,3.46-.86l1.45-.42,1.53-.48.44-.15c.86-.28,1.72-.58,2.58-.89.57-.2,1.13-.41,1.7-.63,1.17-.44,2.36-.9,3.57-1.39l1.78-.72h0l1.62-.66,3.34-1.37,1.74-.71.05,0,4.14-1.65,1.26-.49,1.94-.74,4.1-1.5c.71-.26,1.43-.51,2.16-.76l1.49-.51c3.44-1.15,7.17-2.31,11.27-3.45l1.6-.43q2.38-.64,5-1.27l8.15-2c3.84-.95,7.66-1.9,11.44-2.89q3.65-.94,7.26-2l2.63-.74c1.75-.51,3.49-1,5.22-1.55s3.46-1.07,5.18-1.64a178.35,178.35,0,0,0,25.14-10.24c1.63-.82,3.24-1.68,4.85-2.58s3.22-1.82,4.81-2.8c.6-.36,1.19-.73,1.79-1.11q2.67-1.7,5.29-3.54c3.62-2.54,7.16-5.2,10.66-7.91q2.1-1.63,4.18-3.29l2.07-1.66q3.11-2.49,6.19-5l6.17-5.06,2.06-1.68c1.38-1.12,2.75-2.23,4.14-3.34,1.08-.87,2.16-1.73,3.25-2.57q.9-.74,1.83-1.44c1.09-.85,2.19-1.7,3.29-2.53,1.41-1.07,2.82-2.12,4.25-3.16a0,0,0,0,0,0,0q2.15-1.56,4.32-3.07,3.25-2.26,6.63-4.4c3-1.9,6-3.7,9.18-5.39L372,741.2q2.12-1.11,4.23-2.13l2.12-1c1.82-.86,3.63-1.68,5.45-2.46l1.88-.8c19.26-8,38.85-12.51,61.16-18.15h0l4.62-1.17.68-.17q3-.76,6.05-1.57c30.06-8,65.33-19.17,111-43.89l2.34-1.28,4.9-2.72q3.84-2.16,7.79-4.43c8.1-4.7,16.52-9.81,25.28-15.4,29.4-18.75,57.59-39.43,85.45-60.72q5.73-4.38,11.45-8.79c35.81-27.62,71.28-55.94,108.3-82.14q3.64-2.58,7.27-5.08,3.78-2.62,7.53-5.17,9.84-6.67,19.52-12.95c2.42-1.58,4.84-3.14,7.24-4.69l7.21-4.62.12-.08q4.79-3.06,9.52-6.06l14.14-9c3.11-2,6.22-4,9.3-5.94l4.62-3q6.9-4.44,13.7-8.95t13.45-9.08l0,0c1.68-1.16,3.36-2.32,5-3.51,1-.7,2-1.41,3-2.13q2.61-1.85,5.19-3.72,2.19-1.59,4.36-3.2c2.9-2.15,5.78-4.32,8.64-6.54,1.43-1.1,2.86-2.22,4.28-3.34s2.83-2.26,4.24-3.4,3.06-2.51,4.56-3.78,3-2.54,4.44-3.81,2.9-2.56,4.31-3.84c7.11-6.41,13.79-12.92,20.27-19.4q2.92-2.93,5.8-5.83l3.83-3.87q3.81-3.86,7.61-7.66a384.64,384.64,0,0,1,29.42-27.14c1.3-1.07,2.61-2.11,3.94-3.15a197.93,197.93,0,0,1,18.8-13q3.27-2,6.7-3.9A180.73,180.73,0,0,1,1103,285.28q2.4-.81,4.67-1.54l2.51-.8c1.37-.44,2.7-.86,4-1.25,2-.6,3.85-1.17,5.66-1.69l1.56-.45,1.48-.42c.46-.13.91-.26,1.36-.37l1.29-.35c13.23-3.56,22.78-5.2,33.26-7.28l1.23-.24,1.72-.34.89-.18.81-.16.79-.16c14.5-3.06,32-7.58,63.26-19l1.54-.57.07,0,3.17-1.18,3.39-1.27,3.68-1.4,1.91-.73,2-.76,2.07-.8,2.18-.85,2.59-1,4.76-1.87,2.55-1q10.07-4,21.66-8.77l3.22-1.34.71-.3,1.41-.59.69-.29.37-.15.29-.12.13-.05h0a5.08,5.08,0,0,1,.49-.15h.15l0,0,0,.07a.6.6,0,0,0,.08.08h0l.16.14,2.82,2.51.09.08c18.57,16.6,34.77,32.14,51.23,53.41l.36.47c11.39,14.76,22.91,32.3,35.41,54.85.72,1.27,1.43,2.57,2.14,3.88s1.43,2.63,2.15,4c.53,1,1.06,2,1.59,3,.79,1.49,1.59,3,2.38,4.52.57,1.09,1.14,2.18,1.7,3.29l.91,1.77c.28.55.57,1.1.85,1.66.63,1.23,1.27,2.48,1.9,3.74,35.84,71.3,85.9,195.69,128.46,349l1.65,6c.78,2.85,1.55,5.7,2.33,8.57a2416.45,2416.45,0,0,1,58.59,279.3c.29,2,.56,3.84.79,5.53l.12.84c0,.26.08.52.11.78s.07.49.1.73c1,7.48,1.5,11.63,2,13.89a0,0,0,0,1,0,0,6,6,0,0,0,.62,1.89s0,0,0,0c.38.6.87.65,1.61.54a.64.64,0,0,0,.2,0,2.65,2.65,0,0,0,2.27-3c-31.38-227.62-139.3-639.47-267.81-776,118.13,104.39,265.12,437.92,298.86,774.15a2.59,2.59,0,0,0,3.2,2.22h0a3.2,3.2,0,0,0,.72-.31,1.81,1.81,0,0,0,.3-.25A1.86,1.86,0,0,0,1625,1027.55ZM1343.57,204.66a155.49,155.49,0,0,0-18.12,3.76c-72.76-63.71-171.81-72-263.85-58-303.93,46.4-614.75,336.56-825.42,517C61.62,817,42.65,829.76,20.45,866c15.57-27.52,26-36.32,190.91-183.74C503.16,421.42,1046.79-53.76,1343.57,204.66Zm-39.52,15.87c4.55,2.31,7.12,9.34,9.42,15.07,5.92,14.75,7.42,7.53-21.79-10.11C1295.76,223.8,1299.89,222.13,1304.05,220.53Zm17.67,27c-6.93-9.06-8.19-22.86-15.38-27.87,13.38-5,11.94-4.56,14.23-2.36,7.85,7.53,11.14,32.37,17.65,45.59C1332.91,257.56,1327.41,252.42,1321.72,247.53Zm22.36,21.38c-11.56-15.45-12.26-45.12-23.31-54-.7-.57,12.75-3.71,14.57-4.09,17,20.32,13.09,49.65,22.68,73.66C1353.51,279.18,1348.87,274,1344.08,268.91Zm18.67,21.29c-13.4-24.83-7.27-57-25.32-79.78.33-.06,8.07-1.59,8.54-1.06,27,29.88,17.14,57.18,22.12,79.86C1371.36,304.1,1376.65,307.23,1362.75,290.2Zm-13.53-81.48a97.54,97.54,0,0,1,11.35-.39c2.68.07,16.42,13.25,20.75,38.66,4.29,25.14-.74,51,6.13,76.14C1353.85,274.88,1384.09,249.16,1349.22,208.72Zm41.94,119.79c-13.78-38.36,6.06-89.8-26.77-120a59.12,59.12,0,0,1,14.93,3c.06,2,15.51,12.26,19.24,49.06,3.13,30.89-3.27,56.75,7.2,90C1401.43,343.84,1396.73,336.66,1391.16,328.51Zm18.78,28.75c.2-1.18-5.32-11.77-7.51-31.42-3.88-35,6.48-82-19.68-112.93,37,16.46,25.25,78.86,33.12,139.46C1419.15,377.67,1424.48,380.51,1409.94,357.26Z"/><path class="cls-2" d="M1623.42,1029.77c-.32.09-.58.12-.7.17-9.46,5.76-22.4,3.42-32.9,3.34a4.78,4.78,0,0,1-2.92-.93,2.65,2.65,0,0,0,2.27-3c-31.38-227.62-139.3-639.47-267.81-776,118.13,104.39,265.12,437.92,298.86,774.15A2.59,2.59,0,0,0,1623.42,1029.77Z"/><path d="M1625,1027.55h0c-8.15-81.2-20.44-158.21-39.17-235.52-.13-.51-.25-1-.38-1.53-21.87-89.9-52.47-180.23-95.39-278q-2.07-4.74-4.19-9.49h0l-1.45-3.24c-1-2.14-1.9-4.24-2.82-6.29-5.17-11.43-9.89-21.53-14.22-30.53-.72-1.51-1.43-3-2.13-4.43s-1.52-3.11-2.25-4.62l-2.09-4.24-.06-.12-2-4.08q-2.05-4.11-4-7.86l-1.43-2.8-3.4-6.58-.65-1.25-.73-1.4c-.27-.49-.52-1-.77-1.46l-1.6-3.05c-.39-.75-.78-1.48-1.16-2.2-2-3.87-3.92-7.39-5.63-10.66l-.73-1.39c-.28-.52-.55-1-.81-1.55l-1.19-2.29c-.57-1.08-1.11-2.14-1.63-3.17a.54.54,0,0,1-.05-.11c-.35-.68-.69-1.34-1-2l-.56-1.14c-.68-1.36-1.31-2.69-1.92-4-.16-.32-.31-.65-.45-1-.29-.61-.56-1.22-.83-1.82-1.14-2.54-2.15-5-3.07-7.49-.35-.93-.68-1.86-1-2.8s-.64-1.93-.94-2.91c-.48-1.56-.92-3.16-1.34-4.79l-.27-1.07-.42-1.81c-.1-.44-.2-.88-.29-1.33-.25-1.17-.49-2.38-.72-3.61s-.44-2.51-.65-3.82c-.14-.88-.27-1.77-.4-2.68l-.18-1.28c0-.34-.09-.68-.13-1-.14-1-.26-2.08-.39-3.16l-.18-1.64c-.12-1.11-.23-2.25-.35-3.41,0-.59-.11-1.18-.17-1.78,0-.4-.07-.81-.11-1.22-.07-.81-.14-1.63-.21-2.47-.1-1.27-.2-2.57-.3-3.91,0-.09,0-.17,0-.25-.07-1-.15-2.08-.22-3.16,0-.07,0-.15,0-.22-.07-1.09-.14-2.2-.21-3.34,0-.08,0-.15,0-.22q-.23-3.59-.43-7.5c-.4-7.3-.77-15.51-1.17-24.84,0-.82-.07-1.64-.11-2.46s-.07-1.61-.11-2.41a2.17,2.17,0,0,0,0-.26l-.12-2.53c-.09-1.74-.18-3.47-.27-5.17a.49.49,0,0,1,0-.12c-1.46-25.34-4.32-46.52-13.37-60.94-.3-.47-.61-.94-.92-1.4s-.51-.74-.77-1.1c-.12-.18-.25-.35-.38-.52s-.37-.5-.57-.74-.52-.67-.8-1-.53-.63-.8-.94c-9.71-11.11-24.9-16.55-49-14.49h0c-1.76-2-3.52-3.94-5.3-5.89s-3.58-3.89-5.38-5.82q-7.23-7.72-14.7-15.22c-71-71.19-158.86-126.49-253.84-159l-3.35-1.13c-1.12-.38-2.23-.74-3.33-1.1h0l-3.11-1q-3-.95-5.95-1.83-2.78-.83-5.5-1.6l-5.08-1.4-2.7-.71c-50.64-13-91.48-11.29-128.22.74l-1.86.62q-.82.27-1.65.57C868,25.69,831.23,53.63,791,88.13l-1.59,1.36c-31.37,27-64.91,57.91-104.7,89.52,0,0,0,0,0,0-16.42,13-33.9,26.21-52.73,39.25q-13.71,9.53-28.42,18.93l-.19.12c-21.13,13.49-47.57,29.76-72.9,45.75l-.27.17c-28,17.68-54.65,35-71.26,47.8l-1.62,1.27-1.56,1.23-1.4,1.13-1.71,1.41q-1.7,1.41-3.34,2.84-2.47,2.16-4.86,4.37-1.59,1.47-3.13,2.95t-3.05,3c-1.51,1.51-3,3-4.45,4.59l0,0c-1,1-1.92,2.06-2.87,3.1-.49.53-1,1.06-1.44,1.6-.93,1.05-1.86,2.11-2.78,3.17l0,0q-1.72,2-3.41,4T420,369.92q-2.67,3.33-5.24,6.77c-.85,1.13-1.7,2.27-2.54,3.42l0,0q-1.89,2.6-3.77,5.24l0,0-2.48,3.54-1.26,1.82q-1.85,2.7-3.69,5.45s0,0,0,0q-2.45,3.67-4.9,7.44h0l-2.45,3.79c-1.24,1.91-2.47,3.85-3.71,5.8l-2.48,3.92c-5.06,8-10.22,16.29-15.65,24.88l-2.48,3.9q-4.1,6.45-8.45,13.1l-1.55,2.36q-1.55,2.37-3.15,4.76c-.66,1-1.33,2-2,3-1.86,2.76-3.75,5.56-5.7,8.38q-6.36,9.26-13.47,18.91l-2,2.77c-1.1,1.48-2.22,3-3.35,4.46q-4.92,6.53-10.26,13.23h0c-1.41,1.79-2.86,3.58-4.32,5.38-5.15,6.33-10.57,12.77-16.33,19.33a.12.12,0,0,1-.05.05c-.87,1-1.74,2-2.63,3q-6.63,7.47-13.85,15.15-2.88,3.07-5.88,6.18l0,0q-2.64,2.75-5.37,5.52l0,0q-2.73,2.77-5.54,5.57c-1,1-2,2-3,2.93q-4.17,4.13-8.54,8.29Q241.57,600,227.93,612q-5.42,4.75-10.92,9.41c-2.63,2.24-5.27,4.46-7.92,6.7l-8,6.68c-4.48,3.77-9,7.56-13.38,11.4q-4.44,3.84-8.79,7.75c-1.46,1.3-2.9,2.62-4.34,3.94s-2.86,2.65-4.28,4c-1.77,1.67-3.52,3.37-5.26,5.08L164,668q-3.12,3.1-6.15,6.28c-8,8.38-15.36,17.23-22.52,26.27l-3.56,4.53L130,707.34c-1.77,2.27-3.52,4.56-5.28,6.85q-3.51,4.59-7,9.17C111.9,731,106,738.59,99.89,746c-2.48,3-5.18,6.08-8,9.26-.75.83-1.5,1.66-2.27,2.49s-1.42,1.55-2.15,2.33l-2.06,2.21-1.9,2-1.85,2-5.06,5.32c-15,15.72-31.82,33.19-45.92,52.12q-1.39,1.9-2.78,3.82l-1.55,2.2L24.73,832l-1.64,2.46c-.57.88-1.15,1.76-1.71,2.64-1.24,2-2.45,3.91-3.61,5.88-.62,1-1.22,2.11-1.82,3.17-1,1.73-1.9,3.47-2.8,5.22-.42.83-.84,1.65-1.25,2.48a2,2,0,0,1-.1.21l-1.2,2.51-.09.2c-.39.84-.77,1.68-1.15,2.53-.8,1.83-1.56,3.66-2.27,5.51-.18.47-.36.93-.53,1.39-.53,1.39-1,2.79-1.47,4.19l-.45,1.4c-.16.47-.31.94-.43,1.41A96.89,96.89,0,0,0,1,887.49c-.08.54-.16,1.09-.23,1.63a85.09,85.09,0,0,0-.71,14.3c0,1.09.1,2.19.18,3.29.15,2.18.39,4.38.73,6.58,0,.28.08.57.13.85.19,1.23.42,2.47.68,3.71a5.59,5.59,0,0,0,.12.56c.19.9.4,1.8.62,2.7s.51,2,.79,3a2.48,2.48,0,0,0,.15.41,2.53,2.53,0,0,0,.45.64,2.54,2.54,0,0,0,2.4.54,3,3,0,0,0,.89-.4l.2-.15.34-.34a1.43,1.43,0,0,0,.14-.2,2,2,0,0,0,.3-.69,2.19,2.19,0,0,0,.07-.53c0-1.21.07-2.43.17-3.64l0-.43c.15-1.61.37-3.22.66-4.82.09-.44.17-.88.26-1.31.26-1.26.56-2.5.89-3.75l.42-1.46c.23-.77.48-1.53.73-2.3l0-.08c.28-.83.58-1.67.9-2.5l.48-1.24.51-1.24c.43-1,.89-2.05,1.37-3.07s1-2,1.51-3q1.07-2,2.22-4l1.2-2c.81-1.32,1.65-2.61,2.51-3.89l0,0c1.74-2.57,3.59-5.06,5.51-7.48l0,0c.36-.46.73-.91,1.1-1.36l1.68-2,1.28-1.47q1.94-2.18,3.93-4.26l1.19-1.21c.53-.54,1.07-1.07,1.6-1.59q1.91-1.86,3.83-3.6c.64-.59,1.28-1.16,1.92-1.7s1.5-1.29,2.24-1.91q1.76-1.45,3.48-2.8l0,0,1.9-1.43a97.65,97.65,0,0,1,9.38-6.16c1-.59,2-1.14,3-1.67a72.57,72.57,0,0,1,21.86-7.4q1.38-.23,2.73-.39c.93-.12,1.84-.21,2.75-.29l1.36-.11,1.5-.08a83.22,83.22,0,0,1,8.8,0l2.2.14,3.27.3c1.09.11,2.16.25,3.23.39s2.13.3,3.19.47,2.11.34,3.16.52l2.09.37,3,.56,3.41.66,3.86.75h.08l2.48.47h.06l3.74.67c1.26.21,2.51.4,3.76.58a64.8,64.8,0,0,0,19.24.16c.6-.09,1.19-.19,1.78-.3h0c.59-.11,1.17-.23,1.75-.36,1.16-.25,2.31-.54,3.46-.86l1.45-.42,1.53-.48.44-.15c.86-.28,1.72-.58,2.58-.89.57-.2,1.13-.41,1.7-.63,1.17-.44,2.36-.9,3.57-1.39l1.78-.72h0l1.62-.66,3.34-1.37,1.74-.71.05,0,4.14-1.65,1.26-.49,1.94-.74c1.32-.5,2.69-1,4.1-1.5.71-.26,1.43-.51,2.16-.76l1.49-.51c3.44-1.15,7.17-2.31,11.27-3.45l1.6-.43c1.59-.44,3.24-.86,5-1.28l8.15-2c3.84-.95,7.66-1.9,11.44-2.89q3.65-.94,7.26-2l2.63-.74c1.75-.51,3.49-1,5.22-1.55s3.46-1.07,5.18-1.64a178.35,178.35,0,0,0,25.14-10.24c1.63-.82,3.24-1.68,4.85-2.58s3.22-1.82,4.81-2.8c.6-.36,1.19-.73,1.79-1.11,1.78-1.12,3.54-2.3,5.3-3.53,3.62-2.54,7.16-5.2,10.65-7.92q2.1-1.63,4.18-3.29l2.07-1.66q3.11-2.49,6.19-5l6.17-5.06,2.06-1.68c1.38-1.12,2.75-2.23,4.14-3.34,1.08-.87,2.16-1.73,3.25-2.57q.9-.74,1.83-1.44c1.09-.85,2.19-1.7,3.29-2.53,1.41-1.07,2.82-2.12,4.25-3.16a0,0,0,0,0,0,0q2.15-1.56,4.32-3.07,3.25-2.26,6.63-4.4c3-1.89,6-3.69,9.18-5.38L372,741.2q2.12-1.11,4.23-2.13l2.12-1c1.82-.86,3.63-1.68,5.45-2.46l1.88-.8c19.44-8.18,39-12.6,61.16-18.15h0l4.62-1.17.68-.17q3-.76,6.05-1.57c29.94-7.84,65.06-19,111-43.89l2.34-1.28,4.9-2.72q3.84-2.15,7.79-4.43c8.1-4.7,16.52-9.81,25.28-15.4,29.4-18.75,57.59-39.43,85.45-60.72q5.73-4.38,11.45-8.79c35.81-27.62,71.28-55.94,108.3-82.14q3.64-2.58,7.27-5.08,3.78-2.62,7.53-5.17,9.84-6.67,19.52-12.95c2.42-1.58,4.84-3.14,7.24-4.69l7.21-4.62.12-.08q4.79-3.06,9.52-6.06l14.14-9c3.11-2,6.22-4,9.3-5.94l4.62-3q6.9-4.44,13.7-8.95t13.45-9.08l0,0c1.68-1.16,3.36-2.32,5-3.51,1-.7,2-1.41,3-2.13q2.61-1.85,5.19-3.72,2.19-1.59,4.36-3.2,4.35-3.22,8.64-6.54c1.43-1.1,2.86-2.22,4.28-3.34s2.83-2.26,4.24-3.41,3.06-2.51,4.56-3.77,3-2.54,4.44-3.81,2.9-2.56,4.31-3.84c7.11-6.41,13.79-12.92,20.27-19.4q2.92-2.93,5.8-5.83l3.83-3.87q3.81-3.86,7.61-7.66a384.64,384.64,0,0,1,29.42-27.14c1.3-1.07,2.61-2.11,3.94-3.15a197.93,197.93,0,0,1,18.8-13q3.27-2,6.7-3.9A180.73,180.73,0,0,1,1103,285.28q2.4-.81,4.67-1.54l2.51-.8c1.37-.44,2.7-.86,4-1.25,2-.6,3.85-1.17,5.66-1.69l1.56-.45,1.48-.42c.46-.13.91-.26,1.36-.37l1.29-.35c13.68-3.76,23.11-5.34,33.26-7.28l1.23-.24,1.72-.34.89-.18.81-.16.79-.16c14.17-2.87,31.24-7.19,63.26-19l1.54-.57.07,0,3.17-1.18,3.39-1.27,3.68-1.4,1.91-.73,2-.76,2.07-.8,2.18-.85,2.59-1,4.76-1.87,2.55-1q10.07-4,21.66-8.77l3.22-1.34.71-.3,1.41-.59.69-.29.37-.15.29-.12.13-.05h0a1.68,1.68,0,0,1,.49-.15.1.1,0,0,1,.09,0h.06l0,0,0,.07a.6.6,0,0,0,.08.08l.16.15c.71.7,1.66,1.53,2.82,2.51l.09.08c8.26,7,27.28,21.83,51.23,53.41l.36.47a471.14,471.14,0,0,1,35.41,54.85c.72,1.27,1.43,2.57,2.14,3.88s1.43,2.63,2.15,4c.53,1,1.06,2,1.59,3,.79,1.49,1.59,3,2.38,4.52.57,1.09,1.14,2.18,1.7,3.29l.91,1.77c.28.55.57,1.1.85,1.66.63,1.23,1.27,2.48,1.9,3.74,40.12,79.2,88.17,203,128.46,349l1.65,6c.78,2.85,1.55,5.7,2.33,8.57a2475.46,2475.46,0,0,1,59.38,284.83l.12.84c0,.26.08.52.11.78s.07.49.1.73c.68,4.63,1.33,9.25,2,13.89a0,0,0,0,1,0,0c0,.24.07.49.1.73a2,2,0,0,0,.52,1.16s0,0,0,0a1.9,1.9,0,0,0,1.61.54.64.64,0,0,0,.2,0,2.65,2.65,0,0,0,2.27-3c-31.38-227.62-139.3-639.47-267.81-776,118.13,104.39,265.12,437.92,298.86,774.15a2.59,2.59,0,0,0,3.2,2.22h0a2.21,2.21,0,0,0,.72-.31,1.81,1.81,0,0,0,.3-.25A2,2,0,0,0,1625,1027.55ZM1343.57,204.66a155.49,155.49,0,0,0-18.12,3.76c-72.76-63.71-171.81-72-263.85-58-303.93,46.4-614.75,336.56-825.42,517C61.62,817,42.65,829.76,20.45,866c15.57-27.52,26-36.32,190.91-183.74C503.16,421.42,1046.79-53.76,1343.57,204.66ZM1260,186c-21.06,17-21.7,36.64-58.09,68.82-52.1,15.93-10.59,7.63,26-50.43,8.31-13.16,19.51-31.62,38.25-29.09C1279.61,181.56,1273.1,175.46,1260,186ZM593.18,379.6c1.57-2,.2-1,15.58-11.89-39.9,61.29-16.67,219.47-95.87,323.44q-5.55,2.22-11.18,4.3C585.62,573.83,547,437.67,593.18,379.6Zm-123.07,326c80-109.06,62.92-134.42,80.13-250.51,8.66-58.39,20.12-59.51,36.66-71.58-39.87,60.25-8.43,192.11-85,306.59C496.83,697.71,501,697.07,470.11,705.57ZM623.42,357.38C592.69,425.14,625,521.94,534,682.12q-8.75,4-17.65,7.66C600.91,575.51,566,397.53,623.42,357.38Zm3.13-2.18q9.26-6.45,18.6-12.78C619,390.24,642.69,574.11,548,675.4c-3.68,1.82-7.38,3.61-11.11,5.34C625.08,523.8,594.67,420.16,626.55,355.2Zm112.79-96c13.25-2.26,15-5.35-8.11,9.12-34.8,12.91-133,6.78-168.8,10.18-24.6,2.34-34,11.29-1.32-9.08C614.51,246.75,657.67,273.13,739.34,259.19Zm-149.41-7.72c45.72-19.66,123.16,3.49,184.15-9.35-19.86,11.82-17.18,13.58-54.86,18.18-45.64,5.58-81-5.56-122.42-1.45C567.55,261.75,555.65,272.91,589.93,251.47Zm231.89-36.61c-40.51,12.82-60.59-14.44-155-.88-31.2,4.48-28.51,6.09-20.69.55C694.77,180,763,202.9,805.89,208.19,835.42,211.83,840,205,821.82,214.86ZM1005.27,70.4c18.08,15.07,34.17,33.07,49.73,48.81s20.42,12,11.46,13.26c-43.35-20.91-40.17-34.89-69.44-53.85C967,59.21,912.13,41,860,42.53c6-3.88,12.16-7.61,18.41-11.14C890.74,31.29,947.06,21.9,1005.27,70.4Zm-100-52.28c54.06,1.22,102.13,30.09,136.19,71.54,12.08,14.71,23.19,32.16,40,40.84-17.83,2.05-32.59-26.53-71.44-59.86C927.69.05,844.23,43.74,905.23,18.12Zm105,73.05c20,18.27,21.14,26.29,52.86,41.78-13,1.93-13.55,3.38-21.23-1-29.43-16.86-33.74-34.33-62.15-49.54-25.63-13.71-56.49-24.9-86.15-29.62-45.9-7.3-54.79,3.61-36.71-8.23C911,42.23,979.17,62.88,1010.22,91.17ZM995,94.63c8.64,7.12,33,34.54,50.48,41.19-11.86,2.07-14.4,4.94-41.6-19.72C962.94,79,869.36,57.9,834.89,59.7q5-3.63,10.12-7.15C901.4,48.25,969.12,73.34,995,94.63ZM876.43,66c39,6.21,55.67,12.12,86.47,27,50,24.14,46.58,37.78,69.06,45.34q-5,1-10,2c-24.12-9.08-41.14-30.47-67-42.27C925,84.41,850.63,72.41,817.68,72.6,833.59,60.3,828.4,58.32,876.43,66Zm92.13,42.79c16.24,10.52,30.51,24.64,48.51,32.62-15.7,3.41-15.08,7-42.4-15.2-24.32-19.79-49.11-28.5-79.73-32.68-18.14-2.49-76.64-9.44-94.76-7q6.81-5.55,13.74-11C846.3,74.75,933.87,86.31,968.56,108.77Zm355.62,74.72c-35.22-24.61-23.15-7.94-36.85-34.57C1300.92,160.71,1312.79,171.93,1324.18,183.49Zm-30.94-18.76q-6.33-3.31-12.79-6.3c-10.35-8.81-14.14-22.32-22-33.18C1295.17,153.67,1280.81,145.13,1293.24,164.73Zm-43.11-45.79a.91.91,0,0,0,.13.16c11.64,9.87,15,25.75,25.11,37q-7.14-3.15-14.44-5.92c-11-11-13.85-27.16-22.86-39.5C1236.75,108.91,1233.81,106.71,1250.13,118.94Zm-21.73-15.35c12.64,9,16.23,25.35,23.71,38.13,5.57,9.5,9.87,8.37-7.06,2.93-15.55-13-20.3-34-32.21-49.82C1210.6,91.85,1201.45,84.29,1228.4,103.59ZM1200.23,85c16.71,11.65,21.93,32.83,32.87,49,7.7,11.36,11.55,10.38,1.48,7.5-1.08-1.95-10.82-3.87-27.77-29.57C1198,98.46,1190,83.82,1179.07,72.36,1184,75.18,1197.3,83,1200.23,85Zm-33-19.3c21.24,15.32,31.1,42.78,48.45,62.93,12.22,14.21,18.85,12-3.89,7.19-25-17.18-36.66-49.8-50.61-68.75C1154,57.35,1147.82,55.08,1167.19,65.7Zm-19-10c22.74,19.24,29.48,55.91,59.13,79.25-22.47-4.47-23.42,1.06-41.57-33.67-16.91-32.33-18.29-35.4-22.54-41.63C1134.76,47.17,1126.13,44.4,1148.21,55.66Zm-19.92-9.75c20.12,17,29.77,49.32,45.13,73.2,10.26,16,18.69,12.37-4.87,10.2-20-16.73-42-74.91-59.9-92.17Q1118.55,41.36,1128.29,45.91Zm-26.38-11.58c16,9.63,40.41,63.07,49.72,77.87,13.35,21.23,20.95,17.07,2.57,16-28.55-21.69-46.51-78.6-74.79-102.56Q1090.75,29.75,1101.91,34.33Zm-28.06-10.59c31.18,22.58,47.31,79.83,77.06,104.34-2.8-.14-5.61-.24-8.41-.31-45.24-32.84-40.25-73.25-102.33-114.23Q1057.15,18,1073.85,23.74Zm-39.6-11.69c64.31,39.64,61.3,82.49,104.93,115.64-27.66-.52-50.1-63.23-105.31-106.06C1013.72,6,996.51,2.8,1034.25,12.05ZM1128,127.62c-2.56,0-5.11.07-7.67.14-31-19.38-42.36-41.15-52.38-53.24-5.55-6.7-54.31-58.5-83.6-70.29C1050.57,7.59,1094.05,105.8,1128,127.62ZM977.85,4c28.47,8.49,78.06,59.64,86.45,69.22,8.6,9.83,13.63,19.38,24.86,31.4,26.65,28.54,38.45,22.4,15.56,23.82-30.4-9.19-89.32-112.08-162.62-121.63A177.21,177.21,0,0,1,977.85,4ZM935.72,8.13c67.22,3.71,130.43,95.59,154.68,114.32,11.53,8.9,16.46,5.32-5.34,7.65-17.1-7.59-28.47-24.55-40.23-39.25C1011,48.58,963.37,19,909.57,16.36A181,181,0,0,1,935.72,8.13ZM797.19,89C812,85.85,901.14,92,934.7,105.05c37.46,14.53,46.5,34.49,65.52,40.21C958,155.52,960.54,91.6,827.93,100.15c-16.4,1.06-32.75,2.82-49.12,4.18Q787.93,96.56,797.19,89Zm-20.84,17.48c59.42-4.8,123.25-15.76,175.79,21.94,10.66,7.66,21.1,16.48,33.79,20.52q-6.49,1.71-13,3.54c-26.78.16-47.82-20.61-72-30.12-30.26-11.91-83.12-9.53-135.42-6.61Q770.95,111,776.35,106.43Zm-13.11,11.32c130.42-7.48,132.32,3,170.86,24.4,10.23,5.68,21.49,10.72,33.2,11.93q-10.11,3-20.12,6.22c-24.74,5.86-20.77-23.47-155.13-31.63a246.28,246.28,0,0,0-42.16.73Q756.55,123.57,763.24,117.75Zm-17.18,15c39.43-5.39,129.76,4.87,163.52,19.54,8.78,3.82,18.25,9.73,28,11.19-28.62,9.73-23.32,10.89-64.44-6.94-19-8.24-37.8-10-59-11.26-52.07-3.13-60.27-8.11-77.56-4.24Zm-12.72,11.15c17-5.28,34.47-.14,56.63,1.74,59.34,5,51.25-.3,99.72,20.61,24.26,10.46,34.64,1.22,8.7,11.86-23.81,6.61-45.9-14.19-70.43-18.56-13.38-2.38-27-1.58-40.49-3-13.62-1.46-26.78-5.86-40.48-6.85C723.35,148,714.3,160.57,733.34,143.91Zm-18.6,16.15c19.46-16.72,50.43-4.46,70.39-1.89,13.51,1.73,27.23.83,40.7,3,24.55,3.9,41.94,21.16,65.28,20q-9.47,4-18.79,8.31c-43.25,7.5-81.24-28-136.89-25.92C704.19,164.69,700.57,172.24,714.74,160.06Zm-11.1,9.44c55.22-14.55,94.28,9.95,131.88,19.56,31.15,8,41.52-2.21,18.75,9C803.81,206,796,178.47,718.13,177.59c-7.71-.08-18.16.08-25.77,1.32Q698,174.25,703.64,169.5Zm-14.33,11.92c14.93-3.32,55.48-3.53,94.93,7.63,18.6,5.27,32.92,12.82,51.94,12.65,14-.13,17.15-3.29,5.51,2.68C801.26,216.49,728.26,176.1,664,201.43Q676.82,191.66,689.31,181.42Zm-52,39.26c109.83-22.76,134.11,6.47,178-2.24-14.62,8.06-16.69,14.09-89,8.91C624.47,220.06,604.49,243.23,637.28,220.68Zm-18.79,12.58c86.78-14,129.79,4.15,178-4.24-15.18,8.71-23.73,17.91-90,14.87-30.76-1.4-78.15-6.34-109,2.82Q608.05,240.07,618.49,233.26Zm-90,56.67c30.85-14.71,59.24-6.75,160.34-11.61,37.67-1.82,44-11.25,15.94,6.85C672.17,300,626,289.61,544.53,293.79,514.25,295.35,511.58,300.66,528.47,289.93Zm-15.42,9.86c25.2-8.08,117.16-3,154.33-4.88,31.6-1.57,41.78-12.9,12.27,6.67C635,314,528.1,304.18,499.24,308.74,503.84,305.75,508.43,302.76,513.05,299.79Zm123.63,9.58c41.9-1.49,48.21-11.47,24.2,4.77-60.46,16.89-135.35-2.47-187.54,12.09C512,298.34,490.12,314.6,636.68,309.37Zm-168.2,20.42c34.83-12.94,104.2-4.48,147.33-6.79,45.88-2.46,54.64-15.78,16.48,10.76-50.7,15.54-134.61-13.95-191.4,19.42A267.83,267.83,0,0,1,468.48,329.79ZM435,359.22c56.25-38.59,140.42-9.58,192.63-22.18q-13.29,9.29-26.46,18.73c-21,8.54-58.61-6.76-140.45,8.53-20.51,3.83-30.59,7.17-47.29,21.83A250.89,250.89,0,0,1,435,359.22ZM406.09,396.8c19.89-19.15,28.08-24.37,51.6-29A421.39,421.39,0,0,1,568,361c29.51,2,29.89-2.9,21.6,3.09-9.72,5.07-21.83,7.64-39.69,11.8-50.39,11.74-58.12,7.92-87.16,9.87C404.91,389.6,391.91,418.25,406.09,396.8ZM398,409.32c16.52-13.38,40.74-19.68,61.8-21.47,27.78-2.36,37,2.06,86.82-9.29,10.28-2.35,27.16-6.15,35.84-9.33-16.24,11.84-21.88,18.12-46.29,24.29-88.32,22.36-117.54,11.25-146.68,29.56C392.34,418.48,395.16,413.89,398,409.32Zm-10.87,17.62c22.67-16.94,45.91-11.34,105.1-22.41,25.44-4.76,46.59-8.45,63.33-15.47-26.19,19.52-25,24.33-84.86,29.79-56.27,5.13-92.51,22.64-93.53,24.27C380.55,437.76,383.85,432.36,387.16,426.94Zm-12.4,20c36.09-24.83,106.87-26,130.82-30.4,23.58-4.37,28.27-11.26,8.51,4-39,23-88.54,14.37-131.11,32.42C360.34,462.56,357.78,473.8,374.76,447Zm105-10.42c25-5.65,30.71-13.36,10.92,2.17-27.76,21.8-99.91,19-137.46,40.54C379.28,442.18,439.47,445.65,479.79,436.55ZM350.37,483.32c32.11-21.5,89.68-19,130.62-36.92-44.15,34.9-87.44,29.56-121.71,40.15C340.26,492.44,339.33,498.84,350.37,483.32Zm-9.85,13.57c30.73-19.2,61.08-8.55,119.4-33.72-18.09,14.51-31,27.61-61.07,33.13-22.51,4.13-46.82,1-67.62,12.79Q335.93,503,340.52,496.89Zm-12.76,16.66c5.85-7.47,31.71-11.41,41.13-12.24,18.79-1.66,33.14-1.58,52.83-9.83,9.57-4,14.15-9-10.49,11.36-28,16.17-63.24,13.63-93.43,27.67C307.28,535.4,307.17,539.69,327.76,513.55ZM303,543.19c24.25-20.37,60.1-20.12,89-29.06,12.15-3.75,15-7.9-2.59,6.87-24.18,15.42-55.13,12.82-81.94,22.74C297.94,547.28,297.51,549.43,303,543.19Zm-7.44,8.32c22.3-13.38,50.33-12.41,75-20,14.19-4.35,19.3-11.07-8.33,12.39-28.5,16-47.08,10.23-67.84,14.79C284.94,560.79,283.4,564.9,295.57,551.51Zm-12,12.91c20.33-10.21,41.06-.78,72.35-15.13q-7.17,6.11-14.32,12.23c-20,9.2-42.75,8.81-64.17,12.5C271.77,575,270.72,577.93,283.58,564.42Zm-13.37,13.72c9.91-5.1,43-3.77,66.76-12.63-13.67,11.74-12.64,12.06-25.37,17.18-24.74,9.95-39.49,6.24-56.71,10.45Q262.65,585.73,270.21,578.14Zm-21,20.42c11.35-6.73,36.64-2.86,61.52-12.44,5.92-2.28,7.68-4.59-5.4,6.79-13.38,6-26.73,5.39-48,9.85C235.73,607.25,235.91,611,249.16,598.56Zm-12.71,11.73c16.21-6.45,47.42-9.48,56.86-11.54s11.4-5.37-1,5.51c-22.62,12.36-50.18,10.74-66.61,15.68Q231.09,615.16,236.45,610.29Zm-14.61,13c14.55-6,35.55-4.35,57.8-11.58,9.5-3.09,12.36-7.3-9,11.51-19.31,6.18-40.61,3.25-60,9.7Q216.3,628.16,221.84,623.31ZM205.1,637.67c8.71-7.33,39.9-7.55,54.13-9.84,10.26-1.66,12.26-5.37-2.69,7.85-16.35,7.14-33.79,1.8-62.6,13C190.33,650.12,186,653.72,205.1,637.67ZM186,654.28c30.9-14.9,48.88-9.71,66.6-15.12-18.24,16.15-55,17-81.67,29.21Q178.3,661.19,186,654.28Zm-21.85,20.86c21-12.82,50.58-14.43,74.59-24.4,2.17-.9,3-2-3.64,4-21.05,18.71-48,15.69-75,27.76C154.27,685,150.28,689.28,164.14,675.14Zm-13.68,14.72c21.11-14.25,48.91-14.13,72.32-24.19l-13.06,11.65c-20.42,9.68-44.33,10-64.46,20.68C141.46,700,138.59,703.34,150.46,689.86Zm-12.53,15.08c18.75-14.63,45.38-15,67.28-23.6-17.13,15.32-13.22,14.44-41,19.94C131,707.86,121.8,725.31,137.93,704.94Zm-11.5,14.73c20.29-15.27,36.85-15.65,52.24-19.37,9.85-2.37,11.49-5.49.75,4.16C160.66,716.69,136.63,720,116.87,732,120.07,727.88,123.24,723.78,126.43,719.67ZM170,712.92c-31.82,28.59-43.35,23.77-67.26,36.79C123.69,724.24,140.86,726.57,170,712.92ZM99.09,754.08c14.35-9.34,31.89-12.43,47.65-21.22,3.9-2.18,8.72-6.89-17,16.29-12.37,6.74-26.94,9-39.62,15.28Q94.69,759.32,99.09,754.08Zm-14.9,16.81c7.33-7.79,26.88-11.44,40.46-17.23.18-.07,1.95-1.69-16.09,14.55-5.91,5.32-18.15,4.87-34.21,13Q79.29,776.07,84.19,770.89Zm18.31,2.73q-6,5.36-12.09,10.69c-9.73,3.93-20.26,6.07-29.52,11C72.42,783,70.27,783.35,102.5,773.62Zm-16,14.11c-5.79,5.11-11.58,10.24-17.29,15.45-7.44,2.89-15.94,4.58-23,8.31C60,795.4,57.84,797.6,86.52,787.73ZM65.79,806.36q-4.77,4.39-9.44,8.88c-14.58,5.87-17.36,6.91-20,8.44C44.51,813,44.21,813.32,65.79,806.36ZM41.9,823.15c14.52-5.91,12.44-6.14,5.55.88s-11.56,6.42-21.83,15.19C31.94,829.06,34.38,826.22,41.9,823.15ZM21.8,845.64c4.9-5.8,11.56-10.1,18.29-13.83-3.48,3.83-6.86,7.79-10.08,11.87C18.41,849.52,14.14,859.16,21.8,845.64ZM7.37,883.74c-4.15,12.17,1.8-11.26,7-23.33A42.19,42.19,0,0,1,27,847.62C18.76,858.69,11.83,870.68,7.37,883.74Zm8.78.77a156,156,0,0,1,18.17-29.9C28.4,875.13,32.88,859.53,16.15,884.51ZM33.76,863c4.21-12.83.43-10.05,16.93-27.48C48.2,842.3,46.06,850.61,33.76,863Zm25.93-20a108.85,108.85,0,0,0-16,10.93c6.57-8.5,6.64-13.31,10.46-22.05,5.83-6,11.9-11.7,18-17.25C69.57,821.36,70.51,827.74,59.69,843Zm3.57-1.88c14.44-22,3.4-21.82,19.11-35.55,12.58-11,7.88-9.31,6,2.29-1.45,9.1-2,13.67-7.94,22.19C73.93,839.43,77.23,834.17,63.26,841.14ZM79,835.2c15.37-19.28,7.94-28.68,15.63-40.25q7.59-6.6,15.22-13.17c-5.44,13.91-1.51,26.32-11.44,40.12C87.6,836.91,90.41,832.25,79,835.2Zm20-2.5q-3.46,0-6.9.29c6.14-7.57,10.84-13,13.25-20.21,3.71-11.14,2.23-23.83,8.08-34.09q7.55-6.5,15.11-13C117.82,786.47,121.69,820.32,99,832.7Zm13.22.92c-17.79-2.46-1.56,4.8,7.54-25.63,4.86-16.27,5.18-37.07,18.11-50.24,4.45-3.8-1.23-2.09-2.89,22.63C132.81,812.53,114,833.87,112.21,833.62Zm20.13-28.76c6-16.7,3.46-27.32,6.33-39.9,2.81-12.29,6.45-13.42,19.07-24.18-18.05,37.74,11.57,44.59-29.2,95.94C103.73,831.51,119.6,840.42,132.34,804.86Zm-1.72,32.29c23.43-29.55,22.51-39,22.56-62.17,0-13,1.81-26.61,8.66-37.69l20.79-17.72c-6.27,12.94-6.72,28.18-7.44,42.41-1.57,31.2-8.08,44.9-32.79,77.22C138.47,838.7,134.54,838,130.62,837.15Zm29,2.1a58.3,58.3,0,0,1-15,.2c20-26.18,30.09-42.67,32.12-71,3.6-50.59,4.05-47.25,23.52-63.89-14.17,31.3-7.36,67-22.73,101.91C169.22,825.27,159.54,837.69,159.66,839.25Zm14.36-4.1a80.38,80.38,0,0,1-10.86,3.43c11.49-18.58,20.56-34.67,25-56.07,5.74-28,3.85-58.27,17.83-82.85l3.12-2.66,0,0,0,0s0,0,0,0l0,0,6-5.16C200.3,720.44,220.49,765.19,174,835.15ZM190.61,828c-4.5,1.92-9,4-13.48,5.86,35.67-55.27,31.94-104.37,34.21-122.12,2.9-22.65,9.07-24.49,32.15-44.35C217.7,707.21,247.58,734.82,190.61,828Zm3-1.25C250,733.61,218.83,696,250.69,661.23c33.74-29.05,18.57-19.17,10.87,1.54-8.11,21.79-3.17,33.66-17.2,82.55-10.05,35-14.26,44.5-39,77.48A101,101,0,0,0,193.6,826.79Zm50.84-74.95c24.31-81.79,1.08-86.15,52.21-130.23-31.32,49.25-26.36,136-74.93,196.91C189.52,826.24,222.19,826.7,244.44,751.84Zm-8.26,63c-.57.52.49.17-10,2.65,50.64-66.11,43.31-172.44,85.77-209-11.1,25.24-9.95,53.4-16,79.23C285,734.11,252.12,800.39,236.18,814.82Zm3.46-.55c13.82-14.18,44.41-74,56.16-118.33,8.8-33.2,6.25-64,19.66-90.53l20.18-17.36c-25.87,55.14-4.12,128.66-80.51,220.66C253.39,810.8,255.5,810.39,239.64,814.27Zm28-8.48c-3.53,1.37-7.11,2.61-10.74,3.76,78.66-95.44,53.66-168.15,81.91-223.65.71-1.4-1.24.48,18-16C334.84,611.35,334.71,741.88,267.62,805.79Zm4.62-1.88c45.89-46.72,57.23-118.31,72.28-183.85,12.62-54.95,11-49.13,32.4-67.37C360.34,583.61,366.16,659.6,325,741.16,301.47,787.69,300.62,791.83,272.24,803.91Zm41.1-26.31c-1.25,1.76-9.81,8-11.13,9,5.85-8.53,16.21-28.53,21-37.69,20.49-39.49,27.36-60.54,35.6-103.59,19-98.95,9.44-85.27,41.46-112.42-29.4,51-10.4,116.53-52.13,191.57C337.82,742.92,325.69,760.32,313.34,777.6Zm9.2-7c-6.14,5,4.18-3.73,24.56-38.59C399.18,642.9,369,559.2,415.23,520.18,392,565.36,407.22,669.87,322.54,770.58Zm22.72-18.06c-5.23,3.88-10.33,8-15.38,12.06,54.47-68.84,63-133.12,73.12-189.78,11.16-62.47,15.08-57.07,32.48-71.65C410.46,555,426.16,634.57,345.26,752.52Zm4.5-3.26C427.7,632.75,412.43,549.82,439.19,500Q448.81,492,458.47,484c-16.32,33.71-7.23,125.89-85.78,248.74C367.56,740.74,371.07,734.18,349.76,749.26Zm35.7-19.48q-6.13,2.49-12.09,5.39A509.14,509.14,0,0,0,449,533.58c7.95-54.59,9.45-49.79,34.16-69.91C468.42,494.66,476.56,624.27,385.46,729.78Zm32.83-42.23c61.08-101.44,53.21-200.63,68.56-226.91q9.09-7.38,18.27-14.69c-16.44,36.21-7.22,185-98,273.17a66.17,66.17,0,0,1-5.18,4.69C378.52,731.4,389.57,735.26,418.29,687.55Zm-11.87,34.86c59.76-56.58,78.84-139,89.81-220.56,8.28-61.62,6.89-54.52,29.3-72-16.06,27.54-7.85,54.29-19,113.35-8.76,46.51-25.48,91.42-43.14,123.17C452,686.92,440,698.89,422,714.8,415.21,720.76,419,718.51,406.42,722.41Zm54.85-46.75c10.16-16.22,21-40.9,27.75-59,40.92-109.18,15.65-158.91,44.13-192.75,15.28-11.83,1.33-10.84-4.12,52.9-7.6,88.88-21.38,176.08-87.36,236.06C401.82,722.8,434,719.18,461.27,675.66Zm-15.76,36.26c97.72-92.2,73.8-238.47,97.64-295.72q10.47-8,21-15.92c-14.45,24.58-17.68,65.81-22.3,112.46-9.32,94.18-22,121.89-74.71,193.63C460,708.31,452.74,710.12,445.51,711.92Zm128.74-50.39q-9.5,5.36-19.19,10.33c63-72.67,68.93-173.3,79.48-264,8.62-74.13,12.66-67,34.17-81.22C629.41,386.41,658,562.94,574.25,661.53Zm4.65-2.64c81.66-101.68,52.15-274.2,92.1-332.29,2-2.91-.41-1.74,34.53-23.65-9.2,12.78-16,35.14-22.18,55.08-36.42,117.85,4.09,105.44-63.93,257.45C607.28,642.62,600.2,646.68,578.9,658.89Zm25.78-15.55c16.74-17.86,52.18-104.85,58.92-157.61,6.35-49.61,1.57-70,29.76-152.11,12-34.89,15.93-33.36,43.22-49.72-52.85,70.18-1.89,191-111,345.76Q615.25,636.65,604.68,643.34Zm25.38-16.7c107-155,55.66-281,111.26-345.57,33.19-19.76,7.2-12.31-4.87,43.22-15,68.79,10.79,174.37-83,285.92C646,615.61,638.69,620.75,630.06,626.64Zm72.76-53.43c-13.38,10.3-26.83,20.52-40.45,30.5C771.76,464.16,702.6,349.06,763.73,268q16.53-9.47,33.32-18.51C745.17,302.75,770.16,476.05,702.82,573.21Zm4.73-3.65c64-98.35,40.25-263.52,89.66-317.51,5.92-6.47,7.94-7.32,34.14-20.33-49.21,52.06-48.61,256.07-93.72,314.42C736.41,547.72,707.65,569.47,707.55,569.56Zm35-27.18c24-37.14,45.37-171,48.92-191,22.08-124.37,47.24-123.54,67.78-133C790.75,302.89,831.45,473.49,742.58,542.38Zm22.86-17.61c64-87.93,34.71-228.88,96-304.59,4-4.89,1.39-4.05,30.25-16.05-46.17,53.8-33.28,204.11-82.44,288.24C793.85,503.32,780.61,513.2,765.44,524.77Zm47.52-35c38.62-69.55,32.29-149.29,56.9-232.59,17.19-58.2,25.68-55,48.06-63.48-36.84,38.14-28.74,137.36-59.07,223.9-4.94,14.1-16.6,43.83-24.92,56.29C831.28,477.88,834.48,474.65,813,489.79Zm32.51-22.11c-25.61,16.81,7.76.41,29.42-99.73,12.84-59.31,14.27-146.92,47.47-175.88q13-4.83,26.16-9.22c-12,10.81-19,27-24.45,41.87C894.83,304.31,913.09,389.18,845.47,467.68Zm7.95-5.16c59.06-74.91,46.13-151.57,70-226.92,17.51-55.34,35.33-56.15,46.45-59.48-46.16,57.23-31.15,125.25-63.18,214.67C885.31,450.38,883.38,443.21,853.42,462.52Zm31.91-20.28c8.77-11.54,14.32-27.1,19.84-41.85,35.87-95.81,20-163.91,64.62-221.18,3.52-4.52.81-3.8,25.24-10.15-50,43.81-26.15,168.39-85.23,254.62C905.61,429.79,908.52,427.52,885.33,442.24ZM910.47,426c59.11-84.79,37.2-212.68,85.7-255.45,3.35-3,2.65-2.65,16.83-5.92,17-3.93,10.31-4.5,3.12,6.31-29.27,44-44.55,192.23-79.69,236.88C934.74,410,912.2,424.87,910.47,426Zm49.36-36q-9.2,7.63-18.85,14.83c35.69-50.75,51-222.16,87-243.28,2-1.19,29.53-5.75,32-6.14-43.27,33.29-56.27,96.31-69.17,157.14C983.18,348.53,984.05,355.68,959.83,390Zm8.41-7.16c36.84-55,27-177.72,96-227,1.74-1.25-.41-1.52,23.51-4.07-78.38,50.81-75.24,157.36-103.35,216.5Q976.43,375.73,968.24,382.88Zm37.51-35.57c-5.84,5.94-11.72,11.77-17.7,17.47,24.6-55.95,25-165.9,104-213.45q12.26-1.22,24.54-1.8c-36.5,17.61-60.82,62.24-76.26,99.11C1018.54,300.62,1025.43,327.28,1005.75,347.31Zm9.79-9.86c14.9-32.11,5.86-55.24,43.06-122.91,13.92-25.32,36.37-54.58,63.21-65.22q13.73-.49,27.4-.08c-22.68,7.2-41.89,32.39-55.51,52.5-34.15,50.46-37,91.52-65.37,123.42Q1021.82,331.18,1015.54,337.45Zm41.54-35.4c-30.5,20.51-22,24.5-5.63-9.89,12.52-26.34,18.54-49.72,39.24-82.34,43.15-68,66.41-60.91,87.62-58.53-30.44,11.78-59.6,50.88-76.74,82.59C1088.67,257.76,1077.3,284,1057.08,302.05Zm7.73-4.92c30.35-32.5,38.81-81.94,83.32-122.86,8.23-7.56,23.91-19.86,34.78-22.43q9.18,1.17,18.27,2.85c-28.8,6.23-47.68,32.8-60.24,49.55C1074.33,293.1,1111,269.57,1064.81,297.13Zm47.69-19.82c-7.46,2.17-14.83,4.6-22,7.43,9.92-11.45,53.49-94.59,90.06-118,21.24-13.58,31.47-10,40.15-7.77C1164.74,182.09,1158.75,246.88,1112.5,277.31Zm5.56-1.57c42.52-31.94,54-99.29,105.87-115.88q10.39,2.82,20.57,6.47c-21.18,2.26-40,27.85-59.07,56.41C1150.05,275.67,1155.34,265.55,1118.06,275.74Zm34-8.14c22.15-15.87,44.64-65.55,71-88.89,18.88-16.71,30.47-9,36.86-6.26-29.93,4.12-23.34,33.6-88.6,90.75C1164.1,265,1159.57,265.94,1152.05,267.6Zm80.19-23q-12.88,4.77-25.92,8.88c34.44-31,45.35-70.86,70.14-73.05q6.88,3.63,13.6,7.73C1267.21,190.78,1251.53,227.21,1232.24,244.56Zm4.54-1.71c17.48-17.6,34.36-53.54,56.22-52.88,4.63,2.93,9.09,5.95,14.56,10.06-16.5.81-26.34,16.18-36.7,25.91C1264.8,231.64,1263.6,232.65,1236.78,242.85ZM1270.24,229c11.43-9.93,22.39-28.3,39.91-27q5,3.85,9.79,8C1303,214.93,1286.51,222,1270.24,229Zm21.44-3.55c4.08-1.69,8.21-3.36,12.37-5,4.55,2.31,7.12,9.34,9.42,15.07C1319.39,250.35,1320.89,243.13,1291.68,225.49Zm30,22c-6.93-9.06-8.19-22.86-15.38-27.87,13.38-5,11.94-4.56,14.23-2.36,7.85,7.53,11.14,32.37,17.65,45.59C1332.91,257.56,1327.41,252.42,1321.72,247.53Zm22.36,21.38c-11.56-15.45-12.26-45.12-23.31-54-.7-.57,12.75-3.71,14.57-4.09,17,20.32,13.09,49.65,22.68,73.66C1353.51,279.18,1348.87,274,1344.08,268.91Zm18.67,21.29c-13.4-24.83-7.27-57-25.32-79.78.33-.06,8.07-1.59,8.54-1.06,27,29.88,17.14,57.18,22.12,79.86C1371.36,304.1,1376.65,307.23,1362.75,290.2Zm-13.53-81.48a97.54,97.54,0,0,1,11.35-.39c2.68.07,16.42,13.25,20.75,38.66,4.29,25.14-.74,51,6.13,76.14C1353.85,274.88,1384.09,249.16,1349.22,208.72Zm41.94,119.79c-13.78-38.36,6.06-89.8-26.77-120a59.12,59.12,0,0,1,14.93,3c.06,2,15.51,12.26,19.24,49.06,3.13,30.89-3.27,56.75,7.2,90C1401.43,343.84,1396.73,336.66,1391.16,328.51Zm18.78,28.75c.2-1.18-5.32-11.77-7.51-31.42-3.88-35,6.48-82-19.68-112.93,37,16.46,25.25,78.86,33.12,139.46C1419.15,377.67,1424.48,380.51,1409.94,357.26Z"/><path d="M1409.94,357.26c.2-1.18-5.32-11.77-7.51-31.42-3.88-35,6.48-82-19.68-112.93,37,16.46,25.25,78.86,33.12,139.46C1419.15,377.67,1424.48,380.51,1409.94,357.26Z"/><path d="M1405.76,350.61c-4.33-6.77-9-13.95-14.6-22.1-13.78-38.36,6.06-89.8-26.77-120a59.12,59.12,0,0,1,14.93,3c.06,2,15.51,12.26,19.24,49.06C1401.69,291.51,1395.29,317.37,1405.76,350.61Z"/><path d="M1387.45,323.13c-33.6-48.25-3.36-74-38.23-114.41a97.54,97.54,0,0,1,11.35-.39c2.68.07,16.42,13.25,20.75,38.66C1385.61,272.13,1380.58,298,1387.45,323.13Z"/><path d="M1362.75,290.2c-13.4-24.83-7.27-57-25.32-79.78.33-.06,8.07-1.59,8.54-1.06,27,29.88,17.14,57.18,22.12,79.86C1371.36,304.1,1376.65,307.23,1362.75,290.2Z"/><path d="M1358,284.51c-4.51-5.33-9.15-10.55-13.94-15.6-11.56-15.45-12.26-45.12-23.31-54-.7-.57,12.75-3.71,14.57-4.09C1352.32,231.17,1348.43,260.5,1358,284.51Z"/><path d="M1338.22,262.89c-5.31-5.33-10.81-10.47-16.5-15.36-6.93-9.06-8.19-22.86-15.38-27.87,13.38-5,11.94-4.56,14.23-2.36C1328.42,224.83,1331.71,249.67,1338.22,262.89Z"/><path d="M1291.68,225.49c4.08-1.69,8.21-3.36,12.37-5,4.55,2.31,7.12,9.34,9.42,15.07C1319.39,250.35,1320.89,243.13,1291.68,225.49Z"/><path class="cls-2" d="M1343.57,204.66a155.49,155.49,0,0,0-18.12,3.76c-72.76-63.71-171.81-72-263.85-58-303.93,46.4-614.75,336.56-825.42,517C61.62,817,42.65,829.76,20.45,866c15.57-27.52,26-36.32,190.91-183.74C503.16,421.42,1046.79-53.76,1343.57,204.66Z"/></g></g></svg>